<svg width="150" height="57" viewBox="0 0 150 57" xmlns="http://www.w3.org/2000/svg"><title>La Gold Card</title><defs><linearGradient x1="-.007%" y1="50.006%" x2="99.982%" y2="50.006%" id="a"><stop stop-color="#F5E8B1" offset="0%"/><stop stop-color="#E2CB8D" offset="7.13%"/><stop stop-color="#D3B572" offset="14.73%"/><stop stop-color="#C8A45D" offset="22.6%"/><stop stop-color="#C19A4F" offset="30.73%"/><stop stop-color="#BD9447" offset="39.29%"/><stop stop-color="#BC9244" offset="48.97%"/><stop stop-color="#BD9447" offset="58.56%"/><stop stop-color="#C19A4F" offset="67.53%"/><stop stop-color="#C9A55F" offset="76.24%"/><stop stop-color="#D4B674" offset="84.8%"/><stop stop-color="#E4CE90" offset="93.16%"/><stop stop-color="#F5E8B1" offset="100%"/></linearGradient></defs><path d="M61.22 17.724l-4.797-.041-.082 18.049 4.797.04c3.374 0 5.406-1.83 5.447-5.975l.04-6.017c0-4.146-2.032-6.016-5.406-6.056zm3.414 12.073c0 3.089-1.342 4.268-3.496 4.227h-2.846l.082-14.512h2.845c2.195 0 3.496 1.179 3.456 4.268l-.041 6.017zm79.552-12.073l-4.796-.041-.082 18.049 4.797.04c3.374 0 5.407-1.83 5.447-5.975l.04-6.017c0-4.146-2.032-6.016-5.406-6.056zm3.415 12.073c0 3.089-1.341 4.268-3.496 4.227h-2.845l.08-14.512h2.846c2.195 0 3.496 1.179 3.456 4.268l-.041 6.017zM41.911 17.724H40l-.081 18.048 8.048.04v-1.747l-6.097-.04.04-16.301zm-16.545-.448c-3.252 0-5.244 1.952-5.244 6.017l-.04 6.382c-.041 4.065 1.95 6.057 5.202 6.097 3.252 0 5.244-1.951 5.244-6.016l.041-6.382c0-4.106-1.951-6.098-5.203-6.098zm3.252 12.44c0 3.089-1.26 4.308-3.334 4.268-2.073 0-3.292-1.26-3.252-4.31l.041-6.381c0-3.09 1.26-4.31 3.333-4.269 2.074 0 3.293 1.26 3.252 4.31l-.04 6.381zm-23.17-12.44c-3.253 0-5.245 1.952-5.245 6.017l-.04 6.382C.122 33.74 1.992 35.732 5 35.772c1.83 0 3.17-.813 3.821-2.56v2.316h1.748l.04-9.512-5.568-.04v1.747h3.658v2.074c0 2.886-1.3 4.146-3.333 4.146-2.073 0-3.293-1.26-3.252-4.309l.04-6.382c0-3.049 1.26-4.309 3.334-4.268 2.073 0 3.292 1.26 3.252 4.309v.731h1.91v-.731c0-4.025-1.95-6.017-5.203-6.017zM75.04 48.902l-1.057-5-3.292.691 1.057 4.96-4.756 1.016.853 3.984 8.374 1.788 1.91-4.309.895-8.699-3.374-.366-.61 5.935zm-2.032 2.642c-.163.163-.407.163-.65.082-.244-.082-.366-.366-.244-.732.08-.244.406-.284.569-.325.04 0 .122 0 .162.04.122.041.325.163.366.326a.671.671 0 0 1-.203.61zm2.439.285c-.122.203-.447.244-.773.081-.203-.122-.203-.366-.203-.528 0-.081.04-.163.122-.244.081-.081.203-.244.366-.244.244 0 .447.122.57.285.08.203.04.406-.082.65zm11.829-34.553c-3.252 0-5.244 1.952-5.244 6.017l-.04 6.382c-.041 4.065 1.95 6.057 5.203 6.097 3.252 0 5.244-1.951 5.244-6.016v-.976h-1.91v.976c0 3.049-1.261 4.309-3.334 4.268-2.073 0-3.293-1.26-3.252-4.309l.04-6.382c0-3.049 1.26-4.309 3.334-4.268 2.073 0 3.292 1.26 3.252 4.309v.732h1.91v-.732c0-4.106-1.95-6.098-5.203-6.098zM80.976.122h-2.237l-1.91 9.309h1.504l.406-2.114h2.277l.406 2.114h1.504L80.976.122zm-1.993 5.854l.854-4.472.854 4.472h-1.708zM125 27.439c2.927 0 5.204-1.423 5.244-4.512v-.732c0-2.927-2.032-4.471-4.959-4.471l-5.122-.041-.081 18.049h1.91l.041-8.862 6.341 8.862h2.358l-6.138-8.334.406.04zm-2.926-8.008h2.967c2.033 0 3.293.813 3.293 2.967v.244c0 2.277-1.301 3.17-3.293 3.17h-2.967v-6.381zm-17.236-1.748l-4.43 18.008h1.95l1.138-4.756 5.488.04 1.098 4.757h1.951l-4.268-18.05h-2.927zm-.976 11.545l2.399-10.041 2.276 10.081-4.675-.04zM71.22 8.089h-2.927V.122h-1.504v9.309h4.39V8.089h.041z" transform="translate(0 .496)" fill-rule="nonzero" fill="url(#a)"/></svg>