<svg width="369" height="139" viewBox="0 0 369 139" xmlns="http://www.w3.org/2000/svg"><title>Shape</title><defs><linearGradient x1="0%" y1="50%" y2="50%" id="a"><stop stop-color="#F5E8B1" offset="0%"/><stop stop-color="#E2CB8D" offset="7.1%"/><stop stop-color="#D3B572" offset="14.7%"/><stop stop-color="#C8A45D" offset="22.6%"/><stop stop-color="#C19A4F" offset="30.7%"/><stop stop-color="#BD9447" offset="39.3%"/><stop stop-color="#BC9244" offset="49%"/><stop stop-color="#BD9447" offset="58.6%"/><stop stop-color="#C19A4F" offset="67.5%"/><stop stop-color="#C9A55F" offset="76.2%"/><stop stop-color="#D4B674" offset="84.8%"/><stop stop-color="#E4CE90" offset="93.2%"/><stop stop-color="#F5E8B1" offset="100%"/></linearGradient></defs><path d="M13.461 42.461C5.479 42.419.604 47.302.551 57.296l-.082 15.73C.418 83.02 4.945 87.951 12.395 87.99c4.495.024 7.759-2.029 9.436-6.278l-.029 5.736 4.257.023.122-23.358-13.719-.072-.023 4.316 8.987.047-.026 5.085c-.037 7.097-3.188 10.214-8.156 10.188-5.085-.027-8.085-3.117-8.045-10.627l.082-15.73c.039-7.51 3.13-10.569 8.156-10.543 5.087.027 8.085 3.117 8.047 10.627l-.01 1.774 4.73.025.01-1.774c.054-9.993-4.769-14.926-12.753-14.968zm167.002-29.248h6.283v9.874h3.591V.646h-3.591v9.276h-6.283V.646h-3.59v22.441h3.59v-9.874zm39.318 6.583h-6.702v-6.583h6.105V9.922h-6.105V3.938h6.702V.647h-10.292v22.441h10.292v-3.292zM62.507 42.457c-7.982-.041-12.857 4.841-12.91 14.835l-.082 15.73c-.051 9.994 4.772 14.927 12.754 14.968 7.984.042 12.859-4.841 12.91-14.835l.082-15.73c.053-9.993-4.77-14.927-12.754-14.968zm7.942 30.674c-.04 7.569-3.13 10.569-8.158 10.542-5.085-.026-8.085-3.058-8.045-10.627l.082-15.73c.039-7.569 3.13-10.569 8.156-10.543 5.087.027 8.085 3.058 8.047 10.628l-.082 15.73zm81.08-50.043h3.59V3.938h4.399V.647H147.13v3.291h4.399v19.15zm156.072 44.367c7.154.037 12.849-3.481 12.889-11.109l.01-1.774c.037-7.155-5.029-10.966-12.183-11.004l-12.595-.066-.232 44.351 4.73.025.114-21.762L315.95 87.96l5.794.031-15.148-20.54 1.005.004zm-7.172-19.611l7.273.038c4.966.026 8.09 1.994 8.063 7.257l-.003.591c-.029 5.559-3.174 7.789-8.14 7.763l-7.273-.038.08-15.611zm-115.745 72.414l-2.595-12.211-8.14 1.73 2.595 12.211-11.734 2.494 2.073 9.753 20.634 4.386 4.719-10.599 2.247-21.379-8.277-.87-1.522 14.485zm-4.998 6.527c-.426.39-.989.354-1.585.155-.597-.198-.861-.919-.636-1.79.168-.647.96-.744 1.356-.751.15-.003.298.028.435.09.28.127.754.398.851.811.138.596.005 1.095-.421 1.485zm5.974.672c-.31.537-1.121.608-1.919.217-.539-.264-.536-.935-.477-1.344.032-.223.121-.433.261-.61.192-.244.513-.561.884-.571.603-.016 1.121.255 1.414.744.294.488.147 1.026-.163 1.564zm29.16-85c-7.984-.041-12.859 4.841-12.91 14.835l-.082 15.73c-.053 9.994 4.77 14.927 12.754 14.968 7.982.042 12.857-4.841 12.91-14.835l.011-2.365-4.73-.024-.013 2.365c-.039 7.51-3.13 10.569-8.156 10.542-5.085-.026-8.085-3.117-8.047-10.627l.082-15.73c.04-7.51 3.132-10.569 8.158-10.543 5.085.027 8.085 3.118 8.045 10.628l-.01 1.774 4.732.025.01-1.774c.052-9.994-4.772-14.928-12.754-14.969zm-111.588 1.104l-4.73-.025-.232 44.351 19.751.103.023-4.317-15.021-.078.209-40.034zm154.717-.014l-10.934 44.295 4.789.025 2.781-11.694 13.482.07 2.659 11.723 4.789.025-10.471-44.406-7.095-.038zm-2.336 28.313l5.865-24.747 5.608 24.807-11.473-.06zM150.72 43.639l-11.767-.062-.232 44.351 11.767.062c8.28.043 13.33-4.543 13.383-14.714l.077-14.783c.053-10.172-4.948-14.811-13.228-14.854zm8.42 29.612c-.04 7.628-3.307 10.45-8.629 10.422l-7.035-.037.186-35.717 7.035.037c5.381.028 8.56 2.883 8.519 10.512l-.076 14.783zm195.659-29.612l-11.767-.062-.232 44.351 11.767.062c8.28.043 13.33-4.543 13.383-14.714l.077-14.783c.054-10.172-4.948-14.811-13.228-14.854zm8.42 29.612c-.04 7.628-3.307 10.45-8.629 10.422l-7.037-.037.187-35.717 7.037.037c5.381.028 8.56 2.883 8.519 10.512l-.077 14.783z" fill-rule="nonzero" fill="url(#a)"/></svg>