<svg xmlns="http://www.w3.org/2000/svg" width="581" height="181" viewBox="0 0 581 181"><path d="M105.895 58.38h6.61l-1.095-5.128V22.68h-6.323v13.944c-1.902-2.204-4.518-3.497-7.607-3.497-6.324 0-11.22 5.222-11.22 12.89 0 7.667 4.896 12.89 11.22 12.89 3.138 0 5.847-1.342 7.75-3.643l.665 3.115zm124.992-18.4c1.284 0 2.472.334 3.565 1.1l2.996-6.755c-1.38-.864-2.996-1.246-4.564-1.246-2.853 0-5.23 1.29-6.75 3.69l-.667-3.118h-6.514l1.046 4.84v19.885h6.32V42.613c.856-1.63 2.473-2.635 4.565-2.635v.002h.002zm18.54 12.266c-3.658 0-6.37-2.443-6.37-6.23 0-3.833 2.712-6.228 6.37-6.228 3.71 0 6.373 2.395 6.373 6.228 0 3.787-2.663 6.23-6.372 6.23zm-157.035-6.23c0-3.833 2.71-6.228 6.37-6.228 3.71 0 6.372 2.395 6.372 6.228 0 3.787-2.662 6.23-6.37 6.23-3.66 0-6.372-2.443-6.372-6.23zm185.04 6.23c-3.66 0-6.37-2.443-6.37-6.23 0-3.833 2.71-6.228 6.37-6.228 3.708 0 6.37 2.395 6.37 6.228 0 3.787-2.662 6.23-6.37 6.23zM127.86 39.404c3.28 0 5.42 1.533 6.085 4.36h-12.17c.713-2.827 2.852-4.36 6.084-4.36zm75.64 0c3.282 0 5.422 1.533 6.087 4.36h-12.17c.713-2.827 2.852-4.36 6.084-4.36zM172.647 58.38h10.174l6.61-24.726h-6.894l-4.848 20.03-4.85-20.03h-6.8l6.61 24.725zm-16.308 0h6.32V33.653h-6.32V58.38zm-27.51.458c3.52 0 6.99-.96 9.89-2.828l-2.424-5.462c-2.283 1.198-4.802 1.917-7.37 1.917-3.327 0-5.657-1.294-6.656-3.69h17.78c.19-.91.287-1.82.287-2.923 0-7.667-5.277-12.794-12.362-12.794-7.13 0-12.36 5.175-12.36 12.89 0 7.858 5.182 12.89 13.217 12.89zm161.107-12.822c0-7.667-5.325-12.89-12.504-12.89-7.18 0-12.504 5.223-12.504 12.89 0 7.668 5.324 12.89 12.503 12.89 7.18 0 12.504-5.222 12.504-12.89zm-85.578 12.89c3.516 0 6.987-.958 9.89-2.827l-2.427-5.465c-2.282 1.198-4.802 1.916-7.37 1.916-3.327 0-5.657-1.292-6.656-3.69h17.782c.19-.91.284-1.82.284-2.922 0-7.667-5.278-12.794-12.362-12.794-7.13 0-12.36 5.174-12.36 12.89 0 7.858 5.183 12.89 13.218 12.89v.002zm45.07 0c7.18 0 12.503-5.222 12.503-12.89 0-7.667-5.324-12.89-12.504-12.89s-12.504 5.223-12.504 12.89c0 7.668 5.325 12.89 12.503 12.89zm-105.07-.527h6.322v-35.7h-6.323v35.7zm15.165-28.13c2.234 0 3.946-1.726 3.946-4.026s-1.71-4.025-3.945-4.025c-2.282 0-3.994 1.725-3.994 4.025 0 2.3 1.713 4.025 3.995 4.025zM50.896.177l-3.62 34.262L41.1 5.552 21.74 9.648l6.172 28.884L0 44.432l4.93 23.072 49.084 10.374L65.24 52.806l5.344-50.57L50.896.176zM35.386 49.88c-1.013.922-2.352.837-3.77.367-1.418-.468-2.048-2.173-1.512-4.234.4-1.53 2.284-1.76 3.226-1.776.358-.006.71.066 1.035.212.666.3 1.794.94 2.023 1.916.33 1.408.012 2.59-1 3.512h-.002v.002zm14.21 1.59c-.736 1.27-2.666 1.438-4.565.514-1.28-.624-1.27-2.212-1.13-3.18a2.992 2.992 0 0 1 .62-1.444c.457-.576 1.22-1.327 2.102-1.35 1.434-.038 2.668.602 3.365 1.76.7 1.154.35 2.427-.387 3.7h-.004z" fill="#FFF"/><path d="M395.895 58.38h6.61l-1.095-5.128V22.68h-6.323v13.944c-1.902-2.204-4.518-3.497-7.607-3.497-6.324 0-11.22 5.222-11.22 12.89 0 7.667 4.896 12.89 11.22 12.89 3.138 0 5.847-1.342 7.75-3.643l.665 3.115zm124.992-18.4c1.284 0 2.472.334 3.565 1.1l2.996-6.755c-1.38-.864-2.996-1.246-4.564-1.246-2.853 0-5.23 1.29-6.75 3.69l-.667-3.118h-6.514l1.046 4.84v19.885h6.32V42.613c.856-1.63 2.473-2.635 4.565-2.635v.002h.002zm18.54 12.266c-3.658 0-6.37-2.443-6.37-6.23 0-3.833 2.712-6.228 6.37-6.228 3.71 0 6.373 2.395 6.373 6.228 0 3.787-2.663 6.23-6.372 6.23zm-157.035-6.23c0-3.833 2.71-6.228 6.37-6.228 3.71 0 6.372 2.395 6.372 6.228 0 3.787-2.662 6.23-6.37 6.23-3.66 0-6.372-2.443-6.372-6.23zm185.04 6.23c-3.66 0-6.37-2.443-6.37-6.23 0-3.833 2.71-6.228 6.37-6.228 3.708 0 6.37 2.395 6.37 6.228 0 3.787-2.662 6.23-6.37 6.23zM417.86 39.404c3.28 0 5.42 1.533 6.085 4.36h-12.17c.713-2.827 2.852-4.36 6.084-4.36zm75.64 0c3.282 0 5.422 1.533 6.087 4.36h-12.17c.713-2.827 2.852-4.36 6.084-4.36zM462.647 58.38h10.174l6.61-24.726h-6.894l-4.848 20.03-4.85-20.03h-6.8l6.61 24.725zm-16.308 0h6.32V33.653h-6.32V58.38zm-27.51.458c3.52 0 6.99-.96 9.89-2.828l-2.424-5.462c-2.283 1.198-4.802 1.917-7.37 1.917-3.327 0-5.657-1.294-6.656-3.69h17.78c.19-.91.287-1.82.287-2.923 0-7.667-5.277-12.794-12.362-12.794-7.13 0-12.36 5.175-12.36 12.89 0 7.858 5.182 12.89 13.217 12.89zm161.107-12.822c0-7.667-5.325-12.89-12.504-12.89-7.18 0-12.504 5.223-12.504 12.89 0 7.668 5.324 12.89 12.503 12.89 7.18 0 12.504-5.222 12.504-12.89zm-85.578 12.89c3.516 0 6.987-.958 9.89-2.827l-2.427-5.465c-2.282 1.198-4.802 1.916-7.37 1.916-3.327 0-5.657-1.292-6.656-3.69h17.782c.19-.91.284-1.82.284-2.922 0-7.667-5.278-12.794-12.362-12.794-7.13 0-12.36 5.174-12.36 12.89 0 7.858 5.183 12.89 13.218 12.89v.002zm45.07 0c7.18 0 12.503-5.222 12.503-12.89 0-7.667-5.324-12.89-12.504-12.89s-12.504 5.223-12.504 12.89c0 7.668 5.325 12.89 12.503 12.89zm-105.07-.527h6.322v-35.7h-6.323v35.7zm15.165-28.13c2.234 0 3.946-1.726 3.946-4.026s-1.71-4.025-3.945-4.025c-2.282 0-3.994 1.725-3.994 4.025 0 2.3 1.713 4.025 3.995 4.025zM340.895.176l-3.62 34.262L331.1 5.552l-19.36 4.094 6.172 28.884L290 44.43l4.93 23.073 49.084 10.374 11.225-25.072 5.342-50.57-19.688-2.06.002.002zm-15.51 49.703c-1.012.922-2.35.837-3.77.367-1.417-.468-2.047-2.173-1.51-4.234.4-1.53 2.283-1.76 3.225-1.776.358-.006.71.066 1.035.212.666.3 1.794.94 2.023 1.916.33 1.408.012 2.59-1 3.512h-.002v.002zm14.21 1.59c-.735 1.27-2.665 1.438-4.564.514-1.28-.624-1.27-2.212-1.13-3.18a2.992 2.992 0 0 1 .62-1.444c.457-.576 1.22-1.327 2.102-1.35 1.434-.038 2.668.602 3.365 1.76.7 1.154.35 2.427-.387 3.7h-.004z" fill="#00CCBC"/><path d="M479.728 180.713h3.61l-.596-2.794v-16.66h-3.455v7.6c-1.04-1.204-2.468-1.91-4.156-1.91-3.452 0-6.13 2.847-6.13 7.024 0 4.178 2.678 7.024 6.13 7.024 1.717 0 3.198-.73 4.237-1.985l.363 1.697h-.002v.003zm68.292-10.026c.7 0 1.35.182 1.948.6l1.636-3.68c-.754-.47-1.636-.68-2.493-.68-1.556 0-2.855.705-3.686 2.01l-.364-1.696h-3.56l.572 2.64v10.835h3.456v-8.59c.467-.888 1.35-1.436 2.494-1.436h-.002v-.003zm10.13 6.684c-2 0-3.48-1.33-3.48-3.392 0-2.088 1.48-3.393 3.48-3.393 2.026 0 3.48 1.305 3.48 3.393 0 2.064-1.454 3.395-3.48 3.395v-.002zm-85.8-3.392c0-2.088 1.482-3.393 3.482-3.393 2.026 0 3.48 1.305 3.48 3.393 0 2.064-1.454 3.395-3.48 3.395-2 0-3.48-1.33-3.48-3.394h-.002v-.002zm101.1 3.395c-2 0-3.48-1.33-3.48-3.394 0-2.09 1.48-3.394 3.48-3.394 2.026 0 3.48 1.305 3.48 3.393 0 2.063-1.454 3.394-3.48 3.394zm-81.72-6.996c1.792 0 2.96.835 3.324 2.376h-6.65c.39-1.54 1.56-2.376 3.325-2.376zm41.327 0c1.792 0 2.962.835 3.325 2.376h-6.65c.39-1.54 1.56-2.376 3.325-2.376zm-16.858 10.34h5.556l3.61-13.473H521.6l-2.65 10.914-2.65-10.913h-3.713l3.61 13.473h.002zm-8.91 0h3.452V167.24h-3.455v13.476h.002zm-15.095.286c1.922 0 3.818-.522 5.403-1.54l-1.326-2.977c-1.247.653-2.624 1.045-4.026 1.045-1.82 0-3.092-.704-3.638-2.01h9.715c.104-.496.156-.992.156-1.593 0-4.177-2.883-6.97-6.754-6.97-3.897 0-6.754 2.82-6.754 7.022 0 4.282 2.83 7.023 7.22 7.023h.003zm81.253 0c3.92 0 6.83-2.846 6.83-7.024s-2.91-7.024-6.83-7.024c-3.923 0-6.833 2.846-6.833 7.023s2.91 7.023 6.832 7.023zm-39.926 0c1.922 0 3.818-.522 5.403-1.54l-1.325-2.977c-1.247.653-2.623 1.045-4.026 1.045-1.818 0-3.09-.704-3.637-2.01h9.714c.105-.496.157-.992.157-1.593 0-4.177-2.883-6.97-6.753-6.97-3.896 0-6.754 2.82-6.754 7.022 0 4.282 2.832 7.023 7.222 7.023zm24.625 0c3.922 0 6.83-2.846 6.83-7.024s-2.91-7.024-6.83-7.024c-3.923 0-6.833 2.846-6.833 7.023s2.91 7.023 6.832 7.023zm-57.408-.287h3.454V161.26h-3.455v19.455zm8.286-15.327c1.22 0 2.155-.94 2.155-2.193 0-1.254-.935-2.194-2.155-2.194-1.248 0-2.184.94-2.184 2.194 0 1.252.937 2.192 2.184 2.192h.002z" fill="#2E3333"/><path d="M10.728 180.713h3.61l-.596-2.794v-16.66h-3.455v7.6c-1.04-1.204-2.468-1.91-4.156-1.91-3.452 0-6.13 2.847-6.13 7.024C0 178.154 2.678 181 6.13 181c1.715 0 3.196-.73 4.235-1.984l.363 1.697zm68.292-10.026c.7 0 1.35.182 1.948.6l1.636-3.68c-.754-.47-1.636-.68-2.493-.68-1.556 0-2.855.705-3.686 2.01l-.364-1.696H72.5l.572 2.64v10.835h3.456v-8.59c.467-.888 1.35-1.436 2.494-1.436h-.002v-.003zm10.13 6.684c-2 0-3.48-1.33-3.48-3.392 0-2.088 1.48-3.393 3.48-3.393 2.026 0 3.48 1.305 3.48 3.393 0 2.064-1.454 3.395-3.48 3.395v-.002zm-85.8-3.392c0-2.088 1.482-3.393 3.482-3.393 2.026 0 3.48 1.305 3.48 3.393 0 2.064-1.454 3.395-3.48 3.395-2 0-3.48-1.33-3.48-3.394H3.35v-.002zm101.1 3.395c-2 0-3.48-1.33-3.48-3.394 0-2.09 1.48-3.394 3.48-3.394 2.026 0 3.48 1.305 3.48 3.393 0 2.063-1.454 3.394-3.48 3.394zm-81.72-6.996c1.792 0 2.96.835 3.324 2.376h-6.65c.39-1.54 1.56-2.376 3.325-2.376zm41.327 0c1.792 0 2.962.835 3.325 2.376h-6.65c.39-1.54 1.56-2.376 3.325-2.376zM47.2 180.714h5.558l3.61-13.473h-3.766l-2.65 10.916-2.65-10.913H43.59l3.61 13.473v-.002zm-8.91 0h3.454V167.24H38.29v13.473zM23.196 181c1.922 0 3.818-.522 5.403-1.54l-1.327-2.977c-1.247.653-2.624 1.045-4.026 1.045-1.82 0-3.092-.705-3.638-2.01h9.714c.104-.497.156-.993.156-1.594 0-4.177-2.882-6.97-6.753-6.97-3.897 0-6.754 2.82-6.754 7.022 0 4.283 2.83 7.024 7.22 7.024h.003zm81.253 0c3.92 0 6.83-2.846 6.83-7.024 0-4.177-2.91-7.023-6.83-7.023-3.924 0-6.834 2.846-6.834 7.023 0 4.178 2.91 7.024 6.832 7.024zm-39.927 0c1.922 0 3.818-.522 5.403-1.54l-1.325-2.977c-1.246.653-2.622 1.045-4.025 1.045-1.818 0-3.09-.705-3.637-2.01h9.714c.104-.497.156-.993.156-1.594 0-4.177-2.883-6.97-6.753-6.97-3.896 0-6.754 2.82-6.754 7.022 0 4.283 2.833 7.024 7.223 7.024zm24.625 0c3.922 0 6.83-2.846 6.83-7.024 0-4.177-2.91-7.023-6.83-7.023-3.923 0-6.833 2.846-6.833 7.023 0 4.178 2.91 7.024 6.832 7.024zm-57.408-.287h3.455V161.26H31.74v19.453zm8.287-15.327c1.22 0 2.155-.94 2.155-2.192 0-1.254-.936-2.194-2.156-2.194-1.248 0-2.184.94-2.184 2.194 0 1.252.936 2.192 2.183 2.192h.002z" fill="#00CCBC"/></svg>