<svg width="273" height="40" viewBox="0 0 273 40" xmlns="http://www.w3.org/2000/svg"><path d="M54.305 29.938h3.39l-.562-2.63V11.632H53.89v7.152c-.975-1.13-2.316-1.794-3.9-1.794-3.243 0-5.755 2.678-5.755 6.61 0 3.932 2.512 6.61 5.755 6.61 1.61 0 2.998-.688 3.974-1.867l.34 1.598.001-.003zm64.1-9.436c.657 0 1.266.172 1.827.565l1.536-3.465c-.707-.442-1.536-.64-2.34-.64-1.463 0-2.683.665-3.463 1.894l-.34-1.598h-3.34l.535 2.482v10.198h3.243v-8.085c.438-.835 1.268-1.35 2.34-1.35l.002-.001zm9.507 6.29c-1.877 0-3.267-1.252-3.267-3.194 0-1.966 1.39-3.194 3.267-3.194 1.902 0 3.268 1.228 3.268 3.194 0 1.942-1.366 3.195-3.268 3.195v-.001zM47.382 23.6c0-1.966 1.39-3.194 3.266-3.194 1.902 0 3.267 1.228 3.267 3.194 0 1.942-1.365 3.195-3.267 3.195-1.877 0-3.267-1.253-3.267-3.195h.001zm94.89 3.195c-1.877 0-3.266-1.253-3.266-3.195 0-1.966 1.39-3.194 3.267-3.194 1.9 0 3.267 1.228 3.267 3.194 0 1.942-1.366 3.195-3.267 3.195h-.001zM65.57 20.207c1.682 0 2.78.786 3.12 2.236h-6.24c.364-1.45 1.46-2.236 3.12-2.236zm38.79 0c1.682 0 2.78.786 3.12 2.236h-6.24c.365-1.45 1.462-2.236 3.12-2.236zm-15.823 9.73h5.217l3.39-12.68h-3.537L91.12 27.53l-2.486-10.272h-3.487l3.39 12.68v-.001zm-8.364 0h3.243v-12.68h-3.243v12.68zm-14.106.236c1.804 0 3.584-.492 5.07-1.45l-1.242-2.8c-1.17.614-2.463.982-3.78.982-1.706 0-2.9-.663-3.413-1.892h9.12a7.21 7.21 0 0 0 .145-1.5c0-3.93-2.706-6.56-6.34-6.56-3.656 0-6.338 2.654-6.338 6.61 0 4.03 2.657 6.61 6.777 6.61h.001zm82.618-6.575c0-3.932-2.73-6.61-6.412-6.61s-6.413 2.678-6.413 6.61c0 3.932 2.73 6.61 6.413 6.61 3.68 0 6.412-2.678 6.412-6.61zm-43.886 6.61c1.803 0 3.583-.49 5.07-1.45l-1.243-2.8c-1.17.614-2.463.982-3.78.982-1.706 0-2.9-.663-3.413-1.892h9.12a7.21 7.21 0 0 0 .145-1.5c0-3.93-2.708-6.56-6.34-6.56-3.657 0-6.34 2.654-6.34 6.61 0 4.03 2.658 6.61 6.78 6.61h.001zm23.112 0c3.682 0 6.412-2.678 6.412-6.61 0-3.932-2.73-6.61-6.412-6.61-3.68 0-6.412 2.678-6.412 6.61 0 3.932 2.73 6.61 6.412 6.61zm-53.883-.27h3.242V11.63h-3.24v18.31l-.002-.002zm7.777-14.425c1.146 0 2.024-.884 2.024-2.064 0-1.18-.877-2.065-2.023-2.065-1.17 0-2.048.885-2.048 2.064 0 1.18.877 2.063 2.047 2.063v.002z" fill="#FFF"/><path d="M159.524 22.902c0-2.574 1.196-3.874 3.146-3.874s3.146 1.3 3.146 3.874V30h2.6v-7.618c0-3.822-2.106-5.642-4.94-5.642-1.716 0-3.146.806-3.952 2.314V17h-2.6v13h2.6v-7.098zm17.004-3.874c2.08 0 3.51 1.3 3.822 3.484h-7.644c.312-2.184 1.716-3.484 3.822-3.484zm6.058 7.072h-2.808c-.52 1.17-1.56 1.872-3.146 1.872-2.184 0-3.64-1.326-3.952-3.588h10.192c.026-.286.052-.572.052-.884 0-3.978-2.704-6.76-6.396-6.76-3.692 0-6.396 2.782-6.396 6.76 0 3.978 2.704 6.76 6.396 6.76 2.99 0 5.252-1.482 6.058-4.16zm4.16 3.9h3.276l2.782-10.738L195.56 30h3.276l3.51-13h-2.496l-2.678 10.738L194.442 17h-3.302l-2.73 10.738L185.732 17h-2.496l3.51 13zm26.91-3.666c0-5.304-7.93-2.99-7.93-5.876 0-1.04.936-1.638 2.34-1.638 1.508 0 2.626.91 2.626 2.158h2.704c0-2.392-2.288-4.238-5.33-4.238-2.808 0-4.966 1.456-4.966 3.822 0 5.226 7.878 2.73 7.878 5.876 0 1.17-.936 1.768-2.522 1.768-1.664 0-2.912-.806-2.912-2.392h-2.704c0 2.834 2.418 4.446 5.616 4.446 3.016 0 5.2-1.482 5.2-3.926zm4.628-2.86c0-2.678 1.456-4.03 3.952-4.03.52 0 .988.078 1.378.208v-2.834a3.768 3.768 0 0 0-.832-.078c-1.976 0-3.562.91-4.498 2.6V17h-2.6v13h2.6v-6.526zm12.454 6.786c3.77 0 6.578-2.782 6.578-6.76 0-3.978-2.808-6.76-6.578-6.76-3.77 0-6.578 2.782-6.578 6.76 0 3.978 2.808 6.76 6.578 6.76zm0-2.392c-2.262 0-3.978-1.742-3.978-4.368 0-2.626 1.716-4.368 3.978-4.368 2.262 0 3.978 1.742 3.978 4.368 0 2.626-1.716 4.368-3.978 4.368zm14.04 2.392c3.77 0 6.578-2.782 6.578-6.76 0-3.978-2.808-6.76-6.578-6.76-3.77 0-6.578 2.782-6.578 6.76 0 3.978 2.808 6.76 6.578 6.76zm0-2.392c-2.262 0-3.978-1.742-3.978-4.368 0-2.626 1.716-4.368 3.978-4.368 2.262 0 3.978 1.742 3.978 4.368 0 2.626-1.716 4.368-3.978 4.368zm11.024-5.33c0-2.34 1.066-3.51 2.808-3.51 1.742 0 2.808 1.17 2.808 3.51V30h2.6v-7.462c0-2.34 1.066-3.51 2.834-3.51 1.742 0 2.782 1.17 2.782 3.51V30h2.6v-7.982c0-3.562-1.95-5.278-4.576-5.278-1.872 0-3.38.884-4.134 2.574-.754-1.742-2.262-2.574-4.108-2.574-1.56 0-2.86.728-3.614 2.08V17h-2.6v13h2.6v-7.462z" fill="#D1D7D7"/><path d="M26.1.09l-1.856 17.57-3.166-14.81-9.93 2.098 3.166 14.812L0 22.786l2.53 11.83L27.7 39.94l5.756-12.858 2.74-25.934L26.102.09H26.1zm-7.953 25.49c-.52.472-1.206.43-1.933.188-.728-.24-1.05-1.115-.776-2.172.205-.785 1.17-.902 1.654-.91.184-.003.364.033.53.11.343.152.92.482 1.04.983.167.72.005 1.326-.515 1.8v.001zm7.287.815c-.378.65-1.367.738-2.34.264-.658-.322-.654-1.136-.583-1.632.04-.27.15-.526.32-.74.234-.296.626-.68 1.078-.693.735-.02 1.367.31 1.725.902.358.592.18 1.245-.2 1.898v.001z" fill="#FFF"/></svg>