<svg xmlns="http://www.w3.org/2000/svg" viewBox="0 0 595.28 841.89"><linearGradient id="a" gradientUnits="userSpaceOnUse" x1="103.734" y1="420.77" x2="491.546" y2="420.77"><stop offset="0" stop-color="#bcbec0"/><stop offset=".11" stop-color="#a7a9ac"/><stop offset=".261" stop-color="#919496"/><stop offset=".392" stop-color="#858789"/><stop offset=".49" stop-color="#808285"/><stop offset=".591" stop-color="#85878a"/><stop offset=".737" stop-color="#949698"/><stop offset=".908" stop-color="#acaeb0"/><stop offset="1" stop-color="#bcbec0"/></linearGradient><path fill="url(#a)" d="M481.982 401.975l-8.509-.044-.167 32.067 8.509.044c5.986.031 9.637-3.285 9.676-10.639l.056-10.689c.037-7.354-3.579-10.708-9.565-10.739zm6.087 21.41c-.029 5.516-2.391 7.556-6.239 7.536l-5.088-.027.135-25.825 5.088.027c3.891.02 6.188 2.085 6.16 7.6l-.056 10.689zm-316.565-21.477l-7.906 32.027 3.462.018 2.011-8.456 9.749.051 1.922 8.476 3.463.018-7.572-32.107-5.129-.027zm-1.689 20.472l4.241-17.893 4.054 17.936-8.295-.043zm56.981 11.644l3.421.018.167-32.067-3.421-.018-.167 32.067zm-32.003-28.983l7.14.037-.151 28.946 3.421.018.151-28.946 7.14.037.016-3.121-17.701-.092-.016 3.121zm100.082-25.065h4.543v7.139h2.596V370.89h-2.596v6.707h-4.543v-6.707h-2.596v16.226h2.596v-7.14zm-181.781 22.029l-9.193-.048-.167 32.067 3.421.018.065-12.485 5.772.03c5.045.026 8.696-3.033 8.725-8.72l.013-2.48c.028-5.472-3.591-8.355-8.636-8.382zm5.205 10.418c-.023 4.275-2.213 6.059-5.719 6.041l-5.344-.028.07-13.34 5.344.028c3.506.018 5.679 1.612 5.657 5.674l-.008 1.625zm22.375-10.505l-3.421-.018-.167 32.067 14.281.074.016-3.121-10.86-.057.151-28.945zm151.669 32.124c5.644.029 9.081-3.159 9.117-10.086l.117-22.361-3.42-.018-.117 22.361c-.027 5.088-2.217 7.001-5.68 6.983-3.506-.018-5.634-1.954-5.607-7.042l.117-22.361-3.421-.018-.117 22.361c-.036 6.927 3.368 10.151 9.011 10.181zm30.96-49.306h-4.846v-4.76h4.414v-2.38h-4.414v-4.327h4.846v-2.38h-7.442v16.226h7.442v-2.379zm7.89 45.092l-6.61-27.955-5.858-.031-.167 32.067 3.164.016.155-29.758 7.028 29.796 4.233.022 7.465-29.591-.155 29.63 3.421.018.167-32.067-5.986-.031-6.857 27.884zm-33.266 27.545l-1.877-8.829-5.886 1.251 1.877 8.829-8.484 1.803 1.499 7.052 14.919 3.171 3.412-7.664 1.625-15.458-5.984-.629-1.101 10.474zm-3.614 4.719c-.308.282-.715.256-1.146.112-.431-.143-.623-.664-.46-1.294.122-.468.694-.538.981-.543a.727.727 0 0 1 .315.065c.202.092.546.288.615.587.099.43.003.791-.305 1.073zm4.319.486c-.224.388-.811.44-1.388.157-.389-.191-.387-.676-.345-.972a.918.918 0 0 1 .189-.441c.139-.176.371-.406.639-.413.436-.011.811.184 1.022.538.213.353.107.742-.117 1.131zm82.139-61.458c-5.772-.03-9.297 3.5-9.334 10.726l-.059 11.373c-.038 7.226 3.45 10.793 9.222 10.823 5.772.03 9.297-3.5 9.334-10.726l.009-1.71-3.421-.018-.009 1.71c-.028 5.43-2.263 7.642-5.898 7.623-3.677-.019-5.846-2.254-5.817-7.684l.059-11.373c.028-5.43 2.264-7.642 5.898-7.623 3.677.019 5.846 2.254 5.817 7.684l-.007 1.283 3.42.018.007-1.283c.038-7.226-3.449-10.793-9.221-10.823zm31.185.788l-7.906 32.027 3.463.018 2.011-8.456 9.748.051 1.922 8.476 3.464.018-7.572-32.107-5.13-.027zm-1.689 20.472l4.24-17.893 4.054 17.936-8.294-.043zm-139.493-49.11h3.18v13.846h2.596V373.27h3.18v-2.38h-8.956v2.38zm-7.517 58.618l-9.506-29.979-5.729-.03-.167 32.067 3.164.017.158-30.228 9.591 30.279 5.644.029.167-32.067-3.164-.017-.158 29.929zm184.598-12.694c5.173.027 9.291-2.517 9.319-8.032l.007-1.283c.027-5.173-3.635-7.929-8.808-7.956l-9.107-.047-.167 32.067 3.421.018.082-15.734 11.291 15.794 4.19.022-10.954-14.851.726.002zm-5.185-14.179l5.259.027c3.591.019 5.85 1.442 5.83 5.247l-.002.427c-.021 4.019-2.295 5.632-5.887 5.613l-5.259-.027.059-11.287z"/></svg>