<svg width="140" height="140" viewBox="0 0 140 140" xmlns="http://www.w3.org/2000/svg"><g fill="none"><path d="M70.05 4.028c-36.338 0-65.902 29.563-65.902 65.902s29.563 65.901 65.902 65.901 65.901-29.562 65.901-65.901S106.389 4.028 70.05 4.028z" fill="#231F20" opacity=".4"/><path d="M70.05 139.028C31.949 139.028.952 108.03.952 69.929S31.949.831 70.05.831c38.1 0 69.098 30.997 69.098 69.098s-30.998 69.099-69.098 69.099zm0-135c-36.338 0-65.902 29.563-65.902 65.902s29.563 65.901 65.902 65.901 65.901-29.562 65.901-65.901S106.389 4.028 70.05 4.028z" fill="#A2A1A1"/><path d="M63.977 100.165a7.073 7.073 0 0 1-5.026-2.078 7.072 7.072 0 0 1-2.089-5.035l-.037-46.422c.058-1.866.797-3.573 2.084-4.857a7.072 7.072 0 0 1 5.025-2.079c1.902 0 3.689.742 5.033 2.088l26.016 22.866c.104.077.2.154.291.244.471.47.875 1.03 1.238 1.716l.054.102a7.083 7.083 0 0 1 .759 3.687 7.164 7.164 0 0 1-.409 1.999 1.729 1.729 0 0 1-.097.305c-.07.164-.157.319-.261.463a7.253 7.253 0 0 1-1.113 1.606 1.83 1.83 0 0 1-.146.171l-.087.082-26.276 23.122c-1.271 1.279-3.058 2.02-4.959 2.02z" fill="#3CBDB3"/></g></svg>