<svg xmlns="http://www.w3.org/2000/svg"><defs><font horiz-adv-x="570"><font-face font-family="Adelle Sans" font-weight="700" panose-1="2 0 5 3 0 0 0 2 0 4" ascent="800" descent="-200" x-height="521" cap-height="724" bbox="-160 -292 1250 1089" underline-thickness="50" underline-position="-150" unicode-range="U+000D-FB06"/><glyph glyph-name="ij" unicode="ij" horiz-adv-x="534" d="M211 0H60v521h151V0zm16 681q0-44-24-68t-67-24q-44 0-67.5 24T45 681t23.5 67.5T136 772q43 0 67-23.5t24-67.5zm66-904q-41 0-75 9t-48 19l11 113q13-6 35.5-13t46.5-7q27 0 46 15.5T328-24v545h151V-41q0-49-13.5-83.5t-38-56.5-59-32-75.5-10zm202 907q0-45-23.5-69T404 591q-43 0-67 24t-24 69q0 44 24 67t67 23q44 0 67.5-23t23.5-67z"/><glyph glyph-name="ff" unicode="ff" horiz-adv-x="699" d="M360 642q-35 11-65 11-32 0-50-16.5T227 573v-52h183v60q0 48 14 83t39 57.5 60 33.5 78 11q42 0 72-6.5t43-12.5l-5-107q-15 5-33.5 9t-36.5 4-32.5-3.5-25-12.5-16.5-26-6-44v-46h138V411H561V0H410v411H227V0H76v411H6v110h70v60q0 97 49 141t132 44q36 0 66-6.5t43-12.5z"/><glyph glyph-name="fi" unicode="fi" horiz-adv-x="619" d="M562 0H411v411H227V0H76v411H6v110h70v60q0 97 49 141t132 44q29 0 53-4.5t40-9.5l-5-110q-13 4-26.5 6.5T290 651q-29 0-46-16t-17-63v-51h335V0zm16 688q0-44-24-68t-68-24q-43 0-66.5 24T396 688q0 45 23.5 68t66.5 23q44 0 68-23t24-68z"/><glyph glyph-name="fl" unicode="fl" horiz-adv-x="619" d="M360 641q-35 11-65 11-32 0-50-16.5T227 572v-51h124V411H227V0H76v411H6v110h70v60q0 97 49 141t132 44q36 0 66-6.5t43-12.5zM562 0H411v755h151V0z"/><glyph glyph-name="ffi" unicode="ffi" horiz-adv-x="953" d="M897 0H746v411H562V0H411v411H227V0H76v411H6v110h70v60q0 97 49 141t132 44q36 0 66-6.5t43-12.5l-6-105q-35 11-65 11-32 0-50-16.5T227 573v-52h184v60q0 97 49 141t132 44q29 0 53-4.5t40-9.5l-5-110q-13 4-26.5 6.5T625 651q-29 0-46-16t-17-63v-51h335V0zm16 688q0-44-24-68t-68-24q-43 0-66.5 24T731 688q0 45 23.5 68t66.5 23q44 0 68-23t24-68z"/><glyph glyph-name="ffl" unicode="ffl" horiz-adv-x="953" d="M695 641q-35 11-65 11-32 0-50-16.5T562 572v-51h124V411H562V0H411v411H227V0H76v411H6v110h70v60q0 97 49 141t132 44q36 0 66-6.5t43-12.5l-6-105q-35 11-65 11-32 0-50-16.5T227 573v-52h184v60q0 97 49 141t132 44q36 0 66-6.5t43-12.5zM897 0H746v755h151V0z"/><glyph glyph-name="f_k" unicode="fk" horiz-adv-x="917" d="M360 640q-35 11-65 11-32 0-50-16.5T227 571v-50h124V411H227V0H76v411H6v110h70v60q0 97 49 141t132 44q36 0 66-6.5t43-12.5zm202-302l172 183h168L729 334 915 0H748L613 238l-51-49V0H411v755h151V338z"/><glyph glyph-name="f_b" unicode="fb" horiz-adv-x="945" d="M360 641q-35 11-65 11-32 0-50-16.5T227 572v-51h124V411H227V0H76v411H6v110h70v60q0 97 49 141t132 44q36 0 66-6.5t43-12.5zM411 0v755h148V474q32 31 70.5 44.5T716 532q39 0 74-13.5t61.5-44.5 41.5-80.5T908 272q0-77-16.5-130.5t-45.5-88-68.5-50T691-12q-48 0-83.5 16T548 44h-3l-7-44H411zm150 143q14-11 38-22.5t53-11.5q51 0 74 39t23 120q0 31-4.5 57.5t-15 45.5-28 29.5T657 411t-53-12.5-43-27.5V143z"/><glyph glyph-name="f_h" unicode="fh" horiz-adv-x="937" d="M360 641q-35 11-65 11-32 0-50-16.5T227 572v-51h124V411H227V0H76v411H6v110h70v60q0 97 49 141t132 44q36 0 66-6.5t43-12.5zM884 0H733v329q0 42-17 61t-52 19q-31 0-59-13.5T562 368V0H411v755h150V473q28 22 66.5 40.5T722 532q85 0 123.5-43T884 356V0z"/><glyph glyph-name="f_t" unicode="ft" horiz-adv-x="738" d="M731 27q-20-13-62-26t-91-13q-83 0-125 39.5T411 157v254H227V0H76v411H6v110h70v60q0 97 49 141t132 44q36 0 66-6.5t43-12.5l-6-106q-35 11-65 11-32 0-50-16.5T227 572v-51h184v154l151 20V521h138V411H562V177q0-35 12.5-52.5T623 107q23 0 47 7.5t39 16.5z"/><glyph glyph-name="f_j" unicode="fj" horiz-adv-x="617" d="M376-223q-42 0-75.5 9T253-195l11 110q13-6 35.5-13t46.5-7q27 0 46 15.5T411-27v438H227V0H76v411H6v110h70v60q0 97 49 141t132 44q29 0 54-4.5t42-9.5l-6-110q-13 3-27.5 6t-29.5 3q-29 0-46-16t-17-63v-51h335V-41q0-49-13.5-83.5t-38-56.5-59-32-75.5-10zm202 914q0-44-23.5-68T487 599q-43 0-67 24t-24 68 24 67.5 67 23.5q44 0 67.5-23.5T578 691z"/><glyph glyph-name="f_f_j" unicode="ffj" horiz-adv-x="951" d="M710-223q-42 0-75.5 9T587-195l11 110q13-6 35.5-13t46.5-7q27 0 46 15.5T745-27v438H561V0H410v411H227V0H76v411H6v110h70v60q0 97 49 141t132 44q36 0 66-6.5t43-12.5l-6-105q-35 11-65 11-32 0-50-16.5T227 573v-52h183v60q0 97 49 141t132 44q29 0 54-4.5t42-9.5l-6-110q-13 3-27.5 6t-29.5 3q-29 0-46-16t-17-63v-51h335V-41q0-49-13.5-83.5t-38-56.5-59-32-75.5-10zm202 914q0-44-23.5-68T821 599q-43 0-67 24t-24 68 24 67.5 67 23.5q44 0 67.5-23.5T912 691z"/><glyph glyph-name="f_f_k" unicode="ffk" horiz-adv-x="1251" d="M695 640q-35 11-65 11-32 0-50-16.5T562 571v-50h124V411H562V0H411v411H227V0H76v411H6v110h70v60q0 97 49 141t132 44q36 0 66-6.5t43-12.5l-6-105q-35 11-65 11-32 0-50-16.5T227 573v-52h184v60q0 97 49 141t132 44q36 0 66-6.5t43-12.5zm202-302l172 183h168l-173-187L1250 0h-167L948 238l-51-49V0H746v755h151V338z"/><glyph glyph-name="f_f_b" unicode="ffb" horiz-adv-x="1280" d="M695 641q-35 11-65 11-32 0-50-16.5T562 572v-51h124V411H562V0H411v411H227V0H76v411H6v110h70v60q0 97 49 141t132 44q36 0 66-6.5t43-12.5l-6-105q-35 11-65 11-32 0-50-16.5T227 573v-52h184v60q0 97 49 141t132 44q36 0 66-6.5t43-12.5zM746 0v755h148V474q32 31 70.5 44.5T1051 532q39 0 74-13.5t61.5-44.5 41.5-80.5 15-121.5q0-77-16.5-130.5t-45.5-88-68.5-50T1026-12q-48 0-83.5 16T883 44h-3l-7-44H746zm150 143q14-11 38-22.5t53-11.5q51 0 74 39t23 120q0 31-4.5 57.5t-15 45.5-28 29.5T992 411t-53-12.5-43-27.5V143z"/><glyph glyph-name="f_f_h" unicode="ffh" horiz-adv-x="1272" d="M695 641q-35 11-65 11-32 0-50-16.5T562 572v-51h124V411H562V0H411v411H227V0H76v411H6v110h70v60q0 97 49 141t132 44q36 0 66-6.5t43-12.5l-6-105q-35 11-65 11-32 0-50-16.5T227 573v-52h184v60q0 97 49 141t132 44q36 0 66-6.5t43-12.5zM1219 0h-151v329q0 42-17 61t-52 19q-31 0-59-13.5T897 368V0H746v755h150V473q28 22 66.5 40.5T1057 532q85 0 123.5-43t38.5-133V0z"/><glyph glyph-name="f_f_t" unicode="fft" horiz-adv-x="1073" d="M695 641q-35 11-65 11-32 0-50-16.5T562 572v-51h184v154l151 20V521h138V411H897V177q0-35 12.5-52.5T958 107q23 0 47 7.5t39 16.5l22-104q-20-13-62-26t-91-13q-83 0-125 39.5T746 157v254H562V0H411v411H227V0H76v411H6v110h70v60q0 97 49 141t132 44q36 0 66-6.5t43-12.5l-6-105q-35 11-65 11-32 0-50-16.5T227 573v-52h184v60q0 97 49 141t132 44q36 0 66-6.5t43-12.5z"/><glyph glyph-name="f_iacute" unicode="fí" horiz-adv-x="619" d="M562 0H411v411H227V0H76v411H6v110h70v60q0 97 49 141t132 44q29 0 54-4.5t42-9.5l-6-110q-13 3-27.5 6t-29.5 3q-29 0-46-16t-17-63v-51h335V0zm-34 572l-101 9 74 162h162z"/><glyph glyph-name="t_t" unicode="tt" horiz-adv-x="749" d="M742 27q-20-13-62-26t-91-13q-82 0-124.5 39.5T422 157v253H236V178q0-35 10.5-53t46.5-18q16 0 34 5t35 13l23-106Q364 8 328.5-2T251-12q-82 0-124 39.5T85 157v253H7v111h78v154l151 20V521h186v154l151 20V521h138V410H573V178q0-35 12.5-52.5T635 108q23 0 46.5 7.5T721 132z"/><glyph glyph-name=".notdef" horiz-adv-x="500"/><glyph glyph-name=".null" horiz-adv-x="0"/><glyph glyph-name=".null" horiz-adv-x="0"/><glyph glyph-name="nonmarkingreturn" horiz-adv-x="500"/><glyph glyph-name="space" horiz-adv-x="174"/><glyph glyph-name="exclam" unicode="!" horiz-adv-x="290" d="M83 197L64 724h164l-19-527H83zM235 68q0-38-22-59t-67-21q-90 0-90 80 0 39 22.5 60t67.5 21 67-21 22-60z"/><glyph glyph-name="quotedbl" unicode="&quot;" horiz-adv-x="429" d="M50 465v259h135V465H50zm194 0v259h135V465H244z"/><glyph glyph-name="numbersign" unicode="#" horiz-adv-x="607" d="M299 0l21 139h-87L212 0H108l21 139H30l21 104h94l17 110H62l21 105h94l20 135h104l-20-135h86l20 135h104l-20-135h101l-20-105h-96l-17-110h101l-20-104h-96L402 0H299zm53 353h-86l-17-110h87z"/><glyph glyph-name="dollar" unicode="$" horiz-adv-x="550" d="M276 594q-47 0-68-20t-21-51q0-45 33.5-67.5T316 417q37-10 74-23t66-35.5 47.5-58T522 211q0-47-15-84t-41.5-63-62-42.5T327-2v-80H199v80q-33 4-64 16T79 49t-42 59.5T14 198l132 25q4-28 11.5-49t21-35.5 35.5-22 55-7.5q47 0 76 19.5t29 61.5q0 25-11.5 41T332 258t-44 18.5-52 15.5q-36 10-72 23.5T99 352t-47 59-18 90q0 42 13.5 75.5t37 58.5 55 42 67.5 25v90h127v-89q34-4 64-16.5t53-35 37.5-56T506 515l-134-16q-7 47-26.5 71T276 594z"/><glyph glyph-name="percent" unicode="%" horiz-adv-x="831" d="M188 375q-48 0-80 14t-51.5 38-28 56-8.5 68q0 85 42.5 136T196 738q45 0 76.5-12.5t52-35T354 636t9-72q0-86-43.5-137.5T188 375zm5 88q31 0 44 23t13 74q0 46-12.5 67.5T193 649q-31 0-44.5-23T135 558q0-49 13-72t45-23zM630-12q-48 0-80 14t-51.5 38-28 56-8.5 68q0 85 42.5 136T638 351q45 0 76.5-12.5t52-35T796 249t9-72q0-86-43.5-137.5T630-12zm5 88q31 0 44 23t13 74q0 46-12.5 67.5T635 262q-31 0-44.5-23T577 171q0-49 13-72t45-23zM120-13l438 737h132L253-13H120z"/><glyph glyph-name="ampersand" unicode="&amp;" horiz-adv-x="743" d="M540 558q0-22-6-45.5t-23.5-47-49-47T380 374l-14-6q29-41 61.5-79.5T498 208q17 32 23 70t6 80h133q2-55-12.5-112.5T595 136q35-22 72-22 18 0 38 6L721 6q-20-8-41.5-11T638-9q-42 0-79 12.5T486 39q-30-23-79.5-37T290-12q-62 0-109.5 16T101 48t-48 65.5T37 194q0 72 35.5 120.5T183 395q-19 32-27 60.5t-8 60.5q0 43 16.5 77.5T210 652t68.5 36.5T364 701q33 0 65-7.5t56.5-24 39.5-44 15-67.5zM315 98q43 0 75 16-45 42-82 87.5T233 303q-17-14-29.5-35.5T191 210q0-47 31-79.5T315 98zm-20 443q0-23 7-44.5t20-45.5q15 7 31.5 15.5t30 20 22 27T414 550q0 23-14 38t-42 15q-26 0-44.5-16T295 541z"/><glyph glyph-name="quotesingle" unicode="'" horiz-adv-x="235" d="M50 465v259h135V465H50z"/><glyph glyph-name="parenleft" unicode="(" horiz-adv-x="363" d="M189-153q-27 39-53.5 86.5T88 35.5 54.5 151 42 280q0 67 12.5 127.5t34 115.5T139 628t62 96h156q-33-48-61-97t-48.5-103T215 410.5 203 283q0-69 12-129.5T247 40t46-100.5 54-92.5H189z"/><glyph glyph-name="parenright" unicode=")" horiz-adv-x="363" d="M158.034 723.972q26.995-38.992 53.49-86.483 26.495-47.493 47.491-101.981 20.998-54.49 33.495-115.48 12.498-60.988 12.498-128.976 0-66.988-12.498-127.477-12.498-60.489-33.994-115.48t-50.49-104.98q-28.995-49.99-61.99-95.982H-9.934q32.994 47.991 60.99 96.983 27.993 48.99 48.49 102.98 20.496 53.99 32.493 113.479 11.998 59.489 11.998 127.477 0 68.987-11.998 129.477-11.997 60.488-31.994 113.479-19.996 52.99-45.99 100.48T.062 723.972h157.97z"/><glyph glyph-name="asterisk" unicode="*" horiz-adv-x="477" d="M289 633l113 27 21-72-107-54 72-108-57-45-98 92-95-95-58 46 71 110-109 53 22 72 115-28 20 124h72z"/><glyph glyph-name="plus" unicode="+" d="M224 121v143H91v119h133v139h120V383h134V264H344V121H224z"/><glyph glyph-name="comma" unicode="," horiz-adv-x="244" d="M56 132h158l-98-269-123 12z"/><glyph glyph-name="hyphen" unicode="-" horiz-adv-x="313" d="M20 227v129h271V227H20z"/><glyph glyph-name="period" unicode="." horiz-adv-x="251" d="M219 76q0-88-93-88T33 76q0 89 93 89t93-89z"/><glyph glyph-name="slash" unicode="/" horiz-adv-x="443" d="M9-92l281 847h137L147-92H9z"/><glyph glyph-name="zero" unicode="0" horiz-adv-x="585" d="M289-12q-75 0-124.5 25t-79 73-42 118T31 364t14 159.5 45.5 117 82.5 72T299 737t124.5-24.5T502 641t40.5-115T554 372q0-93-13.5-165t-44-120.5T415 13 289-12zm4 118q30 0 50 14.5t31 46 15.5 81T394 366q0 67-4 115t-14.5 78.5T346 604t-49 14q-31 0-51-14t-32-44.5-17-79-5-117.5q0-68 4-116.5t15.5-79.5 31-46 50.5-15z"/><glyph glyph-name="one" unicode="1" horiz-adv-x="442" d="M193 0v544q-13-7-34-12.5t-44-9.5-44-6.5-33-2.5l-7 128q67 5 120 24.5t89 58.5h103V0H193z"/><glyph glyph-name="two" unicode="2" horiz-adv-x="542" d="M277 737q109 0 163.5-48.5T495 550q0-39-9.5-72T457 412t-48.5-69-69.5-80L221 133v-3h285V0H44v126l155 181q34 39 61 70.5t45.5 58.5 28 52.5T343 542q0 36-19.5 56T262 618q-48 0-69.5-28T163 511L27 534q6 54 27 92t54 63 76 36.5 93 11.5z"/><glyph glyph-name="three" unicode="3" horiz-adv-x="555" d="M155 200q6-46 28.5-70.5T257 105q43 0 72.5 25.5T359 213q0 58-30 81t-87 23h-71v114h47q64 0 97.5 29.5T349 541q0 36-17.5 58T267 621t-68.5-23-31.5-67L37 557q10 51 33.5 85.5t56 55.5 72.5 30 82 9q105 0 161-46t56-130q0-36-12-64t-31.5-49-43.5-35.5-49-22.5v-4q72-17 111.5-59.5T513 205q0-50-18-90.5T443.5 46t-81-43T257-12q-43 0-83 9.5T101.5 29t-54 58T20 175z"/><glyph glyph-name="four" unicode="4" horiz-adv-x="597" d="M351 0v162H27v107l287 455h184V284h81V162h-82V0H351zm0 284v302L160 284h191z"/><glyph glyph-name="five" unicode="5" horiz-adv-x="560" d="M91 724h381V594H201l-17-181q23 20 56.5 34t81.5 14q40 0 75-12.5t61-39 41-68.5 15-101-18.5-106-52-79.5T362 5 255-12q-44 0-83.5 9.5t-71 31.5-53 57.5T19 174l131 27q6-43 30-68.5t75-25.5q22 0 41.5 7.5t34.5 23 24 39.5 9 57-8 54.5-21.5 34-31 17.5-35.5 5q-32 0-59-14t-47-34l-98 41z"/><glyph glyph-name="six" unicode="6" horiz-adv-x="578" d="M405 532q-8 51-29 69.5T320 620q-34 0-58-20.5T222.5 546t-23-74-7.5-82q26 23 66 39t90 16q43 0 79-13t61.5-39 40-65.5T543 236q0-64-19-110.5t-52-77T394 3t-97-15q-75 0-123.5 27.5T97 91 58 204 47 344q0 42 5 87.5T69.5 521t33.5 83 52.5 68.5 75 47T332 737q37 0 70-8t60-27.5 47-51.5 30-81zM200 287q1-36 5-69.5t15-59 30-40.5 51-15q45 0 67 33t22 89q0 54-19 80.5T305 332q-27 0-56-14t-49-31z"/><glyph glyph-name="seven" unicode="7" horiz-adv-x="531" d="M70-1l279 595H31v130h475V608L230-1H70z"/><glyph glyph-name="eight" unicode="8" horiz-adv-x="569" d="M409 394q73-33 106-77t33-119q0-43-19-81.5t-54-67-85.5-45T275-12q-66 0-114 15.5T82 45t-46 60-15 72q0 66 33 113.5T160 371q-61 29-86 72.5T49 538q0 47 18 84t50.5 62.5 78 39T297 737q114 0 173-46.5T529 568q0-62-32-101t-88-73zm-155-79q-35-20-60-48t-25-74q0-41 25-65.5t84-24.5q55 0 82 26t27 63q0 26-11 44.5t-30 33-43 25-49 20.5zm54 130q35 21 55.5 49.5T384 556q0 35-21 53.5T294 628q-40 0-64.5-18T205 559q0-40 27-65t76-49z"/><glyph glyph-name="nine" unicode="9" horiz-adv-x="577" d="M165 200q9-51 31-74t64-23q33 0 57 18.5t39.5 50 23.5 73 9 87.5q-26-23-66.5-37.5T232 280q-43 0-79 13t-61.5 39-40 66T37 492q0 63 19.5 109t53.5 76 79.5 45 98.5 15q73 0 120-27.5t75-75.5 39-113 11-140q0-66-10.5-136T482 118t-84-93.5T256-12q-41 0-78 8t-66.5 28T61 77t-30 83zm215 235q-2 39-6 73t-14.5 59-30 39.5T279 621q-45 0-67-31.5T190 501q0-54 20-82.5t66-28.5q27 0 54.5 12.5T380 435z"/><glyph glyph-name="colon" unicode=":" horiz-adv-x="266" d="M226 76q0-88-93-88T40 76q0 89 93 89t93-89zm0 343q0-88-93-88t-93 88q0 89 93 89t93-89z"/><glyph glyph-name="semicolon" unicode=";" horiz-adv-x="260" d="M58 132h158l-98-269-123 12zm182 287q0-88-93-88t-93 88q0 89 93 89t93-89z"/><glyph glyph-name="less" unicode="&lt;" d="M69 220v142l391 140V377l-261-85 261-86V83z"/><glyph glyph-name="equal" unicode="=" d="M92 127v120h386V127H92zm0 189v120h386V316H92z"/><glyph glyph-name="greater" unicode="&gt;" d="M97 85v122l261 85-261 85v125l391-140V222z"/><glyph glyph-name="question" unicode="?" horiz-adv-x="547" d="M155 197v183q36 3 72 10.5t64 23.5 45.5 42 17.5 66q0 48-24.5 67.5T267 609q-47 0-72-25t-34-79L14 528q12 96 78 151t183 55q46 0 89-10.5t76-35.5 53-66 20-102q0-95-54.5-152T305 288v-91H155zM317 68q0-38-22-59t-67-21q-89 0-89 80 0 39 22 60t67 21 67-21 22-60z"/><glyph glyph-name="at" unicode="@" horiz-adv-x="855" d="M651-145q-35-23-90.5-35.5T431-193q-81 0-152.5 23T154-100.5 70.5 17 40 184q0 88 29.5 161.5t83.5 126 130 82T452 583q80 0 146.5-23T713 494t74.5-105T814 249q0-67-14-115.5t-39.5-80-60.5-47T623-9q-45 0-75.5 14T505 42q-22-28-51.5-39T391-8q-36 0-63 13.5T282.5 44t-28 59.5T245 179q0 46 11.5 86t33 69.5 52.5 46 70 16.5q28 0 50-9.5t36-25.5l8 29h81V128q0-23 8-38.5T631 74q24 0 39.5 16.5t24.5 41 13 54 4 56.5q0 55-15.5 101T649 422t-83 51-121 18q-81 0-137.5-26.5T215 395t-52.5-97T146 189q0-77 22-132t61-90 93.5-51.5T442-101q52 0 96 11t82 30zM491 296q-21 23-58 23t-60.5-30-23.5-97q0-51 14.5-85T418 73q23 0 39.5 10t33.5 30v183z"/><glyph glyph-name="A" unicode="A" horiz-adv-x="709" d="M443 724L699 0H530l-60 176H229L173 0H14l237 724h192zm-95-145h-4l-89-280h183z"/><glyph glyph-name="B" unicode="B" horiz-adv-x="637" d="M74 0v724h287q64 0 106.5-13.5T535 673t35-56.5 10-69.5q0-36-11-64.5t-30-49-44-34.5-52-21v-2q87-11 127.5-56.5T611 199q0-56-20.5-94t-57-61T447 10.5 338 0H74zm233 119q31 0 57 3.5t44.5 14T437 165t10 48-10 49-27 29-39.5 13.5T322 308h-94V119h79zm-22 306q27 0 53 3.5t46 13.5 32.5 29 12.5 51q0 29-9 45.5t-25.5 25T356 603t-48 2h-80V425h57z"/><glyph glyph-name="C" unicode="C" horiz-adv-x="695" d="M372-12q-90 0-153.5 25.5T115 87 56.5 202.5 38 354q0 86 22.5 156.5t67 121 109.5 78T387 737q61 0 112-15t88.5-46.5 59.5-81T672 477l-141-12q-7 78-41.5 111.5T385 610q-89 0-138.5-59.5T197 362q0-67 11.5-114t34-76.5 55.5-43 76-13.5q39 0 66 9.5t45 27 29 41 17 52.5l139-24q-9-65-38-109.5t-70.5-72-91-39.5T372-12z"/><glyph glyph-name="D" unicode="D" horiz-adv-x="724" d="M74 0v724h254q94 0 162-24.5t111.5-70T666 519t21-146q0-83-22.5-152T596 103 479 27 311 0H74zm230 124q63 0 106 16.5t69.5 47.5 38 76T529 365q0 67-13 112.5T476 550t-67 38.5-94 11.5h-87V124h76z"/><glyph glyph-name="E" unicode="E" horiz-adv-x="583" d="M228 130h323V0H74v724h459V595H228V425h287V299H228V130z"/><glyph glyph-name="F" unicode="F" horiz-adv-x="553" d="M228 0H74v724h456V595H228V411h278V284H228V0z"/><glyph glyph-name="G" unicode="G" horiz-adv-x="739" d="M552 89q-12-24-33-43t-48.5-32-60-19.5T345-12q-82 0-140 27t-95 75-54.5 114.5T38 350q0 88 22.5 159.5t66.5 122 109.5 78T389 737q59 0 109.5-14t88-44.5T647 600t28-116l-144-14q-3 29-11.5 54.5t-25 44.5-43 30-65.5 11q-96 0-142-64.5T198 364q0-130 43.5-191T381 112q36 0 64 10t46.5 27 28 40 9.5 49v26H397v113h284V0H569z"/><glyph glyph-name="H" unicode="H" horiz-adv-x="733" d="M660 0H505v297H228V0H74v724h154V430h277v294h155V0z"/><glyph glyph-name="I" unicode="I" horiz-adv-x="302" d="M228 0H74v724h154V0z"/><glyph glyph-name="J" unicode="J" horiz-adv-x="530" d="M308 724h155V203q0-108-57.5-161.5T235-12q-47 0-86.5 10T80 32 34 95.5 15 193l148 22q2-23 5.5-41.5t11-31.5 21-20.5T237 114q35 0 53 18.5t18 66.5v525z"/><glyph glyph-name="K" unicode="K" horiz-adv-x="673" d="M227 414l281 310h164L407 423 668 0H488L297 303l-70-76V0H74v724h153V414z"/><glyph glyph-name="L" unicode="L" horiz-adv-x="568" d="M228 130h310V0H74v724h154V130z"/><glyph glyph-name="M" unicode="M" horiz-adv-x="915" d="M842 0H698v568h-4L523 0H384L219 569h-4V0H74v724h230l153-529h4l152 529h229V0z"/><glyph glyph-name="N" unicode="N" horiz-adv-x="745" d="M494 0L215 511V0H74v724h184l274-513v513h140V0H494z"/><glyph glyph-name="O" unicode="O" horiz-adv-x="760" d="M375-12q-90 0-153.5 27.5T117 92.5 57 210 38 359t22 150 66.5 119.5T237 708t154 29 151-28.5 103-78 59-116T723 373q0-88-21.5-159T637 92.5 528.5 15 375-12zm6 130q40 0 74 13.5t58 42.5 37.5 76T564 364q0 126-46 184.5T388 607q-88 0-139.5-59.5T197 362q0-65 12.5-111t36.5-75.5 58-43.5 77-14z"/><glyph glyph-name="P" unicode="P" horiz-adv-x="621" d="M227 0H74v724h274q69 0 115.5-19t74.5-50.5 39.5-72.5 11.5-84q0-131-70.5-197.5T306 234h-79V0zm62 358q30 0 55.5 5t45 19.5T420 422t11 65q0 35-10 57t-27 34.5-41 17-52 4.5h-74V358h62z"/><glyph glyph-name="Q" unicode="Q" horiz-adv-x="760" d="M375-12q-90 0-153.5 27.5T117 92.5 57 210 38 359t22 150 66.5 119.5T237 708t154 29 151-28.5 103-78 59-116T723 373q0-169-83-270l82-88-96-81-83 90Q508 7 466.5-2.5T375-12zm8 127q18 0 35.5 2.5T452 125L339 245l93 83 107-121q14 28 20 68t6 89q0 126-46.5 184.5T388 607q-88 0-139.5-59.5T197 362q0-65 13-111.5t37-76.5 58.5-44.5T383 115z"/><glyph glyph-name="R" unicode="R" horiz-adv-x="642" d="M635 0H469L326 275h-99V0H74v724h282q67 0 113-17t74.5-45 40.5-65 12-77q0-81-34.5-131T471 313zM306 396q27 0 51 5.5t41.5 18 28 33.5 10.5 52q0 52-31.5 73.5T312 600h-85V396h79z"/><glyph glyph-name="S" unicode="S" horiz-adv-x="596" d="M300 618q-56 0-82-21t-26-56q0-28 16-46t42.5-30.5 60.5-22 69-20.5 69-25.5 60.5-38T552 301t16-84q0-62-23-105t-61.5-71T395 .5 291-12q-49 0-97 9.5t-87 35-65 70T11 218l140 21q4-26 12.5-49.5t24.5-41 41.5-28T295 110q24 0 45.5 4.5t38 15T405 157t10 42q0 28-16 45.5T356.5 274 296 294.5 226.5 313 157 337t-60.5 37.5T54 433t-16 86q0 53 20.5 93.5T115 681t84 42 103 14q48 0 93-9t80-32.5 58-65T560 525l-141-16q-2 25-9 45.5T389 589t-35.5 21.5T300 618z"/><glyph glyph-name="T" unicode="T" horiz-adv-x="595" d="M221 0v594H8v130h579V594H376V0H221z"/><glyph glyph-name="U" unicode="U" horiz-adv-x="708" d="M356 117q38 0 63.5 9.5T460 156t21.5 51.5T488 283v441h154V261q0-72-20-123.5t-58-85-92-49T350-12q-150 0-217.5 67.5T65 265v459h155V286q0-42 6-74t21.5-53 42-31.5T356 117z"/><glyph glyph-name="V" unicode="V" horiz-adv-x="662" d="M232 0L-3 724h173l165-572h6l165 572h159L440 0H232z"/><glyph glyph-name="W" unicode="W" horiz-adv-x="964" d="M604 0L487 499h-4L367 0H164L8 724h161l102-558h4l129 558h165l133-561h5l94 561h155L801 0H604z"/><glyph glyph-name="X" unicode="X" horiz-adv-x="651" d="M414 366L652 0H474L316 241 165 0H-1l234 365L10 724h172l148-245 150 245h160z"/><glyph glyph-name="Y" unicode="Y" horiz-adv-x="606" d="M388 0H233v271L-18 724h169l159-310h5l153 310h156L388 273V0z"/><glyph glyph-name="Z" unicode="Z" horiz-adv-x="592" d="M212 130h351V0H27v113l343 482H36v129h513V609z"/><glyph glyph-name="bracketleft" unicode="[" horiz-adv-x="318" d="M55-143v867h227v-98h-81V-45h81v-98H55z"/><glyph glyph-name="backslash" unicode="\" horiz-adv-x="446" d="M299-92L19 755h137L437-92H299z"/><glyph glyph-name="bracketright" unicode="]" horiz-adv-x="318" d="M263.01-143v867H36.052v-98h80.985V-45H36.052v-98H263.01z"/><glyph glyph-name="asciicircum" unicode="^" horiz-adv-x="683" d="M474 299L341 535 211 299H69l197 365h153l199-365H474z"/><glyph glyph-name="underscore" unicode="_" horiz-adv-x="500" d="M0-181v110h500v-110H0z"/><glyph glyph-name="grave" unicode="`" horiz-adv-x="500" d="M95 743h162l74-162-101-9z"/><glyph glyph-name="a" unicode="a" horiz-adv-x="558" d="M481 130q0-21 5.5-30.5T512 90q11 0 31 6l4-87q-15-8-43.5-14T451-11q-45 0-72 14.5T344 55q-25-32-63-49.5T189-12q-49 0-79 14.5T63 38 40 83t-6 44q0 60 28 96t71.5 55 96.5 25 103 6v19q0 22-2.5 39.5t-10 30-22 19T259 423q-38 0-54.5-17T180 351L52 376q6 37 21 66t41.5 49 65.5 30.5 92 10.5q105 0 157-43t52-141V130zm-147 91h-24q-27-1-50-4.5t-39.5-11T195 185t-9-33q0-23 12.5-40T247 95q27 0 51 11t36 23v92z"/><glyph glyph-name="b" unicode="b" horiz-adv-x="592" d="M59 0v755h148V474q32 31 70.5 44.5T364 532q39 0 74-13.5t61.5-44.5 41.5-80.5T556 272q0-77-16.5-130.5t-45.5-88-68.5-50T339-12q-48 0-83.5 16T196 44h-3l-7-44H59zm150 143q14-11 38-22.5t53-11.5q51 0 74 39t23 120q0 31-4.5 57.5t-15 45.5-28 29.5T305 411t-53-12.5-43-27.5V143z"/><glyph glyph-name="c" unicode="c" horiz-adv-x="544" d="M285-12q-65 0-112.5 19.5T94 62t-45.5 83.5T34 252q0 135 69 207.5T300 532q94 0 151.5-50.5T517 335l-135-20q-5 49-22.5 75T297 416q-21 0-40.5-6T223 387.5 200.5 342t-8.5-74 7-76 20.5-50 32.5-27.5 43-8.5q44 0 67 22.5t30 72.5l127-24q-7-49-27-84.5t-51-59T370.5-1 285-12z"/><glyph glyph-name="d" unicode="d" horiz-adv-x="591" d="M534 0H408l-9 51-3 1q-27-30-64.5-47T242-12q-46 0-83.5 14.5T94 48.5 52 130 37 250q0 78 19 132t50.5 87.5 70.5 48 80 14.5q44 0 75.5-10.5T389 488v267h145V0zM384 383q-15 11-36.5 20t-47.5 9q-29 0-48.5-12T219 367t-18.5-49.5T195 255q0-70 23-109t77-39q24 0 47.5 10t41.5 27v239z"/><glyph glyph-name="e" unicode="e" horiz-adv-x="547" d="M289-12q-72 0-121 22.5t-79 60T46.5 157 34 259q0 70 20 121.5t55 85.5 81 50 99 16q59 0 101.5-17.5t69.5-49 40-76 13-98.5q0-13-.5-33.5T510 223H193q2-65 28.5-91.5T298 105q41 0 59 20.5t26 53.5l127-31q-14-73-70.5-116.5T289-12zm68 331q0 57-19.5 80.5T281 423q-16 0-31.5-5.5t-27.5-18-19.5-32.5-7.5-48h162z"/><glyph glyph-name="f" unicode="f" horiz-adv-x="366" d="M377 640q-15 5-33.5 9t-36.5 4-32.5-3.5-25-12.5-16.5-26-6-44v-46h138V411H227V0H76v411H6v110h70v60q0 48 14 83t39 57.5 60.5 33.5 78.5 11q41 0 71.5-6.5T383 747z"/><glyph glyph-name="g" unicode="g" horiz-adv-x="560" d="M274 532q43 0 77.5-7.5T412 500q7 15 16 29t20.5 25 26.5 18 33 7q19 0 42-9v-99q-23 2-43.5.5T464 463q23-26 33-55.5t10-61.5q0-44-17-78.5T442.5 209 370 172t-92-13q-26 0-45.5 2.5T191 170q-7-7-13-14.5t-6-17.5q0-11 9-18t38-9l148-9q42-3 74.5-12t55-26.5 34-45T542-48q0-48-21-81.5t-57.5-55-86.5-31-107-9.5q-72 0-120 9t-77 24.5-41.5 38T19-104q0 37 25.5 61.5T113-10v4Q37 16 37 82q0 39 22 64.5t59 51.5q-35 20-55.5 55.5T42 339q0 42 15.5 77t45 61 72.5 40.5 99 14.5zm95-185q0 41-23.5 60T280 426q-41 0-68-18.5T185 347q0-39 22.5-59.5T278 267q41 0 66 21t25 59zm26-422q0 15-12 27t-52 14l-145 9q-14-11-22.5-23.5T155-75q0-15 10-25.5t27-16.5 40.5-8.5T282-128q51 0 82 10.5T395-75z"/><glyph glyph-name="h" unicode="h" horiz-adv-x="583" d="M530 0H379v329q0 42-17 61t-52 19q-31 0-59-13.5T208 368V0H57v755h150V473q28 22 66.5 40.5T368 532q85 0 123.5-43T530 356V0z"/><glyph glyph-name="i" unicode="i" horiz-adv-x="268" d="M211 0H60v521h151V0zm16 681q0-44-24-68t-67-24q-44 0-67.5 24T45 681t23.5 67.5T136 772q43 0 67-23.5t24-67.5z"/><glyph glyph-name="j" unicode="j" horiz-adv-x="266" d="M25-223q-41 0-75 9t-48 19l11 113q13-6 35.5-13t46.5-7q27 0 46 15.5T60-24v545h151V-41q0-49-13.5-83.5t-38-56.5-59-32T25-223zm202 907q0-45-23.5-69T136 591q-43 0-67 24t-24 69q0 44 24 67t67 23q44 0 67.5-23t23.5-67z"/><glyph glyph-name="k" unicode="k" horiz-adv-x="564" d="M210 339l172 182h167L376 334 562 0H395L260 238l-50-49V0H59v755h151V339z"/><glyph glyph-name="l" unicode="l" horiz-adv-x="268" d="M211 0H60v755h151V0z"/><glyph glyph-name="m" unicode="m" horiz-adv-x="854" d="M208 0H57v521h128l7-49q31 26 69 43t89 17q47 0 81-15t52-50q28 29 68.5 47t93.5 18q156 0 156-173V0H650v335q0 37-13 56t-46 19q-21 0-46.5-10.5T505 374q0-3 .5-6t.5-7V0H355v335q0 37-13 56t-45 19q-23 0-48.5-11T208 373V0z"/><glyph glyph-name="n" unicode="n" horiz-adv-x="583" d="M530 0H379v330q0 42-17 61t-52 19q-31 0-59-13.5T208 369V0H57v521h134l8-52q29 26 70.5 44.5T365 532q87 0 126-43t39-133V0z"/><glyph glyph-name="o" unicode="o" horiz-adv-x="587" d="M288-12q-71 0-119.5 20T90 64t-43 85.5T34 258q0 63 16.5 113.5t49.5 86 83.5 55T302 532t115.5-19.5T495 458t44-83 14-106q0-64-15-116t-47.5-88.5T408 8 288-12zm7 112q25 0 43.5 8.5t31.5 28 19.5 50.5 6.5 77q0 85-24 119.5T298 418q-51 0-78.5-35.5T192 262q0-87 23.5-124.5T295 100z"/><glyph glyph-name="p" unicode="p" horiz-adv-x="592" d="M59 521h128l9-53q34 34 76.5 49t86.5 15q42 0 77.5-13.5t62-44.5 41.5-80.5T555 272q0-78-17-132t-46-87.5-67.5-49T343-12q-48 0-80.5 13.5T205 38v-250H59v733zm149-377q11-11 37-23t54-12q53 0 75.5 41.5T397 268q0 79-23 111.5T305 412q-26 0-53-13t-44-27V144z"/><glyph glyph-name="q" unicode="q" horiz-adv-x="590" d="M534-212H390V45q-29-28-65-42.5T240-12q-46 0-83.5 14.5T92.5 49t-41 82T37 252q0 78 19 131.5t50.5 86.5 71 47.5T258 532q89 0 138-59l14 48h124v-733zM384 381q-15 13-38 22t-48 9q-56 0-79.5-43T195 258q0-34 5-61.5t17-47 31-30.5 47-11q24 0 47.5 10t41.5 26v237z"/><glyph glyph-name="r" unicode="r" horiz-adv-x="393" d="M387 384q-51 5-98.5-8T208 337V0H57v521h129l11-82q26 38 65 65.5t99 27.5q6 0 12.5-.5t13.5-.5V384z"/><glyph glyph-name="s" unicode="s" horiz-adv-x="501" d="M257 532q89 0 139-36t69-102l-124-39q-10 33-29 52t-61 19q-66 0-66-46 0-14 8-23.5t22-15.5 33.5-10 42.5-8q34-6 67-14.5t58.5-25 41.5-45 16-74.5q0-45-18-78t-48.5-54.5T335-1t-90-11Q144-12 90.5 27T23 131l123 40q4-15 11-29t19-25.5 29.5-18T250 92q75 0 75 49 0 29-25.5 38.5T228 197q-34 6-67.5 15T100 238.5 56.5 285 40 362q0 43 17.5 75t47.5 53 69 31.5 83 10.5z"/><glyph glyph-name="t" unicode="t" horiz-adv-x="412" d="M404 25q-20-13-61.5-25T251-12q-82 0-124 39.5T85 157v254H7v110h78v154l151 20V521h138V411H236V178q0-35 12.5-52.5T297 108q23 0 47 7.5t39 16.5z"/><glyph glyph-name="u" unicode="u" horiz-adv-x="578" d="M55 521h151V192q0-42 15-61.5t51-19.5q29 0 56.5 13.5T371 152v369h151V0H392l-11 56q-28-32-70-49.5T215-11Q55-11 55 162v359z"/><glyph glyph-name="v" unicode="v" horiz-adv-x="536" d="M180 0L-4 521h163l111-376h4l111 376h155L356 0H180z"/><glyph glyph-name="w" unicode="w" horiz-adv-x="813" d="M150 0L-4 521h151l95-366h2l92 366h148l92-364h3l91 364h147L662 0H492l-84 340h-2L329 0H150z"/><glyph glyph-name="x" unicode="x" horiz-adv-x="531" d="M350 268L525 0H364L258 161 155 0H10l170 261L7 521h163l101-159 104 159h145z"/><glyph glyph-name="y" unicode="y" horiz-adv-x="526" d="M-4 521h163l109-363h3l105 363h155q-52-146-105.5-293.5T324-51q-17-46-34.5-78.5t-40-53.5-52-30.5T128-223q-31 0-64 7t-50 15L25-92q21-7 41.5-11.5T104-108q26 0 44 13t30 43l16 41z"/><glyph glyph-name="z" unicode="z" horiz-adv-x="466" d="M199 121h246V0H27v107l240 301H29v113h402V414z"/><glyph glyph-name="braceleft" unicode="{" horiz-adv-x="337" d="M304-145h-76Q73-145 73-15q0 45 7 91t7 100q0 35-15 53.5T23 248H2v92h21q35 0 49.5 19T87 412q0 54-7 103t-7 92q0 68 39 99t116 31h76V636h-22q-29 0-38-12.5t-9-35.5q0-45 7.5-93t7.5-93q0-50-22-72t-62-37q20-7 35.5-15.5T228 257t16.5-29 5.5-41q0-46-7.5-91.5T235 6q0-23 9.5-36.5T286-44h18v-101z"/><glyph glyph-name="bar" unicode="|" horiz-adv-x="280" d="M72-143v898h137v-898H72z"/><glyph glyph-name="braceright" unicode="}" horiz-adv-x="337" d="M33 737h76q155 0 155-130 0-45-7-91t-7-100q0-35 15-53.5t49-18.5h21v-92h-21q-35 0-49.5-19T250 180q0-54 7-103t7-92q0-68-39-99t-116-31H33v101h22q29 0 38 12.5T102 4q0 45-7.5 93T87 190q0 50 22 72t62 37q-20 7-35.5 15.5T109 335t-16.5 29-5.5 41q0 46 7.5 91.5T102 586q0 23-9.5 36.5T51 636H33v101z"/><glyph glyph-name="asciitilde" unicode="~" horiz-adv-x="600" d="M176 450q24 0 59-7t70-15 66-15 48-7 23.5 9.5T449 450l83-4q4-31 0-57.5T516 342t-32.5-31.5T434 299q-26 0-61.5 7T301 321t-67 15-47 7-24-9.5-4-37.5l-89 3q-8 66 19 108.5t87 42.5z"/><glyph glyph-name="uni00A0" horiz-adv-x="174"/><glyph glyph-name="exclamdown" unicode="¡" horiz-adv-x="290" d="M211.016 323.036l18.996-526.903H66.042l18.996 526.903h125.978zM59.043 452.013q0 37.993 21.996 58.99t66.987 20.995q89.984 0 89.984-79.985 0-38.993-22.495-59.99-22.496-20.995-67.489-20.995-44.99 0-66.987 20.996t-21.996 59.989z"/><glyph glyph-name="cent" unicode="¢" horiz-adv-x="537" d="M355 711V607q66-12 107-58.5T509 428l-136-20q-5 46-21.5 68T297 498q-21 0-38.5-5.5t-31-20.5-21-40.5T199 366q0-71 22-107t76-36q42 0 61 20.5t27 66.5l126-23q-11-75-55-118.5T347 112V0H220v112q-89 17-132.5 82T44 351q0 106 48.5 170.5T228 605v106h127z"/><glyph glyph-name="sterling" unicode="£" horiz-adv-x="593" d="M75 120q35 31 51.5 58t16.5 65q0 32-17 69H30v110h65q-12 21-26 51.5T55 543q0 43 17 79t49.5 61.5T200 723t104 14q100 0 159-43.5T538 546l-134-23q-3 21-9 39.5T378 595t-29 22-45 8q-92 0-92-84 0-32 13-62t27-57h193V312H280q11-28 11-60 0-38-13.5-68.5T230 120h105q31 0 51 5t33 16 19.5 29.5T450 215l127-22q-8-101-62-147T349 0H16v120h59z"/><glyph glyph-name="currency" unicode="¤" d="M475-4l-87 86q-24-14-53.5-22T269 52t-67 9-54 23q-7-8-19.5-20.5l-26-26-25-25L61-4l-80 82 91 91q-12 25-18 53.5T48 280q0 55 26 104l-90 89 83 84 85-84q53 33 124 33 74 0 122-30l82 80 78-82-84-85q23-48 23-105 0-30-7.5-60T468 168l90-89zM274 163q50 0 75 34t25 83q0 54-25.5 84T271 394q-50 0-75-32t-25-82q0-49 24.5-83t78.5-34z"/><glyph glyph-name="yen" unicode="¥" horiz-adv-x="574" d="M407 417h88v-94H366v-69h129v-94H366V0H215v160H88v94h127v69H88v94h83L12 724h162l119-253h4l115 253h151z"/><glyph glyph-name="brokenbar" unicode="¦" horiz-adv-x="280" d="M72-143v388h137v-388H72zm0 560v338h137V417H72z"/><glyph glyph-name="section" unicode="§" horiz-adv-x="569" d="M41 236q0 46 22.5 81t67.5 64q-23 22-40.5 54T73 515q0 46 18.5 82t51 61 75 38 90.5 13q43 0 80.5-10t66.5-32.5 47.5-58T526 522l-130-15q-4 46-24.5 70.5T303 602q-39 0-62-17t-23-50q0-34 23.5-52.5T300 451t75.5-24.5T451 396t58.5-50 23.5-83q0-46-24-83.5T443 112q23-21 40-52.5T500-19q0-46-16.5-82.5t-47-61.5-74-38-96.5-13q-44 0-81.5 10t-67 32-48 57T46-29l131 15q4-46 24.5-70.5T270-109q39 0 62.5 18T356-39t-23.5 51.5T274 42t-75.5 22.5-75.5 30T64.5 147 41 236zm135 34q0-25 15.5-40.5t41-26 57-19T353 164q20 12 32.5 27.5T398 227q0 24-16.5 38.5t-43 25-59 19T215 331q-39-25-39-61z"/><glyph glyph-name="dieresis" unicode="¨" horiz-adv-x="500" d="M221 679q0-38-24.5-60.5T133 596q-41 0-66 22.5T42 679t25 61 66 23q39 0 63.5-23t24.5-61zm235 0q0-38-24-60.5T368 596q-41 0-65.5 22.5T278 679t24.5 61 65.5 23q40 0 64-23t24-61z"/><glyph glyph-name="copyright" unicode="©" horiz-adv-x="802" d="M753 340q0-79-26-144T654.5 85t-111-71.5T401-12q-87 0-152.5 26t-110 71T72 192 50 326q0 82 27.5 147.5T153 584t112.5 69T403 677q81 0 146-24t110.5-68T729 479t24-139zM403 67q62 0 111.5 18.5t84 53 52.5 84T669 334q0 65-20 114.5t-55 83-84 50.5-107 17q-57 0-106-18t-85-53-56-85.5T136 327q0-122 70-191t197-69zm162 201q-5-39-22.5-64T502 164.5t-48.5-20T406 139q-48 0-82 14.5t-55.5 41-31 62T228 334t12 78 35 61.5 57 40 78 14.5q29 0 55.5-8t47-24.5T546 454t15-60l-73-8q-5 40-24.5 58T406 462q-41 0-68.5-29.5T310 332q0-26 4.5-49t16-40.5 30-28T406 204q42 0 61.5 21t26.5 56z"/><glyph glyph-name="ordfeminine" unicode="ª" horiz-adv-x="397" d="M341 377q0-18 8-23.5t30 1.5l3-66q-11-5-28.5-9t-35.5-4q-32 0-52.5 10.5T238 323q-17-21-42-34.5T133 275q-33 0-54 9.5T46 308t-16 30-4 29q0 40 20.5 63.5t50.5 35 65 15 64 3.5v13q0 22-6.5 37.5T182 550q-22 0-32.5-11T135 504L35 522q4 24 14.5 44T79 601t46.5 23 65.5 8q75 0 112.5-28.5T341 511V377zm-114 44q-10 0-24-.5t-27-4.5-22.5-11.5T144 382q0-13 7.5-21.5T180 352q16 0 28 6t19 12v51z"/><glyph glyph-name="guillemotleft" unicode="«" horiz-adv-x="464" d="M123 103L37 257l89 151h122l-88-147 84-158H123zm186 0l-86 154 89 151h122l-88-147 84-158H309z"/><glyph glyph-name="logicalnot" unicode="¬" d="M361 170v95H85v119h387V170H361z"/><glyph glyph-name="uni00AD" unicode="­" horiz-adv-x="311" d="M20 227v129h271V227H20z"/><glyph glyph-name="registered" unicode="®" horiz-adv-x="465" d="M425 474q0-43-14-78.5t-39.5-61T310 295t-79-14q-47 0-82.5 14.5t-59.5 39T52.5 393 40 466q0 45 15 81t41.5 61 61.5 38.5 75 13.5q44 0 79.5-13.5T373 609t38.5-58.5T425 474zm-50-3q0 70-40.5 106T233 613q-30 0-55.5-10t-45-28.5T102 529t-11-61q0-65 38-102t104-37 104 38 38 104zm-48-89h-53l-42 71h-17v-71h-47v190h71q42 0 57-17t15-38q0-22-10.5-33.5T276 467zm-99 105q16 0 25.5 5.5T263 513q0 14-9 19t-21 5h-18v-50h13z"/><glyph glyph-name="macron" unicode="¯" horiz-adv-x="500" d="M94 601v102h311V601H94z"/><glyph glyph-name="degree" unicode="°" horiz-adv-x="358" d="M181 580q21 0 34.5 14.5T229 632t-14 37-34 14-35-14.5-15-39.5q0-21 13.5-35t36.5-14zm117 52q0-54-32.5-86T181 514q-54 0-86.5 31.5T62 629q0 28 9.5 50T97 716.5t38 24 46 8.5q49 0 83-31.5t34-85.5z"/><glyph glyph-name="plusminus" unicode="±" d="M91 0v119h387V0H91zm133 144v120H91v119h133v139h120V383h134V264H344V144H224z"/><glyph glyph-name="twosuperior" unicode="²" horiz-adv-x="405" d="M203 809q83 0 120.5-33.5T361 689q0-27-8-49.5t-24.5-45-42-46.5-61.5-54l-32-33v-4h175V349H41v108l97 97q25 25 42.5 44t28 33 15 25.5T228 680q0 34-34 34-43 0-50-57L30 672q4 36 19 62t38.5 42.5 53 24.5 62.5 8z"/><glyph glyph-name="threesuperior" unicode="³" horiz-adv-x="412" d="M136 487q3-28 16-39t36-11q21 0 34.5 11.5T236 485q0 27-12.5 38.5T179 535h-50v86h31q36 0 53 16t17 43q0 17-9 26.5t-29 9.5q-21 0-32.5-12T143 669L33 689q6 35 23 58t40 37 51.5 19.5T205 809q74 0 114.5-27.5T360 700q0-23-7.5-40.5t-19.5-30-27.5-22T273 592v-3q98-20 98-107 0-34-13.5-60t-38-44-57.5-27-72-9q-29 0-57 5.5t-51 20T42.5 406 22 466z"/><glyph glyph-name="acute" unicode="´" horiz-adv-x="500" d="M272 572l-101 9 75 162h161z"/><glyph glyph-name="mu" unicode="µ" horiz-adv-x="629" d="M81 521h151V191q0-43 11.5-62.5T287 109t58.5 14.5T389 152v369h151V0H415l-5 54h-5q-35-34-77.5-50T228-1l-1-1 10-174H81v697z"/><glyph glyph-name="paragraph" unicode="¶" horiz-adv-x="601" d="M530-133H425v763h-66v-763H254v377q-111 7-163.5 67.5T38 475q0 69 22 116.5t60 77 89.5 42.5T320 724h209z"/><glyph glyph-name="periodcentered" unicode="·" horiz-adv-x="238" d="M205 309q0-79-85-79-86 0-86 79 0 80 86 80 85 0 85-80z"/><glyph glyph-name="cedilla" unicode="¸" horiz-adv-x="500" d="M151-162q12-3 23.5-5t24.5-2q23 0 36.5 8.5T249-132q0 23-17 29.5T185-95l16 125 72-8-9-67q16-3 31.5-9T323-71t19-27 7-39q0-55-37.5-82T218-246q-46 0-82 14z"/><glyph glyph-name="onesuperior" unicode="¹" horiz-adv-x="328" d="M137 347v314q-8-4-22-7t-29-5.5-28.5-4T36 643l-5 104q42 3 80 15.5t62 36.5h97V347H137z"/><glyph glyph-name="ordmasculine" unicode="º" horiz-adv-x="416" d="M203 275q-50 0-84 13t-55 36.5-30 56-9 71.5q0 83 45.5 131.5T213 632q48 0 82-13t55.5-35.5 31-54.5 9.5-69q0-85-44.5-135T203 275zm5 82q31 0 45.5 21t14.5 78q0 53-13.5 73T210 549t-46.5-21-15.5-73q0-53 13.5-75.5T208 357z"/><glyph glyph-name="guillemotright" unicode="»" horiz-adv-x="464" d="M153 408l89-153-87-152H35l84 153-88 152h122zm186 0l89-153-87-152H221l84 153-88 152h122z"/><glyph glyph-name="onequarter" unicode="¼" horiz-adv-x="1012" d="M233-12l354 736h138L372-12H233zm-80 292v314q-8-4-22-7t-29-5.5-28.5-4T52 576l-5 104q42 3 80 15.5t62 36.5h97V280H153zM784 1v92H576v89l176 271h159V193h52V93h-51V1H784zm0 192v150l-98-150h98z"/><glyph glyph-name="onehalf" unicode="½" horiz-adv-x="1012" d="M228-12l354 736h138L367-12H228zm-72 292v314q-8-4-22-7t-29-5.5-28.5-4T55 576l-5 104q42 3 80 15.5t62 36.5h97V280H156zm631 181q83 0 120.5-33.5T945 341q0-27-8-49.5t-24.5-45-42-46.5-61.5-54l-32-33v-4h175V1H625v108l97 97q25 25 42.5 44t28 33 15 25.5T812 332q0 34-34 34-43 0-50-57l-114 15q4 36 19 62t38.5 42.5 53 24.5 62.5 8z"/><glyph glyph-name="threequarters" unicode="¾" horiz-adv-x="1012" d="M265-12l354 736h138L404-12H265zM796 1v92H588v89l176 271h159V193h52V93h-51V1H796zm0 192v150l-98-150h98zM154 420q3-28 16-39t36-11q21 0 34.5 11.5T254 418q0 27-12.5 38.5T197 468h-50v86h31q36 0 53 16t17 43q0 17-9 26.5t-29 9.5q-21 0-32.5-12T161 602L51 622q6 35 23 58t40 37 51.5 19.5T223 742q74 0 114.5-27.5T378 633q0-23-7.5-40.5t-19.5-30-27.5-22T291 525v-3q98-20 98-107 0-34-13.5-60t-38-44-57.5-27-72-9q-29 0-57 5.5t-51 20T60.5 339 40 399z"/><glyph glyph-name="questiondown" unicode="¿" horiz-adv-x="536" d="M386.028 323.036V140.069q-35.993-2.999-71.986-10.498-35.994-7.498-63.989-23.495-27.995-15.997-45.492-41.992-17.497-25.996-17.497-65.989 0-47.99 24.496-67.487 24.495-19.497 62.489-19.497 46.99 0 71.987 24.996 24.995 24.995 33.993 78.985L527.003-7.904q-11.998-95.982-77.986-150.973-65.988-54.989-182.966-54.989-45.993 0-88.985 10.498t-75.986 35.493q-32.993 24.995-52.99 65.989Q28.094-60.894 28.094.094q0 94.983 54.49 151.973t153.472 79.985v90.983h149.973zm-161.97 128.977q0 37.993 21.996 58.99t66.988 20.995q88.984 0 88.984-79.985 0-38.993-21.996-59.99t-66.988-20.995q-44.992 0-66.988 20.996t-21.996 59.989z"/><glyph glyph-name="Agrave" unicode="À" horiz-adv-x="709" d="M443 724L699 0H530l-60 176H229L173 0H14l237 724h192zm-95-145h-4l-89-280h183zM180 916h162l91-140-107-8z"/><glyph glyph-name="Aacute" unicode="Á" horiz-adv-x="709" d="M443 724L699 0H530l-60 176H229L173 0H14l237 724h192zm-95-145h-4l-89-280h183zm17 189l-107 8 91 140h162z"/><glyph glyph-name="Acircumflex" unicode="Â" horiz-adv-x="709" d="M443 724L699 0H530l-60 176H229L173 0H14l237 724h192zm-95-145h-4l-89-280h183zm0 262l-75-73-102 7 107 142h140l102-142-100-6z"/><glyph glyph-name="Atilde" unicode="Ã" horiz-adv-x="709" d="M443 724L699 0H530l-60 176H229L173 0H14l237 724h192zm-95-145h-4l-89-280h183zm-77 351q24 0 44-6.5t37.5-15 33.5-15 33-6.5 23.5 9.5T449 931l76-4q7-62-15.5-101.5T434 786q-26 0-47 7t-39 15-34 15-32 7-24-9.5-4-37.5l-82 3q-8 66 20 105t79 39z"/><glyph glyph-name="Adieresis" unicode="Ä" horiz-adv-x="709" d="M443 724L699 0H530l-60 176H229L173 0H14l237 724h192zm-95-145h-4l-89-280h183zm-31 279q0-38-24.5-60.5T229 775q-41 0-66 22.5T138 858t25 61 66 23q39 0 63.5-23t24.5-61zm235 0q0-38-24-60.5T464 775q-41 0-65.5 22.5T374 858t24.5 61 65.5 23q40 0 64-23t24-61z"/><glyph glyph-name="Aring" unicode="Å" horiz-adv-x="709" d="M472 798q0-49-27-79L699 0H530l-60 176H229L173 0H14l234 717q-27 30-27 76 0 30 10 53t27 38 39.5 22.5T346 914t49-7.5 40-22 27-36 10-50.5zM348 579h-4l-89-280h183zm-2 168q23 0 37 13t14 40q0 26-14 38t-37 12-38.5-12.5T292 799t14.5-39 39.5-13z"/><glyph glyph-name="AE" unicode="Æ" horiz-adv-x="1003" d="M644 130h324V0H490v286H312L176 0H13l353 724h583V594H644V413h287V288H644V130zM490 594h-43l-90-186h133v186z"/><glyph glyph-name="Ccedilla" unicode="Ç" horiz-adv-x="695" d="M282-162q12-3 23.5-5t24.5-2q23 0 36.5 8.5T380-132q0 23-17 29.5T316-95l11 85q-78 6-132.5 34.5T105 100 54 211 38 354q0 86 22.5 156.5t67 121 109.5 78T387 737q61 0 112-15t88.5-46.5 59.5-81T672 477l-141-12q-7 78-41.5 111.5T385 610q-89 0-138.5-59.5T197 362q0-67 11.5-114t34-76.5 55.5-43 76-13.5q39 0 66 9.5t45 27 29 41 17 52.5l139-24q-8-60-34.5-103T572 47.5 490 6t-91-17l-4-34q16-3 31.5-9T454-71t19-27 7-39q0-55-37.5-82T349-246q-46 0-82 14z"/><glyph glyph-name="Egrave" unicode="È" horiz-adv-x="583" d="M228 130h323V0H74v724h459V595H228V425h287V299H228V130zm-87 786h162l91-140-107-8z"/><glyph glyph-name="Eacute" unicode="É" horiz-adv-x="583" d="M228 130h323V0H74v724h459V595H228V425h287V299H228V130zm98 638l-107 8 91 140h162z"/><glyph glyph-name="Ecircumflex" unicode="Ê" horiz-adv-x="583" d="M228 130h323V0H74v724h459V595H228V425h287V299H228V130zm81 711l-75-73-102 7 107 142h140l102-142-100-6z"/><glyph glyph-name="Edieresis" unicode="Ë" horiz-adv-x="583" d="M228 130h323V0H74v724h459V595H228V425h287V299H228V130zm50 728q0-38-24.5-60.5T190 775q-41 0-66 22.5T99 858t25 61 66 23q39 0 63.5-23t24.5-61zm235 0q0-38-24-60.5T425 775q-41 0-65.5 22.5T335 858t24.5 61 65.5 23q40 0 64-23t24-61z"/><glyph glyph-name="Igrave" unicode="Ì" horiz-adv-x="302" d="M228 0H74v724h154V0zM-14 916h162l91-140-107-8z"/><glyph glyph-name="Iacute" unicode="Í" horiz-adv-x="302" d="M228 0H74v724h154V0zm-57 768l-107 8 91 140h162z"/><glyph glyph-name="Icircumflex" unicode="Î" horiz-adv-x="302" d="M228 0H74v724h154V0zm-74 841l-75-73-102 7L84 917h140l102-142-100-6z"/><glyph glyph-name="Idieresis" unicode="Ï" horiz-adv-x="302" d="M228 0H74v724h154V0zM123 858q0-38-24.5-60.5T35 775q-41 0-66 22.5T-56 858t25 61 66 23q39 0 63.5-23t24.5-61zm235 0q0-38-24-60.5T270 775q-41 0-65.5 22.5T180 858t24.5 61 65.5 23q40 0 64-23t24-61z"/><glyph glyph-name="Eth" unicode="Ð" horiz-adv-x="724" d="M74 0v305H7v129h67v290h254q94 0 162-24.5t111.5-70T666 519t21-146q0-83-22.5-152T596 103 479 27 311 0H74zm230 124q63 0 106 16.5t69.5 47.5 38 76T529 365q0 67-13 112.5T476 550t-67 38.5-94 11.5h-87V434h171V305H228V124h76z"/><glyph glyph-name="Ntilde" unicode="Ñ" horiz-adv-x="745" d="M494 0L215 511V0H74v724h184l274-513v513h140V0H494zM297 930q24 0 44-6.5t37.5-15 33.5-15 33-6.5 23.5 9.5T475 931l76-4q7-62-15.5-101.5T460 786q-26 0-47 7t-39 15-34 15-32 7-24-9.5-4-37.5l-82 3q-8 66 20 105t79 39z"/><glyph glyph-name="Ograve" unicode="Ò" horiz-adv-x="760" d="M375-12q-90 0-153.5 27.5T117 92.5 57 210 38 359t22 150 66.5 119.5T237 708t154 29 151-28.5 103-78 59-116T723 373q0-88-21.5-159T637 92.5 528.5 15 375-12zm6 130q40 0 74 13.5t58 42.5 37.5 76T564 364q0 126-46 184.5T388 607q-88 0-139.5-59.5T197 362q0-65 12.5-111t36.5-75.5 58-43.5 77-14zM224 916h162l91-140-107-8z"/><glyph glyph-name="Oacute" unicode="Ó" horiz-adv-x="760" d="M375-12q-90 0-153.5 27.5T117 92.5 57 210 38 359t22 150 66.5 119.5T237 708t154 29 151-28.5 103-78 59-116T723 373q0-88-21.5-159T637 92.5 528.5 15 375-12zm6 130q40 0 74 13.5t58 42.5 37.5 76T564 364q0 126-46 184.5T388 607q-88 0-139.5-59.5T197 362q0-65 12.5-111t36.5-75.5 58-43.5 77-14zm28 650l-107 8 91 140h162z"/><glyph glyph-name="Ocircumflex" unicode="Ô" horiz-adv-x="760" d="M375-12q-90 0-153.5 27.5T117 92.5 57 210 38 359t22 150 66.5 119.5T237 708t154 29 151-28.5 103-78 59-116T723 373q0-88-21.5-159T637 92.5 528.5 15 375-12zm6 130q40 0 74 13.5t58 42.5 37.5 76T564 364q0 126-46 184.5T388 607q-88 0-139.5-59.5T197 362q0-65 12.5-111t36.5-75.5 58-43.5 77-14zm11 723l-75-73-102 7 107 142h140l102-142-100-6z"/><glyph glyph-name="Otilde" unicode="Õ" horiz-adv-x="760" d="M375-12q-90 0-153.5 27.5T117 92.5 57 210 38 359t22 150 66.5 119.5T237 708t154 29 151-28.5 103-78 59-116T723 373q0-88-21.5-159T637 92.5 528.5 15 375-12zm6 130q40 0 74 13.5t58 42.5 37.5 76T564 364q0 126-46 184.5T388 607q-88 0-139.5-59.5T197 362q0-65 12.5-111t36.5-75.5 58-43.5 77-14zm-66 812q24 0 44-6.5t37.5-15 33.5-15 33-6.5 23.5 9.5T493 931l76-4q7-62-15.5-101.5T478 786q-26 0-47 7t-39 15-34 15-32 7-24-9.5-4-37.5l-82 3q-8 66 20 105t79 39z"/><glyph glyph-name="Odieresis" unicode="Ö" horiz-adv-x="760" d="M375-12q-90 0-153.5 27.5T117 92.5 57 210 38 359t22 150 66.5 119.5T237 708t154 29 151-28.5 103-78 59-116T723 373q0-88-21.5-159T637 92.5 528.5 15 375-12zm6 130q40 0 74 13.5t58 42.5 37.5 76T564 364q0 126-46 184.5T388 607q-88 0-139.5-59.5T197 362q0-65 12.5-111t36.5-75.5 58-43.5 77-14zm-20 740q0-38-24.5-60.5T273 775q-41 0-66 22.5T182 858t25 61 66 23q39 0 63.5-23t24.5-61zm235 0q0-38-24-60.5T508 775q-41 0-65.5 22.5T418 858t24.5 61 65.5 23q40 0 64-23t24-61z"/><glyph glyph-name="multiply" unicode="×" d="M285 235l-99-99-84 87 99 98-99 99 84 87 99-99 99 99 84-87-99-99 99-98-84-87z"/><glyph glyph-name="Oslash" unicode="Ø" horiz-adv-x="760" d="M375-12q-40 0-76 6l-27-66H129l46 112Q103 88 70.5 170.5T38 359q0 81 22 150t66.5 119.5T237 708t154 29q39 0 72-6l27 63h142l-46-110q71-48 104-130t33-181q0-88-21.5-159T637 92.5 528.5 15 375-12zM197 362q0-59 10-102t30-73l174 418q-5 1-11 1.5t-12 .5q-88 0-139.5-59.5T197 362zm184-244q40 0 74 13.5t58 42.5 37.5 76T564 364q0 57-10 100t-29 73L351 119q8-1 15-1h15z"/><glyph glyph-name="Ugrave" unicode="Ù" horiz-adv-x="708" d="M356 117q38 0 63.5 9.5T460 156t21.5 51.5T488 283v441h154V261q0-72-20-123.5t-58-85-92-49T350-12q-150 0-217.5 67.5T65 265v459h155V286q0-42 6-74t21.5-53 42-31.5T356 117zM187 916h162l91-140-107-8z"/><glyph glyph-name="Uacute" unicode="Ú" horiz-adv-x="708" d="M356 117q38 0 63.5 9.5T460 156t21.5 51.5T488 283v441h154V261q0-72-20-123.5t-58-85-92-49T350-12q-150 0-217.5 67.5T65 265v459h155V286q0-42 6-74t21.5-53 42-31.5T356 117zm24 651l-107 8 91 140h162z"/><glyph glyph-name="Ucircumflex" unicode="Û" horiz-adv-x="708" d="M356 117q38 0 63.5 9.5T460 156t21.5 51.5T488 283v441h154V261q0-72-20-123.5t-58-85-92-49T350-12q-150 0-217.5 67.5T65 265v459h155V286q0-42 6-74t21.5-53 42-31.5T356 117zm-1 724l-75-73-102 7 107 142h140l102-142-100-6z"/><glyph glyph-name="Udieresis" unicode="Ü" horiz-adv-x="708" d="M356 117q38 0 63.5 9.5T460 156t21.5 51.5T488 283v441h154V261q0-72-20-123.5t-58-85-92-49T350-12q-150 0-217.5 67.5T65 265v459h155V286q0-42 6-74t21.5-53 42-31.5T356 117zm-32 741q0-38-24.5-60.5T236 775q-41 0-66 22.5T145 858t25 61 66 23q39 0 63.5-23t24.5-61zm235 0q0-38-24-60.5T471 775q-41 0-65.5 22.5T381 858t24.5 61 65.5 23q40 0 64-23t24-61z"/><glyph glyph-name="Yacute" unicode="Ý" horiz-adv-x="606" d="M388 0H233v271L-18 724h169l159-310h5l153 310h156L388 273V0zm-61 768l-107 8 91 140h162z"/><glyph glyph-name="Thorn" unicode="Þ" horiz-adv-x="621" d="M227 0H74v724h153V608h121q69 0 115.5-19t74.5-50 39.5-71 11.5-81q0-259-283-259h-79V0zm62 252q30 0 55.5 4.5t45 18T420 312t11 64q0 32-10 53t-27 33-41 17-52 5h-74V252h62z"/><glyph glyph-name="germandbls" unicode="ß" horiz-adv-x="656" d="M57 0v513q0 72 20 120.5t55.5 78.5 84 43T322 768q117 0 181.5-50T568 576q0-38-10.5-66t-27-48.5T495 428t-37-20v-3q31-7 60.5-19.5t52-35 36-58T620 205q0-43-12.5-82t-39-69-67-48T405-12q-48 0-94 14.5T232 60l57 92q14-17 39.5-35T386 99q37 0 59.5 26.5T468 215q0 36-11 59t-29.5 36.5-43 18.5-52.5 5h-35v108h17q29 0 48.5 8.5T394 474t17.5 35 5.5 44q0 57-27.5 82T317 660q-24 0-44.5-6T238 633t-22-41.5-8-68.5V0H57z"/><glyph glyph-name="agrave" unicode="à" horiz-adv-x="558" d="M481 130q0-21 5.5-30.5T512 90q11 0 31 6l4-87q-15-8-43.5-14T451-11q-45 0-72 14.5T344 55q-25-32-63-49.5T189-12q-49 0-79 14.5T63 38 40 83t-6 44q0 60 28 96t71.5 55 96.5 25 103 6v19q0 22-2.5 39.5t-10 30-22 19T259 423q-38 0-54.5-17T180 351L52 376q6 37 21 66t41.5 49 65.5 30.5 92 10.5q105 0 157-43t52-141V130zm-147 91h-24q-27-1-50-4.5t-39.5-11T195 185t-9-33q0-23 12.5-40T247 95q27 0 51 11t36 23v92zM115 743h162l74-162-101-9z"/><glyph glyph-name="aacute" unicode="á" horiz-adv-x="558" d="M481 130q0-21 5.5-30.5T512 90q11 0 31 6l4-87q-15-8-43.5-14T451-11q-45 0-72 14.5T344 55q-25-32-63-49.5T189-12q-49 0-79 14.5T63 38 40 83t-6 44q0 60 28 96t71.5 55 96.5 25 103 6v19q0 22-2.5 39.5t-10 30-22 19T259 423q-38 0-54.5-17T180 351L52 376q6 37 21 66t41.5 49 65.5 30.5 92 10.5q105 0 157-43t52-141V130zm-147 91h-24q-27-1-50-4.5t-39.5-11T195 185t-9-33q0-23 12.5-40T247 95q27 0 51 11t36 23v92zm-42 351l-101 9 75 162h161z"/><glyph glyph-name="acircumflex" unicode="â" horiz-adv-x="558" d="M481 130q0-21 5.5-30.5T512 90q11 0 31 6l4-87q-15-8-43.5-14T451-11q-45 0-72 14.5T344 55q-25-32-63-49.5T189-12q-49 0-79 14.5T63 38 40 83t-6 44q0 60 28 96t71.5 55 96.5 25 103 6v19q0 22-2.5 39.5t-10 30-22 19T259 423q-38 0-54.5-17T180 351L52 376q6 37 21 66t41.5 49 65.5 30.5 92 10.5q105 0 157-43t52-141V130zm-147 91h-24q-27-1-50-4.5t-39.5-11T195 185t-9-33q0-23 12.5-40T247 95q27 0 51 11t36 23v92zm10 355l-73 94-76-95-101 6 105 164h144l101-164z"/><glyph glyph-name="atilde" unicode="ã" horiz-adv-x="558" d="M481 130q0-21 5.5-30.5T512 90q11 0 31 6l4-87q-15-8-43.5-14T451-11q-45 0-72 14.5T344 55q-25-32-63-49.5T189-12q-49 0-79 14.5T63 38 40 83t-6 44q0 60 28 96t71.5 55 96.5 25 103 6v19q0 22-2.5 39.5t-10 30-22 19T259 423q-38 0-54.5-17T180 351L52 376q6 37 21 66t41.5 49 65.5 30.5 92 10.5q105 0 157-43t52-141V130zm-147 91h-24q-27-1-50-4.5t-39.5-11T195 185t-9-33q0-23 12.5-40T247 95q27 0 51 11t36 23v92zM193 732q24 0 44-7t37.5-15 33.5-15 33-7 23.5 9.5T371 732l76-4q7-62-15.5-101.5T356 587q-26 0-47 7t-39 15-34 15-32 7-24-9.5-4-37.5l-82 3q-8 66 20 105.5t79 39.5z"/><glyph glyph-name="adieresis" unicode="ä" horiz-adv-x="558" d="M481 130q0-21 5.5-30.5T512 90q11 0 31 6l4-87q-15-8-43.5-14T451-11q-45 0-72 14.5T344 55q-25-32-63-49.5T189-12q-49 0-79 14.5T63 38 40 83t-6 44q0 60 28 96t71.5 55 96.5 25 103 6v19q0 22-2.5 39.5t-10 30-22 19T259 423q-38 0-54.5-17T180 351L52 376q6 37 21 66t41.5 49 65.5 30.5 92 10.5q105 0 157-43t52-141V130zm-147 91h-24q-27-1-50-4.5t-39.5-11T195 185t-9-33q0-23 12.5-40T247 95q27 0 51 11t36 23v92zm-93 458q0-38-24.5-60.5T153 596q-41 0-66 22.5T62 679t25 61 66 23q39 0 63.5-23t24.5-61zm235 0q0-38-24-60.5T388 596q-41 0-65.5 22.5T298 679t24.5 61 65.5 23q40 0 64-23t24-61z"/><glyph glyph-name="aring" unicode="å" horiz-adv-x="558" d="M481 130q0-21 5.5-30.5T512 90q11 0 31 6l4-87q-15-8-43.5-14T451-11q-45 0-72 14.5T344 55q-25-32-63-49.5T189-12q-49 0-79 14.5T63 38 40 83t-6 44q0 60 28 96t71.5 55 96.5 25 103 6v19q0 22-2.5 39.5t-10 30-22 19T259 423q-38 0-54.5-17T180 351L52 376q6 37 21 66t41.5 49 65.5 30.5 92 10.5q105 0 157-43t52-141V130zm-147 91h-24q-27-1-50-4.5t-39.5-11T195 185t-9-33q0-23 12.5-40T247 95q27 0 51 11t36 23v92zm49 454q0-51-31-78t-82-27q-50 0-81 26t-31 75q0 54 33.5 81.5T270 780q47 0 80-26.5t33-78.5zm-113-45q20 0 32 11t12 34q0 21-12 31.5T270 717q-19 0-32-11t-13-32q0-23 12.5-33.5T270 630z"/><glyph glyph-name="ae" unicode="æ" horiz-adv-x="838" d="M580-12q-71 0-118 21t-76 57q-43-42-90-60T195-12q-51 0-82.5 14.5T63.5 38 40 83t-6 44q0 61 27 96.5t69.5 54.5 96 24 106.5 5v21q0 22-2.5 39.5t-10 30-22 19T259 423q-38 0-54.5-17T180 351L52 376q6 37 21 66t41.5 49 65.5 30.5 92 10.5 89-16.5 59-54.5q26 33 71 52t98 19q56 0 96.5-17.5t67-49 39-76T804 291q0-13-.5-31t-2.5-32H484q1-68 28-95.5t77-27.5q41 0 59 20.5t26 53.5l127-31q-14-73-70.5-116.5T580-12zM247 95q25 0 53.5 11.5T349 135q-8 20-12 41.5t-6 44.5h-21q-27-1-50-4.5t-39.5-11T195 185t-9-33q0-23 12.5-40T247 95zm401 224q2 58-18.5 81T572 423q-16 0-31.5-5.5t-27.5-18-19.5-32.5-7.5-48h162z"/><glyph glyph-name="ccedilla" unicode="ç" horiz-adv-x="544" d="M196-162q12-3 23.5-5t24.5-2q23 0 36.5 8.5T294-132q0 23-17 29.5T230-95l11 86q-54 6-93 28T83.5 75 46 154t-12 98q0 135 69 207.5T300 532q94 0 151.5-50.5T517 335l-135-20q-5 49-22.5 75T297 416q-21 0-40.5-6T223 387.5 200.5 342t-8.5-74 7-76 20.5-50 32.5-27.5 43-8.5q44 0 67 22.5t30 72.5l127-24q-13-91-69-136T313-11l-4-34q16-3 31.5-9T368-71t19-27 7-39q0-55-37.5-82T263-246q-46 0-82 14z"/><glyph glyph-name="egrave" unicode="è" horiz-adv-x="547" d="M289-12q-72 0-121 22.5t-79 60T46.5 157 34 259q0 70 20 121.5t55 85.5 81 50 99 16q59 0 101.5-17.5t69.5-49 40-76 13-98.5q0-13-.5-33.5T510 223H193q2-65 28.5-91.5T298 105q41 0 59 20.5t26 53.5l127-31q-14-73-70.5-116.5T289-12zm68 331q0 57-19.5 80.5T281 423q-16 0-31.5-5.5t-27.5-18-19.5-32.5-7.5-48h162zM130 743h162l74-162-101-9z"/><glyph glyph-name="eacute" unicode="é" horiz-adv-x="547" d="M289-12q-72 0-121 22.5t-79 60T46.5 157 34 259q0 70 20 121.5t55 85.5 81 50 99 16q59 0 101.5-17.5t69.5-49 40-76 13-98.5q0-13-.5-33.5T510 223H193q2-65 28.5-91.5T298 105q41 0 59 20.5t26 53.5l127-31q-14-73-70.5-116.5T289-12zm68 331q0 57-19.5 80.5T281 423q-16 0-31.5-5.5t-27.5-18-19.5-32.5-7.5-48h162zm-50 253l-101 9 75 162h161z"/><glyph glyph-name="ecircumflex" unicode="ê" horiz-adv-x="547" d="M289-12q-72 0-121 22.5t-79 60T46.5 157 34 259q0 70 20 121.5t55 85.5 81 50 99 16q59 0 101.5-17.5t69.5-49 40-76 13-98.5q0-13-.5-33.5T510 223H193q2-65 28.5-91.5T298 105q41 0 59 20.5t26 53.5l127-31q-14-73-70.5-116.5T289-12zm68 331q0 57-19.5 80.5T281 423q-16 0-31.5-5.5t-27.5-18-19.5-32.5-7.5-48h162zm2 257l-73 94-76-95-101 6 105 164h144l101-164z"/><glyph glyph-name="edieresis" unicode="ë" horiz-adv-x="547" d="M289-12q-72 0-121 22.5t-79 60T46.5 157 34 259q0 70 20 121.5t55 85.5 81 50 99 16q59 0 101.5-17.5t69.5-49 40-76 13-98.5q0-13-.5-33.5T510 223H193q2-65 28.5-91.5T298 105q41 0 59 20.5t26 53.5l127-31q-14-73-70.5-116.5T289-12zm68 331q0 57-19.5 80.5T281 423q-16 0-31.5-5.5t-27.5-18-19.5-32.5-7.5-48h162zM256 679q0-38-24.5-60.5T168 596q-41 0-66 22.5T77 679t25 61 66 23q39 0 63.5-23t24.5-61zm235 0q0-38-24-60.5T403 596q-41 0-65.5 22.5T313 679t24.5 61 65.5 23q40 0 64-23t24-61z"/><glyph glyph-name="igrave" unicode="ì" horiz-adv-x="268" d="M211 0H60v521h151V0zM-19 743h162l74-162-101-9z"/><glyph glyph-name="iacute" unicode="í" horiz-adv-x="268" d="M211 0H60v521h151V0zm-53 572l-101 9 75 162h161z"/><glyph glyph-name="icircumflex" unicode="î" horiz-adv-x="268" d="M211 0H60v521h151V0zm-1 576l-73 94-76-95-101 6L65 745h144l101-164z"/><glyph glyph-name="idieresis" unicode="ï" horiz-adv-x="268" d="M211 0H60v521h151V0zM107 679q0-38-24.5-60.5T19 596q-41 0-66 22.5T-72 679t25 61 66 23q39 0 63.5-23t24.5-61zm235 0q0-38-24-60.5T254 596q-41 0-65.5 22.5T164 679t24.5 61 65.5 23q40 0 64-23t24-61z"/><glyph glyph-name="eth" unicode="ð" horiz-adv-x="588" d="M31 249q0 53 14 99.5T87 430t70.5 55.5T257 506q31 0 60-6.5t60-20.5l4 5q-15 40-44.5 70.5t-64 52-70 34T138 658l54 122q50-9 90.5-24.5T358 718l108 70 66-94-83-53q57-67 80.5-150.5T553 319q0-73-14.5-134t-47-104.5-84-68T283-12q-65 0-112.5 19T92 60.5 46 143 31 249zm158 3q0-81 25-120t76-39q58 0 84 53t26 159q0 16-1.5 32t-3.5 33q-19 14-45 23.5t-55 9.5q-24 0-44-7.5t-33.5-25-21-46.5-7.5-72z"/><glyph glyph-name="ntilde" unicode="ñ" horiz-adv-x="583" d="M530 0H379v330q0 42-17 61t-52 19q-31 0-59-13.5T208 369V0H57v521h134l8-52q29 26 70.5 44.5T365 532q87 0 126-43t39-133V0zM212 732q24 0 44-7t37.5-15 33.5-15 33-7 23.5 9.5T390 732l76-4q7-62-15.5-101.5T375 587q-26 0-47 7t-39 15-34 15-32 7-24-9.5-4-37.5l-82 3q-8 66 20 105.5t79 39.5z"/><glyph glyph-name="ograve" unicode="ò" horiz-adv-x="587" d="M288-12q-71 0-119.5 20T90 64t-43 85.5T34 258q0 63 16.5 113.5t49.5 86 83.5 55T302 532t115.5-19.5T495 458t44-83 14-106q0-64-15-116t-47.5-88.5T408 8 288-12zm7 112q25 0 43.5 8.5t31.5 28 19.5 50.5 6.5 77q0 85-24 119.5T298 418q-51 0-78.5-35.5T192 262q0-87 23.5-124.5T295 100zM145 743h162l74-162-101-9z"/><glyph glyph-name="oacute" unicode="ó" horiz-adv-x="587" d="M288-12q-71 0-119.5 20T90 64t-43 85.5T34 258q0 63 16.5 113.5t49.5 86 83.5 55T302 532t115.5-19.5T495 458t44-83 14-106q0-64-15-116t-47.5-88.5T408 8 288-12zm7 112q25 0 43.5 8.5t31.5 28 19.5 50.5 6.5 77q0 85-24 119.5T298 418q-51 0-78.5-35.5T192 262q0-87 23.5-124.5T295 100zm27 472l-101 9 75 162h161z"/><glyph glyph-name="ocircumflex" unicode="ô" horiz-adv-x="587" d="M288-12q-71 0-119.5 20T90 64t-43 85.5T34 258q0 63 16.5 113.5t49.5 86 83.5 55T302 532t115.5-19.5T495 458t44-83 14-106q0-64-15-116t-47.5-88.5T408 8 288-12zm7 112q25 0 43.5 8.5t31.5 28 19.5 50.5 6.5 77q0 85-24 119.5T298 418q-51 0-78.5-35.5T192 262q0-87 23.5-124.5T295 100zm79 476l-73 94-76-95-101 6 105 164h144l101-164z"/><glyph glyph-name="otilde" unicode="õ" horiz-adv-x="587" d="M288-12q-71 0-119.5 20T90 64t-43 85.5T34 258q0 63 16.5 113.5t49.5 86 83.5 55T302 532t115.5-19.5T495 458t44-83 14-106q0-64-15-116t-47.5-88.5T408 8 288-12zm7 112q25 0 43.5 8.5t31.5 28 19.5 50.5 6.5 77q0 85-24 119.5T298 418q-51 0-78.5-35.5T192 262q0-87 23.5-124.5T295 100zm-72 632q24 0 44-7t37.5-15 33.5-15 33-7 23.5 9.5T401 732l76-4q7-62-15.5-101.5T386 587q-26 0-47 7t-39 15-34 15-32 7-24-9.5-4-37.5l-82 3q-8 66 20 105.5t79 39.5z"/><glyph glyph-name="odieresis" unicode="ö" horiz-adv-x="587" d="M288-12q-71 0-119.5 20T90 64t-43 85.5T34 258q0 63 16.5 113.5t49.5 86 83.5 55T302 532t115.5-19.5T495 458t44-83 14-106q0-64-15-116t-47.5-88.5T408 8 288-12zm7 112q25 0 43.5 8.5t31.5 28 19.5 50.5 6.5 77q0 85-24 119.5T298 418q-51 0-78.5-35.5T192 262q0-87 23.5-124.5T295 100zm-24 579q0-38-24.5-60.5T183 596q-41 0-66 22.5T92 679t25 61 66 23q39 0 63.5-23t24.5-61zm235 0q0-38-24-60.5T418 596q-41 0-65.5 22.5T328 679t24.5 61 65.5 23q40 0 64-23t24-61z"/><glyph glyph-name="divide" unicode="÷" d="M361 155q0-35-19.5-54.5T282 81t-59.5 19.5T203 155q0 32 19.5 53t59.5 21 59.5-21 19.5-53zM91 261v120h387V261H91zm270 226q0-35-19.5-54T282 414q-79 0-79 73 0 32 19.5 53t59.5 21 59.5-21 19.5-53z"/><glyph glyph-name="oslash" unicode="ø" horiz-adv-x="587" d="M288-12q-18 0-34 1.5T223-7l-28-65H89l43 99q-54 35-76 94.5T34 258q0 63 16.5 113.5t49.5 86 83.5 55T302 532q14 0 27-1t25-3l26 58h105l-39-88q57-32 82-91.5T553 269q0-64-15-116t-47.5-88.5T408 8 288-12zm7 112q25 0 43.5 8.5t31.5 28 19.5 50.5 6.5 77q0 59-12 94L271 102q6-1 11.5-1.5t12.5-.5zM192 262q0-52 7-84l106 240h-7q-51 0-78.5-35.5T192 262z"/><glyph glyph-name="ugrave" unicode="ù" horiz-adv-x="578" d="M55 521h151V192q0-42 15-61.5t51-19.5q29 0 56.5 13.5T371 152v369h151V0H392l-11 56q-28-32-70-49.5T215-11Q55-11 55 162v359zm78 222h162l74-162-101-9z"/><glyph glyph-name="uacute" unicode="ú" horiz-adv-x="578" d="M55 521h151V192q0-42 15-61.5t51-19.5q29 0 56.5 13.5T371 152v369h151V0H392l-11 56q-28-32-70-49.5T215-11Q55-11 55 162v359zm255 51l-101 9 75 162h161z"/><glyph glyph-name="ucircumflex" unicode="û" horiz-adv-x="578" d="M55 521h151V192q0-42 15-61.5t51-19.5q29 0 56.5 13.5T371 152v369h151V0H392l-11 56q-28-32-70-49.5T215-11Q55-11 55 162v359zm307 55l-73 94-76-95-101 6 105 164h144l101-164z"/><glyph glyph-name="udieresis" unicode="ü" horiz-adv-x="578" d="M55 521h151V192q0-42 15-61.5t51-19.5q29 0 56.5 13.5T371 152v369h151V0H392l-11 56q-28-32-70-49.5T215-11Q55-11 55 162v359zm204 158q0-38-24.5-60.5T171 596q-41 0-66 22.5T80 679t25 61 66 23q39 0 63.5-23t24.5-61zm235 0q0-38-24-60.5T406 596q-41 0-65.5 22.5T316 679t24.5 61 65.5 23q40 0 64-23t24-61z"/><glyph glyph-name="yacute" unicode="ý" horiz-adv-x="526" d="M-4 521h163l109-363h3l105 363h155q-52-146-105.5-293.5T324-51q-17-46-34.5-78.5t-40-53.5-52-30.5T128-223q-31 0-64 7t-50 15L25-92q21-7 41.5-11.5T104-108q26 0 44 13t30 43l16 41zm289 51l-101 9 75 162h161z"/><glyph glyph-name="thorn" unicode="þ" horiz-adv-x="592" d="M59 755h148V474q32 31 70.5 44.5T362 532q40 0 75.5-13.5t62-44.5 41.5-80.5T556 272q0-78-17-132t-46-87.5-67.5-49T344-12q-48 0-80.5 13.5T206 38v-250H59v967zm150-611q11-11 37-23t54-12q53 0 75.5 41.5T398 268q0 79-23 111.5T306 412q-26 0-53-13t-44-27V144z"/><glyph glyph-name="ydieresis" unicode="ÿ" horiz-adv-x="526" d="M-4 521h163l109-363h3l105 363h155q-52-146-105.5-293.5T324-51q-17-46-34.5-78.5t-40-53.5-52-30.5T128-223q-31 0-64 7t-50 15L25-92q21-7 41.5-11.5T104-108q26 0 44 13t30 43l16 41zm238 158q0-38-24.5-60.5T146 596q-41 0-66 22.5T55 679t25 61 66 23q39 0 63.5-23t24.5-61zm235 0q0-38-24-60.5T381 596q-41 0-65.5 22.5T291 679t24.5 61 65.5 23q40 0 64-23t24-61z"/><glyph glyph-name="Amacron" unicode="Ā" horiz-adv-x="709" d="M443 724L699 0H530l-60 176H229L173 0H14l237 724h192zm-95-145h-4l-89-280h183zM187 784v103h317V784H187z"/><glyph glyph-name="amacron" unicode="ā" horiz-adv-x="558" d="M481 130q0-21 5.5-30.5T512 90q11 0 31 6l4-87q-15-8-43.5-14T451-11q-45 0-72 14.5T344 55q-25-32-63-49.5T189-12q-49 0-79 14.5T63 38 40 83t-6 44q0 60 28 96t71.5 55 96.5 25 103 6v19q0 22-2.5 39.5t-10 30-22 19T259 423q-38 0-54.5-17T180 351L52 376q6 37 21 66t41.5 49 65.5 30.5 92 10.5q105 0 157-43t52-141V130zm-147 91h-24q-27-1-50-4.5t-39.5-11T195 185t-9-33q0-23 12.5-40T247 95q27 0 51 11t36 23v92zM114 601v102h311V601H114z"/><glyph glyph-name="Abreve" unicode="Ă" horiz-adv-x="709" d="M443 724L699 0H530l-60 176H229L173 0H14l237 724h192zm-95-145h-4l-89-280h183zm3 282q32 0 50 14.5t26 52.5l96-6q-8-81-55.5-117T346 769q-72 0-116.5 35.5T180 920l100 10q6-38 22.5-53.5T351 861z"/><glyph glyph-name="abreve" unicode="ă" horiz-adv-x="558" d="M481 130q0-21 5.5-30.5T512 90q11 0 31 6l4-87q-15-8-43.5-14T451-11q-45 0-72 14.5T344 55q-25-32-63-49.5T189-12q-49 0-79 14.5T63 38 40 83t-6 44q0 60 28 96t71.5 55 96.5 25 103 6v19q0 22-2.5 39.5t-10 30-22 19T259 423q-38 0-54.5-17T180 351L52 376q6 37 21 66t41.5 49 65.5 30.5 92 10.5q105 0 157-43t52-141V130zm-147 91h-24q-27-1-50-4.5t-39.5-11T195 185t-9-33q0-23 12.5-40T247 95q27 0 51 11t36 23v92zm112 509q-6-85-54-123t-124-38q-74 0-119 37.5T101 727l100 11q5-42 22-59.5t50-17.5q34 0 52.5 16t24.5 60z"/><glyph glyph-name="Aogonek" unicode="Ą" horiz-adv-x="709" d="M730-139q-17-49-54.5-75T590-240q-57 0-86.5 25.5T474-142q0 45 27.5 79T575 0h-45l-60 176H229L173 0H14l237 724h192L699 0q-57-26-85-57t-28-60q0-33 31-33 14 0 26 9.5t22 31.5zM348 579h-4l-89-280h183z"/><glyph glyph-name="aogonek" unicode="ą" horiz-adv-x="558" d="M571-139q-17-49-54.5-75T431-240q-57 0-86.5 25.5T315-142q0 42 25 76t60 61q-46 12-56 60-25-32-63-49.5T189-12q-49 0-79 14.5T63 38 40 83t-6 44q0 60 28 96t71.5 55 96.5 25 103 6v19q0 22-2.5 39.5t-10 30-22 19T259 423q-38 0-54.5-17T180 351L52 376q6 37 21 66t41.5 49 65.5 30.5 92 10.5q105 0 157-43t52-141V130q0-21 5.5-30.5T512 90q11 0 31 6l4-87q-24-6-46-21t-38.5-33-26-37.5T427-117q0-33 31-33 14 0 26 9.5t22 31.5zM334 221h-24q-27-1-50-4.5t-39.5-11T195 185t-9-33q0-23 12.5-40T247 95q27 0 51 11t36 23v92z"/><glyph glyph-name="Cacute" unicode="Ć" horiz-adv-x="695" d="M372-12q-90 0-153.5 25.5T115 87 56.5 202.5 38 354q0 86 22.5 156.5t67 121 109.5 78T387 737q61 0 112-15t88.5-46.5 59.5-81T672 477l-141-12q-7 78-41.5 111.5T385 610q-89 0-138.5-59.5T197 362q0-67 11.5-114t34-76.5 55.5-43 76-13.5q39 0 66 9.5t45 27 29 41 17 52.5l139-24q-9-65-38-109.5t-70.5-72-91-39.5T372-12zm33 780l-107 8 91 140h162z"/><glyph glyph-name="cacute" unicode="ć" horiz-adv-x="544" d="M285-12q-65 0-112.5 19.5T94 62t-45.5 83.5T34 252q0 135 69 207.5T300 532q94 0 151.5-50.5T517 335l-135-20q-5 49-22.5 75T297 416q-21 0-40.5-6T223 387.5 200.5 342t-8.5-74 7-76 20.5-50 32.5-27.5 43-8.5q44 0 67 22.5t30 72.5l127-24q-7-49-27-84.5t-51-59T370.5-1 285-12zm36 584l-101 9 75 162h161z"/><glyph glyph-name="Ccircumflex" unicode="Ĉ" horiz-adv-x="695" d="M372-12q-90 0-153.5 25.5T115 87 56.5 202.5 38 354q0 86 22.5 156.5t67 121 109.5 78T387 737q61 0 112-15t88.5-46.5 59.5-81T672 477l-141-12q-7 78-41.5 111.5T385 610q-89 0-138.5-59.5T197 362q0-67 11.5-114t34-76.5 55.5-43 76-13.5q39 0 66 9.5t45 27 29 41 17 52.5l139-24q-9-65-38-109.5t-70.5-72-91-39.5T372-12zm16 853l-75-73-102 7 107 142h140l102-142-100-6z"/><glyph glyph-name="ccircumflex" unicode="ĉ" horiz-adv-x="544" d="M285-12q-65 0-112.5 19.5T94 62t-45.5 83.5T34 252q0 135 69 207.5T300 532q94 0 151.5-50.5T517 335l-135-20q-5 49-22.5 75T297 416q-21 0-40.5-6T223 387.5 200.5 342t-8.5-74 7-76 20.5-50 32.5-27.5 43-8.5q44 0 67 22.5t30 72.5l127-24q-7-49-27-84.5t-51-59T370.5-1 285-12zm88 588l-73 94-76-95-101 6 105 164h144l101-164z"/><glyph glyph-name="Cdotaccent" unicode="Ċ" horiz-adv-x="695" d="M372-12q-90 0-153.5 25.5T115 87 56.5 202.5 38 354q0 86 22.5 156.5t67 121 109.5 78T387 737q61 0 112-15t88.5-46.5 59.5-81T672 477l-141-12q-7 78-41.5 111.5T385 610q-89 0-138.5-59.5T197 362q0-67 11.5-114t34-76.5 55.5-43 76-13.5q39 0 66 9.5t45 27 29 41 17 52.5l139-24q-9-65-38-109.5t-70.5-72-91-39.5T372-12zm104 880q0-45-23.5-69T385 775q-43 0-66.5 24T295 868q0 44 23.5 67t66.5 23q44 0 67.5-23t23.5-67z"/><glyph glyph-name="cdotaccent" unicode="ċ" horiz-adv-x="544" d="M285-12q-65 0-112.5 19.5T94 62t-45.5 83.5T34 252q0 135 69 207.5T300 532q94 0 151.5-50.5T517 335l-135-20q-5 49-22.5 75T297 416q-21 0-40.5-6T223 387.5 200.5 342t-8.5-74 7-76 20.5-50 32.5-27.5 43-8.5q44 0 67 22.5t30 72.5l127-24q-7-49-27-84.5t-51-59T370.5-1 285-12zm105 693q0-44-23.5-68T299 589q-43 0-66.5 24T209 681t23.5 67.5T299 772q44 0 67.5-23.5T390 681z"/><glyph glyph-name="Ccaron" unicode="Č" horiz-adv-x="695" d="M372-12q-90 0-153.5 25.5T115 87 56.5 202.5 38 354q0 86 22.5 156.5t67 121 109.5 78T387 737q61 0 112-15t88.5-46.5 59.5-81T672 477l-141-12q-7 78-41.5 111.5T385 610q-89 0-138.5-59.5T197 362q0-67 11.5-114t34-76.5 55.5-43 76-13.5q39 0 66 9.5t45 27 29 41 17 52.5l139-24q-9-65-38-109.5t-70.5-72-91-39.5T372-12zm13 858l75 73 102-7-107-142H315L213 912l100 6z"/><glyph glyph-name="ccaron" unicode="č" horiz-adv-x="544" d="M285-12q-65 0-112.5 19.5T94 62t-45.5 83.5T34 252q0 135 69 207.5T300 532q94 0 151.5-50.5T517 335l-135-20q-5 49-22.5 75T297 416q-21 0-40.5-6T223 387.5 200.5 342t-8.5-74 7-76 20.5-50 32.5-27.5 43-8.5q44 0 67 22.5t30 72.5l127-24q-7-49-27-84.5t-51-59T370.5-1 285-12zm-58 753l73-93 76 94 99-6-105-164H226L125 736z"/><glyph glyph-name="Dcaron" unicode="Ď" horiz-adv-x="724" d="M74 0v724h254q94 0 162-24.5t111.5-70T666 519t21-146q0-83-22.5-152T596 103 479 27 311 0H74zm230 124q63 0 106 16.5t69.5 47.5 38 76T529 365q0 67-13 112.5T476 550t-67 38.5-94 11.5h-87V124h76zm26 722l75 73 102-7-107-142H260L158 912l100 6z"/><glyph glyph-name="dcaron" unicode="ď" horiz-adv-x="719" d="M534 0H408l-9 51-3 1q-27-30-64.5-47T242-12q-46 0-83.5 14.5T94 48.5 52 130 37 250q0 78 19 132t50.5 87.5 70.5 48 80 14.5q44 0 75.5-10.5T389 488v267h145V0zM384 383q-15 11-36.5 20t-47.5 9q-29 0-48.5-12T219 367t-18.5-49.5T195 255q0-70 23-109t77-39q24 0 47.5 10t41.5 27v239zm224 372h138l-66-202-105 9z"/><glyph glyph-name="Dcroat" unicode="Đ" horiz-adv-x="724" d="M74 0v305H7v129h67v290h254q94 0 162-24.5t111.5-70T666 519t21-146q0-83-22.5-152T596 103 479 27 311 0H74zm230 124q63 0 106 16.5t69.5 47.5 38 76T529 365q0 67-13 112.5T476 550t-67 38.5-94 11.5h-87V434h171V305H228V124h76z"/><glyph glyph-name="dcroat" unicode="đ" horiz-adv-x="591" d="M214 677h175v78h145v-78h64V576h-64V0H408l-9 51-3 1q-27-30-64.5-47T242-12q-46 0-83.5 14.5T94 48.5 52 129 37 247q0 77 19 130t50.5 85.5 70.5 47 80 14.5q44 0 75-10.5t57-33.5v96H214v101zm170-302q-15 11-36.5 20t-47.5 9q-29 0-48.5-11.5t-32.5-32-18.5-48T195 252q0-68 23-106.5t77-38.5q24 0 47.5 10t41.5 27v231z"/><glyph glyph-name="Emacron" unicode="Ē" horiz-adv-x="583" d="M228 130h323V0H74v724h459V595H228V425h287V299H228V130zm-80 654v103h317V784H148z"/><glyph glyph-name="emacron" unicode="ē" horiz-adv-x="547" d="M289-12q-72 0-121 22.5t-79 60T46.5 157 34 259q0 70 20 121.5t55 85.5 81 50 99 16q59 0 101.5-17.5t69.5-49 40-76 13-98.5q0-13-.5-33.5T510 223H193q2-65 28.5-91.5T298 105q41 0 59 20.5t26 53.5l127-31q-14-73-70.5-116.5T289-12zm68 331q0 57-19.5 80.5T281 423q-16 0-31.5-5.5t-27.5-18-19.5-32.5-7.5-48h162zM129 601v102h311V601H129z"/><glyph glyph-name="Ebreve" unicode="Ĕ" horiz-adv-x="583" d="M228 130h323V0H74v724h459V595H228V425h287V299H228V130zm84 731q32 0 50 14.5t26 52.5l96-6q-8-81-55.5-117T307 769q-72 0-116.5 35.5T141 920l100 10q6-38 22.5-53.5T312 861z"/><glyph glyph-name="ebreve" unicode="ĕ" horiz-adv-x="547" d="M289-12q-72 0-121 22.5t-79 60T46.5 157 34 259q0 70 20 121.5t55 85.5 81 50 99 16q59 0 101.5-17.5t69.5-49 40-76 13-98.5q0-13-.5-33.5T510 223H193q2-65 28.5-91.5T298 105q41 0 59 20.5t26 53.5l127-31q-14-73-70.5-116.5T289-12zm68 331q0 57-19.5 80.5T281 423q-16 0-31.5-5.5t-27.5-18-19.5-32.5-7.5-48h162zm104 411q-6-85-54-123t-124-38q-74 0-119 37.5T116 727l100 11q5-42 22-59.5t50-17.5q34 0 52.5 16t24.5 60z"/><glyph glyph-name="Edotaccent" unicode="Ė" horiz-adv-x="583" d="M228 130h323V0H74v724h459V595H228V425h287V299H228V130zm169 738q0-45-23.5-69T306 775q-43 0-66.5 24T216 868q0 44 23.5 67t66.5 23q44 0 67.5-23t23.5-67z"/><glyph glyph-name="edotaccent" unicode="ė" horiz-adv-x="547" d="M289-12q-72 0-121 22.5t-79 60T46.5 157 34 259q0 70 20 121.5t55 85.5 81 50 99 16q59 0 101.5-17.5t69.5-49 40-76 13-98.5q0-13-.5-33.5T510 223H193q2-65 28.5-91.5T298 105q41 0 59 20.5t26 53.5l127-31q-14-73-70.5-116.5T289-12zm68 331q0 57-19.5 80.5T281 423q-16 0-31.5-5.5t-27.5-18-19.5-32.5-7.5-48h162zm19 362q0-44-23.5-68T285 589q-43 0-66.5 24T195 681t23.5 67.5T285 772q44 0 67.5-23.5T376 681z"/><glyph glyph-name="Eogonek" unicode="Ę" horiz-adv-x="583" d="M567-139q-17-49-54.5-75T427-240q-57 0-86.5 25.5T311-142q0 45 27 80t65 62H74v724h459V595H228V425h287V299H228V130h323V0h-50q-35-34-56.5-61T423-117q0-33 31-33 14 0 26 9.5t22 31.5z"/><glyph glyph-name="eogonek" unicode="ę" horiz-adv-x="547" d="M462-139q-17-49-54.5-75T322-240q-57 0-86.5 25.5T206-142q0 40 22.5 72T283-12q-71 1-118.5 24T88 72.5 46.5 158 34 259q0 70 20 121.5t55 85.5 81 50 99 16q59 0 101.5-17.5t69.5-49 40-76 13-98.5q0-13-.5-33.5T510 223H193q2-65 28.5-91.5T298 105q41 0 59 20.5t26 53.5l127-31q-9-47-34-79t-63-58q-44-31-69.5-64.5T318-117q0-33 31-33 14 0 26 9.5t22 31.5zM357 319q0 57-19.5 80.5T281 423q-16 0-31.5-5.5t-27.5-18-19.5-32.5-7.5-48h162z"/><glyph glyph-name="Ecaron" unicode="Ě" horiz-adv-x="583" d="M228 130h323V0H74v724h459V595H228V425h287V299H228V130zm78 716l75 73 102-7-107-142H236L134 912l100 6z"/><glyph glyph-name="ecaron" unicode="ě" horiz-adv-x="547" d="M289-12q-72 0-121 22.5t-79 60T46.5 157 34 259q0 70 20 121.5t55 85.5 81 50 99 16q59 0 101.5-17.5t69.5-49 40-76 13-98.5q0-13-.5-33.5T510 223H193q2-65 28.5-91.5T298 105q41 0 59 20.5t26 53.5l127-31q-14-73-70.5-116.5T289-12zm68 331q0 57-19.5 80.5T281 423q-16 0-31.5-5.5t-27.5-18-19.5-32.5-7.5-48h162zM213 741l73-93 76 94 99-6-105-164H212L111 736z"/><glyph glyph-name="Gcircumflex" unicode="Ĝ" horiz-adv-x="739" d="M552 89q-12-24-33-43t-48.5-32-60-19.5T345-12q-82 0-140 27t-95 75-54.5 114.5T38 350q0 88 22.5 159.5t66.5 122 109.5 78T389 737q59 0 109.5-14t88-44.5T647 600t28-116l-144-14q-3 29-11.5 54.5t-25 44.5-43 30-65.5 11q-96 0-142-64.5T198 364q0-130 43.5-191T381 112q36 0 64 10t46.5 27 28 40 9.5 49v26H397v113h284V0H569zM388 841l-75-73-102 7 107 142h140l102-142-100-6z"/><glyph glyph-name="gcircumflex" unicode="ĝ" horiz-adv-x="560" d="M274 532q43 0 77.5-7.5T412 500q7 15 16 29t20.5 25 26.5 18 33 7q19 0 42-9v-99q-23 2-43.5.5T464 463q23-26 33-55.5t10-61.5q0-44-17-78.5T442.5 209 370 172t-92-13q-26 0-45.5 2.5T191 170q-7-7-13-14.5t-6-17.5q0-11 9-18t38-9l148-9q42-3 74.5-12t55-26.5 34-45T542-48q0-48-21-81.5t-57.5-55-86.5-31-107-9.5q-72 0-120 9t-77 24.5-41.5 38T19-104q0 37 25.5 61.5T113-10v4Q37 16 37 82q0 39 22 64.5t59 51.5q-35 20-55.5 55.5T42 339q0 42 15.5 77t45 61 72.5 40.5 99 14.5zm95-185q0 41-23.5 60T280 426q-41 0-68-18.5T185 347q0-39 22.5-59.5T278 267q41 0 66 21t25 59zm26-422q0 15-12 27t-52 14l-145 9q-14-11-22.5-23.5T155-75q0-15 10-25.5t27-16.5 40.5-8.5T282-128q51 0 82 10.5T395-75zm-42 651l-73 94-76-95-101 6 105 164h144l101-164z"/><glyph glyph-name="Gbreve" unicode="Ğ" horiz-adv-x="739" d="M552 89q-12-24-33-43t-48.5-32-60-19.5T345-12q-82 0-140 27t-95 75-54.5 114.5T38 350q0 88 22.5 159.5t66.5 122 109.5 78T389 737q59 0 109.5-14t88-44.5T647 600t28-116l-144-14q-3 29-11.5 54.5t-25 44.5-43 30-65.5 11q-96 0-142-64.5T198 364q0-130 43.5-191T381 112q36 0 64 10t46.5 27 28 40 9.5 49v26H397v113h284V0H569zM391 861q32 0 50 14.5t26 52.5l96-6q-8-81-55.5-117T386 769q-72 0-116.5 35.5T220 920l100 10q6-38 22.5-53.5T391 861z"/><glyph glyph-name="gbreve" unicode="ğ" horiz-adv-x="560" d="M274 532q43 0 77.5-7.5T412 500q7 15 16 29t20.5 25 26.5 18 33 7q19 0 42-9v-99q-23 2-43.5.5T464 463q23-26 33-55.5t10-61.5q0-44-17-78.5T442.5 209 370 172t-92-13q-26 0-45.5 2.5T191 170q-7-7-13-14.5t-6-17.5q0-11 9-18t38-9l148-9q42-3 74.5-12t55-26.5 34-45T542-48q0-48-21-81.5t-57.5-55-86.5-31-107-9.5q-72 0-120 9t-77 24.5-41.5 38T19-104q0 37 25.5 61.5T113-10v4Q37 16 37 82q0 39 22 64.5t59 51.5q-35 20-55.5 55.5T42 339q0 42 15.5 77t45 61 72.5 40.5 99 14.5zm95-185q0 41-23.5 60T280 426q-41 0-68-18.5T185 347q0-39 22.5-59.5T278 267q41 0 66 21t25 59zm26-422q0 15-12 27t-52 14l-145 9q-14-11-22.5-23.5T155-75q0-15 10-25.5t27-16.5 40.5-8.5T282-128q51 0 82 10.5T395-75zm60 805q-6-85-54-123t-124-38q-74 0-119 37.5T110 727l100 11q5-42 22-59.5t50-17.5q34 0 52.5 16t24.5 60z"/><glyph glyph-name="Gdotaccent" unicode="Ġ" horiz-adv-x="739" d="M552 89q-12-24-33-43t-48.5-32-60-19.5T345-12q-82 0-140 27t-95 75-54.5 114.5T38 350q0 88 22.5 159.5t66.5 122 109.5 78T389 737q59 0 109.5-14t88-44.5T647 600t28-116l-144-14q-3 29-11.5 54.5t-25 44.5-43 30-65.5 11q-96 0-142-64.5T198 364q0-130 43.5-191T381 112q36 0 64 10t46.5 27 28 40 9.5 49v26H397v113h284V0H569zm-76 779q0-45-23.5-69T385 775q-43 0-66.5 24T295 868q0 44 23.5 67t66.5 23q44 0 67.5-23t23.5-67z"/><glyph glyph-name="gdotaccent" unicode="ġ" horiz-adv-x="560" d="M274 532q43 0 77.5-7.5T412 500q7 15 16 29t20.5 25 26.5 18 33 7q19 0 42-9v-99q-23 2-43.5.5T464 463q23-26 33-55.5t10-61.5q0-44-17-78.5T442.5 209 370 172t-92-13q-26 0-45.5 2.5T191 170q-7-7-13-14.5t-6-17.5q0-11 9-18t38-9l148-9q42-3 74.5-12t55-26.5 34-45T542-48q0-48-21-81.5t-57.5-55-86.5-31-107-9.5q-72 0-120 9t-77 24.5-41.5 38T19-104q0 37 25.5 61.5T113-10v4Q37 16 37 82q0 39 22 64.5t59 51.5q-35 20-55.5 55.5T42 339q0 42 15.5 77t45 61 72.5 40.5 99 14.5zm95-185q0 41-23.5 60T280 426q-41 0-68-18.5T185 347q0-39 22.5-59.5T278 267q41 0 66 21t25 59zm26-422q0 15-12 27t-52 14l-145 9q-14-11-22.5-23.5T155-75q0-15 10-25.5t27-16.5 40.5-8.5T282-128q51 0 82 10.5T395-75zm-25 756q0-44-23.5-68T279 589q-43 0-66.5 24T189 681t23.5 67.5T279 772q44 0 67.5-23.5T370 681z"/><glyph glyph-name="Gcommaaccent" unicode="Ģ" horiz-adv-x="739" d="M552 89q-12-24-33-43t-48.5-32-60-19.5T345-12q-82 0-140 27t-95 75-54.5 114.5T38 350q0 88 22.5 159.5t66.5 122 109.5 78T389 737q59 0 109.5-14t88-44.5T647 600t28-116l-144-14q-3 29-11.5 54.5t-25 44.5-43 30-65.5 11q-96 0-142-64.5T198 364q0-130 43.5-191T381 112q36 0 64 10t46.5 27 28 40 9.5 49v26H397v113h284V0H569zM308-68h140l-83-206-103 15z"/><glyph glyph-name="gcommaaccent" unicode="ģ" horiz-adv-x="560" d="M274 532q43 0 77.5-7.5T412 500q7 15 16 29t20.5 25 26.5 18 33 7q19 0 42-9v-99q-23 2-43.5.5T464 463q23-26 33-55.5t10-61.5q0-44-17-78.5T442.5 209 370 172t-92-13q-26 0-45.5 2.5T191 170q-7-7-13-14.5t-6-17.5q0-11 9-18t38-9l148-9q42-3 74.5-12t55-26.5 34-45T542-48q0-48-21-81.5t-57.5-55-86.5-31-107-9.5q-72 0-120 9t-77 24.5-41.5 38T19-104q0 37 25.5 61.5T113-10v4Q37 16 37 82q0 39 22 64.5t59 51.5q-35 20-55.5 55.5T42 339q0 42 15.5 77t45 61 72.5 40.5 99 14.5zm95-185q0 41-23.5 60T280 426q-41 0-68-18.5T185 347q0-39 22.5-59.5T278 267q41 0 66 21t25 59zm26-422q0 15-12 27t-52 14l-145 9q-14-11-22.5-23.5T155-75q0-15 10-25.5t27-16.5 40.5-8.5T282-128q51 0 82 10.5T395-75zm-58 644H197l83 207 103-15z"/><glyph glyph-name="Hcircumflex" unicode="Ĥ" horiz-adv-x="733" d="M660 0H505v297H228V0H74v724h154V430h277v294h155V0zM369 841l-75-73-102 7 107 142h140l102-142-100-6z"/><glyph glyph-name="hcircumflex" unicode="ĥ" horiz-adv-x="583" d="M530 0H379v329q0 42-17 61t-52 19q-31 0-59-13.5T208 368V0H57v755h150V473q28 22 66.5 40.5T368 532q85 0 123.5-43T530 356V0zM135 863l-75-73-102 7L65 939h140l102-142-100-6z"/><glyph glyph-name="Hbar" unicode="Ħ" horiz-adv-x="733" d="M660 630h66V517h-66V0H505v297H228V0H74v517H7v113h67v94h154v-94h277v94h155v-94zM505 430v87H228v-87h277z"/><glyph glyph-name="hbar" unicode="ħ" horiz-adv-x="583" d="M-1 677h58v78h150v-78h175V576H207V466q28 22 66.5 40.5T368 525q85 0 123.5-43T530 349V0H379v322q0 42-17 61t-52 19q-31 0-59-13.5T208 361V0H57v576H-1v101z"/><glyph glyph-name="Itilde" unicode="Ĩ" horiz-adv-x="302" d="M228 0H74v724h154V0zM77 930q24 0 44-6.5t37.5-15 33.5-15 33-6.5 23.5 9.5T255 931l76-4q7-62-15.5-101.5T240 786q-26 0-47 7t-39 15-34 15-32 7-24-9.5-4-37.5l-82 3q-8 66 20 105t79 39z"/><glyph glyph-name="itilde" unicode="ĩ" horiz-adv-x="268" d="M211 0H60v521h151V0zM59 732q24 0 44-7t37.5-15 33.5-15 33-7 23.5 9.5T237 732l76-4q7-62-15.5-101.5T222 587q-26 0-47 7t-39 15-34 15-32 7-24-9.5-4-37.5l-82 3q-8 66 20 105.5T59 732z"/><glyph glyph-name="Imacron" unicode="Ī" horiz-adv-x="302" d="M228 0H74v724h154V0zM-7 784v103h317V784H-7z"/><glyph glyph-name="imacron" unicode="ī" horiz-adv-x="268" d="M211 0H60v521h151V0zM-20 601v102h311V601H-20z"/><glyph glyph-name="Ibreve" unicode="Ĭ" horiz-adv-x="302" d="M228 0H74v724h154V0zm-71 861q32 0 50 14.5t26 52.5l96-6q-8-81-55.5-117T152 769q-72 0-116.5 35.5T-14 920l100 10q6-38 22.5-53.5T157 861z"/><glyph glyph-name="ibreve" unicode="ĭ" horiz-adv-x="268" d="M211 0H60v521h151V0zm101 730q-6-85-54-123t-124-38q-74 0-119 37.5T-33 727l100 11q5-42 22-59.5t50-17.5q34 0 52.5 16t24.5 60z"/><glyph glyph-name="Iogonek" unicode="Į" horiz-adv-x="302" d="M271-139q-17-49-54.5-75T131-240q-57 0-86.5 25.5T15-142q0 22 8.5 42t23 37.5 32.5 33T116 0H74v724h154V0q-53-34-77-61t-24-56q0-33 31-33 14 0 26 9.5t22 31.5z"/><glyph glyph-name="iogonek" unicode="į" horiz-adv-x="268" d="M253-139q-17-49-54.5-75T113-240q-57 0-86.5 25.5T-3-142q0 45 29.5 79T104 0H60v521h151V0q-54-34-78-61t-24-56q0-33 31-33 14 0 26 9.5t22 31.5zm-26 820q0-44-24-68t-67-24q-44 0-67.5 24T45 681t23.5 67.5T136 772q43 0 67-23.5t24-67.5z"/><glyph glyph-name="Idotaccent" unicode="İ" horiz-adv-x="302" d="M228 0H74v724h154V0zm14 868q0-45-23.5-69T151 775q-43 0-66.5 24T61 868q0 44 23.5 67t66.5 23q44 0 67.5-23t23.5-67z"/><glyph glyph-name="dotlessi" unicode="ı" horiz-adv-x="268" d="M211 0H60v521h151V0z"/><glyph glyph-name="IJ" unicode="Ĳ" horiz-adv-x="832" d="M228 0H74v724h154V0zm382 724h155V203q0-108-57.5-161.5T537-12q-47 0-86.5 10T382 32t-46 63.5-19 97.5l148 22q2-23 5.5-41.5t11-31.5 21-20.5T539 114q35 0 53 18.5t18 66.5v525z"/><glyph glyph-name="Jcircumflex" unicode="Ĵ" horiz-adv-x="530" d="M308 724h155V203q0-108-57.5-161.5T235-12q-47 0-86.5 10T80 32 34 95.5 15 193l148 22q2-23 5.5-41.5t11-31.5 21-20.5T237 114q35 0 53 18.5t18 66.5v525zm78 117l-75-73-102 7 107 142h140l102-142-100-6z"/><glyph glyph-name="jcircumflex" unicode="ĵ" horiz-adv-x="266" d="M25-223q-41 0-75 9t-48 19l11 113q13-6 35.5-13t46.5-7q27 0 46 15.5T60-24v545h151V-41q0-49-13.5-83.5t-38-56.5-59-32T25-223zm185 799l-73 94-76-95-101 6L65 745h144l101-164z"/><glyph glyph-name="Kcommaaccent" unicode="Ķ" horiz-adv-x="673" d="M227 414l281 310h164L407 423 668 0H488L297 303l-70-76V0H74v724h153V414zm60-482h140l-83-206-103 15z"/><glyph glyph-name="kcommaaccent" unicode="ķ" horiz-adv-x="564" d="M210 339l172 182h167L376 334 562 0H395L260 238l-50-49V0H59v755h151V339zm20-407h140l-83-206-103 15z"/><glyph glyph-name="kgreenlandic" unicode="ĸ" horiz-adv-x="564" d="M210 339l172 182h167L376 334 562 0H395L260 238l-50-49V0H59v521h151V339z"/><glyph glyph-name="Lacute" unicode="Ĺ" horiz-adv-x="568" d="M228 130h310V0H74v724h154V130zm-59 638l-107 8 91 140h162z"/><glyph glyph-name="lacute" unicode="ĺ" horiz-adv-x="268" d="M211 0H60v755h151V0zm-62 789l-107 8 91 140h162z"/><glyph glyph-name="Lcommaaccent" unicode="Ļ" horiz-adv-x="568" d="M228 130h310V0H74v724h154V130zm22-198h140l-83-206-103 15z"/><glyph glyph-name="lcommaaccent" unicode="ļ" horiz-adv-x="268" d="M211 0H60v755h151V0zM78-68h140l-83-206-103 15z"/><glyph glyph-name="Lcaron" unicode="Ľ" horiz-adv-x="568" d="M228 130h310V0H74v724h154V130zm117 595h138l-66-202-105 9z"/><glyph glyph-name="lcaron" unicode="ľ" horiz-adv-x="396" d="M211 0H60v755h151V0zm74 755h138l-66-202-105 9z"/><glyph glyph-name="Ldot" unicode="Ŀ" horiz-adv-x="568" d="M228 130h310V0H74v724h154V130zm295 280q0-45-23.5-69T432 317q-43 0-66.5 24T342 410q0 44 23.5 67t66.5 23q44 0 67.5-23t23.5-67z"/><glyph glyph-name="ldot" unicode="ŀ" horiz-adv-x="398" d="M211 0H60v755h151V0zm209.466 408.12q0-43.04-22.98-66.515-22.982-23.475-66.01-23.475-42.05 0-65.03 23.475-22.981 23.476-22.981 66.515 0 43.038 22.98 66.024 22.982 22.987 65.032 22.987 43.027 0 66.009-22.987 22.98-22.986 22.98-66.024z"/><glyph glyph-name="Lslash" unicode="Ł" horiz-adv-x="568" d="M228 441l195 79V393l-195-79V130h310V0H74v252l-78-31v126l78 31v346h154V441z"/><glyph glyph-name="lslash" unicode="ł" horiz-adv-x="279" d="M214 508l65 32V407l-65-32V0H63v316L0 286v133l63 30v306h151V508z"/><glyph glyph-name="Nacute" unicode="Ń" horiz-adv-x="745" d="M494 0L215 511V0H74v724h184l274-513v513h140V0H494zm-78 768l-107 8 91 140h162z"/><glyph glyph-name="nacute" unicode="ń" horiz-adv-x="583" d="M530 0H379v330q0 42-17 61t-52 19q-31 0-59-13.5T208 369V0H57v521h134l8-52q29 26 70.5 44.5T365 532q87 0 126-43t39-133V0zM329 572l-101 9 75 162h161z"/><glyph glyph-name="Ncommaaccent" unicode="Ņ" horiz-adv-x="745" d="M494 0L215 511V0H74v724h184l274-513v513h140V0H494zM313-68h140l-83-206-103 15z"/><glyph glyph-name="ncommaaccent" unicode="ņ" horiz-adv-x="583" d="M530 0H379v330q0 42-17 61t-52 19q-31 0-59-13.5T208 369V0H57v521h134l8-52q29 26 70.5 44.5T365 532q87 0 126-43t39-133V0zM231-68h140l-83-206-103 15z"/><glyph glyph-name="Ncaron" unicode="Ň" horiz-adv-x="745" d="M494 0L215 511V0H74v724h184l274-513v513h140V0H494zM384 846l75 73 102-7-107-142H314L212 912l100 6z"/><glyph glyph-name="ncaron" unicode="ň" horiz-adv-x="583" d="M530 0H379v330q0 42-17 61t-52 19q-31 0-59-13.5T208 369V0H57v521h134l8-52q29 26 70.5 44.5T365 532q87 0 126-43t39-133V0zM234 741l73-93 76 94 99-6-105-164H233L132 736z"/><glyph glyph-name="napostrophe" unicode="ŉ" horiz-adv-x="640" d="M587 0H436v330q0 42-17 61t-52 19q-31 0-59-13.5T265 369V0H114v521h134l8-52q29 26 70.5 44.5T422 532q87 0 126-43t39-133V0zM31.947 686.083h129.516l-76.784-191-96.212 12.98z"/><glyph glyph-name="Eng" unicode="Ŋ" horiz-adv-x="745" d="M478-223q-44 0-81 9t-53 19l16 116q14-6 37.5-13t50.5-7q13 0 25.5 3T496-85t15.5 22.5T517-24V5L215 511V0H74v724h184l274-463v463h140V-41q0-49-15-83.5T616-181t-61.5-32-76.5-10z"/><glyph glyph-name="eng" unicode="ŋ" horiz-adv-x="583" d="M344-223q-41 0-75 9t-48 19l11 113q13-6 35.5-13t46.5-7q27 0 46 15.5T379-24v354q0 42-17 61t-52 19q-31 0-59-13.5T208 369V0H57v521h134l8-52q29 26 70.5 44.5T365 532q87 0 126-43t39-133V-41q0-49-13.5-83.5t-38-56.5-59-32-75.5-10z"/><glyph glyph-name="Omacron" unicode="Ō" horiz-adv-x="760" d="M375-12q-90 0-153.5 27.5T117 92.5 57 210 38 359t22 150 66.5 119.5T237 708t154 29 151-28.5 103-78 59-116T723 373q0-88-21.5-159T637 92.5 528.5 15 375-12zm6 130q40 0 74 13.5t58 42.5 37.5 76T564 364q0 126-46 184.5T388 607q-88 0-139.5-59.5T197 362q0-65 12.5-111t36.5-75.5 58-43.5 77-14zM231 784v103h317V784H231z"/><glyph glyph-name="omacron" unicode="ō" horiz-adv-x="587" d="M288-12q-71 0-119.5 20T90 64t-43 85.5T34 258q0 63 16.5 113.5t49.5 86 83.5 55T302 532t115.5-19.5T495 458t44-83 14-106q0-64-15-116t-47.5-88.5T408 8 288-12zm7 112q25 0 43.5 8.5t31.5 28 19.5 50.5 6.5 77q0 85-24 119.5T298 418q-51 0-78.5-35.5T192 262q0-87 23.5-124.5T295 100zM144 601v102h311V601H144z"/><glyph glyph-name="Obreve" unicode="Ŏ" horiz-adv-x="760" d="M375-12q-90 0-153.5 27.5T117 92.5 57 210 38 359t22 150 66.5 119.5T237 708t154 29 151-28.5 103-78 59-116T723 373q0-88-21.5-159T637 92.5 528.5 15 375-12zm6 130q40 0 74 13.5t58 42.5 37.5 76T564 364q0 126-46 184.5T388 607q-88 0-139.5-59.5T197 362q0-65 12.5-111t36.5-75.5 58-43.5 77-14zm14 743q32 0 50 14.5t26 52.5l96-6q-8-81-55.5-117T390 769q-72 0-116.5 35.5T224 920l100 10q6-38 22.5-53.5T395 861z"/><glyph glyph-name="obreve" unicode="ŏ" horiz-adv-x="587" d="M288-12q-71 0-119.5 20T90 64t-43 85.5T34 258q0 63 16.5 113.5t49.5 86 83.5 55T302 532t115.5-19.5T495 458t44-83 14-106q0-64-15-116t-47.5-88.5T408 8 288-12zm7 112q25 0 43.5 8.5t31.5 28 19.5 50.5 6.5 77q0 85-24 119.5T298 418q-51 0-78.5-35.5T192 262q0-87 23.5-124.5T295 100zm181 630q-6-85-54-123t-124-38q-74 0-119 37.5T131 727l100 11q5-42 22-59.5t50-17.5q34 0 52.5 16t24.5 60z"/><glyph glyph-name="Ohungarumlaut" unicode="Ő" horiz-adv-x="760" d="M375-12q-90 0-153.5 27.5T117 92.5 57 210 38 359t22 150 66.5 119.5T237 708t154 29 151-28.5 103-78 59-116T723 373q0-88-21.5-159T637 92.5 528.5 15 375-12zm6 130q40 0 74 13.5t58 42.5 37.5 76T564 364q0 126-46 184.5T388 607q-88 0-139.5-59.5T197 362q0-65 12.5-111t36.5-75.5 58-43.5 77-14zm-33 650l-97 12 50 135h154zm156 0l-101 8 92 144h162z"/><glyph glyph-name="ohungarumlaut" unicode="ő" horiz-adv-x="587" d="M288-12q-71 0-119.5 20T90 64t-43 85.5T34 258q0 63 16.5 113.5t49.5 86 83.5 55T302 532t115.5-19.5T495 458t44-83 14-106q0-64-15-116t-47.5-88.5T408 8 288-12zm7 112q25 0 43.5 8.5t31.5 28 19.5 50.5 6.5 77q0 85-24 119.5T298 418q-51 0-78.5-35.5T192 262q0-87 23.5-124.5T295 100zm-29 472l-96 12 44 159h154zm157 0l-101 9 85 166h162z"/><glyph glyph-name="OE" unicode="Œ" horiz-adv-x="1073" d="M579 0v67q-35-37-89-58T375-12q-90 0-153.5 27.5T117 92.5 57 210 38 359t22.5 150T127 628.5 235.5 708 384 737q68 0 114-20t81-57v64h443V595H717V425h287V299H717V129h324V0H579zM381 117q40 0 73 13t57.5 41.5 38 74T564 355q1 131-45 191.5T388 607q-88 0-139.5-59.5T197 362q0-65 12.5-111.5t36.5-76 58-43.5 77-14z"/><glyph glyph-name="oe" unicode="œ" horiz-adv-x="899" d="M643-12q-36 0-63.5 7.5t-48.5 20T494.5 44 468 78q-27-40-73-65T280-12q-66 0-112.5 20T91 64t-43.5 85.5T34 258q0 63 17 113.5t50 86 81 55T292 532q68 0 110.5-23t71.5-64q27 39 72 63t103 24q55 0 95.5-17.5t67.5-49 40-75.5 13-98q0-13-.5-34t-2.5-35H545q2-65 28.5-91.5T650 105q41 0 60 21.5t25 52.5l127-31q-14-73-71-116.5T643-12zM295 100q50 0 75.5 37T396 263q0 86-24 120.5T298 418q-51 0-78.5-35.5T192 262q0-87 23.5-124.5T295 100zm414 219q1 57-19 80.5T633 423q-16 0-31.5-5.5T574 400t-19.5-32-7.5-49h162z"/><glyph glyph-name="Racute" unicode="Ŕ" horiz-adv-x="642" d="M635 0H469L326 275h-99V0H74v724h282q67 0 113-17t74.5-45 40.5-65 12-77q0-81-34.5-131T471 313zM306 396q27 0 51 5.5t41.5 18 28 33.5 10.5 52q0 52-31.5 73.5T312 600h-85V396h79zm16 372l-107 8 91 140h162z"/><glyph glyph-name="racute" unicode="ŕ" horiz-adv-x="393" d="M387 384q-51 5-98.5-8T208 337V0H57v521h129l11-82q26 38 65 65.5t99 27.5q6 0 12.5-.5t13.5-.5V384zM242 572l-101 9 75 162h161z"/><glyph glyph-name="Rcommaaccent" unicode="Ŗ" horiz-adv-x="642" d="M635 0H469L326 275h-99V0H74v724h282q67 0 113-17t74.5-45 40.5-65 12-77q0-81-34.5-131T471 313zM306 396q27 0 51 5.5t41.5 18 28 33.5 10.5 52q0 52-31.5 73.5T312 600h-85V396h79zM274-68h140l-83-206-103 15z"/><glyph glyph-name="rcommaaccent" unicode="ŗ" horiz-adv-x="393" d="M387 384q-51 5-98.5-8T208 337V0H57v521h129l11-82q26 38 65 65.5t99 27.5q6 0 12.5-.5t13.5-.5V384zM74-68h140l-83-206-103 15z"/><glyph glyph-name="Rcaron" unicode="Ř" horiz-adv-x="642" d="M635 0H469L326 275h-99V0H74v724h282q67 0 113-17t74.5-45 40.5-65 12-77q0-81-34.5-131T471 313zM306 396q27 0 51 5.5t41.5 18 28 33.5 10.5 52q0 52-31.5 73.5T312 600h-85V396h79zm-4 450l75 73 102-7-107-142H232L130 912l100 6z"/><glyph glyph-name="rcaron" unicode="ř" horiz-adv-x="393" d="M387 384q-51 5-98.5-8T208 337V0H57v521h129l11-82q26 38 65 65.5t99 27.5q6 0 12.5-.5t13.5-.5V384zM148 741l73-93 76 94 99-6-105-164H147L46 736z"/><glyph glyph-name="Sacute" unicode="Ś" horiz-adv-x="596" d="M300 618q-56 0-82-21t-26-56q0-28 16-46t42.5-30.5 60.5-22 69-20.5 69-25.5 60.5-38T552 301t16-84q0-62-23-105t-61.5-71T395 .5 291-12q-49 0-97 9.5t-87 35-65 70T11 218l140 21q4-26 12.5-49.5t24.5-41 41.5-28T295 110q24 0 45.5 4.5t38 15T405 157t10 42q0 28-16 45.5T356.5 274 296 294.5 226.5 313 157 337t-60.5 37.5T54 433t-16 86q0 53 20.5 93.5T115 681t84 42 103 14q48 0 93-9t80-32.5 58-65T560 525l-141-16q-2 25-9 45.5T389 589t-35.5 21.5T300 618zm20 150l-107 8 91 140h162z"/><glyph glyph-name="sacute" unicode="ś" horiz-adv-x="501" d="M257 532q89 0 139-36t69-102l-124-39q-10 33-29 52t-61 19q-66 0-66-46 0-14 8-23.5t22-15.5 33.5-10 42.5-8q34-6 67-14.5t58.5-25 41.5-45 16-74.5q0-45-18-78t-48.5-54.5T335-1t-90-11Q144-12 90.5 27T23 131l123 40q4-15 11-29t19-25.5 29.5-18T250 92q75 0 75 49 0 29-25.5 38.5T228 197q-34 6-67.5 15T100 238.5 56.5 285 40 362q0 43 17.5 75t47.5 53 69 31.5 83 10.5zm17 40l-101 9 75 162h161z"/><glyph glyph-name="Scircumflex" unicode="Ŝ" horiz-adv-x="596" d="M300 618q-56 0-82-21t-26-56q0-28 16-46t42.5-30.5 60.5-22 69-20.5 69-25.5 60.5-38T552 301t16-84q0-62-23-105t-61.5-71T395 .5 291-12q-49 0-97 9.5t-87 35-65 70T11 218l140 21q4-26 12.5-49.5t24.5-41 41.5-28T295 110q24 0 45.5 4.5t38 15T405 157t10 42q0 28-16 45.5T356.5 274 296 294.5 226.5 313 157 337t-60.5 37.5T54 433t-16 86q0 53 20.5 93.5T115 681t84 42 103 14q48 0 93-9t80-32.5 58-65T560 525l-141-16q-2 25-9 45.5T389 589t-35.5 21.5T300 618zm3 223l-75-73-102 7 107 142h140l102-142-100-6z"/><glyph glyph-name="scircumflex" unicode="ŝ" horiz-adv-x="501" d="M257 532q89 0 139-36t69-102l-124-39q-10 33-29 52t-61 19q-66 0-66-46 0-14 8-23.5t22-15.5 33.5-10 42.5-8q34-6 67-14.5t58.5-25 41.5-45 16-74.5q0-45-18-78t-48.5-54.5T335-1t-90-11Q144-12 90.5 27T23 131l123 40q4-15 11-29t19-25.5 29.5-18T250 92q75 0 75 49 0 29-25.5 38.5T228 197q-34 6-67.5 15T100 238.5 56.5 285 40 362q0 43 17.5 75t47.5 53 69 31.5 83 10.5zm69 44l-73 94-76-95-101 6 105 164h144l101-164z"/><glyph glyph-name="Scedilla" unicode="Ş" horiz-adv-x="596" d="M211-162q12-3 23.5-5t24.5-2q23 0 36.5 8.5T309-132q0 23-17 29.5T245-95l11 85q-45 3-87 14.5t-75.5 38-56 69T11 218l140 21q4-26 12.5-49.5t24.5-41 41.5-28T295 110q24 0 45.5 4.5t38 15T405 157t10 42q0 28-16 45.5T356.5 274 296 294.5 226.5 313 157 337t-60.5 37.5T54 433t-16 86q0 53 20.5 93.5T115 681t84 42 103 14q48 0 93-9t80-32.5 58-65T560 525l-141-16q-2 25-9 45.5T389 589t-35.5 21.5T300 618q-56 0-82-21t-26-56q0-28 16-46t42.5-30.5 60.5-22 69-20.5 69-25.5 60.5-38T552 301t16-84q0-56-19.5-97T496 51 419.5 8.5 328-10l-4-35q16-3 31.5-9T383-71t19-27 7-39q0-55-37.5-82T278-246q-46 0-82 14z"/><glyph glyph-name="scedilla" unicode="ş" horiz-adv-x="501" d="M164-162q12-3 23.5-5t24.5-2q23 0 36.5 8.5T262-132q0 23-17 29.5T198-95l11 85Q125-3 80 34.5T23 131l123 40q4-15 11-29t19-25.5 29.5-18T250 92q75 0 75 49 0 29-25.5 38.5T228 197q-34 6-67.5 15T100 238.5 56.5 285 40 362q0 43 17.5 75t47.5 53 69 31.5 83 10.5q89 0 139-36t69-102l-124-39q-10 33-29 52t-61 19q-66 0-66-46 0-14 8-23.5t22-15.5 33.5-10 42.5-8q34-6 67-14.5t58.5-25 41.5-45 16-74.5q0-41-14.5-71.5t-40.5-52-61.5-34T281-10l-4-35q16-3 31.5-9T336-71t19-27 7-39q0-55-37.5-82T231-246q-46 0-82 14z"/><glyph glyph-name="Scaron" unicode="Š" horiz-adv-x="596" d="M300 618q-56 0-82-21t-26-56q0-28 16-46t42.5-30.5 60.5-22 69-20.5 69-25.5 60.5-38T552 301t16-84q0-62-23-105t-61.5-71T395 .5 291-12q-49 0-97 9.5t-87 35-65 70T11 218l140 21q4-26 12.5-49.5t24.5-41 41.5-28T295 110q24 0 45.5 4.5t38 15T405 157t10 42q0 28-16 45.5T356.5 274 296 294.5 226.5 313 157 337t-60.5 37.5T54 433t-16 86q0 53 20.5 93.5T115 681t84 42 103 14q48 0 93-9t80-32.5 58-65T560 525l-141-16q-2 25-9 45.5T389 589t-35.5 21.5T300 618zm0 228l75 73 102-7-107-142H230L128 912l100 6z"/><glyph glyph-name="scaron" unicode="š" horiz-adv-x="501" d="M257 532q89 0 139-36t69-102l-124-39q-10 33-29 52t-61 19q-66 0-66-46 0-14 8-23.5t22-15.5 33.5-10 42.5-8q34-6 67-14.5t58.5-25 41.5-45 16-74.5q0-45-18-78t-48.5-54.5T335-1t-90-11Q144-12 90.5 27T23 131l123 40q4-15 11-29t19-25.5 29.5-18T250 92q75 0 75 49 0 29-25.5 38.5T228 197q-34 6-67.5 15T100 238.5 56.5 285 40 362q0 43 17.5 75t47.5 53 69 31.5 83 10.5zm-77 209l73-93 76 94 99-6-105-164H179L78 736z"/><glyph glyph-name="uni0162" unicode="Ţ" horiz-adv-x="595" d="M215-162q12-3 23.5-5t24.5-2q23 0 36.5 8.5T313-132q0 23-17 29.5T249-95l12 95h-40v594H8v130h579V594H376V0h-42l-6-45q16-3 31.5-9T387-71t19-27 7-39q0-55-37.5-82T282-246q-46 0-82 14z"/><glyph glyph-name="uni0163" unicode="ţ" horiz-adv-x="412" d="M153-162q12-3 23.5-5t24.5-2q23 0 36.5 8.5T251-132q0 23-17 29.5T187-95l11 88q-57 11-85 50.5T85 157v254H7v110h78v154l151 20V521h138V411H236V178q0-35 12.5-52.5T297 108q23 0 47 7.5t39 16.5l21-107q-18-12-54-23t-80-13l-4-34q16-3 31.5-9T325-71t19-27 7-39q0-55-37.5-82T220-246q-46 0-82 14z"/><glyph glyph-name="Tcaron" unicode="Ť" horiz-adv-x="595" d="M221 0v594H8v130h579V594H376V0H221zm75 846l75 73 102-7-107-142H226L124 912l100 6z"/><glyph glyph-name="tcaron" unicode="ť" horiz-adv-x="412" d="M404 25q-20-13-61.5-25T251-12q-82 0-124 39.5T85 157v254H7v110h78v154l151 20V521h138V411H236V178q0-35 12.5-52.5T297 108q23 0 47 7.5t39 16.5zm-93 749h138l-66-202-105 9z"/><glyph glyph-name="Tbar" unicode="Ŧ" horiz-adv-x="595" d="M221 0v295H79v124h142v175H8v130h579V594H376V419h140V295H376V0H221z"/><glyph glyph-name="tbar" unicode="ŧ" horiz-adv-x="412" d="M404 25q-20-13-61.5-25T251-12q-82 0-124 39.5T85 157v69H7v106h78v79H7v110h78v154l151 20V521h138V411H236v-79h138V226H236v-48q0-35 12.5-52.5T297 108q23 0 47 7.5t39 16.5z"/><glyph glyph-name="Utilde" unicode="Ũ" horiz-adv-x="708" d="M356 117q38 0 63.5 9.5T460 156t21.5 51.5T488 283v441h154V261q0-72-20-123.5t-58-85-92-49T350-12q-150 0-217.5 67.5T65 265v459h155V286q0-42 6-74t21.5-53 42-31.5T356 117zm-78 813q24 0 44-6.5t37.5-15 33.5-15 33-6.5 23.5 9.5T456 931l76-4q7-62-15.5-101.5T441 786q-26 0-47 7t-39 15-34 15-32 7-24-9.5-4-37.5l-82 3q-8 66 20 105t79 39z"/><glyph glyph-name="utilde" unicode="ũ" horiz-adv-x="578" d="M55 521h151V192q0-42 15-61.5t51-19.5q29 0 56.5 13.5T371 152v369h151V0H392l-11 56q-28-32-70-49.5T215-11Q55-11 55 162v359zm156 211q24 0 44-7t37.5-15 33.5-15 33-7 23.5 9.5T389 732l76-4q7-62-15.5-101.5T374 587q-26 0-47 7t-39 15-34 15-32 7-24-9.5-4-37.5l-82 3q-8 66 20 105.5t79 39.5z"/><glyph glyph-name="Umacron" unicode="Ū" horiz-adv-x="708" d="M356 117q38 0 63.5 9.5T460 156t21.5 51.5T488 283v441h154V261q0-72-20-123.5t-58-85-92-49T350-12q-150 0-217.5 67.5T65 265v459h155V286q0-42 6-74t21.5-53 42-31.5T356 117zM194 784v103h317V784H194z"/><glyph glyph-name="umacron" unicode="ū" horiz-adv-x="578" d="M55 521h151V192q0-42 15-61.5t51-19.5q29 0 56.5 13.5T371 152v369h151V0H392l-11 56q-28-32-70-49.5T215-11Q55-11 55 162v359zm76 80v102h311V601H131z"/><glyph glyph-name="Ubreve" unicode="Ŭ" horiz-adv-x="708" d="M356 117q38 0 63.5 9.5T460 156t21.5 51.5T488 283v441h154V261q0-72-20-123.5t-58-85-92-49T350-12q-150 0-217.5 67.5T65 265v459h155V286q0-42 6-74t21.5-53 42-31.5T356 117zm2 744q32 0 50 14.5t26 52.5l96-6q-8-81-55.5-117T353 769q-72 0-116.5 35.5T187 920l100 10q6-38 22.5-53.5T358 861z"/><glyph glyph-name="ubreve" unicode="ŭ" horiz-adv-x="578" d="M55 521h151V192q0-42 15-61.5t51-19.5q29 0 56.5 13.5T371 152v369h151V0H392l-11 56q-28-32-70-49.5T215-11Q55-11 55 162v359zm407 209q-6-85-54-123t-124-38q-74 0-119 37.5T117 727l100 11q5-42 22-59.5t50-17.5q34 0 52.5 16t24.5 60z"/><glyph glyph-name="Uring" unicode="Ů" horiz-adv-x="708" d="M356 117q38 0 63.5 9.5T460 156t21.5 51.5T488 283v441h154V261q0-72-20-123.5t-58-85-92-49T350-12q-150 0-217.5 67.5T65 265v459h155V286q0-42 6-74t21.5-53 42-31.5T356 117zm113 718q0-53-32.5-80.5T353 727t-83 26.5-32 77.5q0 28 9 48.5t25 34.5 37 21 44 7q48 0 82-26.5t34-80.5zm-116-47q22 0 34.5 12t12.5 37q0 23-12.5 34.5T353 883q-21 0-35-11.5T304 836t13-36 36-12z"/><glyph glyph-name="uring" unicode="ů" horiz-adv-x="578" d="M55 521h151V192q0-42 15-61.5t51-19.5q29 0 56.5 13.5T371 152v369h151V0H392l-11 56q-28-32-70-49.5T215-11Q55-11 55 162v359zm346 154q0-51-31-78t-82-27q-50 0-81 26t-31 75q0 54 33.5 81.5T288 780q47 0 80-26.5t33-78.5zm-113-45q20 0 32 11t12 34q0 21-12 31.5T288 717q-19 0-32-11t-13-32q0-23 12.5-33.5T288 630z"/><glyph glyph-name="Uhungarumlaut" unicode="Ű" horiz-adv-x="708" d="M356 117q38 0 63.5 9.5T460 156t21.5 51.5T488 283v441h154V261q0-72-20-123.5t-58-85-92-49T350-12q-150 0-217.5 67.5T65 265v459h155V286q0-42 6-74t21.5-53 42-31.5T356 117zm-45 651l-97 12 50 135h154zm156 0l-101 8 92 144h162z"/><glyph glyph-name="uhungarumlaut" unicode="ű" horiz-adv-x="578" d="M55 521h151V192q0-42 15-61.5t51-19.5q29 0 56.5 13.5T371 152v369h151V0H392l-11 56q-28-32-70-49.5T215-11Q55-11 55 162v359zm199 51l-96 12 44 159h154zm157 0l-101 9 85 166h162z"/><glyph glyph-name="Uogonek" unicode="Ų" horiz-adv-x="708" d="M556-139q-17-49-54.5-75T416-240q-57 0-86.5 25.5T300-142q0 40 22.5 72.5T377-11q-7-1-13.5-1H350q-150 0-217.5 67.5T65 265v459h155V286q0-42 6-74t21.5-53 42-31.5T356 117q38 0 63.5 9.5T460 156t21.5 51.5T488 283v441h154V261q0-49-9-86.5t-25.5-67-40-53T514 12q-45-29-73.5-64T412-117q0-33 31-33 14 0 26 9.5t22 31.5z"/><glyph glyph-name="uogonek" unicode="ų" horiz-adv-x="578" d="M568-139q-17-49-54.5-75T428-240q-57 0-86.5 25.5T312-142q0 45 24 79t56 63l-11 56q-28-32-70-49.5T215-11Q55-11 55 162v359h151V192q0-42 15-61.5t51-19.5q29 0 56.5 13.5T371 152v369h151V0q-20-10-38-24t-31.5-29.5-21-32T424-117q0-33 31-33 14 0 26 9.5t22 31.5z"/><glyph glyph-name="Wcircumflex" unicode="Ŵ" horiz-adv-x="964" d="M604 0L487 499h-4L367 0H164L8 724h161l102-558h4l129 558h165l133-561h5l94 561h155L801 0H604zM485 841l-75-73-102 7 107 142h140l102-142-100-6z"/><glyph glyph-name="wcircumflex" unicode="ŵ" horiz-adv-x="813" d="M150 0L-4 521h151l95-366h2l92 366h148l92-364h3l91 364h147L662 0H492l-84 340h-2L329 0H150zm334 576l-73 94-76-95-101 6 105 164h144l101-164z"/><glyph glyph-name="Ycircumflex" unicode="Ŷ" horiz-adv-x="606" d="M388 0H233v271L-18 724h169l159-310h5l153 310h156L388 273V0zm-78 841l-75-73-102 7 107 142h140l102-142-100-6z"/><glyph glyph-name="ycircumflex" unicode="ŷ" horiz-adv-x="526" d="M-4 521h163l109-363h3l105 363h155q-52-146-105.5-293.5T324-51q-17-46-34.5-78.5t-40-53.5-52-30.5T128-223q-31 0-64 7t-50 15L25-92q21-7 41.5-11.5T104-108q26 0 44 13t30 43l16 41zm341 55l-73 94-76-95-101 6 105 164h144l101-164z"/><glyph glyph-name="Ydieresis" unicode="Ÿ" horiz-adv-x="606" d="M388 0H233v271L-18 724h169l159-310h5l153 310h156L388 273V0zM279 858q0-38-24.5-60.5T191 775q-41 0-66 22.5T100 858t25 61 66 23q39 0 63.5-23t24.5-61zm235 0q0-38-24-60.5T426 775q-41 0-65.5 22.5T336 858t24.5 61 65.5 23q40 0 64-23t24-61z"/><glyph glyph-name="Zacute" unicode="Ź" horiz-adv-x="592" d="M212 130h351V0H27v113l343 482H36v129h513V609zm89 638l-107 8 91 140h162z"/><glyph glyph-name="zacute" unicode="ź" horiz-adv-x="466" d="M199 121h246V0H27v107l240 301H29v113h402V414zm55 451l-101 9 75 162h161z"/><glyph glyph-name="Zdotaccent" unicode="Ż" horiz-adv-x="592" d="M212 130h351V0H27v113l343 482H36v129h513V609zm160 738q0-45-23.5-69T281 775q-43 0-66.5 24T191 868q0 44 23.5 67t66.5 23q44 0 67.5-23t23.5-67z"/><glyph glyph-name="zdotaccent" unicode="ż" horiz-adv-x="466" d="M199 121h246V0H27v107l240 301H29v113h402V414zm124 560q0-44-23.5-68T232 589q-43 0-66.5 24T142 681t23.5 67.5T232 772q44 0 67.5-23.5T323 681z"/><glyph glyph-name="Zcaron" unicode="Ž" horiz-adv-x="592" d="M212 130h351V0H27v113l343 482H36v129h513V609zm69 716l75 73 102-7-107-142H211L109 912l100 6z"/><glyph glyph-name="zcaron" unicode="ž" horiz-adv-x="466" d="M199 121h246V0H27v107l240 301H29v113h402V414zm-39 620l73-93 76 94 99-6-105-164H159L58 736z"/><glyph glyph-name="longs" unicode="ſ" horiz-adv-x="299" d="M358 640q-15 5-33.5 9t-36.5 4-32.5-3.5-25-12.5-16.5-26-6-44V0H57v581q0 48 14 83t39 57.5 60.5 33.5 78.5 11q41 0 71.5-6.5T364 747z"/><glyph glyph-name="florin" unicode="ƒ" horiz-adv-x="578" d="M475 565q-7 28-18 48t-39 20q-27 0-40.5-15.5T358 569l-23-121h131l-15-97H319L251-4q-8-44-23-77.5T189-137t-58.5-33T47-181q-39 0-67.5 10t-49 28-33.5 41.5-20 50.5L-3-9q7-28 18.5-47T56-75q27 0 39 14.5T114-12l69 363H91l16 97h93l22 111q9 44 23.5 77.5t38.5 56 58.5 33.5 82.5 11q39 0 67.5-10t49-27.5 33-41T594 608z"/><glyph glyph-name="Aringacute" unicode="Ǻ" horiz-adv-x="709" d="M472 798q0-49-27-79L699 0H530l-60 176H229L173 0H14l234 717q-27 30-27 76 0 30 10 53t27 38 39.5 22.5T346 914t49-7.5 40-22 27-36 10-50.5zM348 579h-4l-89-280h183zm-2 168q23 0 37 13t14 40q0 26-14 38t-37 12-38.5-12.5T292 799t14.5-39 39.5-13zm26 194l-107 8 91 140h162z"/><glyph glyph-name="aringacute" unicode="ǻ" horiz-adv-x="558" d="M481 130q0-21 5.5-30.5T512 90q11 0 31 6l4-87q-15-8-43.5-14T451-11q-45 0-72 14.5T344 55q-25-32-63-49.5T189-12q-49 0-79 14.5T63 38 40 83t-6 44q0 60 28 96t71.5 55 96.5 25 103 6v19q0 22-2.5 39.5t-10 30-22 19T259 423q-38 0-54.5-17T180 351L52 376q6 37 21 66t41.5 49 65.5 30.5 92 10.5q105 0 157-43t52-141V130zm-147 91h-24q-27-1-50-4.5t-39.5-11T195 185t-9-33q0-23 12.5-40T247 95q27 0 51 11t36 23v92zm49 452q0-51-31-78t-82-27q-50 0-81 26t-31 75q0 54 33.5 81.5T270 778q47 0 80-26.5t33-78.5zm-113-45q20 0 32 11t12 34q0 21-12 31.5T270 715q-19 0-32-11t-13-32q0-23 12.5-33.5T270 628zm15 176l-107 8 91 140h162z"/><glyph glyph-name="AEacute" unicode="Ǽ" horiz-adv-x="1003" d="M644 130h324V0H490v286H312L176 0H13l353 724h583V594H644V413h287V288H644V130zM490 594h-43l-90-186h133v186zm192 174l-107 8 91 140h162z"/><glyph glyph-name="aeacute" unicode="ǽ" horiz-adv-x="838" d="M580-12q-71 0-118 21t-76 57q-43-42-90-60T195-12q-51 0-82.5 14.5T63.5 38 40 83t-6 44q0 61 27 96.5t69.5 54.5 96 24 106.5 5v21q0 22-2.5 39.5t-10 30-22 19T259 423q-38 0-54.5-17T180 351L52 376q6 37 21 66t41.5 49 65.5 30.5 92 10.5 89-16.5 59-54.5q26 33 71 52t98 19q56 0 96.5-17.5t67-49 39-76T804 291q0-13-.5-31t-2.5-32H484q1-68 28-95.5t77-27.5q41 0 59 20.5t26 53.5l127-31q-14-73-70.5-116.5T580-12zM247 95q25 0 53.5 11.5T349 135q-8 20-12 41.5t-6 44.5h-21q-27-1-50-4.5t-39.5-11T195 185t-9-33q0-23 12.5-40T247 95zm401 224q2 58-18.5 81T572 423q-16 0-31.5-5.5t-27.5-18-19.5-32.5-7.5-48h162zM454 572l-101 9 75 162h161z"/><glyph glyph-name="Oslashacute" unicode="Ǿ" horiz-adv-x="760" d="M409 768l-107 8 91 140h162zM375-12q-40 0-76 6l-27-66H129l46 112Q103 88 70.5 170.5T38 359q0 81 22 150t66.5 119.5T237 708t154 29q39 0 72-6l27 63h142l-46-110q71-48 104-130t33-181q0-88-21.5-159T637 92.5 528.5 15 375-12zM197 362q0-59 10-102t30-73l174 418q-5 1-11 1.5t-12 .5q-88 0-139.5-59.5T197 362zm184-244q40 0 74 13.5t58 42.5 37.5 76T564 364q0 57-10 100t-29 73L351 119q8-1 15-1h15z"/><glyph glyph-name="oslashacute" unicode="ǿ" horiz-adv-x="587" d="M322 572l-101 9 75 162h161zM288-12q-18 0-34 1.5T223-7l-28-65H89l43 99q-54 35-76 94.5T34 258q0 63 16.5 113.5t49.5 86 83.5 55T302 532q14 0 27-1t25-3l26 58h105l-39-88q57-32 82-91.5T553 269q0-64-15-116t-47.5-88.5T408 8 288-12zm7 112q25 0 43.5 8.5t31.5 28 19.5 50.5 6.5 77q0 59-12 94L271 102q6-1 11.5-1.5t12.5-.5zM192 262q0-52 7-84l106 240h-7q-51 0-78.5-35.5T192 262z"/><glyph glyph-name="Scommaaccent" unicode="Ș" horiz-adv-x="596" d="M300 618q-56 0-82-21t-26-56q0-28 16-46t42.5-30.5 60.5-22 69-20.5 69-25.5 60.5-38T552 301t16-84q0-62-23-105t-61.5-71T395 .5 291-12q-49 0-97 9.5t-87 35-65 70T11 218l140 21q4-26 12.5-49.5t24.5-41 41.5-28T295 110q24 0 45.5 4.5t38 15T405 157t10 42q0 28-16 45.5T356.5 274 296 294.5 226.5 313 157 337t-60.5 37.5T54 433t-16 86q0 53 20.5 93.5T115 681t84 42 103 14q48 0 93-9t80-32.5 58-65T560 525l-141-16q-2 25-9 45.5T389 589t-35.5 21.5T300 618zM241-68h140l-83-206-103 15z"/><glyph glyph-name="scommaaccent" unicode="ș" horiz-adv-x="501" d="M257 532q89 0 139-36t69-102l-124-39q-10 33-29 52t-61 19q-66 0-66-46 0-14 8-23.5t22-15.5 33.5-10 42.5-8q34-6 67-14.5t58.5-25 41.5-45 16-74.5q0-45-18-78t-48.5-54.5T335-1t-90-11Q144-12 90.5 27T23 131l123 40q4-15 11-29t19-25.5 29.5-18T250 92q75 0 75 49 0 29-25.5 38.5T228 197q-34 6-67.5 15T100 238.5 56.5 285 40 362q0 43 17.5 75t47.5 53 69 31.5 83 10.5zM194-68h140l-83-206-103 15z"/><glyph glyph-name="uni021A" unicode="Ț" horiz-adv-x="595" d="M221 0v594H8v130h579V594H376V0H221zm16-68h140l-83-206-103 15z"/><glyph glyph-name="uni021B" unicode="ț" horiz-adv-x="412" d="M404 25q-20-13-61.5-25T251-12q-82 0-124 39.5T85 157v254H7v110h78v154l151 20V521h138V411H236V178q0-35 12.5-52.5T297 108q23 0 47 7.5t39 16.5zM172-68h140l-83-206-103 15z"/><glyph glyph-name="dotlessj" unicode="ȷ" horiz-adv-x="266" d="M25-223q-41 0-75 9t-48 19l11 113q13-6 35.5-13t46.5-7q27 0 46 15.5T60-24v545h151V-41q0-49-13.5-83.5t-38-56.5-59-32T25-223z"/><glyph glyph-name="apostrophe" unicode="ʼ" horiz-adv-x="500" d="M201 713h140l-83-206-104 14z"/><glyph glyph-name="circumflex" unicode="ˆ" horiz-adv-x="500" d="M324 576l-73 94-76-95-101 6 105 164h144l101-164z"/><glyph glyph-name="caron" unicode="ˇ" horiz-adv-x="500" d="M178 741l73-93 76 94 99-6-105-164H177L76 736z"/><glyph glyph-name="uni02C9" unicode="ˉ" horiz-adv-x="500" d="M94 599v102h311V599H94z"/><glyph glyph-name="breve" unicode="˘" horiz-adv-x="500" d="M426 730q-6-85-54-123t-124-38q-74 0-119 37.5T81 727l100 11q5-42 22-59.5t50-17.5q34 0 52.5 16t24.5 60z"/><glyph glyph-name="dotaccent" unicode="˙" horiz-adv-x="500" d="M341 681q0-44-23.5-68T250 589q-43 0-66.5 24T160 681t23.5 67.5T250 772q44 0 67.5-23.5T341 681z"/><glyph glyph-name="ring" unicode="˚" horiz-adv-x="500" d="M363 675q0-51-31-78t-82-27q-50 0-81 26t-31 75q0 54 33.5 81.5T250 780q47 0 80-26.5t33-78.5zm-113-45q20 0 32 11t12 34q0 21-12 31.5T250 717q-19 0-32-11t-13-32q0-23 12.5-33.5T250 630z"/><glyph glyph-name="ogonek" unicode="˛" horiz-adv-x="500" d="M382-139q-17-49-54.5-75T242-240q-57 0-86.5 25.5T126-142q0 27 11 50.5t29 44 40.5 38T252 23l71-17q-38-37-61.5-65T238-117q0-33 31-33 14 0 26 9.5t22 31.5z"/><glyph glyph-name="tilde" unicode="˜" horiz-adv-x="500" d="M173 732q24 0 44-7t37.5-15 33.5-15 33-7 23.5 9.5T351 732l76-4q7-62-15.5-101.5T336 587q-26 0-47 7t-39 15-34 15-32 7-24-9.5-4-37.5l-82 3q-8 66 20 105.5t79 39.5z"/><glyph glyph-name="hungarumlaut" unicode="˝" horiz-adv-x="500" d="M216 572l-96 12 44 159h154zm157 0l-101 9 85 166h162z"/><glyph glyph-name="uni0394" unicode="Δ" horiz-adv-x="715" d="M9 0l258 724h178L706 0H9zm182 124h297L347 565h-7z"/><glyph glyph-name="uni03A9" unicode="Ω" horiz-adv-x="830" d="M566 130h184V0H463v219q24 10 49.5 23.5t46.5 37 35 59 14 89.5q0 48-13 83t-37 57-57.5 32.5T426 611q-40 0-74-12.5t-58.5-37-38-60.5-13.5-84q0-43 9.5-74.5T278 288t41-39 53-29V0H87v130h181v22q-91 34-138 100T83 415q0 71 24 130t68.5 102T284 713.5 428 737q86 0 149-21.5T681.5 654t61.5-97 20-127q0-56-16.5-100T703 252t-62.5-59-74.5-41v-22z"/><glyph glyph-name="uni03BC" unicode="μ" horiz-adv-x="629" d="M81 521h151V191q0-43 11.5-62.5T287 109t58.5 14.5T389 152v369h151V0H415l-5 54h-5q-35-34-77.5-50T228-1l-1-1 10-174H81v697z"/><glyph glyph-name="pi" unicode="π" horiz-adv-x="671" d="M562 0H411v410H259V0H109v521h453V0z"/><glyph glyph-name="Wgrave" unicode="Ẁ" horiz-adv-x="964" d="M604 0L487 499h-4L367 0H164L8 724h161l102-558h4l129 558h165l133-561h5l94 561h155L801 0H604zM317 916h162l91-140-107-8z"/><glyph glyph-name="wgrave" unicode="ẁ" horiz-adv-x="813" d="M150 0L-4 521h151l95-366h2l92 366h148l92-364h3l91 364h147L662 0H492l-84 340h-2L329 0H150zm105 743h162l74-162-101-9z"/><glyph glyph-name="Wacute" unicode="Ẃ" horiz-adv-x="964" d="M604 0L487 499h-4L367 0H164L8 724h161l102-558h4l129 558h165l133-561h5l94 561h155L801 0H604zM502 768l-107 8 91 140h162z"/><glyph glyph-name="wacute" unicode="ẃ" horiz-adv-x="813" d="M150 0L-4 521h151l95-366h2l92 366h148l92-364h3l91 364h147L662 0H492l-84 340h-2L329 0H150zm282 572l-101 9 75 162h161z"/><glyph glyph-name="Wdieresis" unicode="Ẅ" horiz-adv-x="964" d="M604 0L487 499h-4L367 0H164L8 724h161l102-558h4l129 558h165l133-561h5l94 561h155L801 0H604zM454 858q0-38-24.5-60.5T366 775q-41 0-66 22.5T275 858t25 61 66 23q39 0 63.5-23t24.5-61zm235 0q0-38-24-60.5T601 775q-41 0-65.5 22.5T511 858t24.5 61 65.5 23q40 0 64-23t24-61z"/><glyph glyph-name="wdieresis" unicode="ẅ" horiz-adv-x="813" d="M150 0L-4 521h151l95-366h2l92 366h148l92-364h3l91 364h147L662 0H492l-84 340h-2L329 0H150zm231 679q0-38-24.5-60.5T293 596q-41 0-66 22.5T202 679t25 61 66 23q39 0 63.5-23t24.5-61zm235 0q0-38-24-60.5T528 596q-41 0-65.5 22.5T438 679t24.5 61 65.5 23q40 0 64-23t24-61z"/><glyph glyph-name="Ygrave" unicode="Ỳ" horiz-adv-x="606" d="M388 0H233v271L-18 724h169l159-310h5l153 310h156L388 273V0zM142 916h162l91-140-107-8z"/><glyph glyph-name="ygrave" unicode="ỳ" horiz-adv-x="526" d="M-4 521h163l109-363h3l105 363h155q-52-146-105.5-293.5T324-51q-17-46-34.5-78.5t-40-53.5-52-30.5T128-223q-31 0-64 7t-50 15L25-92q21-7 41.5-11.5T104-108q26 0 44 13t30 43l16 41zm112 222h162l74-162-101-9z"/><glyph glyph-name="thinspace" horiz-adv-x="125"/><glyph glyph-name="endash" unicode="–" horiz-adv-x="500" d="M0 225v111h500V225H0z"/><glyph glyph-name="emdash" unicode="—" horiz-adv-x="1000" d="M0 225v111h1000V225H0z"/><glyph glyph-name="quoteleft" unicode="‘" horiz-adv-x="218" d="M164 546H19l89 245 109-12z"/><glyph glyph-name="quoteright" unicode="’" horiz-adv-x="218" d="M71.03 774.1h144.974L127.02 529.145 18.04 541.143z"/><glyph glyph-name="quotesinglbase" unicode="‚" horiz-adv-x="214" d="M55.03 95.1h144.974L111.02-149.855 2.04-137.857z"/><glyph glyph-name="quotedblleft" unicode="“" horiz-adv-x="401" d="M348 546H203l89 245 109-12zm-184 0H19l89 245 109-12z"/><glyph glyph-name="quotedblright" unicode="”" horiz-adv-x="401" d="M253.03 774.1h144.974L309.02 529.145l-108.98 11.998zm-182 0h144.974L127.02 529.145 18.04 541.143z"/><glyph glyph-name="quotedblbase" unicode="„" horiz-adv-x="399" d="M55.03 95.1h144.974L111.02-149.855 2.04-137.857zm184 0h144.974L295.02-149.855l-108.98 11.998z"/><glyph glyph-name="dagger" unicode="†" horiz-adv-x="440" d="M270 459l19-542H151l18 543-149-16v122l149-16-15 174h132l-16-173 150 15V444z"/><glyph glyph-name="daggerdbl" unicode="‡" horiz-adv-x="446" d="M274 459V181l149 16V75L274 91l15-174H157l16 173L23 75v122l149-15v278L23 444v122l149-16-15 174h132l-16-173 150 15V444z"/><glyph glyph-name="bullet" unicode="•" horiz-adv-x="460" d="M381 279q0-74-38.5-110T230 133q-73 0-112 36T79 279t39 110.5T230 426q74 0 112.5-36.5T381 279z"/><glyph glyph-name="ellipsis" unicode="…" horiz-adv-x="722" d="M219 76q0-88-93-88T33 76q0 89 93 89t93-89zm238 0q0-88-93-88t-93 88q0 89 93 89t93-89zm233 0q0-88-93-88t-93 88q0 89 93 89t93-89z"/><glyph glyph-name="perthousand" unicode="‰" horiz-adv-x="1065" d="M187 412q-42 0-70.5 11.5T70 456t-26 50-8 64q0 81 40.5 124T194 737q79 0 115-41.5T345 579q0-79-40.5-123T187 412zM73-13l438 737h132L206-13H73zm118 504q26 0 37.5 19t11.5 67q0 43-11 61.5T192 657t-38.5-19.5T141 576q0-46 12-65.5t38-19.5zM534-12q-42 0-70.5 11.5T417 32t-26 50-8 64q0 81 40.5 124T541 313q79 0 115-41.5T692 155q0-79-40.5-123T534-12zm3 80q26 0 38 18.5t12 66.5q0 43-11.5 61T538 232t-38-19-12-61q0-46 11.5-65T537 68zm334-80q-42 0-70.5 11.5T754 32t-26 50-8 64q0 81 40.5 124T878 313q79 0 115-41.5t36-116.5q0-79-40.5-123T871-12zm3 80q26 0 38 18.5t12 66.5q0 43-11.5 61T875 232t-38-19-12-61q0-46 11.5-65T874 68z"/><glyph glyph-name="guilsinglleft" unicode="‹" horiz-adv-x="279" d="M123 103L37 257l89 151h122l-88-147 84-158H123z"/><glyph glyph-name="guilsinglright" unicode="›" horiz-adv-x="279" d="M153 408l89-153-87-152H35l84 153-88 152h122z"/><glyph glyph-name="fraction" unicode="⁄" horiz-adv-x="184" d="M-160-12l354 736h138L-21-12h-139z"/><glyph glyph-name="zerosuperior" unicode="⁰" horiz-adv-x="430" d="M212 342q-91 0-136 56.5T31 579q0 121 50 175.5T219 809q96 0 138-54.5T399 581q0-126-45.5-182.5T212 342zm3 98q13 0 21.5 6t14 22 8 42.5T261 578q0 40-2 66t-7.5 41-14 21-20.5 6q-13 0-22-5.5T180.5 686t-8-41-2.5-67 2-67.5 7.5-42.5 14-22 21.5-6z"/><glyph glyph-name="foursuperior" unicode="⁴" horiz-adv-x="432" d="M235 349v92H27v89l176 271h159V541h52V441h-51v-92H235zm0 192v150l-98-150h98z"/><glyph glyph-name="fivesuperior" unicode="⁵" horiz-adv-x="411" d="M67 801h270V696H158l-12-90 2-4q16 16 39 26t54 10q57 0 90.5-34T365 501q0-39-14-68.5t-38-50-57-30.5-71-10q-30 0-58 6t-50.5 21-38 39T19 468l112 19q2-27 16-39t37-12 37.5 15.5T236 494q0 32-14.5 43T190 548q-18 0-30.5-7T137 524l-86 27z"/><glyph glyph-name="sixsuperior" unicode="⁶" horiz-adv-x="430" d="M279 670q-3 26-13 37t-29 11q-29 0-47-31t-19-99q15 16 40.5 27.5T272 627q23 0 45-6.5t39.5-21.5 28-39.5T395 499q0-42-14-72t-38-49-55.5-27.5T221 342q-52 0-85.5 18.5t-53 49T55 481t-8 86q0 41 8.5 84t31 78 60.5 57.5 98 22.5q26 0 50-5t44.5-18 35-35.5T395 694zM177 521q1-41 10.5-63.5T225 435q20 0 29.5 15.5T264 489q0 26-8 40.5T225 544q-14 0-27-7.5T177 521z"/><glyph glyph-name="sevensuperior" unicode="⁷" horiz-adv-x="379" d="M43 349l174 347H31v105h323v-95L183 349H43z"/><glyph glyph-name="eightsuperior" unicode="⁸" horiz-adv-x="419" d="M303 604q45-18 70-45t25-75q0-28-13-54t-38-45.5-61.5-31T202 342q-88 0-133.5 33.5T23 462q0 45 25 71t67 43q-37 14-55.5 41.5T41 681q0 31 14 55t37.5 40.5 55 24.5 67.5 8q80 0 123-28t43-78q0-32-18-57t-60-42zm-123-68q-36-23-36-55 0-22 15.5-35t44.5-13q21 0 36.5 9.5T256 473q0 23-20.5 37T180 536zm54 103q14 9 23.5 22t9.5 28q0 17-13.5 26t-33.5 9q-21 0-32.5-9.5T176 691q0-29 58-52z"/><glyph glyph-name="ninesuperior" unicode="⁹" horiz-adv-x="427" d="M147 488q4-23 13.5-38.5T196 434q29 0 46.5 30t18.5 95q-15-13-40.5-23T164 526q-25 0-48 6.5t-41 22T46.5 595 36 656q0 41 14.5 70T90 773.5t57 27 67 8.5q49 0 82-16.5t52.5-46.5 27.5-71.5 8-90.5q0-38-7-80.5T349 425t-59-59.5-99-23.5q-29 0-55 5t-47.5 18.5T52 401t-21 57zm104 135q-2 43-10 68t-35 25q-21 0-30-15.5t-9-36.5q0-25 9-42.5t32-17.5q26 0 43 19z"/><glyph glyph-name="plussuperior" unicode="⁺" horiz-adv-x="443" d="M171 433v86H87v95h84v83h99v-83h85v-95h-85v-86h-99z"/><glyph glyph-name="minussuperior" unicode="⁻" horiz-adv-x="443" d="M92 521v94h260v-94H92z"/><glyph glyph-name="equalsuperior" unicode="⁼" horiz-adv-x="445" d="M92 430v94h261v-94H92zm0 134v94h261v-94H92z"/><glyph glyph-name="parenleftsuperior" unicode="⁽" horiz-adv-x="292" d="M141 276q-19 23-36.5 52.5t-31.5 64-22.5 73T42 546q0 84 30 150t78 128h128q-20-26-38.5-55T207 707t-22.5-72-8.5-86q0-44 8.5-82.5t22.5-72 31.5-62.5 34.5-55z"/><glyph glyph-name="parenrightsuperior" unicode="⁾" horiz-adv-x="309" d="M18 823q33 0 66 .5t66 .5q19-24 37-54t32.5-64.5 23-73.5 8.5-81-8-79-22-70.5-33.5-64.5-42.5-61H16q19 25 37 52.5T85.5 389t23 72.5T117 549q0 43-8.5 81T86 701.5t-32 64T18 823z"/><glyph glyph-name="zeroinferior" unicode="₀" horiz-adv-x="430" d="M212-153q-91 0-136 56.5T31 84q0 121 50 175.5T219 314q96 0 138-54.5T399 86q0-126-45.5-182.5T212-153zm3 98q13 0 21.5 6t14 22 8 42.5T261 83q0 40-2 66t-7.5 41-14 21-20.5 6q-13 0-22-5.5T180.5 191t-8-41-2.5-67 2-67.5 7.5-42.5 14-22 21.5-6z"/><glyph glyph-name="oneinferior" unicode="₁" horiz-adv-x="328" d="M137-148v314q-8-4-22-7t-29-5.5-28.5-4T36 148l-5 104q42 3 80 15.5t62 36.5h97v-452H137z"/><glyph glyph-name="twoinferior" unicode="₂" horiz-adv-x="405" d="M203 314q83 0 120.5-33.5T361 194q0-27-8-49.5t-24.5-45-42-46.5T225-1l-32-33v-4h175v-108H41v108l97 97q25 25 42.5 44t28 33 15 25.5T228 185q0 34-34 34-43 0-50-57L30 177q4 36 19 62t38.5 42.5 53 24.5 62.5 8z"/><glyph glyph-name="threeinferior" unicode="₃" horiz-adv-x="412" d="M136-8q3-28 16-39t36-11q21 0 34.5 11.5T236-10q0 27-12.5 38.5T179 40h-50v86h31q36 0 53 16t17 43q0 17-9 26.5t-29 9.5q-21 0-32.5-12T143 174L33 194q6 35 23 58t40 37 51.5 19.5T205 314q74 0 114.5-27.5T360 205q0-23-7.5-40.5t-19.5-30-27.5-22T273 97v-3q98-20 98-107 0-34-13.5-60t-38-44-57.5-27-72-9q-29 0-57 5.5t-51 20T42.5-89 22-29z"/><glyph glyph-name="fourinferior" unicode="₄" horiz-adv-x="432" d="M235-146v92H27v89l176 271h159V46h52V-54h-51v-92H235zm0 192v150L137 46h98z"/><glyph glyph-name="fiveinferior" unicode="₅" horiz-adv-x="411" d="M67 306h270V201H158l-12-90 2-4q16 16 39 26t54 10q57 0 90.5-34T365 6q0-39-14-68.5t-38-50-57-30.5-71-10q-30 0-58 6t-50.5 21-38 39T19-27L131-8q2-27 16-39t37-12 37.5 15.5T236-1q0 32-14.5 43T190 53q-18 0-30.5-7T137 29L51 56z"/><glyph glyph-name="sixinferior" unicode="₆" horiz-adv-x="430" d="M279 175q-3 26-13 37t-29 11q-29 0-47-31t-19-99q15 16 40.5 27.5T272 132q23 0 45-6.5t39.5-21.5 28-39.5T395 4q0-42-14-72t-38-49-55.5-27.5T221-153q-52 0-85.5 18.5t-53 49T55-14t-8 86q0 41 8.5 84t31 78 60.5 57.5 98 22.5q26 0 50-5t44.5-18 35-35.5T395 199zM177 26q1-41 10.5-63.5T225-60q20 0 29.5 15.5T264-6q0 26-8 40.5T225 49q-14 0-27-7.5T177 26z"/><glyph glyph-name="seveninferior" unicode="₇" horiz-adv-x="379" d="M43-146l174 347H31v105h323v-95L183-146H43z"/><glyph glyph-name="eightinferior" unicode="₈" horiz-adv-x="419" d="M303 109q45-18 70-45t25-75q0-28-13-54t-38-45.5-61.5-31T202-153q-88 0-133.5 33.5T23-33q0 45 25 71t67 43q-37 14-55.5 41.5T41 186q0 31 14 55t37.5 40.5 55 24.5 67.5 8q80 0 123-28t43-78q0-32-18-57t-60-42zM180 41q-36-23-36-55 0-22 15.5-35T204-62q21 0 36.5 9.5T256-22q0 23-20.5 37T180 41zm54 103q14 9 23.5 22t9.5 28q0 17-13.5 26t-33.5 9q-21 0-32.5-9.5T176 196q0-29 58-52z"/><glyph glyph-name="nineinferior" unicode="₉" horiz-adv-x="427" d="M147-7q4-23 13.5-38.5T196-61q29 0 46.5 30T261 64q-15-13-40.5-23T164 31q-25 0-48 6.5t-41 22T46.5 100 36 161q0 41 14.5 70T90 278.5t57 27 67 8.5q49 0 82-16.5t52.5-46.5 27.5-71.5 8-90.5q0-38-7-80.5T349-70t-59-59.5-99-23.5q-29 0-55 5t-47.5 18.5T52-94 31-37zm104 135q-2 43-10 68t-35 25q-21 0-30-15.5t-9-36.5q0-25 9-42.5t32-17.5q26 0 43 19z"/><glyph glyph-name="parenleftinferior" unicode="₍" horiz-adv-x="292" d="M141-219q-19 23-36.5 52.5t-31.5 64-22.5 73T42 51q0 84 30 150t78 128h128q-20-26-38.5-55T207 212t-22.5-72-8.5-86q0-44 8.5-82.5t22.5-72 31.5-62.5 34.5-55z"/><glyph glyph-name="parenrightinferior" unicode="₎" horiz-adv-x="309" d="M18 328q33 0 66 .5t66 .5q19-24 37-54t32.5-64.5 23-73.5 8.5-81-8-79-22-70.5-33.5-64.5-42.5-61H16q19 25 37 52.5T85.5-106t23 72.5T117 54q0 43-8.5 81T86 206.5t-32 64T18 328z"/><glyph glyph-name="Euro" unicode="€" horiz-adv-x="645" d="M372-12q-117 0-183 61t-86 186H10l15 88h70v62H33l15 88h56q23 128 94.5 196.5T387 738q49 0 91.5-12.5t74-40.5 50.5-73.5T625 500l-132-14q-5 71-29 99.5T386 614q-57 0-88.5-36T254 473h194l-15-88H246v-62h179l-15-88H256q13-63 42.5-92.5T379 113q29 0 48.5 7.5t33 22.5 21.5 36.5 14 48.5l126-22q-8-64-33.5-106T528 33 452-2t-80-10z"/><glyph glyph-name="afii61352" unicode="№" horiz-adv-x="1067" d="M425 0L218 503V0H77v724h185l201-506v506h140V0H425zm257 335h330v-93H682v93zm161 36q-50 0-84.5 13t-57 37-32.5 56.5-10 71.5q0 82 46.5 131T849 729q49 0 83.5-13t56-36 31.5-54.5 10-69.5q0-84-45-134.5T843 371zm2 91q29 0 45.5 18t16.5 72q0 52-15.5 70T848 640q-29 0-47.5-17.5T782 552q0-54 17-72t46-18z"/><glyph glyph-name="trademark" unicode="™" horiz-adv-x="856" d="M717 348v239l-89-239h-63l-87 240V349h-72v375h92l102-284 103 284h87V348h-73zm-478 0h-80v308H41v68h317v-68H239V348z"/><glyph glyph-name="Omega" unicode="Ω" horiz-adv-x="830" d="M566 130h184V0H463v219q24 10 49.5 23.5t46.5 37 35 59 14 89.5q0 48-13 83t-37 57-57.5 32.5T426 611q-40 0-74-12.5t-58.5-37-38-60.5-13.5-84q0-43 9.5-74.5T278 288t41-39 53-29V0H87v130h181v22q-91 34-138 100T83 415q0 71 24 130t68.5 102T284 713.5 428 737q86 0 149-21.5T681.5 654t61.5-97 20-127q0-56-16.5-100T703 252t-62.5-59-74.5-41v-22z"/><glyph glyph-name="onethird" unicode="⅓" horiz-adv-x="1012" d="M231-12l354 736h138L370-12H231zm-78 292v314q-8-4-22-7t-29-5.5-28.5-4T52 576l-5 104q42 3 80 15.5t62 36.5h97V280H153zm572-141q3-28 16-39t36-11q21 0 34.5 11.5T825 137q0 27-12.5 38.5T768 187h-50v86h31q36 0 53 16t17 43q0 17-9 26.5t-29 9.5q-21 0-32.5-12T732 321l-110 20q6 35 23 58t40 37 51.5 19.5T794 461q74 0 114.5-27.5T949 352q0-23-7.5-40.5t-19.5-30-27.5-22T862 244v-3q98-20 98-107 0-34-13.5-60t-38-44T851 3t-72-9q-29 0-57 5.5t-51 20T631.5 58 611 118z"/><glyph glyph-name="twothirds" unicode="⅔" horiz-adv-x="1012" d="M269-12l354 736h138L408-12H269zm-67 754q83 0 120.5-33.5T360 622q0-27-8-49.5t-24.5-45-42-46.5-61.5-54l-32-33v-4h175V282H40v108l97 97q25 25 42.5 44t28 33 15 25.5T227 613q0 34-34 34-43 0-50-57L29 605q4 36 19 62t38.5 42.5 53 24.5 62.5 8zm549-603q3-28 16-39t36-11q21 0 34.5 11.5T851 137q0 27-12.5 38.5T794 187h-50v86h31q36 0 53 16t17 43q0 17-9 26.5t-29 9.5q-21 0-32.5-12T758 321l-110 20q6 35 23 58t40 37 51.5 19.5T820 461q74 0 114.5-27.5T975 352q0-23-7.5-40.5t-19.5-30-27.5-22T888 244v-3q98-20 98-107 0-34-13.5-60t-38-44T877 3t-72-9q-29 0-57 5.5t-51 20T657.5 58 637 118z"/><glyph glyph-name="partialdiff" unicode="∂" horiz-adv-x="577" d="M382 374q4 38-.5 72t-18 59.5-37 40.5-56.5 15q-39 0-77-16t-65-36l-59 92q42 32 101 53t125 21q70 0 116-25.5t72.5-67.5 37-97T531 372q0-71-12-140t-42-123-82-87.5T262-12Q156-12 96 41T36 194q0 52 14.5 92.5T92 355t65 43 84 15q48 0 83-12.5t58-26.5zm-8-97q-20 12-44.5 22.5T276 310q-50 0-68.5-30T189 200q0-18 3.5-35.5t12.5-32 24-23 38-8.5q30 0 50 15t32 40 17.5 56.5T374 277z"/><glyph glyph-name="Delta" unicode="∆" horiz-adv-x="715" d="M9 0l258 724h178L706 0H9zm182 124h297L347 565h-7z"/><glyph glyph-name="product" unicode="∏" horiz-adv-x="788" d="M684-162H530v758H256v-758H101v886h583v-886z"/><glyph glyph-name="summation" unicode="∑" horiz-adv-x="627" d="M184-41h384v-135H10v105l222 350L19 633v91h546V603H207l183-316z"/><glyph glyph-name="minus" unicode="−" d="M92 264v119h387V264H92z"/><glyph glyph-name="uni2215" unicode="∕" horiz-adv-x="454" d="M8-17l313 648h129L138-17H8z"/><glyph glyph-name="uni2219" unicode="∙" horiz-adv-x="289" d="M236 308q0-42-23.5-64T143 222q-93 0-93 86 0 42 23.5 64.5T143 395t69.5-22.5T236 308z"/><glyph glyph-name="radical" unicode="√" d="M240 0L118 211q-4 7-12 5l-64-17-39 89 167 81 120-225 160 603 121-32L379 0H240z"/><glyph glyph-name="infinity" unicode="∞" horiz-adv-x="672" d="M335 251q-23-26-60-48.5T188 180q-29 0-55.5 8T86 213.5t-31.5 44T43 322q0 34 12 60.5T87.5 427t48 27.5T194 464q49 0 83.5-22t61.5-49q13 13 28.5 25.5T401 441t39 16.5 46 6.5q30 0 56-8.5t45.5-26T618 385t11-65q0-33-11.5-59.5t-31-45-46.5-28-57-9.5q-25 0-46.5 6.5t-40 17-34 23.5-27.5 26zm-50 73q-22 23-41.5 38T196 377q-26 0-42-15.5T138 322q0-20 14-38t42-18q26 0 49.5 19t41.5 39zm108-1q19-20 38.5-37t48.5-17q27 0 40.5 17t13.5 38q0 26-13 40t-39 14-48-18-41-37z"/><glyph glyph-name="integral" unicode="∫" horiz-adv-x="427" d="M68-65q18-9 36.5-13.5T137-83q21 0 32 13t8 56l-53 596q-4 45 9.5 73t35 44 47.5 22 48 6q37 0 65.5-6t60.5-17l-20-101q-37 17-70 17-20 0-31.5-13.5T261 552l52-596q4-45-9.5-73.5t-35-44.5-47.5-21.5-47-5.5q-38 0-66 6t-60 17z"/><glyph glyph-name="approxequal" unicode="≈" d="M167 548q24 0 59-7t70-15 66-15 48-7 23.5 9.5T440 548l83-4q4-31 0-57.5T507 440t-32.5-31.5T425 397q-26 0-61.5 7T292 419t-67 15-47 7-24-9.5-4-37.5l-89 3q-8 66 19 108.5t87 42.5zm0-201q24 0 59-7t70-15 66-15 48-7 23.5 9.5T440 347l83-4q4-31 0-57.5T507 239t-32.5-31.5T425 196q-26 0-61.5 7T292 218t-67 15-47 7-24-9.5-4-37.5l-89 3q-8 66 19 108.5t87 42.5z"/><glyph glyph-name="notequal" unicode="≠" d="M216 247l27 69H92v120h194l34 87h108l-35-87h85V316H350l-27-69h155V127H280l-34-84H139l34 84H92v120h124z"/><glyph glyph-name="lessequal" unicode="≤" d="M89 265v141l387 141V427l-264-88 264-89V128zM89 0v119h387V0H89z"/><glyph glyph-name="greaterequal" unicode="≥" d="M88 129v121l265 89-265 83v125l388-141V266zM88 0v119h387V0H88z"/><glyph glyph-name="triangle" unicode="△" horiz-adv-x="425" d="M150 203v231l185-114z"/><glyph glyph-name="lozenge" unicode="◊" d="M230-17L75 307l155 324h110l155-324L340-17H230zm152 324l-97 196-96-196 96-203z"/><glyph glyph-name="circle" unicode="○" horiz-adv-x="610" d="M305 119q-42 0-79.5 16T160 179t-44 65.5-16 79.5 16 79.5 44 65.5 65.5 44 79.5 16 79.5-16 65.5-44 44-65.5 16-79.5-16-79.5-44-65.5-65.5-44-79.5-16z"/><glyph glyph-name="s_t" unicode="ﬆ" horiz-adv-x="875" d="M867 25q-20-13-61.5-25T714-12q-82 0-124 39.5T548 157v518l151 20V521h138V411H699V178q0-35 12.5-52.5T760 108q23 0 47 7.5t39 16.5zM257 532q89 0 139-36t69-102l-124-39q-10 33-29 52t-61 19q-66 0-66-46 0-14 8-23.5t22-15.5 33.5-10 42.5-8q34-6 67-14.5t58.5-25 41.5-45 16-74.5q0-45-18-78t-48.5-54.5T335-1t-90-11Q144-12 90.5 27T23 131l123 40q4-15 11-29t19-25.5 29.5-18T250 92q75 0 75 49 0 29-25.5 38.5T228 197q-34 6-67.5 15T100 238.5 56.5 285 40 362q0 43 17.5 75t47.5 53 69 31.5 83 10.5z"/><glyph glyph-name="hyphen.case" horiz-adv-x="313" d="M20 288v129h271V288H20z"/><glyph glyph-name="zero.osf" horiz-adv-x="617" d="M303-12q-75 0-126 21.5T94.5 71t-45 96T36 291t16.5 123.5 51 95 87 61T315 592q75 0 126-21t82.5-60 45-93T582 298q0-71-15.5-128t-49-97.5T431 10 303-12zm6 117q59 0 86 44.5T422 293q0 94-25.5 136.5T313 472q-60 0-88.5-44T196 289q0-94 25.5-139t87.5-45z"/><glyph glyph-name="one.osf" horiz-adv-x="441" d="M199 0v402q-12-7-33-13t-44-10-44-6-33-2l-7 124q66 5 119.5 24.5T246 578h103V0H199z"/><glyph glyph-name="two.osf" horiz-adv-x="538" d="M280 592q103 0 155.5-47T488 419q0-37-8.5-65.5t-26.5-54-46.5-50T338 197l-90-64v-3h250V0H53v122l138 114q42 34 70 57.5t44.5 42T329 371t7 38q0 35-18.5 52T264 478q-48 0-66.5-26T171 378L39 404q9 55 32 91t55 57.5 71.5 30.5 82.5 9z"/><glyph glyph-name="three.osf" horiz-adv-x="542" d="M150 129q6-46 29.5-70.5T254 34q20 0 38 4.5T323.5 53 345 79t8 39q0 48-28 65.5T241 201h-74v112h49q62 0 94.5 23.5T343 404q0 31-17 52t-63 21q-47 0-68.5-23T163 387L35 413q10 51 33 85.5t55 55 71.5 29.5 81.5 9q103 0 159.5-41.5T492 426q0-34-11.5-60t-30-45-41.5-31.5-45-18.5v-3q63-9 102.5-48.5T506 110q0-49-19.5-85.5T433-36t-80.5-35.5T251-83q-42 0-81.5 9t-71 30.5-53 57T18 101z"/><glyph glyph-name="four.osf" horiz-adv-x="581" d="M337-67V66H26v107l273 405h184V188h81V66h-81V-67H337zm0 255v259L160 188h177z"/><glyph glyph-name="five.osf" horiz-adv-x="552" d="M83 576h381V447H195l-15-141q23 18 56.5 32t81.5 14q40 0 74.5-13t59.5-38.5 39.5-64.5 14.5-91q0-53-19-95.5t-52.5-72-79.5-45T255-83q-45 0-85 9.5t-72 31-53.5 56T16 99l133 26q6-39 29-64t74-25q44 0 74 25t30 81q0 53-27.5 74T264 237q-32 0-57.5-13.5T158 187l-98 41z"/><glyph glyph-name="six.osf" horiz-adv-x="577" d="M403 458q-8 41-27 62.5T316 542q-32 0-55-14.5t-37.5-40T202 427t-7-75q30 26 70.5 40.5T354 407q40 0 74.5-12t59.5-36.5 39-61.5 14-86q0-59-19.5-101.5T469 40 391.5.5 297-12q-72 0-119.5 25T102 82.5 62.5 187 51 316q0 59 12.5 119.5t44 109.5 84.5 80 134 31q84 0 136-39t72-124zM204 250q1-24 4.5-50.5t14-48.5 29.5-36.5 51-14.5q46 0 68 29t22 74q0 93-80 93-30 0-60.5-14.5T204 250z"/><glyph glyph-name="seven.osf" horiz-adv-x="531" d="M74-67l272 513H33v130h469V459L233-67H74z"/><glyph glyph-name="eight.osf" horiz-adv-x="563" d="M404 355q61-27 96.5-66.5T536 184q0-46-18.5-82.5t-53-61.5-84-38.5T270-12Q149-12 85 34.5T21 156q0 63 33 103t98 70q-51 23-77 59t-26 89q0 41 18.5 74t51.5 56.5 78 36.5 99 13q104 0 161-41t57-109q0-30-9-53t-24-41-35-32-42-26zm-156-83q-32-19-55.5-42.5T169 169q0-33 25.5-52.5T274 97q52 0 77 20t25 55q0 19-10.5 33.5t-28 26-41 21.5-48.5 19zm57 127q29 20 50.5 40t21.5 52q0 31-22.5 46.5T291 553q-35 0-59.5-15.5T207 487q0-17 8-29.5t21.5-22.5 31-18.5T305 399z"/><glyph glyph-name="nine.osf" horiz-adv-x="582" d="M178 116q8-40 31-63t66-23q33 0 56 15.5T368.5 87t21 60.5T396 220q-30-27-71.5-40T236 167q-40 0-74.5 12.5t-59.5 37T63 278t-14 87q0 59 19.5 102.5T121 539t77 41.5 94 13.5q70 0 117.5-25t75.5-69 40-103 12-127q0-66-11-129.5t-40.5-113-81-79.5T271-82q-93 0-152.5 41T46 81zm207 207q0 27-4 54.5T366.5 428 337 465.5 286 480q-45 0-67-28.5T197 378q0-49 18.5-75.5T276 276q31 0 60 13.5t49 33.5z"/><glyph glyph-name="dollar.osf" horiz-adv-x="537" d="M263 538q-42 0-63.5-18.5T178 472q0-21 9.5-35.5t27.5-25 42.5-18.5 54.5-15q33-9 66-20.5t59.5-32T480 274t16-78q0-84-48-131T321 5v-87H194V6q-32 5-61 16.5T81.5 56t-37 55T27 192l123 19q4-25 10-45.5t18.5-35.5 33.5-23 54-8q48 0 71 21t23 56q0 21-10 35t-27 23.5-41 16.5-52 14q-36 9-69.5 20.5T101 317t-42 51.5T43 449q0 37 12 67t33 52.5 50 37.5 63 23v87h128v-84q31-5 57.5-16.5t46.5-32 32-50.5 15-72l-125-14q-5 48-25 69.5T263 538z"/><glyph glyph-name="Euro.osf" horiz-adv-x="649" d="M107 429q22 105 91 167t188 62q47 0 89-12t74-39 52-69.5T624 434l-136-14q-5 64-29 91.5T381 539q-44 0-76.5-25T257 429h187l-15-88H246v-37l1-17h175l-15-88H260q14-48 42.5-69t73.5-21q54 0 78 26.5t35 78.5l132-21q-8-59-32.5-98t-59-63T454-2t-81-10q-62 0-107.5 14.5t-78 42-52 66.5-29.5 88H7l15 88h74v54H29l15 88h63z"/><glyph glyph-name="cent.osf" horiz-adv-x="530" d="M355 633V529q66-12 107-58.5T509 350l-136-20q-5 46-21.5 68T297 420q-21 0-38.5-5.5t-31-20.5-21-40.5T199 288q0-71 22-107t76-36q42 0 61 20.5t27 66.5l126-23q-11-75-55-118.5T347 34V-78H220V34q-89 17-132.5 82T44 273q0 106 48.5 170.5T228 527v106h127z"/><glyph glyph-name="sterling.osf" horiz-adv-x="601" d="M90 117q23 23 34.5 46t11.5 56q0 28-10 52H30v104h64q-8 17-15 38t-7 54q0 40 16 75t47 60 76 39.5T314 656q100 0 159-42.5T550 470l-132-28q-3 21-8.5 39.5t-17 32.5-30.5 22-49 8q-39 0-67-17.5T218 463q0-25 7.5-47t17.5-41h198V271H271q9-24 9-47 0-35-11.5-59.5T235 117h105q31 0 51.5 5.5t33.5 17 20 30 12 44.5l125-21q-8-101-62-147T354 0H32v117h58z"/><glyph glyph-name="yen.osf" horiz-adv-x="567" d="M363 211h129v-89H363V0H212v122H85v89h127v66H85v89h86L8 632h163l119-211h3l115 211h152L400 366h92v-89H363v-66z"/><glyph glyph-name="florin.osf" horiz-adv-x="565" d="M480 484q-8 28-18.5 48T423 552q-27 0-40.5-15.5T362 488l-19-101h132l-16-96H327L275 11q-8-44-22.5-77.5t-39-55.5-60-33T68-166q-38 0-66 10t-48 28-33 41.5T-99-36L21 6q7-28 18.5-47T80-60q27 0 39.5 14.5T138 3l54 288h-92l16 96h92l18 92q9 44 23.5 77t38.5 55.5 59 33.5 83 11q39 0 67.5-10t48.5-27.5 32.5-41T599 527z"/><glyph glyph-name="afii61352.osf" horiz-adv-x="1028" d="M397 0L217 410V0H75v626h185l172-418v418h140V0H397zm250 234h330v-93H647v93zm161 36q-50 0-84.5 13t-57 37-32.5 56.5-10 71.5q0 82 46.5 131T814 628q49 0 83.5-13t56-36 31.5-54.5 10-69.5q0-84-45-134.5T808 270zm2 91q29 0 45.5 18t16.5 72q0 52-15.5 70T813 539q-29 0-47.5-17.5T747 451q0-54 17-72t46-18z"/><glyph glyph-name="percent.osf" horiz-adv-x="888" d="M168 258q-48 0-80 14t-51.5 38-28 56T0 434q0 85 42.5 136T176 621q45 0 76.5-12.5t52-35T334 519t9-72q0-86-43.5-137.5T168 258zm4 84q32 0 44.5 24t12.5 77q0 48-12 70.5T173 536q-31 0-44.5-24T115 441q0-51 12.5-75t44.5-24zM681-12q-48 0-80 14t-51.5 38-28 56-8.5 68q0 85 42.5 136T689 351q45 0 76.5-12.5t52-35T847 249t9-72q0-86-43.5-137.5T681-12zm4 84q32 0 44.5 24t12.5 77q0 48-12 70.5T686 266q-31 0-44.5-24T628 171q0-51 12.5-75T685 72zM168-16l381 639h132L301-16H168z"/><glyph glyph-name="perthousand.osf" horiz-adv-x="1127" d="M169 295q-42 0-70.5 11.5T52 339t-26 50-8 64q0 81 40.5 124T176 620q79 0 115-41.5T327 462q0-79-40.5-123T169 295zm4 80q26 0 37.5 18.5T222 460q0 43-11 60.5T174 538t-38-18.5-12-60.5q0-46 11.5-65t37.5-19zM599-12q-42 0-70.5 11.5T482 32t-26 50-8 64q0 81 40.5 124T606 313q79 0 115-41.5T757 155q0-79-40.5-123T599-12zm4 80q26 0 37.5 18.5T652 153q0 43-11 60.5T604 231t-38-18.5-12-60.5q0-46 11.5-65T603 68zm333-80q-42 0-70.5 11.5T819 32t-26 50-8 64q0 81 40.5 124T943 313q79 0 115-41.5t36-116.5q0-79-40.5-123T936-12zm4 80q26 0 37.5 18.5T989 153q0 43-11 60.5T941 231t-38-18.5-12-60.5q0-46 11.5-65T940 68zM128-16l381 639h132L261-16H128z"/><glyph glyph-name="zero.slash" d="M281-12q-75 0-124 25T79 86 38 204 26 364t13.5 159.5 44.5 117 81.5 72T291 737t124-24.5 77.5-71.5 40-115T544 372q0-93-13-165T487.5 86.5t-81-73.5T281-12zm-94 375q0-48 1-85.5t6-66.5l119 404q-11 3-24 3-31 0-50.5-14t-31-44.5-16-79T187 363zm98-257q30 0 49.5 14.5t30.5 46 15 81 4 118.5q0 86-6 142L260 109q10-3 25-3z"/><glyph glyph-name="zero.tf" d="M281-12q-75 0-124 25T79 86 38 204 26 364t13.5 159.5 44.5 117 81.5 72T291 737t124-24.5 77.5-71.5 40-115T544 372q0-93-13-165T487.5 86.5t-81-73.5T281-12zm4 118q30 0 49.5 14.5t30.5 46 15 81 4 118.5q0 67-3.5 115T367 559.5 338 604t-49 14q-31 0-50.5-14t-31-44.5-16-79T187 363q0-68 3.5-116.5t14-79.5 30-46 50.5-15z"/><glyph glyph-name="one.tf" d="M96 130h143v414q-13-7-34-12.5t-44-9.5-44-6.5-33-2.5l-7 128q67 5 120 24.5t89 58.5h103V130h124V0H96v130z"/><glyph glyph-name="two.tf" d="M291 737q109 0 163.5-48.5T509 550q0-39-9.5-72T471 412t-48.5-69-69.5-80L235 133v-3h285V0H58v126l155 181q34 39 61 70.5t45.5 58.5 28 52.5T357 542q0 36-19.5 56T276 618q-48 0-69.5-28T177 511L41 534q6 54 27 92t54 63 76 36.5 93 11.5z"/><glyph glyph-name="three.tf" d="M159 200q6-46 28.5-70.5T261 105q43 0 72.5 25.5T363 213q0 58-30 81t-87 23h-71v114h47q64 0 97.5 29.5T353 541q0 36-17.5 58T271 621t-68.5-23-31.5-67L41 557q10 51 33.5 85.5t56 55.5 72.5 30 82 9q105 0 161-46t56-130q0-36-12-64t-31.5-49-43.5-35.5-49-22.5v-4q72-17 111.5-59.5T517 205q0-50-18-90.5T447.5 46t-81-43T261-12q-43 0-83 9.5T105.5 29t-54 58T24 175z"/><glyph glyph-name="four.tf" d="M325 0v162H22v107l266 455h184V284h73V162h-74V0H325zm0 284v305L148 284h177z"/><glyph glyph-name="five.tf" d="M97 724h381V594H207l-17-181q23 20 56.5 34t81.5 14q40 0 75-12.5t61-39 41-68.5 15-101-18.5-106-52-79.5T368 5 261-12q-44 0-83.5 9.5t-71 31.5-53 57.5T25 174l131 27q6-43 30-68.5t75-25.5q22 0 41.5 7.5t34.5 23 24 39.5 9 57-8 54.5-21.5 34-31 17.5-35.5 5q-32 0-59-14t-47-34l-98 41z"/><glyph glyph-name="six.tf" d="M396 532q-8 51-29 69.5T311 620q-34 0-58-20.5T213.5 546t-23-74-7.5-82q26 23 66 39t90 16q43 0 79-13t61.5-39 40-65.5T534 236q0-64-19-110.5t-52-77T385 3t-97-15q-75 0-123.5 27.5T88 91 49 204 38 344q0 42 5 87.5T60.5 521 94 604t52.5 68.5 75 47T323 737q37 0 70-8t60-27.5 47-51.5 30-81zM191 287q1-36 5-69.5t15-59 30-40.5 51-15q45 0 67 33t22 89q0 54-19 80.5T296 332q-27 0-56-14t-49-31z"/><glyph glyph-name="seven.tf" d="M96-1l279 595H57v130h475V608L256-1H96z"/><glyph glyph-name="eight.tf" d="M406 394q73-33 106-77t33-119q0-43-19-81.5t-54-67-85.5-45T272-12q-66 0-114 15.5T79 45t-46 60-15 72q0 66 33 113.5T157 371q-61 29-86 72.5T46 538q0 47 18 84t50.5 62.5 78 39T294 737q114 0 173-46.5T526 568q0-62-32-101t-88-73zm-155-79q-35-20-60-48t-25-74q0-41 25-65.5t84-24.5q55 0 82 26t27 63q0 26-11 44.5t-30 33-43 25-49 20.5zm54 130q35 21 55.5 49.5T381 556q0 35-21 53.5T291 628q-40 0-64.5-18T202 559q0-40 27-65t76-49z"/><glyph glyph-name="nine.tf" d="M161 200q9-51 31-74t64-23q33 0 57 18.5t39.5 50 23.5 73 9 87.5q-26-23-66.5-37.5T228 280q-43 0-79 13t-61.5 39-40 66T33 492q0 63 19.5 109t53.5 76 79.5 45 98.5 15q73 0 120-27.5t75-75.5 39-113 11-140q0-66-10.5-136T478 118t-84-93.5T252-12q-41 0-78 8t-66.5 28T57 77t-30 83zm215 235q-2 39-6 73t-14.5 59-30 39.5T275 621q-45 0-67-31.5T186 501q0-54 20-82.5t66-28.5q27 0 54.5 12.5T376 435z"/><glyph glyph-name="dollar.tf" d="M286 594q-47 0-68-20t-21-51q0-45 33.5-67.5T326 417q37-10 74-23t66-35.5 47.5-58T532 211q0-47-15-84t-41.5-63-62-42.5T337-2v-80H209v80q-33 4-64 16T89 49t-42 59.5T24 198l132 25q4-28 11.5-49t21-35.5 35.5-22 55-7.5q47 0 76 19.5t29 61.5q0 25-11.5 41T342 258t-44 18.5-52 15.5q-36 10-72 23.5T109 352t-47 59-18 90q0 42 13.5 75.5t37 58.5 55 42 67.5 25v90h127v-89q34-4 64-16.5t53-35 37.5-56T516 515l-134-16q-7 47-26.5 71T286 594z"/><glyph glyph-name="Euro.tf" d="M307-12q-118 0-180.5 63T47 242h-81l15 88h59v52h-52l15 88h45q21 130 90 199t184 69q49 0 91.5-12.5t74-40.5 50.5-73.5T560 500l-132-14q-5 71-29 99.5T321 614q-55 0-84-36.5T197 470h196l-15-88H191v-52h180l-15-88H198q10-67 37.5-98t78.5-31q29 0 48.5 7.5t33 22.5 21.5 36.5 14 48.5l126-22q-8-64-33.5-106T463 33 387-2t-80-10z"/><glyph glyph-name="cent.tf" d="M362 711V607q66-12 107-58.5T516 428l-136-20q-5 46-21.5 68T304 498q-21 0-38.5-5.5t-31-20.5-21-40.5T206 366q0-71 22-107t76-36q42 0 61 20.5t27 66.5l126-23q-11-75-55-118.5T354 112V0H227v112q-89 17-132.5 82T51 351q0 106 48.5 170.5T235 605v106h127z"/><glyph glyph-name="sterling.tf" d="M68 120q35 31 51.5 58t16.5 65q0 32-17 69H23v110h65q-12 21-26 51.5T48 543q0 43 17 79t49.5 61.5T193 723t104 14q100 0 159-43.5T531 546l-134-23q-3 21-9 39.5T371 595t-29 22-45 8q-92 0-92-84 0-32 13-62t27-57h193V312H273q11-28 11-60 0-38-13.5-68.5T223 120h105q31 0 51 5t33 16 19.5 29.5T443 215l127-22q-8-101-62-147T342 0H9v120h59z"/><glyph glyph-name="yen.tf" d="M401 417h88v-94H360v-69h129v-94H360V0H209v160H82v94h127v69H82v94h83L6 724h162l119-253h4l115 253h151z"/><glyph glyph-name="florin.tf" d="M472 565q-7 28-18 48t-39 20q-27 0-40.5-15.5T355 569l-23-121h131l-15-97H316L248-4q-8-44-23-77.5T186-137t-58.5-33T44-181q-39 0-67.5 10t-49 28-33.5 41.5-20 50.5L-6-9q7-28 18.5-47T53-75q27 0 39 14.5T111-12l69 363H88l16 97h93l22 111q9 44 23.5 77.5t38.5 56 58.5 33.5 82.5 11q39 0 67.5-10t49-27.5 33-41T591 608z"/><glyph glyph-name="zeroslash.tosf" d="M279-12q-75 0-124.5 21.5T75.5 71 34 167 22 291t14 123.5 46 95 83.5 61T291 592q75 0 124-21t78.5-60 41.5-93 12-120q0-71-14-128t-45.5-97.5T405 10 279-12zm6 114q56 0 79 44t23 147q0 86-16 128l-94-319h8zM183 289q0-43 3.5-75t12.5-55l96 316h-6q-57 0-81.5-42.5T183 289z"/><glyph glyph-name="zero.tosf" d="M279-12q-75 0-124.5 21.5T75.5 71 34 167 22 291t14 123.5 46 95 83.5 61T291 592q75 0 124-21t78.5-60 41.5-93 12-120q0-71-14-128t-45.5-97.5T405 10 279-12zm6 114q56 0 79 44t23 147q0 99-21.5 140.5T289 475q-57 0-81.5-42.5T183 289q0-99 22-143t80-44z"/><glyph glyph-name="one.tosf" d="M109 130h136v272q-12-7-33-13t-44-10-44-6-33-2l-7 124q66 5 119.5 24.5T292 578h103V130h114V0H109v130z"/><glyph glyph-name="two.tosf" d="M297 592q103 0 155.5-47T505 419q0-37-8.5-65.5t-26.5-54-46.5-50T355 197l-90-64v-3h250V0H70v122l138 114q42 34 70 57.5t44.5 42T346 371t7 38q0 35-18.5 52T281 478q-48 0-66.5-26T188 378L56 404q9 55 32 91t55 57.5 71.5 30.5 82.5 9z"/><glyph glyph-name="three.tosf" d="M164 129q6-46 29.5-70.5T268 34q20 0 38 4.5T337.5 53 359 79t8 39q0 48-28 65.5T255 201h-74v112h49q62 0 94.5 23.5T357 404q0 31-17 52t-63 21q-47 0-68.5-23T177 387L49 413q10 51 33 85.5t55 55 71.5 29.5 81.5 9q103 0 159.5-41.5T506 426q0-34-11.5-60t-30-45-41.5-31.5-45-18.5v-3q63-9 102.5-48.5T520 110q0-49-19.5-85.5T447-36t-80.5-35.5T265-83q-42 0-81.5 9t-71 30.5-53 57T32 101z"/><glyph glyph-name="four.tosf" d="M326-67V66H30v107l259 405h184V188h74V66h-75V-67H326zm0 255v259L157 188h169z"/><glyph glyph-name="five.tosf" d="M102 576h381V447H214l-15-141q23 18 56.5 32t81.5 14q40 0 74.5-13t59.5-38.5 39.5-64.5 14.5-91q0-53-19-95.5t-52.5-72-79.5-45T274-83q-45 0-85 9.5t-72 31-53.5 56T35 99l133 26q6-39 29-64t74-25q44 0 74 25t30 81q0 53-27.5 74T283 237q-32 0-57.5-13.5T177 187l-98 41z"/><glyph glyph-name="six.tosf" d="M398 458q-8 41-27 62.5T311 542q-32 0-55-14.5t-37.5-40T197 427t-7-75q30 26 70.5 40.5T349 407q40 0 74.5-12t59.5-36.5 39-61.5 14-86q0-59-19.5-101.5T464 40 386.5.5 292-12q-72 0-119.5 25T97 82.5 57.5 187 46 316q0 59 12.5 119.5t44 109.5 84.5 80 134 31q84 0 136-39t72-124zM199 250q1-24 4.5-50.5t14-48.5 29.5-36.5 51-14.5q46 0 68 29t22 74q0 93-80 93-30 0-60.5-14.5T199 250z"/><glyph glyph-name="seven.tosf" d="M98-67l272 513H57v130h469V459L257-67H98z"/><glyph glyph-name="eight.tosf" d="M410 355q61-27 96.5-66.5T542 184q0-46-18.5-82.5t-53-61.5-84-38.5T276-12Q155-12 91 34.5T27 156q0 63 33 103t98 70q-51 23-77 59t-26 89q0 41 18.5 74t51.5 56.5 78 36.5 99 13q104 0 161-41t57-109q0-30-9-53t-24-41-35-32-42-26zm-156-83q-32-19-55.5-42.5T175 169q0-33 25.5-52.5T280 97q52 0 77 20t25 55q0 19-10.5 33.5t-28 26-41 21.5-48.5 19zm57 127q29 20 50.5 40t21.5 52q0 31-22.5 46.5T297 553q-35 0-59.5-15.5T213 487q0-17 8-29.5t21.5-22.5 31-18.5T311 399z"/><glyph glyph-name="nine.tosf" d="M167 116q8-40 31-63t66-23q33 0 56 15.5T357.5 87t21 60.5T385 220q-30-27-71.5-40T225 167q-40 0-74.5 12.5t-59.5 37T52 278t-14 87q0 59 19.5 102.5T110 539t77 41.5 94 13.5q70 0 117.5-25t75.5-69 40-103 12-127q0-66-11-129.5t-40.5-113-81-79.5T260-82q-93 0-152.5 41T35 81zm207 207q0 27-4 54.5T355.5 428 326 465.5 275 480q-45 0-67-28.5T186 378q0-49 18.5-75.5T265 276q31 0 60 13.5t49 33.5z"/><glyph glyph-name="dollar.tosf" d="M283 538q-42 0-63.5-18.5T198 472q0-21 9.5-35.5t27.5-25 42.5-18.5 54.5-15q33-9 66-20.5t59.5-32T500 274t16-78q0-84-48-131T341 5v-87H214V6q-32 5-61 16.5T101.5 56t-37 55T47 192l123 19q4-25 10-45.5t18.5-35.5 33.5-23 54-8q48 0 71 21t23 56q0 21-10 35t-27 23.5-41 16.5-52 14q-36 9-69.5 20.5T121 317t-42 51.5T63 449q0 37 12 67t33 52.5 50 37.5 63 23v87h128v-84q31-5 57.5-16.5t46.5-32 32-50.5 15-72l-125-14q-5 48-25 69.5T283 538z"/><glyph glyph-name="Euro.tosf" d="M204 341v-52h161l-16-88H214q11-48 37-70t71-22q25 0 42.5 6.5t29 20 19 33T425 214l133-21q-8-59-31-98t-56-63-72.5-34T320-12q-118 0-178.5 55T63 201h-88l15 88h64v52H-3l15 88h52q21 105 86.5 167T332 658q46 0 86.5-12t71-39 49-69.5T560 434l-135-14q-5 60-25.5 89.5T327 539q-44 0-72.5-26T213 429h174l-16-88H204z"/><glyph glyph-name="cent.tosf" d="M368 634V530q66-12 107-58.5T522 351l-136-20q-5 46-21.5 68T310 421q-21 0-38.5-5.5t-31-20.5-21-40.5T212 289q0-71 22-107t76-36q42 0 61 20.5t27 66.5l126-23q-11-75-55-118.5T360 35V-77H233V35q-89 17-132.5 82T57 274q0 106 48.5 170.5T241 528v106h127z"/><glyph glyph-name="sterling.tosf" d="M71 117q23 23 34.5 46t11.5 56q0 28-10 52H11v104h64q-8 17-15 38t-7 54q0 40 16 75t47 60 76 39.5T295 656q100 0 159-42.5T531 470l-132-28q-3 21-8.5 39.5t-17 32.5-30.5 22-49 8q-39 0-67-17.5T199 463q0-25 7.5-47t17.5-41h198V271H252q9-24 9-47 0-35-11.5-59.5T216 117h105q31 0 51.5 5.5t33.5 17 20 30 12 44.5l125-21q-8-101-62-147T335 0H13v117h58z"/><glyph glyph-name="yen.tosf" d="M365 211h129v-89H365V0H214v122H87v89h127v66H87v89h86L10 632h163l119-211h3l115 211h152L402 366h92v-89H365v-66z"/><glyph glyph-name="florin.tosf" d="M484 484q-8 28-18.5 48T427 552q-27 0-40.5-15.5T366 488l-19-101h132l-16-96H331L279 11q-8-44-22.5-77.5t-39-55.5-60-33T72-166q-38 0-66 10t-48 28-33 41.5T-95-36L25 6q7-28 18.5-47T84-60q27 0 39.5 14.5T142 3l54 288h-92l16 96h92l18 92q9 44 23.5 77t38.5 55.5 59 33.5 83 11q39 0 67.5-10t48.5-27.5 32.5-41T603 527z"/><glyph glyph-name="idotaccent" horiz-adv-x="268" d="M211 0H60v521h151V0zm16 681q0-44-24-68t-67-24q-44 0-67.5 24T45 681t23.5 67.5T136 772q43 0 67-23.5t24-67.5z"/><glyph glyph-name="s_p" horiz-adv-x="1080" d="M547 521h128l9-53q34 34 76.5 49t86.5 15q42 0 77.5-13.5t62-44.5 41.5-80.5 15-121.5q0-78-17-132t-46-87.5-67.5-49T831-12q-48 0-80.5 13.5T693 38v-250H547v733zm149-377q11-11 37-23t54-12q53 0 75.5 41.5T885 268q0 79-23 111.5T793 412q-26 0-53-13t-44-27V144zM257 532q89 0 139-36t69-102l-124-39q-10 33-29 52t-61 19q-66 0-66-46 0-14 8-23.5t22-15.5 33.5-10 42.5-8q34-6 67-14.5t58.5-25 41.5-45 16-74.5q0-45-18-78t-48.5-54.5T335-1t-90-11Q144-12 90.5 27T23 131l123 40q4-15 11-29t19-25.5 29.5-18T250 92q75 0 75 49 0 29-25.5 38.5T228 197q-34 6-67.5 15T100 238.5 56.5 285 40 362q0 43 17.5 75t47.5 53 69 31.5 83 10.5z"/><glyph glyph-name="c_t" horiz-adv-x="922" d="M914 25q-20-13-61.5-25T761-12q-82 0-124 39.5T595 157v518l151 20V521h138V411H746V178q0-35 12.5-52.5T807 108q23 0 47 7.5t39 16.5zM285-12q-65 0-112.5 19.5T94 62t-45.5 83.5T34 252q0 135 69 207.5T300 532q94 0 151.5-50.5T517 335l-135-20q-5 49-22.5 75T297 416q-21 0-40.5-6T223 387.5 200.5 342t-8.5-74 7-76 20.5-50 32.5-27.5 43-8.5q44 0 67 22.5t30 72.5l127-24q-7-49-27-84.5t-51-59T370.5-1 285-12z"/><glyph glyph-name="c_h" horiz-adv-x="1122" d="M1068 0H917v329q0 42-17 61t-52 19q-31 0-59-13.5T746 368V0H595v755h150V473q28 22 66.5 40.5T906 532q85 0 123.5-43t38.5-133V0zM285-12q-65 0-112.5 19.5T94 62t-45.5 83.5T34 252q0 135 69 207.5T300 532q94 0 151.5-50.5T517 335l-135-20q-5 49-22.5 75T297 416q-21 0-40.5-6T223 387.5 200.5 342t-8.5-74 7-76 20.5-50 32.5-27.5 43-8.5q44 0 67 22.5t30 72.5l127-24q-7-49-27-84.5t-51-59T370.5-1 285-12z"/><glyph glyph-name="c_k" horiz-adv-x="1098" d="M285-12q-65 0-112.5 19.5T94 62t-45.5 83.5T34 252q0 135 69 207.5T300 532q94 0 151.5-50.5T517 335l-135-20q-5 49-22.5 75T297 416q-21 0-40.5-6T223 387.5 200.5 342t-8.5-74 7-76 20.5-50 32.5-27.5 43-8.5q44 0 67 22.5t30 72.5l127-24q-7-49-27-84.5t-51-59T370.5-1 285-12zm459 351l172 182h167L910 334 1096 0H929L794 238l-50-49V0H593v755h151V339z"/><glyph glyph-name="T_h" horiz-adv-x="1094" d="M1040 0H889v329q0 42-16.5 61T821 409q-32 0-60-13.5T718 368V0H567v594H376V0H221v594H8v130h559v31h150V472q29 25 67.5 42.5T878 532q85 0 123.5-43t38.5-133V0z"/><glyph glyph-name="commaaccent" horiz-adv-x="500" d="M199-68h140l-83-206-103 15z"/><glyph glyph-name="revcommaaccent" horiz-adv-x="500" d="M311 569H171l83 207 103-15z"/><glyph glyph-name="caron.alt" horiz-adv-x="500" d="M198 755h138l-66-202-105 9z"/><glyph glyph-name="tilde.cap" horiz-adv-x="500" d="M175 930q24 0 44-6.5t37.5-15 33.5-15 33-6.5 23.5 9.5T353 931l76-4q7-62-15.5-101.5T338 786q-26 0-47 7t-39 15-34 15-32 7-24-9.5-4-37.5l-82 3q-8 66 20 105t79 39z"/><glyph glyph-name="ring.cap" horiz-adv-x="500" d="M366 835q0-53-32.5-80.5T250 727t-83 26.5-32 77.5q0 28 9 48.5t25 34.5 37 21 44 7q48 0 82-26.5t34-80.5zm-116-47q22 0 34.5 12t12.5 37q0 23-12.5 34.5T250 883q-21 0-35-11.5T201 836t13-36 36-12z"/><glyph glyph-name="circumflex.cap" horiz-adv-x="500" d="M252 841l-75-73-102 7 107 142h140l102-142-100-6z"/><glyph glyph-name="acute.cap" horiz-adv-x="500" d="M269 768l-107 8 91 140h162z"/><glyph glyph-name="grave.cap" horiz-adv-x="500" d="M84 916h162l91-140-107-8z"/><glyph glyph-name="dieresis.cap" horiz-adv-x="500" d="M221 858q0-38-24.5-60.5T133 775q-41 0-66 22.5T42 858t25 61 66 23q39 0 63.5-23t24.5-61zm235 0q0-38-24-60.5T368 775q-41 0-65.5 22.5T278 858t24.5 61 65.5 23q40 0 64-23t24-61z"/><glyph glyph-name="caron.cap" horiz-adv-x="500" d="M249 846l75 73 102-7-107-142H179L77 912l100 6z"/><glyph glyph-name="macron.cap" horiz-adv-x="500" d="M91 784v103h317V784H91z"/><glyph glyph-name="dotaccent.cap" horiz-adv-x="500" d="M340 868q0-45-23.5-69T249 775q-43 0-66.5 24T159 868q0 44 23.5 67t66.5 23q44 0 67.5-23t23.5-67z"/><glyph glyph-name="cedilla.cap" horiz-adv-x="500" d="M157-162q12-3 23.5-5t24.5-2q23 0 36.5 8.5T255-132q0 23-17 29.5T191-95l16 125 72-8-9-67q16-3 31.5-9T329-71t19-27 7-39q0-55-37.5-82T224-246q-46 0-82 14z"/><glyph glyph-name="hungarumlaut.cap" horiz-adv-x="500" d="M217 768l-97 12 50 135h154zm156 0l-101 8 92 144h162z"/><glyph glyph-name="commaaccent.cap" horiz-adv-x="500" d="M199-68h140l-83-206-103 15z"/><glyph glyph-name="breve.cap" horiz-adv-x="500" d="M255 861q32 0 50 14.5t26 52.5l96-6q-8-81-55.5-117T250 769q-72 0-116.5 35.5T84 920l100 10q6-38 22.5-53.5T255 861z"/><glyph glyph-name="ogonek.cap" horiz-adv-x="500" d="M382-139q-17-49-54.5-75T242-240q-57 0-86.5 25.5T126-142q0 27 11 50.5t29 44 40.5 38T252 23l71-17q-38-37-61.5-65T238-117q0-33 31-33 14 0 26 9.5t22 31.5z"/><glyph glyph-name="hyphensuperior" horiz-adv-x="220" d="M20 489v102h179V489H20z"/><glyph glyph-name="commasuperior" horiz-adv-x="199" d="M36 455h128L92 269l-101 8z"/><glyph glyph-name="periodsuperior" horiz-adv-x="214" d="M182 408q0-32-18-49t-56-17q-76 0-76 66 0 68 76 68 74 0 74-68z"/><glyph glyph-name="a.sup" horiz-adv-x="397" d="M341 444q0-18 8-23.5t30 1.5l3-66q-11-5-28.5-9t-35.5-4q-32 0-52.5 10.5T238 390q-17-21-42-34.5T133 342q-33 0-54 9.5T46 375t-16 30-4 29q0 40 20.5 63.5t50.5 35 65 15 64 3.5v13q0 22-6.5 37.5T182 617q-22 0-32.5-11T135 571L35 589q4 24 14.5 44T79 668t46.5 23 65.5 8q75 0 112.5-28.5T341 578V444zm-114 44q-10 0-24-.5t-27-4.5-22.5-11.5T144 449q0-13 7.5-21.5T180 419q16 0 28 6t19 12v51z"/><glyph glyph-name="b.sup" horiz-adv-x="420" d="M40 350v493h116V663q39 36 103 36 27 0 51.5-9t43-29 29-52.5T393 529q0-50-11-85.5t-31-58-47-33-60-10.5q-34 0-57 11t-39 27h-4l-5-30H40zm117 98q9-6 23-12.5t31-6.5q29 0 43.5 22.5T269 525q0 18-2.5 33.5t-9 27T240 604t-28 7q-14 0-29.5-6.5T157 590V448z"/><glyph glyph-name="c.sup" horiz-adv-x="385" d="M201 342q-90 0-133 48.5T25 514q0 89 48.5 137T212 699q68 0 108.5-34.5T366 566l-104-14q-3 30-13 46.5T210 615q-26 0-44-18.5T148 526q0-51 15.5-73.5T210 430q53 0 62 62l95-22q-9-66-54-97t-112-31z"/><glyph glyph-name="d.sup" horiz-adv-x="419" d="M380 350h-98l-7 33q-1 0-1 .5t-1 .5q-17-20-42-31t-60-11q-64 0-104 40T27 514q0 52 13.5 87T76 658t49.5 31.5T180 699q30 0 50.5-7t37.5-21v172h112V350zM263 597q-19 16-47 16-35 0-50-27t-15-68q0-42 14.5-66t47.5-24q28 0 50 19v150z"/><glyph glyph-name="e.sup" horiz-adv-x="386" d="M204 342q-49 0-83 14.5T65.5 396t-31 57-9.5 67q0 46 14 80t38 56 56.5 32.5T203 699q84 0 121-43.5T361 539v-21.5l-1-21.5H149q-3-70 62-70 25 0 38 12t17 32l94-23q-9-48-48-76.5T204 342zm36 219q1 34-11 46.5T197 620q-17 0-32-13.5T150 561h90z"/><glyph glyph-name="f.sup" horiz-adv-x="270" d="M274 760q-11 3-23 5.5t-24 2.5q-25 0-40-9.5T172 714v-22h93v-80h-93V350H54v262H7v80h47v35q0 65 39 95t101 30q31 0 53-5t31-9z"/><glyph glyph-name="g.sup" horiz-adv-x="397" d="M195 699q28 0 51.5-4t40.5-13q25 53 69 53 18 0 38-6v-70q-16 2-34 1t-34-6q17-17 24-36.5t7-40.5q0-58-44-90.5T197 454q-36 0-65 7-9-9-9-18 0-6 5.5-10.5T150 426l108-8q59-4 91.5-24t32.5-72q0-32-14-54.5t-39.5-37-60-21T192 203q-98 0-137.5 20.5T15 281q0 23 17.5 39T82 340v1q-55 17-55 61 0 26 17 44.5T83 480q-23 14-37 36t-14 56q0 31 13.5 55t36 40 52 24 61.5 8zm58-122q0 25-14 37.5T200 627t-41.5-12-16.5-38q0-49 56-49 24 0 39.5 13t15.5 36zm17-279q0 11-8 17t-34 8l-93 5q-16-10-16-26 0-10 7.5-16t19-9 26-4 28.5-1q29 0 49.5 4t20.5 22z"/><glyph glyph-name="h.sup" horiz-adv-x="411" d="M374 350H257v215q0 47-42 47-18 0-34-7.5T156 589V350H39v493h116V663q17 15 43 25.5t64 10.5q58 0 85-28t27-87V350z"/><glyph glyph-name="i.sup" horiz-adv-x="198" d="M158 350H41v342h117V350zm11 446q0-31-18.5-48T99 731q-32 0-49.5 17T32 796q0 64 67 64 33 0 51.5-16.5T169 796z"/><glyph glyph-name="j.sup" horiz-adv-x="198" d="M22 204q-32 0-56 6.5T-68 224l7 83q8-4 24-8.5t34-4.5q17 0 30.5 9.5T41 344v348h118V328q0-33-10.5-56.5T120 233t-43-22-55-7zm147 592q0-30-18.5-47.5T100 731t-50 17.5T32 796q0 31 18 48t50 17 50.5-17 18.5-48z"/><glyph glyph-name="k.sup" horiz-adv-x="405" d="M158 580l107 112h130L277 570l127-220H274l-88 151-28-27V350H40v493h118V580z"/><glyph glyph-name="l.sup" horiz-adv-x="198" d="M159 350H41v493h118V350z"/><glyph glyph-name="m.sup" horiz-adv-x="595" d="M156 350H39v342h100l5-29q19 16 44.5 26t59.5 10q31 0 55-8.5t38-31.5q17 19 44 29.5t63 10.5q54 0 82-28t28-85V350H440v219q0 43-35 43-11 0-25.5-5.5T357 592V350H239v219q0 21-7.5 32T205 612q-12 0-26-5.5T156 592V350z"/><glyph glyph-name="n.sup" horiz-adv-x="411" d="M374 350H257v215q0 47-42 47-18 0-34-7.5T156 589V350H39v342h104l6-32q18 17 46 28t64 11q60 0 87.5-28t27.5-87V350z"/><glyph glyph-name="o.sup" horiz-adv-x="416" d="M203 342q-50 0-84 13t-55 36.5-30 56-9 71.5q0 83 45.5 131.5T213 699q48 0 82-13t55.5-35.5 31-54.5 9.5-69q0-85-44.5-135T203 342zm5 82q31 0 45.5 21t14.5 78q0 53-13.5 73T210 616t-46.5-21-15.5-73q0-53 13.5-75.5T208 424z"/><glyph glyph-name="p.sup" horiz-adv-x="420" d="M40 692h100l7-33q23 22 52 31t57 9 53-9 43.5-29 29-52.5T392 529q0-51-11.5-86.5t-31.5-58-46-32.5-56-10q-34 0-55 8t-38 23V211H40v481zm116-244q8-6 23-12.5t30-6.5q32 0 45.5 24.5T268 525q0 48-14 67.5T213 612q-15 0-30.5-6.5T156 590V448z"/><glyph glyph-name="q.sup" horiz-adv-x="420" d="M380 211H268v165q-19-16-43.5-25t-56.5-9q-63 0-102 40T27 515q0 51 13.5 86.5t35.5 57 49.5 31T180 699q30 0 53.5-9.5T273 659l11 33h96V211zM263 597q-21 16-49 16-34 0-48.5-26T151 520q0-39 13.5-65t48.5-26q27 0 50 18v150z"/><glyph glyph-name="r.sup" horiz-adv-x="287" d="M278 593q-35 2-67-5.5T156 563V350H39v342h100l9-55q17 24 42.5 43t69.5 19h8.5l9.5-1V593z"/><glyph glyph-name="s.sup" horiz-adv-x="359" d="M183 699q61 0 97.5-22.5T332 611l-92-29q-7 19-19.5 32T183 627q-41 0-41-25 0-18 20-25t49-12q22-3 44.5-8.5t41-16.5 30-29.5T338 461t-13-53.5-35.5-37T237 349t-63-7q-72 0-109.5 24T17 429l94 33q6-18 18.5-30.5T173 419q25 0 36.5 7.5T221 446q0 17-16.5 20.5T159 475q-24 4-46.5 10.5T72 504t-29 32-11 50q0 28 12 49.5T77 671t48.5 21 57.5 7z"/><glyph glyph-name="t.sup" horiz-adv-x="300" d="M291 369q-14-8-43.5-17.5T180 342q-59 0-89.5 27T60 457v155H7v80h53v102l118 14V692h94v-80h-94V475q0-22 8.5-33t31.5-11q15 0 31 5t27 11z"/><glyph glyph-name="u.sup" horiz-adv-x="407" d="M38 692h117V477q0-47 39-47 17 0 32.5 7.5T251 453v239h117V350H268l-9 36q-17-20-45-32t-65-12Q38 342 38 456v236z"/><glyph glyph-name="v.sup" horiz-adv-x="386" d="M124 350L0 692h127l67-237h3l68 237h121L261 350H124z"/><glyph glyph-name="w.sup" horiz-adv-x="582" d="M104 350L0 692h117l59-229h2l58 229h114l60-228h2l55 228h115L476 350H345l-54 210h-1l-47-210H104z"/><glyph glyph-name="x.sup" horiz-adv-x="384" d="M260 523l117-173H253l-66 98-65-98H11l116 170L7 692h127l64-101 64 101h113z"/><glyph glyph-name="y.sup" horiz-adv-x="381" d="M0 692h126l67-230h2l66 230h121l-70-188-67-179q-12-32-24.5-55t-29-37.5-38-21.5-51.5-7q-22 0-46 4.5T20 219l8 81q15-5 29-7.5t25-2.5q23 0 33.5 12t21.5 40z"/><glyph glyph-name="z.sup" horiz-adv-x="333" d="M154 437h160v-87H23v77l154 181H24v84h279v-80z"/><glyph glyph-name="hypheninferior" horiz-adv-x="220" d="M20-6V96h179V-6H20z"/><glyph glyph-name="commainferior" horiz-adv-x="199" d="M36-40h128L92-226l-101 8z"/><glyph glyph-name="periodinferior" horiz-adv-x="214" d="M182-87q0-32-18-49t-56-17q-76 0-76 66 0 68 76 68 74 0 74-68z"/><glyph glyph-name="minusinferior" horiz-adv-x="443" d="M92 26v94h260V26H92z"/><glyph glyph-name="plusinferior" horiz-adv-x="443" d="M171-62v86H87v95h84v83h99v-83h85V24h-85v-86h-99z"/><glyph glyph-name="equalinferior" horiz-adv-x="445" d="M92-65v94h261v-94H92zm0 134v94h261V69H92z"/><glyph glyph-name="a.sinf" horiz-adv-x="397" d="M341-51q0-18 8-23.5t30 1.5l3-66q-11-5-28.5-9t-35.5-4q-32 0-52.5 10.5T238-105q-17-21-42-34.5T133-153q-33 0-54 9.5T46-120 30-90t-4 29q0 40 20.5 63.5t50.5 35 65 15 64 3.5v13q0 22-6.5 37.5T182 122q-22 0-32.5-11T135 76L35 94q4 24 14.5 44T79 173t46.5 23 65.5 8q75 0 112.5-28.5T341 83V-51zM227-7q-10 0-24-.5T176-12t-22.5-11.5T144-46q0-13 7.5-21.5T180-76q16 0 28 6t19 12v51z"/><glyph glyph-name="b.sinf" horiz-adv-x="420" d="M40-145v493h116V168q39 36 103 36 27 0 51.5-9t43-29 29-52.5T393 34q0-50-11-85.5t-31-58-47-33-60-10.5q-34 0-57 11t-39 27h-4l-5-30H40zm117 98q9-6 23-12.5t31-6.5q29 0 43.5 22.5T269 30q0 18-2.5 33.5t-9 27T240 109t-28 7q-14 0-29.5-6.5T157 95V-47z"/><glyph glyph-name="c.sinf" horiz-adv-x="385" d="M201-153q-90 0-133 48.5T25 19q0 89 48.5 137T212 204q68 0 108.5-34.5T366 71L262 57q-3 30-13 46.5T210 120q-26 0-44-18.5T148 31q0-51 15.5-73.5T210-65q53 0 62 62l95-22q-9-66-54-97t-112-31z"/><glyph glyph-name="d.sinf" horiz-adv-x="419" d="M380-145h-98l-7 33q-1 0-1 .5t-1 .5q-17-20-42-31t-60-11q-64 0-104 40T27 19q0 52 13.5 87T76 163t49.5 31.5T180 204q30 0 50.5-7t37.5-21v172h112v-493zM263 102q-19 16-47 16-35 0-50-27t-15-68q0-42 14.5-66T213-67q28 0 50 19v150z"/><glyph glyph-name="e.sinf" horiz-adv-x="386" d="M204-153q-49 0-83 14.5T65.5-99t-31 57T25 25q0 46 14 80t38 56 56.5 32.5T203 204q84 0 121-43.5T361 44V22.5L360 1H149q-3-70 62-70 25 0 38 12t17 32l94-23q-9-48-48-76.5T204-153zm36 219q1 34-11 46.5T197 125q-17 0-32-13.5T150 66h90z"/><glyph glyph-name="f.sinf" horiz-adv-x="270" d="M274 265q-11 3-23 5.5t-24 2.5q-25 0-40-9.5T172 219v-22h93v-80h-93v-262H54v262H7v80h47v35q0 65 39 95t101 30q31 0 53-5t31-9z"/><glyph glyph-name="g.sinf" horiz-adv-x="397" d="M195 204q28 0 51.5-4t40.5-13q25 53 69 53 18 0 38-6v-70q-16 2-34 1t-34-6q17-17 24-36.5t7-40.5q0-58-44-90.5T197-41q-36 0-65 7-9-9-9-18 0-6 5.5-10.5T150-69l108-8q59-4 91.5-24t32.5-72q0-32-14-54.5t-39.5-37-60-21T192-292q-98 0-137.5 20.5T15-214q0 23 17.5 39T82-155v1q-55 17-55 61 0 26 17 44.5T83-15Q60-1 46 21T32 77q0 31 13.5 55t36 40 52 24 61.5 8zm58-122q0 25-14 37.5T200 132t-41.5-12T142 82q0-49 56-49 24 0 39.5 13T253 82zm17-279q0 11-8 17t-34 8l-93 5q-16-10-16-26 0-10 7.5-16t19-9 26-4 28.5-1q29 0 49.5 4t20.5 22z"/><glyph glyph-name="h.sinf" horiz-adv-x="411" d="M374-145H257V70q0 47-42 47-18 0-34-7.5T156 94v-239H39v493h116V168q17 15 43 25.5t64 10.5q58 0 85-28t27-87v-234z"/><glyph glyph-name="i.sinf" horiz-adv-x="198" d="M158-145H41v342h117v-342zm11 446q0-31-18.5-48T99 236q-32 0-49.5 17T32 301q0 64 67 64 33 0 51.5-16.5T169 301z"/><glyph glyph-name="j.sinf" horiz-adv-x="198" d="M22-291q-32 0-56 6.5T-68-271l7 83q8-4 24-8.5t34-4.5q17 0 30.5 9.5T41-151v348h118v-364q0-33-10.5-56.5T120-262t-43-22-55-7zm147 592q0-30-18.5-47.5T100 236t-50 17.5T32 301q0 31 18 48t50 17 50.5-17 18.5-48z"/><glyph glyph-name="k.sinf" horiz-adv-x="405" d="M158 85l107 112h130L277 75l127-220H274L186 6l-28-27v-124H40v493h118V85z"/><glyph glyph-name="l.sinf" horiz-adv-x="198" d="M159-145H41v493h118v-493z"/><glyph glyph-name="m.sinf" horiz-adv-x="595" d="M156-145H39v342h100l5-29q19 16 44.5 26t59.5 10q31 0 55-8.5t38-31.5q17 19 44 29.5t63 10.5q54 0 82-28t28-85v-236H440V74q0 43-35 43-11 0-25.5-5.5T357 97v-242H239V74q0 21-7.5 32T205 117q-12 0-26-5.5T156 97v-242z"/><glyph glyph-name="n.sinf" horiz-adv-x="411" d="M374-145H257V70q0 47-42 47-18 0-34-7.5T156 94v-239H39v342h104l6-32q18 17 46 28t64 11q60 0 87.5-28T374 89v-234z"/><glyph glyph-name="o.sinf" horiz-adv-x="416" d="M203-153q-50 0-84 13t-55 36.5-30 56T25 24q0 83 45.5 131.5T213 204q48 0 82-13t55.5-35.5 31-54.5 9.5-69q0-85-44.5-135T203-153zm5 82q31 0 45.5 21T268 28q0 53-13.5 73T210 121t-46.5-21T148 27q0-53 13.5-75.5T208-71z"/><glyph glyph-name="p.sinf" horiz-adv-x="420" d="M40 197h100l7-33q23 22 52 31t57 9 53-9 43.5-29 29-52.5T392 34q0-51-11.5-86.5t-31.5-58-46-32.5-56-10q-34 0-55 8t-38 23v-162H40v481zM156-47q8-6 23-12.5t30-6.5q32 0 45.5 24.5T268 30q0 48-14 67.5T213 117q-15 0-30.5-6.5T156 95V-47z"/><glyph glyph-name="q.sinf" horiz-adv-x="420" d="M380-284H268v165q-19-16-43.5-25t-56.5-9q-63 0-102 40T27 20q0 51 13.5 86.5t35.5 57 49.5 31T180 204q30 0 53.5-9.5T273 164l11 33h96v-481zM263 102q-21 16-49 16-34 0-48.5-26T151 25q0-39 13.5-65T213-66q27 0 50 18v150z"/><glyph glyph-name="r.sinf" horiz-adv-x="287" d="M278 98q-35 2-67-5.5T156 68v-213H39v342h100l9-55q17 24 42.5 43t69.5 19h8.5l9.5-1V98z"/><glyph glyph-name="s.sinf" horiz-adv-x="359" d="M183 204q61 0 97.5-22.5T332 116l-92-29q-7 19-19.5 32T183 132q-41 0-41-25 0-18 20-25t49-12q22-3 44.5-8.5t41-16.5 30-29.5T338-34t-13-53.5-35.5-37T237-146t-63-7q-72 0-109.5 24T17-66l94 33q6-18 18.5-30.5T173-76q25 0 36.5 7.5T221-49q0 17-16.5 20.5T159-20q-24 4-46.5 10.5T72 9 43 41 32 91q0 28 12 49.5T77 176t48.5 21 57.5 7z"/><glyph glyph-name="t.sinf" horiz-adv-x="300" d="M291-126q-14-8-43.5-17.5T180-153q-59 0-89.5 27T60-38v155H7v80h53v102l118 14V197h94v-80h-94V-20q0-22 8.5-33T218-64q15 0 31 5t27 11z"/><glyph glyph-name="u.sinf" horiz-adv-x="407" d="M38 197h117V-18q0-47 39-47 17 0 32.5 7.5T251-42v239h117v-342H268l-9 36q-17-20-45-32t-65-12Q38-153 38-39v236z"/><glyph glyph-name="v.sinf" horiz-adv-x="386" d="M124-145L0 197h127l67-237h3l68 237h121L261-145H124z"/><glyph glyph-name="w.sinf" horiz-adv-x="582" d="M104-145L0 197h117l59-229h2l58 229h114l60-228h2l55 228h115L476-145H345L291 65h-1l-47-210H104z"/><glyph glyph-name="x.sinf" horiz-adv-x="384" d="M260 28l117-173H253l-66 98-65-98H11L127 25 7 197h127l64-101 64 101h113z"/><glyph glyph-name="y.sinf" horiz-adv-x="381" d="M0 197h126l67-230h2l66 230h121L312 9l-67-179q-12-32-24.5-55t-29-37.5-38-21.5-51.5-7q-22 0-46 4.5T20-276l8 81q15-5 29-7.5t25-2.5q23 0 33.5 12t21.5 40z"/><glyph glyph-name="z.sinf" horiz-adv-x="333" d="M154-58h160v-87H23v77l154 181H24v84h279v-80z"/><glyph glyph-name="zero.num" horiz-adv-x="430" d="M212 275q-91 0-136 56.5T31 512q0 121 50 175.5T219 742q96 0 138-54.5T399 514q0-126-45.5-182.5T212 275zm3 98q13 0 21.5 6t14 22 8 42.5T261 511q0 40-2 66t-7.5 41-14 21-20.5 6q-13 0-22-5.5T180.5 619t-8-41-2.5-67 2-67.5 7.5-42.5 14-22 21.5-6z"/><glyph glyph-name="one.num" horiz-adv-x="328" d="M137 280v314q-8-4-22-7t-29-5.5-28.5-4T36 576l-5 104q42 3 80 15.5t62 36.5h97V280H137z"/><glyph glyph-name="two.num" horiz-adv-x="405" d="M203 742q83 0 120.5-33.5T361 622q0-27-8-49.5t-24.5-45-42-46.5-61.5-54l-32-33v-4h175V282H41v108l97 97q25 25 42.5 44t28 33 15 25.5T228 613q0 34-34 34-43 0-50-57L30 605q4 36 19 62t38.5 42.5 53 24.5 62.5 8z"/><glyph glyph-name="three.num" horiz-adv-x="412" d="M136 420q3-28 16-39t36-11q21 0 34.5 11.5T236 418q0 27-12.5 38.5T179 468h-50v86h31q36 0 53 16t17 43q0 17-9 26.5t-29 9.5q-21 0-32.5-12T143 602L33 622q6 35 23 58t40 37 51.5 19.5T205 742q74 0 114.5-27.5T360 633q0-23-7.5-40.5t-19.5-30-27.5-22T273 525v-3q98-20 98-107 0-34-13.5-60t-38-44-57.5-27-72-9q-29 0-57 5.5t-51 20T42.5 339 22 399z"/><glyph glyph-name="four.num" horiz-adv-x="432" d="M235 282v92H27v89l176 271h159V474h52V374h-51v-92H235zm0 192v150l-98-150h98z"/><glyph glyph-name="five.num" horiz-adv-x="411" d="M67 734h270V629H158l-12-90 2-4q16 16 39 26t54 10q57 0 90.5-34T365 434q0-39-14-68.5t-38-50-57-30.5-71-10q-30 0-58 6t-50.5 21-38 39T19 401l112 19q2-27 16-39t37-12 37.5 15.5T236 427q0 32-14.5 43T190 481q-18 0-30.5-7T137 457l-86 27z"/><glyph glyph-name="six.num" horiz-adv-x="430" d="M279 603q-3 26-13 37t-29 11q-29 0-47-31t-19-99q15 16 40.5 27.5T272 560q23 0 45-6.5t39.5-21.5 28-39.5T395 432q0-42-14-72t-38-49-55.5-27.5T221 275q-52 0-85.5 18.5t-53 49T55 414t-8 86q0 41 8.5 84t31 78 60.5 57.5 98 22.5q26 0 50-5t44.5-18 35-35.5T395 627zM177 454q1-41 10.5-63.5T225 368q20 0 29.5 15.5T264 422q0 26-8 40.5T225 477q-14 0-27-7.5T177 454z"/><glyph glyph-name="seven.num" horiz-adv-x="379" d="M43 282l174 347H31v105h323v-95L183 282H43z"/><glyph glyph-name="eight.num" horiz-adv-x="419" d="M303 537q45-18 70-45t25-75q0-28-13-54t-38-45.5-61.5-31T202 275q-88 0-133.5 33.5T23 395q0 45 25 71t67 43q-37 14-55.5 41.5T41 614q0 31 14 55t37.5 40.5 55 24.5 67.5 8q80 0 123-28t43-78q0-32-18-57t-60-42zm-123-68q-36-23-36-55 0-22 15.5-35t44.5-13q21 0 36.5 9.5T256 406q0 23-20.5 37T180 469zm54 103q14 9 23.5 22t9.5 28q0 17-13.5 26t-33.5 9q-21 0-32.5-9.5T176 624q0-29 58-52z"/><glyph glyph-name="nine.num" horiz-adv-x="427" d="M147 421q4-23 13.5-38.5T196 367q29 0 46.5 30t18.5 95q-15-13-40.5-23T164 459q-25 0-48 6.5t-41 22T46.5 528 36 589q0 41 14.5 70T90 706.5t57 27 67 8.5q49 0 82-16.5t52.5-46.5 27.5-71.5 8-90.5q0-38-7-80.5T349 358t-59-59.5-99-23.5q-29 0-55 5t-47.5 18.5T52 334t-21 57zm104 135q-2 43-10 68t-35 25q-21 0-30-15.5t-9-36.5q0-25 9-42.5t32-17.5q26 0 43 19z"/><glyph glyph-name="parenleft.ordn" horiz-adv-x="292" d="M141 209q-19 23-36.5 52.5t-31.5 64-22.5 73T42 479q0 84 30 150t78 128h128q-20-26-38.5-55T207 640t-22.5-72-8.5-86q0-44 8.5-82.5t22.5-72 31.5-62.5 34.5-55z"/><glyph glyph-name="parenright.ordn" horiz-adv-x="309" d="M18 756q33 0 66 .5t66 .5q19-24 37-54t32.5-64.5 23-73.5 8.5-81-8-79-22-70.5-33.5-64.5-42.5-61H16q19 25 37 52.5T85.5 322t23 72.5T117 482q0 43-8.5 81T86 634.5t-32 64T18 756z"/><glyph glyph-name="hyphen.ordn" horiz-adv-x="220" d="M20 422v102h179V422H20z"/><glyph glyph-name="comma.ordn" horiz-adv-x="199" d="M36 388h128L92 202l-101 8z"/><glyph glyph-name="period.ordn" horiz-adv-x="214" d="M182 341q0-32-18-49t-56-17q-76 0-76 66 0 68 76 68 74 0 74-68z"/><glyph glyph-name="minus.ordn" horiz-adv-x="443" d="M92 454v94h260v-94H92z"/><glyph glyph-name="plus.ordn" horiz-adv-x="443" d="M171 366v86H87v95h84v83h99v-83h85v-95h-85v-86h-99z"/><glyph glyph-name="equal.ordn" horiz-adv-x="445" d="M92 363v94h261v-94H92zm0 134v94h261v-94H92z"/><glyph glyph-name="a.ordn" horiz-adv-x="397" d="M341 377q0-18 8-23.5t30 1.5l3-66q-11-5-28.5-9t-35.5-4q-32 0-52.5 10.5T238 323q-17-21-42-34.5T133 275q-33 0-54 9.5T46 308t-16 30-4 29q0 40 20.5 63.5t50.5 35 65 15 64 3.5v13q0 22-6.5 37.5T182 550q-22 0-32.5-11T135 504L35 522q4 24 14.5 44T79 601t46.5 23 65.5 8q75 0 112.5-28.5T341 511V377zm-114 44q-10 0-24-.5t-27-4.5-22.5-11.5T144 382q0-13 7.5-21.5T180 352q16 0 28 6t19 12v51z"/><glyph glyph-name="b.ordn" horiz-adv-x="420" d="M40 283v493h116V596q39 36 103 36 27 0 51.5-9t43-29 29-52.5T393 462q0-50-11-85.5t-31-58-47-33-60-10.5q-34 0-57 11t-39 27h-4l-5-30H40zm117 98q9-6 23-12.5t31-6.5q29 0 43.5 22.5T269 458q0 18-2.5 33.5t-9 27T240 537t-28 7q-14 0-29.5-6.5T157 523V381z"/><glyph glyph-name="c.ordn" horiz-adv-x="385" d="M201 275q-90 0-133 48.5T25 447q0 89 48.5 137T212 632q68 0 108.5-34.5T366 499l-104-14q-3 30-13 46.5T210 548q-26 0-44-18.5T148 459q0-51 15.5-73.5T210 363q53 0 62 62l95-22q-9-66-54-97t-112-31z"/><glyph glyph-name="d.ordn" horiz-adv-x="419" d="M380 283h-98l-7 33q-1 0-1 .5t-1 .5q-17-20-42-31t-60-11q-64 0-104 40T27 447q0 52 13.5 87T76 591t49.5 31.5T180 632q30 0 50.5-7t37.5-21v172h112V283zM263 530q-19 16-47 16-35 0-50-27t-15-68q0-42 14.5-66t47.5-24q28 0 50 19v150z"/><glyph glyph-name="e.ordn" horiz-adv-x="386" d="M204 275q-49 0-83 14.5T65.5 329t-31 57-9.5 67q0 46 14 80t38 56 56.5 32.5T203 632q84 0 121-43.5T361 472v-21.5l-1-21.5H149q-3-70 62-70 25 0 38 12t17 32l94-23q-9-48-48-76.5T204 275zm36 219q1 34-11 46.5T197 553q-17 0-32-13.5T150 494h90z"/><glyph glyph-name="f.ordn" horiz-adv-x="270" d="M274 693q-11 3-23 5.5t-24 2.5q-25 0-40-9.5T172 647v-22h93v-80h-93V283H54v262H7v80h47v35q0 65 39 95t101 30q31 0 53-5t31-9z"/><glyph glyph-name="g.ordn" horiz-adv-x="397" d="M195 632q28 0 51.5-4t40.5-13q25 53 69 53 18 0 38-6v-70q-16 2-34 1t-34-6q17-17 24-36.5t7-40.5q0-58-44-90.5T197 387q-36 0-65 7-9-9-9-18 0-6 5.5-10.5T150 359l108-8q59-4 91.5-24t32.5-72q0-32-14-54.5t-39.5-37-60-21T192 136q-98 0-137.5 20.5T15 214q0 23 17.5 39T82 273v1q-55 17-55 61 0 26 17 44.5T83 413q-23 14-37 36t-14 56q0 31 13.5 55t36 40 52 24 61.5 8zm58-122q0 25-14 37.5T200 560t-41.5-12-16.5-38q0-49 56-49 24 0 39.5 13t15.5 36zm17-279q0 11-8 17t-34 8l-93 5q-16-10-16-26 0-10 7.5-16t19-9 26-4 28.5-1q29 0 49.5 4t20.5 22z"/><glyph glyph-name="h.ordn" horiz-adv-x="411" d="M374 283H257v215q0 47-42 47-18 0-34-7.5T156 522V283H39v493h116V596q17 15 43 25.5t64 10.5q58 0 85-28t27-87V283z"/><glyph glyph-name="i.ordn" horiz-adv-x="198" d="M158 283H41v342h117V283zm11 446q0-31-18.5-48T99 664q-32 0-49.5 17T32 729q0 64 67 64 33 0 51.5-16.5T169 729z"/><glyph glyph-name="j.ordn" horiz-adv-x="198" d="M22 137q-32 0-56 6.5T-68 157l7 83q8-4 24-8.5t34-4.5q17 0 30.5 9.5T41 277v348h118V261q0-33-10.5-56.5T120 166t-43-22-55-7zm147 592q0-30-18.5-47.5T100 664t-50 17.5T32 729q0 31 18 48t50 17 50.5-17 18.5-48z"/><glyph glyph-name="k.ordn" horiz-adv-x="405" d="M158 513l107 112h130L277 503l127-220H274l-88 151-28-27V283H40v493h118V513z"/><glyph glyph-name="l.ordn" horiz-adv-x="198" d="M159 283H41v493h118V283z"/><glyph glyph-name="m.ordn" horiz-adv-x="595" d="M156 283H39v342h100l5-29q19 16 44.5 26t59.5 10q31 0 55-8.5t38-31.5q17 19 44 29.5t63 10.5q54 0 82-28t28-85V283H440v219q0 43-35 43-11 0-25.5-5.5T357 525V283H239v219q0 21-7.5 32T205 545q-12 0-26-5.5T156 525V283z"/><glyph glyph-name="n.ordn" horiz-adv-x="411" d="M374 283H257v215q0 47-42 47-18 0-34-7.5T156 522V283H39v342h104l6-32q18 17 46 28t64 11q60 0 87.5-28t27.5-87V283z"/><glyph glyph-name="o.ordn" horiz-adv-x="416" d="M203 275q-50 0-84 13t-55 36.5-30 56-9 71.5q0 83 45.5 131.5T213 632q48 0 82-13t55.5-35.5 31-54.5 9.5-69q0-85-44.5-135T203 275zm5 82q31 0 45.5 21t14.5 78q0 53-13.5 73T210 549t-46.5-21-15.5-73q0-53 13.5-75.5T208 357z"/><glyph glyph-name="p.ordn" horiz-adv-x="420" d="M40 625h100l7-33q23 22 52 31t57 9 53-9 43.5-29 29-52.5T392 462q0-51-11.5-86.5t-31.5-58-46-32.5-56-10q-34 0-55 8t-38 23V144H40v481zm116-244q8-6 23-12.5t30-6.5q32 0 45.5 24.5T268 458q0 48-14 67.5T213 545q-15 0-30.5-6.5T156 523V381z"/><glyph glyph-name="q.ordn" horiz-adv-x="420" d="M380 144H268v165q-19-16-43.5-25t-56.5-9q-63 0-102 40T27 448q0 51 13.5 86.5t35.5 57 49.5 31T180 632q30 0 53.5-9.5T273 592l11 33h96V144zM263 530q-21 16-49 16-34 0-48.5-26T151 453q0-39 13.5-65t48.5-26q27 0 50 18v150z"/><glyph glyph-name="r.ordn" horiz-adv-x="287" d="M278 526q-35 2-67-5.5T156 496V283H39v342h100l9-55q17 24 42.5 43t69.5 19h8.5l9.5-1V526z"/><glyph glyph-name="s.ordn" horiz-adv-x="359" d="M183 632q61 0 97.5-22.5T332 544l-92-29q-7 19-19.5 32T183 560q-41 0-41-25 0-18 20-25t49-12q22-3 44.5-8.5t41-16.5 30-29.5T338 394t-13-53.5-35.5-37T237 282t-63-7q-72 0-109.5 24T17 362l94 33q6-18 18.5-30.5T173 352q25 0 36.5 7.5T221 379q0 17-16.5 20.5T159 408q-24 4-46.5 10.5T72 437t-29 32-11 50q0 28 12 49.5T77 604t48.5 21 57.5 7z"/><glyph glyph-name="t.ordn" horiz-adv-x="300" d="M291 302q-14-8-43.5-17.5T180 275q-59 0-89.5 27T60 390v155H7v80h53v102l118 14V625h94v-80h-94V408q0-22 8.5-33t31.5-11q15 0 31 5t27 11z"/><glyph glyph-name="u.ordn" horiz-adv-x="407" d="M38 625h117V410q0-47 39-47 17 0 32.5 7.5T251 386v239h117V283H268l-9 36q-17-20-45-32t-65-12Q38 275 38 389v236z"/><glyph glyph-name="v.ordn" horiz-adv-x="386" d="M124 283L0 625h127l67-237h3l68 237h121L261 283H124z"/><glyph glyph-name="w.ordn" horiz-adv-x="582" d="M104 283L0 625h117l59-229h2l58 229h114l60-228h2l55 228h115L476 283H345l-54 210h-1l-47-210H104z"/><glyph glyph-name="x.ordn" horiz-adv-x="384" d="M260 456l117-173H253l-66 98-65-98H11l116 170L7 625h127l64-101 64 101h113z"/><glyph glyph-name="y.ordn" horiz-adv-x="381" d="M0 625h126l67-230h2l66 230h121l-70-188-67-179q-12-32-24.5-55t-29-37.5-38-21.5-51.5-7q-22 0-46 4.5T20 152l8 81q15-5 29-7.5t25-2.5q23 0 33.5 12t21.5 40z"/><glyph glyph-name="z.ordn" horiz-adv-x="333" d="M154 370h160v-87H23v77l154 181H24v84h279v-80z"/><glyph glyph-name="zero.denom" horiz-adv-x="430" d="M212-6Q121-6 76 50.5T31 231q0 121 50 175.5T219 461q96 0 138-54.5T399 233q0-126-45.5-182.5T212-6zm3 98q13 0 21.5 6t14 22 8 42.5T261 230q0 40-2 66t-7.5 41-14 21-20.5 6q-13 0-22-5.5T180.5 338t-8-41-2.5-67 2-67.5 7.5-42.5 14-22 21.5-6z"/><glyph glyph-name="one.denom" horiz-adv-x="328" d="M137-1v314q-8-4-22-7t-29-5.5-28.5-4T36 295l-5 104q42 3 80 15.5t62 36.5h97V-1H137z"/><glyph glyph-name="two.denom" horiz-adv-x="405" d="M203 461q83 0 120.5-33.5T361 341q0-27-8-49.5t-24.5-45-42-46.5-61.5-54l-32-33v-4h175V1H41v108l97 97q25 25 42.5 44t28 33 15 25.5T228 332q0 34-34 34-43 0-50-57L30 324q4 36 19 62t38.5 42.5 53 24.5 62.5 8z"/><glyph glyph-name="three.denom" horiz-adv-x="412" d="M136 139q3-28 16-39t36-11q21 0 34.5 11.5T236 137q0 27-12.5 38.5T179 187h-50v86h31q36 0 53 16t17 43q0 17-9 26.5t-29 9.5q-21 0-32.5-12T143 321L33 341q6 35 23 58t40 37 51.5 19.5T205 461q74 0 114.5-27.5T360 352q0-23-7.5-40.5t-19.5-30-27.5-22T273 244v-3q98-20 98-107 0-34-13.5-60t-38-44T262 3t-72-9q-29 0-57 5.5t-51 20T42.5 58 22 118z"/><glyph glyph-name="four.denom" horiz-adv-x="432" d="M235 1v92H27v89l176 271h159V193h52V93h-51V1H235zm0 192v150l-98-150h98z"/><glyph glyph-name="five.denom" horiz-adv-x="411" d="M67 453h270V348H158l-12-90 2-4q16 16 39 26t54 10q57 0 90.5-34T365 153q0-39-14-68.5t-38-50T256 4 185-6q-30 0-58 6T76.5 21t-38 39T19 120l112 19q2-27 16-39t37-12 37.5 15.5T236 146q0 32-14.5 43T190 200q-18 0-30.5-7T137 176l-86 27z"/><glyph glyph-name="six.denom" horiz-adv-x="430" d="M279 322q-3 26-13 37t-29 11q-29 0-47-31t-19-99q15 16 40.5 27.5T272 279q23 0 45-6.5t39.5-21.5 28-39.5T395 151q0-42-14-72t-38-49-55.5-27.5T221-6q-52 0-85.5 18.5t-53 49T55 133t-8 86q0 41 8.5 84t31 78 60.5 57.5 98 22.5q26 0 50-5t44.5-18 35-35.5T395 346zM177 173q1-41 10.5-63.5T225 87q20 0 29.5 15.5T264 141q0 26-8 40.5T225 196q-14 0-27-7.5T177 173z"/><glyph glyph-name="seven.denom" horiz-adv-x="379" d="M43 1l174 347H31v105h323v-95L183 1H43z"/><glyph glyph-name="eight.denom" horiz-adv-x="419" d="M303 256q45-18 70-45t25-75q0-28-13-54t-38-45.5-61.5-31T202-6Q114-6 68.5 27.5T23 114q0 45 25 71t67 43q-37 14-55.5 41.5T41 333q0 31 14 55t37.5 40.5 55 24.5 67.5 8q80 0 123-28t43-78q0-32-18-57t-60-42zm-123-68q-36-23-36-55 0-22 15.5-35T204 85q21 0 36.5 9.5T256 125q0 23-20.5 37T180 188zm54 103q14 9 23.5 22t9.5 28q0 17-13.5 26t-33.5 9q-21 0-32.5-9.5T176 343q0-29 58-52z"/><glyph glyph-name="nine.denom" horiz-adv-x="427" d="M147 140q4-23 13.5-38.5T196 86q29 0 46.5 30t18.5 95q-15-13-40.5-23T164 178q-25 0-48 6.5t-41 22T46.5 247 36 308q0 41 14.5 70T90 425.5t57 27 67 8.5q49 0 82-16.5t52.5-46.5 27.5-71.5 8-90.5q0-38-7-80.5T349 77t-59-59.5T191-6q-29 0-55 5T88.5 17.5 52 53t-21 57zm104 135q-2 43-10 68t-35 25q-21 0-30-15.5t-9-36.5q0-25 9-42.5t32-17.5q26 0 43 19z"/><glyph glyph-name="square" horiz-adv-x="610" d="M130 151v349h349V151H130z"/><glyph glyph-name="square.open" horiz-adv-x="610" d="M434 455H175V196h259v259zM130 151v349h349V151H130z"/><glyph glyph-name="circle.open" horiz-adv-x="610" d="M305 119q-42 0-79.5 16T160 179t-44 65.5-16 79.5 16 79.5 44 65.5 65.5 44 79.5 16 79.5-16 65.5-44 44-65.5 16-79.5-16-79.5-44-65.5-65.5-44-79.5-16zm0 48q32 0 59.5 13t48 35 32 51 11.5 61-11.5 60-32 48.5-48 32.5-59.5 12-59.5-12.5T198 434t-31.5-49.5T155 324t11.5-60.5 31.5-50 47.5-34T305 167z"/><glyph glyph-name="doublecircle" horiz-adv-x="610" d="M305 269q-23 0-38 16t-15 39q0 22 15 38.5t38 16.5 38-15.5 15-38.5-15-39.5-38-16.5zm0-89q-30 0-56 11.5t-45.5 31-31 45.5-11.5 56 11.5 56 31 45.5T249 456t56 11 56-11 45.5-30.5T437 380t11-56-11-56-30.5-45.5-45.5-31-56-11.5zm0 34q22 0 41.5 9t33.5 24.5 22.5 35.5 8.5 43q0 22-8.5 42T380 402t-33.5 22.5T305 433q-23 0-42-8.5T230 401t-22-35-8-42q0-23 8-43t22-35 33-23.5 42-8.5z"/><glyph glyph-name="triangle.left" horiz-adv-x="425" d="M90 320l185 114V203z"/><glyph glyph-name="raute" horiz-adv-x="610" d="M304 116L95 326l210 209 209-210z"/><glyph glyph-name="arrow.right" d="M36 333h335l-61 121h124l100-181L434 93H312l60 122H36v118z"/><glyph glyph-name="arrow.left" d="M534 215H198l60-122H136L36 273l100 181h124l-61-121h335V215z"/><glyph glyph-name="arrow.up" d="M225 24v336l-121-62v124l181 100 180-100V300l-122 60V24H225z"/><glyph glyph-name="arrow.down" d="M343 526V190l122 60V128L285 28 104 128v124l121-62v336h118z"/><glyph glyph-name="arrow.leftup" d="M116 450l198 57 88-89-129-42 238-237-84-83-238 238-44-130-86 87z"/><glyph glyph-name="arrow.rightup" d="M511 251l-86-87-45 130L142 56l-83 83 238 237-129 42 88 89 197-57z"/><glyph glyph-name="arrowleft.down" d="M59 313l86 86 44-130 238 238 84-83-238-238 129-41-88-89-198 57z"/><glyph glyph-name="arrowright.down" d="M453 113L256 56l-88 89 129 41L59 424l83 83 238-238 45 130 86-86z"/><glyph glyph-name="arrowright.alt" d="M302 372v115l218-214L302 55v116L65 150v247z"/><glyph glyph-name="arrowleft.alt" d="M505 397V150l-237 21V55L50 273l218 214V372z"/><glyph glyph-name="arrowup.alt" d="M410 54H163l21 237H68l218 218 214-218H385z"/><glyph glyph-name="arrowdown.alt" d="M385 259h115L286 41 68 259h116l-21 237h247z"/><glyph glyph-name="arrowleftup.alt" d="M519 207L344 32 192 215l-82-83v309l305-3-81-81z"/><glyph glyph-name="arrowrightup.alt" d="M225 32L50 207l183 152-83 82h309l-3-305-81 81z"/><glyph glyph-name="arrowleftdown.alt" d="M344 540l175-175-183-152 83-82H110l3 305 81-81z"/><glyph glyph-name="arrowrightdown.alt" d="M50 365l175 175 152-183 82 83V131l-305 3 81 81z"/><glyph glyph-name="arrowlong.left" horiz-adv-x="700" d="M50 422h438l-79 158h125l115-218-116-217H411l78 159H50v118z"/><glyph glyph-name="arrowlong.right" horiz-adv-x="700" d="M649 302H211l79-157H165L50 362l116 218h122l-78-160h439V302z"/><glyph glyph-name="arrowlong.up" horiz-adv-x="700" d="M290 64v438l-158-80v125l218 115 218-116V424l-160 78V64H290z"/><glyph glyph-name="arrowlong.down" horiz-adv-x="700" d="M408 663V225l160 78V180L350 65 132 180v125l158-80v438h118z"/><glyph glyph-name="arrowlong.leftup" horiz-adv-x="700" d="M477 560l-169-58 310-310-83-83-310 310-55-168-88 88 72 235 236 73z"/><glyph glyph-name="arrowlong.leftdown" horiz-adv-x="700" d="M310 647l236-73 72-235-88-88-55 168-310-310-83 83 310 310-169 58z"/><glyph glyph-name="arrowlong.rightup" horiz-adv-x="700" d="M390 109l-236 72-72 235 88 89 55-169 310 311 83-84-310-310 169-58z"/><glyph glyph-name="arrowlong.rightdown" horiz-adv-x="700" d="M223 195l169 58L82 563l83 84 310-311 55 169 88-89-72-235-236-72z"/><glyph glyph-name="ornm1" horiz-adv-x="600" d="M550 0H50v500h500V0z"/><glyph glyph-name="ornm2" horiz-adv-x="500" d="M255 494l43-143 147 32-102-108 102-111-147 33-43-144-44 144-148-33 102 111L63 383l148-32z"/><glyph glyph-name="ornm3" horiz-adv-x="500" d="M252 489l48-137 144-4-116-87 43-140-119 83-120-83 43 140-116 87 144 4z"/><glyph glyph-name="ornm4" horiz-adv-x="500" d="M203 352l48 134V203l-119-82 43 140-116 87z"/><glyph glyph-name="ornm5" horiz-adv-x="500" d="M300 352l144-4-116-87 43-140-119 83v285z"/><glyph glyph-name="ornm6" horiz-adv-x="752" d="M589 529l113-105L312-1 50 203l95 114 146-122z"/><glyph glyph-name="ornm7" horiz-adv-x="634" d="M50 404l105 113 155-143 145 157 113-105-144-158 160-147L478 6 319 154 178 0 63 106l142 154z"/><glyph glyph-name="ornm8" horiz-adv-x="844" d="M50 377q0 48 17 90t47.5 72.5T187 588t91 18q51 0 93.5-16.5t73-46.5 47.5-71.5 17-92.5q0-29-5.5-54T488 277L794 78l-58-92-301 219q-62-54-157-54-50 0-92 16.5t-72 46-47 71T50 377zm82 0q0-33 10.5-60.5t30-47.5 46-31 59.5-11 60 11 47 31 31 48 11 62-11 62-31 48-47 31-60 11q-32 0-58.5-11.5t-46-32T143 439t-11-62z"/><glyph glyph-name="ornm9" horiz-adv-x="818" d="M631 476V306h137V63H666V0H152v63H50v243h137v285h317V476h127zM152-46h514v-65H152v65zm377 545v92l7 5 100-90-5-7H529z"/><glyph glyph-name="ornm10" horiz-adv-x="562" d="M148 489q0 30 10 55t27.5 42.5 42 27.5 53.5 10 53.5-10 42.5-27.5 28-42.5 10-55q0-43-20-74.5T343 367v-4q90-6 129.5-46.5T512 188V0H50v188q0 88 39.5 128.5T219 363v4q-32 16-51.5 47.5T148 489z"/><glyph glyph-name="ornm11" horiz-adv-x="720" d="M122 210V68h475v142h73V0H50v210h72zm114 409h247l-21-237h116L360 164 146 382h115z"/><glyph glyph-name="ornm12" horiz-adv-x="571" d="M50 615h113V316q0-78 14-115t58-37 57 37 13 115v161h-45V316q0-62-3.5-87.5T235 203q-20 0-24 26.5t-4 86.5v299h314V0H50v615z"/><glyph glyph-name="ornm13" horiz-adv-x="774" d="M311-80v8q0 23-9 43.5T278 7t-35.5 24-43.5 9q-38 0-66-22L51 161q30 14 45 42t14.5 59.5T95 322t-45 42l83 141q29-21 66-21 23 0 43.5 8.5T278 516t24 35.5 9 43.5v11h158q0-3-.5-5.5t-.5-5.5q0-23 8.5-43.5T500 516t35.5-23.5T579 484q36 0 65 21l80-138q-32-12-51.5-40.5T653 262t19.5-64 51.5-40L644 20q-28 20-65 20-23 0-43.5-9T500 7t-23.5-35.5T468-72v-8H311zm-72 348q0-33 11-60.5t30.5-47T327 130t59-11 59 11 47 30.5 31 47 11 60.5-11 60.5-31 47-47 30.5-59 11-59-11-46.5-30.5-30.5-47-11-60.5z"/><glyph glyph-name="ornm14" horiz-adv-x="541" d="M50 0v406h54q0 66 7 115t25.5 81 51 47.5T271 665q52 0 84.5-14.5T406 605t24.5-80 6.5-119h54V0H50zm221 598q-29 0-47-9t-28.5-30.5T181 500t-4-94h188q0 57-3.5 94t-14 58.5-29 30.5-47.5 9zm-40-489h80l-16 96q25 12 25 38 0 23-14 35.5T271 291t-35-12.5-14-35.5q0-25 24-38z"/><glyph glyph-name="ornm15" horiz-adv-x="729" d="M231 109h79l-15 96q25 12 25 38 0 23-14.5 35.5T270 291q-20 0-34-12.5T222 243q0-25 23-38zm375 315q0 49-3 82.5t-12.5 54-26.5 29-45 8.5q-25 0-43.5-7t-31-24-18.5-45.5-6-70.5v-45h71V0H50v406h296v43q0 46 9 85t29.5 67.5 53 44.5 80.5 16q52 0 83.5-15t49-45 23-74.5T679 424h-73z"/><glyph glyph-name="ornm16" horiz-adv-x="846" d="M421 109l375 318V0H50v429zM71 478h704L421 176z"/><glyph glyph-name="ornm17" horiz-adv-x="846" d="M796 512H541l30 89h225v-89zm0-34V0H50v478h746z"/><glyph glyph-name="ornm18" horiz-adv-x="785" d="M281-43q19 7 38 18.5t33.5 28 23 38.5 7.5 51q-54 1-113 17.5T162.5 160 82 242.5 50 357q0 66 32.5 115.5T165 555t111.5 50T396 622q64 0 125.5-19.5T630 548t76-84.5T735 356q0-47-16.5-84T675 206t-61.5-50.5T542 119q-13-38-33.5-69.5T457-4t-74-34-100-12z"/><glyph glyph-name="ornm19" horiz-adv-x="706" d="M50 68q0 38 22.5 59t57.5 21 57.5-21.5T210 68q0-38-22.5-59T130-12 72.5 9.5 50 68zM328 0q0 57-20.5 104.5t-56 82-83.5 54T66 260v104q77 0 144-27t117-75 79-115T435 0H328zm218 0q0 104-37.5 192t-102 151.5-152.5 99T66 478v104q123 0 230.5-43T484 418.5 610 234 656 0H546z"/><glyph glyph-name="ornm20" horiz-adv-x="785" d="M376 183H275V0H172v283H50l345 355 123-129v103h101V404l116-121H621V0H376v183z"/><glyph glyph-name="a.sc" horiz-adv-x="598" d="M383 560L592 0H428l-44 116H205L165 0H10l189 560h184zm-91-136h-3l-62-191h127z"/><glyph glyph-name="b.sc" horiz-adv-x="534" d="M58 0v560h247q52 0 86-10.5t54.5-29 29-43.5 8.5-53-9-49.5-23.5-37.5-34-27-40.5-17v-2q69-8 101-42.5t32-93.5q0-43-17-72.5t-47-48T374.5 8 287 0H58zm197 106q45 0 70 11t25 51q0 21-7 33.5t-19 19-28 8.5-34 2h-54V106h47zm-19 230q21 0 39 2t32 8.5 22 19 8 33.5q0 19-7.5 29.5t-19.5 16-28 6.5-32 1h-42V336h28z"/><glyph glyph-name="c.sc" horiz-adv-x="579" d="M310-9q-75 0-127.5 19.5T97 67t-48.5 90T33 276q0 64 18 118t54 93 89.5 61T320 570q51 0 93.5-12t74-37 50-64.5T558 362l-136-13q-4 58-29 81t-75 23q-61 0-95-39.5T189 282q0-95 31.5-134t95.5-39q27 0 46 7t31 19.5 19 29 12 34.5l133-21q-7-52-31.5-88t-59-58T391 .5 310-9z"/><glyph glyph-name="d.sc" horiz-adv-x="600" d="M58 0v560h218q76 0 131-19t90.5-54 52.5-85 17-113q0-65-18-118t-55.5-91-95-59T263 0H58zm197 114q47 0 77.5 12t48.5 34 25.5 53.5T414 284q0 46-8.5 77t-27 50-46.5 26.5-67 7.5h-56V114h46z"/><glyph glyph-name="e.sc" horiz-adv-x="491" d="M209 121h253V0H58v560h386V441H209V335h222V219H209v-98z"/><glyph glyph-name="f.sc" horiz-adv-x="466" d="M209 0H58v560h383V441H209V325h213V209H209V0z"/><glyph glyph-name="g.sc" horiz-adv-x="614" d="M444 65q-10-19-27.5-33t-39-23T331-4.5 281-9q-66 0-113 21T91 70t-44 88-14 112q0 66 18 121t54 95 90 62 127 22q49 0 91-11t73.5-35 50.5-62 23-92l-139-13q-2 16-6.5 33T399 421t-30 23-49 9q-70 0-100-44.5T190 283q0-42 6-75t20.5-56 39-35 61.5-12q27 0 46.5 7t31.5 18 17.5 24.5T418 182v13h-82v101h232V0H459z"/><glyph glyph-name="h.sc" horiz-adv-x="611" d="M552 0H402v214H209V0H58v560h151V341h193v219h150V0z"/><glyph glyph-name="i.sc" horiz-adv-x="267" d="M209 0H58v560h151V0z"/><glyph glyph-name="j.sc" horiz-adv-x="457" d="M253 560h150V165q0-83-49.5-128.5T207-9q-39 0-73 7.5T74.5 25 33 76.5 16 159l144 21q1-17 3.5-31.5T171 124t14-15.5 24-5.5q44 0 44 55v402z"/><glyph glyph-name="k.sc" horiz-adv-x="571" d="M209 333l198 227h167L368 331 563 0H388L260 218l-52-54V0H58v560h150z"/><glyph glyph-name="l.sc" horiz-adv-x="482" d="M209 124h244V0H58v560h151V124z"/><glyph glyph-name="m.sc" horiz-adv-x="763" d="M705 0H566v416h-6L442 0H312L200 418h-5V0H58v560h223l99-374h6l97 374h222V0z"/><glyph glyph-name="n.sc" horiz-adv-x="618" d="M390 0L195 357V0H58v560h176l191-361v361h135V0H390z"/><glyph glyph-name="o.sc" horiz-adv-x="631" d="M311-9q-75 0-127.5 21t-86 59-49 90.5T33 276t18 116 54.5 93.5 91.5 62T325 570t125-22.5 85-61 48-90T598 287q0-68-17.5-122.5t-52.5-93T438.5 12 311-9zm6 119q28 0 51 8.5t39.5 28 26 52.5 9.5 81q0 92-31.5 131.5T322 451q-64 0-98.5-40T189 279q0-94 33-131.5t95-37.5z"/><glyph glyph-name="p.sc" horiz-adv-x="520" d="M208 0H58v560h238q56 0 93.5-15.5t60-40.5 32-57 9.5-65q0-102-57-157t-175-55h-51V0zm33 283q20 0 37.5 3.5T309 300t20.5 27 7.5 43q0 25-7.5 40.5t-20 23-28.5 10-33 2.5h-40V283h33z"/><glyph glyph-name="q.sc" horiz-adv-x="631" d="M309-9q-73 0-125.5 21t-86 59-49 90.5T33 276t18 116 54.5 93.5 91.5 62T325 570t125-22.5 85-61 48-90T598 287q0-120-67-199l66-68-77-67-68 69Q425 6 388-1.5T309-9zm9 114q11 0 22 1t21 5l-81 84 77 71 75-85q6 18 9.5 42.5T445 280q0 92-32.5 131.5T322 451q-64 0-98.5-40T189 279q0-94 33.5-134t95.5-40z"/><glyph glyph-name="r.sc" horiz-adv-x="542" d="M530 0H367L262 203h-54V0H58v560h242q55 0 92.5-13t60.5-35 33.5-51 10.5-61q0-62-26.5-101T402 239zM250 314q18 0 34.5 3t29 11 20.5 22 8 36q0 30-19.5 45T260 446h-52V314h42z"/><glyph glyph-name="s.sc" horiz-adv-x="502" d="M250 464q-35 0-53-12.5T179 416q0-25 22-38t55.5-22.5 72-19.5 72-28.5T456 258t22-83q0-49-19.5-84t-52-57T332 1.5 245-9q-36 0-76 5.5T95.5 21t-57 55T12 172l134 22q3-19 8.5-36t16.5-29.5 30-20 48-7.5q35 0 57.5 11.5T329 156q0 26-22 39t-55 21.5-71 17.5-71 27-55 49.5T33 395q0 43 17.5 76T98 526t70 33 86 11q39 0 76.5-7.5t67.5-26 49-51 22-82.5l-135-14q-2 39-21 57t-63 18z"/><glyph glyph-name="t.sc" horiz-adv-x="515" d="M183 0v437H13v123h489V437H333V0H183z"/><glyph glyph-name="u.sc" horiz-adv-x="586" d="M295 109q28 0 46 7t27.5 22 13 37.5T385 230v330h149V209q0-59-18-100t-50-67.5T389 3 290-9Q164-9 107.5 44T51 213v347h150V234q0-30 3-53.5t13-39.5 28.5-24 49.5-8z"/><glyph glyph-name="v.sc" horiz-adv-x="568" d="M186 0L1 560h170l118-417h5l120 417h153L388 0H186z"/><glyph glyph-name="w.sc" horiz-adv-x="826" d="M497 0l-80 346h-4L336 0H135L12 560h156l73-408h4l93 408h158l96-408h6l65 408h151L688 0H497z"/><glyph glyph-name="x.sc" horiz-adv-x="553" d="M364 281L552 0H378L268 163 162 0H1l187 282L10 560h167l106-171 107 171h155z"/><glyph glyph-name="y.sc" horiz-adv-x="522" d="M343 0H192v207L-11 560h163l115-222h5l110 222h151L343 208V0z"/><glyph glyph-name="z.sc" horiz-adv-x="495" d="M207 120h262V0H27v104l259 337H33v119h426V453z"/><glyph glyph-name="ae.sc" horiz-adv-x="820" d="M538 121h253V0H388v218H256L159 0H6l259 560h509V441H538V330h222V216H538v-95zM388 450h-34l-58-121h92v121z"/><glyph glyph-name="eng.sc" horiz-adv-x="618" d="M364-223q-44 0-80.5 9T231-195l11 113q14-6 39.5-13t52.5-7q16 0 29.5 3.5t23.5 12T403-63t6 39v23L195 357V0H58v560h176l191-326v326h135V-41q0-49-14.5-83.5t-40-56.5-62-32-79.5-10z"/><glyph glyph-name="eth.sc" horiz-adv-x="600" d="M58 0v229H-4v106h62v225h218q76 0 131-19t90.5-54 52.5-85 17-113q0-65-18-118t-55.5-91-95-59T263 0H58zm197 114q47 0 77.5 12t48.5 34 25.5 53.5T414 284q0 46-8.5 77t-27 50-46.5 26.5-67 7.5h-56V335h115V229H209V114h46z"/><glyph glyph-name="oe.sc" horiz-adv-x="875" d="M465 0v50q-25-29-68-44T300-9q-70 0-120.5 21t-83 59-48 90.5T33 276t18.5 116 54.5 93.5 88.5 62T315 570q50 0 87-14.5t63-40.5v45h364V441H593V335h222V219H593v-98h253V0H465zM316 110q28 0 51 8.5t39.5 28 26 52.5 9.5 81q0 92-31.5 131.5T321 451q-64 0-98.5-40T188 279q0-94 33-131.5t95-37.5z"/><glyph glyph-name="thorn.sc" horiz-adv-x="520" d="M208 0H58v560h150v-80h77q54 0 91.5-14.5t60.5-38 33-54 10-61.5q0-97-57-149.5T248 110h-40V0zm29 223q17 0 33 3.5t28.5 12 20 23T326 298t-7.5 35-19 20.5-26 10T244 366h-36V223h29z"/><glyph glyph-name="germandbls.sc" horiz-adv-x="1005" d="M753 464q-35 0-53-12.5T682 416q0-25 22-38t55.5-22.5 72-19.5 72-28.5T959 258t22-83q0-49-19.5-84t-52-57T835 1.5 748-9q-36 0-76 5.5T598.5 21t-57 55-26.5 96l134 22q3-19 8.5-36t16.5-29.5 30-20 48-7.5q35 0 57.5 11.5T832 156q0 26-22 39t-55 21.5-71 17.5-71 27-55 49.5-22 84.5q0 43 17.5 76t47.5 55 70 33 86 11q39 0 76.5-7.5t67.5-26 49-51 22-82.5l-135-14q-2 39-21 57t-63 18zm-503 0q-35 0-53-12.5T179 416q0-25 22-38t55.5-22.5 72-19.5 72-28.5T456 258t22-83q0-49-19.5-84t-52-57T332 1.5 245-9q-36 0-76 5.5T95.5 21t-57 55T12 172l134 22q3-19 8.5-36t16.5-29.5 30-20 48-7.5q35 0 57.5 11.5T329 156q0 26-22 39t-55 21.5-71 17.5-71 27-55 49.5T33 395q0 43 17.5 76T98 526t70 33 86 11q39 0 76.5-7.5t67.5-26 49-51 22-82.5l-135-14q-2 39-21 57t-63 18z"/><glyph glyph-name="kgreenlandic.sc" horiz-adv-x="571" d="M209 333l198 227h167L368 331 563 0H388L260 218l-52-54V0H58v560h150z"/><glyph glyph-name="dotlessi.sc" horiz-adv-x="267" d="M209 0H58v560h151V0z"/><glyph glyph-name="aacute.sc" horiz-adv-x="598" d="M383 560L592 0H428l-44 116H205L165 0H10l189 560h184zm-91-136h-3l-62-191h127zm20 183l-101 9 75 162h161z"/><glyph glyph-name="abreve.sc" horiz-adv-x="598" d="M383 560L592 0H428l-44 116H205L165 0H10l189 560h184zm-91-136h-3l-62-191h127zm174 341q-6-85-54-123t-124-38q-74 0-119 37.5T121 762l100 11q5-42 22-59.5t50-17.5q34 0 52.5 16t24.5 60z"/><glyph glyph-name="acircumflex.sc" horiz-adv-x="598" d="M383 560L592 0H428l-44 116H205L165 0H10l189 560h184zm-91-136h-3l-62-191h127zm72 187l-73 94-76-95-101 6 105 164h144l101-164z"/><glyph glyph-name="adieresis.sc" horiz-adv-x="598" d="M383 560L592 0H428l-44 116H205L165 0H10l189 560h184zm-91-136h-3l-62-191h127zm-31 290q0-38-24.5-60.5T173 631q-41 0-66 22.5T82 714t25 61 66 23q39 0 63.5-23t24.5-61zm235 0q0-38-24-60.5T408 631q-41 0-65.5 22.5T318 714t24.5 61 65.5 23q40 0 64-23t24-61z"/><glyph glyph-name="aeacute.sc" horiz-adv-x="823" d="M532 610l-101 9 75 162h161zm10-489h253V0H392v218H260L163 0H10l259 560h509V441H542V330h222V216H542v-95zM392 450h-34l-58-121h92v121z"/><glyph glyph-name="agrave.sc" horiz-adv-x="598" d="M383 560L592 0H428l-44 116H205L165 0H10l189 560h184zm-91-136h-3l-62-191h127zM135 778h162l74-162-101-9z"/><glyph glyph-name="amacron.sc" horiz-adv-x="598" d="M383 560L592 0H428l-44 116H205L165 0H10l189 560h184zm-91-136h-3l-62-191h127zM134 636v102h311V636H134z"/><glyph glyph-name="aogonek.sc" horiz-adv-x="598" d="M626-139q-17-49-54.5-75T486-240q-57 0-86.5 25.5T370-142q0 45 29 80t72 62h-43l-44 116H205L165 0H10l189 560h184L592 0q-54-26-82-57t-28-60q0-33 31-33 14 0 26 9.5t22 31.5zM292 424h-3l-62-191h127z"/><glyph glyph-name="aring.sc" horiz-adv-x="598" d="M405 630q0-44-23-70h1L592 0H428l-44 116H205L165 0H10l188 559q-22 27-22 67 0 27 9 48t25 35 36.5 21 43.5 7q48 0 81.5-27t33.5-80zM292 424h-3l-62-191h127zm-2 160q20 0 32.5 11.5T335 630q0 21-12.5 32T290 673q-19 0-32-11.5T245 629q0-23 12.5-34t32.5-11z"/><glyph glyph-name="aringacute.sc" horiz-adv-x="598" d="M322 752l-107 8 91 140h162zm83-122q0-44-23-70h1L592 0H428l-44 116H205L165 0H10l188 559q-22 27-22 67 0 27 9 48t25 35 36.5 21 43.5 7q48 0 81.5-27t33.5-80zM292 424h-3l-62-191h127zm-2 160q20 0 32.5 11.5T335 630q0 21-12.5 32T290 673q-19 0-32-11.5T245 629q0-23 12.5-34t32.5-11z"/><glyph glyph-name="atilde.sc" horiz-adv-x="598" d="M383 560L592 0H428l-44 116H205L165 0H10l189 560h184zm-91-136h-3l-62-191h127zm-79 343q24 0 44-7t37.5-15 33.5-15 33-7 23.5 9.5T391 767l76-4q7-62-15.5-101.5T376 622q-26 0-47 7t-39 15-34 15-32 7-24-9.5-4-37.5l-82 3q-8 66 20 105.5t79 39.5z"/><glyph glyph-name="cacute.sc" horiz-adv-x="579" d="M310-9q-75 0-127.5 19.5T97 67t-48.5 90T33 276q0 64 18 118t54 93 89.5 61T320 570q51 0 93.5-12t74-37 50-64.5T558 362l-136-13q-4 58-29 81t-75 23q-61 0-95-39.5T189 282q0-95 31.5-134t95.5-39q27 0 46 7t31 19.5 19 29 12 34.5l133-21q-7-52-31.5-88t-59-58T391 .5 310-9zm28 616l-101 9 75 162h161z"/><glyph glyph-name="ccaron.sc" horiz-adv-x="579" d="M310-9q-75 0-127.5 19.5T97 67t-48.5 90T33 276q0 64 18 118t54 93 89.5 61T320 570q51 0 93.5-12t74-37 50-64.5T558 362l-136-13q-4 58-29 81t-75 23q-61 0-95-39.5T189 282q0-95 31.5-134t95.5-39q27 0 46 7t31 19.5 19 29 12 34.5l133-21q-7-52-31.5-88t-59-58T391 .5 310-9zm-66 785l73-93 76 94 99-6-105-164H243L142 771z"/><glyph glyph-name="ccedilla.sc" horiz-adv-x="579" d="M213-162q12-3 23.5-5t24.5-2q23 0 36.5 8.5T311-132q0 23-17 29.5T247-95l11 89q-60 6-103 28.5T85 81t-39.5 85.5T33 276q0 64 18 118t54 93 89.5 61T320 570q51 0 93.5-12t74-37 50-64.5T558 362l-136-13q-4 58-29 81t-75 23q-61 0-95-39.5T189 282q0-95 31.5-134t95.5-39q27 0 46 7t31 19.5 19 29 12 34.5l133-21q-6-49-28-83t-53.5-56.5T406 5 331-8l-5-37q16-3 31.5-9T385-71t19-27 7-39q0-55-37.5-82T280-246q-46 0-82 14z"/><glyph glyph-name="ccircumflex.sc" horiz-adv-x="579" d="M310-9q-75 0-127.5 19.5T97 67t-48.5 90T33 276q0 64 18 118t54 93 89.5 61T320 570q51 0 93.5-12t74-37 50-64.5T558 362l-136-13q-4 58-29 81t-75 23q-61 0-95-39.5T189 282q0-95 31.5-134t95.5-39q27 0 46 7t31 19.5 19 29 12 34.5l133-21q-7-52-31.5-88t-59-58T391 .5 310-9zm80 620l-73 94-76-95-101 6 105 164h144l101-164z"/><glyph glyph-name="cdotaccent.sc" horiz-adv-x="579" d="M310-9q-75 0-127.5 19.5T97 67t-48.5 90T33 276q0 64 18 118t54 93 89.5 61T320 570q51 0 93.5-12t74-37 50-64.5T558 362l-136-13q-4 58-29 81t-75 23q-61 0-95-39.5T189 282q0-95 31.5-134t95.5-39q27 0 46 7t31 19.5 19 29 12 34.5l133-21q-7-52-31.5-88t-59-58T391 .5 310-9zm97 725q0-44-23.5-68T316 624q-43 0-66.5 24T226 716t23.5 67.5T316 807q44 0 67.5-23.5T407 716z"/><glyph glyph-name="dcaron.sc" horiz-adv-x="600" d="M58 0v560h218q76 0 131-19t90.5-54 52.5-85 17-113q0-65-18-118t-55.5-91-95-59T263 0H58zm197 114q47 0 77.5 12t48.5 34 25.5 53.5T414 284q0 46-8.5 77t-27 50-46.5 26.5-67 7.5h-56V114h46zm-49 662l73-93 76 94 99-6-105-164H205L104 771z"/><glyph glyph-name="dcroat.sc" horiz-adv-x="600" d="M58 0v229H-4v106h62v225h218q76 0 131-19t90.5-54 52.5-85 17-113q0-65-18-118t-55.5-91-95-59T263 0H58zm197 114q47 0 77.5 12t48.5 34 25.5 53.5T414 284q0 46-8.5 77t-27 50-46.5 26.5-67 7.5h-56V335h115V229H209V114h46z"/><glyph glyph-name="eacute.sc" horiz-adv-x="491" d="M209 121h253V0H58v560h386V441H209V335h222V219H209v-98zm70 486l-101 9 75 162h161z"/><glyph glyph-name="ebreve.sc" horiz-adv-x="491" d="M209 121h253V0H58v560h386V441H209V335h222V219H209v-98zm224 644q-6-85-54-123t-124-38q-74 0-119 37.5T88 762l100 11q5-42 22-59.5t50-17.5q34 0 52.5 16t24.5 60z"/><glyph glyph-name="ecaron.sc" horiz-adv-x="491" d="M209 121h253V0H58v560h386V441H209V335h222V219H209v-98zm-24 655l73-93 76 94 99-6-105-164H184L83 771z"/><glyph glyph-name="ecircumflex.sc" horiz-adv-x="491" d="M209 121h253V0H58v560h386V441H209V335h222V219H209v-98zm122 490l-73 94-76-95-101 6 105 164h144l101-164z"/><glyph glyph-name="edieresis.sc" horiz-adv-x="491" d="M209 121h253V0H58v560h386V441H209V335h222V219H209v-98zm19 593q0-38-24.5-60.5T140 631q-41 0-66 22.5T49 714t25 61 66 23q39 0 63.5-23t24.5-61zm235 0q0-38-24-60.5T375 631q-41 0-65.5 22.5T285 714t24.5 61 65.5 23q40 0 64-23t24-61z"/><glyph glyph-name="edotaccent.sc" horiz-adv-x="491" d="M209 121h253V0H58v560h386V441H209V335h222V219H209v-98zm139 595q0-44-23.5-68T257 624q-43 0-66.5 24T167 716t23.5 67.5T257 807q44 0 67.5-23.5T348 716z"/><glyph glyph-name="egrave.sc" horiz-adv-x="491" d="M209 121h253V0H58v560h386V441H209V335h222V219H209v-98zM102 778h162l74-162-101-9z"/><glyph glyph-name="emacron.sc" horiz-adv-x="491" d="M209 121h253V0H58v560h386V441H209V335h222V219H209v-98zM101 636v102h311V636H101z"/><glyph glyph-name="eogonek.sc" horiz-adv-x="491" d="M480-139q-17-49-54.5-75T340-240q-57 0-86.5 25.5T224-142q0 45 27 80t65 62H58v560h386V441H209V335h222V219H209v-98h253V0h-48q-35-34-56.5-61T336-117q0-33 31-33 14 0 26 9.5t22 31.5z"/><glyph glyph-name="gbreve.sc" horiz-adv-x="614" d="M444 65q-10-19-27.5-33t-39-23T331-4.5 281-9q-66 0-113 21T91 70t-44 88-14 112q0 66 18 121t54 95 90 62 127 22q49 0 91-11t73.5-35 50.5-62 23-92l-139-13q-2 16-6.5 33T399 421t-30 23-49 9q-70 0-100-44.5T190 283q0-42 6-75t20.5-56 39-35 61.5-12q27 0 46.5 7t31.5 18 17.5 24.5T418 182v13h-82v101h232V0H459zm47 700q-6-85-54-123t-124-38q-74 0-119 37.5T146 762l100 11q5-42 22-59.5t50-17.5q34 0 52.5 16t24.5 60z"/><glyph glyph-name="gcircumflex.sc" horiz-adv-x="614" d="M444 65q-10-19-27.5-33t-39-23T331-4.5 281-9q-66 0-113 21T91 70t-44 88-14 112q0 66 18 121t54 95 90 62 127 22q49 0 91-11t73.5-35 50.5-62 23-92l-139-13q-2 16-6.5 33T399 421t-30 23-49 9q-70 0-100-44.5T190 283q0-42 6-75t20.5-56 39-35 61.5-12q27 0 46.5 7t31.5 18 17.5 24.5T418 182v13h-82v101h232V0H459zm-55 546l-73 94-76-95-101 6 105 164h144l101-164z"/><glyph glyph-name="gdotaccent.sc" horiz-adv-x="614" d="M444 65q-10-19-27.5-33t-39-23T331-4.5 281-9q-66 0-113 21T91 70t-44 88-14 112q0 66 18 121t54 95 90 62 127 22q49 0 91-11t73.5-35 50.5-62 23-92l-139-13q-2 16-6.5 33T399 421t-30 23-49 9q-70 0-100-44.5T190 283q0-42 6-75t20.5-56 39-35 61.5-12q27 0 46.5 7t31.5 18 17.5 24.5T418 182v13h-82v101h232V0H459zm-38 651q0-44-23.5-68T315 624q-43 0-66.5 24T225 716t23.5 67.5T315 807q44 0 67.5-23.5T406 716z"/><glyph glyph-name="gcommaaccent.sc" horiz-adv-x="614" d="M444 65q-10-19-27.5-33t-39-23T331-4.5 281-9q-66 0-113 21T91 70t-44 88-14 112q0 66 18 121t54 95 90 62 127 22q49 0 91-11t73.5-35 50.5-62 23-92l-139-13q-2 16-6.5 33T399 421t-30 23-49 9q-70 0-100-44.5T190 283q0-42 6-75t20.5-56 39-35 61.5-12q27 0 46.5 7t31.5 18 17.5 24.5T418 182v13h-82v101h232V0H459zM244-68h140l-83-206-103 15z"/><glyph glyph-name="hbar.sc" horiz-adv-x="611" d="M552 501h59v-94h-59V0H402v214H209V0H58v407H0v94h58v59h151v-59h193v59h150v-59zM402 341v66H209v-66h193z"/><glyph glyph-name="hcircumflex.sc" horiz-adv-x="611" d="M552 0H402v214H209V0H58v560h151V341h193v219h150V0zM379 611l-73 94-76-95-101 6 105 164h144l101-164z"/><glyph glyph-name="iacute.sc" horiz-adv-x="267" d="M209 0H58v560h151V0zm-53 607l-101 9 75 162h161z"/><glyph glyph-name="ibreve.sc" horiz-adv-x="267" d="M209 0H58v560h151V0zm101 765q-6-85-54-123t-124-38q-74 0-119 37.5T-35 762l100 11q5-42 22-59.5t50-17.5q34 0 52.5 16t24.5 60z"/><glyph glyph-name="icircumflex.sc" horiz-adv-x="267" d="M209 0H58v560h151V0zm-1 611l-73 94-76-95-101 6L63 780h144l101-164z"/><glyph glyph-name="idieresis.sc" horiz-adv-x="267" d="M209 0H58v560h151V0zM105 714q0-38-24.5-60.5T17 631q-41 0-66 22.5T-74 714t25 61 66 23q39 0 63.5-23t24.5-61zm235 0q0-38-24-60.5T252 631q-41 0-65.5 22.5T162 714t24.5 61 65.5 23q40 0 64-23t24-61z"/><glyph glyph-name="idotaccent.sc" horiz-adv-x="267" d="M209 0H58v560h151V0zm16 716q0-44-23.5-68T134 624q-43 0-66.5 24T44 716t23.5 67.5T134 807q44 0 67.5-23.5T225 716z"/><glyph glyph-name="igrave.sc" horiz-adv-x="267" d="M209 0H58v560h151V0zM-21 778h162l74-162-101-9z"/><glyph glyph-name="imacron.sc" horiz-adv-x="267" d="M209 0H58v560h151V0zM-22 636v102h311V636H-22z"/><glyph glyph-name="iogonek.sc" horiz-adv-x="267" d="M248-139q-17-49-54.5-75T108-240q-57 0-86.5 25.5T-8-142q0 45 29 79.5T98 0H58v560h151V0q-23-11-42.5-25.5t-33.5-30-21.5-31T104-117q0-33 31-33 14 0 26 9.5t22 31.5z"/><glyph glyph-name="itilde.sc" horiz-adv-x="267" d="M209 0H58v560h151V0zM57 767q24 0 44-7t37.5-15 33.5-15 33-7 23.5 9.5T235 767l76-4q7-62-15.5-101.5T220 622q-26 0-47 7t-39 15-34 15-32 7-24-9.5-4-37.5l-82 3q-8 66 20 105.5T57 767z"/><glyph glyph-name="jcircumflex.sc" horiz-adv-x="457" d="M253 560h150V165q0-83-49.5-128.5T207-9q-39 0-73 7.5T74.5 25 33 76.5 16 159l144 21q1-17 3.5-31.5T171 124t14-15.5 24-5.5q44 0 44 55v402zm149 51l-73 94-76-95-101 6 105 164h144l101-164z"/><glyph glyph-name="kcommaaccent.sc" horiz-adv-x="571" d="M209 333l198 227h167L368 331 563 0H388L260 218l-52-54V0H58v560h150zm15-401h140l-83-206-103 15z"/><glyph glyph-name="lacute.sc" horiz-adv-x="482" d="M209 124h244V0H58v560h151V124zm-49 483l-101 9 75 162h161z"/><glyph glyph-name="lcaron.sc" horiz-adv-x="482" d="M209 124h244V0H58v560h151V124zm98 437h138l-66-202-105 9z"/><glyph glyph-name="lcommaaccent.sc" horiz-adv-x="482" d="M209 124h244V0H58v560h151V124zM190-68h140l-83-206-103 15z"/><glyph glyph-name="ldot.sc" horiz-adv-x="482" d="M209 124h244V0H58v560h151V124zm239.271 237.059q0-41.355-22.071-63.912-22.073-22.557-63.397-22.557-40.386 0-62.458 22.557-22.071 22.558-22.071 63.912t22.071 63.441q22.071 22.088 62.458 22.088 41.324 0 63.397-22.088 22.071-22.086 22.071-63.441z"/><glyph glyph-name="lslash.sc" horiz-adv-x="482" d="M209 372l144 50V311l-144-50V124h244V0H58v209l-66-22v111l66 22v240h151V372z"/><glyph glyph-name="nacute.sc" horiz-adv-x="618" d="M390 0L195 357V0H58v560h176l191-361v361h135V0H390zm-44 607l-101 9 75 162h161z"/><glyph glyph-name="napostrophe.sc" horiz-adv-x="695" d="M467 0L272 357V0H135v560h176l191-361v361h135V0H467zM35.174 711.483h131.763L88.82 517.478l-97.88 13.185z"/><glyph glyph-name="ncaron.sc" horiz-adv-x="618" d="M390 0L195 357V0H58v560h176l191-361v361h135V0H390zM238 776l73-93 76 94 99-6-105-164H237L136 771z"/><glyph glyph-name="ncommaaccent.sc" horiz-adv-x="618" d="M390 0L195 357V0H58v560h176l191-361v361h135V0H390zM248-68h140l-83-206-103 15z"/><glyph glyph-name="ntilde.sc" horiz-adv-x="618" d="M390 0L195 357V0H58v560h176l191-361v361h135V0H390zM231 767q24 0 44-7t37.5-15 33.5-15 33-7 23.5 9.5T409 767l76-4q7-62-15.5-101.5T394 622q-26 0-47 7t-39 15-34 15-32 7-24-9.5-4-37.5l-82 3q-8 66 20 105.5t79 39.5z"/><glyph glyph-name="oacute.sc" horiz-adv-x="631" d="M311-9q-75 0-127.5 21t-86 59-49 90.5T33 276t18 116 54.5 93.5 91.5 62T325 570t125-22.5 85-61 48-90T598 287q0-68-17.5-122.5t-52.5-93T438.5 12 311-9zm6 119q28 0 51 8.5t39.5 28 26 52.5 9.5 81q0 92-31.5 131.5T322 451q-64 0-98.5-40T189 279q0-94 33-131.5t95-37.5zm28 497l-101 9 75 162h161z"/><glyph glyph-name="obreve.sc" horiz-adv-x="631" d="M311-9q-75 0-127.5 21t-86 59-49 90.5T33 276t18 116 54.5 93.5 91.5 62T325 570t125-22.5 85-61 48-90T598 287q0-68-17.5-122.5t-52.5-93T438.5 12 311-9zm6 119q28 0 51 8.5t39.5 28 26 52.5 9.5 81q0 92-31.5 131.5T322 451q-64 0-98.5-40T189 279q0-94 33-131.5t95-37.5zm182 655q-6-85-54-123t-124-38q-74 0-119 37.5T154 762l100 11q5-42 22-59.5t50-17.5q34 0 52.5 16t24.5 60z"/><glyph glyph-name="ocircumflex.sc" horiz-adv-x="631" d="M311-9q-75 0-127.5 21t-86 59-49 90.5T33 276t18 116 54.5 93.5 91.5 62T325 570t125-22.5 85-61 48-90T598 287q0-68-17.5-122.5t-52.5-93T438.5 12 311-9zm6 119q28 0 51 8.5t39.5 28 26 52.5 9.5 81q0 92-31.5 131.5T322 451q-64 0-98.5-40T189 279q0-94 33-131.5t95-37.5zm80 501l-73 94-76-95-101 6 105 164h144l101-164z"/><glyph glyph-name="odieresis.sc" horiz-adv-x="631" d="M311-9q-75 0-127.5 21t-86 59-49 90.5T33 276t18 116 54.5 93.5 91.5 62T325 570t125-22.5 85-61 48-90T598 287q0-68-17.5-122.5t-52.5-93T438.5 12 311-9zm6 119q28 0 51 8.5t39.5 28 26 52.5 9.5 81q0 92-31.5 131.5T322 451q-64 0-98.5-40T189 279q0-94 33-131.5t95-37.5zm-23 604q0-38-24.5-60.5T206 631q-41 0-66 22.5T115 714t25 61 66 23q39 0 63.5-23t24.5-61zm235 0q0-38-24-60.5T441 631q-41 0-65.5 22.5T351 714t24.5 61 65.5 23q40 0 64-23t24-61z"/><glyph glyph-name="ograve.sc" horiz-adv-x="631" d="M311-9q-75 0-127.5 21t-86 59-49 90.5T33 276t18 116 54.5 93.5 91.5 62T325 570t125-22.5 85-61 48-90T598 287q0-68-17.5-122.5t-52.5-93T438.5 12 311-9zm6 119q28 0 51 8.5t39.5 28 26 52.5 9.5 81q0 92-31.5 131.5T322 451q-64 0-98.5-40T189 279q0-94 33-131.5t95-37.5zM168 778h162l74-162-101-9z"/><glyph glyph-name="ohungarumlaut.sc" horiz-adv-x="631" d="M311-9q-75 0-127.5 21t-86 59-49 90.5T33 276t18 116 54.5 93.5 91.5 62T325 570t125-22.5 85-61 48-90T598 287q0-68-17.5-122.5t-52.5-93T438.5 12 311-9zm6 119q28 0 51 8.5t39.5 28 26 52.5 9.5 81q0 92-31.5 131.5T322 451q-64 0-98.5-40T189 279q0-94 33-131.5t95-37.5zm-28 497l-96 12 44 159h154zm157 0l-101 9 85 166h162z"/><glyph glyph-name="omacron.sc" horiz-adv-x="631" d="M311-9q-75 0-127.5 21t-86 59-49 90.5T33 276t18 116 54.5 93.5 91.5 62T325 570t125-22.5 85-61 48-90T598 287q0-68-17.5-122.5t-52.5-93T438.5 12 311-9zm6 119q28 0 51 8.5t39.5 28 26 52.5 9.5 81q0 92-31.5 131.5T322 451q-64 0-98.5-40T189 279q0-94 33-131.5t95-37.5zM167 636v102h311V636H167z"/><glyph glyph-name="oslash.sc" horiz-adv-x="631" d="M311-9q-40 0-73 6l-32-64H77l54 107q-52 38-75 98.5T33 276q0 62 18 116t54.5 93.5 91.5 62T325 570q20 0 38-2t35-5l27 53h128l-50-99q50-39 72.5-99T598 287q0-68-17.5-122.5t-52.5-93T438.5 12 311-9zM189 279q0-59 14-98l137 269q-5 0-9 .5t-9 .5q-64 0-98.5-40T189 279zm128-169q28 0 51 8.5t39.5 28 26 52.5 9.5 81q0 59-13 94L296 111q5-1 10.5-1H317z"/><glyph glyph-name="oslashacute.sc" horiz-adv-x="631" d="M362 607l-101 9 75 162h161zM311-9q-40 0-73 6l-32-64H77l54 107q-52 38-75 98.5T33 276q0 62 18 116t54.5 93.5 91.5 62T325 570q20 0 38-2t35-5l27 53h128l-50-99q50-39 72.5-99T598 287q0-68-17.5-122.5t-52.5-93T438.5 12 311-9zM189 279q0-59 14-98l137 269q-5 0-9 .5t-9 .5q-64 0-98.5-40T189 279zm128-169q28 0 51 8.5t39.5 28 26 52.5 9.5 81q0 59-13 94L296 111q5-1 10.5-1H317z"/><glyph glyph-name="otilde.sc" horiz-adv-x="631" d="M311-9q-75 0-127.5 21t-86 59-49 90.5T33 276t18 116 54.5 93.5 91.5 62T325 570t125-22.5 85-61 48-90T598 287q0-68-17.5-122.5t-52.5-93T438.5 12 311-9zm6 119q28 0 51 8.5t39.5 28 26 52.5 9.5 81q0 92-31.5 131.5T322 451q-64 0-98.5-40T189 279q0-94 33-131.5t95-37.5zm-71 657q24 0 44-7t37.5-15 33.5-15 33-7 23.5 9.5T424 767l76-4q7-62-15.5-101.5T409 622q-26 0-47 7t-39 15-34 15-32 7-24-9.5-4-37.5l-82 3q-8 66 20 105.5t79 39.5z"/><glyph glyph-name="racute.sc" horiz-adv-x="542" d="M530 0H367L262 203h-54V0H58v560h242q55 0 92.5-13t60.5-35 33.5-51 10.5-61q0-62-26.5-101T402 239zM250 314q18 0 34.5 3t29 11 20.5 22 8 36q0 30-19.5 45T260 446h-52V314h42zm33 293l-101 9 75 162h161z"/><glyph glyph-name="rcaron.sc" horiz-adv-x="542" d="M530 0H367L262 203h-54V0H58v560h242q55 0 92.5-13t60.5-35 33.5-51 10.5-61q0-62-26.5-101T402 239zM250 314q18 0 34.5 3t29 11 20.5 22 8 36q0 30-19.5 45T260 446h-52V314h42zm-61 462l73-93 76 94 99-6-105-164H188L87 771z"/><glyph glyph-name="rcommaaccent.sc" horiz-adv-x="542" d="M530 0H367L262 203h-54V0H58v560h242q55 0 92.5-13t60.5-35 33.5-51 10.5-61q0-62-26.5-101T402 239zM250 314q18 0 34.5 3t29 11 20.5 22 8 36q0 30-19.5 45T260 446h-52V314h42zM212-68h140l-83-206-103 15z"/><glyph glyph-name="sacute.sc" horiz-adv-x="502" d="M250 464q-35 0-53-12.5T179 416q0-25 22-38t55.5-22.5 72-19.5 72-28.5T456 258t22-83q0-49-19.5-84t-52-57T332 1.5 245-9q-36 0-76 5.5T95.5 21t-57 55T12 172l134 22q3-19 8.5-36t16.5-29.5 30-20 48-7.5q35 0 57.5 11.5T329 156q0 26-22 39t-55 21.5-71 17.5-71 27-55 49.5T33 395q0 43 17.5 76T98 526t70 33 86 11q39 0 76.5-7.5t67.5-26 49-51 22-82.5l-135-14q-2 39-21 57t-63 18zm24 143l-101 9 75 162h161z"/><glyph glyph-name="scaron.sc" horiz-adv-x="502" d="M250 464q-35 0-53-12.5T179 416q0-25 22-38t55.5-22.5 72-19.5 72-28.5T456 258t22-83q0-49-19.5-84t-52-57T332 1.5 245-9q-36 0-76 5.5T95.5 21t-57 55T12 172l134 22q3-19 8.5-36t16.5-29.5 30-20 48-7.5q35 0 57.5 11.5T329 156q0 26-22 39t-55 21.5-71 17.5-71 27-55 49.5T33 395q0 43 17.5 76T98 526t70 33 86 11q39 0 76.5-7.5t67.5-26 49-51 22-82.5l-135-14q-2 39-21 57t-63 18zm-70 312l73-93 76 94 99-6-105-164H179L78 771z"/><glyph glyph-name="scedilla.sc" horiz-adv-x="502" d="M163-162q12-3 23.5-5t24.5-2q23 0 36.5 8.5T261-132q0 23-17 29.5T197-95l11 87q-33 2-67 10.5T79 31 33 85t-21 87l134 22q3-19 8.5-36t16.5-29.5 30-20 48-7.5q35 0 57.5 11.5T329 156q0 26-22 39t-55 21.5-71 17.5-71 27-55 49.5T33 395q0 43 17.5 76T98 526t70 33 86 11q39 0 76.5-7.5t67.5-26 49-51 22-82.5l-135-14q-2 39-21 57t-63 18q-35 0-53-12.5T179 416q0-25 22-38t55.5-22.5 72-19.5 72-28.5T456 258t22-83q0-44-16-77t-43-55-63-34.5T281-7l-5-38q16-3 31.5-9T335-71t19-27 7-39q0-55-37.5-82T230-246q-46 0-82 14z"/><glyph glyph-name="scircumflex.sc" horiz-adv-x="502" d="M250 464q-35 0-53-12.5T179 416q0-25 22-38t55.5-22.5 72-19.5 72-28.5T456 258t22-83q0-49-19.5-84t-52-57T332 1.5 245-9q-36 0-76 5.5T95.5 21t-57 55T12 172l134 22q3-19 8.5-36t16.5-29.5 30-20 48-7.5q35 0 57.5 11.5T329 156q0 26-22 39t-55 21.5-71 17.5-71 27-55 49.5T33 395q0 43 17.5 76T98 526t70 33 86 11q39 0 76.5-7.5t67.5-26 49-51 22-82.5l-135-14q-2 39-21 57t-63 18zm76 147l-73 94-76-95-101 6 105 164h144l101-164z"/><glyph glyph-name="scommaaccent.sc" horiz-adv-x="502" d="M250 464q-35 0-53-12.5T179 416q0-25 22-38t55.5-22.5 72-19.5 72-28.5T456 258t22-83q0-49-19.5-84t-52-57T332 1.5 245-9q-36 0-76 5.5T95.5 21t-57 55T12 172l134 22q3-19 8.5-36t16.5-29.5 30-20 48-7.5q35 0 57.5 11.5T329 156q0 26-22 39t-55 21.5-71 17.5-71 27-55 49.5T33 395q0 43 17.5 76T98 526t70 33 86 11q39 0 76.5-7.5t67.5-26 49-51 22-82.5l-135-14q-2 39-21 57t-63 18zM189-68h140l-83-206-103 15z"/></font>
</defs>
</svg>
