<svg xmlns="http://www.w3.org/2000/svg"><defs><font horiz-adv-x="570"><font-face font-family="Adelle Sans" font-weight="400" panose-1="2 0 5 3 0 0 0 2 0 4" ascent="800" descent="-200" x-height="514" cap-height="724" bbox="-151 -292 1167 1067" underline-thickness="50" underline-position="-150" unicode-range="U+000D-FB06"/><glyph glyph-name="ij" unicode="ij" horiz-adv-x="496" d="M172 0H81v514h91V0zm21 679q0-32-17-49t-48-17-47.5 17T64 679q0 65 64 65 31 0 48-16.5t17-48.5zm82-902q-25 0-54 6t-43 14l10 74q15-6 35.5-10.5T263-144q31 0 49 17.5T330-63v577h91V-67q0-82-38-119t-108-37zm167 910q0-32-16.5-49T378 621t-48 17-17 49q0 31 17 48t48 17 47.5-17 16.5-48z"/><glyph glyph-name="ff" unicode="ff" horiz-adv-x="638" d="M330 678q-16 5-35 8.5t-36 3.5q-34 0-55-18.5T183 601v-87h221v83q0 85 39.5 126.5T557 765q32 0 56-5.5t37-11.5l-3-70q-15 5-34.5 9t-37.5 4q-35 0-57.5-18.5T495 600v-86h143v-73H495V0h-91v441H183V0H92v441H16v73h76v83q0 85 39 126.5T242 765q30 0 54.5-5.5T334 748z"/><glyph glyph-name="fi" unicode="fi" horiz-adv-x="572" d="M495 0h-91v441H183V0H92v441H16v73h76v83q0 85 39 126.5T242 765q28 0 48-4.5t34-10.5l-3-71q-14 5-30 8t-33 3q-34 0-54.5-18.5T183 601v-87h312V0zm20 681q0-32-17-48.5T450 616q-30 0-47 16.5T386 681t17 48.5 47 16.5q31 0 48-16.5t17-48.5z"/><glyph glyph-name="fl" unicode="fl" horiz-adv-x="572" d="M330 678q-16 5-35 8.5t-36 3.5q-34 0-55-18.5T183 601v-87h139v-73H183V0H92v441H16v73h76v83q0 85 39 126.5T242 765q30 0 54.5-5.5T334 748zM495 0h-91v755h91V0z"/><glyph glyph-name="ffi" unicode="ffi" horiz-adv-x="884" d="M807 0h-91v441H495V0h-91v441H183V0H92v441H16v73h76v83q0 85 39 126.5T242 765q30 0 54.5-5.5T334 748l-4-70q-16 5-35 8.5t-36 3.5q-34 0-55-18.5T183 601v-87h221v83q0 85 39 126.5T554 765q28 0 48-4.5t34-10.5l-3-71q-14 5-30 8t-33 3q-34 0-54.5-18.5T495 601v-87h312V0zm20 681q0-32-17-48.5T762 616q-30 0-47 16.5T698 681t17 48.5 47 16.5q31 0 48-16.5t17-48.5z"/><glyph glyph-name="ffl" unicode="ffl" horiz-adv-x="884" d="M642 678q-16 5-35 8.5t-36 3.5q-34 0-55-18.5T495 601v-87h139v-73H495V0h-91v441H183V0H92v441H16v73h76v83q0 85 39 126.5T242 765q30 0 54.5-5.5T334 748l-4-70q-16 5-35 8.5t-36 3.5q-34 0-55-18.5T183 601v-87h221v83q0 85 39 126.5T554 765q30 0 54.5-5.5T646 748zM807 0h-91v755h91V0z"/><glyph glyph-name="f_k" unicode="fk" horiz-adv-x="854" d="M330 678q-16 5-35 8.5t-36 3.5q-34 0-55-18.5T183 601v-87h139v-73H183V0H92v441H16v73h76v83q0 85 39 126.5T242 765q30 0 54.5-5.5T334 748zm165-390l220 226h104L641 329 832 0H732L574 265l-79-78V0h-91v755h91V288z"/><glyph glyph-name="f_b" unicode="fb" horiz-adv-x="904" d="M330 678q-16 5-35 8.5t-36 3.5q-34 0-55-18.5T183 601v-87h139v-73H183V0H92v441H16v73h76v83q0 85 39 126.5T242 765q30 0 54.5-5.5T334 748zM404 0v755h90V457q34 30 75.5 49t98.5 19q40 0 74-13.5t59-43.5 39.5-79T855 269q0-75-17-128.5t-46.5-87-69-49.5T638-12q-46 0-83.5 17.5T489 45h-1l-5-45h-79zm91 118q9-6 22-15.5T547.5 85 585 71t42-6q36 0 61.5 14.5t41.5 41 23.5 64.5 7.5 85q0 92-29 135t-93 43q-21 0-42-6t-40-15-35-20.5-27-22.5V118z"/><glyph glyph-name="f_h" unicode="fh" horiz-adv-x="906" d="M330 678q-16 5-35 8.5t-36 3.5q-34 0-55-18.5T183 601v-87h139v-72H183V0H92v442H16v72h76v83q0 85 39 126.5T242 765q30 0 54.5-5.5T334 748zM832 0h-91v335q0 54-21.5 82T645 445q-22 0-44.5-6.5T558 423t-36.5-20-26.5-20V0h-91v755h90V456q38 29 82.5 49t98.5 20q82 0 119.5-44T832 349V0z"/><glyph glyph-name="f_t" unicode="ft" horiz-adv-x="686" d="M675 22Q656 9 620.5-1.5T549-12q-73 0-109 34.5T404 135v306H183V0H92v441H16v73h76v83q0 85 39 126.5T242 765q30 0 54.5-5.5T334 748l-4-70q-16 5-35 8.5t-36 3.5q-34 0-55-18.5T183 601v-87h221v149l91 14V514h141v-73H495V147q0-20 3-36t11-26.5 22.5-16T569 63t48 8 41 17z"/><glyph glyph-name="f_j" unicode="fj" horiz-adv-x="569" d="M349-223q-25 0-54 6t-43 14l10 74q15-6 35.5-10.5T337-144q31 0 49 17.5T404-63v504H183V0H92v441H16v73h76v83q0 85 39 126.5T242 765q28 0 51-5t37-11l-4-71q-14 5-32.5 8.5T258 690q-34 0-54.5-18.5T183 601v-87h312V-67q0-82-38-119t-108-37zm167 910q0-32-16.5-49T452 621t-48 17-17 49q0 31 17 48t48 17 47.5-17 16.5-48z"/><glyph glyph-name="f_f_j" unicode="ffj" horiz-adv-x="880" d="M660-223q-25 0-54 6t-43 14l10 74q15-6 35.5-10.5T648-144q31 0 49 17.5T715-63v504H494V0h-91v441H183V0H92v441H16v73h76v83q0 85 39 126.5T242 765q30 0 54.5-5.5T334 748l-4-70q-16 5-35 8.5t-36 3.5q-34 0-55-18.5T183 601v-87h220v83q0 85 39 126.5T553 765q28 0 51-5t37-11l-4-71q-14 5-32.5 8.5T569 690q-34 0-54.5-18.5T494 601v-87h312V-67q0-82-38-119t-108-37zm167 910q0-32-16.5-49T763 621t-48 17-17 49q0 31 17 48t48 17 47.5-17 16.5-48z"/><glyph glyph-name="f_f_k" unicode="ffk" horiz-adv-x="1166" d="M642 678q-16 5-35 8.5t-36 3.5q-34 0-55-18.5T495 601v-87h139v-73H495V0h-91v441H183V0H92v441H16v73h76v83q0 85 39 126.5T242 765q30 0 54.5-5.5T334 748l-4-70q-16 5-35 8.5t-36 3.5q-34 0-55-18.5T183 601v-87h221v83q0 85 39 126.5T554 765q30 0 54.5-5.5T646 748zm165-390l220 226h104L953 329 1144 0h-100L886 265l-79-78V0h-91v755h91V288z"/><glyph glyph-name="f_f_b" unicode="ffb" horiz-adv-x="1216" d="M716 0v755h90V457q34 30 75.5 49t98.5 19q40 0 74-13.5t59-43.5 39.5-79 14.5-120q0-75-17-128.5t-46.5-87-69-49.5T950-12q-46 0-83.5 17.5T801 45h-1l-5-45h-79zm-74 678q-16 5-35 8.5t-36 3.5q-34 0-55-18.5T495 601v-87h139v-73H495V0h-91v441H183V0H92v441H16v73h76v83q0 85 39 126.5T242 765q30 0 54.5-5.5T334 748l-4-70q-16 5-35 8.5t-36 3.5q-34 0-55-18.5T183 601v-87h221v83q0 85 39 126.5T554 765q30 0 54.5-5.5T646 748zm165-560q9-6 22-15.5T859.5 85 897 71t42-6q36 0 61.5 14.5t41.5 41 23.5 64.5 7.5 85q0 92-29 135t-93 43q-21 0-42-6t-40-15-35-20.5-27-22.5V118z"/><glyph glyph-name="f_f_h" unicode="ffh" horiz-adv-x="1218" d="M642 678q-16 5-35 8.5t-36 3.5q-34 0-55-18.5T495 601v-87h139v-72H495V0h-91v442H183V0H92v442H16v72h76v83q0 85 39 126.5T242 765q30 0 54.5-5.5T334 748l-4-70q-16 5-35 8.5t-36 3.5q-34 0-55-18.5T183 601v-87h221v83q0 85 39 126.5T554 765q30 0 54.5-5.5T646 748zM1144 0h-91v335q0 54-21.5 82T957 445q-22 0-44.5-6.5T870 423t-36.5-20-26.5-20V0h-91v755h90V456q38 29 82.5 49t98.5 20q82 0 119.5-44t37.5-132V0z"/><glyph glyph-name="f_f_t" unicode="fft" horiz-adv-x="997" d="M641 678q-16 5-35 8.5t-36 3.5q-34 0-55-18.5T494 601v-87h221v149l91 14V514h141v-73H806V147q0-20 3-36t11-26.5 22.5-16T880 63t48 8 41 17l17-66Q967 9 931.5-1.5T860-12q-73 0-109 34.5T715 135v306H494V0h-91v441H183V0H92v441H16v73h76v83q0 85 39 126.5T242 765q30 0 54.5-5.5T334 748l-4-70q-16 5-35 8.5t-36 3.5q-34 0-55-18.5T183 601v-87h220v83q0 85 39 126.5T553 765q30 0 54.5-5.5T645 748z"/><glyph glyph-name="f_iacute" unicode="fí" horiz-adv-x="572" d="M495 0h-91v441H183V0H92v441H16v73h76v83q0 85 39 126.5T242 765q28 0 51-5t37-11l-4-71q-14 5-32.5 8.5T258 690q-34 0-54.5-18.5T183 601v-87h312V0zm-36 572l-66 12 97 163h109z"/><glyph glyph-name="t_t" unicode="tt" horiz-adv-x="689" d="M678 22Q659 9 623.5-1.5T552-12q-72 0-108.5 34.5T407 135v306H188V147q0-20 2.5-36T201 84.5t22.5-16T261 63q21 0 44.5 7T346 86l17-66Q343 7 309.5-2.5T242-12q-72 0-108.5 34.5T97 135v306H18v73h79v149l91 14V514h219v149l91 14V514h142v-73H498V147q0-20 3-36t11-26.5 22.5-16T572 63t48 8 42 17z"/><glyph glyph-name=".notdef" horiz-adv-x="500"/><glyph glyph-name=".null" horiz-adv-x="0"/><glyph glyph-name=".null" horiz-adv-x="0"/><glyph glyph-name="nonmarkingreturn" horiz-adv-x="500"/><glyph glyph-name="space" horiz-adv-x="214"/><glyph glyph-name="exclam" unicode="!" horiz-adv-x="266" d="M99 188L82 724h102l-16-536H99zM201 52q0-64-67-64T67 52q0 65 67 65t67-65z"/><glyph glyph-name="quotedbl" unicode="&quot;" horiz-adv-x="361" d="M213 465v259h90V465h-90zm-155 0v259h90V465H58z"/><glyph glyph-name="numbersign" unicode="#" horiz-adv-x="607" d="M321 0l22 144H222L200 0h-72l21 144H34l16 69h110l23 145H68l14 70h111l19 131h73l-20-131h119l19 131h73l-20-131h115l-13-70H446l-21-145h114l-14-69H415L393 0h-72zm53 358H255l-23-145h121z"/><glyph glyph-name="dollar" unicode="$" horiz-adv-x="529" d="M393 517q-8 44-27.5 74.5T303 631V391q37-10 70-23.5t58-35.5 39.5-54.5T485 198q0-85-49-133.5T304 5v-86h-75V4q-38 3-72 13.5T97 50t-43.5 57T30 195l83 17q6-32 14-55.5t21.5-40.5 34-26.5T233 77v241q-34 9-66 22t-57 35-40 55-15 82q0 43 13.5 77t37 58 55.5 38.5 69 19.5v87h76v-84q72-7 116-48.5T477 530zm2-327q0 25-7 42.5T368.5 263 339 284.5 303 299V79q41 8 66.5 34t25.5 77zM145 524q0-41 19.5-68t68.5-45v220q-51-10-69.5-41T145 524z"/><glyph glyph-name="percent" unicode="%" horiz-adv-x="801" d="M188 374q-45 0-75.5 14.5T63 427t-27 56-8 67q0 41 10.5 75.5t31.5 59 52.5 38.5 73.5 14q84 0 121-47.5T354 563q0-84-42-136.5T188 374zm3 66q49 0 66.5 32t17.5 87q0 25-3.5 45.5t-13 35.5-25.5 23.5-40 8.5q-25 0-41.5-9.5t-26.5-26-14-37.5-4-43q0-26 4-47.5t13.5-36.5 25.5-23.5 41-8.5zM589-12q-45 0-75.5 14.5T464 41t-27 56-8 67q0 41 10.5 75.5t31.5 59 52.5 38.5 73.5 14q84 0 121-47.5T755 177q0-84-42-136.5T589-12zm3 66q49 0 66.5 32t17.5 87q0 25-3.5 45.5t-13 35.5-25.5 23.5-40 8.5q-25 0-41.5-9.5t-26.5-26-14-37.5-4-43q0-26 4-47.5T525.5 86 551 62.5t41-8.5zM124-16l439 740h81L206-16h-82z"/><glyph glyph-name="ampersand" unicode="&amp;" horiz-adv-x="699" d="M486 561q0-22-6.5-45.5T456 469t-46-45-74-41l-36-16q33-54 84-117 47-59 85-100 26 37 37.5 86.5T520 343h81q-1-65-17.5-128.5T527 100q22-17 44-26.5t45-9.5 46 10l16-68q-16-9-35.5-13T606-11q-42 0-74.5 14.5T467 42q-32-25-78-39.5T282-12q-51 0-93 15t-71.5 41T72 106.5 56 186q0 73 34.5 119.5T191 386q-20 36-29.5 71t-9.5 73q0 36 13.5 66.5t38 53 58 35.5 73.5 13q25 0 52-6t49-21 36-41.5 14-68.5zM295 61q68 0 115 30-33 32-62.5 66.5T295 224q-21 28-39 53t-34 51q-33-20-54-50.5T147 195q0-26 9-50t27-43 46-30 66-11zm-54 479q0-55 30-116l5.5 2 12 5 12 5 5.5 2q53 23 76.5 52t23.5 67q0 29-19 49.5T330 627t-63.5-22-25.5-65z"/><glyph glyph-name="quotesingle" unicode="'" horiz-adv-x="206" d="M58 465v259h90V465H58z"/><glyph glyph-name="parenleft" unicode="(" horiz-adv-x="317" d="M198-152q-27 41-53 88T99 37 66.5 151.5 54 280q0 67 13 129t34.5 118 49 105.5T207 724h94q-70-109-111-216t-41-226q0-68 11-126t30.5-111 45-101.5T291-153z"/><glyph glyph-name="parenright" unicode=")" horiz-adv-x="317" d="M108.024-152q26.996 41 52.993 88t45.994 101q19.998 54 32.496 114.5 12.5 60.5 12.5 128.5 0 67-13 129-12.998 62-34.495 118-21.498 56-48.994 105.5Q128.021 682 99.025 724H5.037q69.99-109 110.986-216t40.995-226q0-68-11-126T115.524 45Q96.025-8 70.528-56.5 45.032-105 15.034-153z"/><glyph glyph-name="asterisk" unicode="*" horiz-adv-x="471" d="M273 617l128 32 13-43-119-60 79-120-34-27-106 100-105-103-34 29 78 121-121 59 14 43 130-31 19 138h42z"/><glyph glyph-name="plus" unicode="+" d="M243 128v152H96v83h147v150h83V363h147v-83H326V128h-83z"/><glyph glyph-name="comma" unicode="," horiz-adv-x="218" d="M70 106h101L87-129l-73 9z"/><glyph glyph-name="hyphen" unicode="-" horiz-adv-x="316" d="M20 251v87h271v-87H20z"/><glyph glyph-name="period" unicode="." horiz-adv-x="226" d="M181 55q0-67-68-67T45 55t68 67 68-67z"/><glyph glyph-name="slash" unicode="/" horiz-adv-x="379" d="M7-92l281 847h82L90-92H7z"/><glyph glyph-name="zero" unicode="0" horiz-adv-x="562" d="M278-12q-74 0-120 28T86 94 50.5 212 41 361q0 80 11.5 149t40 119.5 76 79T289 737q74 0 119.5-28.5t70.5-78T512.5 515t8.5-142q0-85-10.5-155.5T473 96t-74-79.5T278-12zm4 75q46 0 75 21.5t45 61.5 22 96 6 124q0 67-5 121t-20.5 92.5-44 59.5-74.5 21q-47 0-76.5-21t-47-60-24-95-6.5-126q0-65 5.5-119t21.5-93 45.5-61T282 63z"/><glyph glyph-name="one" unicode="1" horiz-adv-x="413" d="M202 0v599q-13-8-34-14t-44-10-44-6.5-33-2.5l-7 74q70 6 117.5 25t82.5 59h52V0h-90z"/><glyph glyph-name="two" unicode="2" horiz-adv-x="523" d="M267 737q90 0 144-44t54-136q0-41-10.5-77T424 408.5t-49.5-73T308 254L161 82v-2h314V0H55v76l170 205q38 45 65.5 80.5T336 428t27 60.5 9 64.5q0 58-30.5 82.5T258 660q-35 0-58-9t-37-25-21.5-38.5T130 539l-83 15q7 49 26 84t48 57 66 32 80 10z"/><glyph glyph-name="three" unicode="3" horiz-adv-x="541" d="M124 174q5-23 12-43t20.5-34.5 36-22.5 58.5-8q27 0 52 8t44 24.5 30 43 11 64.5q0 39-11 65t-31 42-48 23-62 7h-65v77h46q76 0 118.5 36.5T378 553q0 22-5.5 42t-19 34.5-35.5 23-54 8.5-53.5-7-35.5-20-23-32-16-44l-81 18q9 45 29.5 76t49 50 64.5 27 76 8q96 0 145.5-46.5T469 566q0-41-13-71t-33.5-51-45.5-34-49-19v-3q71-13 112.5-56.5T482 204q0-49-16.5-88.5t-47-68-73.5-44T249-12q-42 0-78.5 9.5t-64 29.5T61 79t-23 77z"/><glyph glyph-name="four" unicode="4" horiz-adv-x="553" d="M356 0v178H22v68l309 478h114V256h85v-78h-86V0h-88zm1 256v378L112 256h245z"/><glyph glyph-name="five" unicode="5" horiz-adv-x="541" d="M99 724h346v-80H170l-21-233q25 20 59.5 34.5T291 460q37 0 72.5-11t63-36.5 44.5-68T488 239q0-56-16.5-102t-48-79-76-51.5T246-12q-39 0-75 9.5T106 27 57 79.5 30 157l85 21q4-21 12-41t23-35.5 38.5-25T247 67q27 0 53 9t47 29.5 33.5 52.5 12.5 78q0 40-10 67.5t-27.5 45T314 374t-52 8q-38 0-70.5-15T133 327l-62 28z"/><glyph glyph-name="six" unicode="6" horiz-adv-x="565" d="M428 561q-7 30-17 50t-24 31-31 15.5-37 4.5q-50 0-82.5-28t-52-71.5-27-96.5-8.5-102q13 14 31.5 28t42 25 50 17.5T327 441q95 0 143.5-57T519 233q0-59-16.5-105t-46-77-71-47T293-12q-71 0-116 28.5T106 93 70.5 204.5 61 339q0 40 4.5 85.5t16 89.5 31 84.5 49 71.5 70.5 49 96 18q35 0 65-8t53-26 39.5-47.5T510 583zM154 286q2-41 8.5-81t21.5-72 42-51.5T296 62q57 0 94 40.5T427 226q0 138-118 138-22 0-44-6.5T223 340t-37.5-25-31.5-29z"/><glyph glyph-name="seven" unicode="7" horiz-adv-x="512" d="M99 0l296 644H35v80h456v-70L196 0H99z"/><glyph glyph-name="eight" unicode="8" horiz-adv-x="540" d="M355 383q32-14 59.5-30.5t48-39 32-53.5 11.5-73-16.5-78.5-48-63.5-76-42T266-12q-60 0-103.5 14.5T91 42.5t-41.5 59T36 174q0 37 11.5 67T79 295t48 42.5 61 33.5q-27 12-50 29t-40.5 38.5T70 487t-10 60q0 48 17 83.5t47 59 71 35.5 89 12q99 0 154-44t55-122q0-66-37.5-110.5T355 383zm-97-50q-27-13-50.5-27t-41-32-27.5-41-10-53q0-25 7.5-46t24-36.5 43.5-24 65-8.5q39 0 66 10t44 27 24.5 39 7.5 46q0 31-14 54.5T361 282t-49.5 29-53.5 22zm22 83q53 27 87 64.5t34 85.5q0 47-29 71.5T279 662q-59 0-92.5-26.5T153 560q0-28 11-49.5t29-38.5 40.5-30.5T280 416z"/><glyph glyph-name="nine" unicode="9" horiz-adv-x="565" d="M129 170q14-60 45.5-83.5T255 63q46 0 77.5 23.5t50 63.5 27 92.5T419 353q-13-14-31.5-28T346 300.5t-50-17-55-6.5q-96 0-143.5 58T50 493q0 59 17 104.5t47.5 76.5 72.5 47 93 16q70 0 114.5-28.5T464 632t34-111.5 9-134.5q0-72-10-143t-37.5-127.5-78-92T250-12q-38 0-71.5 8.5t-60 27-45 48.5T47 146zm285 262q-2 41-7.5 82T386 588t-41.5 53.5T273 662q-57 0-94.5-40T141 496q0-70 29-106.5t89-36.5q45 0 86 23t69 56z"/><glyph glyph-name="colon" unicode=":" horiz-adv-x="226" d="M181 55q0-67-68-67T45 55t68 67 68-67zm0 379q0-67-68-67t-68 67 68 67 68-67z"/><glyph glyph-name="semicolon" unicode=";" horiz-adv-x="218" d="M61 106h101L78-129l-73 9zm132 328q0-67-68-67t-68 67 68 67 68-67z"/><glyph glyph-name="less" unicode="&lt;" d="M83 238v98l379 153v-84L166 290l296-111V93z"/><glyph glyph-name="equal" unicode="=" d="M98 157v85h374v-85H98zm0 164v85h374v-85H98z"/><glyph glyph-name="greater" unicode="&gt;" d="M91 98v81l296 111L91 403v86l379-153v-94z"/><glyph glyph-name="question" unicode="?" horiz-adv-x="508" d="M156 187v179q40 3 78 12t67.5 27.5 47 48T366 528q0 36-9.5 59.5t-26 37-39 19T243 649t-47.5-5.5-39-18.5-30.5-35-20-55l-85 15q6 35 21.5 67T85 673.5t67.5 39T249 727q42 0 80-9.5t67.5-32.5 46.5-60.5 17-93.5q0-52-16.5-90.5T398 375t-68.5-44.5T244 304V187h-88zM265 52q0-64-67-64t-67 64q0 65 67 65t67-65z"/><glyph glyph-name="at" unicode="@" horiz-adv-x="842" d="M673-103q-42-37-106-55t-139-18q-80 0-149.5 22.5T158-85.5t-80.5 114T48 189q0 86 28.5 157t80 121.5 124 78T442 573q76 0 140.5-20.5t112-61.5T769 389.5 796 250q0-66-13-114t-36-79-55-46-71-15q-42 0-71 15.5T509 51q-20-26-50.5-42.5T389-8q-41 0-69 14.5T275 46t-25 59-8 73q0 47 12 87t34 69.5 54 46 71 16.5q29 0 51.5-9.5T505 361l5 30h62V137q0-17 1.5-32t6.5-26 16-17 30-6q42 0 68 48t26 133q0 137-72.5 202.5T435 505q-74 0-131.5-24.5t-97-67-60-99.5T126 192q0-78 23.5-135t65-93.5 98.5-54T437-108q63 0 114 16.5T637-47zM501 305q-15 13-33.5 21.5T423 335q-44 0-74-36t-30-115q0-28 4-51.5t14-41 26-27 39-9.5q32 0 57 17t42 45v188z"/><glyph glyph-name="A" unicode="A" horiz-adv-x="687" d="M400 724L652 0H551l-73 215H200L129 0H36l244 724h120zm-61-84h-1L222 294h233z"/><glyph glyph-name="B" unicode="B" horiz-adv-x="628" d="M96 0v724h249q64 0 106-13.5t67-37.5 35-56.5 10-69.5q0-38-11.5-67t-31-49.5T475 397t-56-20v-2q89-11 131-57.5T592 196q0-56-20-93.5t-55.5-60T432 10 324 0H96zm215 77q39 0 73 4t58.5 17.5 38.5 38 14 65.5q0 36-12.5 60.5t-35 40-52.5 22-64 6.5H187V77h124zm-19 330q30 0 61.5 5t57.5 19 42.5 39 16.5 64q0 34-9.5 56T432 625t-47.5 18-65.5 5H187V407h105z"/><glyph glyph-name="C" unicode="C" horiz-adv-x="692" d="M368-12q-85 0-145.5 26T124 88 68 203 50 351q0 91 23.5 163T141 635.5 247.5 711 387 737q57 0 104.5-14t83-44 56.5-76 25-109l-86-9q-11 85-53 128.5T386 657q-113 0-177-74t-64-224q0-78 15.5-133.5T205 135t72-51.5T374 67q86 0 131.5 37.5T568 219l83-17q-9-60-36.5-101T548 35 462.5-1 368-12z"/><glyph glyph-name="D" unicode="D" horiz-adv-x="728" d="M96 0v724h223q94 0 162-24.5t111.5-70T657 519t21-146q0-83-22.5-152T587 103 470 27 302 0H96zm207 78q142 0 211 74.5T583 360q0 82-18.5 137t-53 88-85.5 47-115 14H188V78h115z"/><glyph glyph-name="E" unicode="E" horiz-adv-x="575" d="M188 80h344V0H96v724h423v-80H188V405h311v-80H188V80z"/><glyph glyph-name="F" unicode="F" horiz-adv-x="547" d="M188 0H96v724h423v-80H188V393h306v-80H188V0z"/><glyph glyph-name="G" unicode="G" horiz-adv-x="736" d="M577 98q-10-23-31-43t-50-35-64-23.5-73-8.5q-82 0-140.5 27t-96 75-55 115T50 353q0 92 23.5 163.5t67 120.5T247 711.5 389 737q57 0 104-13t82-42 56-75 26-111l-88-9q-9 88-53.5 129T386 657q-115 0-178-77t-63-219q0-84 17.5-140.5t48.5-91 73.5-49T377 66q49 0 85 15t60 39.5 36 55.5 12 63v62H378v75h279V0h-67z"/><glyph glyph-name="H" unicode="H" horiz-adv-x="728" d="M632 0h-92v328H188V0H96v724h92V411h352v313h92V0z"/><glyph glyph-name="I" unicode="I" horiz-adv-x="284" d="M188 0H96v724h92V0z"/><glyph glyph-name="J" unicode="J" horiz-adv-x="499" d="M320 724h92V183q0-54-14-91t-39.5-60.5-62-33.5T214-12q-89 0-135.5 39.5T26 157l88 15q3-24 8-44t16-33.5 29.5-21T216 66q22 0 41 4.5T290 87t22 34 8 58v545z"/><glyph glyph-name="K" unicode="K" horiz-adv-x="644" d="M188 371l325 353h103L331 414 630 0H522L268 342l-80-85V0H96v724h92V371z"/><glyph glyph-name="L" unicode="L" horiz-adv-x="552" d="M188 81h326V0H96v724h92V81z"/><glyph glyph-name="M" unicode="M" horiz-adv-x="897" d="M801 0h-87v625h-1L494 0h-96L183 626h-2V0H96v724h140l213-616h1l213 616h138V0z"/><glyph glyph-name="N" unicode="N" horiz-adv-x="745" d="M538 0L182 607V0H96v724h121l347-601v601h85V0H538z"/><glyph glyph-name="O" unicode="O" horiz-adv-x="759" d="M375-12q-84 0-145.5 28t-101 77.5-59 118.5T50 362t22 149.5T137 630t106.5 78.5T390 737q82 0 142-28t99.5-77T690 517t19-141q0-88-21-159.5T625 94 520.5 15.5 375-12zm5 81q51 0 94.5 17.5T549 141t48.5 93T615 367q0 72-16 126t-46 90-72 54.5-94 18.5q-53 0-97-18.5T214 582t-50-92-18-127q0-74 17-129t47.5-91.5 73.5-55T380 69z"/><glyph glyph-name="P" unicode="P" horiz-adv-x="616" d="M187 0H96v724h236q69 0 115.5-17.5T522 659t39.5-69.5T573 507q0-65-18.5-111t-54-75.5-87-43.5T297 263H187V0zm103 342q39 0 73.5 6t60 23.5 40 48.5 14.5 82q0 78-42.5 111T305 646H187V342h103z"/><glyph glyph-name="Q" unicode="Q" horiz-adv-x="759" d="M375-12q-83 0-144.5 28T129 93.5 69.5 212 50 362t22 149.5T137 630t106.5 78.5T390 737q82 0 142-28t99.5-77T690 517t19-141q0-94-23-165.5T615 87l89-96-54-51-92 99q-37-27-82.5-39T375-12zm5 79q70 0 122 31L370 237l57 54 131-144q28 41 43 95t15 125q0 72-16.5 126T553 583t-72 54.5-94 18.5q-53 0-97-18.5T214 582t-50-92-18-127q0-74 17-129t48-92.5 74-56T380 67z"/><glyph glyph-name="R" unicode="R" horiz-adv-x="625" d="M616 0H516L350 301H187V0H96v724h248q67 0 112-17t72-44.5 38.5-63T578 527q0-82-38.5-131T438 325zM322 378q36 0 65.5 6.5t50.5 23 33 44.5 12 70q0 37-12 61t-34 38-53.5 19.5T313 646H187V378h135z"/><glyph glyph-name="S" unicode="S" horiz-adv-x="583" d="M299 659q-42 0-70.5-8.5t-46.5-24-26-36-8-44.5q0-33 14.5-55t38.5-37.5 55-26.5 65-21q40-12 79.5-25.5t71-36 51-57T542 201q0-57-21-97.5t-56.5-66-82-37.5T286-12q-113 0-181.5 48.5T22 197l88 13q6-29 17-55t31-46 51-31.5T287 66q29 0 58 5.5T397 91t37 37.5 14 59.5q0 34-14 56.5T396.5 282 342 307.5 278 327q-40 11-80 24.5t-72 36-52 58T54 537q0 46 18.5 83.5t51 63 77 39.5 97.5 14q48 0 89-10t72-34 51-63 26-97l-86-10q-4 26-12.5 50.5t-25 43.5-44 30.5T299 659z"/><glyph glyph-name="T" unicode="T" horiz-adv-x="554" d="M232 0v644H13v80h528v-80H324V0h-92z"/><glyph glyph-name="U" unicode="U" horiz-adv-x="714" d="M358 68q87 0 130.5 40.5T532 251v473h91V243q0-131-70-193T354-12q-140 0-202 65T90 245v479h92V254q0-101 44.5-143.5T358 68z"/><glyph glyph-name="V" unicode="V" horiz-adv-x="621" d="M254 0L10 724h103L318 89h1l198 635h94L379 0H254z"/><glyph glyph-name="W" unicode="W" horiz-adv-x="888" d="M602 0L448 595h-1L289 0H175L17 724h96l124-616h1l160 616h102l160-624h1l119 624h92L719 0H602z"/><glyph glyph-name="X" unicode="X" horiz-adv-x="625" d="M363 371L611 0H505L306 297 114 0H14l238 367L26 724h104l179-286 185 286h97z"/><glyph glyph-name="Y" unicode="Y" horiz-adv-x="566" d="M334 0h-92v280L-5 724H99l190-353h2l185 353h95L334 282V0z"/><glyph glyph-name="Z" unicode="Z" horiz-adv-x="588" d="M146 80h401V0H34v68l387 576H45v80h486v-70z"/><glyph glyph-name="bracketleft" unicode="[" horiz-adv-x="272" d="M64-143v867h169v-64h-83V-79h83v-64H64z"/><glyph glyph-name="backslash" unicode="\" horiz-adv-x="380" d="M290-92L10 755h82L373-92h-83z"/><glyph glyph-name="bracketright" unicode="]" horiz-adv-x="272" d="M208.008-143v867H39.029v-64h82.99V-79H39.03v-64h168.979z"/><glyph glyph-name="asciicircum" unicode="^" horiz-adv-x="571" d="M441 299L283 581 128 299H41l197 365h93l200-365h-90z"/><glyph glyph-name="underscore" unicode="_" horiz-adv-x="500" d="M0-181v71h500v-71H0z"/><glyph glyph-name="grave" unicode="`" horiz-adv-x="500" d="M131 747h109l97-163-66-12z"/><glyph glyph-name="a" unicode="a" horiz-adv-x="545" d="M457 97q0-21 5.5-30.5T488 57q11 0 31 6l4-57q-32-16-71-16-38 0-56.5 18T373 51q-30-30-70.5-46.5T208-12q-49 0-78.5 14.5T83.5 38t-22 45-5.5 43q0 51 21 85t57.5 54 85 28 102.5 8q12 0 23-.5t22-1.5v50q0 24-4 43.5t-15.5 33-31.5 21-51 7.5q-53 0-77-21t-32-64l-80 15q12 72 59.5 106.5T273 525q95 0 139.5-40.5T457 348V97zm-89 136q-21 3-52 3-27 0-56-2.5t-53.5-12T166 193t-16-52q0-17 3.5-31.5t13-26 26.5-18 43-6.5q40 0 75.5 17.5T368 117v116z"/><glyph glyph-name="b" unicode="b" horiz-adv-x="581" d="M81 0v755h90V457q34 30 75.5 49t98.5 19q40 0 74-13.5t59-43.5 39.5-79T532 269q0-75-17-128.5t-46.5-87-69-49.5T315-12q-46 0-83.5 17.5T166 45h-1l-5-45H81zm91 118q9-6 22-15.5T224.5 85 262 71t42-6q36 0 61.5 14.5t41.5 41 23.5 64.5 7.5 85q0 92-29 135t-93 43q-21 0-42-6t-40-15-35-20.5-27-22.5V118z"/><glyph glyph-name="c" unicode="c" horiz-adv-x="538" d="M285-12q-64 0-108.5 19.5t-73 54.5T62 145.5 49 252q0 135 65 204t181 69q86 0 139.5-45T493 346l-87-12q-6 57-33.5 86T291 449q-28 0-54.5-8.5t-47-29.5-33-57-12.5-91q0-57 11-95.5t30.5-61.5T231 73.5t57-9.5q53 0 85.5 26.5T416 174l80-17q-6-45-25.5-77t-48-52.5-63.5-30-74-9.5z"/><glyph glyph-name="d" unicode="d" horiz-adv-x="577" d="M500 0h-76l-7 55-1 1q-33-30-73.5-49T246-12q-44 0-80 14.5t-62 46-40 81T50 249q0 76 18 128.5t48 85.5 69 47.5 82 14.5q45 0 81-13t63-35v278h89V0zm-90 402q-18 14-52 29.5T279 447q-37 0-63-14t-42-40-23-62.5-7-81.5q0-94 30.5-139.5T273 64q40 0 76.5 19.5T410 127v275z"/><glyph glyph-name="e" unicode="e" horiz-adv-x="546" d="M286-12q-68 0-113.5 22t-73 59-39 85.5T49 256q0 70 19 121t52 84 77 48.5 94 15.5q54 0 92.5-17t63.5-46.5 36.5-70T495 303q0-15-1-32t-3-35H145q1-49 12.5-82t30.5-53 44.5-28.5T289 64q55 0 82.5 23.5T410 155l80-18q-16-75-71-112T286-12zm115 320q0 69-27.5 106T285 451q-26 0-50-8t-43-25.5-31.5-44.5-14.5-65h255z"/><glyph glyph-name="f" unicode="f" horiz-adv-x="327" d="M335 678q-15 5-34.5 9t-37.5 4q-35 0-57.5-18.5T183 600v-86h143v-73H183V0H92v441H16v73h76v83q0 85 39.5 126.5T245 765q32 0 56.5-5.5T339 748z"/><glyph glyph-name="g" unicode="g" horiz-adv-x="552" d="M269 525q48 0 85.5-10.5T418 478q12 28 32 47.5t49 19.5q12 0 23-2t22-6v-73q-23 2-50.5-1.5T446 453q19-22 28.5-51t9.5-61q0-44-16-78t-44.5-57.5-67-36T274 157q-26 0-49 2.5t-43 9.5q-11-10-21.5-21T150 121q0-15 12.5-25.5T216 82l143-10q40-3 71-10t52.5-22 33-39.5T527-62q0-47-23-78.5T443.5-191t-85-27-95.5-8q-72 0-117 11.5T75.5-185 41-144.5 32-99q0 44 25.5 73.5T115 19v1Q89 31 74 47T59 91q0 33 20.5 56.5T127 192q-35 19-55.5 56.5T51 336q0 42 15.5 77t44 60 68.5 38.5 90 13.5zm127-185q0 58-33 85t-91 27q-27 0-50.5-6T180 426.5t-28-34-10-50.5q0-51 29.5-80.5T270 232q57 0 91.5 28t34.5 80zm37-413q0 28-17 43t-69 19L180-1q-29-20-43-37.5T123-82q0-16 7.5-29.5t24.5-23 46-14.5 73-5q159 0 159 81z"/><glyph glyph-name="h" unicode="h" horiz-adv-x="582" d="M509 0h-91v335q0 54-21.5 82T322 445q-22 0-44.5-6.5T235 423t-36.5-20-26.5-20V0H81v755h90V456q38 29 82.5 49t98.5 20q82 0 119.5-44T509 349V0z"/><glyph glyph-name="i" unicode="i" horiz-adv-x="249" d="M172 0H81v514h91V0zm21 679q0-32-17-49t-48-17-47.5 17T64 679q0 65 64 65 31 0 48-16.5t17-48.5z"/><glyph glyph-name="j" unicode="j" horiz-adv-x="247" d="M26-223q-25 0-54 6t-43 14l10 74q15-6 35.5-10.5T14-144q31 0 49 17.5T81-63v577h91V-67q0-82-38-119T26-223zm167 910q0-32-16.5-49T129 621t-48 17-17 49q0 31 17 48t48 17 47.5-17 16.5-48z"/><glyph glyph-name="k" unicode="k" horiz-adv-x="531" d="M172 288l221 226h103L318 329 509 0H409L251 265l-79-78V0H81v755h91V288z"/><glyph glyph-name="l" unicode="l" horiz-adv-x="249" d="M172 0H81v755h91V0z"/><glyph glyph-name="m" unicode="m" horiz-adv-x="866" d="M172 0H81v514h78l5-58q38 29 80 49t95 20q51 0 82.5-17.5T468 454q38 30 81.5 50.5T646 525q81 0 113.5-44T792 350V0h-91v337q0 52-15.5 80T621 445q-18 0-38-5.5T544.5 426 510 407.5 483 388q1-9 1.5-18.5t.5-19.5V0h-91v337q0 52-15.5 80T314 445q-20 0-40.5-6t-40-15-35.5-20-26-20V0z"/><glyph glyph-name="n" unicode="n" horiz-adv-x="582" d="M509 0h-91v335q0 54-21.5 82T322 445q-22 0-44.5-6.5T235 423t-36.5-20-26.5-20V0H81v514h80l5-61q38 30 84.5 51T351 525q83 0 120.5-44T509 349V0z"/><glyph glyph-name="o" unicode="o" horiz-adv-x="578" d="M286-12q-67 0-112.5 20.5t-73 56T61 149 49 255q0 62 16 112t47.5 85 78 54T299 525q61 0 104.5-19t71.5-53 41-81.5T529 267q0-63-13.5-114.5t-43-88T397 8 286-12zm5 73q33 0 59.5 10.5t45 34.5 28.5 62 10 93q0 53-9 89.5T398 409t-44 31.5-59 9.5q-34 0-62-10.5T185 406t-31-59.5-11-87.5q0-103 36.5-150.5T291 61z"/><glyph glyph-name="p" unicode="p" horiz-adv-x="581" d="M81 514h79l5-59q35 32 79 51t99 19q40 0 74.5-13.5t60-43.5 39.5-79 14-120q0-75-17.5-128.5T467 53 399 3.5 317-12q-47 0-83.5 14.5T169 38v-250H81v726zm91-398q8-6 21.5-15T224 84t37.5-13.5T304 65q37 0 62.5 14.5T408 121t23 65 7 84q0 97-30 138t-92 41q-21 0-42-6t-40-15.5-35-21-27-22.5V116z"/><glyph glyph-name="q" unicode="q" horiz-adv-x="575" d="M500-212h-86V51q-34-27-73.5-45T246-12q-44 0-80 14.5t-62 46-40 81T50 250q0 76 18 128.5t48 85 69 47 82 14.5q45 0 82-16t64-40l8 45h79v-726zm-90 609q-9 7-22.5 16T357 429.5 320.5 442t-41.5 5q-37 0-63-14t-42-40-23-62-7-81q0-94 30-140t99-46q40 0 76.5 19.5T410 127v270z"/><glyph glyph-name="r" unicode="r" horiz-adv-x="364" d="M354 430q-24 3-49.5.5T255 420t-45.5-19.5T172 374V0H81v514h76l7-74q34 46 75.5 65.5T335 525q5 0 9.5-.5t9.5-.5v-94z"/><glyph glyph-name="s" unicode="s" horiz-adv-x="487" d="M248 525q46 0 78.5-10.5t55-30 35.5-47 19-61.5l-82-18q-5 22-11.5 39.5t-18.5 30-30.5 19T247 453q-56 0-77.5-21.5T148 381q0-20 7.5-33.5T178 325t36-15 48-12q35-8 68-16.5t58.5-25 41-43T445 144q0-74-53.5-115T244-12q-89 0-141 35.5T39 137l81 22q5-21 13-39t22-31.5 36.5-21T248 60q46 0 76.5 16.5T355 134q0 21-7.5 34.5t-22 22-35.5 14-47 10.5q-32 6-64.5 14.5T119 254t-44 43.5T58 370q0 39 15 68t41 48.5 60.5 29T248 525z"/><glyph glyph-name="t" unicode="t" horiz-adv-x="379" d="M368 22Q349 9 313.5-1.5T242-12q-72 0-108.5 34.5T97 135v306H18v73h79v149l91 14V514h142v-73H188V147q0-20 3-36t11-26.5 22.5-16T262 63t48 8 42 17z"/><glyph glyph-name="u" unicode="u" horiz-adv-x="581" d="M79 514h91V179q0-54 18-82t75-28q22 0 44.5 6.5t42 16 36 20.5 26.5 20v382h91V0h-79l-6 59q-38-31-83-50t-99-19q-82 0-119.5 44T79 165v349z"/><glyph glyph-name="v" unicode="v" horiz-adv-x="505" d="M202 0L6 514h99L256 91h1l149 423h93L306 0H202z"/><glyph glyph-name="w" unicode="w" horiz-adv-x="759" d="M167 0L6 514h92L223 96l113 418h94L542 98h1l122 416h88L593 0H487L381 405h-1L275 0H167z"/><glyph glyph-name="x" unicode="x" horiz-adv-x="492" d="M294 267L476 0h-99L240 202 110 0H17l173 265L18 514h100l126-187 130 187h93z"/><glyph glyph-name="y" unicode="y" horiz-adv-x="485" d="M8 514h101l136-408h1l141 408h93L258-75q-15-41-32-69t-37.5-45.5-45-25.5-54.5-8q-29 0-56.5 6T-10-204l11 71q14-5 38-10.5t44-5.5q28 0 51.5 17T175-69l24 63z"/><glyph glyph-name="z" unicode="z" horiz-adv-x="459" d="M134 73h300V0H31v62l288 379H35v73h387v-66z"/><glyph glyph-name="braceleft" unicode="{" horiz-adv-x="306" d="M275-145h-54q-73 0-105 30.5T84-29q0 48 6.5 100T97 171t-20 67-55 19H4v67h17q76 0 76 85 0 24-2 52.5t-4.5 57-4.5 55-2 47.5q0 116 136 116h55v-71h-39q-33 0-46-13.5T177 613q0-22 2-48t4.5-53.5 4.5-55 2-51.5q0-29-6-48.5t-16-32-23.5-20.5-28.5-14q15-6 28.5-13.5T168 256t16-32.5 6-47.5q0-50-6.5-99.5T177-15q0-29 14-45.5T247-77h28v-68z"/><glyph glyph-name="bar" unicode="|" horiz-adv-x="280" d="M99-143v898h82v-898H99z"/><glyph glyph-name="braceright" unicode="}" horiz-adv-x="306" d="M31 737h54q73 0 105-30.5t32-85.5q0-48-6.5-100T209 421t20-67 55-19h18v-67h-17q-76 0-76-85 0-24 2-52.5t4.5-57 4.5-55 2-47.5q0-116-136-116H31v71h39q33 0 46 13.5T129-21q0 22-2 48t-4.5 53.5-4.5 55-2 51.5q0 29 6 48.5t16 32 23.5 20.5 28.5 14q-15 6-28.5 13.5T138 336t-16 32.5-6 47.5q0 50 6.5 99.5T129 607q0 29-14 45.5T59 669H31v68z"/><glyph glyph-name="asciitilde" unicode="~" horiz-adv-x="517" d="M137 420q24 0 57.5-7t67.5-16 64-16 47-7q19 0 28 9.5t9 42.5l58-3q7-62-19-92.5T381 300q-23 0-57 7t-68.5 16-65 16-47.5 7q-16 0-26.5-11t-8.5-43l-58 2q-4 31 1.5 55t18 39.5 30 23.5 37.5 8z"/><glyph glyph-name="uni00A0" horiz-adv-x="214"/><glyph glyph-name="exclamdown" unicode="¡" horiz-adv-x="266" d="M175.012 324.023l16.998-535.936H90.023l15.998 535.936h68.991zM73.024 460.006q0 63.992 66.993 63.992 66.99 0 66.99-63.992 0-64.991-66.99-64.991-66.993 0-66.993 64.991z"/><glyph glyph-name="cent" unicode="¢" horiz-adv-x="516" d="M321 700V600q65-8 107.5-48.5T476 436l-83-12q-5 46-23 69.5T317 523V181q38 5 57 28t29 67l77-16q-6-36-20.5-63t-36-46-48.5-30.5-57-15.5V0h-73v103q-47 6-82 26.5t-58 53T70.5 257 59 348q0 111 50.5 173.5T245 598v102h76zM153 359q0-34 4.5-63t15.5-52 29-38.5 45-22.5v338q-20-5-37-16t-30-30.5-20-48-7-67.5z"/><glyph glyph-name="sterling" unicode="£" horiz-adv-x="561" d="M76 75q83 75 83 159 0 42-23 88H32v74h77q-13 23-29 59t-16 83q0 44 17 80.5t47 63 72 41 92 14.5q94 0 147-42t65-142l-82-11q-4 29-12 51.5t-23 38-38.5 23.5-58.5 8q-61 0-99-29t-38-86q0-24 5-45.5t12.5-40.5 15.5-35.5 15-30.5h226v-74H226q19-42 19-86 0-89-74-161h173q29 0 49 6.5t33 20 21 34.5 13 50l80-16q-11-91-57.5-130.5T348 0H22v75h54z"/><glyph glyph-name="currency" unicode="¤" d="M502 5l-91 89q-52-37-131-37-43 0-76.5 10.5T145 96q-2-3-16-17L99 49 69.5 19.5 55 5-1 63l94 94q-16 27-23.5 58.5T62 281q0 64 33 117L2 490l59 60 89-88q26 20 60.5 31.5T287 505q83 0 135-40l85 84 55-58-87-88q29-52 29-118 0-35-9-67.5T468 156l94-92zM285 133q32 0 56.5 11.5t41 31.5 24.5 47 8 58q0 68-33 107t-100 39q-65 0-97.5-41T152 281q0-31 7.5-58t23.5-47 41.5-31.5T285 133z"/><glyph glyph-name="yen" unicode="¥" horiz-adv-x="530" d="M315 200V0h-91v200H92v69h132v87H92v68h96L23 724h100l149-279h1l143 279h93L348 424h101v-68H315v-87h134v-69H315z"/><glyph glyph-name="brokenbar" unicode="¦" horiz-adv-x="280" d="M99-143v388h82v-388H99zm0 555v343h82V412H99z"/><glyph glyph-name="section" unicode="§" horiz-adv-x="548" d="M47 248q0 44 25 81.5t70 66.5q-26 21-42.5 52T83 527q0 45 16.5 79t45.5 57 67.5 34.5T295 709q89 0 144.5-45.5T500 528l-85-11q-6 56-33.5 87.5T292 636q-60 0-90-27.5T172 538q0-32 14.5-53t38-34.5 54-23 62-19 62-20.5 54-29 38-45 14.5-67q0-43-25-81.5T415 98q26-20 42.5-51T474-32q0-45-16.5-79T412-168t-67.5-34.5T262-214q-90 0-145 45T56-33l86 11q5-56 33.5-87.5T266-141q59 0 89 28t30 73q0 42-25 65t-62.5 37T216 86.5 134.5 115 72 163.5 47 248zm87 15q0-34 20.5-53t52-31.5 70-21.5 74.5-23q32 20 52 44.5t20 54.5q0 33-20.5 52T350 316t-71 21.5-75 23.5q-32-21-51-45t-19-53z"/><glyph glyph-name="dieresis" unicode="¨" horiz-adv-x="500" d="M208 672q0-29-17-45.5T146 610q-29 0-46.5 16.5T82 672q0 28 17.5 44.5T146 733q28 0 45-16.5t17-44.5zm210 0q0-29-17-45.5T355 610t-46 16.5-17 45.5q0 28 17 44.5t46 16.5 46-16.5 17-44.5z"/><glyph glyph-name="copyright" unicode="©" horiz-adv-x="771" d="M722 326q0-76-24.5-138t-69-106.5-106.5-69T385-12q-83 0-146 25T134 81.5 70.5 184 49 312q0 79 26.5 141.5t72.5 106T255.5 626 387 649q78 0 140-23t105.5-65T699 459t23-133zM387 42q64 0 115 19t87 55 55 87.5T663 320q0 67-20.5 118.5t-57 86-87.5 52T387 594q-59 0-110-19t-88-55-58-88-21-119q0-63 19-113t54.5-85.5 87-54T387 42zm157 212q-5-39-21.5-64.5t-39-40T436 129t-47-6q-48 0-82 15t-55.5 42-31.5 63-10 78 12 78 35 61.5 57 40 78 14.5q29 0 55-7t45.5-22 32-39.5T539 387l-59-8q-4 43-25 63.5T390 463q-23 0-43.5-7.5t-36-25-24.5-45-9-66.5q0-29 6.5-54.5t20-45T338 189t50-11q49 0 70 21.5t30 63.5z"/><glyph glyph-name="ordfeminine" unicode="ª" horiz-adv-x="378" d="M316 350q0-14 4-19.5t17-5.5q8 0 20 3l3-41q-10-5-24.5-8t-28.5-3q-28 0-41.5 12.5T249 316q-20-19-46.5-30.5T139 274q-32 0-52 9.5t-31 23T41 336t-4 28q0 32 13 53.5T84.5 452t51 18.5T198 478h23l21-2v28q0 30-11.5 47T181 568q-32 0-46.5-12.5T115 516l-64 12q8 47 40.5 70t95.5 23q66 0 97.5-26t31.5-89V350zm-73 79q-6 1-12.5 1.5t-15.5.5q-18 0-36-2t-32.5-7.5T123 405t-9-30 10-33 42-14q23 0 44 10t33 22v69z"/><glyph glyph-name="guillemotleft" unicode="«" horiz-adv-x="435" d="M144 103L57 259l89 149h82l-84-146 82-159h-82zm160 0l-87 156 89 149h82l-84-146 82-159h-82z"/><glyph glyph-name="logicalnot" unicode="¬" d="M390 190v94H94v83h377V190h-81z"/><glyph glyph-name="uni00AD" unicode="­" horiz-adv-x="311" d="M20 251v87h271v-87H20z"/><glyph glyph-name="registered" unicode="®" horiz-adv-x="452" d="M412 478q0-42-13.5-76T360 343.5t-59-38-76-13.5q-46 0-80.5 13.5t-58 37.5-35 57T40 471q0 43 14.5 78t40 59 59.5 37 73 13q86 0 135.5-49T412 478zm-42-3q0 71-40.5 107T227 618q-30 0-56.5-10t-46-28.5-30.5-46T83 472q0-66 38.5-103T227 332q66 0 104.5 38.5T370 475zm-54-92h-43l-44 75h-25v-75h-39v191h68q40 0 53-16.5t13-37.5q0-20-9.5-32T265 470zm-99 105q18 0 30 5.5t12 24.5q0 16-9.5 21t-25.5 5h-20v-56h13z"/><glyph glyph-name="macron" unicode="¯" horiz-adv-x="500" d="M105 625v71h291v-71H105z"/><glyph glyph-name="degree" unicode="°" horiz-adv-x="340" d="M182 578q26 0 40 16t14 43q0 28-14 43t-40 15q-25 0-40.5-15.5T126 634q0-26 14.5-41t41.5-15zm111 59q0-52-30-82t-81-30q-52 0-82.5 29T69 634q0 55 32.5 84.5T182 748t79.5-28.5T293 637z"/><glyph glyph-name="plusminus" unicode="±" d="M96 0v80h377V0H96zm147 135v145H96v83h147v150h83V363h147v-83H326V135h-83z"/><glyph glyph-name="twosuperior" unicode="²" horiz-adv-x="386" d="M196 802q66 0 100.5-29t34.5-85q0-26-7.5-48.5t-22-44.5-35.5-46-49-52l-70-76v-2h191v-70H52v68l103 114q24 27 41.5 47.5t29 38T242 650t5 34q0 29-15.5 41.5T188 738q-35 0-50.5-18.5T117 669l-71 12q4 32 17 55t33 37.5 45.5 21.5 54.5 7z"/><glyph glyph-name="threesuperior" unicode="³" horiz-adv-x="399" d="M112 466q5-29 19-44.5t51-15.5q30 0 51.5 16.5T255 478q0 41-21.5 56T173 549h-43v60h29q44 0 67 21t23 54q0 24-12.5 39T190 738t-48.5-14.5T120 681l-71 14q6 30 20 50.5t33.5 33 44 18T198 802q65 0 99-28.5t34-77.5q0-24-8-42t-20.5-31-28-21.5T244 588v-1q45-9 70.5-35.5T340 476q0-63-43.5-98.5T183 342q-55 0-96 25t-49 85z"/><glyph glyph-name="acute" unicode="´" horiz-adv-x="500" d="M233 572l-66 12 97 163h109z"/><glyph glyph-name="mu" unicode="µ" horiz-adv-x="629" d="M100 514h91V180q0-60 17-87t65-27q24 0 47 7.5T363 93t37.5 27 30.5 29v365h91V0h-87v62h-1q-35-29-77-50.5T261-10q-23 0-44 7t-32 18l-3-1 11-190h-93v690z"/><glyph glyph-name="paragraph" unicode="¶" horiz-adv-x="562" d="M472-133h-78v789h-82v-789h-78v382q-99 8-154 68T25 478q0 67 22 114t60 76.5 88.5 42.5T302 724h169z"/><glyph glyph-name="periodcentered" unicode="·" horiz-adv-x="194" d="M163 304q0-64-66-64t-66 64q0 65 66 65t66-65z"/><glyph glyph-name="cedilla" unicode="¸" horiz-adv-x="500" d="M151-161q9-5 24-10t32-5q23 0 35.5 12.5T255-131q0 25-17 35.5T182-84l16 114 57-8-9-66q31-6 55-25.5t24-62.5q0-47-31.5-73.5T215-232q-27 0-48 6.5T134-212z"/><glyph glyph-name="onesuperior" unicode="¹" horiz-adv-x="316" d="M143 347v348q-8-4-21.5-7.5t-28-6-28-4T44 676l-4 65q43 3 75.5 15t55.5 36h55V347h-83z"/><glyph glyph-name="ordmasculine" unicode="º" horiz-adv-x="399" d="M197 274q-46 0-77 13t-50 36.5-27.5 55T34 447q0 81 43 127.5T206 621q42 0 72.5-12t49.5-34 28-52.5 9-67.5q0-83-39.5-132T197 274zm3 62q40 0 63 25t23 90q0 62-21 86.5T203 562q-42 0-66-25.5T113 449q0-61 21-87t66-26z"/><glyph glyph-name="guillemotright" unicode="»" horiz-adv-x="435" d="M131 408l88-154-88-151H49l84 150-84 155h82zm160 0l88-154-88-151h-82l84 150-84 155h82z"/><glyph glyph-name="onequarter" unicode="¼" horiz-adv-x="890" d="M203-12l356 736h84L289-12h-86zm-45 291v348q-8-4-21.5-7.5t-28-6-28-4T59 608l-4 65q43 3 75.5 15t55.5 36h55V279h-83zM703 0v103H494v57l188 285h101V168h53v-65h-52V0h-81zm0 168v204L568 168h135z"/><glyph glyph-name="onehalf" unicode="½" horiz-adv-x="890" d="M190-12l356 736h84L276-12h-86zm-24 291v348q-8-4-21.5-7.5t-28-6-28-4T67 608l-4 65q43 3 75.5 15t55.5 36h55V279h-83zm528 174q66 0 100.5-29t34.5-85q0-26-7.5-48.5t-22-44.5-35.5-46-49-52l-70-76v-2h191V0H550v68l103 114q24 27 41.5 47.5t29 38T740 301t5 34q0 29-15.5 41.5T686 389q-35 0-50.5-18.5T615 320l-71 12q4 32 17 55t33 37.5 45.5 21.5 54.5 7z"/><glyph glyph-name="threequarters" unicode="¾" horiz-adv-x="890" d="M239-12l356 736h84L325-12h-86zM725 0v103H516v57l188 285h101V168h53v-65h-52V0h-81zm0 168v204L590 168h135zM119 398q5-29 19-44.5t51-15.5q30 0 51.5 16.5T262 410q0 41-21.5 56T180 481h-43v60h29q44 0 67 21t23 54q0 24-12.5 39T197 670t-48.5-14.5T127 613l-71 14q6 30 20 50.5t33.5 33 44 18T205 734q65 0 99-28.5t34-77.5q0-24-8-42t-20.5-31-28-21.5T251 520v-1q45-9 70.5-35.5T347 408q0-63-43.5-98.5T190 274q-55 0-96 25t-49 85z"/><glyph glyph-name="questiondown" unicode="¿" horiz-adv-x="480" d="M343.02 325.022V146.044q-39.996-3-77.991-11.999t-67.491-27.496Q168.04 88.05 150.543 58.555q-17.498-29.497-17.498-74.491 0-35.997 9.5-59.494 9.498-23.497 25.996-36.995t38.995-18.998q22.498-5.499 48.494-5.499 25.997 0 47.494 5.5 21.498 5.5 38.996 18.497 17.497 12.998 30.496 34.996 12.998 21.997 19.997 54.994l84.99-14.998q-6-34.997-21.498-66.993t-42.494-56.493q-26.997-24.497-67.492-38.995t-96.488-14.498q-41.995 0-79.99 9.5-37.995 9.497-67.492 32.495-29.497 22.997-46.495 60.492-16.997 37.496-16.997 93.489 0 51.994 16.497 90.489 16.498 38.495 45.495 65.492 28.997 26.997 68.492 44.494 39.495 17.498 85.489 26.497v116.985h87.99zM234.032 460.006q0 63.992 66.992 63.992 66.991 0 66.991-63.992 0-64.991-66.99-64.991-66.993 0-66.993 64.991z"/><glyph glyph-name="Agrave" unicode="À" horiz-adv-x="687" d="M400 724L652 0H551l-73 215H200L129 0H36l244 724h120zm-61-84h-1L222 294h233zM213 913h110l99-134-69-12z"/><glyph glyph-name="Aacute" unicode="Á" horiz-adv-x="687" d="M400 724L652 0H551l-73 215H200L129 0H36l244 724h120zm-61-84h-1L222 294h233zm-2 127l-69 12 99 134h110z"/><glyph glyph-name="Acircumflex" unicode="Â" horiz-adv-x="687" d="M400 724L652 0H551l-73 215H200L129 0H36l244 724h120zm-61-84h-1L222 294h233zm4 207l-84-80-70 9 116 129h79l114-129-70-7z"/><glyph glyph-name="Atilde" unicode="Ã" horiz-adv-x="687" d="M400 724L652 0H551l-73 215H200L129 0H36l244 724h120zm-61-84h-1L222 294h233zm-72 264q24 0 44-7t38-15.5 35-15.5 34-7q19 0 28.5 9.5T456 910l55-3q8-62-17.5-91.5T427 786q-24 0-44.5 7t-39 16-36 16-34.5 7q-16 0-26.5-11t-8.5-43l-56 3q-4 32 1.5 55t17.5 38 29.5 22.5T267 904z"/><glyph glyph-name="Adieresis" unicode="Ä" horiz-adv-x="687" d="M400 724L652 0H551l-73 215H200L129 0H36l244 724h120zm-61-84h-1L222 294h233zm-38 201q0-29-17-45t-45-16q-29 0-46.5 16T175 841t17.5 45.5T239 903q28 0 45-16.5t17-45.5zm210 0q0-29-17-45t-46-16-46 16-17 45 17 45.5 46 16.5 46-16.5 17-45.5z"/><glyph glyph-name="Aring" unicode="Å" horiz-adv-x="687" d="M445 808q0-30-12-52t-33-34L652 0H551l-73 215H200L129 0H36l243 721q-44 25-44 82 0 52 31 77.5t73 25.5q22 0 41-6t33.5-18 23-30.5T445 808zM339 640h-1L222 294h233zm0 116q25 0 37 14t12 39q0 47-49 47-21 0-35.5-12.5T289 806q0-50 50-50z"/><glyph glyph-name="AE" unicode="Æ" horiz-adv-x="1000" d="M605 80h344V0H512v316H298L126 0H30l394 724h512v-80H605V397h310v-79H605V80zm-93 564h-43L334 394h178v250z"/><glyph glyph-name="Ccedilla" unicode="Ç" horiz-adv-x="692" d="M299-161q9-5 23.5-10t30.5-5q25 0 37.5 12.5T403-131q0 25-17 35.5T330-84l9 73q-77 4-132 32t-90 75.5-51 112T50 351q0 91 23.5 163T141 635.5 247.5 711 387 737q57 0 104.5-14t83-44 56.5-76 25-109l-86-9q-11 85-53 128.5T386 657q-113 0-177-74t-64-224q0-78 15.5-133.5T205 135t72-51.5T374 67q86 0 131.5 37.5T568 219l83-17q-9-55-33-94t-58.5-64.5-76-38.5T398-11l-4-33q31-6 55-25.5t24-62.5q0-47-31.5-73.5T363-232q-27 0-46.5 6T285-213z"/><glyph glyph-name="Egrave" unicode="È" horiz-adv-x="575" d="M188 80h344V0H96v724h423v-80H188V405h311v-80H188V80zm-13 833h110l99-134-69-12z"/><glyph glyph-name="Eacute" unicode="É" horiz-adv-x="575" d="M188 80h344V0H96v724h423v-80H188V405h311v-80H188V80zm111 687l-69 12 99 134h110z"/><glyph glyph-name="Ecircumflex" unicode="Ê" horiz-adv-x="575" d="M188 80h344V0H96v724h423v-80H188V405h311v-80H188V80zm117 767l-84-80-70 9 116 129h79l114-129-70-7z"/><glyph glyph-name="Edieresis" unicode="Ë" horiz-adv-x="575" d="M188 80h344V0H96v724h423v-80H188V405h311v-80H188V80zm75 761q0-29-17-45t-45-16q-29 0-46.5 16T137 841t17.5 45.5T201 903q28 0 45-16.5t17-45.5zm210 0q0-29-17-45t-46-16-46 16-17 45 17 45.5 46 16.5 46-16.5 17-45.5z"/><glyph glyph-name="Igrave" unicode="Ì" horiz-adv-x="284" d="M188 0H96v724h92V0zM13 913h110l99-134-69-12z"/><glyph glyph-name="Iacute" unicode="Í" horiz-adv-x="284" d="M188 0H96v724h92V0zm-51 767l-69 12 99 134h110z"/><glyph glyph-name="Icircumflex" unicode="Î" horiz-adv-x="284" d="M188 0H96v724h92V0zm-45 847l-84-80-70 9 116 129h79l114-129-70-7z"/><glyph glyph-name="Idieresis" unicode="Ï" horiz-adv-x="284" d="M188 0H96v724h92V0zm-87 841q0-29-17-45t-45-16q-29 0-46.5 16T-25 841t17.5 45.5T39 903q28 0 45-16.5t17-45.5zm210 0q0-29-17-45t-46-16-46 16-17 45 17 45.5 46 16.5 46-16.5 17-45.5z"/><glyph glyph-name="Eth" unicode="Ð" horiz-adv-x="728" d="M18 404h78v320h223q94 0 162-24.5t111.5-70T657 519t21-146q0-83-22.5-152T587 103 470 27 302 0H96v329H18v75zM303 78q142 0 211 74.5T583 360q0 82-18.5 137t-53 88-85.5 47-115 14H188V404h203v-75H188V78h115z"/><glyph glyph-name="Ntilde" unicode="Ñ" horiz-adv-x="745" d="M538 0L182 607V0H96v724h121l347-601v601h85V0H538zM304 904q24 0 44-7t38-15.5 35-15.5 34-7q19 0 28.5 9.5T493 910l55-3q8-62-17.5-91.5T464 786q-24 0-44.5 7t-39 16-36 16-34.5 7q-16 0-26.5-11t-8.5-43l-56 3q-4 32 1.5 55t17.5 38 29.5 22.5T304 904z"/><glyph glyph-name="Ograve" unicode="Ò" horiz-adv-x="759" d="M375-12q-84 0-145.5 28t-101 77.5-59 118.5T50 362t22 149.5T137 630t106.5 78.5T390 737q82 0 142-28t99.5-77T690 517t19-141q0-88-21-159.5T625 94 520.5 15.5 375-12zm5 81q51 0 94.5 17.5T549 141t48.5 93T615 367q0 72-16 126t-46 90-72 54.5-94 18.5q-53 0-97-18.5T214 582t-50-92-18-127q0-74 17-129t47.5-91.5 73.5-55T380 69zM256 913h110l99-134-69-12z"/><glyph glyph-name="Oacute" unicode="Ó" horiz-adv-x="759" d="M375-12q-84 0-145.5 28t-101 77.5-59 118.5T50 362t22 149.5T137 630t106.5 78.5T390 737q82 0 142-28t99.5-77T690 517t19-141q0-88-21-159.5T625 94 520.5 15.5 375-12zm5 81q51 0 94.5 17.5T549 141t48.5 93T615 367q0 72-16 126t-46 90-72 54.5-94 18.5q-53 0-97-18.5T214 582t-50-92-18-127q0-74 17-129t47.5-91.5 73.5-55T380 69zm0 698l-69 12 99 134h110z"/><glyph glyph-name="Ocircumflex" unicode="Ô" horiz-adv-x="759" d="M375-12q-84 0-145.5 28t-101 77.5-59 118.5T50 362t22 149.5T137 630t106.5 78.5T390 737q82 0 142-28t99.5-77T690 517t19-141q0-88-21-159.5T625 94 520.5 15.5 375-12zm5 81q51 0 94.5 17.5T549 141t48.5 93T615 367q0 72-16 126t-46 90-72 54.5-94 18.5q-53 0-97-18.5T214 582t-50-92-18-127q0-74 17-129t47.5-91.5 73.5-55T380 69zm6 778l-84-80-70 9 116 129h79l114-129-70-7z"/><glyph glyph-name="Otilde" unicode="Õ" horiz-adv-x="759" d="M375-12q-84 0-145.5 28t-101 77.5-59 118.5T50 362t22 149.5T137 630t106.5 78.5T390 737q82 0 142-28t99.5-77T690 517t19-141q0-88-21-159.5T625 94 520.5 15.5 375-12zm5 81q51 0 94.5 17.5T549 141t48.5 93T615 367q0 72-16 126t-46 90-72 54.5-94 18.5q-53 0-97-18.5T214 582t-50-92-18-127q0-74 17-129t47.5-91.5 73.5-55T380 69zm-70 835q24 0 44-7t38-15.5 35-15.5 34-7q19 0 28.5 9.5T499 910l55-3q8-62-17.5-91.5T470 786q-24 0-44.5 7t-39 16-36 16-34.5 7q-16 0-26.5-11t-8.5-43l-56 3q-4 32 1.5 55t17.5 38 29.5 22.5T310 904z"/><glyph glyph-name="Odieresis" unicode="Ö" horiz-adv-x="759" d="M375-12q-84 0-145.5 28t-101 77.5-59 118.5T50 362t22 149.5T137 630t106.5 78.5T390 737q82 0 142-28t99.5-77T690 517t19-141q0-88-21-159.5T625 94 520.5 15.5 375-12zm5 81q51 0 94.5 17.5T549 141t48.5 93T615 367q0 72-16 126t-46 90-72 54.5-94 18.5q-53 0-97-18.5T214 582t-50-92-18-127q0-74 17-129t47.5-91.5 73.5-55T380 69zm-36 772q0-29-17-45t-45-16q-29 0-46.5 16T218 841t17.5 45.5T282 903q28 0 45-16.5t17-45.5zm210 0q0-29-17-45t-46-16-46 16-17 45 17 45.5 46 16.5 46-16.5 17-45.5z"/><glyph glyph-name="multiply" unicode="×" d="M284 260L180 154l-59 61 106 105-106 107 59 60 104-105 106 105 58-60-105-107 105-105-58-61z"/><glyph glyph-name="Oslash" unicode="Ø" horiz-adv-x="759" d="M375-12q-54 0-97 12l-29-72h-90l42 102Q123 76 86.5 162.5T50 362q0 81 22 149.5T137 630t106.5 78.5T390 737q28 0 52.5-3.5T490 724l30 70h89l-43-104q73-46 108-128.5T709 376q0-88-21-159.5T625 94 520.5 15.5 375-12zM146 363q0-89 23.5-150.5T237 116l221 530q-17 5-34.5 7.5T387 656q-53 0-97-18.5T214 582t-50-92-18-127zM380 69q51 0 94.5 17.5T549 141t48.5 93T615 367q0 84-22 144t-62 95L311 78q31-9 69-9z"/><glyph glyph-name="Ugrave" unicode="Ù" horiz-adv-x="714" d="M358 68q87 0 130.5 40.5T532 251v473h91V243q0-131-70-193T354-12q-140 0-202 65T90 245v479h92V254q0-101 44.5-143.5T358 68zM227 913h110l99-134-69-12z"/><glyph glyph-name="Uacute" unicode="Ú" horiz-adv-x="714" d="M358 68q87 0 130.5 40.5T532 251v473h91V243q0-131-70-193T354-12q-140 0-202 65T90 245v479h92V254q0-101 44.5-143.5T358 68zm-7 699l-69 12 99 134h110z"/><glyph glyph-name="Ucircumflex" unicode="Û" horiz-adv-x="714" d="M358 68q87 0 130.5 40.5T532 251v473h91V243q0-131-70-193T354-12q-140 0-202 65T90 245v479h92V254q0-101 44.5-143.5T358 68zm-1 779l-84-80-70 9 116 129h79l114-129-70-7z"/><glyph glyph-name="Udieresis" unicode="Ü" horiz-adv-x="714" d="M358 68q87 0 130.5 40.5T532 251v473h91V243q0-131-70-193T354-12q-140 0-202 65T90 245v479h92V254q0-101 44.5-143.5T358 68zm-43 773q0-29-17-45t-45-16q-29 0-46.5 16T189 841t17.5 45.5T253 903q28 0 45-16.5t17-45.5zm210 0q0-29-17-45t-46-16-46 16-17 45 17 45.5 46 16.5 46-16.5 17-45.5z"/><glyph glyph-name="Yacute" unicode="Ý" horiz-adv-x="566" d="M334 0h-92v280L-5 724H99l190-353h2l185 353h95L334 282V0zm-51 767l-69 12 99 134h110z"/><glyph glyph-name="Thorn" unicode="Þ" horiz-adv-x="616" d="M187 0H96v724h91V605h145q69 0 115.5-17.5t74.5-47 39.5-68T573 393q0-65-18.5-110.5t-54-75-87-43T297 151H187V0zm103 230q39 0 73.5 5.5t60 22.5 40 48 14.5 82q0 73-42.5 106T305 527H187V230h103z"/><glyph glyph-name="germandbls" unicode="ß" horiz-adv-x="660" d="M81 0v539q0 62 18 105.5t49.5 70.5 75.5 39.5 97 12.5q109 0 166-47t57-133q0-36-9.5-63t-25-47-36.5-34-44-24v-3q38-7 71-21t58-38 39-60 14-87q0-49-13.5-89.5t-40-70-65-45.5T405-11q-66 0-114 31t-61 97l60 33q11-38 33-63t72-25q55 0 88.5 35T517 205q0 47-14.5 78.5t-39.5 50-58.5 26.5-71.5 8h-40v70h15q40 0 68 11t44.5 30 24 43.5T452 574q0 65-37 93.5T312 696q-32 0-58-7.5T210 663t-28-49.5-10-79.5V0H81z"/><glyph glyph-name="agrave" unicode="à" horiz-adv-x="545" d="M457 97q0-21 5.5-30.5T488 57q11 0 31 6l4-57q-32-16-71-16-38 0-56.5 18T373 51q-30-30-70.5-46.5T208-12q-49 0-78.5 14.5T83.5 38t-22 45-5.5 43q0 51 21 85t57.5 54 85 28 102.5 8q12 0 23-.5t22-1.5v50q0 24-4 43.5t-15.5 33-31.5 21-51 7.5q-53 0-77-21t-32-64l-80 15q12 72 59.5 106.5T273 525q95 0 139.5-40.5T457 348V97zm-89 136q-21 3-52 3-27 0-56-2.5t-53.5-12T166 193t-16-52q0-17 3.5-31.5t13-26 26.5-18 43-6.5q40 0 75.5 17.5T368 117v116zM153 747h109l97-163-66-12z"/><glyph glyph-name="aacute" unicode="á" horiz-adv-x="545" d="M457 97q0-21 5.5-30.5T488 57q11 0 31 6l4-57q-32-16-71-16-38 0-56.5 18T373 51q-30-30-70.5-46.5T208-12q-49 0-78.5 14.5T83.5 38t-22 45-5.5 43q0 51 21 85t57.5 54 85 28 102.5 8q12 0 23-.5t22-1.5v50q0 24-4 43.5t-15.5 33-31.5 21-51 7.5q-53 0-77-21t-32-64l-80 15q12 72 59.5 106.5T273 525q95 0 139.5-40.5T457 348V97zm-89 136q-21 3-52 3-27 0-56-2.5t-53.5-12T166 193t-16-52q0-17 3.5-31.5t13-26 26.5-18 43-6.5q40 0 75.5 17.5T368 117v116zM255 572l-66 12 97 163h109z"/><glyph glyph-name="acircumflex" unicode="â" horiz-adv-x="545" d="M457 97q0-21 5.5-30.5T488 57q11 0 31 6l4-57q-32-16-71-16-38 0-56.5 18T373 51q-30-30-70.5-46.5T208-12q-49 0-78.5 14.5T83.5 38t-22 45-5.5 43q0 51 21 85t57.5 54 85 28 102.5 8q12 0 23-.5t22-1.5v50q0 24-4 43.5t-15.5 33-31.5 21-51 7.5q-53 0-77-21t-32-64l-80 15q12 72 59.5 106.5T273 525q95 0 139.5-40.5T457 348V97zm-89 136q-21 3-52 3-27 0-56-2.5t-53.5-12T166 193t-16-52q0-17 3.5-31.5t13-26 26.5-18 43-6.5q40 0 75.5 17.5T368 117v116zm-7 344l-89 113-88-114-68 7 112 165h89l113-165z"/><glyph glyph-name="atilde" unicode="ã" horiz-adv-x="545" d="M457 97q0-21 5.5-30.5T488 57q11 0 31 6l4-57q-32-16-71-16-38 0-56.5 18T373 51q-30-30-70.5-46.5T208-12q-49 0-78.5 14.5T83.5 38t-22 45-5.5 43q0 51 21 85t57.5 54 85 28 102.5 8q12 0 23-.5t22-1.5v50q0 24-4 43.5t-15.5 33-31.5 21-51 7.5q-53 0-77-21t-32-64l-80 15q12 72 59.5 106.5T273 525q95 0 139.5-40.5T457 348V97zm-89 136q-21 3-52 3-27 0-56-2.5t-53.5-12T166 193t-16-52q0-17 3.5-31.5t13-26 26.5-18 43-6.5q40 0 75.5 17.5T368 117v116zM192 716q24 0 44-7t38-16 35-16 34-7q19 0 28.5 9.5T381 721l55-2q4-31-1-54t-17-38-29-22.5-37-7.5q-24 0-44.5 7t-39 16-36 16-34.5 7q-16 0-26.5-10.5T163 589l-56 3q-4 31 2 54.5t18 39 29 23 36 7.5z"/><glyph glyph-name="adieresis" unicode="ä" horiz-adv-x="545" d="M457 97q0-21 5.5-30.5T488 57q11 0 31 6l4-57q-32-16-71-16-38 0-56.5 18T373 51q-30-30-70.5-46.5T208-12q-49 0-78.5 14.5T83.5 38t-22 45-5.5 43q0 51 21 85t57.5 54 85 28 102.5 8q12 0 23-.5t22-1.5v50q0 24-4 43.5t-15.5 33-31.5 21-51 7.5q-53 0-77-21t-32-64l-80 15q12 72 59.5 106.5T273 525q95 0 139.5-40.5T457 348V97zm-89 136q-21 3-52 3-27 0-56-2.5t-53.5-12T166 193t-16-52q0-17 3.5-31.5t13-26 26.5-18 43-6.5q40 0 75.5 17.5T368 117v116zM230 672q0-29-17-45.5T168 610q-29 0-46.5 16.5T104 672q0 28 17.5 44.5T168 733q28 0 45-16.5t17-44.5zm210 0q0-29-17-45.5T377 610t-46 16.5-17 45.5q0 28 17 44.5t46 16.5 46-16.5 17-44.5z"/><glyph glyph-name="aring" unicode="å" horiz-adv-x="545" d="M457 97q0-21 5.5-30.5T488 57q11 0 31 6l4-57q-32-16-71-16-38 0-56.5 18T373 51q-30-30-70.5-46.5T208-12q-49 0-78.5 14.5T83.5 38t-22 45-5.5 43q0 51 21 85t57.5 54 85 28 102.5 8q12 0 23-.5t22-1.5v50q0 24-4 43.5t-15.5 33-31.5 21-51 7.5q-53 0-77-21t-32-64l-80 15q12 72 59.5 106.5T273 525q95 0 139.5-40.5T457 348V97zm-89 136q-21 3-52 3-27 0-56-2.5t-53.5-12T166 193t-16-52q0-17 3.5-31.5t13-26 26.5-18 43-6.5q40 0 75.5 17.5T368 117v116zm11 441q0-48-29-74.5T272 573q-48 0-76.5 25.5T167 670q0 52 31.5 77.5T272 773q45 0 76-24t31-75zm-107-51q24 0 36.5 14t12.5 37q0 48-49 48-21 0-35.5-12.5T222 672q0-49 50-49z"/><glyph glyph-name="ae" unicode="æ" horiz-adv-x="859" d="M598-12q-69 0-112.5 20.5T416 66q-43-42-97-60T216-12q-51 0-82.5 14.5T84.5 38t-23 45-5.5 43q0 51 20 84.5t54.5 53.5 80 28 96.5 9h30l30-1v49q0 24-4.5 43.5t-16 33-31.5 21-51 7.5q-52 0-76-21t-32-64l-80 15q12 74 60 107.5T271 525q66 0 102-21t54-66q32 44 78 65.5T608 525q53 0 91-18t62-49 35.5-73.5T808 294q0-14-1-30.5t-3-31.5H458q1-51 12.5-83.5t30.5-51 45.5-26T604 64q54 0 80.5 23.5T722 155l81-18q-16-75-71.5-112T598-12zM237 59q42 0 80.5 17t67.5 48q-9 26-13 53.5t-5 58.5q-14 1-29 1h-30q-31 0-59.5-4.5t-50.5-15-35-29-13-48.5q0-16 3.5-30.5t13-26 26.5-18 44-6.5zm477 242q2 71-26.5 110.5T597 451q-26 0-49.5-9T505 415t-31.5-46.5T459 301h255z"/><glyph glyph-name="ccedilla" unicode="ç" horiz-adv-x="538" d="M212-161q9-5 24-10t32-5q23 0 35.5 12.5T316-131q0 25-17 35.5T243-84l10 74q-55 4-93.5 25.5t-63 56-36 80.5T49 252q0 135 65 204t181 69q86 0 139.5-45T493 346l-87-12q-6 57-33.5 86T291 449q-28 0-54.5-8.5t-47-29.5-33-57-12.5-91q0-57 11-95.5t30.5-61.5T231 73.5t57-9.5q53 0 85.5 26.5T416 174l80-17q-6-41-22.5-71T432 35.5t-56-32T311-11l-4-33q31-6 55-25.5t24-62.5q0-47-31.5-73.5T276-232q-27 0-48 6.5T195-212z"/><glyph glyph-name="egrave" unicode="è" horiz-adv-x="546" d="M286-12q-68 0-113.5 22t-73 59-39 85.5T49 256q0 70 19 121t52 84 77 48.5 94 15.5q54 0 92.5-17t63.5-46.5 36.5-70T495 303q0-15-1-32t-3-35H145q1-49 12.5-82t30.5-53 44.5-28.5T289 64q55 0 82.5 23.5T410 155l80-18q-16-75-71-112T286-12zm115 320q0 69-27.5 106T285 451q-26 0-50-8t-43-25.5-31.5-44.5-14.5-65h255zM168 747h109l97-163-66-12z"/><glyph glyph-name="eacute" unicode="é" horiz-adv-x="546" d="M286-12q-68 0-113.5 22t-73 59-39 85.5T49 256q0 70 19 121t52 84 77 48.5 94 15.5q54 0 92.5-17t63.5-46.5 36.5-70T495 303q0-15-1-32t-3-35H145q1-49 12.5-82t30.5-53 44.5-28.5T289 64q55 0 82.5 23.5T410 155l80-18q-16-75-71-112T286-12zm115 320q0 69-27.5 106T285 451q-26 0-50-8t-43-25.5-31.5-44.5-14.5-65h255zM270 572l-66 12 97 163h109z"/><glyph glyph-name="ecircumflex" unicode="ê" horiz-adv-x="546" d="M286-12q-68 0-113.5 22t-73 59-39 85.5T49 256q0 70 19 121t52 84 77 48.5 94 15.5q54 0 92.5-17t63.5-46.5 36.5-70T495 303q0-15-1-32t-3-35H145q1-49 12.5-82t30.5-53 44.5-28.5T289 64q55 0 82.5 23.5T410 155l80-18q-16-75-71-112T286-12zm115 320q0 69-27.5 106T285 451q-26 0-50-8t-43-25.5-31.5-44.5-14.5-65h255zm-25 269l-89 113-88-114-68 7 112 165h89l113-165z"/><glyph glyph-name="edieresis" unicode="ë" horiz-adv-x="546" d="M286-12q-68 0-113.5 22t-73 59-39 85.5T49 256q0 70 19 121t52 84 77 48.5 94 15.5q54 0 92.5-17t63.5-46.5 36.5-70T495 303q0-15-1-32t-3-35H145q1-49 12.5-82t30.5-53 44.5-28.5T289 64q55 0 82.5 23.5T410 155l80-18q-16-75-71-112T286-12zm115 320q0 69-27.5 106T285 451q-26 0-50-8t-43-25.5-31.5-44.5-14.5-65h255zM245 672q0-29-17-45.5T183 610q-29 0-46.5 16.5T119 672q0 28 17.5 44.5T183 733q28 0 45-16.5t17-44.5zm210 0q0-29-17-45.5T392 610t-46 16.5-17 45.5q0 28 17 44.5t46 16.5 46-16.5 17-44.5z"/><glyph glyph-name="igrave" unicode="ì" horiz-adv-x="249" d="M172 0H81v514h91V0zM7 747h109l97-163-66-12z"/><glyph glyph-name="iacute" unicode="í" horiz-adv-x="249" d="M172 0H81v514h91V0zm-63 572l-66 12 97 163h109z"/><glyph glyph-name="icircumflex" unicode="î" horiz-adv-x="249" d="M172 0H81v514h91V0zm43 577l-89 113-88-114-68 7L82 748h89l113-165z"/><glyph glyph-name="idieresis" unicode="ï" horiz-adv-x="249" d="M172 0H81v514h91V0zM84 672q0-29-17-45.5T22 610q-29 0-46.5 16.5T-42 672q0 28 17.5 44.5T22 733q28 0 45-16.5T84 672zm210 0q0-29-17-45.5T231 610t-46 16.5-17 45.5q0 28 17 44.5t46 16.5 46-16.5 17-44.5z"/><glyph glyph-name="eth" unicode="ð" horiz-adv-x="575" d="M203 615l73 41q-56 32-129 42l30 69q106-15 179-65l104 59 36-61-83-47q60-64 86.5-152T526 315q0-58-11-116T476 94t-75-76.5T281-12q-62 0-106 18.5T103 59t-41 82.5T49 250q0 52 14.5 97.5t43 80 72 54.5T279 502q35 0 72.5-9t69.5-30q-14 44-35 81t-50 66l-96-55zm-60-363q0-39 6-74t22-61 42.5-41.5T282 60q43 0 72.5 20.5T402 135t26 79 8 94q0 33-3 66-19 23-58.5 39.5T292 430q-75 0-112-46t-37-132z"/><glyph glyph-name="ntilde" unicode="ñ" horiz-adv-x="582" d="M509 0h-91v335q0 54-21.5 82T322 445q-22 0-44.5-6.5T235 423t-36.5-20-26.5-20V0H81v514h80l5-61q38 30 84.5 51T351 525q83 0 120.5-44T509 349V0zM218 716q24 0 44-7t38-16 35-16 34-7q19 0 28.5 9.5T407 721l55-2q4-31-1-54t-17-38-29-22.5-37-7.5q-24 0-44.5 7t-39 16-36 16-34.5 7q-16 0-26.5-10.5T189 589l-56 3q-4 31 2 54.5t18 39 29 23 36 7.5z"/><glyph glyph-name="ograve" unicode="ò" horiz-adv-x="578" d="M286-12q-67 0-112.5 20.5t-73 56T61 149 49 255q0 62 16 112t47.5 85 78 54T299 525q61 0 104.5-19t71.5-53 41-81.5T529 267q0-63-13.5-114.5t-43-88T397 8 286-12zm5 73q33 0 59.5 10.5t45 34.5 28.5 62 10 93q0 53-9 89.5T398 409t-44 31.5-59 9.5q-34 0-62-10.5T185 406t-31-59.5-11-87.5q0-103 36.5-150.5T291 61zM176 747h109l97-163-66-12z"/><glyph glyph-name="oacute" unicode="ó" horiz-adv-x="578" d="M286-12q-67 0-112.5 20.5t-73 56T61 149 49 255q0 62 16 112t47.5 85 78 54T299 525q61 0 104.5-19t71.5-53 41-81.5T529 267q0-63-13.5-114.5t-43-88T397 8 286-12zm5 73q33 0 59.5 10.5t45 34.5 28.5 62 10 93q0 53-9 89.5T398 409t-44 31.5-59 9.5q-34 0-62-10.5T185 406t-31-59.5-11-87.5q0-103 36.5-150.5T291 61zm-13 511l-66 12 97 163h109z"/><glyph glyph-name="ocircumflex" unicode="ô" horiz-adv-x="578" d="M286-12q-67 0-112.5 20.5t-73 56T61 149 49 255q0 62 16 112t47.5 85 78 54T299 525q61 0 104.5-19t71.5-53 41-81.5T529 267q0-63-13.5-114.5t-43-88T397 8 286-12zm5 73q33 0 59.5 10.5t45 34.5 28.5 62 10 93q0 53-9 89.5T398 409t-44 31.5-59 9.5q-34 0-62-10.5T185 406t-31-59.5-11-87.5q0-103 36.5-150.5T291 61zm93 516l-89 113-88-114-68 7 112 165h89l113-165z"/><glyph glyph-name="otilde" unicode="õ" horiz-adv-x="578" d="M286-12q-67 0-112.5 20.5t-73 56T61 149 49 255q0 62 16 112t47.5 85 78 54T299 525q61 0 104.5-19t71.5-53 41-81.5T529 267q0-63-13.5-114.5t-43-88T397 8 286-12zm5 73q33 0 59.5 10.5t45 34.5 28.5 62 10 93q0 53-9 89.5T398 409t-44 31.5-59 9.5q-34 0-62-10.5T185 406t-31-59.5-11-87.5q0-103 36.5-150.5T291 61zm-76 655q24 0 44-7t38-16 35-16 34-7q19 0 28.5 9.5T404 721l55-2q4-31-1-54t-17-38-29-22.5-37-7.5q-24 0-44.5 7t-39 16-36 16-34.5 7q-16 0-26.5-10.5T186 589l-56 3q-4 31 2 54.5t18 39 29 23 36 7.5z"/><glyph glyph-name="odieresis" unicode="ö" horiz-adv-x="578" d="M286-12q-67 0-112.5 20.5t-73 56T61 149 49 255q0 62 16 112t47.5 85 78 54T299 525q61 0 104.5-19t71.5-53 41-81.5T529 267q0-63-13.5-114.5t-43-88T397 8 286-12zm5 73q33 0 59.5 10.5t45 34.5 28.5 62 10 93q0 53-9 89.5T398 409t-44 31.5-59 9.5q-34 0-62-10.5T185 406t-31-59.5-11-87.5q0-103 36.5-150.5T291 61zm-38 611q0-29-17-45.5T191 610q-29 0-46.5 16.5T127 672q0 28 17.5 44.5T191 733q28 0 45-16.5t17-44.5zm210 0q0-29-17-45.5T400 610t-46 16.5-17 45.5q0 28 17 44.5t46 16.5 46-16.5 17-44.5z"/><glyph glyph-name="divide" unicode="÷" d="M343 166q0-62-64-62t-64 62q0 29 16.5 45.5T279 228q32 0 48-16.5t16-45.5zM96 279v84h377v-84H96zm247 199q0-63-64-63t-64 63q0 29 16.5 45.5T279 540q32 0 48-16.5t16-45.5z"/><glyph glyph-name="oslash" unicode="ø" horiz-adv-x="578" d="M286-12q-41 0-72 7l-29-67H99l43 98q-51 35-72 94.5T49 255q0 62 16 112t47.5 85 78 54T299 525q32 0 61-6l30 67h85l-42-96q50-32 73-89.5T529 267q0-63-13.5-114.5t-43-88T397 8 286-12zm5 73q33 0 59.5 10.5t45 34.5 28.5 62 10 93q0 54-9.5 90T397 409L246 66q10-3 21-4t24-1zM143 259q0-101 36-150l149 338q-15 3-33 3-34 0-62-10.5T185 406t-31-59.5-11-87.5z"/><glyph glyph-name="ugrave" unicode="ù" horiz-adv-x="581" d="M79 514h91V179q0-54 18-82t75-28q22 0 44.5 6.5t42 16 36 20.5 26.5 20v382h91V0h-79l-6 59q-38-31-83-50t-99-19q-82 0-119.5 44T79 165v349zm95 233h109l97-163-66-12z"/><glyph glyph-name="uacute" unicode="ú" horiz-adv-x="581" d="M79 514h91V179q0-54 18-82t75-28q22 0 44.5 6.5t42 16 36 20.5 26.5 20v382h91V0h-79l-6 59q-38-31-83-50t-99-19q-82 0-119.5 44T79 165v349zm197 58l-66 12 97 163h109z"/><glyph glyph-name="ucircumflex" unicode="û" horiz-adv-x="581" d="M79 514h91V179q0-54 18-82t75-28q22 0 44.5 6.5t42 16 36 20.5 26.5 20v382h91V0h-79l-6 59q-38-31-83-50t-99-19q-82 0-119.5 44T79 165v349zm303 63l-89 113-88-114-68 7 112 165h89l113-165z"/><glyph glyph-name="udieresis" unicode="ü" horiz-adv-x="581" d="M79 514h91V179q0-54 18-82t75-28q22 0 44.5 6.5t42 16 36 20.5 26.5 20v382h91V0h-79l-6 59q-38-31-83-50t-99-19q-82 0-119.5 44T79 165v349zm172 158q0-29-17-45.5T189 610q-29 0-46.5 16.5T125 672q0 28 17.5 44.5T189 733q28 0 45-16.5t17-44.5zm210 0q0-29-17-45.5T398 610t-46 16.5-17 45.5q0 28 17 44.5t46 16.5 46-16.5 17-44.5z"/><glyph glyph-name="yacute" unicode="ý" horiz-adv-x="485" d="M8 514h101l136-408h1l141 408h93L258-75q-15-41-32-69t-37.5-45.5-45-25.5-54.5-8q-29 0-56.5 6T-10-204l11 71q14-5 38-10.5t44-5.5q28 0 51.5 17T175-69l24 63zm220 58l-66 12 97 163h109z"/><glyph glyph-name="thorn" unicode="þ" horiz-adv-x="581" d="M81-212v967h90V457q34 30 75.5 49t98.5 19q40 0 74-13.5t59-43.5 39.5-79T532 269q0-75-17-128.5t-46.5-87-69-49.5T315-12q-46 0-82 15t-63 37h-1v-252H81zm91 330q9-6 22-15.5T224.5 85 262 71t42-6q36 0 61.5 14.5t41.5 41 23.5 64.5 7.5 85q0 92-29 135t-93 43q-21 0-42-6t-40-15-35-20.5-27-22.5V118z"/><glyph glyph-name="ydieresis" unicode="ÿ" horiz-adv-x="485" d="M8 514h101l136-408h1l141 408h93L258-75q-15-41-32-69t-37.5-45.5-45-25.5-54.5-8q-29 0-56.5 6T-10-204l11 71q14-5 38-10.5t44-5.5q28 0 51.5 17T175-69l24 63zm195 158q0-29-17-45.5T141 610q-29 0-46.5 16.5T77 672q0 28 17.5 44.5T141 733q28 0 45-16.5t17-44.5zm210 0q0-29-17-45.5T350 610t-46 16.5-17 45.5q0 28 17 44.5t46 16.5 46-16.5 17-44.5z"/><glyph glyph-name="Amacron" unicode="Ā" horiz-adv-x="687" d="M400 724L652 0H551l-73 215H200L129 0H36l244 724h120zm-61-84h-1L222 294h233zM189 793v71h307v-71H189z"/><glyph glyph-name="amacron" unicode="ā" horiz-adv-x="545" d="M457 97q0-21 5.5-30.5T488 57q11 0 31 6l4-57q-32-16-71-16-38 0-56.5 18T373 51q-30-30-70.5-46.5T208-12q-49 0-78.5 14.5T83.5 38t-22 45-5.5 43q0 51 21 85t57.5 54 85 28 102.5 8q12 0 23-.5t22-1.5v50q0 24-4 43.5t-15.5 33-31.5 21-51 7.5q-53 0-77-21t-32-64l-80 15q12 72 59.5 106.5T273 525q95 0 139.5-40.5T457 348V97zm-89 136q-21 3-52 3-27 0-56-2.5t-53.5-12T166 193t-16-52q0-17 3.5-31.5t13-26 26.5-18 43-6.5q40 0 75.5 17.5T368 117v116zM127 625v71h291v-71H127z"/><glyph glyph-name="Abreve" unicode="Ă" horiz-adv-x="687" d="M400 724L652 0H551l-73 215H200L129 0H36l244 724h120zm-61-84h-1L222 294h233zm5 202q35 0 56 15t29 57l66-6q-7-64-46-97t-108-33q-66 0-101.5 31.5T198 907l67 7q8-41 26-56.5t53-15.5z"/><glyph glyph-name="abreve" unicode="ă" horiz-adv-x="545" d="M457 97q0-21 5.5-30.5T488 57q11 0 31 6l4-57q-32-16-71-16-38 0-56.5 18T373 51q-30-30-70.5-46.5T208-12q-49 0-78.5 14.5T83.5 38t-22 45-5.5 43q0 51 21 85t57.5 54 85 28 102.5 8q12 0 23-.5t22-1.5v50q0 24-4 43.5t-15.5 33-31.5 21-51 7.5q-53 0-77-21t-32-64l-80 15q12 72 59.5 106.5T273 525q95 0 139.5-40.5T457 348V97zm-89 136q-21 3-52 3-27 0-56-2.5t-53.5-12T166 193t-16-52q0-17 3.5-31.5t13-26 26.5-18 43-6.5q40 0 75.5 17.5T368 117v116zm60 494q-2-75-41.5-115T272 572q-71 0-108 37t-39 115l67 9q5-56 24.5-76.5T275 636q41 0 62.5 20.5T363 732z"/><glyph glyph-name="Aogonek" unicode="Ą" horiz-adv-x="687" d="M693-147q-17-41-50-61t-68-20q-45 0-72.5 23T475-139q0 45 24 79t52 60l-73 215H200L129 0H36l244 724h120L652 0q-43-32-71-60t-28-64q0-38 38-38 32 0 54 39zM339 640h-1L222 294h233z"/><glyph glyph-name="aogonek" unicode="ą" horiz-adv-x="545" d="M544-147q-17-41-50-61t-68-20q-45 0-72.5 23T326-139q0 22 7 41.5t19 37 27 32T409-1q-17 8-25.5 21.5T373 51q-30-30-70.5-46.5T208-12q-49 0-78.5 14.5T83.5 38t-22 45-5.5 43q0 51 21 85t57.5 54 85 28 102.5 8q12 0 23-.5t22-1.5v50q0 24-4 43.5t-15.5 33-31.5 21-51 7.5q-53 0-77-21t-32-64l-80 15q12 72 59.5 106.5T273 525q95 0 139.5-40.5T457 348V97q0-21 5.5-30.5T488 57q11 0 31 6l4-57q-23-6-44.5-20t-38-33T414-86t-10-38q0-38 38-38 32 0 54 39zM368 233q-21 3-52 3-27 0-56-2.5t-53.5-12T166 193t-16-52q0-17 3.5-31.5t13-26 26.5-18 43-6.5q40 0 75.5 17.5T368 117v116z"/><glyph glyph-name="Cacute" unicode="Ć" horiz-adv-x="692" d="M368-12q-85 0-145.5 26T124 88 68 203 50 351q0 91 23.5 163T141 635.5 247.5 711 387 737q57 0 104.5-14t83-44 56.5-76 25-109l-86-9q-11 85-53 128.5T386 657q-113 0-177-74t-64-224q0-78 15.5-133.5T205 135t72-51.5T374 67q86 0 131.5 37.5T568 219l83-17q-9-60-36.5-101T548 35 462.5-1 368-12zm11 779l-69 12 99 134h110z"/><glyph glyph-name="cacute" unicode="ć" horiz-adv-x="538" d="M285-12q-64 0-108.5 19.5t-73 54.5T62 145.5 49 252q0 135 65 204t181 69q86 0 139.5-45T493 346l-87-12q-6 57-33.5 86T291 449q-28 0-54.5-8.5t-47-29.5-33-57-12.5-91q0-57 11-95.5t30.5-61.5T231 73.5t57-9.5q53 0 85.5 26.5T416 174l80-17q-6-45-25.5-77t-48-52.5-63.5-30-74-9.5zm-8 584l-66 12 97 163h109z"/><glyph glyph-name="Ccircumflex" unicode="Ĉ" horiz-adv-x="692" d="M368-12q-85 0-145.5 26T124 88 68 203 50 351q0 91 23.5 163T141 635.5 247.5 711 387 737q57 0 104.5-14t83-44 56.5-76 25-109l-86-9q-11 85-53 128.5T386 657q-113 0-177-74t-64-224q0-78 15.5-133.5T205 135t72-51.5T374 67q86 0 131.5 37.5T568 219l83-17q-9-60-36.5-101T548 35 462.5-1 368-12zm17 859l-84-80-70 9 116 129h79l114-129-70-7z"/><glyph glyph-name="ccircumflex" unicode="ĉ" horiz-adv-x="538" d="M285-12q-64 0-108.5 19.5t-73 54.5T62 145.5 49 252q0 135 65 204t181 69q86 0 139.5-45T493 346l-87-12q-6 57-33.5 86T291 449q-28 0-54.5-8.5t-47-29.5-33-57-12.5-91q0-57 11-95.5t30.5-61.5T231 73.5t57-9.5q53 0 85.5 26.5T416 174l80-17q-6-45-25.5-77t-48-52.5-63.5-30-74-9.5zm98 589l-89 113-88-114-68 7 112 165h89l113-165z"/><glyph glyph-name="Cdotaccent" unicode="Ċ" horiz-adv-x="692" d="M368-12q-85 0-145.5 26T124 88 68 203 50 351q0 91 23.5 163T141 635.5 247.5 711 387 737q57 0 104.5-14t83-44 56.5-76 25-109l-86-9q-11 85-53 128.5T386 657q-113 0-177-74t-64-224q0-78 15.5-133.5T205 135t72-51.5T374 67q86 0 131.5 37.5T568 219l83-17q-9-60-36.5-101T548 35 462.5-1 368-12zm80 857q0-31-16.5-48T384 780t-48 17-17 48q0 32 17 49t48 17 47.5-17 16.5-49z"/><glyph glyph-name="cdotaccent" unicode="ċ" horiz-adv-x="538" d="M285-12q-64 0-108.5 19.5t-73 54.5T62 145.5 49 252q0 135 65 204t181 69q86 0 139.5-45T493 346l-87-12q-6 57-33.5 86T291 449q-28 0-54.5-8.5t-47-29.5-33-57-12.5-91q0-57 11-95.5t30.5-61.5T231 73.5t57-9.5q53 0 85.5 26.5T416 174l80-17q-6-45-25.5-77t-48-52.5-63.5-30-74-9.5zm73 691q0-32-16.5-49T294 613t-48 17-17 49 17 48.5 48 16.5q64 0 64-65z"/><glyph glyph-name="Ccaron" unicode="Č" horiz-adv-x="692" d="M368-12q-85 0-145.5 26T124 88 68 203 50 351q0 91 23.5 163T141 635.5 247.5 711 387 737q57 0 104.5-14t83-44 56.5-76 25-109l-86-9q-11 85-53 128.5T386 657q-113 0-177-74t-64-224q0-78 15.5-133.5T205 135t72-51.5T374 67q86 0 131.5 37.5T568 219l83-17q-9-60-36.5-101T548 35 462.5-1 368-12zm16 840l84 80 70-9-116-129h-79L229 899l70 7z"/><glyph glyph-name="ccaron" unicode="č" horiz-adv-x="538" d="M285-12q-64 0-108.5 19.5t-73 54.5T62 145.5 49 252q0 135 65 204t181 69q86 0 139.5-45T493 346l-87-12q-6 57-33.5 86T291 449q-28 0-54.5-8.5t-47-29.5-33-57-12.5-91q0-57 11-95.5t30.5-61.5T231 73.5t57-9.5q53 0 85.5 26.5T416 174l80-17q-6-45-25.5-77t-48-52.5-63.5-30-74-9.5zm-77 754l87-112 89 114 66-7-112-165h-89L136 737z"/><glyph glyph-name="Dcaron" unicode="Ď" horiz-adv-x="728" d="M96 0v724h223q94 0 162-24.5t111.5-70T657 519t21-146q0-83-22.5-152T587 103 470 27 302 0H96zm207 78q142 0 211 74.5T583 360q0 82-18.5 137t-53 88-85.5 47-115 14H188V78h115zm23 750l84 80 70-9-116-129h-79L171 899l70 7z"/><glyph glyph-name="dcaron" unicode="ď" horiz-adv-x="636" d="M500 0h-76l-7 55-1 1q-33-30-73.5-49T246-12q-44 0-80 14.5t-62 46-40 81T50 249q0 76 18 128.5t48 85.5 69 47.5 82 14.5q45 0 81-13t63-35v278h89V0zm-90 402q-18 14-52 29.5T279 447q-37 0-63-14t-42-40-23-62.5-7-81.5q0-94 30.5-139.5T273 64q40 0 76.5 19.5T410 127v275zm171 353h95l-62-199-66 8z"/><glyph glyph-name="Dcroat" unicode="Đ" horiz-adv-x="728" d="M18 404h78v320h223q94 0 162-24.5t111.5-70T657 519t21-146q0-83-22.5-152T587 103 470 27 302 0H96v329H18v75zM303 78q142 0 211 74.5T583 360q0 82-18.5 137t-53 88-85.5 47-115 14H188V404h203v-75H188V78h115z"/><glyph glyph-name="dcroat" unicode="đ" horiz-adv-x="577" d="M221 644h190v111h89V644h69v-68h-69V0h-76l-7 55-1 1q-33-30-73.5-49T246-12q-44 0-80 14.5t-62 45T64 126 50 242q0 73 18 124t48 82.5 69 45.5 82 14q45 0 81-13t63-35v116H221v68zm189-259q-18 14-52 29.5T279 430q-74 0-104.5-51.5T144 242q0-89 30.5-133.5T273 64q40 0 76.5 19.5T410 127v258z"/><glyph glyph-name="Emacron" unicode="Ē" horiz-adv-x="575" d="M188 80h344V0H96v724h423v-80H188V405h311v-80H188V80zm-37 713v71h307v-71H151z"/><glyph glyph-name="emacron" unicode="ē" horiz-adv-x="546" d="M286-12q-68 0-113.5 22t-73 59-39 85.5T49 256q0 70 19 121t52 84 77 48.5 94 15.5q54 0 92.5-17t63.5-46.5 36.5-70T495 303q0-15-1-32t-3-35H145q1-49 12.5-82t30.5-53 44.5-28.5T289 64q55 0 82.5 23.5T410 155l80-18q-16-75-71-112T286-12zm115 320q0 69-27.5 106T285 451q-26 0-50-8t-43-25.5-31.5-44.5-14.5-65h255zM142 625v71h291v-71H142z"/><glyph glyph-name="Ebreve" unicode="Ĕ" horiz-adv-x="575" d="M188 80h344V0H96v724h423v-80H188V405h311v-80H188V80zm118 762q35 0 56 15t29 57l66-6q-7-64-46-97t-108-33q-66 0-101.5 31.5T160 907l67 7q8-41 26-56.5t53-15.5z"/><glyph glyph-name="ebreve" unicode="ĕ" horiz-adv-x="546" d="M286-12q-68 0-113.5 22t-73 59-39 85.5T49 256q0 70 19 121t52 84 77 48.5 94 15.5q54 0 92.5-17t63.5-46.5 36.5-70T495 303q0-15-1-32t-3-35H145q1-49 12.5-82t30.5-53 44.5-28.5T289 64q55 0 82.5 23.5T410 155l80-18q-16-75-71-112T286-12zm115 320q0 69-27.5 106T285 451q-26 0-50-8t-43-25.5-31.5-44.5-14.5-65h255zm42 419q-2-75-41.5-115T287 572q-71 0-108 37t-39 115l67 9q5-56 24.5-76.5T290 636q41 0 62.5 20.5T378 732z"/><glyph glyph-name="Edotaccent" unicode="Ė" horiz-adv-x="575" d="M188 80h344V0H96v724h423v-80H188V405h311v-80H188V80zm180 765q0-31-16.5-48T304 780t-48 17-17 48q0 32 17 49t48 17 47.5-17 16.5-49z"/><glyph glyph-name="edotaccent" unicode="ė" horiz-adv-x="546" d="M286-12q-68 0-113.5 22t-73 59-39 85.5T49 256q0 70 19 121t52 84 77 48.5 94 15.5q54 0 92.5-17t63.5-46.5 36.5-70T495 303q0-15-1-32t-3-35H145q1-49 12.5-82t30.5-53 44.5-28.5T289 64q55 0 82.5 23.5T410 155l80-18q-16-75-71-112T286-12zm115 320q0 69-27.5 106T285 451q-26 0-50-8t-43-25.5-31.5-44.5-14.5-65h255zm-50 371q0-32-16.5-49T287 613t-48 17-17 49 17 48.5 48 16.5q64 0 64-65z"/><glyph glyph-name="Eogonek" unicode="Ę" horiz-adv-x="575" d="M540-147q-17-41-50-61t-68-20q-45 0-72.5 23T322-139q0 22 7 42t19 37 27 32 31 28H96v724h423v-80H188V405h311v-80H188V80h344V0h-48q-37-34-60.5-61.5T400-124q0-38 38-38 32 0 54 39z"/><glyph glyph-name="eogonek" unicode="ę" horiz-adv-x="546" d="M429-147q-17-41-50-61t-68-20q-45 0-72.5 23T211-139q0 40 21 71.5T281-12q-67 1-111.5 23T98 70t-38 85-11 101q0 70 19 121t52 84 77 48.5 94 15.5q54 0 92.5-17t63.5-46.5 36.5-70T495 303q0-15-1-32t-3-35H145q1-49 12.5-82t30.5-53 44.5-28.5T289 64q55 0 82.5 23.5T410 155l80-18q-11-51-39-80.5T384 2t-67-58-28-68q0-38 38-38 32 0 54 39zm-28 455q0 69-27.5 106T285 451q-26 0-50-8t-43-25.5-31.5-44.5-14.5-65h255z"/><glyph glyph-name="Ecaron" unicode="Ě" horiz-adv-x="575" d="M188 80h344V0H96v724h423v-80H188V405h311v-80H188V80zm116 748l84 80 70-9-116-129h-79L149 899l70 7z"/><glyph glyph-name="ecaron" unicode="ě" horiz-adv-x="546" d="M286-12q-68 0-113.5 22t-73 59-39 85.5T49 256q0 70 19 121t52 84 77 48.5 94 15.5q54 0 92.5-17t63.5-46.5 36.5-70T495 303q0-15-1-32t-3-35H145q1-49 12.5-82t30.5-53 44.5-28.5T289 64q55 0 82.5 23.5T410 155l80-18q-16-75-71-112T286-12zm115 320q0 69-27.5 106T285 451q-26 0-50-8t-43-25.5-31.5-44.5-14.5-65h255zM201 742l87-112 89 114 66-7-112-165h-89L129 737z"/><glyph glyph-name="Gcircumflex" unicode="Ĝ" horiz-adv-x="736" d="M577 98q-10-23-31-43t-50-35-64-23.5-73-8.5q-82 0-140.5 27t-96 75-55 115T50 353q0 92 23.5 163.5t67 120.5T247 711.5 389 737q57 0 104-13t82-42 56-75 26-111l-88-9q-9 88-53.5 129T386 657q-115 0-178-77t-63-219q0-84 17.5-140.5t48.5-91 73.5-49T377 66q49 0 85 15t60 39.5 36 55.5 12 63v62H378v75h279V0h-67zM388 847l-84-80-70 9 116 129h79l114-129-70-7z"/><glyph glyph-name="gcircumflex" unicode="ĝ" horiz-adv-x="552" d="M269 525q48 0 85.5-10.5T418 478q12 28 32 47.5t49 19.5q12 0 23-2t22-6v-73q-23 2-50.5-1.5T446 453q19-22 28.5-51t9.5-61q0-44-16-78t-44.5-57.5-67-36T274 157q-26 0-49 2.5t-43 9.5q-11-10-21.5-21T150 121q0-15 12.5-25.5T216 82l143-10q40-3 71-10t52.5-22 33-39.5T527-62q0-47-23-78.5T443.5-191t-85-27-95.5-8q-72 0-117 11.5T75.5-185 41-144.5 32-99q0 44 25.5 73.5T115 19v1Q89 31 74 47T59 91q0 33 20.5 56.5T127 192q-35 19-55.5 56.5T51 336q0 42 15.5 77t44 60 68.5 38.5 90 13.5zm127-185q0 58-33 85t-91 27q-27 0-50.5-6T180 426.5t-28-34-10-50.5q0-51 29.5-80.5T270 232q57 0 91.5 28t34.5 80zm37-413q0 28-17 43t-69 19L180-1q-29-20-43-37.5T123-82q0-16 7.5-29.5t24.5-23 46-14.5 73-5q159 0 159 81zm-76 650l-89 113-88-114-68 7 112 165h89l113-165z"/><glyph glyph-name="Gbreve" unicode="Ğ" horiz-adv-x="736" d="M577 98q-10-23-31-43t-50-35-64-23.5-73-8.5q-82 0-140.5 27t-96 75-55 115T50 353q0 92 23.5 163.5t67 120.5T247 711.5 389 737q57 0 104-13t82-42 56-75 26-111l-88-9q-9 88-53.5 129T386 657q-115 0-178-77t-63-219q0-84 17.5-140.5t48.5-91 73.5-49T377 66q49 0 85 15t60 39.5 36 55.5 12 63v62H378v75h279V0h-67zM389 842q35 0 56 15t29 57l66-6q-7-64-46-97t-108-33q-66 0-101.5 31.5T243 907l67 7q8-41 26-56.5t53-15.5z"/><glyph glyph-name="gbreve" unicode="ğ" horiz-adv-x="552" d="M269 525q48 0 85.5-10.5T418 478q12 28 32 47.5t49 19.5q12 0 23-2t22-6v-73q-23 2-50.5-1.5T446 453q19-22 28.5-51t9.5-61q0-44-16-78t-44.5-57.5-67-36T274 157q-26 0-49 2.5t-43 9.5q-11-10-21.5-21T150 121q0-15 12.5-25.5T216 82l143-10q40-3 71-10t52.5-22 33-39.5T527-62q0-47-23-78.5T443.5-191t-85-27-95.5-8q-72 0-117 11.5T75.5-185 41-144.5 32-99q0 44 25.5 73.5T115 19v1Q89 31 74 47T59 91q0 33 20.5 56.5T127 192q-35 19-55.5 56.5T51 336q0 42 15.5 77t44 60 68.5 38.5 90 13.5zm127-185q0 58-33 85t-91 27q-27 0-50.5-6T180 426.5t-28-34-10-50.5q0-51 29.5-80.5T270 232q57 0 91.5 28t34.5 80zm37-413q0 28-17 43t-69 19L180-1q-29-20-43-37.5T123-82q0-16 7.5-29.5t24.5-23 46-14.5 73-5q159 0 159 81zm-9 800q-2-75-41.5-115T268 572q-71 0-108 37t-39 115l67 9q5-56 24.5-76.5T271 636q41 0 62.5 20.5T359 732z"/><glyph glyph-name="Gdotaccent" unicode="Ġ" horiz-adv-x="736" d="M577 98q-10-23-31-43t-50-35-64-23.5-73-8.5q-82 0-140.5 27t-96 75-55 115T50 353q0 92 23.5 163.5t67 120.5T247 711.5 389 737q57 0 104-13t82-42 56-75 26-111l-88-9q-9 88-53.5 129T386 657q-115 0-178-77t-63-219q0-84 17.5-140.5t48.5-91 73.5-49T377 66q49 0 85 15t60 39.5 36 55.5 12 63v62H378v75h279V0h-67zM451 845q0-31-16.5-48T387 780t-48 17-17 48q0 32 17 49t48 17 47.5-17 16.5-49z"/><glyph glyph-name="gdotaccent" unicode="ġ" horiz-adv-x="552" d="M269 525q48 0 85.5-10.5T418 478q12 28 32 47.5t49 19.5q12 0 23-2t22-6v-73q-23 2-50.5-1.5T446 453q19-22 28.5-51t9.5-61q0-44-16-78t-44.5-57.5-67-36T274 157q-26 0-49 2.5t-43 9.5q-11-10-21.5-21T150 121q0-15 12.5-25.5T216 82l143-10q40-3 71-10t52.5-22 33-39.5T527-62q0-47-23-78.5T443.5-191t-85-27-95.5-8q-72 0-117 11.5T75.5-185 41-144.5 32-99q0 44 25.5 73.5T115 19v1Q89 31 74 47T59 91q0 33 20.5 56.5T127 192q-35 19-55.5 56.5T51 336q0 42 15.5 77t44 60 68.5 38.5 90 13.5zm127-185q0 58-33 85t-91 27q-27 0-50.5-6T180 426.5t-28-34-10-50.5q0-51 29.5-80.5T270 232q57 0 91.5 28t34.5 80zm37-413q0 28-17 43t-69 19L180-1q-29-20-43-37.5T123-82q0-16 7.5-29.5t24.5-23 46-14.5 73-5q159 0 159 81zM332 679q0-32-16.5-49T268 613t-48 17-17 49 17 48.5 48 16.5q64 0 64-65z"/><glyph glyph-name="Gcommaaccent" unicode="Ģ" horiz-adv-x="736" d="M577 98q-10-23-31-43t-50-35-64-23.5-73-8.5q-82 0-140.5 27t-96 75-55 115T50 353q0 92 23.5 163.5t67 120.5T247 711.5 389 737q57 0 104-13t82-42 56-75 26-111l-88-9q-9 88-53.5 129T386 657q-115 0-178-77t-63-219q0-84 17.5-140.5t48.5-91 73.5-49T377 66q49 0 85 15t60 39.5 36 55.5 12 63v62H378v75h279V0h-67zM326-69h97l-68-174-68 10z"/><glyph glyph-name="gcommaaccent" unicode="ģ" horiz-adv-x="552" d="M269 525q48 0 85.5-10.5T418 478q12 28 32 47.5t49 19.5q12 0 23-2t22-6v-73q-23 2-50.5-1.5T446 453q19-22 28.5-51t9.5-61q0-44-16-78t-44.5-57.5-67-36T274 157q-26 0-49 2.5t-43 9.5q-11-10-21.5-21T150 121q0-15 12.5-25.5T216 82l143-10q40-3 71-10t52.5-22 33-39.5T527-62q0-47-23-78.5T443.5-191t-85-27-95.5-8q-72 0-117 11.5T75.5-185 41-144.5 32-99q0 44 25.5 73.5T115 19v1Q89 31 74 47T59 91q0 33 20.5 56.5T127 192q-35 19-55.5 56.5T51 336q0 42 15.5 77t44 60 68.5 38.5 90 13.5zm127-185q0 58-33 85t-91 27q-27 0-50.5-6T180 426.5t-28-34-10-50.5q0-51 29.5-80.5T270 232q57 0 91.5 28t34.5 80zm37-413q0 28-17 43t-69 19L180-1q-29-20-43-37.5T123-82q0-16 7.5-29.5t24.5-23 46-14.5 73-5q159 0 159 81zM310 570h-97l68 174 68-10z"/><glyph glyph-name="Hcircumflex" unicode="Ĥ" horiz-adv-x="728" d="M632 0h-92v328H188V0H96v724h92V411h352v313h92V0zM365 847l-84-80-70 9 116 129h79l114-129-70-7z"/><glyph glyph-name="hcircumflex" unicode="ĥ" horiz-adv-x="582" d="M509 0h-91v335q0 54-21.5 82T322 445q-22 0-44.5-6.5T235 423t-36.5-20-26.5-20V0H81v755h90V456q38 29 82.5 49t98.5 20q82 0 119.5-44T509 349V0zM127 867l-84-80-70 9L89 925h79l114-129-70-7z"/><glyph glyph-name="Hbar" unicode="Ħ" horiz-adv-x="728" d="M632 598h79v-71h-79V0h-92v328H188V0H96v527H17v71h79v126h92V598h352v126h92V598zm-92-187v116H188V411h352z"/><glyph glyph-name="hbar" unicode="ħ" horiz-adv-x="582" d="M14 644h67v111h90V644h196v-68H171V439q38 29 82.5 49t98.5 20q82 0 119.5-44T509 332V0h-91v318q0 54-21.5 82T322 428q-22 0-44.5-6.5T235 406t-36.5-20-26.5-20V0H81v576H14v68z"/><glyph glyph-name="Itilde" unicode="Ĩ" horiz-adv-x="284" d="M188 0H96v724h92V0zM67 904q24 0 44-7t38-15.5 35-15.5 34-7q19 0 28.5 9.5T256 910l55-3q8-62-17.5-91.5T227 786q-24 0-44.5 7t-39 16-36 16-34.5 7q-16 0-26.5-11T38 778l-56 3q-4 32 1.5 55T1 874t29.5 22.5T67 904z"/><glyph glyph-name="itilde" unicode="ĩ" horiz-adv-x="249" d="M172 0H81v514h91V0zM46 716q24 0 44-7t38-16 35-16 34-7q19 0 28.5 9.5T235 721l55-2q4-31-1-54t-17-38-29-22.5-37-7.5q-24 0-44.5 7t-39 16-36 16-34.5 7q-16 0-26.5-10.5T17 589l-56 3q-4 31 2 54.5t18 39 29 23 36 7.5z"/><glyph glyph-name="Imacron" unicode="Ī" horiz-adv-x="284" d="M188 0H96v724h92V0zM-11 793v71h307v-71H-11z"/><glyph glyph-name="imacron" unicode="ī" horiz-adv-x="249" d="M172 0H81v514h91V0zM-19 625v71h291v-71H-19z"/><glyph glyph-name="Ibreve" unicode="Ĭ" horiz-adv-x="284" d="M188 0H96v724h92V0zm-44 842q35 0 56 15t29 57l66-6q-7-64-46-97t-108-33q-66 0-101.5 31.5T-2 907l67 7q8-41 26-56.5t53-15.5z"/><glyph glyph-name="ibreve" unicode="ĭ" horiz-adv-x="249" d="M172 0H81v514h91V0zm110 727q-2-75-41.5-115T126 572q-71 0-108 37t-39 115l67 9q5-56 24.5-76.5T129 636q41 0 62.5 20.5T217 732z"/><glyph glyph-name="Iogonek" unicode="Į" horiz-adv-x="284" d="M236-147q-17-41-50-61t-68-20q-45 0-72.5 23T18-139q0 22 7 42t18.5 37 25 32T96 0v724h92V0q-43-34-67.5-61.5T96-124q0-38 38-38 32 0 54 39z"/><glyph glyph-name="iogonek" unicode="į" horiz-adv-x="249" d="M220-147q-17-41-50-61t-68-20q-45 0-72.5 23T2-139q0 22 7 42t18.5 37T53-28 81 0v514h91V0q-43-34-67.5-61.5T80-124q0-38 38-38 32 0 54 39zm-27 826q0-32-17-49t-48-17-47.5 17T64 679q0 65 64 65 31 0 48-16.5t17-48.5z"/><glyph glyph-name="Idotaccent" unicode="İ" horiz-adv-x="284" d="M188 0H96v724h92V0zm18 845q0-31-16.5-48T142 780t-48 17-17 48q0 32 17 49t48 17 47.5-17 16.5-49z"/><glyph glyph-name="dotlessi" unicode="ı" horiz-adv-x="249" d="M172 0H81v514h91V0z"/><glyph glyph-name="IJ" unicode="Ĳ" horiz-adv-x="783" d="M188 0H96v724h92V0zm416 724h92V183q0-54-14-91t-39.5-60.5-62-33.5T498-12q-89 0-135.5 39.5T310 157l88 15q3-24 8-44t16-33.5 29.5-21T500 66q22 0 41 4.5T574 87t22 34 8 58v545z"/><glyph glyph-name="Jcircumflex" unicode="Ĵ" horiz-adv-x="499" d="M320 724h92V183q0-54-14-91t-39.5-60.5-62-33.5T214-12q-89 0-135.5 39.5T26 157l88 15q3-24 8-44t16-33.5 29.5-21T216 66q22 0 41 4.5T290 87t22 34 8 58v545zm47 123l-84-80-70 9 116 129h79l114-129-70-7z"/><glyph glyph-name="jcircumflex" unicode="ĵ" horiz-adv-x="247" d="M26-223q-25 0-54 6t-43 14l10 74q15-6 35.5-10.5T14-144q31 0 49 17.5T81-63v577h91V-67q0-82-38-119T26-223zm189 800l-89 113-88-114-68 7L82 748h89l113-165z"/><glyph glyph-name="Kcommaaccent" unicode="Ķ" horiz-adv-x="644" d="M188 371l325 353h103L331 414 630 0H522L268 342l-80-85V0H96v724h92V371zM295-69h97l-68-174-68 10z"/><glyph glyph-name="kcommaaccent" unicode="ķ" horiz-adv-x="531" d="M172 288l221 226h103L318 329 509 0H409L251 265l-79-78V0H81v755h91V288zm63-357h97l-68-174-68 10z"/><glyph glyph-name="kgreenlandic" unicode="ĸ" horiz-adv-x="531" d="M172 288l221 226h103L318 329 509 0H409L251 265l-79-78V0H81v514h91V288z"/><glyph glyph-name="Lacute" unicode="Ĺ" horiz-adv-x="552" d="M188 81h326V0H96v724h92V81zm-50 686l-69 12 99 134h110z"/><glyph glyph-name="lacute" unicode="ĺ" horiz-adv-x="249" d="M172 0H81v755h91V0zm-49 788l-69 12 99 134h110z"/><glyph glyph-name="Lcommaaccent" unicode="Ļ" horiz-adv-x="552" d="M188 81h326V0H96v724h92V81zm80-150h97l-68-174-68 10z"/><glyph glyph-name="lcommaaccent" unicode="ļ" horiz-adv-x="249" d="M172 0H81v755h91V0zM85-69h97l-68-174-68 10z"/><glyph glyph-name="Lcaron" unicode="Ľ" horiz-adv-x="552" d="M188 81h326V0H96v724h92V81zm123 643h95l-62-199-66 8z"/><glyph glyph-name="lcaron" unicode="ľ" horiz-adv-x="308" d="M172 0H81v755h91V0zm81 755h95l-62-199-66 8z"/><glyph glyph-name="Ldot" unicode="Ŀ" horiz-adv-x="552" d="M188 81h326V0H96v724h92V81zm287 318q0-31-16.5-48T411 334t-48 17-17 48q0 32 17 49t48 17 47.5-17 16.5-49z"/><glyph glyph-name="ldot" unicode="ŀ" horiz-adv-x="305" d="M172 0H81v755h91V0zm172 399q0-32-16.5-49T280 333t-48 17-17 49 17 48.5 48 16.5q64 0 64-65z"/><glyph glyph-name="Lslash" unicode="Ł" horiz-adv-x="552" d="M188 404l222 91v-79l-222-90V81h326V0H96v289l-85-34v77l85 34v358h92V404z"/><glyph glyph-name="lslash" unicode="ł" horiz-adv-x="278" d="M183 458l85 42v-80l-85-42V0H92v341l-82-39v80l82 39v334h91V458z"/><glyph glyph-name="Nacute" unicode="Ń" horiz-adv-x="745" d="M538 0L182 607V0H96v724h121l347-601v601h85V0H538zM386 767l-69 12 99 134h110z"/><glyph glyph-name="nacute" unicode="ń" horiz-adv-x="582" d="M509 0h-91v335q0 54-21.5 82T322 445q-22 0-44.5-6.5T235 423t-36.5-20-26.5-20V0H81v514h80l5-61q38 30 84.5 51T351 525q83 0 120.5-44T509 349V0zM305 572l-66 12 97 163h109z"/><glyph glyph-name="Ncommaaccent" unicode="Ņ" horiz-adv-x="745" d="M538 0L182 607V0H96v724h121l347-601v601h85V0H538zM321-69h97l-68-174-68 10z"/><glyph glyph-name="ncommaaccent" unicode="ņ" horiz-adv-x="582" d="M509 0h-91v335q0 54-21.5 82T322 445q-22 0-44.5-6.5T235 423t-36.5-20-26.5-20V0H81v514h80l5-61q38 30 84.5 51T351 525q83 0 120.5-44T509 349V0zM245-69h97l-68-174-68 10z"/><glyph glyph-name="Ncaron" unicode="Ň" horiz-adv-x="745" d="M538 0L182 607V0H96v724h121l347-601v601h85V0H538zM380 828l84 80 70-9-116-129h-79L225 899l70 7z"/><glyph glyph-name="ncaron" unicode="ň" horiz-adv-x="582" d="M509 0h-91v335q0 54-21.5 82T322 445q-22 0-44.5-6.5T235 423t-36.5-20-26.5-20V0H81v514h80l5-61q38 30 84.5 51T351 525q83 0 120.5-44T509 349V0zM214 742l87-112 89 114 66-7-112-165h-89L142 737z"/><glyph glyph-name="napostrophe" unicode="ŉ" horiz-adv-x="582" d="M509 0h-91v335q0 54-21.5 82T322 445q-22 0-44.5-6.5T235 423t-36.5-20-26.5-20V0H81v514h80l5-61q38 30 84.5 51T351 525q83 0 120.5-44T509 349V0zM10.263 672.984h94.862L38.624 502.988l-66.502 9.77z"/><glyph glyph-name="Eng" unicode="Ŋ" horiz-adv-x="745" d="M483-223q-15 0-32 2t-33 5.5-30 7.5-22 8l10 74q20-6 46-12t49-6q40 0 63.5 17.5T558-63v50L182 607V0H96v724h117l351-581v581h85V-67q0-82-43.5-119T483-223z"/><glyph glyph-name="eng" unicode="ŋ" horiz-adv-x="582" d="M509-67q0-82-38-119t-108-37q-25 0-54 6t-43 14l10 74q15-6 35.5-10.5T351-144q31 0 49 17.5T418-63v398q0 54-21.5 82T322 445q-22 0-44.5-6.5T235 423t-36.5-20-26.5-20V0H81v514h80l5-61q38 30 84.5 51T351 525q83 0 120.5-44T509 349V-67z"/><glyph glyph-name="Omacron" unicode="Ō" horiz-adv-x="759" d="M375-12q-84 0-145.5 28t-101 77.5-59 118.5T50 362t22 149.5T137 630t106.5 78.5T390 737q82 0 142-28t99.5-77T690 517t19-141q0-88-21-159.5T625 94 520.5 15.5 375-12zm5 81q51 0 94.5 17.5T549 141t48.5 93T615 367q0 72-16 126t-46 90-72 54.5-94 18.5q-53 0-97-18.5T214 582t-50-92-18-127q0-74 17-129t47.5-91.5 73.5-55T380 69zM232 793v71h307v-71H232z"/><glyph glyph-name="omacron" unicode="ō" horiz-adv-x="578" d="M286-12q-67 0-112.5 20.5t-73 56T61 149 49 255q0 62 16 112t47.5 85 78 54T299 525q61 0 104.5-19t71.5-53 41-81.5T529 267q0-63-13.5-114.5t-43-88T397 8 286-12zm5 73q33 0 59.5 10.5t45 34.5 28.5 62 10 93q0 53-9 89.5T398 409t-44 31.5-59 9.5q-34 0-62-10.5T185 406t-31-59.5-11-87.5q0-103 36.5-150.5T291 61zM150 625v71h291v-71H150z"/><glyph glyph-name="Obreve" unicode="Ŏ" horiz-adv-x="759" d="M375-12q-84 0-145.5 28t-101 77.5-59 118.5T50 362t22 149.5T137 630t106.5 78.5T390 737q82 0 142-28t99.5-77T690 517t19-141q0-88-21-159.5T625 94 520.5 15.5 375-12zm5 81q51 0 94.5 17.5T549 141t48.5 93T615 367q0 72-16 126t-46 90-72 54.5-94 18.5q-53 0-97-18.5T214 582t-50-92-18-127q0-74 17-129t47.5-91.5 73.5-55T380 69zm7 773q35 0 56 15t29 57l66-6q-7-64-46-97t-108-33q-66 0-101.5 31.5T241 907l67 7q8-41 26-56.5t53-15.5z"/><glyph glyph-name="obreve" unicode="ŏ" horiz-adv-x="578" d="M286-12q-67 0-112.5 20.5t-73 56T61 149 49 255q0 62 16 112t47.5 85 78 54T299 525q61 0 104.5-19t71.5-53 41-81.5T529 267q0-63-13.5-114.5t-43-88T397 8 286-12zm5 73q33 0 59.5 10.5t45 34.5 28.5 62 10 93q0 53-9 89.5T398 409t-44 31.5-59 9.5q-34 0-62-10.5T185 406t-31-59.5-11-87.5q0-103 36.5-150.5T291 61zm160 666q-2-75-41.5-115T295 572q-71 0-108 37t-39 115l67 9q5-56 24.5-76.5T298 636q41 0 62.5 20.5T386 732z"/><glyph glyph-name="Ohungarumlaut" unicode="Ő" horiz-adv-x="759" d="M375-12q-84 0-145.5 28t-101 77.5-59 118.5T50 362t22 149.5T137 630t106.5 78.5T390 737q82 0 142-28t99.5-77T690 517t19-141q0-88-21-159.5T625 94 520.5 15.5 375-12zm5 81q51 0 94.5 17.5T549 141t48.5 93T615 367q0 72-16 126t-46 90-72 54.5-94 18.5q-53 0-97-18.5T214 582t-50-92-18-127q0-74 17-129t47.5-91.5 73.5-55T380 69zm-37 698l-66 13 66 133h107zm129 0l-68 12 99 138h110z"/><glyph glyph-name="ohungarumlaut" unicode="ő" horiz-adv-x="578" d="M286-12q-67 0-112.5 20.5t-73 56T61 149 49 255q0 62 16 112t47.5 85 78 54T299 525q61 0 104.5-19t71.5-53 41-81.5T529 267q0-63-13.5-114.5t-43-88T397 8 286-12zm5 73q33 0 59.5 10.5t45 34.5 28.5 62 10 93q0 53-9 89.5T398 409t-44 31.5-59 9.5q-34 0-62-10.5T185 406t-31-59.5-11-87.5q0-103 36.5-150.5T291 61zm-43 511l-65 13 73 161h107zm132 0l-66 12 100 164h109z"/><glyph glyph-name="OE" unicode="Œ" horiz-adv-x="1089" d="M621 0v111q-38-59-99.5-91T375-12q-84 0-145.5 28t-101 77.5-59 118.5T50 362t22 149.5 65 119T243 709t145 28q83 0 140-30.5t93-83.5v101h413v-75H703V405h310v-80H703V80h344V0H621zM380 69q51 0 94 17.5t74 53.5 49 91.5T615 364q0 73-16 127.5t-46 91-72 55-94 18.5q-53 0-97-18.5T214 582t-50-92-18-127q0-73 17-128t47.5-92T284 87.5 380 69z"/><glyph glyph-name="oe" unicode="œ" horiz-adv-x="925" d="M668-12q-78 0-123.5 29.5T477 92q-26-49-72.5-76.5T284-12q-66 0-111 20.5t-72.5 56-39.5 84T49 254q0 63 16 113t47 85 77.5 54T296 525q72 0 116.5-27.5T482 421q29 52 78.5 77.5T673 524q53 0 91-17t62.5-46.5 36-70.5 11.5-89q0-14-1-32t-3-33H524q1-50 12.5-83.5t31-53 46-27.5 57.5-8q51 0 79 23t39 68l80-18q-8-37-26.5-65t-45-46.5-59.5-28-70-9.5zM291 61q67 0 105 45t38 155q0 54-9 90.5t-27 58-44 31-59 9.5q-34 0-62-10.5T185 406t-31-59.5-11-88.5q0-102 36.5-149.5T291 61zm489 247q0 69-27.5 106T663 451q-26 0-50-8.5t-43.5-26T538 372t-13-64h255z"/><glyph glyph-name="Racute" unicode="Ŕ" horiz-adv-x="625" d="M616 0H516L350 301H187V0H96v724h248q67 0 112-17t72-44.5 38.5-63T578 527q0-82-38.5-131T438 325zM322 378q36 0 65.5 6.5t50.5 23 33 44.5 12 70q0 37-12 61t-34 38-53.5 19.5T313 646H187V378h135zm-19 389l-69 12 99 134h110z"/><glyph glyph-name="racute" unicode="ŕ" horiz-adv-x="364" d="M354 430q-24 3-49.5.5T255 420t-45.5-19.5T172 374V0H81v514h76l7-74q34 46 75.5 65.5T335 525q5 0 9.5-.5t9.5-.5v-94zM211 572l-66 12 97 163h109z"/><glyph glyph-name="Rcommaaccent" unicode="Ŗ" horiz-adv-x="625" d="M616 0H516L350 301H187V0H96v724h248q67 0 112-17t72-44.5 38.5-63T578 527q0-82-38.5-131T438 325zM322 378q36 0 65.5 6.5t50.5 23 33 44.5 12 70q0 37-12 61t-34 38-53.5 19.5T313 646H187V378h135zM283-69h97l-68-174-68 10z"/><glyph glyph-name="rcommaaccent" unicode="ŗ" horiz-adv-x="364" d="M354 430q-24 3-49.5.5T255 420t-45.5-19.5T172 374V0H81v514h76l7-74q34 46 75.5 65.5T335 525q5 0 9.5-.5t9.5-.5v-94zM82-69h97l-68-174-68 10z"/><glyph glyph-name="Rcaron" unicode="Ř" horiz-adv-x="625" d="M616 0H516L350 301H187V0H96v724h248q67 0 112-17t72-44.5 38.5-63T578 527q0-82-38.5-131T438 325zM322 378q36 0 65.5 6.5t50.5 23 33 44.5 12 70q0 37-12 61t-34 38-53.5 19.5T313 646H187V378h135zm-14 450l84 80 70-9-116-129h-79L153 899l70 7z"/><glyph glyph-name="rcaron" unicode="ř" horiz-adv-x="364" d="M354 430q-24 3-49.5.5T255 420t-45.5-19.5T172 374V0H81v514h76l7-74q34 46 75.5 65.5T335 525q5 0 9.5-.5t9.5-.5v-94zM131 742l87-112 89 114 66-7-112-165h-89L59 737z"/><glyph glyph-name="Sacute" unicode="Ś" horiz-adv-x="583" d="M299 659q-42 0-70.5-8.5t-46.5-24-26-36-8-44.5q0-33 14.5-55t38.5-37.5 55-26.5 65-21q40-12 79.5-25.5t71-36 51-57T542 201q0-57-21-97.5t-56.5-66-82-37.5T286-12q-113 0-181.5 48.5T22 197l88 13q6-29 17-55t31-46 51-31.5T287 66q29 0 58 5.5T397 91t37 37.5 14 59.5q0 34-14 56.5T396.5 282 342 307.5 278 327q-40 11-80 24.5t-72 36-52 58T54 537q0 46 18.5 83.5t51 63 77 39.5 97.5 14q48 0 89-10t72-34 51-63 26-97l-86-10q-4 26-12.5 50.5t-25 43.5-44 30.5T299 659zm-7 108l-69 12 99 134h110z"/><glyph glyph-name="sacute" unicode="ś" horiz-adv-x="487" d="M248 525q46 0 78.5-10.5t55-30 35.5-47 19-61.5l-82-18q-5 22-11.5 39.5t-18.5 30-30.5 19T247 453q-56 0-77.5-21.5T148 381q0-20 7.5-33.5T178 325t36-15 48-12q35-8 68-16.5t58.5-25 41-43T445 144q0-74-53.5-115T244-12q-89 0-141 35.5T39 137l81 22q5-21 13-39t22-31.5 36.5-21T248 60q46 0 76.5 16.5T355 134q0 21-7.5 34.5t-22 22-35.5 14-47 10.5q-32 6-64.5 14.5T119 254t-44 43.5T58 370q0 39 15 68t41 48.5 60.5 29T248 525zm-18 47l-66 12 97 163h109z"/><glyph glyph-name="Scircumflex" unicode="Ŝ" horiz-adv-x="583" d="M299 659q-42 0-70.5-8.5t-46.5-24-26-36-8-44.5q0-33 14.5-55t38.5-37.5 55-26.5 65-21q40-12 79.5-25.5t71-36 51-57T542 201q0-57-21-97.5t-56.5-66-82-37.5T286-12q-113 0-181.5 48.5T22 197l88 13q6-29 17-55t31-46 51-31.5T287 66q29 0 58 5.5T397 91t37 37.5 14 59.5q0 34-14 56.5T396.5 282 342 307.5 278 327q-40 11-80 24.5t-72 36-52 58T54 537q0 46 18.5 83.5t51 63 77 39.5 97.5 14q48 0 89-10t72-34 51-63 26-97l-86-10q-4 26-12.5 50.5t-25 43.5-44 30.5T299 659zm-1 188l-84-80-70 9 116 129h79l114-129-70-7z"/><glyph glyph-name="scircumflex" unicode="ŝ" horiz-adv-x="487" d="M248 525q46 0 78.5-10.5t55-30 35.5-47 19-61.5l-82-18q-5 22-11.5 39.5t-18.5 30-30.5 19T247 453q-56 0-77.5-21.5T148 381q0-20 7.5-33.5T178 325t36-15 48-12q35-8 68-16.5t58.5-25 41-43T445 144q0-74-53.5-115T244-12q-89 0-141 35.5T39 137l81 22q5-21 13-39t22-31.5 36.5-21T248 60q46 0 76.5 16.5T355 134q0 21-7.5 34.5t-22 22-35.5 14-47 10.5q-32 6-64.5 14.5T119 254t-44 43.5T58 370q0 39 15 68t41 48.5 60.5 29T248 525zm88 52l-89 113-88-114-68 7 112 165h89l113-165z"/><glyph glyph-name="Scedilla" unicode="Ş" horiz-adv-x="583" d="M213-161q9-5 23.5-10t30.5-5q25 0 37.5 12.5T317-131q0 25-17 35.5T244-84l9 73Q153-4 94 44.5T22 197l88 13q6-29 17-55t31-46 51-31.5T287 66q29 0 58 5.5T397 91t37 37.5 14 59.5q0 34-14 56.5T396.5 282 342 307.5 278 327q-40 11-80 24.5t-72 36-52 58T54 537q0 46 18.5 83.5t51 63 77 39.5 97.5 14q48 0 89-10t72-34 51-63 26-97l-86-10q-4 26-12.5 50.5t-25 43.5-44 30.5T299 659t-70.5-8.5-46.5-24-26-36-8-44.5q0-33 14.5-55t38.5-37.5 55-26.5 65-21q40-12 79.5-25.5t71-36 51-57T542 201q0-54-18.5-92.5t-50-64-73.5-39T312-11l-4-33q31-6 55-25.5t24-62.5q0-47-31.5-73.5T277-232q-27 0-46.5 6T199-213z"/><glyph glyph-name="scedilla" unicode="ş" horiz-adv-x="487" d="M175-161q9-5 24-10t32-5q23 0 35.5 12.5T279-131q0 25-17 35.5T206-84l10 73Q140-6 95 29.5T39 137l81 22q5-21 13-39t22-31.5 36.5-21T248 60q46 0 76.5 16.5T355 134q0 21-7.5 34.5t-22 22-35.5 14-47 10.5q-32 6-64.5 14.5T119 254t-44 43.5T58 370q0 39 15 68t41 48.5 60.5 29T248 525q46 0 78.5-10.5t55-30 35.5-47 19-61.5l-82-18q-5 22-11.5 39.5t-18.5 30-30.5 19T247 453q-56 0-77.5-21.5T148 381q0-20 7.5-33.5T178 325t36-15 48-12q35-8 68-16.5t58.5-25 41-43T445 144q0-68-45-108T274-11l-4-33q31-6 55-25.5t24-62.5q0-47-31.5-73.5T239-232q-27 0-48 6.5T158-212z"/><glyph glyph-name="Scaron" unicode="Š" horiz-adv-x="583" d="M299 659q-42 0-70.5-8.5t-46.5-24-26-36-8-44.5q0-33 14.5-55t38.5-37.5 55-26.5 65-21q40-12 79.5-25.5t71-36 51-57T542 201q0-57-21-97.5t-56.5-66-82-37.5T286-12q-113 0-181.5 48.5T22 197l88 13q6-29 17-55t31-46 51-31.5T287 66q29 0 58 5.5T397 91t37 37.5 14 59.5q0 34-14 56.5T396.5 282 342 307.5 278 327q-40 11-80 24.5t-72 36-52 58T54 537q0 46 18.5 83.5t51 63 77 39.5 97.5 14q48 0 89-10t72-34 51-63 26-97l-86-10q-4 26-12.5 50.5t-25 43.5-44 30.5T299 659zm-2 169l84 80 70-9-116-129h-79L142 899l70 7z"/><glyph glyph-name="scaron" unicode="š" horiz-adv-x="487" d="M248 525q46 0 78.5-10.5t55-30 35.5-47 19-61.5l-82-18q-5 22-11.5 39.5t-18.5 30-30.5 19T247 453q-56 0-77.5-21.5T148 381q0-20 7.5-33.5T178 325t36-15 48-12q35-8 68-16.5t58.5-25 41-43T445 144q0-74-53.5-115T244-12q-89 0-141 35.5T39 137l81 22q5-21 13-39t22-31.5 36.5-21T248 60q46 0 76.5 16.5T355 134q0 21-7.5 34.5t-22 22-35.5 14-47 10.5q-32 6-64.5 14.5T119 254t-44 43.5T58 370q0 39 15 68t41 48.5 60.5 29T248 525zm-87 217l87-112 89 114 66-7-112-165h-89L89 737z"/><glyph glyph-name="uni0162" unicode="Ţ" horiz-adv-x="554" d="M204-161q9-5 23.5-10t30.5-5q25 0 37.5 12.5T308-131q0 25-17 35.5T235-84l11 84h-14v644H13v80h528v-80H324V0h-19l-6-44q31-6 55-25.5t24-62.5q0-47-31.5-73.5T268-232q-27 0-46.5 6T190-213z"/><glyph glyph-name="uni0163" unicode="ţ" horiz-adv-x="379" d="M148-161q9-5 24-10t32-5q23 0 35.5 12.5T252-131q0 25-17 35.5T179-84l11 78q-47 11-70 44.5T97 135v306H18v73h79v149l91 14V514h142v-73H188V147q0-20 3-36t11-26.5 22.5-16T262 63t48 8 42 17l16-66Q350 9 316-.5T247-12l-4-32q31-6 55-25.5t24-62.5q0-47-31.5-73.5T212-232q-27 0-48 6.5T131-212z"/><glyph glyph-name="Tcaron" unicode="Ť" horiz-adv-x="554" d="M232 0v644H13v80h528v-80H324V0h-92zm45 828l84 80 70-9-116-129h-79L122 899l70 7z"/><glyph glyph-name="tcaron" unicode="ť" horiz-adv-x="379" d="M368 22Q349 9 313.5-1.5T242-12q-72 0-108.5 34.5T97 135v306H18v73h79v149l91 14V514h142v-73H188V147q0-20 3-36t11-26.5 22.5-16T262 63t48 8 42 17zM261 755h95l-62-199-66 8z"/><glyph glyph-name="Tbar" unicode="Ŧ" horiz-adv-x="554" d="M232 0v328H91v73h141v243H13v80h528v-80H324V401h139v-73H324V0h-92z"/><glyph glyph-name="tbar" unicode="ŧ" horiz-adv-x="379" d="M368 22Q349 9 313.5-1.5T242-12q-72 0-108.5 34.5T97 135v98H18v69h79v139H18v73h79v149l91 14V514h142v-73H188V302h142v-69H188v-86q0-20 3-36t11-26.5 22.5-16T262 63t48 8 42 17z"/><glyph glyph-name="Utilde" unicode="Ũ" horiz-adv-x="714" d="M358 68q87 0 130.5 40.5T532 251v473h91V243q0-131-70-193T354-12q-140 0-202 65T90 245v479h92V254q0-101 44.5-143.5T358 68zm-77 836q24 0 44-7t38-15.5 35-15.5 34-7q19 0 28.5 9.5T470 910l55-3q8-62-17.5-91.5T441 786q-24 0-44.5 7t-39 16-36 16-34.5 7q-16 0-26.5-11t-8.5-43l-56 3q-4 32 1.5 55t17.5 38 29.5 22.5T281 904z"/><glyph glyph-name="utilde" unicode="ũ" horiz-adv-x="581" d="M79 514h91V179q0-54 18-82t75-28q22 0 44.5 6.5t42 16 36 20.5 26.5 20v382h91V0h-79l-6 59q-38-31-83-50t-99-19q-82 0-119.5 44T79 165v349zm134 202q24 0 44-7t38-16 35-16 34-7q19 0 28.5 9.5T402 721l55-2q4-31-1-54t-17-38-29-22.5-37-7.5q-24 0-44.5 7t-39 16-36 16-34.5 7q-16 0-26.5-10.5T184 589l-56 3q-4 31 2 54.5t18 39 29 23 36 7.5z"/><glyph glyph-name="Umacron" unicode="Ū" horiz-adv-x="714" d="M358 68q87 0 130.5 40.5T532 251v473h91V243q0-131-70-193T354-12q-140 0-202 65T90 245v479h92V254q0-101 44.5-143.5T358 68zM203 793v71h307v-71H203z"/><glyph glyph-name="umacron" unicode="ū" horiz-adv-x="581" d="M79 514h91V179q0-54 18-82t75-28q22 0 44.5 6.5t42 16 36 20.5 26.5 20v382h91V0h-79l-6 59q-38-31-83-50t-99-19q-82 0-119.5 44T79 165v349zm69 111v71h291v-71H148z"/><glyph glyph-name="Ubreve" unicode="Ŭ" horiz-adv-x="714" d="M358 68q87 0 130.5 40.5T532 251v473h91V243q0-131-70-193T354-12q-140 0-202 65T90 245v479h92V254q0-101 44.5-143.5T358 68zm0 774q35 0 56 15t29 57l66-6q-7-64-46-97t-108-33q-66 0-101.5 31.5T212 907l67 7q8-41 26-56.5t53-15.5z"/><glyph glyph-name="ubreve" unicode="ŭ" horiz-adv-x="581" d="M79 514h91V179q0-54 18-82t75-28q22 0 44.5 6.5t42 16 36 20.5 26.5 20v382h91V0h-79l-6 59q-38-31-83-50t-99-19q-82 0-119.5 44T79 165v349zm370 213q-2-75-41.5-115T293 572q-71 0-108 37t-39 115l67 9q5-56 24.5-76.5T296 636q41 0 62.5 20.5T384 732z"/><glyph glyph-name="Uring" unicode="Ů" horiz-adv-x="714" d="M358 68q87 0 130.5 40.5T532 251v473h91V243q0-131-70-193T354-12q-140 0-202 65T90 245v479h92V254q0-101 44.5-143.5T358 68zm106 765q0-49-29.5-75.5T356 731q-48 0-77 25.5T250 828q0 53 31.5 79t74.5 26q45 0 76.5-24.5T464 833zm-108-52q25 0 37.5 14t12.5 39q0 48-50 48-22 0-36.5-12.5T305 831q0-50 51-50z"/><glyph glyph-name="uring" unicode="ů" horiz-adv-x="581" d="M79 514h91V179q0-54 18-82t75-28q22 0 44.5 6.5t42 16 36 20.5 26.5 20v382h91V0h-79l-6 59q-38-31-83-50t-99-19q-82 0-119.5 44T79 165v349zm321 160q0-48-29-74.5T293 573q-48 0-76.5 25.5T188 670q0 52 31.5 77.5T293 773q45 0 76-24t31-75zm-107-51q24 0 36.5 14t12.5 37q0 48-49 48-21 0-35.5-12.5T243 672q0-49 50-49z"/><glyph glyph-name="Uhungarumlaut" unicode="Ű" horiz-adv-x="714" d="M358 68q87 0 130.5 40.5T532 251v473h91V243q0-131-70-193T354-12q-140 0-202 65T90 245v479h92V254q0-101 44.5-143.5T358 68zm-50 699l-66 13 66 133h107zm129 0l-68 12 99 138h110z"/><glyph glyph-name="uhungarumlaut" unicode="ű" horiz-adv-x="581" d="M79 514h91V179q0-54 18-82t75-28q22 0 44.5 6.5t42 16 36 20.5 26.5 20v382h91V0h-79l-6 59q-38-31-83-50t-99-19q-82 0-119.5 44T79 165v349zm159 58l-65 13 73 161h107zm132 0l-66 12 100 164h109z"/><glyph glyph-name="Uogonek" unicode="Ų" horiz-adv-x="714" d="M533-147q-17-41-50-61t-68-20q-45 0-72.5 23T315-139q0 40 21.5 71.5T386-11q-8 0-16-.5t-16-.5q-140 0-202 65T90 245v479h92V254q0-101 44.5-143.5T358 68t130.5 40.5T532 251v473h91V243q0-46-9-81.5T588.5 98t-41-49.5T493 8q-46-29-73-62.5T393-124q0-38 38-38 32 0 54 39z"/><glyph glyph-name="uogonek" unicode="ų" horiz-adv-x="581" d="M558-147q-17-41-50-61t-68-20q-45 0-72.5 23T340-139q0 22 7 42t19 37 27 32 31 28l-6 59q-38-31-83-50t-99-19q-82 0-119.5 44T79 165v349h91V179q0-54 18-82t75-28q22 0 44.5 6.5t42 16 36 20.5 26.5 20v382h91V0q-37-34-61-61.5T418-124q0-38 38-38 32 0 54 39z"/><glyph glyph-name="Wcircumflex" unicode="Ŵ" horiz-adv-x="888" d="M602 0L448 595h-1L289 0H175L17 724h96l124-616h1l160 616h102l160-624h1l119 624h92L719 0H602zM449 847l-84-80-70 9 116 129h79l114-129-70-7z"/><glyph glyph-name="wcircumflex" unicode="ŵ" horiz-adv-x="759" d="M167 0L6 514h92L223 96l113 418h94L542 98h1l122 416h88L593 0H487L381 405h-1L275 0H167zm305 577l-89 113-88-114-68 7 112 165h89l113-165z"/><glyph glyph-name="Ycircumflex" unicode="Ŷ" horiz-adv-x="566" d="M334 0h-92v280L-5 724H99l190-353h2l185 353h95L334 282V0zm-45 847l-84-80-70 9 116 129h79l114-129-70-7z"/><glyph glyph-name="ycircumflex" unicode="ŷ" horiz-adv-x="485" d="M8 514h101l136-408h1l141 408h93L258-75q-15-41-32-69t-37.5-45.5-45-25.5-54.5-8q-29 0-56.5 6T-10-204l11 71q14-5 38-10.5t44-5.5q28 0 51.5 17T175-69l24 63zm326 63l-89 113-88-114-68 7 112 165h89l113-165z"/><glyph glyph-name="Ydieresis" unicode="Ÿ" horiz-adv-x="566" d="M334 0h-92v280L-5 724H99l190-353h2l185 353h95L334 282V0zm-87 841q0-29-17-45t-45-16q-29 0-46.5 16T121 841t17.5 45.5T185 903q28 0 45-16.5t17-45.5zm210 0q0-29-17-45t-46-16-46 16-17 45 17 45.5 46 16.5 46-16.5 17-45.5z"/><glyph glyph-name="Zacute" unicode="Ź" horiz-adv-x="588" d="M146 80h401V0H34v68l387 576H45v80h486v-70zm135 687l-69 12 99 134h110z"/><glyph glyph-name="zacute" unicode="ź" horiz-adv-x="459" d="M134 73h300V0H31v62l288 379H35v73h387v-66zm81 499l-66 12 97 163h109z"/><glyph glyph-name="Zdotaccent" unicode="Ż" horiz-adv-x="588" d="M146 80h401V0H34v68l387 576H45v80h486v-70zm204 765q0-31-16.5-48T286 780t-48 17-17 48q0 32 17 49t48 17 47.5-17 16.5-49z"/><glyph glyph-name="zdotaccent" unicode="ż" horiz-adv-x="459" d="M134 73h300V0H31v62l288 379H35v73h387v-66zm162 606q0-32-16.5-49T232 613t-48 17-17 49 17 48.5 48 16.5q64 0 64-65z"/><glyph glyph-name="Zcaron" unicode="Ž" horiz-adv-x="588" d="M146 80h401V0H34v68l387 576H45v80h486v-70zm140 748l84 80 70-9-116-129h-79L131 899l70 7z"/><glyph glyph-name="zcaron" unicode="ž" horiz-adv-x="459" d="M134 73h300V0H31v62l288 379H35v73h387v-66zm12 669l87-112 89 114 66-7-112-165h-89L74 737z"/><glyph glyph-name="longs" unicode="ſ" horiz-adv-x="295" d="M324 678q-15 5-34.5 9t-37.5 4q-35 0-57.5-18.5T172 600V0H81v597q0 85 39.5 126.5T234 765q32 0 56.5-5.5T328 748z"/><glyph glyph-name="florin" unicode="ƒ" horiz-adv-x="535" d="M479 600q-11 29-27 47t-45 18q-31 0-52-18t-30-66l-26-136h141l-12-69H287L206-24q-17-83-56-120T37-181q-55 0-93 27t-54 80l77 30q11-29 27.5-46.5T43-108q30 0 49 17.5T121-25l79 401h-82l13 69h82l27 134q17 83 57 120.5T411 737q109 0 144-107z"/><glyph glyph-name="Aringacute" unicode="Ǻ" horiz-adv-x="687" d="M313 921l-69 12 99 134h110zm132-113q0-30-12-52t-33-34L652 0H551l-73 215H200L129 0H36l243 721q-44 25-44 82 0 52 31 77.5t73 25.5q22 0 41-6t33.5-18 23-30.5T445 808zM339 640h-1L222 294h233zm0 116q25 0 37 14t12 39q0 47-49 47-21 0-35.5-12.5T289 806q0-50 50-50z"/><glyph glyph-name="aringacute" unicode="ǻ" horiz-adv-x="545" d="M457 97q0-21 5.5-30.5T488 57q11 0 31 6l4-57q-32-16-71-16-38 0-56.5 18T373 51q-30-30-70.5-46.5T208-12q-49 0-78.5 14.5T83.5 38t-22 45-5.5 43q0 51 21 85t57.5 54 85 28 102.5 8q12 0 23-.5t22-1.5v50q0 24-4 43.5t-15.5 33-31.5 21-51 7.5q-53 0-77-21t-32-64l-80 15q12 72 59.5 106.5T273 525q95 0 139.5-40.5T457 348V97zm-89 136q-21 3-52 3-27 0-56-2.5t-53.5-12T166 193t-16-52q0-17 3.5-31.5t13-26 26.5-18 43-6.5q40 0 75.5 17.5T368 117v116zm11 431q0-48-29-74.5T272 563q-48 0-76.5 25.5T167 660q0 52 31.5 77.5T272 763q45 0 76-24t31-75zm-107-51q24 0 36.5 14t12.5 37q0 48-49 48-21 0-35.5-12.5T222 662q0-49 50-49zm-19 176l-69 12 99 134h110z"/><glyph glyph-name="AEacute" unicode="Ǽ" horiz-adv-x="1000" d="M605 80h344V0H512v316H298L126 0H30l394 724h512v-80H605V397h310v-79H605V80zm-93 564h-43L334 394h178v250zm172 123l-69 12 99 134h110z"/><glyph glyph-name="aeacute" unicode="ǽ" horiz-adv-x="859" d="M598-12q-69 0-112.5 20.5T416 66q-43-42-97-60T216-12q-51 0-82.5 14.5T84.5 38t-23 45-5.5 43q0 51 20 84.5t54.5 53.5 80 28 96.5 9h30l30-1v49q0 24-4.5 43.5t-16 33-31.5 21-51 7.5q-52 0-76-21t-32-64l-80 15q12 74 60 107.5T271 525q66 0 102-21t54-66q32 44 78 65.5T608 525q53 0 91-18t62-49 35.5-73.5T808 294q0-14-1-30.5t-3-31.5H458q1-51 12.5-83.5t30.5-51 45.5-26T604 64q54 0 80.5 23.5T722 155l81-18q-16-75-71.5-112T598-12zM237 59q42 0 80.5 17t67.5 48q-9 26-13 53.5t-5 58.5q-14 1-29 1h-30q-31 0-59.5-4.5t-50.5-15-35-29-13-48.5q0-16 3.5-30.5t13-26 26.5-18 44-6.5zm477 242q2 71-26.5 110.5T597 451q-26 0-49.5-9T505 415t-31.5-46.5T459 301h255zM438 572l-66 12 97 163h109z"/><glyph glyph-name="Oslashacute" unicode="Ǿ" horiz-adv-x="759" d="M375-12q-54 0-97 12l-29-72h-90l42 102Q123 76 86.5 162.5T50 362q0 81 22 149.5T137 630t106.5 78.5T390 737q28 0 52.5-3.5T490 724l30 70h89l-43-104q73-46 108-128.5T709 376q0-88-21-159.5T625 94 520.5 15.5 375-12zM146 363q0-89 23.5-150.5T237 116l221 530q-17 5-34.5 7.5T387 656q-53 0-97-18.5T214 582t-50-92-18-127zM380 69q51 0 94.5 17.5T549 141t48.5 93T615 367q0 84-22 144t-62 95L311 78q31-9 69-9zm0 698l-69 12 99 134h110z"/><glyph glyph-name="oslashacute" unicode="ǿ" horiz-adv-x="578" d="M286-12q-41 0-72 7l-29-67H99l43 98q-51 35-72 94.5T49 255q0 62 16 112t47.5 85 78 54T299 525q32 0 61-6l30 67h85l-42-96q50-32 73-89.5T529 267q0-63-13.5-114.5t-43-88T397 8 286-12zm5 73q33 0 59.5 10.5t45 34.5 28.5 62 10 93q0 54-9.5 90T397 409L246 66q10-3 21-4t24-1zM143 259q0-101 36-150l149 338q-15 3-33 3-34 0-62-10.5T185 406t-31-59.5-11-87.5zm135 313l-66 12 97 163h109z"/><glyph glyph-name="Scommaaccent" unicode="Ș" horiz-adv-x="583" d="M299 659q-42 0-70.5-8.5t-46.5-24-26-36-8-44.5q0-33 14.5-55t38.5-37.5 55-26.5 65-21q40-12 79.5-25.5t71-36 51-57T542 201q0-57-21-97.5t-56.5-66-82-37.5T286-12q-113 0-181.5 48.5T22 197l88 13q6-29 17-55t31-46 51-31.5T287 66q29 0 58 5.5T397 91t37 37.5 14 59.5q0 34-14 56.5T396.5 282 342 307.5 278 327q-40 11-80 24.5t-72 36-52 58T54 537q0 46 18.5 83.5t51 63 77 39.5 97.5 14q48 0 89-10t72-34 51-63 26-97l-86-10q-4 26-12.5 50.5t-25 43.5-44 30.5T299 659zM243-69h97l-68-174-68 10z"/><glyph glyph-name="scommaaccent" unicode="ș" horiz-adv-x="487" d="M248 525q46 0 78.5-10.5t55-30 35.5-47 19-61.5l-82-18q-5 22-11.5 39.5t-18.5 30-30.5 19T247 453q-56 0-77.5-21.5T148 381q0-20 7.5-33.5T178 325t36-15 48-12q35-8 68-16.5t58.5-25 41-43T445 144q0-74-53.5-115T244-12q-89 0-141 35.5T39 137l81 22q5-21 13-39t22-31.5 36.5-21T248 60q46 0 76.5 16.5T355 134q0 21-7.5 34.5t-22 22-35.5 14-47 10.5q-32 6-64.5 14.5T119 254t-44 43.5T58 370q0 39 15 68t41 48.5 60.5 29T248 525zM204-69h97l-68-174-68 10z"/><glyph glyph-name="uni021A" unicode="Ț" horiz-adv-x="554" d="M232 0v644H13v80h528v-80H324V0h-92zm3-69h97l-68-174-68 10z"/><glyph glyph-name="uni021B" unicode="ț" horiz-adv-x="379" d="M368 22Q349 9 313.5-1.5T242-12q-72 0-108.5 34.5T97 135v306H18v73h79v149l91 14V514h142v-73H188V147q0-20 3-36t11-26.5 22.5-16T262 63t48 8 42 17zM191-69h97l-68-174-68 10z"/><glyph glyph-name="dotlessj" unicode="ȷ" horiz-adv-x="247" d="M26-223q-25 0-54 6t-43 14l10 74q15-6 35.5-10.5T14-144q31 0 49 17.5T81-63v577h91V-67q0-82-38-119T26-223z"/><glyph glyph-name="apostrophe" unicode="ʼ" horiz-adv-x="500" d="M215 696h97l-68-174-68 10z"/><glyph glyph-name="circumflex" unicode="ˆ" horiz-adv-x="500" d="M339 577l-89 113-88-114-68 7 112 165h89l113-165z"/><glyph glyph-name="caron" unicode="ˇ" horiz-adv-x="500" d="M164 742l87-112 89 114 66-7-112-165h-89L92 737z"/><glyph glyph-name="uni02C9" unicode="ˉ" horiz-adv-x="500" d="M105 617v72h291v-72H105z"/><glyph glyph-name="breve" unicode="˘" horiz-adv-x="500" d="M406 727q-2-75-41.5-115T250 572q-71 0-108 37t-39 115l67 9q5-56 24.5-76.5T253 636q41 0 62.5 20.5T341 732z"/><glyph glyph-name="dotaccent" unicode="˙" horiz-adv-x="500" d="M314 679q0-32-16.5-49T250 613t-48 17-17 49 17 48.5 48 16.5q64 0 64-65z"/><glyph glyph-name="ring" unicode="˚" horiz-adv-x="500" d="M357 674q0-48-29-74.5T250 573q-48 0-76.5 25.5T145 670q0 52 31.5 77.5T250 773q45 0 76-24t31-75zm-107-51q24 0 36.5 14t12.5 37q0 48-49 48-21 0-35.5-12.5T200 672q0-49 50-49z"/><glyph glyph-name="ogonek" unicode="˛" horiz-adv-x="500" d="M369-147q-17-41-50-61t-68-20q-45 0-72.5 23T151-139q0 27 11 50.5T189.5-45 226-8.5 264 22l57-15q-40-37-66-66t-26-65q0-38 38-38 32 0 54 39z"/><glyph glyph-name="tilde" unicode="˜" horiz-adv-x="500" d="M170 716q24 0 44-7t38-16 35-16 34-7q19 0 28.5 9.5T359 721l55-2q4-31-1-54t-17-38-29-22.5-37-7.5q-24 0-44.5 7t-39 16-36 16-34.5 7q-16 0-26.5-10.5T141 589l-56 3q-4 31 2 54.5t18 39 29 23 36 7.5z"/><glyph glyph-name="hungarumlaut" unicode="˝" horiz-adv-x="500" d="M203 572l-65 13 73 161h107zm132 0l-66 12 100 164h109z"/><glyph glyph-name="uni0394" unicode="Δ" horiz-adv-x="670" d="M24 0l250 724h117L646 0H24zm114 79h377L329 636h-2z"/><glyph glyph-name="uni03A9" unicode="Ω" horiz-adv-x="829" d="M562 80h179V0H489v161q26 10 56.5 30t56.5 51.5 43 75T662 418q0 121-63.5 179.5T427 656q-54 0-99.5-16T249 592.5t-51.5-79T179 402q0-51 14-90.5t37-68.5 54-49 64-33V0H90v80h184v41q-47 18-82.5 46T132 232t-36 81-12 92q0 73 24 134.5t68.5 105 108.5 68T429 737q84 0 146-23t102-64 59.5-98T756 427q0-54-15.5-101t-42-86-61.5-69-75-50V80z"/><glyph glyph-name="uni03BC" unicode="μ" horiz-adv-x="629" d="M100 514h91V180q0-60 17-87t65-27q24 0 47 7.5T363 93t37.5 27 30.5 29v365h91V0h-87v62h-1q-35-29-77-50.5T261-10q-23 0-44 7t-32 18l-3-1 11-190h-93v690z"/><glyph glyph-name="pi" unicode="π" horiz-adv-x="666" d="M540 0h-91v440H214V0h-91v514h418z"/><glyph glyph-name="Wgrave" unicode="Ẁ" horiz-adv-x="888" d="M602 0L448 595h-1L289 0H175L17 724h96l124-616h1l160 616h102l160-624h1l119 624h92L719 0H602zM304 913h110l99-134-69-12z"/><glyph glyph-name="wgrave" unicode="ẁ" horiz-adv-x="759" d="M167 0L6 514h92L223 96l113 418h94L542 98h1l122 416h88L593 0H487L381 405h-1L275 0H167zm76 747h109l97-163-66-12z"/><glyph glyph-name="Wacute" unicode="Ẃ" horiz-adv-x="888" d="M602 0L448 595h-1L289 0H175L17 724h96l124-616h1l160 616h102l160-624h1l119 624h92L719 0H602zM445 767l-69 12 99 134h110z"/><glyph glyph-name="wacute" unicode="ẃ" horiz-adv-x="759" d="M167 0L6 514h92L223 96l113 418h94L542 98h1l122 416h88L593 0H487L381 405h-1L275 0H167zm204 572l-66 12 97 163h109z"/><glyph glyph-name="Wdieresis" unicode="Ẅ" horiz-adv-x="888" d="M602 0L448 595h-1L289 0H175L17 724h96l124-616h1l160 616h102l160-624h1l119 624h92L719 0H602zM407 841q0-29-17-45t-45-16q-29 0-46.5 16T281 841t17.5 45.5T345 903q28 0 45-16.5t17-45.5zm210 0q0-29-17-45t-46-16-46 16-17 45 17 45.5 46 16.5 46-16.5 17-45.5z"/><glyph glyph-name="wdieresis" unicode="ẅ" horiz-adv-x="759" d="M167 0L6 514h92L223 96l113 418h94L542 98h1l122 416h88L593 0H487L381 405h-1L275 0H167zm174 672q0-29-17-45.5T279 610q-29 0-46.5 16.5T215 672q0 28 17.5 44.5T279 733q28 0 45-16.5t17-44.5zm210 0q0-29-17-45.5T488 610t-46 16.5-17 45.5q0 28 17 44.5t46 16.5 46-16.5 17-44.5z"/><glyph glyph-name="Ygrave" unicode="Ỳ" horiz-adv-x="566" d="M334 0h-92v280L-5 724H99l190-353h2l185 353h95L334 282V0zM151 913h110l99-134-69-12z"/><glyph glyph-name="ygrave" unicode="ỳ" horiz-adv-x="485" d="M8 514h101l136-408h1l141 408h93L258-75q-15-41-32-69t-37.5-45.5-45-25.5-54.5-8q-29 0-56.5 6T-10-204l11 71q14-5 38-10.5t44-5.5q28 0 51.5 17T175-69l24 63zm97 233h109l97-163-66-12z"/><glyph glyph-name="thinspace" horiz-adv-x="125"/><glyph glyph-name="endash" unicode="–" horiz-adv-x="500" d="M0 245v73h499v-73H0z"/><glyph glyph-name="emdash" unicode="—" horiz-adv-x="1000" d="M0 245v73h999v-73H0z"/><glyph glyph-name="quoteleft" unicode="‘" horiz-adv-x="189" d="M130 553H32l82 227 69-9z"/><glyph glyph-name="quoteright" unicode="’" horiz-adv-x="189" d="M77.016 767.067h97.988l-81.99-226.972-68.992 8.998z"/><glyph glyph-name="quotesinglbase" unicode="‚" horiz-adv-x="180" d="M64.016 88.067h97.988l-81.99-226.972-68.992 8.998z"/><glyph glyph-name="quotedblleft" unicode="“" horiz-adv-x="343" d="M285 553h-98l82 227 69-9zm-155 0H32l82 227 69-9z"/><glyph glyph-name="quotedblright" unicode="”" horiz-adv-x="343" d="M231.016 767.067h97.988l-81.99-226.972-68.991 8.998zm-154 0h97.988l-81.99-226.972-68.992 8.998z"/><glyph glyph-name="quotedblbase" unicode="„" horiz-adv-x="335" d="M64.016 88.067h97.988l-81.99-226.972-68.992 8.998zm154 0h97.988l-81.99-226.972-68.991 8.998z"/><glyph glyph-name="dagger" unicode="†" horiz-adv-x="405" d="M235 489l14-572h-93l13 573-149-11v82l149-11-10 174h87l-11-173 150 10v-82z"/><glyph glyph-name="daggerdbl" unicode="‡" horiz-adv-x="421" d="M243 489l1-338 149 11V80L244 91l10-174h-87l11 173L28 80v82l150-10-1 338-149-11v82l149-11-10 174h87l-11-173 150 10v-82z"/><glyph glyph-name="bullet" unicode="•" horiz-adv-x="392" d="M333 280q0-68-35.5-101.5T196 145 94.5 178.5 59 280t35.5 101T196 414t101.5-33T333 280z"/><glyph glyph-name="ellipsis" unicode="…" horiz-adv-x="638" d="M388 55q0-67-68-67t-68 67 68 67 68-67zm-207 0q0-67-68-67T45 55t68 67 68-67zm412 0q0-67-68-67t-68 67 68 67 68-67z"/><glyph glyph-name="perthousand" unicode="‰" horiz-adv-x="1011" d="M187 412q-40 0-67 12.5t-43.5 34-23.5 50-7 61.5q0 76 37.5 121.5T194 737q75 0 108-43t33-115q0-77-37.5-122T187 412zM75-16l439 740h81L157-16H75zm115 487q41 0 56 29t15 76q0 44-14 72.5T193 677q-21 0-35-8.5t-22.5-23-12-33T120 574q0-45 14.5-74t55.5-29zM490-12q-40 0-67 12.5t-43.5 34-23.5 50-7 61.5q0 76 37.5 121.5T497 313q75 0 108-43t33-115q0-77-37.5-122T490-12zm3 59q41 0 56 29t15 76q0 44-14.5 72.5T495 253q-21 0-34.5-8.5t-22-23-12-33T423 150q0-45 14.5-74T493 47zm324-59q-40 0-67 12.5t-43.5 34-23.5 50-7 61.5q0 76 37.5 121.5T824 313q75 0 108-43t33-115q0-77-37.5-122T817-12zm3 59q41 0 56 29t15 76q0 44-14.5 72.5T822 253q-21 0-34.5-8.5t-22-23-12-33T750 150q0-45 14.5-74T820 47z"/><glyph glyph-name="guilsinglleft" unicode="‹" horiz-adv-x="278" d="M144 103L57 259l89 149h82l-84-146 82-159h-82z"/><glyph glyph-name="guilsinglright" unicode="›" horiz-adv-x="278" d="M131 408l88-154-88-151H49l84 150-84 155h82z"/><glyph glyph-name="fraction" unicode="⁄" horiz-adv-x="148" d="M-151-12l356 736h84L-65-12h-86z"/><glyph glyph-name="zerosuperior" unicode="⁰" horiz-adv-x="406" d="M201 342q-47 0-77.5 16t-49 46-26 72.5T41 572t9 95.5T79 740t51.5 46 77.5 16q47 0 77.5-16t48-45.5 24.5-71 7-92.5q0-55-8-98.5t-27-74-50.5-46.5-78.5-16zm3 65q46 0 60.5 41.5T279 574q0 81-13.5 121.5T206 736q-47 0-62.5-40.5T128 571q0-81 14-122.5t62-41.5z"/><glyph glyph-name="foursuperior" unicode="⁴" horiz-adv-x="386" d="M231 349v103H22v57l188 285h101V517h53v-65h-52V349h-81zm0 168v204L96 517h135z"/><glyph glyph-name="fivesuperior" unicode="⁵" horiz-adv-x="391" d="M75 794h235v-68H136l-12-116v-9q16 13 37.5 22t52.5 9q25 0 47.5-7t39.5-23 27-42 10-63q0-72-45-113.5T176 342q-27 0-51.5 6t-44 19-33 34T30 452l72 15q5-26 21-44t53-18q30 0 54 21t24 67q0 43-20.5 60T184 570q-22 0-39.5-8T113 540l-55 20z"/><glyph glyph-name="sixsuperior" unicode="⁶" horiz-adv-x="416" d="M293 682q-7 34-22 46t-38 12q-26 0-43.5-13.5T161 690t-16-52.5-5-61.5q16 17 44.5 31t63.5 14q56 0 88.5-33t32.5-94q0-77-43.5-114.5T215 342q-46 0-76 17.5t-47 47-24 69-7 83.5q0 38 7.5 81T96 719t54.5 59.5T239 802q45 0 80-22t47-80zM144 523q1-23 4-44.5t11-38 22.5-26.5 37.5-10q31 0 49 21t18 63q0 37-14 56t-46 19q-23 0-46-13t-36-27z"/><glyph glyph-name="sevensuperior" unicode="⁷" horiz-adv-x="355" d="M66 349l181 377H35v68h299v-61L154 349H66z"/><glyph glyph-name="eightsuperior" unicode="⁸" horiz-adv-x="392" d="M262 589q20-9 38-19t31-24 20.5-32.5T359 469q0-27-11.5-50t-33-40-52-27-69.5-10q-80 0-118 32.5T37 457q0 47 26.5 73.5T131 574q-36 14-57.5 42T52 682q0 30 12 52.5T96.5 772t48 22.5T204 802q68 0 105.5-27.5T347 699q0-37-22-63.5T262 589zm-81-42q-32-16-49-34t-17-47 19-45.5 61-16.5q38 0 57.5 17.5T272 465q0 18-8 30.5t-20.5 22-29 16.5-33.5 13zm29 66q26 14 43.5 34t17.5 46q0 50-67 50-32 0-49.5-14T137 690q0-27 20.5-45.5T210 613z"/><glyph glyph-name="ninesuperior" unicode="⁹" horiz-adv-x="415" d="M121 466q7-32 22.5-47.5T188 403q49 0 69.5 43T280 561q-16-16-44.5-28.5T173 520q-57 0-90 34t-33 97q0 38 12 66.5t32.5 47 49 28T205 802q46 0 75.5-17t46.5-47 24-69.5 7-84.5q0-42-6.5-85T326 421t-52.5-57-88.5-22q-25 0-47.5 5.5t-41 18-31 32.5T47 447zm153 150q-2 24-5 46t-10.5 39.5-21.5 28-37 10.5q-31 0-49-21.5T133 655q0-36 15-57t47-21q23 0 43.5 11t35.5 28z"/><glyph glyph-name="plussuperior" unicode="⁺" horiz-adv-x="437" d="M184 446v91H95v65h89v88h68v-88h89v-65h-89v-91h-68z"/><glyph glyph-name="minussuperior" unicode="⁻" horiz-adv-x="437" d="M97 537v65h244v-65H97z"/><glyph glyph-name="equalsuperior" unicode="⁼" horiz-adv-x="440" d="M98 459v66h244v-66H98zm0 114v66h244v-66H98z"/><glyph glyph-name="parenleftsuperior" unicode="⁽" horiz-adv-x="256" d="M147 276q-18 24-34.5 53T83 391.5t-21 71-8 79.5q0 83 29.5 150T154 815h81q-42-62-69.5-127T138 543q0-42 7.5-78.5t20-69 29.5-62 35-57.5h-83z"/><glyph glyph-name="parenrightsuperior" unicode="⁾" horiz-adv-x="257" d="M21 814q21 0 41.5.5t42.5.5q19-26 36.5-56t31-64.5 22-72.5 8.5-79-8-78-21-70.5-30-63-36-55.5H24q19 28 36 57t29.5 61 20 69 7.5 80q0 78-27 143T21 814z"/><glyph glyph-name="zeroinferior" unicode="₀" horiz-adv-x="406" d="M201-154q-47 0-77.5 16t-49 46-26 72.5T41 76t9 95.5T79 244t51.5 46 77.5 16q47 0 77.5-16t48-45.5 24.5-71 7-92.5q0-55-8-98.5t-27-74-50.5-46.5-78.5-16zm3 65q46 0 60.5 41.5T279 78q0 81-13.5 121.5T206 240q-47 0-62.5-40.5T128 75q0-81 14-122.5T204-89z"/><glyph glyph-name="oneinferior" unicode="₁" horiz-adv-x="316" d="M143-149v348q-8-4-21.5-7.5t-28-6-28-4T44 180l-4 65q43 3 75.5 15t55.5 36h55v-445h-83z"/><glyph glyph-name="twoinferior" unicode="₂" horiz-adv-x="386" d="M196 306q66 0 100.5-29t34.5-85q0-26-7.5-48.5t-22-44.5T266 53 217 1l-70-76v-2h191v-70H52v68L155 35q24 27 41.5 47.5t29 38T242 154t5 34q0 29-15.5 41.5T188 242q-35 0-50.5-18.5T117 173l-71 12q4 32 17 55t33 37.5 45.5 21.5 54.5 7z"/><glyph glyph-name="threeinferior" unicode="₃" horiz-adv-x="399" d="M112-30q5-29 19-44.5T182-90q30 0 51.5 16.5T255-18q0 41-21.5 56T173 53h-43v60h29q44 0 67 21t23 54q0 24-12.5 39T190 242t-48.5-14.5T120 185l-71 14q6 30 20 50.5t33.5 33 44 18T198 306q65 0 99-28.5t34-77.5q0-24-8-42t-20.5-31-28-21.5T244 92v-1q45-9 70.5-35.5T340-20q0-63-43.5-98.5T183-154q-55 0-96 25T38-44z"/><glyph glyph-name="fourinferior" unicode="₄" horiz-adv-x="386" d="M231-147v103H22v57l188 285h101V21h53v-65h-52v-103h-81zm0 168v204L96 21h135z"/><glyph glyph-name="fiveinferior" unicode="₅" horiz-adv-x="391" d="M75 298h235v-68H136l-12-116v-9q16 13 37.5 22t52.5 9q25 0 47.5-7t39.5-23 27-42 10-63q0-72-45-113.5T176-154q-27 0-51.5 6t-44 19-33 34T30-44l72 15q5-26 21-44t53-18q30 0 54 21t24 67q0 43-20.5 60T184 74q-22 0-39.5-8T113 44L58 64z"/><glyph glyph-name="sixinferior" unicode="₆" horiz-adv-x="416" d="M293 186q-7 34-22 46t-38 12q-26 0-43.5-13.5T161 194t-16-52.5-5-61.5q16 17 44.5 31t63.5 14q56 0 88.5-33T369-2q0-77-43.5-114.5T215-154q-46 0-76 17.5t-47 47-24 69T61 63q0 38 7.5 81T96 223t54.5 59.5T239 306q45 0 80-22t47-80zM144 27q1-23 4-44.5t11-38T181.5-82 219-92q31 0 49 21t18 63q0 37-14 56t-46 19q-23 0-46-13t-36-27z"/><glyph glyph-name="seveninferior" unicode="₇" horiz-adv-x="355" d="M66-147l181 377H35v68h299v-61L154-147H66z"/><glyph glyph-name="eightinferior" unicode="₈" horiz-adv-x="392" d="M262 93q20-9 38-19t31-24 20.5-32.5T359-27q0-27-11.5-50t-33-40-52-27-69.5-10q-80 0-118 32.5T37-39q0 47 26.5 73.5T131 78q-36 14-57.5 42T52 186q0 30 12 52.5T96.5 276t48 22.5T204 306q68 0 105.5-27.5T347 203q0-37-22-63.5T262 93zm-81-42q-32-16-49-34t-17-47 19-45.5T195-92q38 0 57.5 17.5T272-31q0 18-8 30.5t-20.5 22-29 16.5T181 51zm29 66q26 14 43.5 34t17.5 46q0 50-67 50-32 0-49.5-14T137 194q0-27 20.5-45.5T210 117z"/><glyph glyph-name="nineinferior" unicode="₉" horiz-adv-x="415" d="M121-30q7-32 22.5-47.5T188-93q49 0 69.5 43T280 65q-16-16-44.5-28.5T173 24q-57 0-90 34t-33 97q0 38 12 66.5t32.5 47 49 28T205 306q46 0 75.5-17t46.5-47 24-69.5 7-84.5q0-42-6.5-85T326-75t-52.5-57-88.5-22q-25 0-47.5 5.5t-41 18-31 32.5T47-49zm153 150q-2 24-5 46t-10.5 39.5-21.5 28-37 10.5q-31 0-49-21.5T133 159q0-36 15-57t47-21q23 0 43.5 11t35.5 28z"/><glyph glyph-name="parenleftinferior" unicode="₍" horiz-adv-x="256" d="M147-220q-18 24-34.5 53T83-104.5t-21 71T54 46q0 83 29.5 150T154 319h81q-42-62-69.5-127T138 47q0-42 7.5-78.5t20-69 29.5-62 35-57.5h-83z"/><glyph glyph-name="parenrightinferior" unicode="₎" horiz-adv-x="257" d="M21 318q21 0 41.5.5t42.5.5q19-26 36.5-56t31-64.5 22-72.5 8.5-79-8-78-21-70.5-30-63-36-55.5H24q19 28 36 57t29.5 61 20 69 7.5 80q0 78-27 143T21 318z"/><glyph glyph-name="Euro" unicode="€" horiz-adv-x="612" d="M354-12q-50 0-93.5 13.5t-78 44-58 80.5T92 250H11l11 68h64v56.5l1 22.5H32l11 68h51q11 74 37 126t63 84.5 82 47 95 14.5q46 0 85-12.5t68-38.5 46.5-67 21.5-99l-83-8q-5 39-14 66.5t-25.5 45-41 25.5-59.5 8q-44 0-75.5-13.5t-53.5-39-35.5-61T185 465h225l-12-68H178v-61l1-18h210l-12-68H184q14-92 55.5-137.5T360 67q66 0 101 31.5T510 199l78-18q-8-55-31-92t-55.5-59.5-70.5-32-77-9.5z"/><glyph glyph-name="afii61352" unicode="№" horiz-adv-x="1067" d="M493 0L186 605V0h-86v724h120l296-602v602h85V0H493zm202 336h296v-73H695v73zm143 45q-45 0-76.5 13T710 430t-29 55.5-9 70.5q0 78 42 125.5T844 729q44 0 75-12.5t50.5-35 28.5-53 9-67.5q0-82-40.5-131T838 381zm2 65q43 0 65.5 24.5T928 557q0 59-21 84.5T843 667q-44 0-68.5-25T750 557t23-85.5 67-25.5z"/><glyph glyph-name="trademark" unicode="™" horiz-adv-x="832" d="M712 348v267L605 348h-46L454 616V348h-56v376h71l115-296 118 296h65V348h-55zm-497 0h-60v322H26v54h318v-54H215V348z"/><glyph glyph-name="Omega" unicode="Ω" horiz-adv-x="829" d="M562 80h179V0H489v161q26 10 56.5 30t56.5 51.5 43 75T662 418q0 121-63.5 179.5T427 656q-54 0-99.5-16T249 592.5t-51.5-79T179 402q0-51 14-90.5t37-68.5 54-49 64-33V0H90v80h184v41q-47 18-82.5 46T132 232t-36 81-12 92q0 73 24 134.5t68.5 105 108.5 68T429 737q84 0 146-23t102-64 59.5-98T756 427q0-54-15.5-101t-42-86-61.5-69-75-50V80z"/><glyph glyph-name="onethird" unicode="⅓" horiz-adv-x="890" d="M177-12l356 736h84L263-12h-86zm-39 291v348q-8-4-21.5-7.5t-28-6-28-4T39 608l-4 65q43 3 75.5 15t55.5 36h55V279h-83zm464-162q5-29 19-44.5T672 57q30 0 51.5 16.5T745 129q0 41-21.5 56T663 200h-43v60h29q44 0 67 21t23 54q0 24-12.5 39T680 389t-48.5-14.5T610 332l-71 14q6 30 20 50.5t33.5 33 44 18T688 453q65 0 99-28.5t34-77.5q0-24-8-42t-20.5-31-28-21.5T734 239v-1q45-9 70.5-35.5T830 127q0-63-43.5-98.5T673-7q-55 0-96 25t-49 85z"/><glyph glyph-name="twothirds" unicode="⅔" horiz-adv-x="890" d="M232-12l356 736h84L318-12h-86zm-47 746q66 0 100.5-29t34.5-85q0-26-7.5-48.5t-22-44.5-35.5-46-49-52l-70-76v-2h191v-70H41v68l103 114q24 27 41.5 47.5t29 38T231 582t5 34q0 29-15.5 41.5T177 670q-35 0-50.5-18.5T106 601l-71 12q4 32 17 55t33 37.5 45.5 21.5 54.5 7zm458-617q5-29 19-44.5T713 57q30 0 51.5 16.5T786 129q0 41-21.5 56T704 200h-43v60h29q44 0 67 21t23 54q0 24-12.5 39T721 389t-48.5-14.5T651 332l-71 14q6 30 20 50.5t33.5 33 44 18T729 453q65 0 99-28.5t34-77.5q0-24-8-42t-20.5-31-28-21.5T775 239v-1q45-9 70.5-35.5T871 127q0-63-43.5-98.5T714-7q-55 0-96 25t-49 85z"/><glyph glyph-name="partialdiff" unicode="∂" horiz-adv-x="555" d="M407 352q1 11 2 24t1 27q0 36-6 71t-21 62-41 44-65 17q-42 0-81.5-15.5T127 546l-38 61q39 28 91 47t106 19q65 0 106.5-25t65-66 32-92.5T498 386q0-41-4-86.5t-14.5-90T451 125t-46.5-70.5-68-48.5T244-12q-99 0-148.5 52.5T46 183q0 51 14 93t40 72 63 47 84 17q54 0 94.5-19t65.5-41zm-6-76q-10 10-24.5 21T344 317.5 305 333t-45 6q-34 0-57-13t-37.5-34-20.5-48-6-56q0-26 6.5-49T165 99t33-27 48-10q44 0 72.5 21.5T364 137t25 69.5 12 69.5z"/><glyph glyph-name="Delta" unicode="∆" horiz-adv-x="670" d="M24 0l250 724h117L646 0H24zm114 79h377L329 636h-2z"/><glyph glyph-name="product" unicode="∏" horiz-adv-x="772" d="M650-161h-92v806H214v-806h-92v885h528v-885z"/><glyph glyph-name="summation" unicode="∑" horiz-adv-x="627" d="M129-92h439v-84H23v70l233 383L40 660v64h526v-80H155l205-364z"/><glyph glyph-name="minus" unicode="−" d="M97 280v83h377v-83H97z"/><glyph glyph-name="uni2215" unicode="∕" horiz-adv-x="454" d="M30-17l313 648h82L113-17H30z"/><glyph glyph-name="uni2219" unicode="∙" horiz-adv-x="289" d="M215 307q0-69-71-69-35 0-53.5 17T72 307t18.5 52.5T144 377q71 0 71-70z"/><glyph glyph-name="radical" unicode="√" d="M258 0L122 240q-1 2-4 2l-69-27-25 59 138 65L294 98l173 646 76-20L350 0h-92z"/><glyph glyph-name="infinity" unicode="∞" horiz-adv-x="671" d="M336 269q-12-13-27.5-27.5t-34.5-27-42-21-50-8.5q-26 0-50 8t-42.5 24.5-30 41.5T48 319q0 31 11 56.5T89 419t45 28 56 10q25 0 46.5-7.5t40-19 34-26.5 30.5-30q13 14 28.5 28.5t34 26.5 40.5 20 48 8q27 0 50.5-8t41.5-25 28.5-43 10.5-62q0-30-10.5-54.5t-29-42.5-43.5-27.5-53-9.5-50.5 8-40.5 20-33 27-27 29zm-37 54q-24 28-49.5 48T189 391q-31 0-49-20.5T122 323q0-13 3.5-26t11.5-23.5 20-17 29-6.5q18 0 34.5 7.5t30.5 19 26.5 24T299 323zm82-2q11-12 22.5-24.5T427 274t26.5-16 31.5-6q31 0 48 22t17 49-14.5 48-47.5 21q-32 0-57.5-22.5T381 321z"/><glyph glyph-name="integral" unicode="∫" horiz-adv-x="418" d="M59-95q19-9 41.5-14.5T141-115q26 0 43 14.5T198-44l-55 633q-3 40 8 66.5t30.5 42.5 45 22.5T277 727q31 0 52.5-5.5T374 707l-6-76q-19 10-39.5 15.5T286 652q-26 0-43-15.5T229 582l54-633q3-41-8-67.5t-30.5-42-44.5-22-50-6.5q-32 0-52.5 5T54-169z"/><glyph glyph-name="approxequal" unicode="≈" d="M170 336q24 0 57.5-7t67.5-16 64-16 47-7q19 0 28 9.5t9 42.5l58-3q7-62-19-92.5T414 216q-23 0-57 7t-68.5 16-65 16-47.5 7q-16 0-26.5-11t-8.5-43l-58 2q-4 31 1.5 55t18 39.5 30 23.5 37.5 8zm1 180q24 0 57.5-7t67.5-16 64-16 47-7q19 0 28 9.5t9 42.5l58-3q7-62-19-92.5T415 396q-23 0-57 7t-68.5 16-65 16-47.5 7q-16 0-26.5-11t-8.5-43l-58 2q-4 31 1.5 55t18 39.5 30 23.5 37.5 8z"/><glyph glyph-name="notequal" unicode="≠" d="M225 242l37 79H98v85h201l45 96h80l-46-96h94v-85H341l-37-79h168v-85H268l-45-94h-79l45 94H98v85h127z"/><glyph glyph-name="lessequal" unicode="≤" d="M89 252v98l378 153v-82L170 305l297-112v-85zM90 0v80h377V0H90z"/><glyph glyph-name="greaterequal" unicode="≥" d="M89 112v81l297 111L89 417v86l378-153v-93zM89 0v80h377V0H89z"/><glyph glyph-name="triangle" unicode="△" horiz-adv-x="425" d="M150 203v231l185-114z"/><glyph glyph-name="lozenge" unicode="◊" d="M248-17L91 307l157 324h74l157-324L322-17h-74zm151 324L285 540 171 307 285 71z"/><glyph glyph-name="circle" unicode="○" horiz-adv-x="610" d="M305 119q-42 0-79.5 16T160 179t-44 65.5-16 79.5 16 79.5 44 65.5 65.5 44 79.5 16 79.5-16 65.5-44 44-65.5 16-79.5-16-79.5-44-65.5-65.5-44-79.5-16z"/><glyph glyph-name="s_t" unicode="ﬆ" horiz-adv-x="841" d="M830 22Q811 9 775-1.5T703-12q-72 0-108 34.5T559 135v528l91 14V514h141v-72H650V147q0-20 3-36t11-26.5 22.5-16T724 63t48 8 41 17zM248 525q46 0 78.5-10.5t55-30 35.5-47 19-61.5l-82-18q-5 22-11.5 39.5t-18.5 30-30.5 19T247 453q-56 0-77.5-21.5T148 381q0-20 7.5-33.5T178 325t36-15 48-12q35-8 68-16.5t58.5-25 41-43T445 144q0-74-53.5-115T244-12q-89 0-141 35.5T39 137l81 22q5-21 13-39t22-31.5 36.5-21T248 60q46 0 76.5 16.5T355 134q0 21-7.5 34.5t-22 22-35.5 14-47 10.5q-32 6-64.5 14.5T119 254t-44 43.5T58 370q0 39 15 68t41 48.5 60.5 29T248 525z"/><glyph glyph-name="hyphen.case" horiz-adv-x="316" d="M20 313v87h271v-87H20z"/><glyph glyph-name="zero.osf" horiz-adv-x="614" d="M304-12q-74 0-122.5 24t-77 65-40 94.5T53 285q0 61 14 115.5t45 95.5 80.5 65T314 585t119.5-23 76-62 40-91.5T561 297q0-62-12.5-118T506 80.5 426.5 13 304-12zm3 76q86 0 122.5 60.5T466 290q0 103-34 159t-120 56q-87 0-125.5-58T148 280q0-49 8.5-89t27-68 49-43.5T307 64z"/><glyph glyph-name="one.osf" horiz-adv-x="407" d="M204 0v449q-12-8-33-13.5t-44-10-44-6.5-33-2l-7 74q69 5 116.5 24t82.5 59h51V0h-89z"/><glyph glyph-name="two.osf" horiz-adv-x="522" d="M269 585q88 0 138.5-42.5T458 416q0-39-10.5-70T416 287.5t-51.5-55T294 174L177 81v-1h290V0H59v75l146 123q43 36 74.5 62.5T331 311t29.5 48 9.5 53q0 53-29 76t-80 23q-36 0-59-9t-37-25.5-21.5-38.5-12.5-48l-81 16q8 50 27 84t47.5 55 65.5 30.5 79 9.5z"/><glyph glyph-name="three.osf" horiz-adv-x="516" d="M110 103q4-24 11-44t21.5-35 37-23.5T238-8q25 0 48 5.5T327 16t28.5 35 10.5 55q0 62-37 88t-99 26h-72v74h45q71 0 113.5 34.5T359 416q0 18-4.5 34.5T338 480t-33 21-53 8-53.5-7-36-20-23.5-32-15-44l-81 18q9 44 29 74.5t48.5 50 63.5 28 74 8.5q93 0 143-41.5T451 427q0-35-11.5-61.5t-30.5-46-43-32-49-19.5v-3q65-10 104-48.5T460 103q0-90-60.5-138T236-83q-42 0-78.5 9.5T93.5-44 48 8 25 85z"/><glyph glyph-name="four.osf" horiz-adv-x="540" d="M344-67V78H21v68l298 428h114V156h85V78h-86V-67h-88zm1 223v329L111 156h234z"/><glyph glyph-name="five.osf" horiz-adv-x="531" d="M89 569h346v-80H161l-19-198q25 19 60 33.5t83 14.5q37 0 71-11.5t59.5-36 41-62T472 140q0-48-15-89t-44-70.5T341.5-66 244-83q-39 0-75.5 9.5T103-44 54 8 27 85l84 23q4-21 12.5-41T147 31t38.5-25.5T244-4q26 0 50.5 7t43 23.5T367 70t11 67q0 61-32.5 93T256 262q-38 0-69.5-15T127 206l-61 28z"/><glyph glyph-name="six.osf" horiz-adv-x="555" d="M424 476q-14 57-42 78t-73 21q-48 0-78.5-22t-48-57.5-25-81T149 323q13 15 31.5 29t41.5 25 49 18 54 7q45 0 79-14.5t57-40.5 34.5-62 11.5-79q0-103-59.5-160.5T284-12q-68 0-111.5 27.5t-68 73-33.5 104T62 313q0 53 10.5 112.5t38.5 109 78 82T318 649q72 0 121-34.5T505 498zM155 247q1-26 5.5-58t19-60 41-47.5T292 62q57 0 91 34.5T417 200q0 62-27.5 94.5T311 327q-49 0-87.5-24T155 247z"/><glyph glyph-name="seven.osf" horiz-adv-x="512" d="M96-67l292 556H43v80h440v-73L193-67H96z"/><glyph glyph-name="eight.osf" horiz-adv-x="528" d="M346 341q31-14 57.5-29.5t46.5-36 31.5-48T493 163q0-42-17.5-75T427 33 352.5-.5 258-12Q147-12 90.5 31.5T34 150q0 67 37.5 108T177 329q-55 23-88.5 60.5T55 484q0 39 16.5 69.5t46.5 52 70.5 33T277 650q97 0 148.5-40.5T477 501q0-29-8.5-52T443 407t-41.5-35-55.5-31zm-96-49q-57-26-91-56.5T125 156q0-46 34.5-70.5T261 61q72 0 105.5 29t33.5 74q0 27-13.5 47t-35 35-48.5 26-53 20zm23 81q24 12 45 25.5t36.5 28.5 25 33 9.5 39q0 39-28.5 59.5T272 579q-59 0-93-20t-34-67q0-23 11-41t29-32.5 41-25.5 47-20z"/><glyph glyph-name="nine.osf" horiz-adv-x="566" d="M140 91q14-57 46.5-79T264-10q51 0 82 23.5t47.5 60 22 81.5 6.5 88q-26-34-73.5-53.5T247 170q-45 0-79 15t-57 42-35 63.5T64 369q0 51 15.5 92t44.5 69.5 70 43.5 92 15q67 0 110-27.5t68-72.5 34.5-103.5T508 265q0-59-9.5-120.5T462 32.5t-76-83T258-83q-38 0-70.5 8.5T129-47 85 .5 60 70zm276 232q-1 25-6 58.5t-20 63-42 50-71 20.5q-57 0-90-34.5T154 377q0-62 26-98t81-36q46 0 86.5 22.5T416 323z"/><glyph glyph-name="dollar.osf" horiz-adv-x="526" d="M382 454q-8 48-28.5 71T298 555V350q33-8 64-19.5t55-30.5 38.5-47.5T470 182q0-75-44-121.5T299 4v-85h-76V3q-37 3-69.5 12.5T96.5 45t-41 52T34 176l80 15q5-29 12.5-50t20.5-36 32.5-23.5T228 70v211q-37 9-68.5 21.5t-54 32-35.5 48T57 452q0 39 12.5 69t35 51.5 53.5 34 67 17.5v79h76v-77q69-7 110-44.5T463 466zm1-283q0 38-21.5 58.5T298 264V72q44 8 64.5 34.5T383 171zM142 465q0-36 20.5-58.5T228 368v187q-42-7-64-31t-22-59z"/><glyph glyph-name="Euro.osf" horiz-adv-x="606" d="M95 411q21 111 89 174.5T362 649q46 0 85-12t68.5-38 47.5-66 22-96l-83-9q-5 36-14 63t-25.5 44.5-42 26T358 570q-29 0-56.5-8t-50-26.5-39.5-49-26-75.5h221l-13-66H178v-51.5l1-21.5h207l-13-66H188q14-69 53.5-104.5T352 66q66 0 100.5 30.5T501 194l79-17q-8-53-30.5-89T495 29.5t-70.5-32T347-12q-59 0-103 16t-74.5 45-48.5 69-27 88H7l12 66h68q-1 10-1 19v37l1 17H28l12 66h55z"/><glyph glyph-name="cent.osf" horiz-adv-x="501" d="M317 630V530q65-8 107.5-48.5T472 366l-83-12q-5 46-23 69.5T313 453V111q38 5 57 28t29 67l77-16q-6-36-20.5-63t-36-46T371 50.5 314 35V-70h-73V33q-47 6-82 26.5t-58 53T66.5 187 55 278q0 111 50.5 173.5T241 528v102h76zM149 289q0-34 4.5-63t15.5-52 29-38.5 45-22.5v338q-20-5-37-16t-30-30.5-20-48-7-67.5z"/><glyph glyph-name="sterling.osf" horiz-adv-x="563" d="M80 75q29 29 46.5 60.5T144 208q0 35-14 66H25v71h76q-12 23-21 48.5T71 455q0 43 16 78.5t45.5 61 71 40T295 649q94 0 146.5-42T507 467l-81-14q-4 29-12 51.5t-23 38-38 23.5-58 8q-58 0-95-28t-37-90q0-32 10.5-58.5T196 345h223v-71H221q12-30 12-62 0-40-15.5-72.5T173 75h173q29 0 48.5 6.5t33 20 21 34.5 12.5 50l80-16q-11-90-57.5-130T349 0H27v75h53z"/><glyph glyph-name="yen.osf" horiz-adv-x="528" d="M314 150V0h-91v150H93v66h130v77H91v66h97L22 632h100l148-253h1l144 253h93L346 359h102v-66H314v-77h134v-66H314z"/><glyph glyph-name="florin.osf" horiz-adv-x="506" d="M213 488q17 82 58 119.5T384 645q112 0 147-106l-76-27q-11 29-26.5 46.5T384 576q-32 0-53-18.5T301 490l-23-114h141l-12-67H266L197-28q-17-82-56.5-119T29-184q-57 0-96 27t-54 78l77 29q11-28 27-45.5T31-113q31 0 49.5 18T109-27l68 336H95l13 67h82z"/><glyph glyph-name="afii61352.osf" horiz-adv-x="1027" d="M469 0L191 507V0h-89v626h122l268-503v503h87V0H469zm335 279q-44 0-75.5 13T677 328t-29.5 55-9.5 70q0 78 43 126t130 48q44 0 75-12.5t50.5-35 28.5-53 9-67.5q0-82-41-131t-129-49zm3 64q43 0 65.5 25.5T895 455q0 57-21.5 84T809 566q-44 0-68.5-26.5T716 454t23-85 68-26zM649 237h316v-72H649v72z"/><glyph glyph-name="percent.osf" horiz-adv-x="865" d="M195 258q-45 0-75.5 14.5T70 311t-27 56-8 67q0 41 10.5 75.5t31.5 59 52.5 38.5 73.5 14 72-12.5 49-35 28-55 9-71.5q0-84-42-136.5T195 258zm3 65q25 0 41 9t25.5 24.5T278 394t4 49q0 25-3.5 46t-13 36-25 23.5T201 557q-25 0-41.5-10T133 521t-14-37.5-4-43.5q0-26 4-47.5t13.5-37 25.5-24 40-8.5zm75-340h-74l372 638h76zm381 5q-45 0-75.5 14.5T529 41t-27 56-8 67q0 41 10.5 75.5t31.5 59 52.5 38.5 73.5 14 72-12.5 49-35 28-55 9-71.5q0-84-42-136.5T654-12zm3 65q25 0 41 9t25.5 24.5T737 124t4 49q0 25-3.5 46t-13 36-25 23.5T660 287q-25 0-41.5-10T592 251t-14-37.5-4-43.5q0-26 4-47.5t13.5-37 25.5-24 40-8.5z"/><glyph glyph-name="perthousand.osf" horiz-adv-x="1078" d="M185 295q-40 0-67 12.5t-43.5 34-23.5 50-7 61.5q0 76 37.5 121.5T192 620q75 0 108-43t33-115q0-77-37.5-122T185 295zm4 59q41 0 56 28.5t15 76.5q0 44-14.5 72.5T191 560q-21 0-34.5-8.5t-22-23-12-33T119 457q0-45 14.5-74t55.5-29zM558-12q-40 0-67 12.5t-43.5 34-23.5 50-7 61.5q0 76 37.5 121.5T565 313q75 0 108-43t33-115q0-77-37.5-122T558-12zm4 59q41 0 56 28.5t15 76.5q0 44-14.5 72.5T564 253q-21 0-34.5-8.5t-22-23-12-33T492 150q0-45 14.5-74T562 47zm323-59q-40 0-67 12.5t-43.5 34-23.5 50-7 61.5q0 76 37.5 121.5T892 313q75 0 108-43t33-115q0-77-37.5-122T885-12zm4 59q41 0 56 28.5t15 76.5q0 44-14.5 72.5T891 253q-21 0-34.5-8.5t-22-23-12-33T819 150q0-45 14.5-74T889 47zM222-17h-74l372 638h76z"/><glyph glyph-name="zero.slash" d="M282-12q-74 0-120 28T90.5 94 56 212t-9 149q0 80 11 149t39 119.5 75.5 79T293 737q74 0 119-28.5t70-78T515 515t8-142q0-85-10-155.5T476.5 96 403 16.5 282-12zM138 358q0-79 8-142t34-101l158 537q-22 8-48 8-47 0-76.5-21t-46-60-23-95-6.5-126zM286 63q46 0 74.5 21.5T405 146t21.5 96 5.5 124q0 80-7.5 141.5T393 607L235 71q24-8 51-8z"/><glyph glyph-name="zero.tf" d="M282-12q-74 0-120 28T90.5 94 56 212t-9 149q0 80 11 149t39 119.5 75.5 79T293 737q74 0 119-28.5t70-78T515 515t8-142q0-85-10-155.5T476.5 96 403 16.5 282-12zm4 75q46 0 74.5 21.5T405 146t21.5 96 5.5 124q0 67-5 121t-20 92.5-43 59.5-74 21q-47 0-76.5-21t-46-60-23-95-6.5-126q0-65 5-119t20.5-93 45-61T286 63z"/><glyph glyph-name="one.tf" d="M125 80h141v519q-13-8-34-14t-44-10-44-6.5-33-2.5l-7 74q70 6 117.5 25t82.5 59h52V80h128V0H125v80z"/><glyph glyph-name="two.tf" d="M281 737q90 0 144-44t54-136q0-41-10.5-77T438 408.5t-49.5-73T322 254L175 82v-2h314V0H69v76l170 205q38 45 65.5 80.5T350 428t27 60.5 9 64.5q0 58-30.5 82.5T272 660q-35 0-58-9t-37-25-21.5-38.5T144 539l-83 15q7 49 26 84t48 57 66 32 80 10z"/><glyph glyph-name="three.tf" d="M128 174q5-23 12-43t20.5-34.5 36-22.5 58.5-8q27 0 52 8t44 24.5 30 43 11 64.5q0 39-11 65t-31 42-48 23-62 7h-65v77h46q76 0 118.5 36.5T382 553q0 22-5.5 42t-19 34.5-35.5 23-54 8.5-53.5-7-35.5-20-23-32-16-44l-81 18q9 45 29.5 76t49 50 64.5 27 76 8q96 0 145.5-46.5T473 566q0-41-13-71t-33.5-51-45.5-34-49-19v-3q71-13 112.5-56.5T486 204q0-49-16.5-88.5t-47-68-73.5-44T253-12q-42 0-78.5 9.5t-64 29.5T65 79t-23 77z"/><glyph glyph-name="four.tf" d="M364 0v178H36v68l303 478h114V256h83v-78h-84V0h-88zm0 256v380L122 256h242z"/><glyph glyph-name="five.tf" d="M116 724h346v-80H187l-21-233q25 20 59.5 34.5T308 460q37 0 72.5-11t63-36.5 44.5-68T505 239q0-56-16.5-102t-48-79-76-51.5T263-12q-39 0-75 9.5T123 27 74 79.5 47 157l85 21q4-21 12-41t23-35.5 38.5-25T264 67q27 0 53 9t47 29.5 33.5 52.5 12.5 78q0 40-10 67.5t-27.5 45T331 374t-52 8q-38 0-70.5-15T150 327l-62 28z"/><glyph glyph-name="six.tf" d="M427 561q-7 30-17 50t-24 31-31 15.5-37 4.5q-50 0-82.5-28t-52-71.5-27-96.5-8.5-102q13 14 31.5 28t42 25 50 17.5T326 441q95 0 143.5-57T518 233q0-59-16.5-105t-46-77-71-47T292-12q-71 0-116 28.5T105 93 69.5 204.5 60 339q0 40 4.5 85.5t16 89.5 31 84.5 49 71.5 70.5 49 96 18q35 0 65-8t53-26 39.5-47.5T509 583zM153 286q2-41 8.5-81t21.5-72 42-51.5T295 62q57 0 94 40.5T426 226q0 138-118 138-22 0-44-6.5T222 340t-37.5-25-31.5-29z"/><glyph glyph-name="seven.tf" d="M121 0l296 644H57v80h456v-70L218 0h-97z"/><glyph glyph-name="eight.tf" d="M367 383q32-14 59.5-30.5t48-39 32-53.5 11.5-73-16.5-78.5-48-63.5-76-42T278-12q-60 0-103.5 14.5t-71.5 40-41.5 59T48 174q0 37 11.5 67T91 295t48 42.5 61 33.5q-27 12-50 29t-40.5 38.5T82 487t-10 60q0 48 17 83.5t47 59 71 35.5 89 12q99 0 154-44t55-122q0-66-37.5-110.5T367 383zm-97-50q-27-13-50.5-27t-41-32-27.5-41-10-53q0-25 7.5-46t24-36.5 43.5-24 65-8.5q39 0 66 10t44 27 24.5 39 7.5 46q0 31-14 54.5T373 282t-49.5 29-53.5 22zm22 83q53 27 87 64.5t34 85.5q0 47-29 71.5T291 662q-59 0-92.5-26.5T165 560q0-28 11-49.5t29-38.5 40.5-30.5T292 416z"/><glyph glyph-name="nine.tf" d="M133 170q14-60 45.5-83.5T259 63q46 0 77.5 23.5t50 63.5 27 92.5T423 353q-13-14-31.5-28T350 300.5t-50-17-55-6.5q-96 0-143.5 58T54 493q0 59 17 104.5t47.5 76.5 72.5 47 93 16q70 0 114.5-28.5T468 632t34-111.5 9-134.5q0-72-10-143t-37.5-127.5-78-92T254-12q-38 0-71.5 8.5t-60 27-45 48.5T51 146zm285 262q-2 41-7.5 82T390 588t-41.5 53.5T277 662q-57 0-94.5-40T145 496q0-70 29-106.5t89-36.5q45 0 86 23t69 56z"/><glyph glyph-name="dollar.tf" d="M412 517q-8 44-27.5 74.5T322 631V391q37-10 70-23.5t58-35.5 39.5-54.5T504 198q0-85-49-133.5T323 5v-86h-75V4q-38 3-72 13.5T116 50t-43.5 57T49 195l83 17q6-32 14-55.5t21.5-40.5 34-26.5T252 77v241q-34 9-66 22t-57 35-40 55-15 82q0 43 13.5 77t37 58 55.5 38.5 69 19.5v87h76v-84q72-7 116-48.5T496 530zm2-327q0 25-7 42.5T387.5 263 358 284.5 322 299V79q41 8 66.5 34t25.5 77zM164 524q0-41 19.5-68t68.5-45v220q-51-10-69.5-41T164 524z"/><glyph glyph-name="Euro.tf" d="M316-12q-50 0-93.5 13.5t-78 44-58 80.5T54 250h-81l11 68h64v56.5l1 22.5H-6l11 68h51q11 74 37 126t63 84.5 82 47 95 14.5q46 0 85-12.5t68-38.5 46.5-67 21.5-99l-83-8q-5 39-14 66.5t-25.5 45-41 25.5-59.5 8q-44 0-75.5-13.5t-53.5-39-35.5-61T147 465h225l-12-68H140v-61l1-18h210l-12-68H146q14-92 55.5-137.5T322 67q66 0 101 31.5T472 199l78-18q-8-55-31-92t-55.5-59.5-70.5-32-77-9.5z"/><glyph glyph-name="cent.tf" d="M336 700V600q65-8 107.5-48.5T491 436l-83-12q-5 46-23 69.5T332 523V181q38 5 57 28t29 67l77-16q-6-36-20.5-63t-36-46-48.5-30.5-57-15.5V0h-73v103q-47 6-82 26.5t-58 53T85.5 257 74 348q0 111 50.5 173.5T260 598v102h76zM168 359q0-34 4.5-63t15.5-52 29-38.5 45-22.5v338q-20-5-37-16t-30-30.5-20-48-7-67.5z"/><glyph glyph-name="sterling.tf" d="M80 75q83 75 83 159 0 42-23 88H36v74h77q-13 23-29 59t-16 83q0 44 17 80.5t47 63 72 41 92 14.5q94 0 147-42t65-142l-82-11q-4 29-12 51.5t-23 38-38.5 23.5-58.5 8q-61 0-99-29t-38-86q0-24 5-45.5t12.5-40.5 15.5-35.5 15-30.5h226v-74H230q19-42 19-86 0-89-74-161h173q29 0 49 6.5t33 20 21 34.5 13 50l80-16q-11-91-57.5-130.5T352 0H26v75h54z"/><glyph glyph-name="yen.tf" d="M329 200V0h-91v200H106v69h132v87H106v68h96L37 724h100l149-279h1l143 279h93L362 424h101v-68H329v-87h134v-69H329z"/><glyph glyph-name="florin.tf" d="M502 600q-11 29-27 47t-45 18q-31 0-52-18t-30-66l-26-136h141l-12-69H310L229-24q-17-83-56-120T60-181q-55 0-93 27t-54 80l77 30Q1-73 17.5-90.5T66-108q30 0 49 17.5T144-25l79 401h-82l13 69h82l27 134q17 83 57 120.5T434 737q109 0 144-107z"/><glyph glyph-name="zeroslash.tosf" d="M281-12q-74 0-121 24T86 77t-37 94.5T39 285q0 61 12 115.5T92.5 496t78 65T292 585q72 0 118-23t72.5-62 37-91.5T530 297q0-62-11-118t-39.5-98.5T403 13 281-12zM134 280q0-60 12-108t45-76l137 405q-16 4-38 4-44 0-73.5-15.5t-48-44.5-26.5-70.5-8-94.5zM286 64q43 0 71.5 15.5T403 124t24.5 71 7.5 95q0 61-11 106.5T384 469L249 68q15-4 37-4z"/><glyph glyph-name="zero.tosf" d="M281-12q-74 0-122 24T83 77t-39 94.5T33 285q0 58 13 112.5t43.5 96 80 66.5T292 585q72 0 119-23t74.5-62 39-91.5T536 297q0-62-12-118t-41.5-98.5T404 13 281-12zm4 76q43 0 72.5 15.5t48 45 27 71T441 290q0 51-7.5 91t-25 67.5-46.5 42-72 14.5q-87 0-124-57.5T129 280q0-49 8-89t26.5-68 48-43.5T285 64z"/><glyph glyph-name="one.tosf" d="M126 80h146v369q-12-8-33-13.5t-44-10-44-6.5-33-2l-7 74q69 5 116.5 24t82.5 59h51V80h126V0H126v80z"/><glyph glyph-name="two.tosf" d="M296 585q88 0 138.5-42.5T485 416q0-39-10.5-70T443 287.5t-51.5-55T321 174L204 81v-1h290V0H86v75l146 123q43 36 74.5 62.5T358 311t29.5 48 9.5 53q0 53-29 76t-80 23q-36 0-59-9t-37-25.5-21.5-38.5-12.5-48l-81 16q8 50 27 84t47.5 55 65.5 30.5 79 9.5z"/><glyph glyph-name="three.tosf" d="M148 103q4-24 11-44t21.5-35 37-23.5T276-8q25 0 48 5.5T365 16t28.5 35 10.5 55q0 62-37 88t-99 26h-72v74h45q71 0 113.5 34.5T397 416q0 18-4.5 34.5T376 480t-33 21-53 8-53.5-7-36-20-23.5-32-15-44l-81 18q9 44 29 74.5t48.5 50 63.5 28 74 8.5q93 0 143-41.5T489 427q0-35-11.5-61.5t-30.5-46-43-32-49-19.5v-3q65-10 104-48.5T498 103q0-90-60.5-138T274-83q-42 0-78.5 9.5t-64 29.5T86 8 63 85z"/><glyph glyph-name="four.tosf" d="M365-67V78H46v68l294 428h114V156h83V78h-84V-67h-88zm0 223v331L133 156h232z"/><glyph glyph-name="five.tosf" d="M129 569h346v-80H201l-19-198q25 19 60 33.5t83 14.5q37 0 71-11.5t59.5-36 41-62T512 140q0-48-15-89t-44-70.5T381.5-66 284-83q-39 0-75.5 9.5T143-44 94 8 67 85l84 23q4-21 12.5-41T187 31t38.5-25.5T284-4q26 0 50.5 7t43 23.5T407 70t11 67q0 61-32.5 93T296 262q-38 0-69.5-15T167 206l-61 28z"/><glyph glyph-name="six.tosf" d="M436 476q-14 57-42 78t-73 21q-48 0-78.5-22t-48-57.5-25-81T161 323q13 15 31.5 29t41.5 25 49 18 54 7q45 0 79-14.5t57-40.5 34.5-62 11.5-79q0-103-59.5-160.5T296-12q-68 0-111.5 27.5t-68 73-33.5 104T74 313q0 53 10.5 112.5t38.5 109 78 82T330 649q72 0 121-34.5T517 498zM167 247q1-26 5.5-58t19-60 41-47.5T304 62q57 0 91 34.5T429 200q0 62-27.5 94.5T323 327q-49 0-87.5-24T167 247z"/><glyph glyph-name="seven.tosf" d="M127-67l292 556H74v80h440v-73L224-67h-97z"/><glyph glyph-name="eight.tosf" d="M370 341q31-14 57.5-29.5t46.5-36 31.5-48T517 163q0-42-17.5-75T451 33 376.5-.5 282-12q-111 0-167.5 43.5T58 150q0 67 37.5 108T201 329q-55 23-88.5 60.5T79 484q0 39 16.5 69.5t46.5 52 70.5 33T301 650q97 0 148.5-40.5T501 501q0-29-8.5-52T467 407t-41.5-35-55.5-31zm-96-49q-57-26-91-56.5T149 156q0-46 34.5-70.5T285 61q72 0 105.5 29t33.5 74q0 27-13.5 47t-35 35-48.5 26-53 20zm23 81q24 12 45 25.5t36.5 28.5 25 33 9.5 39q0 39-28.5 59.5T296 579q-59 0-93-20t-34-67q0-23 11-41t29-32.5 41-25.5 47-20z"/><glyph glyph-name="nine.tosf" d="M132 91q14-57 46.5-79T256-10q51 0 82 23.5t47.5 60 22 81.5 6.5 88q-26-34-73.5-53.5T239 170q-45 0-79 15t-57 42-35 63.5T56 369q0 51 15.5 92t44.5 69.5 70 43.5 92 15q67 0 110-27.5t68-72.5 34.5-103.5T500 265q0-59-9.5-120.5T454 32.5t-76-83T250-83q-38 0-70.5 8.5T121-47 77 .5 52 70zm276 232q-1 25-6 58.5t-20 63-42 50-71 20.5q-57 0-90-34.5T146 377q0-62 26-98t81-36q46 0 86.5 22.5T408 323z"/><glyph glyph-name="dollar.tosf" d="M401 454q-8 48-28.5 71T317 555V350q33-8 64-19.5t55-30.5 38.5-47.5T489 182q0-75-44-121.5T318 4v-85h-76V3q-37 3-69.5 12.5t-57 29.5-41 52T53 176l80 15q5-29 12.5-50t20.5-36 32.5-23.5T247 70v211q-37 9-68.5 21.5t-54 32-35.5 48T76 452q0 39 12.5 69t35 51.5 53.5 34 67 17.5v79h76v-77q69-7 110-44.5T482 466zm1-283q0 38-21.5 58.5T317 264V72q44 8 64.5 34.5T402 171zM161 465q0-36 20.5-58.5T247 368v187q-42-7-64-31t-22-59z"/><glyph glyph-name="Euro.tosf" d="M62 404q20 115 88 180t177 65q46 0 84.5-12t67.5-38 46.5-66 21.5-96l-83-9q-5 36-13.5 62.5T426 535t-41 26.5-62 8.5q-68 0-112-39t-58-127h223l-12-61H147v-48l1-20h210l-12-61H155q13-72 50-110t112-38q66 0 99.5 30.5T464 194l79-17q-8-53-30.5-89t-54-58.5-69-32T313-12q-111 0-172.5 57.5T62 214h-82l11 61h65q-1 9-1 18.5V343H-2l11 61h53z"/><glyph glyph-name="cent.tosf" d="M345 630V530q65-8 107.5-48.5T500 366l-83-12q-5 46-23 69.5T341 453V111q38 5 57 28t29 67l77-16q-6-36-20.5-63t-36-46T399 50.5 342 35V-70h-73V33q-47 6-82 26.5t-58 53T94.5 187 83 278q0 111 50.5 173.5T269 528v102h76zM177 289q0-34 4.5-63t15.5-52 29-38.5 45-22.5v338q-20-5-37-16t-30-30.5-20-48-7-67.5z"/><glyph glyph-name="sterling.tosf" d="M87 75q29 29 46.5 60.5T151 208q0 35-14 66H32v71h76q-12 23-21 48.5T78 455q0 43 16 78.5t45.5 61 71 40T302 649q94 0 146.5-42T514 467l-81-14q-4 29-12 51.5t-23 38-38 23.5-58 8q-58 0-95-28t-37-90q0-32 10.5-58.5T203 345h223v-71H228q12-30 12-62 0-40-15.5-72.5T180 75h173q29 0 48.5 6.5t33 20 21 34.5 12.5 50l80-16q-11-90-57.5-130T356 0H34v75h53z"/><glyph glyph-name="yen.tosf" d="M343 150V0h-91v150H122v66h130v77H120v66h97L51 632h100l148-253h1l144 253h93L375 359h102v-66H343v-77h134v-66H343z"/><glyph glyph-name="florin.tosf" d="M271 488q17 82 58 119.5T442 645q112 0 147-106l-76-27q-11 29-26.5 46.5T442 576q-32 0-53-18.5T359 490l-23-114h141l-12-67H324L255-28q-17-82-56.5-119T87-184q-57 0-96 27t-54 78l77 29q11-28 27-45.5T89-113q31 0 49.5 18T167-27l68 336h-82l13 67h82z"/><glyph glyph-name="idotaccent" horiz-adv-x="249" d="M172 0H81v514h91V0zm21 679q0-32-17-49t-48-17-47.5 17T64 679q0 65 64 65 31 0 48-16.5t17-48.5z"/><glyph glyph-name="s_p" horiz-adv-x="1050" d="M550 514h79l5-59q35 32 79 51t99 19q40 0 74.5-13.5t60-43.5 39.5-79 14-120q0-75-17.5-128.5T936 53 868 3.5 786-12q-47 0-83.5 14.5T638 38v-250h-88v726zm91-398q8-6 21.5-15T693 84t37.5-13.5T773 65q37 0 62.5 14.5T877 121t23 65 7 84q0 97-30 138t-92 41q-21 0-42-6t-40-15.5-35-21-27-22.5V116zM248 525q46 0 78.5-10.5t55-30 35.5-47 19-61.5l-82-18q-5 22-11.5 39.5t-18.5 30-30.5 19T247 453q-56 0-77.5-21.5T148 381q0-20 7.5-33.5T178 325t36-15 48-12q35-8 68-16.5t58.5-25 41-43T445 144q0-74-53.5-115T244-12q-89 0-141 35.5T39 137l81 22q5-21 13-39t22-31.5 36.5-21T248 60q46 0 76.5 16.5T355 134q0 21-7.5 34.5t-22 22-35.5 14-47 10.5q-32 6-64.5 14.5T119 254t-44 43.5T58 370q0 39 15 68t41 48.5 60.5 29T248 525z"/><glyph glyph-name="c_t" horiz-adv-x="893" d="M285-12q-64 0-108.5 19.5t-73 54.5T62 145.5 49 252q0 135 65.5 204T298 525q40 0 75-11t60.5-33.5 41-56T493 346l-87-12q-6 57-32.5 86T293 449q-28 0-54.5-8.5T191 411t-34-57-13-91q0-57 12-95t32.5-60.5 47-32T291 66q53 0 84 25.5t41 82.5l80-17q-6-45-25.5-77t-48-52.5-63.5-30-74-9.5zm597 34Q863 9 827-1.5T755-12q-72 0-108 34.5T611 135v528l91 14V514h141v-72H702V147q0-20 3-36t11-26.5 22.5-16T776 63t48 8 41 17z"/><glyph glyph-name="c_h" horiz-adv-x="1105" d="M1031 0h-91v335q0 54-21.5 82T844 445q-22 0-44.5-6.5T757 423t-36.5-20-26.5-20V0h-91v755h90V456q38 29 82.5 49t98.5 20q82 0 119.5-44t37.5-132V0zM285-12q-64 0-108.5 19.5t-73 54.5T62 145.5 49 252q0 135 65 204t181 69q86 0 139.5-45T493 346l-87-12q-6 57-33.5 86T291 449q-28 0-54.5-8.5t-47-29.5-33-57-12.5-91q0-57 11-95.5t30.5-61.5T231 73.5t57-9.5q53 0 85.5 26.5T416 174l80-17q-6-45-25.5-77t-48-52.5-63.5-30-74-9.5z"/><glyph glyph-name="c_k" horiz-adv-x="1052" d="M285-12q-64 0-108.5 19.5t-73 54.5T62 145.5 49 252q0 135 65 204t181 69q86 0 139.5-45T493 346l-87-12q-6 57-33.5 86T291 449q-28 0-54.5-8.5t-47-29.5-33-57-12.5-91q0-57 11-95.5t30.5-61.5T231 73.5t57-9.5q53 0 85.5 26.5T416 174l80-17q-6-45-25.5-77t-48-52.5-63.5-30-74-9.5zm408 300l221 226h103L839 329 1030 0H930L772 265l-79-78V0h-91v755h91V288z"/><glyph glyph-name="T_h" horiz-adv-x="1039" d="M964 0h-91v335q0 54-21 82t-74 28q-23 0-45-6.5T690.5 423t-37-20-26.5-20V0h-91v644H324V0h-92v644H13v80h523v31h91V458q38 29 82 48t98 19q83 0 120-44t37-132V0z"/><glyph glyph-name="commaaccent" horiz-adv-x="500" d="M211-69h97l-68-174-68 10z"/><glyph glyph-name="revcommaaccent" horiz-adv-x="500" d="M294 570h-97l68 174 68-10z"/><glyph glyph-name="caron.alt" horiz-adv-x="500" d="M220 755h95l-62-199-66 8z"/><glyph glyph-name="tilde.cap" horiz-adv-x="500" d="M175 904q24 0 44-7t38-15.5 35-15.5 34-7q19 0 28.5 9.5T364 910l55-3q8-62-17.5-91.5T335 786q-24 0-44.5 7t-39 16-36 16-34.5 7q-16 0-26.5-11t-8.5-43l-56 3q-4 32 1.5 55t17.5 38 29.5 22.5T175 904z"/><glyph glyph-name="ring.cap" horiz-adv-x="500" d="M358 833q0-49-29.5-75.5T250 731q-48 0-77 25.5T144 828q0 53 31.5 79t74.5 26q45 0 76.5-24.5T358 833zm-108-52q25 0 37.5 14t12.5 39q0 48-50 48-22 0-36.5-12.5T199 831q0-50 51-50z"/><glyph glyph-name="circumflex.cap" horiz-adv-x="500" d="M251 847l-84-80-70 9 116 129h79l114-129-70-7z"/><glyph glyph-name="acute.cap" horiz-adv-x="500" d="M245 767l-69 12 99 134h110z"/><glyph glyph-name="grave.cap" horiz-adv-x="500" d="M121 913h110l99-134-69-12z"/><glyph glyph-name="dieresis.cap" horiz-adv-x="500" d="M209 841q0-29-17-45t-45-16q-29 0-46.5 16T83 841t17.5 45.5T147 903q28 0 45-16.5t17-45.5zm210 0q0-29-17-45t-46-16-46 16-17 45 17 45.5 46 16.5 46-16.5 17-45.5z"/><glyph glyph-name="caron.cap" horiz-adv-x="500" d="M250 828l84 80 70-9-116-129h-79L95 899l70 7z"/><glyph glyph-name="macron.cap" horiz-adv-x="500" d="M97 793v71h307v-71H97z"/><glyph glyph-name="dotaccent.cap" horiz-adv-x="500" d="M314 845q0-31-16.5-48T250 780t-48 17-17 48q0 32 17 49t48 17 47.5-17 16.5-49z"/><glyph glyph-name="cedilla.cap" horiz-adv-x="500" d="M167-161q9-5 23.5-10t30.5-5q25 0 37.5 12.5T271-131q0 25-17 35.5T198-84l15 114 58-8-9-66q31-6 55-25.5t24-62.5q0-47-31.5-73.5T231-232q-27 0-46.5 6T153-213z"/><glyph glyph-name="hungarumlaut.cap" horiz-adv-x="500" d="M208 767l-66 13 66 133h107zm129 0l-68 12 99 138h110z"/><glyph glyph-name="commaaccent.cap" horiz-adv-x="500" d="M211-69h97l-68-174-68 10z"/><glyph glyph-name="breve.cap" horiz-adv-x="500" d="M252 842q35 0 56 15t29 57l66-6q-7-64-46-97t-108-33q-66 0-101.5 31.5T106 907l67 7q8-41 26-56.5t53-15.5z"/><glyph glyph-name="ogonek.cap" horiz-adv-x="500" d="M369-147q-17-41-50-61t-68-20q-45 0-72.5 23T151-139q0 27 11 50.5T189.5-45 226-8.5 264 22l57-15q-40-37-66-66t-26-65q0-38 38-38 32 0 54 39z"/><glyph glyph-name="hyphensuperior" horiz-adv-x="218" d="M20 501v69h173v-69H20z"/><glyph glyph-name="commasuperior" horiz-adv-x="186" d="M52 426h86L78 270l-65 6z"/><glyph glyph-name="periodsuperior" horiz-adv-x="197" d="M152 391q0-49-53-49-54 0-54 49 0 50 54 50 53 0 53-50z"/><glyph glyph-name="a.sup" horiz-adv-x="378" d="M316 418q0-14 4-19.5t17-5.5q8 0 20 3l3-41q-10-5-24.5-8t-28.5-3q-28 0-41.5 12.5T249 384q-20-19-46.5-30.5T139 342q-32 0-52 9.5t-31 23T41 404t-4 28q0 32 13 53.5T84.5 520t51 18.5T198 546h23l21-2v28q0 30-11.5 47T181 636q-32 0-46.5-12.5T115 584l-64 12q8 47 40.5 70t95.5 23q66 0 97.5-26t31.5-89V418zm-73 79q-6 1-12.5 1.5t-15.5.5q-18 0-36-2t-32.5-7.5T123 473t-9-30 10-33 42-14q23 0 44 10t33 22v69z"/><glyph glyph-name="b.sup" horiz-adv-x="401" d="M54 350v486h74V651q42 38 112 38 27 0 50-8.5t40-28 26.5-51T366 524q0-49-11.5-83.5t-31-56.5-45.5-32-56-10q-32 0-56.5 9.5T124 376h-2l-4-26H54zm74 81q11-8 32-19t47-11q44 0 62.5 32.5T288 524q0 53-17 80t-58 27q-24 0-47.5-11.5T128 594V431z"/><glyph glyph-name="c.sup" horiz-adv-x="371" d="M195 342q-42 0-72.5 12.5t-50 35-29 54T34 512q0 88 45 132.5T205 689q57 0 94-29.5t41-88.5l-71-9q-4 33-18.5 50.5T201 630q-17 0-32.5-4.5t-28-16.5-20-33.5T113 520t6.5-56.5 18.5-36 27.5-19T199 403q32 0 51.5 16t25.5 51l66-12q-4-30-17-52t-32.5-36-44.5-21-53-7z"/><glyph glyph-name="d.sup" horiz-adv-x="398" d="M347 350h-63l-5 32h-1q-20-19-47-29.5T169 342q-60 0-97 39T35 511q0 49 12.5 83T80 649t46.5 30.5T181 689q60 0 93-27v174h73V350zm-75 255q-11 8-30.5 17t-44.5 9q-47 0-65.5-32.5T113 512q0-57 18.5-85t60.5-28q23 0 44.5 11t35.5 25v170z"/><glyph glyph-name="e.sup" horiz-adv-x="375" d="M197 342q-47 0-78 14.5T69 395t-27 55.5-8 65.5q0 45 13 78t35.5 54 51.5 31 62 10q39 0 66-12t44.5-32.5T332 596t8-60v-19l-2-20H114q0-28 6.5-46t18-28.5 27-15T201 403q32 0 49 15t23 41l64-14q-10-48-47-75.5T197 342zm65 207q3 83-68 83-35 0-56-20t-23-63h147z"/><glyph glyph-name="f.sup" horiz-adv-x="238" d="M239 779q-10 4-23 6.5t-24 2.5q-24 0-39-11t-15-46v-48h94v-54h-94V350H63v279H13v54h50v48q0 57 29.5 84.5T174 843q24 0 41.5-3.5T242 831z"/><glyph glyph-name="g.sup" horiz-adv-x="381" d="M186 689q30 0 55-6t42-20q8 20 22.5 32.5T340 708q15 0 33-5v-53q-16 2-35 0t-33-7q14-14 20.5-33t6.5-39q0-57-40.5-88.5T188 451q-17 0-30.5 1.5T130 459q-6-6-12.5-13t-6.5-16 8-14.5 32-7.5l95-8q27-2 48-6.5t36-14.5 22.5-25.5T360 313q0-31-15-52t-39.5-33.5-57-18T182 204q-48 0-79 6.5t-48.5 18-24.5 26-7 30.5q0 27 16.5 46T80 358v1q-17 5-28 16.5T41 406q0 23 14 38.5T88 474q-24 13-37 38t-13 57q0 29 12 51.5T82.5 658t47.5 23 56 8zm76-118q0 34-19.5 49.5T188 636q-33 0-55.5-15T110 571q0-30 18-48t59-18q35 0 55 17.5t20 48.5zm24-269q0 15-10.5 24T232 337l-105 7q-14-9-24-20t-10-26q0-20 22.5-29t72.5-9q47 0 72.5 9t25.5 33z"/><glyph glyph-name="h.sup" horiz-adv-x="399" d="M350 350h-75v215q0 32-13 48.5T217 630q-26 0-51-12.5T129 594V350H53v486h75V648q23 18 51.5 29.5T244 689q56 0 81-28t25-85V350z"/><glyph glyph-name="i.sup" horiz-adv-x="181" d="M129 350H54v333h75V350zm13 437q0-22-13.5-34.5T92 740q-24 0-36.5 12.5T43 787q0 48 49 48 23 0 36.5-12.5T142 787z"/><glyph glyph-name="j.sup" horiz-adv-x="180" d="M22 206q-20 0-40.5 5T-49 221l7 56q10-4 24-7.5t28-3.5q20 0 32 11t12 41v365h76V312q0-56-29-81t-79-25zm121 586q0-23-13.5-35.5T93 744q-24 0-37 12.5T43 792q0 22 13 34.5T93 839q23 0 36.5-12.5T143 792z"/><glyph glyph-name="k.sup" horiz-adv-x="373" d="M129 546l135 137h85L232 563l126-213h-83L175 515l-46-44V350H54v486h75V546z"/><glyph glyph-name="l.sup" horiz-adv-x="181" d="M130 350H54v486h76V350z"/><glyph glyph-name="m.sup" horiz-adv-x="586" d="M129 350H53v333h65l4-35q23 18 50.5 29.5T234 689q33 0 55-10t33-33q23 19 51 31t64 12q54 0 77-28t23-84V350h-76v217q0 30-9.5 46.5T413 630q-21 0-44-11t-36-22q0-8 .5-17t.5-18V350h-76v217q0 30-9 46.5T211 630q-23 0-46.5-12T129 595V350z"/><glyph glyph-name="n.sup" horiz-adv-x="399" d="M350 350h-75v215q0 32-13 48.5T217 630q-26 0-51-12.5T129 594V350H53v333h67l4-37q23 19 53.5 31t65.5 12q57 0 82-28t25-85V350z"/><glyph glyph-name="o.sup" horiz-adv-x="399" d="M197 342q-46 0-77 13t-50 36.5-27.5 55T34 515q0 81 43 127.5T206 689q42 0 72.5-12t49.5-34 28-52.5 9-67.5q0-83-39.5-132T197 342zm3 62q40 0 63 25t23 90q0 62-21 86.5T203 630q-42 0-66-25.5T113 517q0-61 21-87t66-26z"/><glyph glyph-name="p.sup" horiz-adv-x="401" d="M54 683h65l4-37q23 20 52 31.5t63 11.5q27 0 50.5-8.5t41-28 27-51T366 524q0-49-11.5-83.5t-31-56.5-45.5-32-55-10q-32 0-55.5 8T127 372V213H54v470zm74-252q11-8 32-19t47-11q44 0 62 33t18 90q0 58-18 82.5T214 631q-25 0-48.5-11.5T128 594V431z"/><glyph glyph-name="q.sup" horiz-adv-x="398" d="M347 213h-72v167q-19-16-46-27t-62-11q-59 0-95.5 39T35 511q0 49 12.5 83T80 649t46.5 30.5T181 689q30 0 54-9.5t42-26.5l6 30h64V213zm-75 390q-11 8-31.5 18T195 631q-45 0-63.5-32.5T113 512q0-55 18.5-83.5T192 400q23 0 44.5 10.5T272 435v168z"/><glyph glyph-name="r.sup" horiz-adv-x="261" d="M249 617q-32 4-65-5.5T129 583V350H53v333h64l6-50q21 28 48 42.5t65 13.5h13v-72z"/><glyph glyph-name="s.sup" horiz-adv-x="338" d="M172 689q61 0 91-24.5t40-69.5l-64-15q-6 24-19.5 39T172 634q-35 0-47.5-11T112 595q0-24 21-32t55-16q22-5 44-10.5t39-16 27.5-28T309 447q0-51-37.5-78.5T171 341q-124 0-144 94l64 19q7-24 22.5-40.5T171 397q29 0 46.5 9.5T235 439q0 24-19 31.5T163 485q-21 4-42.5 9.5t-39.5 16T52 539t-11 48q0 26 10.5 45T80 664t41.5 19 50.5 6z"/><glyph glyph-name="t.sup" horiz-adv-x="271" d="M260 365q-13-8-38-15.5t-53-7.5q-51 0-77 23.5T66 441v187H14v55h52v97l76 9V683h94v-55h-94V454q0-26 9-39t38-13q15 0 31 5t27 11z"/><glyph glyph-name="u.sup" horiz-adv-x="398" d="M52 683h76V468q0-32 11.5-48.5T183 403q26 0 50.5 12.5T270 439v244h76V350h-65l-6 37q-23-20-51-32t-63-12Q52 343 52 456v227z"/><glyph glyph-name="v.sup" horiz-adv-x="355" d="M135 350L6 683h82l91-263h2l90 263h77L221 350h-86z"/><glyph glyph-name="w.sup" horiz-adv-x="530" d="M112 350L6 683h77l75-259h1l71 259h76l70-258 75 258h72L418 350h-87l-66 248-63-248h-90z"/><glyph glyph-name="x.sup" horiz-adv-x="348" d="M216 522l119-172h-81l-83 122-81-122H15l115 170L14 683h82l79-116 81 116h74z"/><glyph glyph-name="y.sup" horiz-adv-x="344" d="M8 683h82l84-255h1l86 255h77L202 329q-13-34-25.5-57.5t-27-38-33-21T73 206q-20 0-39 4t-30 9l8 54q11-3 26-6t28-3q23 0 39 17t31 64z"/><glyph glyph-name="z.sup" horiz-adv-x="319" d="M107 409h188v-59H24v52l182 224H27v57h262v-52z"/><glyph glyph-name="hypheninferior" horiz-adv-x="218" d="M20 5v69h173V5H20z"/><glyph glyph-name="commainferior" horiz-adv-x="186" d="M52-70h86L78-226l-65 6z"/><glyph glyph-name="periodinferior" horiz-adv-x="197" d="M152-105q0-49-53-49-54 0-54 49 0 50 54 50 53 0 53-50z"/><glyph glyph-name="minusinferior" horiz-adv-x="437" d="M97 41v65h244V41H97z"/><glyph glyph-name="plusinferior" horiz-adv-x="437" d="M184-50v91H95v65h89v88h68v-88h89V41h-89v-91h-68z"/><glyph glyph-name="equalinferior" horiz-adv-x="440" d="M98-37v66h244v-66H98zm0 114v66h244V77H98z"/><glyph glyph-name="a.sinf" horiz-adv-x="378" d="M316-78q0-14 4-19.5t17-5.5q8 0 20 3l3-41q-10-5-24.5-8t-28.5-3q-28 0-41.5 12.5T249-112q-20-19-46.5-30.5T139-154q-32 0-52 9.5t-31 23T41-92t-4 28q0 32 13 53.5T84.5 24t51 18.5T198 50h23l21-2v28q0 30-11.5 47T181 140q-32 0-46.5-12.5T115 88l-64 12q8 47 40.5 70t95.5 23q66 0 97.5-26T316 78V-78zM243 1q-6 1-12.5 1.5T215 3q-18 0-36-2t-32.5-7.5T123-23t-9-30 10-33 42-14q23 0 44 10t33 22V1z"/><glyph glyph-name="b.sinf" horiz-adv-x="401" d="M54-146v486h74V155q42 38 112 38 27 0 50-8.5t40-28 26.5-51T366 28q0-49-11.5-83.5t-31-56.5-45.5-32-56-10q-32 0-56.5 9.5T124-120h-2l-4-26H54zm74 81q11-8 32-19t47-11q44 0 62.5 32.5T288 28q0 53-17 80t-58 27q-24 0-47.5-11.5T128 98V-65z"/><glyph glyph-name="c.sinf" horiz-adv-x="371" d="M195-154q-42 0-72.5 12.5t-50 35-29 54T34 16q0 88 45 132.5T205 193q57 0 94-29.5T340 75l-71-9q-4 33-18.5 50.5T201 134q-17 0-32.5-4.5t-28-16.5-20-33.5T113 24t6.5-56.5 18.5-36 27.5-19T199-93q32 0 51.5 16T276-26l66-12q-4-30-17-52t-32.5-36-44.5-21-53-7z"/><glyph glyph-name="d.sinf" horiz-adv-x="398" d="M347-146h-63l-5 32h-1q-20-19-47-29.5T169-154q-60 0-97 39T35 15q0 49 12.5 83T80 153t46.5 30.5T181 193q60 0 93-27v174h73v-486zm-75 255q-11 8-30.5 17t-44.5 9q-47 0-65.5-32.5T113 16q0-57 18.5-85T192-97q23 0 44.5 11T272-61v170z"/><glyph glyph-name="e.sinf" horiz-adv-x="375" d="M197-154q-47 0-78 14.5T69-101 42-45.5 34 20q0 45 13 78t35.5 54 51.5 31 62 10q39 0 66-12t44.5-32.5T332 100t8-60V21l-2-20H114q0-28 6.5-46t18-28.5 27-15T201-93q32 0 49 15t23 41l64-14q-10-48-47-75.5T197-154zm65 207q3 83-68 83-35 0-56-20t-23-63h147z"/><glyph glyph-name="f.sinf" horiz-adv-x="238" d="M239 283q-10 4-23 6.5t-24 2.5q-24 0-39-11t-15-46v-48h94v-54h-94v-279H63v279H13v54h50v48q0 57 29.5 84.5T174 347q24 0 41.5-3.5T242 335z"/><glyph glyph-name="g.sinf" horiz-adv-x="381" d="M186 193q30 0 55-6t42-20q8 20 22.5 32.5T340 212q15 0 33-5v-53q-16 2-35 0t-33-7q14-14 20.5-33t6.5-39q0-57-40.5-88.5T188-45q-17 0-30.5 1.5T130-37q-6-6-12.5-13T111-66t8-14.5 32-7.5l95-8q27-2 48-6.5t36-14.5 22.5-25.5T360-183q0-31-15-52t-39.5-33.5-57-18T182-292q-48 0-79 6.5t-48.5 18-24.5 26-7 30.5q0 27 16.5 46T80-138v1q-17 5-28 16.5T41-90q0 23 14 38.5T88-22Q64-9 51 16T38 73q0 29 12 51.5T82.5 162t47.5 23 56 8zm76-118q0 34-19.5 49.5T188 140q-33 0-55.5-15T110 75q0-30 18-48t59-18q35 0 55 17.5T262 75zm24-269q0 15-10.5 24T232-159l-105 7q-14-9-24-20t-10-26q0-20 22.5-29t72.5-9q47 0 72.5 9t25.5 33z"/><glyph glyph-name="h.sinf" horiz-adv-x="399" d="M350-146h-75V69q0 32-13 48.5T217 134q-26 0-51-12.5T129 98v-244H53v486h75V152q23 18 51.5 29.5T244 193q56 0 81-28t25-85v-226z"/><glyph glyph-name="i.sinf" horiz-adv-x="181" d="M129-146H54v333h75v-333zm13 437q0-22-13.5-34.5T92 244q-24 0-36.5 12.5T43 291q0 48 49 48 23 0 36.5-12.5T142 291z"/><glyph glyph-name="j.sinf" horiz-adv-x="180" d="M22-290q-20 0-40.5 5T-49-275l7 56q10-4 24-7.5t28-3.5q20 0 32 11t12 41v365h76v-371q0-56-29-81t-79-25zm121 586q0-23-13.5-35.5T93 248q-24 0-37 12.5T43 296q0 22 13 34.5T93 343q23 0 36.5-12.5T143 296z"/><glyph glyph-name="k.sinf" horiz-adv-x="373" d="M129 50l135 137h85L232 67l126-213h-83L175 19l-46-44v-121H54v486h75V50z"/><glyph glyph-name="l.sinf" horiz-adv-x="181" d="M130-146H54v486h76v-486z"/><glyph glyph-name="m.sinf" horiz-adv-x="586" d="M129-146H53v333h65l4-35q23 18 50.5 29.5T234 193q33 0 55-10t33-33q23 19 51 31t64 12q54 0 77-28t23-84v-227h-76V71q0 30-9.5 46.5T413 134q-21 0-44-11t-36-22q0-8 .5-17t.5-18v-212h-76V71q0 30-9 46.5T211 134q-23 0-46.5-12T129 99v-245z"/><glyph glyph-name="n.sinf" horiz-adv-x="399" d="M350-146h-75V69q0 32-13 48.5T217 134q-26 0-51-12.5T129 98v-244H53v333h67l4-37q23 19 53.5 31t65.5 12q57 0 82-28t25-85v-226z"/><glyph glyph-name="o.sinf" horiz-adv-x="399" d="M197-154q-46 0-77 13t-50 36.5-27.5 55T34 19q0 81 43 127.5T206 193q42 0 72.5-12t49.5-34 28-52.5 9-67.5q0-83-39.5-132T197-154zm3 62q40 0 63 25t23 90q0 62-21 86.5T203 134q-42 0-66-25.5T113 21q0-61 21-87t66-26z"/><glyph glyph-name="p.sinf" horiz-adv-x="401" d="M54 187h65l4-37q23 20 52 31.5t63 11.5q27 0 50.5-8.5t41-28 27-51T366 28q0-49-11.5-83.5t-31-56.5-45.5-32-55-10q-32 0-55.5 8T127-124v-159H54v470zm74-252q11-8 32-19t47-11q44 0 62 33t18 90q0 58-18 82.5T214 135q-25 0-48.5-11.5T128 98V-65z"/><glyph glyph-name="q.sinf" horiz-adv-x="398" d="M347-283h-72v167q-19-16-46-27t-62-11q-59 0-95.5 39T35 15q0 49 12.5 83T80 153t46.5 30.5T181 193q30 0 54-9.5t42-26.5l6 30h64v-470zm-75 390q-11 8-31.5 18T195 135q-45 0-63.5-32.5T113 16q0-55 18.5-83.5T192-96q23 0 44.5 10.5T272-61v168z"/><glyph glyph-name="r.sinf" horiz-adv-x="261" d="M249 121q-32 4-65-5.5T129 87v-233H53v333h64l6-50q21 28 48 42.5t65 13.5h13v-72z"/><glyph glyph-name="s.sinf" horiz-adv-x="338" d="M172 193q61 0 91-24.5T303 99l-64-15q-6 24-19.5 39T172 138q-35 0-47.5-11T112 99q0-24 21-32t55-16q22-5 44-10.5t39-16 27.5-28T309-49q0-51-37.5-78.5T171-155Q47-155 27-61l64 19q7-24 22.5-40.5T171-99q29 0 46.5 9.5T235-57q0 24-19 31.5T163-11q-21 4-42.5 9.5T81 14.5 52 43 41 91q0 26 10.5 45T80 168t41.5 19 50.5 6z"/><glyph glyph-name="t.sinf" horiz-adv-x="271" d="M260-131q-13-8-38-15.5t-53-7.5q-51 0-77 23.5T66-55v187H14v55h52v97l76 9V187h94v-55h-94V-42q0-26 9-39t38-13q15 0 31 5t27 11z"/><glyph glyph-name="u.sinf" horiz-adv-x="398" d="M52 187h76V-28q0-32 11.5-48.5T183-93q26 0 50.5 12.5T270-57v244h76v-333h-65l-6 37q-23-20-51-32t-63-12Q52-153 52-40v227z"/><glyph glyph-name="v.sinf" horiz-adv-x="355" d="M135-146L6 187h82l91-263h2l90 263h77L221-146h-86z"/><glyph glyph-name="w.sinf" horiz-adv-x="530" d="M112-146L6 187h77l75-259h1l71 259h76l70-258 75 258h72L418-146h-87l-66 248-63-248h-90z"/><glyph glyph-name="x.sinf" horiz-adv-x="348" d="M216 26l119-172h-81L171-24 90-146H15L130 24 14 187h82l79-116 81 116h74z"/><glyph glyph-name="y.sinf" horiz-adv-x="344" d="M8 187h82l84-255h1l86 255h77L202-167q-13-34-25.5-57.5t-27-38-33-21T73-290q-20 0-39 4t-30 9l8 54q11-3 26-6t28-3q23 0 39 17t31 64z"/><glyph glyph-name="z.sinf" horiz-adv-x="319" d="M107-87h188v-59H24v52l182 224H27v57h262v-52z"/><glyph glyph-name="zero.num" horiz-adv-x="406" d="M201 274q-47 0-77.5 16t-49 46-26 72.5T41 504t9 95.5T79 672t51.5 46 77.5 16q47 0 77.5-16t48-45.5 24.5-71 7-92.5q0-55-8-98.5t-27-74-50.5-46.5-78.5-16zm3 65q46 0 60.5 41.5T279 506q0 81-13.5 121.5T206 668q-47 0-62.5-40.5T128 503q0-81 14-122.5t62-41.5z"/><glyph glyph-name="one.num" horiz-adv-x="316" d="M143 279v348q-8-4-21.5-7.5t-28-6-28-4T44 608l-4 65q43 3 75.5 15t55.5 36h55V279h-83z"/><glyph glyph-name="two.num" horiz-adv-x="386" d="M196 734q66 0 100.5-29t34.5-85q0-26-7.5-48.5t-22-44.5-35.5-46-49-52l-70-76v-2h191v-70H52v68l103 114q24 27 41.5 47.5t29 38T242 582t5 34q0 29-15.5 41.5T188 670q-35 0-50.5-18.5T117 601l-71 12q4 32 17 55t33 37.5 45.5 21.5 54.5 7z"/><glyph glyph-name="three.num" horiz-adv-x="399" d="M112 398q5-29 19-44.5t51-15.5q30 0 51.5 16.5T255 410q0 41-21.5 56T173 481h-43v60h29q44 0 67 21t23 54q0 24-12.5 39T190 670t-48.5-14.5T120 613l-71 14q6 30 20 50.5t33.5 33 44 18T198 734q65 0 99-28.5t34-77.5q0-24-8-42t-20.5-31-28-21.5T244 520v-1q45-9 70.5-35.5T340 408q0-63-43.5-98.5T183 274q-55 0-96 25t-49 85z"/><glyph glyph-name="four.num" horiz-adv-x="386" d="M231 281v103H22v57l188 285h101V449h53v-65h-52V281h-81zm0 168v204L96 449h135z"/><glyph glyph-name="five.num" horiz-adv-x="391" d="M75 726h235v-68H136l-12-116v-9q16 13 37.5 22t52.5 9q25 0 47.5-7t39.5-23 27-42 10-63q0-72-45-113.5T176 274q-27 0-51.5 6t-44 19-33 34T30 384l72 15q5-26 21-44t53-18q30 0 54 21t24 67q0 43-20.5 60T184 502q-22 0-39.5-8T113 472l-55 20z"/><glyph glyph-name="six.num" horiz-adv-x="416" d="M293 614q-7 34-22 46t-38 12q-26 0-43.5-13.5T161 622t-16-52.5-5-61.5q16 17 44.5 31t63.5 14q56 0 88.5-33t32.5-94q0-77-43.5-114.5T215 274q-46 0-76 17.5t-47 47-24 69-7 83.5q0 38 7.5 81T96 651t54.5 59.5T239 734q45 0 80-22t47-80zM144 455q1-23 4-44.5t11-38 22.5-26.5 37.5-10q31 0 49 21t18 63q0 37-14 56t-46 19q-23 0-46-13t-36-27z"/><glyph glyph-name="seven.num" horiz-adv-x="355" d="M66 281l181 377H35v68h299v-61L154 281H66z"/><glyph glyph-name="eight.num" horiz-adv-x="392" d="M262 521q20-9 38-19t31-24 20.5-32.5T359 401q0-27-11.5-50t-33-40-52-27-69.5-10q-80 0-118 32.5T37 389q0 47 26.5 73.5T131 506q-36 14-57.5 42T52 614q0 30 12 52.5T96.5 704t48 22.5T204 734q68 0 105.5-27.5T347 631q0-37-22-63.5T262 521zm-81-42q-32-16-49-34t-17-47 19-45.5 61-16.5q38 0 57.5 17.5T272 397q0 18-8 30.5t-20.5 22-29 16.5-33.5 13zm29 66q26 14 43.5 34t17.5 46q0 50-67 50-32 0-49.5-14T137 622q0-27 20.5-45.5T210 545z"/><glyph glyph-name="nine.num" horiz-adv-x="415" d="M121 398q7-32 22.5-47.5T188 335q49 0 69.5 43T280 493q-16-16-44.5-28.5T173 452q-57 0-90 34t-33 97q0 38 12 66.5t32.5 47 49 28T205 734q46 0 75.5-17t46.5-47 24-69.5 7-84.5q0-42-6.5-85T326 353t-52.5-57-88.5-22q-25 0-47.5 5.5t-41 18-31 32.5T47 379zm153 150q-2 24-5 46t-10.5 39.5-21.5 28-37 10.5q-31 0-49-21.5T133 587q0-36 15-57t47-21q23 0 43.5 11t35.5 28z"/><glyph glyph-name="parenleft.ordn" horiz-adv-x="256" d="M147 208q-18 24-34.5 53T83 323.5t-21 71-8 79.5q0 83 29.5 150T154 747h81q-42-62-69.5-127T138 475q0-42 7.5-78.5t20-69 29.5-62 35-57.5h-83z"/><glyph glyph-name="parenright.ordn" horiz-adv-x="257" d="M21 746q21 0 41.5.5t42.5.5q19-26 36.5-56t31-64.5 22-72.5 8.5-79-8-78-21-70.5-30-63-36-55.5H24q19 28 36 57t29.5 61 20 69 7.5 80q0 78-27 143T21 746z"/><glyph glyph-name="hyphen.ordn" horiz-adv-x="218" d="M20 433v69h173v-69H20z"/><glyph glyph-name="comma.ordn" horiz-adv-x="186" d="M52 358h86L78 202l-65 6z"/><glyph glyph-name="period.ordn" horiz-adv-x="197" d="M152 323q0-49-53-49-54 0-54 49 0 50 54 50 53 0 53-50z"/><glyph glyph-name="minus.ordn" horiz-adv-x="437" d="M97 469v65h244v-65H97z"/><glyph glyph-name="plus.ordn" horiz-adv-x="437" d="M184 378v91H95v65h89v88h68v-88h89v-65h-89v-91h-68z"/><glyph glyph-name="equal.ordn" horiz-adv-x="440" d="M98 391v66h244v-66H98zm0 114v66h244v-66H98z"/><glyph glyph-name="a.ordn" horiz-adv-x="378" d="M316 350q0-14 4-19.5t17-5.5q8 0 20 3l3-41q-10-5-24.5-8t-28.5-3q-28 0-41.5 12.5T249 316q-20-19-46.5-30.5T139 274q-32 0-52 9.5t-31 23T41 336t-4 28q0 32 13 53.5T84.5 452t51 18.5T198 478h23l21-2v28q0 30-11.5 47T181 568q-32 0-46.5-12.5T115 516l-64 12q8 47 40.5 70t95.5 23q66 0 97.5-26t31.5-89V350zm-73 79q-6 1-12.5 1.5t-15.5.5q-18 0-36-2t-32.5-7.5T123 405t-9-30 10-33 42-14q23 0 44 10t33 22v69z"/><glyph glyph-name="b.ordn" horiz-adv-x="401" d="M54 282v486h74V583q42 38 112 38 27 0 50-8.5t40-28 26.5-51T366 456q0-49-11.5-83.5t-31-56.5-45.5-32-56-10q-32 0-56.5 9.5T124 308h-2l-4-26H54zm74 81q11-8 32-19t47-11q44 0 62.5 32.5T288 456q0 53-17 80t-58 27q-24 0-47.5-11.5T128 526V363z"/><glyph glyph-name="c.ordn" horiz-adv-x="371" d="M195 274q-42 0-72.5 12.5t-50 35-29 54T34 444q0 88 45 132.5T205 621q57 0 94-29.5t41-88.5l-71-9q-4 33-18.5 50.5T201 562q-17 0-32.5-4.5t-28-16.5-20-33.5T113 452t6.5-56.5 18.5-36 27.5-19T199 335q32 0 51.5 16t25.5 51l66-12q-4-30-17-52t-32.5-36-44.5-21-53-7z"/><glyph glyph-name="d.ordn" horiz-adv-x="398" d="M347 282h-63l-5 32h-1q-20-19-47-29.5T169 274q-60 0-97 39T35 443q0 49 12.5 83T80 581t46.5 30.5T181 621q60 0 93-27v174h73V282zm-75 255q-11 8-30.5 17t-44.5 9q-47 0-65.5-32.5T113 444q0-57 18.5-85t60.5-28q23 0 44.5 11t35.5 25v170z"/><glyph glyph-name="e.ordn" horiz-adv-x="375" d="M197 274q-47 0-78 14.5T69 327t-27 55.5-8 65.5q0 45 13 78t35.5 54 51.5 31 62 10q39 0 66-12t44.5-32.5T332 528t8-60v-19l-2-20H114q0-28 6.5-46t18-28.5 27-15T201 335q32 0 49 15t23 41l64-14q-10-48-47-75.5T197 274zm65 207q3 83-68 83-35 0-56-20t-23-63h147z"/><glyph glyph-name="f.ordn" horiz-adv-x="238" d="M239 711q-10 4-23 6.5t-24 2.5q-24 0-39-11t-15-46v-48h94v-54h-94V282H63v279H13v54h50v48q0 57 29.5 84.5T174 775q24 0 41.5-3.5T242 763z"/><glyph glyph-name="g.ordn" horiz-adv-x="381" d="M186 621q30 0 55-6t42-20q8 20 22.5 32.5T340 640q15 0 33-5v-53q-16 2-35 0t-33-7q14-14 20.5-33t6.5-39q0-57-40.5-88.5T188 383q-17 0-30.5 1.5T130 391q-6-6-12.5-13t-6.5-16 8-14.5 32-7.5l95-8q27-2 48-6.5t36-14.5 22.5-25.5T360 245q0-31-15-52t-39.5-33.5-57-18T182 136q-48 0-79 6.5t-48.5 18-24.5 26-7 30.5q0 27 16.5 46T80 290v1q-17 5-28 16.5T41 338q0 23 14 38.5T88 406q-24 13-37 38t-13 57q0 29 12 51.5T82.5 590t47.5 23 56 8zm76-118q0 34-19.5 49.5T188 568q-33 0-55.5-15T110 503q0-30 18-48t59-18q35 0 55 17.5t20 48.5zm24-269q0 15-10.5 24T232 269l-105 7q-14-9-24-20t-10-26q0-20 22.5-29t72.5-9q47 0 72.5 9t25.5 33z"/><glyph glyph-name="h.ordn" horiz-adv-x="399" d="M350 282h-75v215q0 32-13 48.5T217 562q-26 0-51-12.5T129 526V282H53v486h75V580q23 18 51.5 29.5T244 621q56 0 81-28t25-85V282z"/><glyph glyph-name="i.ordn" horiz-adv-x="181" d="M129 282H54v333h75V282zm13 437q0-22-13.5-34.5T92 672q-24 0-36.5 12.5T43 719q0 48 49 48 23 0 36.5-12.5T142 719z"/><glyph glyph-name="j.ordn" horiz-adv-x="180" d="M22 138q-20 0-40.5 5T-49 153l7 56q10-4 24-7.5t28-3.5q20 0 32 11t12 41v365h76V244q0-56-29-81t-79-25zm121 586q0-23-13.5-35.5T93 676q-24 0-37 12.5T43 724q0 22 13 34.5T93 771q23 0 36.5-12.5T143 724z"/><glyph glyph-name="k.ordn" horiz-adv-x="373" d="M129 478l135 137h85L232 495l126-213h-83L175 447l-46-44V282H54v486h75V478z"/><glyph glyph-name="l.ordn" horiz-adv-x="181" d="M130 282H54v486h76V282z"/><glyph glyph-name="m.ordn" horiz-adv-x="586" d="M129 282H53v333h65l4-35q23 18 50.5 29.5T234 621q33 0 55-10t33-33q23 19 51 31t64 12q54 0 77-28t23-84V282h-76v217q0 30-9.5 46.5T413 562q-21 0-44-11t-36-22q0-8 .5-17t.5-18V282h-76v217q0 30-9 46.5T211 562q-23 0-46.5-12T129 527V282z"/><glyph glyph-name="n.ordn" horiz-adv-x="399" d="M350 282h-75v215q0 32-13 48.5T217 562q-26 0-51-12.5T129 526V282H53v333h67l4-37q23 19 53.5 31t65.5 12q57 0 82-28t25-85V282z"/><glyph glyph-name="o.ordn" horiz-adv-x="399" d="M197 274q-46 0-77 13t-50 36.5-27.5 55T34 447q0 81 43 127.5T206 621q42 0 72.5-12t49.5-34 28-52.5 9-67.5q0-83-39.5-132T197 274zm3 62q40 0 63 25t23 90q0 62-21 86.5T203 562q-42 0-66-25.5T113 449q0-61 21-87t66-26z"/><glyph glyph-name="p.ordn" horiz-adv-x="401" d="M54 615h65l4-37q23 20 52 31.5t63 11.5q27 0 50.5-8.5t41-28 27-51T366 456q0-49-11.5-83.5t-31-56.5-45.5-32-55-10q-32 0-55.5 8T127 304V145H54v470zm74-252q11-8 32-19t47-11q44 0 62 33t18 90q0 58-18 82.5T214 563q-25 0-48.5-11.5T128 526V363z"/><glyph glyph-name="q.ordn" horiz-adv-x="398" d="M347 145h-72v167q-19-16-46-27t-62-11q-59 0-95.5 39T35 443q0 49 12.5 83T80 581t46.5 30.5T181 621q30 0 54-9.5t42-26.5l6 30h64V145zm-75 390q-11 8-31.5 18T195 563q-45 0-63.5-32.5T113 444q0-55 18.5-83.5T192 332q23 0 44.5 10.5T272 367v168z"/><glyph glyph-name="r.ordn" horiz-adv-x="261" d="M249 549q-32 4-65-5.5T129 515V282H53v333h64l6-50q21 28 48 42.5t65 13.5h13v-72z"/><glyph glyph-name="s.ordn" horiz-adv-x="338" d="M172 621q61 0 91-24.5t40-69.5l-64-15q-6 24-19.5 39T172 566q-35 0-47.5-11T112 527q0-24 21-32t55-16q22-5 44-10.5t39-16 27.5-28T309 379q0-51-37.5-78.5T171 273q-124 0-144 94l64 19q7-24 22.5-40.5T171 329q29 0 46.5 9.5T235 371q0 24-19 31.5T163 417q-21 4-42.5 9.5t-39.5 16T52 471t-11 48q0 26 10.5 45T80 596t41.5 19 50.5 6z"/><glyph glyph-name="t.ordn" horiz-adv-x="271" d="M260 297q-13-8-38-15.5t-53-7.5q-51 0-77 23.5T66 373v187H14v55h52v97l76 9V615h94v-55h-94V386q0-26 9-39t38-13q15 0 31 5t27 11z"/><glyph glyph-name="u.ordn" horiz-adv-x="398" d="M52 615h76V400q0-32 11.5-48.5T183 335q26 0 50.5 12.5T270 371v244h76V282h-65l-6 37q-23-20-51-32t-63-12Q52 275 52 388v227z"/><glyph glyph-name="v.ordn" horiz-adv-x="355" d="M135 282L6 615h82l91-263h2l90 263h77L221 282h-86z"/><glyph glyph-name="w.ordn" horiz-adv-x="530" d="M112 282L6 615h77l75-259h1l71 259h76l70-258 75 258h72L418 282h-87l-66 248-63-248h-90z"/><glyph glyph-name="x.ordn" horiz-adv-x="348" d="M216 454l119-172h-81l-83 122-81-122H15l115 170L14 615h82l79-116 81 116h74z"/><glyph glyph-name="y.ordn" horiz-adv-x="344" d="M8 615h82l84-255h1l86 255h77L202 261q-13-34-25.5-57.5t-27-38-33-21T73 138q-20 0-39 4t-30 9l8 54q11-3 26-6t28-3q23 0 39 17t31 64z"/><glyph glyph-name="z.ordn" horiz-adv-x="319" d="M107 341h188v-59H24v52l182 224H27v57h262v-52z"/><glyph glyph-name="zero.denom" horiz-adv-x="406" d="M201-7q-47 0-77.5 16t-49 46-26 72.5T41 223t9 95.5T79 391t51.5 46 77.5 16q47 0 77.5-16t48-45.5 24.5-71 7-92.5q0-55-8-98.5t-27-74T279.5 9 201-7zm3 65q46 0 60.5 41.5T279 225q0 81-13.5 121.5T206 387q-47 0-62.5-40.5T128 222q0-81 14-122.5T204 58z"/><glyph glyph-name="one.denom" horiz-adv-x="316" d="M143-2v348q-8-4-21.5-7.5t-28-6-28-4T44 327l-4 65q43 3 75.5 15t55.5 36h55V-2h-83z"/><glyph glyph-name="two.denom" horiz-adv-x="386" d="M196 453q66 0 100.5-29t34.5-85q0-26-7.5-48.5t-22-44.5-35.5-46-49-52l-70-76v-2h191V0H52v68l103 114q24 27 41.5 47.5t29 38T242 301t5 34q0 29-15.5 41.5T188 389q-35 0-50.5-18.5T117 320l-71 12q4 32 17 55t33 37.5 45.5 21.5 54.5 7z"/><glyph glyph-name="three.denom" horiz-adv-x="399" d="M112 117q5-29 19-44.5T182 57q30 0 51.5 16.5T255 129q0 41-21.5 56T173 200h-43v60h29q44 0 67 21t23 54q0 24-12.5 39T190 389t-48.5-14.5T120 332l-71 14q6 30 20 50.5t33.5 33 44 18T198 453q65 0 99-28.5t34-77.5q0-24-8-42t-20.5-31-28-21.5T244 239v-1q45-9 70.5-35.5T340 127q0-63-43.5-98.5T183-7q-55 0-96 25t-49 85z"/><glyph glyph-name="four.denom" horiz-adv-x="386" d="M231 0v103H22v57l188 285h101V168h53v-65h-52V0h-81zm0 168v204L96 168h135z"/><glyph glyph-name="five.denom" horiz-adv-x="391" d="M75 445h235v-68H136l-12-116v-9q16 13 37.5 22t52.5 9q25 0 47.5-7t39.5-23 27-42 10-63q0-72-45-113.5T176-7q-27 0-51.5 6t-44 19-33 34T30 103l72 15q5-26 21-44t53-18q30 0 54 21t24 67q0 43-20.5 60T184 221q-22 0-39.5-8T113 191l-55 20z"/><glyph glyph-name="six.denom" horiz-adv-x="416" d="M293 333q-7 34-22 46t-38 12q-26 0-43.5-13.5T161 341t-16-52.5-5-61.5q16 17 44.5 31t63.5 14q56 0 88.5-33t32.5-94q0-77-43.5-114.5T215-7q-46 0-76 17.5t-47 47-24 69-7 83.5q0 38 7.5 81T96 370t54.5 59.5T239 453q45 0 80-22t47-80zM144 174q1-23 4-44.5t11-38T181.5 65 219 55q31 0 49 21t18 63q0 37-14 56t-46 19q-23 0-46-13t-36-27z"/><glyph glyph-name="seven.denom" horiz-adv-x="355" d="M66 0l181 377H35v68h299v-61L154 0H66z"/><glyph glyph-name="eight.denom" horiz-adv-x="392" d="M262 240q20-9 38-19t31-24 20.5-32.5T359 120q0-27-11.5-50t-33-40-52-27T193-7Q113-7 75 25.5T37 108q0 47 26.5 73.5T131 225q-36 14-57.5 42T52 333q0 30 12 52.5T96.5 423t48 22.5T204 453q68 0 105.5-27.5T347 350q0-37-22-63.5T262 240zm-81-42q-32-16-49-34t-17-47 19-45.5T195 55q38 0 57.5 17.5T272 116q0 18-8 30.5t-20.5 22-29 16.5-33.5 13zm29 66q26 14 43.5 34t17.5 46q0 50-67 50-32 0-49.5-14T137 341q0-27 20.5-45.5T210 264z"/><glyph glyph-name="nine.denom" horiz-adv-x="415" d="M121 117q7-32 22.5-47.5T188 54q49 0 69.5 43T280 212q-16-16-44.5-28.5T173 171q-57 0-90 34t-33 97q0 38 12 66.5t32.5 47 49 28T205 453q46 0 75.5-17t46.5-47 24-69.5 7-84.5q0-42-6.5-85T326 72t-52.5-57T185-7q-25 0-47.5 5.5t-41 18-31 32.5T47 98zm153 150q-2 24-5 46t-10.5 39.5-21.5 28-37 10.5q-31 0-49-21.5T133 306q0-36 15-57t47-21q23 0 43.5 11t35.5 28z"/><glyph glyph-name="square" horiz-adv-x="610" d="M130 151v349h349V151H130z"/><glyph glyph-name="square.open" horiz-adv-x="610" d="M434 455H175V196h259v259zM130 151v349h349V151H130z"/><glyph glyph-name="circle.open" horiz-adv-x="610" d="M305 119q-42 0-79.5 16T160 179t-44 65.5-16 79.5 16 79.5 44 65.5 65.5 44 79.5 16 79.5-16 65.5-44 44-65.5 16-79.5-16-79.5-44-65.5-65.5-44-79.5-16zm0 48q32 0 59.5 13t48 35 32 51 11.5 61-11.5 60-32 48.5-48 32.5-59.5 12-59.5-12.5T198 434t-31.5-49.5T155 324t11.5-60.5 31.5-50 47.5-34T305 167z"/><glyph glyph-name="doublecircle" horiz-adv-x="610" d="M305 269q-23 0-38 16t-15 39q0 22 15 38.5t38 16.5 38-15.5 15-38.5-15-39.5-38-16.5zm0-89q-30 0-56 11.5t-45.5 31-31 45.5-11.5 56 11.5 56 31 45.5T249 456t56 11 56-11 45.5-30.5T437 380t11-56-11-56-30.5-45.5-45.5-31-56-11.5zm0 34q22 0 41.5 9t33.5 24.5 22.5 35.5 8.5 43q0 22-8.5 42T380 402t-33.5 22.5T305 433q-23 0-42-8.5T230 401t-22-35-8-42q0-23 8-43t22-35 33-23.5 42-8.5z"/><glyph glyph-name="triangle.left" horiz-adv-x="425" d="M90 320l185 114V203z"/><glyph glyph-name="raute" horiz-adv-x="610" d="M304 116L95 326l210 209 209-210z"/><glyph glyph-name="arrow.right" d="M50 314h357l-61 122h82l92-162-91-160h-83l62 122H50v78z"/><glyph glyph-name="arrow.left" d="M520 236H162l62-122h-83L50 274l92 162h82l-61-122h357v-78z"/><glyph glyph-name="arrow.up" d="M246 40v356l-123-61v83l163 91 160-91v-83l-122 62V40h-78z"/><glyph glyph-name="arrow.down" d="M324 510V153l122 62v-83L286 41l-163 91v83l123-61v356h78z"/><glyph glyph-name="arrow.leftup" d="M130 441l178 50 59-60-130-42 253-253-56-54-252 252-44-131-58 59z"/><glyph glyph-name="arrow.rightup" d="M490 262l-59-59-44 131L135 82l-55 54 253 253-131 42 60 60 177-50z"/><glyph glyph-name="arrowleft.down" d="M80 311l58 58 44-131 252 253 56-55-253-253 130-42-59-59-178 49z"/><glyph glyph-name="arrowright.down" d="M439 131L262 82l-60 59 131 42L80 436l55 55 252-253 44 131 59-58z"/><glyph glyph-name="arrowright.alt" d="M302 372v115l218-214L302 55v116L65 150v247z"/><glyph glyph-name="arrowleft.alt" d="M505 397V150l-237 21V55L50 273l218 214V372z"/><glyph glyph-name="arrowup.alt" d="M410 54H163l21 237H68l218 218 214-218H385z"/><glyph glyph-name="arrowdown.alt" d="M385 259h115L286 41 68 259h116l-21 237h247z"/><glyph glyph-name="arrowleftup.alt" d="M519 207L344 32 192 215l-82-83v309l305-3-81-81z"/><glyph glyph-name="arrowrightup.alt" d="M225 32L50 207l183 152-83 82h309l-3-305-81 81z"/><glyph glyph-name="arrowleftdown.alt" d="M344 540l175-175-183-152 83-82H110l3 305 81-81z"/><glyph glyph-name="arrowrightdown.alt" d="M50 365l175 175 152-183 82 83V131l-305 3 81 81z"/><glyph glyph-name="arrowlong.left" horiz-adv-x="610" d="M20 403h458l-88 154h85l115-194-115-192h-85l88 154H20v78z"/><glyph glyph-name="arrowlong.right" horiz-adv-x="610" d="M590 325H132l88-154h-85L20 365l115 192h85l-88-154h458v-78z"/><glyph glyph-name="arrowlong.up" horiz-adv-x="610" d="M266 80v458l-155-89v85l195 115 192-115v-85l-154 88V80h-78z"/><glyph glyph-name="arrowlong.down" horiz-adv-x="610" d="M344 647V190l154 88v-85L306 78 111 193v85l155-89v458h78z"/><glyph glyph-name="arrowlong.leftup" horiz-adv-x="610" d="M396 561l-172-47 324-323-55-56-324 325-46-173-61 61 56 218 217 55z"/><glyph glyph-name="arrowlong.leftdown" horiz-adv-x="610" d="M275 621l217-55 56-218-61-61-46 173-324-325-55 56 324 323-172 47z"/><glyph glyph-name="arrowlong.rightup" horiz-adv-x="610" d="M335 135l-217 55-56 219 61 60 46-172 324 324 55-55-324-324 172-46z"/><glyph glyph-name="arrowlong.rightdown" horiz-adv-x="610" d="M214 196l172 46L62 566l56 55 323-324 47 172 60-60-56-219-217-55z"/><glyph glyph-name="ornm1" horiz-adv-x="600" d="M550 0H50v500h500V0z"/><glyph glyph-name="ornm2" horiz-adv-x="500" d="M255 494l43-143 147 32-102-108 102-111-147 33-43-144-44 144-148-33 102 111L63 383l148-32z"/><glyph glyph-name="ornm3" horiz-adv-x="500" d="M252 489l48-137 144-4-116-87 43-140-119 83-120-83 43 140-116 87 144 4z"/><glyph glyph-name="ornm4" horiz-adv-x="500" d="M203 352l48 134V203l-119-82 43 140-116 87z"/><glyph glyph-name="ornm5" horiz-adv-x="500" d="M300 352l144-4-116-87 43-140-119 83v285z"/><glyph glyph-name="ornm6" horiz-adv-x="752" d="M589 529l113-105L312-1 50 203l95 114 146-122z"/><glyph glyph-name="ornm7" horiz-adv-x="634" d="M50 404l105 113 155-143 145 157 113-105-144-158 160-147L478 6 319 154 178 0 63 106l142 154z"/><glyph glyph-name="ornm8" horiz-adv-x="844" d="M50 377q0 48 17 90t47.5 72.5T187 588t91 18q51 0 93.5-16.5t73-46.5 47.5-71.5 17-92.5q0-29-5.5-54T488 277L794 78l-58-92-301 219q-62-54-157-54-50 0-92 16.5t-72 46-47 71T50 377zm82 0q0-33 10.5-60.5t30-47.5 46-31 59.5-11 60 11 47 31 31 48 11 62-11 62-31 48-47 31-60 11q-32 0-58.5-11.5t-46-32T143 439t-11-62z"/><glyph glyph-name="ornm9" horiz-adv-x="818" d="M631 476V306h137V63H666V0H152v63H50v243h137v285h317V476h127zM152-46h514v-65H152v65zm377 545v92l7 5 100-90-5-7H529z"/><glyph glyph-name="ornm10" horiz-adv-x="562" d="M148 489q0 30 10 55t27.5 42.5 42 27.5 53.5 10 53.5-10 42.5-27.5 28-42.5 10-55q0-43-20-74.5T343 367v-4q90-6 129.5-46.5T512 188V0H50v188q0 88 39.5 128.5T219 363v4q-32 16-51.5 47.5T148 489z"/><glyph glyph-name="ornm11" horiz-adv-x="720" d="M122 210V68h475v142h73V0H50v210h72zm114 409h247l-21-237h116L360 164 146 382h115z"/><glyph glyph-name="ornm12" horiz-adv-x="571" d="M50 615h113V316q0-78 14-115t58-37 57 37 13 115v161h-45V316q0-62-3.5-87.5T235 203q-20 0-24 26.5t-4 86.5v299h314V0H50v615z"/><glyph glyph-name="ornm13" horiz-adv-x="774" d="M311-80v8q0 23-9 43.5T278 7t-35.5 24-43.5 9q-38 0-66-22L51 161q30 14 45 42t14.5 59.5T95 322t-45 42l83 141q29-21 66-21 23 0 43.5 8.5T278 516t24 35.5 9 43.5v11h158q0-3-.5-5.5t-.5-5.5q0-23 8.5-43.5T500 516t35.5-23.5T579 484q36 0 65 21l80-138q-32-12-51.5-40.5T653 262t19.5-64 51.5-40L644 20q-28 20-65 20-23 0-43.5-9T500 7t-23.5-35.5T468-72v-8H311zm-72 348q0-33 11-60.5t30.5-47T327 130t59-11 59 11 47 30.5 31 47 11 60.5-11 60.5-31 47-47 30.5-59 11-59-11-46.5-30.5-30.5-47-11-60.5z"/><glyph glyph-name="ornm14" horiz-adv-x="541" d="M50 0v406h54q0 66 7 115t25.5 81 51 47.5T271 665q52 0 84.5-14.5T406 605t24.5-80 6.5-119h54V0H50zm221 598q-29 0-47-9t-28.5-30.5T181 500t-4-94h188q0 57-3.5 94t-14 58.5-29 30.5-47.5 9zm-40-489h80l-16 96q25 12 25 38 0 23-14 35.5T271 291t-35-12.5-14-35.5q0-25 24-38z"/><glyph glyph-name="ornm15" horiz-adv-x="729" d="M231 109h79l-15 96q25 12 25 38 0 23-14.5 35.5T270 291q-20 0-34-12.5T222 243q0-25 23-38zm375 315q0 49-3 82.5t-12.5 54-26.5 29-45 8.5q-25 0-43.5-7t-31-24-18.5-45.5-6-70.5v-45h71V0H50v406h296v43q0 46 9 85t29.5 67.5 53 44.5 80.5 16q52 0 83.5-15t49-45 23-74.5T679 424h-73z"/><glyph glyph-name="ornm16" horiz-adv-x="846" d="M421 109l375 318V0H50v429zM71 478h704L421 176z"/><glyph glyph-name="ornm17" horiz-adv-x="846" d="M796 512H541l30 89h225v-89zm0-34V0H50v478h746z"/><glyph glyph-name="ornm18" horiz-adv-x="785" d="M281-43q19 7 38 18.5t33.5 28 23 38.5 7.5 51q-54 1-113 17.5T162.5 160 82 242.5 50 357q0 66 32.5 115.5T165 555t111.5 50T396 622q64 0 125.5-19.5T630 548t76-84.5T735 356q0-47-16.5-84T675 206t-61.5-50.5T542 119q-13-38-33.5-69.5T457-4t-74-34-100-12z"/><glyph glyph-name="ornm19" horiz-adv-x="706" d="M50 68q0 38 22.5 59t57.5 21 57.5-21.5T210 68q0-38-22.5-59T130-12 72.5 9.5 50 68zM328 0q0 57-20.5 104.5t-56 82-83.5 54T66 260v104q77 0 144-27t117-75 79-115T435 0H328zm218 0q0 104-37.5 192t-102 151.5-152.5 99T66 478v104q123 0 230.5-43T484 418.5 610 234 656 0H546z"/><glyph glyph-name="ornm20" horiz-adv-x="785" d="M376 183H275V0H172v283H50l345 355 123-129v103h101V404l116-121H621V0H376v183z"/><glyph glyph-name="a.sc" horiz-adv-x="564" d="M336 553L536 0H436l-54 152H174L122 0H30l192 553h114zm-58-72h-1l-84-255h168z"/><glyph glyph-name="b.sc" horiz-adv-x="513" d="M77 0v553h206q51 0 84-10.5t53-28.5 28-43 8-53q0-58-32.5-88T345 289v-2q70-9 102.5-44t32.5-92q0-43-16-72t-44-46.5-67-25T268 0H77zm176 72q28 0 52.5 3T347 87t27 26 10 46q0 30-11.5 47.5t-31 26-46 10.5-55.5 2h-73V72h86zm-16 243q22 0 45 3.5t41.5 13.5 30 28 11.5 47q0 27-9 42t-26.5 22-42.5 8.5-57 1.5h-63V315h70z"/><glyph glyph-name="c.sc" horiz-adv-x="563" d="M299-12q-69 0-117 20.5t-79 57T58 154 44 269q0 68 18.5 122.5t53 92.5 84.5 58.5T313 563q46 0 84.5-11.5t67-34.5 45.5-59.5 20-85.5l-83-8q-8 63-39.5 93.5T311 488q-82 0-128-52t-46-161q0-113 41.5-163T301 62q65 0 99 28.5t47 82.5l80-14q-8-47-30-80t-53.5-53-69-29-75.5-9z"/><glyph glyph-name="d.sc" horiz-adv-x="589" d="M77 0v553h185q74 0 127.5-18.5t88-53.5 51-84.5T545 285q0-63-17.5-115.5t-54-90T381 21 249 0H77zm171 76q106 0 155 52.5T452 283q0 57-13 94t-38 59.5-62 31.5-85 9h-86V76h80z"/><glyph glyph-name="e.sc" horiz-adv-x="472" d="M168 76h265V0H77v553h345v-76H168V317h238v-75H168V76z"/><glyph glyph-name="f.sc" horiz-adv-x="450" d="M168 0H77v553h343v-76H168V304h233v-74H168V0z"/><glyph glyph-name="g.sc" horiz-adv-x="597" d="M455 69q-8-18-24.5-33t-39-25.5T342-6t-55-6q-65 0-111 21t-75 58.5-43 89T44 269q0 139 70 216.5T314 563q46 0 84-10t66.5-32.5T510 463t21-86l-85-8q-6 59-37 88t-97 29q-85 0-129.5-54T138 277q0-59 11-100t32.5-66.5 52-36.5T303 63q35 0 61.5 12.5T409 106t27 38.5 9 37.5v35H311v70h222V0h-66z"/><glyph glyph-name="h.sc" horiz-adv-x="592" d="M514 0h-91v241H168V0H77v553h91V319h255v234h91V0z"/><glyph glyph-name="i.sc" horiz-adv-x="246" d="M168 0H77v553h91V0z"/><glyph glyph-name="j.sc" horiz-adv-x="418" d="M257 553h91V145q0-83-44-120T182-12q-71 0-111.5 32.5T25 128l87 13q2-18 5.5-32.5t11.5-25 21-16 35-5.5q32 0 52 15.5t20 63.5v412z"/><glyph glyph-name="k.sc" horiz-adv-x="532" d="M168 294l239 259h103L292 318 516 0H409L228 251l-60-63V0H77v553h91V294z"/><glyph glyph-name="l.sc" horiz-adv-x="456" d="M168 76h252V0H77v553h91V76z"/><glyph glyph-name="m.sc" horiz-adv-x="729" d="M651 0h-84v462h-3L406 0h-88L163 464h-2V0H77v553h137l150-448h3l149 448h135V0z"/><glyph glyph-name="n.sc" horiz-adv-x="604" d="M419 0L161 444V0H77v553h115l252-441v441h82V0H419z"/><glyph glyph-name="o.sc" horiz-adv-x="615" d="M304-12q-68 0-117 21.5t-81 60-47 91T44 275t17.5 114.5 52 91 85 60.5T316 563q66 0 114.5-21.5t79.5-59 46-88T571 286q0-67-16.5-122t-50-94T421 9.5 304-12zm4 76q37 0 68 12.5t53.5 38.5 35 67 12.5 97q0 106-44 156t-120 50q-39 0-71-12.5t-55-38-36-65-13-92.5q0-109 46-161t124-52z"/><glyph glyph-name="p.sc" horiz-adv-x="503" d="M167 0H77v553h198q55 0 91.5-14t58.5-37 31-53.5 9-63.5q0-100-57-147t-163-47h-78V0zm70 266q28 0 52.5 4.5T332 287t28.5 34 10.5 58q0 33-9.5 52.5t-28 30-46 14T225 479h-58V266h70z"/><glyph glyph-name="q.sc" horiz-adv-x="615" d="M304-12q-67 0-116 21.5t-81 60-47.5 91T44 275t17.5 114.5 52 91 85 60.5T316 563q66 0 114.5-21.5t79.5-59 46-88T571 286q0-69-16.5-121.5T501 73l69-71-53-47-71 70Q419 8 382.5-2T304-12zm4 74q46 0 85 21l-99 102 53 48 96-103q35 55 35 149 0 106-44.5 156T313 485q-39 0-71-12.5t-55-38-36-65-13-92.5q0-109 47-162t123-53z"/><glyph glyph-name="r.sc" horiz-adv-x="513" d="M499 0h-98L278 221H167V0H77v553h206q53 0 89-13t57.5-34 30.5-48.5 9-56.5q0-62-29-101t-77-57zM258 294q25 0 46.5 4.5t37.5 16 24.5 31T375 395q0 50-32 67t-89 17h-87V294h91z"/><glyph glyph-name="s.sc" horiz-adv-x="478" d="M244 491q-58 0-83-21t-25-56q0-23 11.5-38.5t31-26.5 44-19 51.5-15q31-9 61-19.5t54-28 39-43.5 15-66q0-45-17.5-77T379 28 312.5-2.5 234-12q-42 0-78.5 8.5t-64 28T46 76t-23 79l84 12q4-21 11.5-40.5T140 93t36.5-22.5T234 62q21 0 42 3.5t37.5 13 27 26T351 146q0 22-9.5 37T316 208.5 279 226t-44 13q-32 9-65.5 18.5t-61 27-45 46T46 406q0 37 15 66t41.5 49.5 63 31T244 563q37 0 70.5-7t59.5-25 42.5-48.5T437 406l-84-10q-3 20-9 37.5t-18 30-32 20-50 7.5z"/><glyph glyph-name="t.sc" horiz-adv-x="466" d="M188 0v477H17v76h431v-76H279V0h-91z"/><glyph glyph-name="u.sc" horiz-adv-x="577" d="M289 67q66 0 95.5 30.5T414 202v351h91V190q0-104-59-153T285-12q-113 0-163 51.5T72 192v361h90V205q0-74 30.5-106T289 67z"/><glyph glyph-name="v.sc" horiz-adv-x="517" d="M202 0L12 553h103L265 84h2l146 469h92L324 0H202z"/><glyph glyph-name="w.sc" horiz-adv-x="739" d="M483 0L373 429h-2L259 0H143L19 553h95l91-455h1l118 455h98L541 93h2l86 460h91L599 0H483z"/><glyph glyph-name="x.sc" horiz-adv-x="516" d="M310 282L501 0H395L253 211 115 0H15l186 280L24 553h102l132-208 133 208h97z"/><glyph glyph-name="y.sc" horiz-adv-x="473" d="M287 0h-91v212L0 553h100l141-260h2l139 260h91L287 212V0z"/><glyph glyph-name="z.sc" horiz-adv-x="479" d="M142 76h301V0H33v65l292 412H41v76h391v-68z"/><glyph glyph-name="ae.sc" horiz-adv-x="793" d="M489 76h265V0H398v233H238L113 0H21l295 553h427v-76H489V307h238v-74H489V76zm-91 401h-35l-93-170h128v170z"/><glyph glyph-name="eng.sc" horiz-adv-x="604" d="M372-223q-37 0-72.5 8T250-199l12 68q17-6 43.5-12.5T361-150q32 0 53 18t21 63v55L161 444V0H77v553h115l252-430v430h82V-69q0-81-42-117.5T372-223z"/><glyph glyph-name="eth.sc" horiz-adv-x="589" d="M77 0v250H18v67h59v236h185q74 0 127.5-18.5t88-53.5 51-84.5T545 285q0-63-17.5-115.5t-54-90T381 21 249 0H77zm171 76q106 0 155 52.5T452 283q0 57-13 94t-38 59.5-62 31.5-85 9h-86V317h156v-67H168V76h80z"/><glyph glyph-name="oe.sc" horiz-adv-x="870" d="M487 0v76q-29-41-76.5-64.5T300-12q-66 0-114.5 21.5t-80 60-46.5 91T44 275t17.5 114.5 51.5 91 84 60.5 115 22q62 0 104.5-21t70.5-58v69h333v-76H566V317h238v-75H566V76h265V0H487zM307 64q37 0 68.5 12.5t54 39 35 66.5 12.5 96q0 106-44 156.5T313 485q-39 0-71-12.5t-55-38-36-65-13-92.5q0-108 46-160.5T307 64z"/><glyph glyph-name="thorn.sc" horiz-adv-x="503" d="M167 0H77v553h90v-81h108q55 0 91-14t57.5-37 30-52 8.5-58q0-96-55.5-141.5T245 124h-78V0zm70 199q28 0 52 4t41.5 15.5 27.5 32 10 54.5q0 55-36.5 74T225 398h-58V199h70z"/><glyph glyph-name="germandbls.sc" horiz-adv-x="959" d="M244 491q-58 0-83-21t-25-56q0-23 11.5-38.5t31-26.5 44-19 51.5-15q31-9 61-19.5t54-28 39-43.5 15-66q0-45-17.5-77T379 28 312.5-2.5 234-12q-42 0-78.5 8.5t-64 28T46 76t-23 79l84 12q4-21 11.5-40.5T140 93t36.5-22.5T234 62q21 0 42 3.5t37.5 13 27 26T351 146q0 22-9.5 37T316 208.5 279 226t-44 13q-32 9-65.5 18.5t-61 27-45 46T46 406q0 37 15 66t41.5 49.5 63 31T244 563q37 0 70.5-7t59.5-25 42.5-48.5T437 406l-84-10q-3 20-9 37.5t-18 30-32 20-50 7.5zm481 0q-58 0-83-21t-25-56q0-23 11.5-38.5t31-26.5 44-19 51.5-15q31-9 61-19.5t54-28 39-43.5 15-66q0-45-17.5-77T860 28 793.5-2.5 715-12q-42 0-78.5 8.5t-64 28T527 76t-23 79l84 12q4-21 11.5-40.5T621 93t36.5-22.5T715 62q21 0 42 3.5t37.5 13 27 26T832 146q0 22-9.5 37T797 208.5 760 226t-44 13q-32 9-65.5 18.5t-61 27-45 46T527 406q0 37 15 66t41.5 49.5 63 31T725 563q37 0 70.5-7t59.5-25 42.5-48.5T918 406l-84-10q-3 20-9 37.5t-18 30-32 20-50 7.5z"/><glyph glyph-name="kgreenlandic.sc" horiz-adv-x="532" d="M168 294l239 259h103L292 318 516 0H409L228 251l-60-63V0H77v553h91V294z"/><glyph glyph-name="dotlessi.sc" horiz-adv-x="246" d="M168 0H77v553h91V0z"/><glyph glyph-name="aacute.sc" horiz-adv-x="564" d="M336 553L536 0H436l-54 152H174L122 0H30l192 553h114zm-58-72h-1l-84-255h168zm3 126l-66 12 97 163h109z"/><glyph glyph-name="abreve.sc" horiz-adv-x="564" d="M336 553L536 0H436l-54 152H174L122 0H30l192 553h114zm-58-72h-1l-84-255h168zm156 281q-2-75-41.5-115T278 607q-71 0-108 37t-39 115l67 9q5-56 24.5-76.5T281 671q41 0 62.5 20.5T369 767z"/><glyph glyph-name="acircumflex.sc" horiz-adv-x="564" d="M336 553L536 0H436l-54 152H174L122 0H30l192 553h114zm-58-72h-1l-84-255h168zm89 131l-89 113-88-114-68 7 112 165h89l113-165z"/><glyph glyph-name="adieresis.sc" horiz-adv-x="564" d="M336 553L536 0H436l-54 152H174L122 0H30l192 553h114zm-58-72h-1l-84-255h168zm-42 226q0-29-17-45.5T174 645q-29 0-46.5 16.5T110 707q0 28 17.5 44.5T174 768q28 0 45-16.5t17-44.5zm210 0q0-29-17-45.5T383 645t-46 16.5-17 45.5q0 28 17 44.5t46 16.5 46-16.5 17-44.5z"/><glyph glyph-name="aeacute.sc" horiz-adv-x="793" d="M489 76h265V0H398v233H238L113 0H21l295 553h427v-76H489V307h238v-74H489V76zm-91 401h-35l-93-170h128v170zm120 130l-66 12 97 163h109z"/><glyph glyph-name="agrave.sc" horiz-adv-x="564" d="M336 553L536 0H436l-54 152H174L122 0H30l192 553h114zm-58-72h-1l-84-255h168zM138 782h109l97-163-66-12z"/><glyph glyph-name="amacron.sc" horiz-adv-x="564" d="M336 553L536 0H436l-54 152H174L122 0H30l192 553h114zm-58-72h-1l-84-255h168zM133 660v71h291v-71H133z"/><glyph glyph-name="aogonek.sc" horiz-adv-x="564" d="M581-147q-17-41-50-61t-68-20q-45 0-72.5 23T363-139q0 22 7 42t17.5 37.5T411-27t25 27l-54 152H174L122 0H30l192 553h114L536 0q-45-34-70-61.5T441-124q0-38 38-38 32 0 54 39zM278 481h-1l-84-255h168z"/><glyph glyph-name="aring.sc" horiz-adv-x="564" d="M380 616q0-54-38-79L536 0H436l-54 152H174L122 0H30l185 534q-39 25-39 78 0 25 8 43.5t22 31 32.5 18.5 38.5 6q42 0 72.5-23t30.5-72zM278 481h-1l-84-255h168zm-1 86q23 0 35 13t12 36-12.5 34.5T277 662q-20 0-34.5-12T228 614q0-47 49-47z"/><glyph glyph-name="aringacute.sc" horiz-adv-x="564" d="M380 616q0-54-38-79L536 0H436l-54 152H174L122 0H30l185 534q-39 25-39 78 0 25 8 43.5t22 31 32.5 18.5 38.5 6q42 0 72.5-23t30.5-72zM278 481h-1l-84-255h168zm-1 86q23 0 35 13t12 36-12.5 34.5T277 662q-20 0-34.5-12T228 614q0-47 49-47zm21 164l-69 12 99 134h110z"/><glyph glyph-name="atilde.sc" horiz-adv-x="564" d="M336 553L536 0H436l-54 152H174L122 0H30l192 553h114zm-58-72h-1l-84-255h168zm-80 270q24 0 44-7t38-16 35-16 34-7q19 0 28.5 9.5T387 756l55-2q4-31-1-54t-17-38-29-22.5-37-7.5q-24 0-44.5 7t-39 16-36 16-34.5 7q-16 0-26.5-10.5T169 624l-56 3q-4 31 2 54.5t18 39 29 23 36 7.5z"/><glyph glyph-name="cacute.sc" horiz-adv-x="563" d="M299-12q-69 0-117 20.5t-79 57T58 154 44 269q0 68 18.5 122.5t53 92.5 84.5 58.5T313 563q46 0 84.5-11.5t67-34.5 45.5-59.5 20-85.5l-83-8q-8 63-39.5 93.5T311 488q-82 0-128-52t-46-161q0-113 41.5-163T301 62q65 0 99 28.5t47 82.5l80-14q-8-47-30-80t-53.5-53-69-29-75.5-9zm-4 619l-66 12 97 163h109z"/><glyph glyph-name="ccaron.sc" horiz-adv-x="563" d="M299-12q-69 0-117 20.5t-79 57T58 154 44 269q0 68 18.5 122.5t53 92.5 84.5 58.5T313 563q46 0 84.5-11.5t67-34.5 45.5-59.5 20-85.5l-83-8q-8 63-39.5 93.5T311 488q-82 0-128-52t-46-161q0-113 41.5-163T301 62q65 0 99 28.5t47 82.5l80-14q-8-47-30-80t-53.5-53-69-29-75.5-9zm-73 789l87-112 89 114 66-7-112-165h-89L154 772z"/><glyph glyph-name="ccedilla.sc" horiz-adv-x="563" d="M221-161q9-5 24-10t32-5q23 0 35.5 12.5T325-131q0 25-17 35.5T252-84l10 74q-59 5-100 27.5T94.5 76 56 161 44 269q0 68 18.5 122.5t53 92.5 84.5 58.5T313 563q46 0 84.5-11.5t67-34.5 45.5-59.5 20-85.5l-83-8q-8 63-39.5 93.5T311 488q-82 0-128-52t-46-161q0-113 41.5-163T301 62q65 0 99 28.5t47 82.5l80-14q-7-44-27-75t-48-51.5-62-31T320-11l-4-33q31-6 55-25.5t24-62.5q0-47-31.5-73.5T285-232q-27 0-48 6.5T204-212z"/><glyph glyph-name="ccircumflex.sc" horiz-adv-x="563" d="M299-12q-69 0-117 20.5t-79 57T58 154 44 269q0 68 18.5 122.5t53 92.5 84.5 58.5T313 563q46 0 84.5-11.5t67-34.5 45.5-59.5 20-85.5l-83-8q-8 63-39.5 93.5T311 488q-82 0-128-52t-46-161q0-113 41.5-163T301 62q65 0 99 28.5t47 82.5l80-14q-8-47-30-80t-53.5-53-69-29-75.5-9zm102 624l-89 113-88-114-68 7 112 165h89l113-165z"/><glyph glyph-name="cdotaccent.sc" horiz-adv-x="563" d="M299-12q-69 0-117 20.5t-79 57T58 154 44 269q0 68 18.5 122.5t53 92.5 84.5 58.5T313 563q46 0 84.5-11.5t67-34.5 45.5-59.5 20-85.5l-83-8q-8 63-39.5 93.5T311 488q-82 0-128-52t-46-161q0-113 41.5-163T301 62q65 0 99 28.5t47 82.5l80-14q-8-47-30-80t-53.5-53-69-29-75.5-9zm77 726q0-32-16.5-49T312 648t-48 17-17 49 17 48.5 48 16.5q64 0 64-65z"/><glyph glyph-name="dcaron.sc" horiz-adv-x="589" d="M77 0v553h185q74 0 127.5-18.5t88-53.5 51-84.5T545 285q0-63-17.5-115.5t-54-90T381 21 249 0H77zm171 76q106 0 155 52.5T452 283q0 57-13 94t-38 59.5-62 31.5-85 9h-86V76h80zm-62 701l87-112 89 114 66-7-112-165h-89L114 772z"/><glyph glyph-name="dcroat.sc" horiz-adv-x="589" d="M77 0v250H18v67h59v236h185q74 0 127.5-18.5t88-53.5 51-84.5T545 285q0-63-17.5-115.5t-54-90T381 21 249 0H77zm171 76q106 0 155 52.5T452 283q0 57-13 94t-38 59.5-62 31.5-85 9h-86V317h156v-67H168V76h80z"/><glyph glyph-name="eacute.sc" horiz-adv-x="472" d="M168 76h265V0H77v553h345v-76H168V317h238v-75H168V76zm73 531l-66 12 97 163h109z"/><glyph glyph-name="ebreve.sc" horiz-adv-x="472" d="M168 76h265V0H77v553h345v-76H168V317h238v-75H168V76zm243 686q-2-75-41.5-115T255 607q-71 0-108 37t-39 115l67 9q5-56 24.5-76.5T258 671q41 0 62.5 20.5T346 767z"/><glyph glyph-name="ecaron.sc" horiz-adv-x="472" d="M168 76h265V0H77v553h345v-76H168V317h238v-75H168V76zm1 701l87-112 89 114 66-7-112-165h-89L97 772z"/><glyph glyph-name="ecircumflex.sc" horiz-adv-x="472" d="M168 76h265V0H77v553h345v-76H168V317h238v-75H168V76zm176 536l-89 113-88-114-68 7 112 165h89l113-165z"/><glyph glyph-name="edieresis.sc" horiz-adv-x="472" d="M168 76h265V0H77v553h345v-76H168V317h238v-75H168V76zm45 631q0-29-17-45.5T151 645q-29 0-46.5 16.5T87 707q0 28 17.5 44.5T151 768q28 0 45-16.5t17-44.5zm210 0q0-29-17-45.5T360 645t-46 16.5-17 45.5q0 28 17 44.5t46 16.5 46-16.5 17-44.5z"/><glyph glyph-name="edotaccent.sc" horiz-adv-x="472" d="M168 76h265V0H77v553h345v-76H168V317h238v-75H168V76zm151 638q0-32-16.5-49T255 648t-48 17-17 49 17 48.5 48 16.5q64 0 64-65z"/><glyph glyph-name="egrave.sc" horiz-adv-x="472" d="M168 76h265V0H77v553h345v-76H168V317h238v-75H168V76zm-47 706h109l97-163-66-12z"/><glyph glyph-name="emacron.sc" horiz-adv-x="472" d="M168 76h265V0H77v553h345v-76H168V317h238v-75H168V76zm-58 584v71h291v-71H110z"/><glyph glyph-name="eogonek.sc" horiz-adv-x="472" d="M442-147q-17-41-50-61t-68-20q-45 0-72.5 23T224-139q0 22 7 42t19 37 27 32 31 28H77v553h345v-76H168V317h238v-75H168V76h265V0h-47q-37-34-60.5-61.5T302-124q0-38 38-38 32 0 54 39z"/><glyph glyph-name="gbreve.sc" horiz-adv-x="597" d="M455 69q-8-18-24.5-33t-39-25.5T342-6t-55-6q-65 0-111 21t-75 58.5-43 89T44 269q0 139 70 216.5T314 563q46 0 84-10t66.5-32.5T510 463t21-86l-85-8q-6 59-37 88t-97 29q-85 0-129.5-54T138 277q0-59 11-100t32.5-66.5 52-36.5T303 63q35 0 61.5 12.5T409 106t27 38.5 9 37.5v35H311v70h222V0h-66zm14 693q-2-75-41.5-115T313 607q-71 0-108 37t-39 115l67 9q5-56 24.5-76.5T316 671q41 0 62.5 20.5T404 767z"/><glyph glyph-name="gcircumflex.sc" horiz-adv-x="597" d="M455 69q-8-18-24.5-33t-39-25.5T342-6t-55-6q-65 0-111 21t-75 58.5-43 89T44 269q0 139 70 216.5T314 563q46 0 84-10t66.5-32.5T510 463t21-86l-85-8q-6 59-37 88t-97 29q-85 0-129.5-54T138 277q0-59 11-100t32.5-66.5 52-36.5T303 63q35 0 61.5 12.5T409 106t27 38.5 9 37.5v35H311v70h222V0h-66zm-53 543l-89 113-88-114-68 7 112 165h89l113-165z"/><glyph glyph-name="gdotaccent.sc" horiz-adv-x="597" d="M455 69q-8-18-24.5-33t-39-25.5T342-6t-55-6q-65 0-111 21t-75 58.5-43 89T44 269q0 139 70 216.5T314 563q46 0 84-10t66.5-32.5T510 463t21-86l-85-8q-6 59-37 88t-97 29q-85 0-129.5-54T138 277q0-59 11-100t32.5-66.5 52-36.5T303 63q35 0 61.5 12.5T409 106t27 38.5 9 37.5v35H311v70h222V0h-66zm-78 645q0-32-16.5-49T313 648t-48 17-17 49 17 48.5 48 16.5q64 0 64-65z"/><glyph glyph-name="gcommaaccent.sc" horiz-adv-x="597" d="M455 69q-8-18-24.5-33t-39-25.5T342-6t-55-6q-65 0-111 21t-75 58.5-43 89T44 269q0 139 70 216.5T314 563q46 0 84-10t66.5-32.5T510 463t21-86l-85-8q-6 59-37 88t-97 29q-85 0-129.5-54T138 277q0-59 11-100t32.5-66.5 52-36.5T303 63q35 0 61.5 12.5T409 106t27 38.5 9 37.5v35H311v70h222V0h-66zM258-69h97l-68-174-68 10z"/><glyph glyph-name="hbar.sc" horiz-adv-x="592" d="M514 467h58v-68h-58V0h-91v241H168V0H77v399H20v68h57v86h91v-86h255v86h91v-86zm-91-148v80H168v-80h255z"/><glyph glyph-name="hcircumflex.sc" horiz-adv-x="592" d="M514 0h-91v241H168V0H77v553h91V319h255v234h91V0zM384 612l-89 113-88-114-68 7 112 165h89l113-165z"/><glyph glyph-name="iacute.sc" horiz-adv-x="246" d="M168 0H77v553h91V0zm-40 607l-66 12 97 163h109z"/><glyph glyph-name="ibreve.sc" horiz-adv-x="246" d="M168 0H77v553h91V0zm110 762q-2-75-41.5-115T122 607q-71 0-108 37t-39 115l67 9q5-56 24.5-76.5T125 671q41 0 62.5 20.5T213 767z"/><glyph glyph-name="icircumflex.sc" horiz-adv-x="246" d="M168 0H77v553h91V0zm43 612l-89 113-88-114-68 7L78 783h89l113-165z"/><glyph glyph-name="idieresis.sc" horiz-adv-x="246" d="M168 0H77v553h91V0zM80 707q0-29-17-45.5T18 645q-29 0-46.5 16.5T-46 707q0 28 17.5 44.5T18 768q28 0 45-16.5T80 707zm210 0q0-29-17-45.5T227 645t-46 16.5-17 45.5q0 28 17 44.5t46 16.5 46-16.5 17-44.5z"/><glyph glyph-name="idotaccent.sc" horiz-adv-x="246" d="M168 0H77v553h91V0zm18 714q0-32-16.5-49T122 648t-48 17-17 49 17 48.5 48 16.5q64 0 64-65z"/><glyph glyph-name="igrave.sc" horiz-adv-x="246" d="M168 0H77v553h91V0zM-14 782H95l97-163-66-12z"/><glyph glyph-name="imacron.sc" horiz-adv-x="246" d="M168 0H77v553h91V0zM-23 660v71h291v-71H-23z"/><glyph glyph-name="iogonek.sc" horiz-adv-x="246" d="M218-147q-17-41-50-61t-68-20q-45 0-72.5 23T0-139q0 22 7 42t18.5 37 25 32T77 0v553h91V0q-21-17-37.5-32T102-61.5 84-91t-6-33q0-38 38-38 32 0 54 39z"/><glyph glyph-name="itilde.sc" horiz-adv-x="246" d="M168 0H77v553h91V0zM42 751q24 0 44-7t38-16 35-16 34-7q19 0 28.5 9.5T231 756l55-2q4-31-1-54t-17-38-29-22.5-37-7.5q-24 0-44.5 7t-39 16-36 16-34.5 7q-16 0-26.5-10.5T13 624l-56 3q-4 31 2 54.5t18 39 29 23 36 7.5z"/><glyph glyph-name="jcircumflex.sc" horiz-adv-x="418" d="M257 553h91V145q0-83-44-120T182-12q-71 0-111.5 32.5T25 128l87 13q2-18 5.5-32.5t11.5-25 21-16 35-5.5q32 0 52 15.5t20 63.5v412zm136 59l-89 113-88-114-68 7 112 165h89l113-165z"/><glyph glyph-name="kcommaaccent.sc" horiz-adv-x="532" d="M168 294l239 259h103L292 318 516 0H409L228 251l-60-63V0H77v553h91V294zm64-363h97l-68-174-68 10z"/><glyph glyph-name="lacute.sc" horiz-adv-x="456" d="M168 76h252V0H77v553h91V76zm-41 531l-66 12 97 163h109z"/><glyph glyph-name="lcaron.sc" horiz-adv-x="456" d="M168 76h252V0H77v553h91V76zm109 473h95l-62-199-66 8z"/><glyph glyph-name="lcommaaccent.sc" horiz-adv-x="456" d="M168 76h252V0H77v553h91V76zm40-145h97l-68-174-68 10z"/><glyph glyph-name="ldot.sc" horiz-adv-x="456" d="M168 76h252V0H77v553h91V76zm233 240q0-32-16.5-49T337 250t-48 17-17 49 17 48.5 48 16.5q64 0 64-65z"/><glyph glyph-name="lslash.sc" horiz-adv-x="456" d="M168 330l161 62v-77l-161-62V76h252V0H77v218L7 192v77l70 26v258h91V330z"/><glyph glyph-name="nacute.sc" horiz-adv-x="604" d="M419 0L161 444V0H77v553h115l252-441v441h82V0H419zM295 607l-66 12 97 163h109z"/><glyph glyph-name="napostrophe.sc" horiz-adv-x="604" d="M419 0L161 444V0H77v553h115l252-441v441h82V0H419zM1 696h97L30 522l-68 10z"/><glyph glyph-name="ncaron.sc" horiz-adv-x="604" d="M419 0L161 444V0H77v553h115l252-441v441h82V0H419zM210 777l87-112 89 114 66-7-112-165h-89L138 772z"/><glyph glyph-name="ncommaaccent.sc" horiz-adv-x="604" d="M419 0L161 444V0H77v553h115l252-441v441h82V0H419zM258-69h97l-68-174-68 10z"/><glyph glyph-name="ntilde.sc" horiz-adv-x="604" d="M419 0L161 444V0H77v553h115l252-441v441h82V0H419zM214 751q24 0 44-7t38-16 35-16 34-7q19 0 28.5 9.5T403 756l55-2q4-31-1-54t-17-38-29-22.5-37-7.5q-24 0-44.5 7t-39 16-36 16-34.5 7q-16 0-26.5-10.5T185 624l-56 3q-4 31 2 54.5t18 39 29 23 36 7.5z"/><glyph glyph-name="oacute.sc" horiz-adv-x="615" d="M304-12q-68 0-117 21.5t-81 60-47 91T44 275t17.5 114.5 52 91 85 60.5T316 563q66 0 114.5-21.5t79.5-59 46-88T571 286q0-67-16.5-122t-50-94T421 9.5 304-12zm4 76q37 0 68 12.5t53.5 38.5 35 67 12.5 97q0 106-44 156t-120 50q-39 0-71-12.5t-55-38-36-65-13-92.5q0-109 46-161t124-52zm-8 543l-66 12 97 163h109z"/><glyph glyph-name="obreve.sc" horiz-adv-x="615" d="M304-12q-68 0-117 21.5t-81 60-47 91T44 275t17.5 114.5 52 91 85 60.5T316 563q66 0 114.5-21.5t79.5-59 46-88T571 286q0-67-16.5-122t-50-94T421 9.5 304-12zm4 76q37 0 68 12.5t53.5 38.5 35 67 12.5 97q0 106-44 156t-120 50q-39 0-71-12.5t-55-38-36-65-13-92.5q0-109 46-161t124-52zm161 698q-2-75-41.5-115T313 607q-71 0-108 37t-39 115l67 9q5-56 24.5-76.5T316 671q41 0 62.5 20.5T404 767z"/><glyph glyph-name="ocircumflex.sc" horiz-adv-x="615" d="M304-12q-68 0-117 21.5t-81 60-47 91T44 275t17.5 114.5 52 91 85 60.5T316 563q66 0 114.5-21.5t79.5-59 46-88T571 286q0-67-16.5-122t-50-94T421 9.5 304-12zm4 76q37 0 68 12.5t53.5 38.5 35 67 12.5 97q0 106-44 156t-120 50q-39 0-71-12.5t-55-38-36-65-13-92.5q0-109 46-161t124-52zm94 548l-89 113-88-114-68 7 112 165h89l113-165z"/><glyph glyph-name="odieresis.sc" horiz-adv-x="615" d="M304-12q-68 0-117 21.5t-81 60-47 91T44 275t17.5 114.5 52 91 85 60.5T316 563q66 0 114.5-21.5t79.5-59 46-88T571 286q0-67-16.5-122t-50-94T421 9.5 304-12zm4 76q37 0 68 12.5t53.5 38.5 35 67 12.5 97q0 106-44 156t-120 50q-39 0-71-12.5t-55-38-36-65-13-92.5q0-109 46-161t124-52zm-37 643q0-29-17-45.5T209 645q-29 0-46.5 16.5T145 707q0 28 17.5 44.5T209 768q28 0 45-16.5t17-44.5zm210 0q0-29-17-45.5T418 645t-46 16.5-17 45.5q0 28 17 44.5t46 16.5 46-16.5 17-44.5z"/><glyph glyph-name="ograve.sc" horiz-adv-x="615" d="M304-12q-68 0-117 21.5t-81 60-47 91T44 275t17.5 114.5 52 91 85 60.5T316 563q66 0 114.5-21.5t79.5-59 46-88T571 286q0-67-16.5-122t-50-94T421 9.5 304-12zm4 76q37 0 68 12.5t53.5 38.5 35 67 12.5 97q0 106-44 156t-120 50q-39 0-71-12.5t-55-38-36-65-13-92.5q0-109 46-161t124-52zM181 782h109l97-163-66-12z"/><glyph glyph-name="ohungarumlaut.sc" horiz-adv-x="615" d="M304-12q-68 0-117 21.5t-81 60-47 91T44 275t17.5 114.5 52 91 85 60.5T316 563q66 0 114.5-21.5t79.5-59 46-88T571 286q0-67-16.5-122t-50-94T421 9.5 304-12zm4 76q37 0 68 12.5t53.5 38.5 35 67 12.5 97q0 106-44 156t-120 50q-39 0-71-12.5t-55-38-36-65-13-92.5q0-109 46-161t124-52zm-42 543l-65 13 73 161h107zm132 0l-66 12 100 164h109z"/><glyph glyph-name="omacron.sc" horiz-adv-x="615" d="M304-12q-68 0-117 21.5t-81 60-47 91T44 275t17.5 114.5 52 91 85 60.5T316 563q66 0 114.5-21.5t79.5-59 46-88T571 286q0-67-16.5-122t-50-94T421 9.5 304-12zm4 76q37 0 68 12.5t53.5 38.5 35 67 12.5 97q0 106-44 156t-120 50q-39 0-71-12.5t-55-38-36-65-13-92.5q0-109 46-161t124-52zM168 660v71h291v-71H168z"/><glyph glyph-name="oslash.sc" horiz-adv-x="615" d="M304-12q-51 0-90 12l-34-67H91l52 102Q92 73 68 135T44 275q0 62 17.5 114.5t52 91 85 60.5T316 563q25 0 47-3.5t42-9.5l34 66h88l-52-101q50-38 73-97.5T571 286q0-67-16.5-122t-50-94T421 9.5 304-12zM138 277q0-55 12-95t34-66l184 361q-27 8-55 8-39 0-71-12.5t-55-38-36-65-13-92.5zM308 64q37 0 68 12.5t53.5 38.5 35 67 12.5 97q0 52-11.5 90T434 433L250 72q14-5 28-6.5t30-1.5z"/><glyph glyph-name="oslashacute.sc" horiz-adv-x="615" d="M304-12q-51 0-90 12l-34-67H91l52 102Q92 73 68 135T44 275q0 62 17.5 114.5t52 91 85 60.5T316 563q25 0 47-3.5t42-9.5l34 66h88l-52-101q50-38 73-97.5T571 286q0-67-16.5-122t-50-94T421 9.5 304-12zM138 277q0-55 12-95t34-66l184 361q-27 8-55 8-39 0-71-12.5t-55-38-36-65-13-92.5zM308 64q37 0 68 12.5t53.5 38.5 35 67 12.5 97q0 52-11.5 90T434 433L250 72q14-5 28-6.5t30-1.5zm-8 543l-66 12 97 163h109z"/><glyph glyph-name="otilde.sc" horiz-adv-x="615" d="M304-12q-68 0-117 21.5t-81 60-47 91T44 275t17.5 114.5 52 91 85 60.5T316 563q66 0 114.5-21.5t79.5-59 46-88T571 286q0-67-16.5-122t-50-94T421 9.5 304-12zm4 76q37 0 68 12.5t53.5 38.5 35 67 12.5 97q0 106-44 156t-120 50q-39 0-71-12.5t-55-38-36-65-13-92.5q0-109 46-161t124-52zm-75 687q24 0 44-7t38-16 35-16 34-7q19 0 28.5 9.5T422 756l55-2q4-31-1-54t-17-38-29-22.5-37-7.5q-24 0-44.5 7t-39 16-36 16-34.5 7q-16 0-26.5-10.5T204 624l-56 3q-4 31 2 54.5t18 39 29 23 36 7.5z"/></font>
</defs>
</svg>
