<svg xmlns="http://www.w3.org/2000/svg"><defs><font horiz-adv-x="1126"><font-face font-family="Stratos Deliveroo SemiBold" font-weight="600" units-per-em="2048" panose-1="2 0 0 0 0 0 0 0 0 0" ascent="1536" descent="-512" x-height="1024" cap-height="1536" bbox="-522 -752 2722 2396" underline-thickness="188" underline-position="-673" unicode-range="U+0020-FB02"/><glyph glyph-name="fi" unicode="fi" horiz-adv-x="1239" d="M965 1202q-75 0-124.5 50T791 1374q0 74 49.5 123t124.5 49q76 0 125-49t49-123q0-73-49-122.5T965 1202zM481 0H184v784H37v240h147v145q0 187 105 287t274 100q92 0 133-10v-250q-40 11-98 11-56 0-86.5-38T481 1159v-135h635V0H819v784H481V0z"/><glyph glyph-name="fl" unicode="fl" horiz-adv-x="1239" d="M1116 0H819v1536h297V0zM481 1159v-135h232V784H481V0H184v784H37v240h147v145q0 187 114 287t296 100q85 0 141-16v-250q-66 17-102 17-71 0-111.5-38.5T481 1159z"/><glyph glyph-name="f_b" unicode="fb" horiz-adv-x="1955" d="M1419-20q-187 0-307 149V0H819v1536h297V901q121 143 303 143 209 0 342-147t133-385q0-236-133.5-384T1419-20zM481 1159v-135h232V784H481V0H184v784H37v240h147v145q0 187 114 287t296 100q85 0 141-16v-250q-53 17-102 17-71 0-111.5-38.5T481 1159zm879-379q-106 0-175-74t-69-194q0-119 69.5-193.5T1360 244t174.5 74.5T1604 512q0 120-69 194t-175 74z"/><glyph glyph-name="f_f_b" unicode="ffb" horiz-adv-x="2590" d="M2054-20q-187 0-307 149V0h-293v1536h297V901q121 143 303 143 209 0 342-147t133-385q0-236-133.5-384T2054-20zM481 0H184v784H37v240h147v145q0 187 114 287t296 100q85 0 141-16v-250q-53 17-102 17-71 0-111.5-38.5T481 1159v-135h338v145q0 187 114 287t296 100q85 0 141-16v-250q-53 17-102 17-71 0-111.5-38.5T1116 1159v-135h232V784h-232V0H819v784H481V0zm1514 780q-106 0-175-74t-69-194q0-119 69.5-193.5T1995 244t174 74.5 69 193.5q0 120-68.5 194T1995 780z"/><glyph glyph-name="f_f" unicode="ff" horiz-adv-x="1413" d="M481 0H184v784H37v240h147v145q0 187 114 287t296 100q85 0 141-16v-250q-53 17-102 17-71 0-111.5-38.5T481 1159v-135h338v145q0 187 114 287t296 100q97 0 153-18v-250q-52 19-114 19-71 0-111.5-38.5T1116 1159v-135h252V784h-252V0H819v784H481V0z"/><glyph glyph-name="f_h" unicode="fh" horiz-adv-x="1894" d="M481 1159v-135h232V784H481V0H184v784H37v240h147v145q0 187 114 287t296 100q85 0 141-16v-250q-53 17-102 17-71 0-111.5-38.5T481 1159zm635-594V0H819v1536h297V887q47 75 123.5 116t169.5 41q166 0 269.5-106T1782 633V0h-297v565q0 114-48 174t-137 60-136.5-59.5T1116 565z"/><glyph glyph-name="f_f_h" unicode="ffh" horiz-adv-x="2529" d="M481 0H184v784H37v240h147v145q0 187 114 287t296 100q85 0 141-16v-250q-53 17-102 17-71 0-111.5-38.5T481 1159v-135h338v145q0 187 114 287t296 100q85 0 141-16v-250q-53 17-102 17-71 0-111.5-38.5T1116 1159v-135h232V784h-232V0H819v784H481V0zm1270 565V0h-297v1536h297V887q47 75 123.5 116t169.5 41q166 0 269.5-106T2417 633V0h-297v565q0 114-48 174t-137 60-136.5-59.5T1751 565z"/><glyph glyph-name="f_f_i" unicode="ffi" horiz-adv-x="1873" d="M1599 1202q-75 0-124.5 50t-49.5 122q0 74 49.5 123t124.5 49q76 0 125.5-49t49.5-123q0-73-49.5-122.5T1599 1202zM481 0H184v784H37v240h147v145q0 187 114 287t296 100q85 0 141-16v-250q-53 17-102 17-71 0-111.5-38.5T481 1159v-135h338v145q0 187 105 287t274 100q92 0 133-10v-250q-40 11-98 11-56 0-86.5-38t-30.5-110v-135h635V0h-297v784h-338V0H819v784H481V0z"/><glyph glyph-name="f_j" unicode="fj" horiz-adv-x="1239" d="M965 1202q-75 0-124.5 50T791 1374q0 74 49.5 123t124.5 49q76 0 125-49t49-123q0-73-49-122.5T965 1202zM739-518q-79 0-129 12v246q38-6 76-6 67 0 100 29t33 102v919H481V0H184v784H37v240h147v145q0 187 114 287t296 100q80 0 133-16v-248q-54 15-98 15-70 0-109-38.5T481 1159v-135h635V-145q0-373-377-373z"/><glyph glyph-name="f_f_j" unicode="ffj" horiz-adv-x="1873" d="M1599 1202q-75 0-124.5 50t-49.5 122q0 74 49.5 123t124.5 49q76 0 125.5-49t49.5-123q0-73-49.5-122.5T1599 1202zM1374-518q-79 0-129 12v246q37-6 76-6 67 0 100 29t33 102v919h-338V0H819v784H481V0H184v784H37v240h147v145q0 187 114 287t296 100q85 0 141-16v-250q-53 17-102 17-71 0-111.5-38.5T481 1159v-135h338v145q0 187 105 287t274 100q92 0 133-10v-250q-40 11-98 11-56 0-86.5-38t-30.5-110v-135h635V-145q0-373-377-373z"/><glyph glyph-name="f_k" unicode="fk" horiz-adv-x="1853" d="M481 1159v-135h232V784H481V0H184v784H37v240h147v145q0 187 114 287t296 100q85 0 141-16v-250q-66 17-102 17-71 0-111.5-38.5T481 1159zM1489 0l-373 537V0H819v1536h297V582l338 442h363l-396-463L1839 0h-350z"/><glyph glyph-name="f_f_k" unicode="ffk" horiz-adv-x="2488" d="M481 0H184v784H37v240h147v145q0 187 114 287t296 100q85 0 141-16v-250q-53 17-102 17-71 0-111.5-38.5T481 1159v-135h338v145q0 187 114 287t296 100q85 0 141-16v-250q-53 17-102 17-71 0-111.5-38.5T1116 1159v-135h232V784h-232V0H819v784H481V0zm1643 0l-373 537V0h-297v1536h297V582l338 442h362l-395-463L2474 0h-350z"/><glyph glyph-name="f_f_l" unicode="ffl" horiz-adv-x="1873" d="M1751 0h-297v1536h297V0zM481 0H184v784H37v240h147v145q0 187 114 287t296 100q85 0 141-16v-250q-53 17-102 17-71 0-111.5-38.5T481 1159v-135h338v145q0 187 114 287t296 100q85 0 141-16v-250q-53 17-102 17-71 0-111.5-38.5T1116 1159v-135h232V784h-232V0H819v784H481V0z"/><glyph glyph-name="f_t" unicode="ft" horiz-adv-x="1433" d="M1368 4q-78-24-172-24-86 0-151.5 18t-118 59-80 114.5T819 350v434H481V0H184v784H37v240h147v145q0 187 114 287t296 100q80 0 133-16v-248q-54 15-98 15-70 0-109-38.5T481 1159v-135h338v287h297v-287h252V784h-252V367q0-70 33.5-103t105.5-33q58 0 113 19V4z"/><glyph glyph-name="f_f_t" unicode="fft" horiz-adv-x="2068" d="M2003 4q-78-24-172-24-86 0-151.5 18t-118 59-80 114.5T1454 350v434h-338V0H819v784H481V0H184v784H37v240h147v145q0 187 114 287t296 100q85 0 141-16v-250q-53 17-102 17-71 0-111.5-38.5T481 1159v-135h338v145q0 187 114 287t296 100q80 0 133-16v-248q-54 15-98 15-70 0-109-38.5t-39-109.5v-135h338v287h297v-287h252V784h-252V367q0-70 33.5-103t105.5-33q58 0 113 19V4z"/><glyph glyph-name=".notdef" horiz-adv-x="1044" d="M20 0v1536h1004V0H20zm164 1427l338-559 338 559H184zM922 209v1116L584 768zm-797 0l338 559-338 557V209zm59-96h676L522 668z"/><glyph glyph-name=".null" horiz-adv-x="0"/><glyph glyph-name="nonmarkingreturn" horiz-adv-x="682"/><glyph glyph-name="space" horiz-adv-x="471"/><glyph glyph-name="exclam" unicode="!" horiz-adv-x="559" d="M410 512H150l-27 1024h313zM279-20q-66 0-112 47t-46 112 46 111.5T279 297q67 0 113-46.5T438 139 392 27 279-20z"/><glyph glyph-name="quotedbl" unicode="&quot;" horiz-adv-x="921" d="M563 1014l-31 522h267l-31-522H563zm-409 0l-31 522h266l-31-522H154z"/><glyph glyph-name="numbersign" unicode="#" d="M637 586l88 358H487l-88-358h238zM492 0l96 391H350L254 0H39l96 391H0v195h184l88 358H117v195h205l98 397h215l-98-397h237l98 397h215l-98-397h137V944H940l-88-358h160V391H803L707 0H492z"/><glyph glyph-name="dollar" unicode="$" d="M401 1176q0-53 24-92t73-78v305q-97-30-97-135zm342-809q0 57-25.5 100T641 553V225q102 37 102 142zM641-256H498v233Q326-5 216 103T106 385v127h279V399q0-144 113-176v434l-133 93q-76 52-126.5 106t-83 134.5T123 1169q0 173 104 273.5T498 1559v233h143v-233q162-23 262.5-132t100.5-290v-107H727v100q0 140-86 177V903l139-94q116-81 180-179t64-235q0-182-106-289.5T641-23v-233z"/><glyph glyph-name="percent" unicode="%" horiz-adv-x="1650" d="M367 727q-146 0-235 103.5T43 1137q0 202 89.5 306.5T367 1548q146 0 233.5-104t87.5-307q0-204-87.5-307T367 727zM211 0l1065 1536h164L375 0H211zm156 918q54 0 80 53t26 166q0 118-26 173.5t-80 55.5q-109 0-109-229 0-219 109-219zm917-930q-146 0-234.5 102.5T961 397q0 203 89 307.5T1284 809q146 0 234-104.5t88-307.5q0-204-87.5-306.5T1284-12zm0 190q54 0 80.5 53t26.5 166q0 230-107 230-108 0-108-230 0-219 108-219z"/><glyph glyph-name="ampersand" unicode="&amp;" horiz-adv-x="1187" d="M530 209q99 0 147 58.5T725 459v71H543q-85 0-136-45t-51-120q0-71 48.5-113.5T530 209zM764 0v158Q680-20 465-20q-176 0-279.5 98.5T82 358q0 90 42.5 165.5T242 651q-63 45-98 110t-35 140q0 154 120 251t314 97q196 0 316-100.5T979 887H709q0 56-46 92.5T543 1016q-73 0-116.5-35.5T383 889q0-54 43-87.5T543 768h624V530h-166V0H764z"/><glyph glyph-name="quotesingle" unicode="'" horiz-adv-x="512" d="M154 1014l-31 522h266l-31-522H154z"/><glyph glyph-name="parenleft" unicode="(" horiz-adv-x="696" d="M160 584q0 529 307 952h229q-286-393-286-952 0-560 286-953H467Q160 54 160 584z"/><glyph glyph-name="parenright" unicode=")" horiz-adv-x="696" d="M539 584q0-529-308-953H0Q287 25 287 584q0 558-287 952h231q308-424 308-952z"/><glyph glyph-name="asterisk" unicode="*" horiz-adv-x="796" d="M485 901l-92 209-86-209-190 135 159 156-217 14 72 221 184-112-39 221h234l-37-221 189 112 75-221-225-14 162-154z"/><glyph glyph-name="plus" unicode="+" d="M973 528H659V197H467v331H154v185h313v331h192V713h314V528z"/><glyph glyph-name="comma" unicode="," horiz-adv-x="477" d="M236-287H84Q185-130 221-20q-67 6-109 53T70 145q0 71 47.5 118.5T238 311q74 0 123-50.5T410 127q0-169-174-414z"/><glyph glyph-name="hyphen" unicode="-" horiz-adv-x="716" d="M625 440H92v252h533V440z"/><glyph glyph-name="period" unicode="." horiz-adv-x="477" d="M240-20q-72 0-120 48T72 145q0 72 48 119t120 47 119-47 47-119q0-70-47.5-117.5T240-20z"/><glyph glyph-name="slash" unicode="/" horiz-adv-x="851" d="M276 0H63l512 1536h213z"/><glyph glyph-name="zero" unicode="0" d="M563-27q-216 0-335 130T109 487v564q0 252 119 382t335 130q218 0 337.5-130t119.5-382V487q0-254-119.5-384T563-27zm0 269q81 0 122.5 55T727 481v574q0 130-41.5 185.5T563 1296q-79 0-121.5-56T399 1055V481q0-129 41.5-184T563 242z"/><glyph glyph-name="one" unicode="1" d="M487 1456v80h293V0H483v1001H209v234h59q117 0 168 51.5t51 169.5z"/><glyph glyph-name="two" unicode="2" d="M979 1124q0-82-25-160t-66-141-91.5-122.5T692 586 590.5 480 504 372t-55-110h544V0H127v131q0 96 31 186t81 161 110.5 137.5 120.5 127T580 861t81 124 31 131q0 93-36 138.5t-97 45.5q-68 0-102.5-46T422 1100V987H135v127q0 213 118.5 331T557 1563q183 0 302.5-114.5T979 1124z"/><glyph glyph-name="three" unicode="3" d="M584-27Q489-27 406.5.5T262 80t-97.5 131.5T129 389v113h287v-82q0-184 168-184 170 0 170 186v49q0 182-181 182H461v265h112q146 0 146 169v66q0 147-135 147t-135-145v-68H162v84q0 187 119 289.5T584 1563q182 0 302-100.5t120-278.5v-78q0-97-43-172T844 813q92-47 144-128.5t52-192.5V389q0-194-129.5-305T584-27z"/><glyph glyph-name="four" unicode="4" d="M319 487h263v799zm717-262H872V0H582v225H84v287l344 1024h444V487h164V225z"/><glyph glyph-name="five" unicode="5" d="M565-27Q376-27 254.5 88T133 410v71h283v-35q0-112 38-161t111-49q69 0 108.5 49T713 434v154q0 211-148 211-113 0-139-103H154v840h794v-260H426V954q80 90 205 90 178 0 270-113t92-331V434q0-219-120.5-340T565-27z"/><glyph glyph-name="six" unicode="6" d="M1020 446q0-222-128.5-347.5T563-27q-201 0-327.5 129.5T109 467v604q0 236 126 364t328 128q124 0 222.5-48.5t158.5-149 60-237.5v-53H713v33q0 192-150 192-164 0-164-239V836q86 127 250 127 76 0 142.5-29.5T909 849t81-142.5 30-196.5v-64zm-621 41v-36q0-111 44-163t122-52q168 0 168 215v36q0 215-168 215-166 0-166-215z"/><glyph glyph-name="seven" unicode="7" d="M666 113V0H369v70q0 155 18.5 296.5t46 247 74.5 221 86.5 194.5 99.5 193q7 12 10.5 18.5t9 17 9.5 18.5H164v260h801v-358l-49.5-99-48.5-97.5-42-89-40-93.5-33-91-31-100.5-22.5-103-18.5-119-9.5-126.5-4.5-146z"/><glyph glyph-name="eight" unicode="8" d="M563-27q-128 0-229.5 47.5T170.5 165 109 395v92q0 114 52.5 197.5T307 815q-74 46-115.5 120T150 1106v78q0 178 117 278.5T563 1563t297.5-100.5T979 1184v-78q0-97-42.5-171T819 815q94-47 147.5-130.5T1020 487v-92q0-198-130-310T563-27zM428 1149v-51q0-166 135-166t135 166v51q0 147-135 147t-135-147zm-33-657v-66q0-184 168-184 170 0 170 184v66q0 184-170 184-168 0-168-184z"/><glyph glyph-name="nine" unicode="9" d="M727 1051v34q0 215-166 215t-166-215v-34q0-215 166-215t166 215zM563-27q-91 0-170.5 28.5T252.5 84t-95 137.5T123 408v53h293v-33q0-192 147-192 164 0 164 241v223q-86-127-250-127-157 0-262.5 119T109 1026v66q0 222 127 346.5T563 1563q202 0 329.5-129t127.5-363V467q0-235-127.5-364.5T563-27z"/><glyph glyph-name="colon" unicode=":" horiz-adv-x="477" d="M240 713q-72 0-120 48.5T72 879q0 72 48 118.5t120 46.5 119-46.5T406 879q0-70-47.5-118T240 713zm0-733q-72 0-120 48T72 145q0 72 48 119t120 47 119-47 47-119q0-70-47.5-117.5T240-20z"/><glyph glyph-name="semicolon" unicode=";" horiz-adv-x="477" d="M240 713q-72 0-120 48.5T72 879q0 72 48 118.5t120 46.5 119-46.5T406 879q0-70-47.5-118T240 713zm-4-1000H84Q185-130 221-20q-67 6-109 53T70 145q0 71 47.5 118.5T238 311q74 0 123-50.5T410 127q0-169-174-414z"/><glyph glyph-name="less" unicode="&lt;" d="M973 131L154 530v183l819 399V899L391 621l582-279V131z"/><glyph glyph-name="equal" unicode="=" d="M154 733v185h819V733H154zm0-409v184h819V324H154z"/><glyph glyph-name="greater" unicode="&gt;" d="M154 131v211l583 279-583 278v213l819-399V530z"/><glyph glyph-name="question" unicode="?" horiz-adv-x="1017" d="M973 1151q0-61-17.5-114t-46-92-63-75-69-70.5-63-69-47.5-79-20-94.5l-2-45H383v61q0 70 22.5 133t56 107 73 88.5 73 79.5 56 78.5T686 1147q0 72-44.5 110.5T514 1296t-133.5-50.5T330 1087v-65H41v88q0 109 38.5 195.5T184 1446t150.5 82 179.5 28q205 0 332-107t127-298zM514-20q-66 0-113 47t-47 112 47 111.5T514 297q67 0 113.5-46.5T674 139 627.5 27 514-20z"/><glyph glyph-name="at" unicode="@" horiz-adv-x="1763" d="M870-328q-164 0-310 61.5T309-100 143 151.5 82 461q0 164 61 310t166 251 251 166 310 61q168 0 319-61t258.5-164T1618 778t63-301q0-249-93-373T1337-20q-95 0-168 38t-112 109Q953-20 748-20q-82 0-152.5 28.5T477.5 99 430 246q0 76 32.5 129.5T547 455t114.5 42 125 25T901 541t84.5 32.5T1018 633q0 48-42.5 77T870 739q-69 0-109-35t-40-100H459q0 70 23 127.5t62 95.5 93 64 113 37.5T874 940q82 0 153.5-18.5t130-57 92.5-104 34-152.5V256q0-143 105-143 75 0 120 93.5t45 270.5q0 180-89.5 330.5t-247 238T870 1133q-185 0-336-88T297 803t-86-342q0-187 86.5-341T535-122.5 870-211q169 0 320 82l49-109q-172-90-369-90zm-53 514q86 0 143.5 48t57.5 133v47q-39-17-103-30t-109-21-79.5-31-34.5-62q0-42 34.5-63t90.5-21z"/><glyph glyph-name="A" unicode="A" horiz-adv-x="1044" d="M643 569l-121 742-121-742h242zM737 0l-51 313H358L307 0H16l279 1536h455L1030 0H737z"/><glyph glyph-name="B" unicode="B" d="M557 1280H416V932h141q86 0 129 41.5t43 132.5v20q0 81-43 117.5T557 1280zm33-604H416V256h174q174 0 174 209v20q0 101-44 146t-130 45zM123 0v1536h459q198 0 316-99t118-282v-20q0-213-187-299 108-46 170-137.5t62-219.5v-41q0-208-118-323T627 0H123z"/><glyph glyph-name="C" unicode="C" horiz-adv-x="1167" d="M768 625h297V508q0-263-126.5-399T584-27 229 109 102 508v522q0 262 126.5 397.5T584 1563q228 0 354.5-135t126.5-398v-98H768v102q0 144-46.5 205T584 1300q-90 0-137.5-61T399 1034V502q0-144 47-205t138-61 137.5 61T768 502v123z"/><glyph glyph-name="D" unicode="D" horiz-adv-x="1167" d="M584 1536q228 0 354.5-131t126.5-385V518q0-255-126.5-386.5T584 0H123v1536h461zm0-1274q91 0 137.5 57.5T768 512v512q0 135-46.5 193.5T584 1276H420V262h164z"/><glyph glyph-name="E" unicode="E" horiz-adv-x="929" d="M123 0v1536h735v-260H418V918h399V655H418V262h440V0H123z"/><glyph glyph-name="F" unicode="F" horiz-adv-x="888" d="M793 614H418V0H123v1536h725v-260H418V877h375V614z"/><glyph glyph-name="G" unicode="G" horiz-adv-x="1177" d="M827 0v160Q736-27 522-27q-199 0-309.5 136T102 508v522q0 262 126.5 397.5T584 1563q228 0 354.5-135t126.5-398v-69H768v73q0 144-46.5 205T584 1300q-90 0-137.5-61T399 1034V502q0-144 47-205t138-61q184 0 184 251v82H559v250h506V0H827z"/><glyph glyph-name="H" unicode="H" horiz-adv-x="1208" d="M788 0v657H420V0H123v1536h297V920h368v616h297V0H788z"/><glyph glyph-name="I" unicode="I" horiz-adv-x="542" d="M420 0H123v1536h297V0z"/><glyph glyph-name="J" unicode="J" horiz-adv-x="1071" d="M668 1536h297V426q0-219-123-336T518-27q-130 0-229.5 49.5T130.5 176 72 426v162h297V436q0-110 38-155t111-45q74 0 112 45t38 155v1100z"/><glyph glyph-name="K" unicode="K" horiz-adv-x="1071" d="M733 0L418 741V0H123v1536h295V799l319 737h316L700 811 1071 0H733z"/><glyph glyph-name="L" unicode="L" horiz-adv-x="888" d="M123 0v1536h297V262h448V0H123z"/><glyph glyph-name="M" unicode="M" horiz-adv-x="1597" d="M629 0L385 1343V0H123v1536h479L799 365l190 1171h486V0h-277v1333L954 0H629z"/><glyph glyph-name="N" unicode="N" horiz-adv-x="1208" d="M631 0L377 1331V0H123v1536h457L831 223v1313h254V0H631z"/><glyph glyph-name="O" unicode="O" horiz-adv-x="1167" d="M584-27q-229 0-355.5 135.5T102 508v522q0 262 126.5 397.5T584 1563q228 0 354.5-135t126.5-398V508q0-264-126-399.5T584-27zm0 263q91 0 137.5 61T768 502v532q0 144-46.5 205T584 1300q-90 0-137.5-61T399 1034V502q0-144 47-205t138-61z"/><glyph glyph-name="P" unicode="P" horiz-adv-x="1085" d="M569 1280H416V815h153q181 0 181 215v51q0 105-46.5 152T569 1280zm19-721H416V0H123v1536h465q205 0 325.5-112.5T1034 1102v-92q0-215-121-333T588 559z"/><glyph glyph-name="Q" unicode="Q" horiz-adv-x="1167" d="M584 236q38 0 73 12L457 539h254l55-86q2 16 2 49v532q0 144-46.5 205T584 1300q-90 0-137.5-61T399 1034V502q0-144 47-205t138-61zM840 0l-72 109Q741 40 678.5 6.5T532-27q-195 0-312.5 138T102 508v522q0 262 126.5 397.5T584 1563q228 0 354.5-135t126.5-398V528q0-216-109-311L1096 0H840z"/><glyph glyph-name="R" unicode="R" d="M578 1280H418V868h160q180 0 180 203v27q0 182-180 182zM418 756V0H123v1536h487q199 0 321-104.5t122-294.5v-60q0-153-79.5-249.5T756 696L1096 0H758z"/><glyph glyph-name="S" unicode="S" horiz-adv-x="993" d="M84 1161q0 104 32.5 183t90 126 131.5 70 162 23q183 0 300.5-106T918 1153v-109H633v103q0 83-35 123.5t-98 40.5q-58 0-93.5-35.5T371 1176q0-70 36.5-117.5T526 950l176-129q111-83 173.5-182.5T938 401q0-205-123.5-316.5T502-27q-122 0-219 47T127 162 68 385v127h286V399q0-81 40.5-127.5T502 225q68 0 107.5 38T649 367q0 76-39 128T485 612L317 737q-112 81-172.5 180.5T84 1161z"/><glyph glyph-name="T" unicode="T" horiz-adv-x="888" d="M868 1276H594V0H297v1276H20v260h848v-260z"/><glyph glyph-name="U" unicode="U" horiz-adv-x="1167" d="M113 1536h297V477q0-130 44-185.5T584 236t130 55.5T758 477v1059h297V481q0-251-123.5-379.5T584-27 236.5 101.5 113 481v1055z"/><glyph glyph-name="V" unicode="V" horiz-adv-x="1044" d="M295 0L16 1536h291L522 225l215 1311h293L750 0H295z"/><glyph glyph-name="W" unicode="W" horiz-adv-x="1536" d="M203 0L16 1536h281L424 266l145 1270h394l149-1264 127 1264h283L1333 0H915L768 1282 625 0H203z"/><glyph glyph-name="X" unicode="X" horiz-adv-x="1003" d="M694 0L502 584 309 0H0l315 788-297 748h308l176-551 176 551h307L688 788 1004 0H694z"/><glyph glyph-name="Y" unicode="Y" horiz-adv-x="983" d="M641 559V0H344v559L0 1536h289l203-635 202 635h289z"/><glyph glyph-name="Z" unicode="Z" horiz-adv-x="901" d="M870 0H51v324l520 952H61v260h789v-322L332 262h538V0z"/><glyph glyph-name="bracketleft" unicode="[" horiz-adv-x="696" d="M170-369v1905h522v-209H426V-160h266v-209H170z"/><glyph glyph-name="backslash" unicode="\" horiz-adv-x="851" d="M575 0L63 1536h213L788 0H575z"/><glyph glyph-name="bracketright" unicode="]" horiz-adv-x="696" d="M6-369v209h266v1487H6v209h522V-369H6z"/><glyph glyph-name="asciicircum" unicode="^" d="M842 717l-279 583-278-583H74l399 819h182l400-819H842z"/><glyph glyph-name="underscore" unicode="_" horiz-adv-x="1024" d="M932-391H92v188h840v-188z"/><glyph glyph-name="grave" unicode="`" horiz-adv-x="1024" d="M406 1229l-191 307h307l119-307H406z"/><glyph glyph-name="a" unicode="a" d="M500 199q97 0 163 55t66 154v53q-37-16-90.5-29t-97-22-84-21.5-63.5-35-23-56.5q0-48 36-73t93-25zM735 0v156Q642-20 410-20q-89 0-163 29.5T123.5 107 74 272q0 88 36 150t93.5 92.5T330 564t138.5 28.5 127 20.5 93.5 35.5 36 64.5q0 53-45.5 83.5T563 827q-77 0-121.5-40.5T397 672H104q0 97 39 170.5T249 959t148 64 174 21q92 0 170.5-19t143-58 101-106 36.5-156V0H735z"/><glyph glyph-name="b" unicode="b" horiz-adv-x="1259" d="M723-20q-187 0-307 149V0H123v1536h297V901q121 143 303 143 209 0 342-147t133-385q0-236-133.5-384T723-20zm-59 800q-106 0-175-74t-69-194 69-194 175-74 174.5 74T907 512t-68.5 194T664 780z"/><glyph glyph-name="c" unicode="c" horiz-adv-x="1171" d="M1104 633H801q-18 71-76.5 109T588 780q-104 0-170-74t-66-194q0-121 65.5-194.5T588 244q79 0 138 44t79 126h303q-20-196-163.5-315T586-20q-227 0-376 149.5T61 512t149 382.5T586 1044q209 0 349.5-112T1104 633z"/><glyph glyph-name="d" unicode="d" horiz-adv-x="1259" d="M596 780q-106 0-174-74t-68-194 68-194 174-74q107 0 175.5 74T840 512t-68.5 194T596 780zM846 0v131Q726-20 539-20q-210 0-344 147.5T61 512q0 238 133.5 385T539 1044q180 0 301-143v635h297V0H846z"/><glyph glyph-name="e" unicode="e" horiz-adv-x="1159" d="M580 801q-94 0-153.5-50.5T348 604h463q-19 97-78 147t-153 50zm493-477q-47-168-175-256T580-20q-227 0-373 149T61 512t146 383 373 149q226 0 372-149t146-383q0-28-4-82H346q38-207 242-207 141 0 184 101h301z"/><glyph glyph-name="f" unicode="f" horiz-adv-x="778" d="M481 1159v-135h252V784H481V0H184v784H37v240h147v145q0 187 114 287t296 100q98 0 154-18v-250q-52 19-115 19-71 0-111.5-38.5T481 1159z"/><glyph glyph-name="g" unicode="g" horiz-adv-x="1105" d="M532 518q68 0 112 42.5T688 670q0 69-43.5 111T532 823t-112-42-43-111q0-67 43.5-109.5T532 518zm551-713q0-155-122.5-246T592-532h-72q-236 0-356.5 75.5T43-256q0 65 42 118.5T199-51Q135-17 99 37.5T63 158q0 81 49.5 141.5T252 389Q115 497 115 670q0 162 120.5 268T532 1044q186 0 306-114l41 61q21 30 41.5 41.5T981 1044h104V776H934q16-53 16-106 0-163-121.5-269T532 295q-83 0-165 29-31-8-50.5-31T297 238q0-44 33-69.5t96-25.5h221q436 0 436-338zM547-307h39q233 0 233 114 0 101-203 101H510q-205 0-205-101 0-54 54-84t188-30z"/><glyph glyph-name="h" unicode="h" horiz-adv-x="1198" d="M420 565V0H123v1536h297V887q47 75 123.5 116t169.5 41q166 0 269-106t103-305V0H788v565q0 115-47.5 174.5T604 799t-136.5-59.5T420 565z"/><glyph glyph-name="i" unicode="i" horiz-adv-x="542" d="M272 1202q-76 0-127 50t-51 122q0 74 51 123t127 49 126.5-49 50.5-123q0-73-50.5-122.5T272 1202zM420 0H123v1024h297V0z"/><glyph glyph-name="j" unicode="j" horiz-adv-x="542" d="M272 1202q-76 0-127 50t-51 122q0 74 51 123t127 49 126.5-49 50.5-123q0-73-50.5-122.5T272 1202zM123-135v1159h297V-145q0-373-377-373-81 0-131 12v246q38-6 78-6 67 0 100 29t33 102z"/><glyph glyph-name="k" unicode="k" horiz-adv-x="1157" d="M793 0L420 537V0H123v1536h297V582l338 442h362L725 561 1143 0H793z"/><glyph glyph-name="l" unicode="l" horiz-adv-x="542" d="M420 0H123v1536h297V0z"/><glyph glyph-name="m" unicode="m" horiz-adv-x="1792" d="M420 582V0H123v1024h293V891q44 73 116.5 113t161.5 40q108 0 190.5-47T1010 858q44 89 127 137.5t188 48.5q159 0 256.5-102t97.5-293V0h-297v582q0 106-43 161.5T1217 799q-80 0-123-55.5T1051 582V0H754v582q0 106-44 161.5T586 799q-79 0-122.5-55.5T420 582z"/><glyph glyph-name="n" unicode="n" horiz-adv-x="1198" d="M420 565V0H123v1024h293V879q46 79 123.5 122t173.5 43q166 0 269-106t103-305V0H788v565q0 115-47.5 174.5T604 799t-136.5-59.5T420 565z"/><glyph glyph-name="o" unicode="o" horiz-adv-x="1187" d="M594-20q-231 0-382 149T61 512t151 383 382 149 381.5-149T1126 512 975.5 129 594-20zm0 264q107 0 175.5 74.5T838 512q0 120-68.5 194T594 780q-106 0-175-74t-69-194q0-119 69.5-193.5T594 244z"/><glyph glyph-name="p" unicode="p" horiz-adv-x="1259" d="M664 244q106 0 174.5 74T907 512t-68.5 194T664 780t-175-74-69-194 69-194 175-74zm59-264q-182 0-303 143v-635H123v1536h293V895q120 149 307 149 209 0 342-147t133-385q0-236-133.5-384T723-20z"/><glyph glyph-name="q" unicode="q" horiz-adv-x="1259" d="M1137-512H840v635Q719-20 539-20q-210 0-344 147.5T61 512q0 238 133.5 385T539 1044q187 0 307-151v131h291V-512zM596 244q107 0 175.5 74T840 512t-68.5 194T596 780q-106 0-174-74t-68-194 68-194 174-74z"/><glyph glyph-name="r" unicode="r" horiz-adv-x="825" d="M420 518V0H123v1024h287V846q51 96 136 147t193 51q40 0 52-4V737q-49 17-107 17-126 0-195-61t-69-175z"/><glyph glyph-name="s" unicode="s" horiz-adv-x="1032" d="M967 303q0-149-122-236T532-20q-204 0-334 96T68 338h286q0-72 49-111t127-39q69 0 107.5 25t38.5 74q0 36-25.5 59.5t-67 34.5-94.5 23-108 21-108 31.5-94.5 53.5-67 87T86 729q0 145 117.5 230t298.5 85q190 0 318-99.5T948 698H662q0 59-45.5 98.5T504 836q-60 0-97.5-25.5T369 743q0-36 33-58.5t85.5-34.5T604 627.5t128-31T848.5 544t85.5-93.5T967 303z"/><glyph glyph-name="t" unicode="t" horiz-adv-x="798" d="M481 367q0-70 34-103t106-33q57 0 112 19V4q-82-24-172-24-86 0-151.5 18t-118 59-80 114.5T184 350v434H37v240h147v303h297v-303h252V784H481V367z"/><glyph glyph-name="u" unicode="u" horiz-adv-x="1187" d="M774 0v145Q728 66 652 23T481-20Q316-20 214.5 86T113 391v633h297V459q0-114 47-174t133-60 132 59.5T768 459v565h297V0H774z"/><glyph glyph-name="v" unicode="v" horiz-adv-x="1024" d="M293 0L16 1024h297l199-821 199 821h297L731 0H293z"/><glyph glyph-name="w" unicode="w" horiz-adv-x="1566" d="M254 0L25 1024h270l156-799 155 799h355l155-799 156 799h270L1313 0H940L784 803 627 0H254z"/><glyph glyph-name="x" unicode="x" horiz-adv-x="1064" d="M735 0L524 352 332 0H0l338 528-320 496h328l193-328 180 328h328L725 526 1065 0H735z"/><glyph glyph-name="y" unicode="y" horiz-adv-x="1026" d="M188-532q-95 0-174 22v238q90-21 144-21 145 0 223 127L8 1024h293l209-801 217 801h291L686-45q-34-118-74.5-203t-99-151.5-139-99.5T188-532z"/><glyph glyph-name="z" unicode="z" horiz-adv-x="962" d="M922 0H61v303l531 481H72v240h809V723L352 242h570V0z"/><glyph glyph-name="braceleft" unicode="{" horiz-adv-x="696" d="M692-369H569q-135 0-220 84.5T264-57v393q0 59-31.5 91T164 459H70v250h94q38 0 69 31.5t31 90.5v394q0 143 84.5 227t220.5 84h123v-209h-59q-52 0-82.5-36.5T520 1184V797q0-64-32-119.5T403 584q53-38 85-93.5T520 371V-16q0-70 30.5-107t82.5-37h59v-209z"/><glyph glyph-name="bar" unicode="|" horiz-adv-x="563" d="M381-512H182v2048h199V-512z"/><glyph glyph-name="braceright" unicode="}" horiz-adv-x="696" d="M434-57q0-142-85.5-227T129-369H6v209h60q51 0 81.5 37T178-16v387q0 64 31 119.5t84 93.5q-53 38-84 93.5T178 797v387q0 70-30.5 106.5T66 1327H6v209h123q134 0 219.5-84.5T434 1225V831q0-59 30.5-90.5T532 709h95V459h-95q-37 0-67.5-32T434 336V-57z"/><glyph glyph-name="asciitilde" unicode="~" d="M412 586q-33 0-55.5-22.5T334 500v-33H143v63q0 121 63 188.5T369 786q56 0 113-20.5t94.5-45 79.5-45 73-20.5q28 0 47 23t19 65v33h188v-63q0-123-60.5-189.5T764 457q-47 0-98.5 20t-88 44.5T495 566t-83 20z"/><glyph glyph-name="exclamdown" unicode="¡" horiz-adv-x="559" d="M279 1044q67 0 113-46t46-111-46-112.5T279 727q-65 0-111.5 47.5T121 887t46 111 112 46zM150 512h260l26-1024H123z"/><glyph glyph-name="cent" unicode="¢" d="M311 768q0-106 50.5-177T498 498v540q-85-22-136-94t-51-176zm781-98q-19-179-140.5-294.5T641 240V0H498v240q-208 22-339.5 167T27 768t131.5 361T498 1296v240h143v-240q182-20 301.5-128.5T1087 889H788q-13 58-52 95.5t-95 51.5V500q58 18 99 61t55 109h297z"/><glyph glyph-name="sterling" unicode="£" d="M1008 262V0H111v131q136 160 180.5 254T336 618q0 18-4 46H131v155h127q-70 106-91 151-42 90-42 183 0 196 123 303t315 107q191 0 313.5-117T999 1118v-47H713v31q0 108-38.5 153T561 1300q-70 0-109.5-37.5T412 1147q0-52 22-104t62.5-119T555 819h340V664H598q2-10 2-31 0-112-33-208t-82-163h523z"/><glyph glyph-name="currency" unicode="¤" d="M797 254L670 379q-58-21-107-21t-110 21L340 266 209 397l108 109q-24 52-24 112 0 64 24 113L197 854l135 135 127-127q49 19 104 19 51 0 109-21l116 117 132-131-113-113q27-59 27-115t-25-108l123-121zM563 516q43 0 72 29t29 73-29 73.5-72 29.5-72.5-29.5T461 618t29.5-73 72.5-29z"/><glyph glyph-name="yen" unicode="¥" d="M944 502H713V0H416v502H176v157h240v224H176v155h168L63 1536h285l215-410 215 410h285l-279-498h160V883H713V659h231V502z"/><glyph glyph-name="brokenbar" unicode="¦" horiz-adv-x="563" d="M381 717H182v819h199V717zm0-1229H182v819h199v-819z"/><glyph glyph-name="section" unicode="§" horiz-adv-x="1019" d="M510 369q68 0 111 39.5T664 512q0 65-43 104t-111 39q-66 0-110-39t-44-104q0-63 44-103t110-40zm4-908q-119 0-211.5 41T153-368.5 96-154v78h285v-71q0-73 35-110.5t98-37.5q59 0 94 29.5t35 83.5q0 31-10 56t-35 49.5-46 40T487 8L324 117q-121 81-184.5 168.5T76 496q0 226 227 331-108 90-158.5 170T94 1188q0 98 32.5 171.5t90 117 131.5 65 162 21.5q183 0 299.5-99.5T926 1176v-76H643v71q0 73-35 110.5t-98 37.5q-59 0-94-29.5t-35-85.5q0-57 36.5-96t119.5-94l174-115q112-74 173.5-161T946 528q0-222-221-329 105-77 155-163t50-200q0-98-32.5-171.5t-90-117-131.5-65T514-539z"/><glyph glyph-name="dieresis" unicode="¨" horiz-adv-x="1024" d="M721 1239q-58 0-99.5 42T580 1382t41.5 101.5T721 1526q61 0 102-42.5t41-101.5-41-101-102-42zm-418 0q-59 0-101 42.5T160 1382q0 60 42 102t101 42q60 0 101.5-42t41.5-102q0-59-41.5-101T303 1239z"/><glyph glyph-name="copyright" unicode="©" horiz-adv-x="1699" d="M850-20q-165 0-311 63T291 212.5t-160.5 251T72 768q0 162 58.5 307T291 1326t247.5 168 311.5 62 311.5-62 247.5-168 160.5-251 58.5-307q0-160-58.5-304.5t-160.5-251T1161 43 850-20zm0 1460q-184 0-334-91t-232.5-244.5T201 768t82.5-336T516 188.5 850 98q185 0 335 90.5T1418 432t83 336-83 336.5-233.5 244.5-334.5 91zm424-576h-244q-20 55-68.5 87T852 983q-88 0-143.5-59.5T653 768q0-97 55-156t144-59q66 0 115.5 36t68.5 99h242q-22-157-139.5-253.5T850 338q-186 0-308 121T420 768t122 309 308 121q166 0 282.5-91.5T1274 864z"/><glyph glyph-name="ordfeminine" unicode="ª" horiz-adv-x="776" d="M340 698q54 0 89.5 32t35.5 89v41q-28-15-83.5-26.5T295 807t-31-47q0-28 22-45t54-17zm131-137v105q-59-117-213-117-85 0-148 49.5T47 739q0 56 23 95.5t59.5 59T210 925t88 18 80.5 13.5 59.5 23 23 40.5q0 32-24.5 49.5T373 1087q-47 0-72-24t-25-68H66q0 85 47 142t116 80.5 154 23.5q84 0 149-21t108.5-74 43.5-132V561H471zm213-383H92v195h592V178z"/><glyph glyph-name="guillemotleft" unicode="«" horiz-adv-x="1173" d="M1085 88L625 385v277l460 296V696L791 522l294-174V88zm-536 0L88 385v277l461 296V696L254 522l295-174V88z"/><glyph glyph-name="logicalnot" unicode="¬" d="M973 197H780v331H154v185h819V197z"/><glyph glyph-name="registered" unicode="®" horiz-adv-x="1019" d="M510 610q-132 0-240 64.5T102.5 847 43 1083q0 130 60 238t167.5 171.5T510 1556t239.5-63.5T917 1321t60-238q0-128-59.5-236T750 674.5 510 610zm0 863q-161 0-269-113.5T133 1083t108-276 269-113 269 113 108 276-108 276.5T510 1473zm14-256h-71v-91h71q24 0 39 12.5t15 35.5q0 43-54 43zm54-379l-107 186h-18V838H319v491h213q80 0 128.5-35.5T709 1178q0-48-26-84t-69-54l123-202H578z"/><glyph glyph-name="macron" unicode="¯" horiz-adv-x="1024" d="M811 1434v-189H227v189h584z"/><glyph glyph-name="degree" unicode="°" horiz-adv-x="735" d="M369 1024q-115 0-191 73t-76 183 76 183 191 73q114 0 189-73t75-183-75-183-189-73zm0 154q43 0 71.5 29t28.5 73-28.5 73-71.5 29-73-29-30-73 30-73 73-29z"/><glyph glyph-name="plusminus" unicode="±" d="M973 545H659V227H467v318H154v184h313v315h192V729h314V545zM154 0v184h819V0H154z"/><glyph glyph-name="twosuperior" unicode="²" horiz-adv-x="647" d="M614 1100q0-54-26.5-104t-68-88-84-70.5-82-65.5-54.5-59h319V537H35v71q0 61 28 116.5t69.5 95 90 78 90 68 69.5 63 28 63.5q0 35-22.5 56t-59.5 21q-88 0-88-94v-26H39v43q0 120 81.5 187t207.5 67q123 0 204.5-64.5T614 1100z"/><glyph glyph-name="threesuperior" unicode="³" horiz-adv-x="706" d="M365 524q-149 0-239.5 73T35 795h207q0-46 32-73.5t82-27.5q46 0 74.5 24t28.5 62q0 84-109 84h-78v162h78q41 0 64.5 19.5T438 1098q0 35-24.5 53t-67.5 18-67.5-22.5T254 1081H49q0 125 79.5 195t223.5 70q136 0 217.5-63.5T651 1116q0-109-96-164 117-62 117-186 0-114-83-178t-224-64z"/><glyph glyph-name="acute" unicode="´" horiz-adv-x="1024" d="M641 1229H406l116 307h307z"/><glyph glyph-name="paragraph" unicode="¶" horiz-adv-x="1310" d="M1167-512H983v2048h184V-512zm-389 0H594V559h-8q-206 0-334.5 118.5T123 1010v92q0 207 128 320.5T586 1536h192V-512z"/><glyph glyph-name="periodcentered" unicode="·" horiz-adv-x="538" d="M270 367q-72 0-120 48t-48 117q0 71 48 118.5T270 698t119-47.5T436 532q0-70-47.5-117.5T270 367z"/><glyph glyph-name="cedilla" unicode="¸" horiz-adv-x="1024" d="M512-512q-104 0-172 51.5T272-336h162q3-21 24.5-34t53.5-13q34 0 58 23t24 57q0 35-24 58.5T512-221q-27 0-46-10.5T442-254H283L442 0h154l-61-92q95 0 156-61.5T752-303q0-89-67-149t-173-60z"/><glyph glyph-name="onesuperior" unicode="¹" horiz-adv-x="458" d="M174 1321v12h217V537H168v495H20v168h39q60 0 87.5 28.5T174 1321z"/><glyph glyph-name="ordmasculine" unicode="º" horiz-adv-x="776" d="M389 549q-152 0-252 97T37 895q0 154 100 250t252 96 251-96 99-250q0-153-99-249.5T389 549zm0 196q60 0 98.5 41.5T526 895q0 68-38 110t-99 42q-62 0-100.5-41.5T250 895q0-67 38.5-108.5T389 745zm295-567H92v195h592V178z"/><glyph glyph-name="guillemotright" unicode="»" horiz-adv-x="1173" d="M88 88v260l295 174L88 696v262l461-296V385zm537 0v260l295 174-295 174v262l460-296V385z"/><glyph glyph-name="onequarter" unicode="¼" horiz-adv-x="1650" d="M211 0l1065 1536h164L375 0H211zm127 1524v12h217V739H332v496H184v168h39q60 0 87.5 28.5T338 1524zm749-1217h160v340zm488-170h-119V0h-209v137H897v164l238 496h321V307h119V137z"/><glyph glyph-name="onehalf" unicode="½" horiz-adv-x="1650" d="M211 0l1065 1536h164L375 0H211zm127 1524v12h217V739H332v496H184v168h39q60 0 87.5 28.5T338 1524zm1194-961q0-54-26.5-104t-68-88-84-70.5-82-65.5-54.5-59h319V0H952v72q0 61 28 116.5t69.5 94.5 90 78 90 68 69.5 62.5 28 63.5q0 35-22.5 56.5T1245 633q-88 0-88-94v-27H956v43q0 120 81.5 187t207.5 67q123 0 205-64.5t82-181.5z"/><glyph glyph-name="threequarters" unicode="¾" horiz-adv-x="1650" d="M211 0l1065 1536h164L375 0H211zm154 727q-149 0-239.5 72.5T35 997h207q0-46 31.5-73t82.5-27q46 0 74.5 24t28.5 62q0 84-109 84h-78v162h78q41 0 64.5 19.5T438 1300q0 35-24.5 53.5T346 1372t-67.5-22.5T254 1284H49q0 125 79.5 194.5T352 1548q136 0 217.5-63t81.5-166q0-109-96-164 117-62 117-186 0-114-83-178t-224-64zm722-420h160v340zm488-170h-119V0h-209v137H897v164l238 496h321V307h119V137z"/><glyph glyph-name="questiondown" unicode="¿" horiz-adv-x="1017" d="M502 1044q65 0 111-46.5T659 887q0-66-45.5-113T502 727q-67 0-113.5 47T342 887q0 64 46.5 110.5T502 1044zM41-127Q41-57 65 4t59.5 102 77.5 84.5 78.5 80.5 61.5 88 27 108l2 45h260v-61q0-83-31-155t-75.5-123T436 75.5t-75-97T330-123q0-72 44.5-110.5T502-272q82 0 133 51t51 158V2h287v-88q0-109-38-196T831-422.5 681.5-504 502-532q-206 0-333.5 107T41-127z"/><glyph glyph-name="Agrave" unicode="À" horiz-adv-x="1044" d="M414 1679l-191 308h307l119-308H414zM643 569l-121 742-121-742h242zM737 0l-51 313H358L307 0H16l279 1536h455L1030 0H737z"/><glyph glyph-name="Aacute" unicode="Á" horiz-adv-x="1044" d="M651 1679H416l116 308h308zm-8-1110l-121 742-121-742h242zM737 0l-51 313H358L307 0H16l279 1536h455L1030 0H737z"/><glyph glyph-name="Acircumflex" unicode="Â" horiz-adv-x="1044" d="M649 1679l-129 152-127-152H162l200 308h318l199-308H649zm-6-1110l-121 742-121-742h242zM737 0l-51 313H358L307 0H16l279 1536h455L1030 0H737z"/><glyph glyph-name="Atilde" unicode="Ã" horiz-adv-x="1044" d="M170 1679v99q0 209 180 209 43 0 88.5-16.5t77-36 67-36T643 1882q59 0 59 70v35h175v-97q0-211-183-211-54 0-111 26.5T479 1758t-76 26q-59 0-59-70v-35H170zM643 569l-121 742-121-742h242zM737 0l-51 313H358L307 0H16l279 1536h455L1030 0H737z"/><glyph glyph-name="Adieresis" unicode="Ä" horiz-adv-x="1044" d="M731 1690q-58 0-99.5 42T590 1833t41.5 101 99.5 42q61 0 102-42t41-101-41-101-102-42zm-418 0q-59 0-101 42t-42 101q0 60 42 101.5t101 41.5q60 0 102-41.5t42-101.5q0-59-42-101t-102-42zM643 569l-121 742-121-742h242zM737 0l-51 313H358L307 0H16l279 1536h455L1030 0H737z"/><glyph glyph-name="Aring" unicode="Å" horiz-adv-x="1044" d="M522 1618q-100 0-163.5 55T295 1812q0 83 63.5 139t163.5 56q101 0 165.5-56t64.5-139q0-84-64-139t-166-55zm0 129q31 0 51.5 18t20.5 47-20.5 48.5T522 1880q-28 0-47.5-19.5T455 1812t19.5-47 47.5-18zM643 569l-121 742-121-742h242zM737 0l-51 313H358L307 0H16l279 1536h455L1030 0H737z"/><glyph glyph-name="AE" unicode="Æ" horiz-adv-x="1593" d="M791 584v762L514 584h277zm0-584v328H420L301 0H0l586 1536h936v-260h-437V918h396V655h-396V262h437V0H791z"/><glyph glyph-name="Ccedilla" unicode="Ç" horiz-adv-x="1167" d="M584-512q-105 0-172.5 51T344-336h162q10-47 78-47 35 0 58.5 23t23.5 57q0 35-23.5 58.5T584-221q-26 0-45.5-10.5T514-254H354L500-23Q310 2 206 136.5T102 508v522q0 262 126.5 397.5T584 1563q228 0 354.5-135t126.5-398v-98H768v102q0 144-46.5 205T584 1300q-90 0-137.5-61T399 1034V502q0-144 47-205t138-61 137.5 61T768 502v123h297V508q0-242-108.5-377T651-23l-45-69q95 0 156-61.5T823-303q0-89-66.5-149T584-512z"/><glyph glyph-name="Egrave" unicode="È" horiz-adv-x="929" d="M389 1679l-190 308h307l119-308H389zM123 0v1536h735v-260H418V918h399V655H418V262h440V0H123z"/><glyph glyph-name="Eacute" unicode="É" horiz-adv-x="929" d="M627 1679H391l117 308h307zM123 0v1536h735v-260H418V918h399V655H418V262h440V0H123z"/><glyph glyph-name="Ecircumflex" unicode="Ê" horiz-adv-x="929" d="M625 1679l-129 152-127-152H137l201 308h317l199-308H625zM123 0v1536h735v-260H418V918h399V655H418V262h440V0H123z"/><glyph glyph-name="Edieresis" unicode="Ë" horiz-adv-x="929" d="M707 1690q-58 0-100 42t-42 101 42 101 100 42q61 0 102-42t41-101-41-101-102-42zm-418 0q-59 0-101.5 42.5T145 1833q0 60 42.5 101.5T289 1976q60 0 101.5-41.5T432 1833q0-59-41.5-101T289 1690zM123 0v1536h735v-260H418V918h399V655H418V262h440V0H123z"/><glyph glyph-name="Igrave" unicode="Ì" horiz-adv-x="542" d="M162 1679l-191 308h308l118-308H162zM420 0H123v1536h297V0z"/><glyph glyph-name="Iacute" unicode="Í" horiz-adv-x="542" d="M399 1679H164l117 308h307zM420 0H123v1536h297V0z"/><glyph glyph-name="Icircumflex" unicode="Î" horiz-adv-x="542" d="M397 1679l-129 152-127-152H-90l201 308h317l199-308H397zM420 0H123v1536h297V0z"/><glyph glyph-name="Idieresis" unicode="Ï" horiz-adv-x="542" d="M479 1690q-58 0-99.5 42T338 1833t41.5 101 99.5 42q61 0 102.5-42t41.5-101-41.5-101-102.5-42zm-418 0q-59 0-101 42t-42 101q0 60 42 101.5T61 1976q60 0 102-41.5t42-101.5q0-59-42-101t-102-42zM420 0H123v1536h297V0z"/><glyph glyph-name="Eth" unicode="Ð" horiz-adv-x="1167" d="M584 0H123v692H0v189h123v655h461q228 0 354.5-131t126.5-385V518q0-255-126.5-386.5T584 0zM420 262h164q91 0 137.5 57.5T768 512v512q0 135-46.5 193.5T584 1276H420V881h176V692H420V262z"/><glyph glyph-name="Ntilde" unicode="Ñ" horiz-adv-x="1208" d="M252 1679v99q0 209 180 209 43 0 88.5-16.5t77-36 67-36T725 1882q59 0 59 70v35h174v-97q0-211-182-211-54 0-111 26.5T561 1758t-76 26q-59 0-59-70v-35H252zM631 0L377 1331V0H123v1536h457L831 223v1313h254V0H631z"/><glyph glyph-name="Ograve" unicode="Ò" horiz-adv-x="1167" d="M475 1679l-190 308h307l119-308H475zM584-27q-229 0-355.5 135.5T102 508v522q0 262 126.5 397.5T584 1563q228 0 354.5-135t126.5-398V508q0-264-126-399.5T584-27zm0 263q91 0 137.5 61T768 502v532q0 144-46.5 205T584 1300q-90 0-137.5-61T399 1034V502q0-144 47-205t138-61z"/><glyph glyph-name="Oacute" unicode="Ó" horiz-adv-x="1167" d="M713 1679H477l117 308h307zM584-27q-229 0-355.5 135.5T102 508v522q0 262 126.5 397.5T584 1563q228 0 354.5-135t126.5-398V508q0-264-126-399.5T584-27zm0 263q91 0 137.5 61T768 502v532q0 144-46.5 205T584 1300q-90 0-137.5-61T399 1034V502q0-144 47-205t138-61z"/><glyph glyph-name="Ocircumflex" unicode="Ô" horiz-adv-x="1167" d="M711 1679l-129 152-127-152H223l201 308h317l199-308H711zM584-27q-229 0-355.5 135.5T102 508v522q0 262 126.5 397.5T584 1563q228 0 354.5-135t126.5-398V508q0-264-126-399.5T584-27zm0 263q91 0 137.5 61T768 502v532q0 144-46.5 205T584 1300q-90 0-137.5-61T399 1034V502q0-144 47-205t138-61z"/><glyph glyph-name="Otilde" unicode="Õ" horiz-adv-x="1167" d="M231 1679v99q0 209 181 209 43 0 88.5-16.5t77-36 67-36T705 1882q59 0 59 70v35h174v-97q0-211-182-211-54 0-111 26.5T541 1758t-76 26q-59 0-59-70v-35H231zM584-27q-229 0-355.5 135.5T102 508v522q0 262 126.5 397.5T584 1563q228 0 354.5-135t126.5-398V508q0-264-126-399.5T584-27zm0 263q91 0 137.5 61T768 502v532q0 144-46.5 205T584 1300q-90 0-137.5-61T399 1034V502q0-144 47-205t138-61z"/><glyph glyph-name="Odieresis" unicode="Ö" horiz-adv-x="1167" d="M793 1690q-58 0-100 42t-42 101 42 101 100 42q61 0 102-42t41-101-41-101-102-42zm-418 0q-59 0-101.5 42.5T231 1833q0 60 42.5 101.5T375 1976q60 0 101.5-41.5T518 1833q0-59-41.5-101T375 1690zM584-27q-229 0-355.5 135.5T102 508v522q0 262 126.5 397.5T584 1563q228 0 354.5-135t126.5-398V508q0-264-126-399.5T584-27zm0 263q91 0 137.5 61T768 502v532q0 144-46.5 205T584 1300q-90 0-137.5-61T399 1034V502q0-144 47-205t138-61z"/><glyph glyph-name="multiply" unicode="×" d="M797 254L563 489 340 266 209 397l223 224-235 233 135 135 235-233 221 221 132-131-222-221 234-236z"/><glyph glyph-name="Oslash" unicode="Ø" horiz-adv-x="1167" d="M621-27q-190 0-279 86L313 0H102l95 193q-95 109-95 335v502q0 259 122 396t325 137q191 0 276-88l31 61h209l-94-195q94-104 94-331V508q0-259-121-397T621-27zM399 1034V606l316 641q-42 53-131 53-91 0-138-61t-47-205zm185-798q92 0 138 60.5T768 502v428L455 287q43-51 129-51z"/><glyph glyph-name="Ugrave" unicode="Ù" horiz-adv-x="1167" d="M475 1679l-190 308h307l119-308H475zm-362-143h297V477q0-130 44-185.5T584 236t130 55.5T758 477v1059h297V481q0-251-123.5-379.5T584-27 236.5 101.5 113 481v1055z"/><glyph glyph-name="Uacute" unicode="Ú" horiz-adv-x="1167" d="M713 1679H477l117 308h307zm-600-143h297V477q0-130 44-185.5T584 236t130 55.5T758 477v1059h297V481q0-251-123.5-379.5T584-27 236.5 101.5 113 481v1055z"/><glyph glyph-name="Ucircumflex" unicode="Û" horiz-adv-x="1167" d="M711 1679l-129 152-127-152H223l201 308h317l199-308H711zm-598-143h297V477q0-130 44-185.5T584 236t130 55.5T758 477v1059h297V481q0-251-123.5-379.5T584-27 236.5 101.5 113 481v1055z"/><glyph glyph-name="Udieresis" unicode="Ü" horiz-adv-x="1167" d="M793 1690q-58 0-100 42t-42 101 42 101 100 42q61 0 102-42t41-101-41-101-102-42zm-418 0q-59 0-101.5 42.5T231 1833q0 60 42.5 101.5T375 1976q60 0 101.5-41.5T518 1833q0-59-41.5-101T375 1690zm-262-154h297V477q0-130 44-185.5T584 236t130 55.5T758 477v1059h297V481q0-251-123.5-379.5T584-27 236.5 101.5 113 481v1055z"/><glyph glyph-name="Yacute" unicode="Ý" horiz-adv-x="983" d="M621 1679H385l117 308h307zm20-1120V0H344v559L0 1536h289l203-635 202 635h289z"/><glyph glyph-name="Thorn" unicode="Þ" horiz-adv-x="1085" d="M569 1061H416V594h153q181 0 181 215v51q0 201-181 201zm19-723H416V0H123v1536h293v-219h172q204 0 325-113.5T1034 881v-93q0-214-121-332T588 338z"/><glyph glyph-name="germandbls" unicode="ß" horiz-adv-x="1277" d="M481 1157V0H184v784H37v240h147v137q0 187 122.5 291T635 1556q205 0 332-101.5t127-278.5q0-157-129-244 118-63 185-176t67-258q0-220-146-359T702 0h-75v242h35q117 0 191.5 74T928 512t-74.5 197T662 784h-35v240h10q73 0 113.5 35t40.5 102q0 69-41.5 108.5T635 1309q-71 0-112.5-40.5T481 1157z"/><glyph glyph-name="agrave" unicode="à" d="M465 1229l-191 307h308l118-307H465zm35-1030q97 0 163 55t66 154v53q-37-16-90.5-29t-97-22-84-21.5-63.5-35-23-56.5q0-48 36-73t93-25zM735 0v156Q642-20 410-20q-89 0-163 29.5T123.5 107 74 272q0 88 36 150t93.5 92.5T330 564t138.5 28.5 127 20.5 93.5 35.5 36 64.5q0 53-45.5 83.5T563 827q-77 0-121.5-40.5T397 672H104q0 97 39 170.5T249 959t148 64 174 21q92 0 170.5-19t143-58 101-106 36.5-156V0H735z"/><glyph glyph-name="aacute" unicode="á" d="M700 1229H465l117 307h307zM500 199q97 0 163 55t66 154v53q-37-16-90.5-29t-97-22-84-21.5-63.5-35-23-56.5q0-48 36-73t93-25zM735 0v156Q642-20 410-20q-89 0-163 29.5T123.5 107 74 272q0 88 36 150t93.5 92.5T330 564t138.5 28.5 127 20.5 93.5 35.5 36 64.5q0 53-45.5 83.5T563 827q-77 0-121.5-40.5T397 672H104q0 97 39 170.5T249 959t148 64 174 21q92 0 170.5-19t143-58 101-106 36.5-156V0H735z"/><glyph glyph-name="acircumflex" unicode="â" d="M700 1229l-129 151-127-151H213l201 307h317l199-307H700zM500 199q97 0 163 55t66 154v53q-37-16-90.5-29t-97-22-84-21.5-63.5-35-23-56.5q0-48 36-73t93-25zM735 0v156Q642-20 410-20q-89 0-163 29.5T123.5 107 74 272q0 88 36 150t93.5 92.5T330 564t138.5 28.5 127 20.5 93.5 35.5 36 64.5q0 53-45.5 83.5T563 827q-77 0-121.5-40.5T397 672H104q0 97 39 170.5T249 959t148 64 174 21q92 0 170.5-19t143-58 101-106 36.5-156V0H735z"/><glyph glyph-name="atilde" unicode="ã" d="M219 1229v98q0 209 180 209 54 0 111-26t104.5-52 77.5-26q60 0 60 69v35h174v-96q0-211-183-211-43 0-88.5 16.5T578 1281t-66 35.5-59 16.5q-60 0-60-69v-35H219zM500 199q97 0 163 55t66 154v53q-37-16-90.5-29t-97-22-84-21.5-63.5-35-23-56.5q0-48 36-73t93-25zM735 0v156Q642-20 410-20q-89 0-163 29.5T123.5 107 74 272q0 88 36 150t93.5 92.5T330 564t138.5 28.5 127 20.5 93.5 35.5 36 64.5q0 53-45.5 83.5T563 827q-77 0-121.5-40.5T397 672H104q0 97 39 170.5T249 959t148 64 174 21q92 0 170.5-19t143-58 101-106 36.5-156V0H735z"/><glyph glyph-name="adieresis" unicode="ä" d="M780 1239q-58 0-99.5 42T639 1382t41.5 101.5T780 1526q61 0 102.5-42.5T924 1382t-41.5-101-102.5-42zm-418 0q-58 0-100.5 42.5T219 1382q0 60 42 102t101 42q60 0 102-42t42-102q0-59-42-101t-102-42zM500 199q97 0 163 55t66 154v53q-37-16-90.5-29t-97-22-84-21.5-63.5-35-23-56.5q0-48 36-73t93-25zM735 0v156Q642-20 410-20q-89 0-163 29.5T123.5 107 74 272q0 88 36 150t93.5 92.5T330 564t138.5 28.5 127 20.5 93.5 35.5 36 64.5q0 53-45.5 83.5T563 827q-77 0-121.5-40.5T397 672H104q0 97 39 170.5T249 959t148 64 174 21q92 0 170.5-19t143-58 101-106 36.5-156V0H735z"/><glyph glyph-name="aring" unicode="å" d="M571 1167q-100 0-163.5 55.5T344 1362q0 83 63.5 138.5T571 1556q101 0 165.5-55.5T801 1362q0-84-64-139.5T571 1167zm0 129q31 0 51.5 18.5T643 1362t-20.5 48.5T571 1430q-28 0-47.5-19.5T504 1362t19.5-47.5T571 1296zM500 199q97 0 163 55t66 154v53q-37-16-90.5-29t-97-22-84-21.5-63.5-35-23-56.5q0-48 36-73t93-25zM735 0v156Q642-20 410-20q-89 0-163 29.5T123.5 107 74 272q0 88 36 150t93.5 92.5T330 564t138.5 28.5 127 20.5 93.5 35.5 36 64.5q0 53-45.5 83.5T563 827q-77 0-121.5-40.5T397 672H104q0 97 39 170.5T249 959t148 64 174 21q92 0 170.5-19t143-58 101-106 36.5-156V0H735z"/><glyph glyph-name="ae" unicode="æ" horiz-adv-x="1841" d="M1262 801q-94 0-153.5-50.5T1030 604h463q-19 97-78 147t-153 50zM500 199q98 0 163.5 55T729 408v53q-37-16-90.5-29t-97-22-84-21.5-63.5-35-23-56.5q0-48 36-73t93-25zm1255 125q-47-168-175-256t-318-88q-132 0-241 55.5T844 190Q746-20 453-20q-73 0-139.5 17.5t-121 52-86.5 92T74 272q0 88 36 150t93.5 92.5T330 564t138.5 28.5 127 20.5 93.5 35.5 36 64.5q0 53-45.5 83.5T563 827q-77 0-121.5-40.5T397 672H104q0 78 25 141.5T196.5 919t101 71 123.5 41.5 136 12.5q242 0 352-135 138 135 353 135 226 0 372-149t146-383q0-28-4-82h-748q38-207 242-207 141 0 184 101h301z"/><glyph glyph-name="ccedilla" unicode="ç" horiz-adv-x="1171" d="M586-512q-105 0-172.5 51T346-336h162q10-47 78-47 35 0 58.5 23t23.5 57q0 35-23.5 58.5T586-221q-26 0-45.5-10.5T516-254H356L508-14Q309 13 185 156.5T61 512q0 233 149 382.5T586 1044q209 0 349.5-112T1104 633H801q-18 71-76.5 109T588 780q-104 0-170-74t-66-194q0-121 65.5-194.5T588 244q80 0 139.5 44T805 414h303q-19-179-140.5-294.5T659-16l-53-76q96 0 157.5-61.5T825-303q0-89-66.5-149T586-512z"/><glyph glyph-name="egrave" unicode="è" horiz-adv-x="1159" d="M473 1229l-190 307h307l119-307H473zm107-428q-94 0-153.5-50.5T348 604h463q-19 97-78 147t-153 50zm493-477q-47-168-175-256T580-20q-227 0-373 149T61 512t146 383 373 149q226 0 372-149t146-383q0-28-4-82H346q38-207 242-207 141 0 184 101h301z"/><glyph glyph-name="eacute" unicode="é" horiz-adv-x="1159" d="M709 1229H473l117 307h307zM580 801q-94 0-153.5-50.5T348 604h463q-19 97-78 147t-153 50zm493-477q-47-168-175-256T580-20q-227 0-373 149T61 512t146 383 373 149q226 0 372-149t146-383q0-28-4-82H346q38-207 242-207 141 0 184 101h301z"/><glyph glyph-name="ecircumflex" unicode="ê" horiz-adv-x="1159" d="M709 1229l-129 151-127-151H221l201 307h317l199-307H709zM580 801q-94 0-153.5-50.5T348 604h463q-19 97-78 147t-153 50zm493-477q-47-168-175-256T580-20q-227 0-373 149T61 512t146 383 373 149q226 0 372-149t146-383q0-28-4-82H346q38-207 242-207 141 0 184 101h301z"/><glyph glyph-name="edieresis" unicode="ë" horiz-adv-x="1159" d="M788 1239q-58 0-99.5 42T647 1382t41.5 101.5T788 1526q61 0 102.5-42.5T932 1382t-41.5-101-102.5-42zm-417 0q-59 0-101.5 42.5T227 1382q0 60 42.5 102t101.5 42q60 0 101.5-42t41.5-102q0-59-41.5-101T371 1239zm209-438q-94 0-153.5-50.5T348 604h463q-19 97-78 147t-153 50zm493-477q-47-168-175-256T580-20q-227 0-373 149T61 512t146 383 373 149q226 0 372-149t146-383q0-28-4-82H346q38-207 242-207 141 0 184 101h301z"/><glyph glyph-name="igrave" unicode="ì" horiz-adv-x="542" d="M164 1229l-191 307h308l118-307H164zM420 0H123v1024h297V0z"/><glyph glyph-name="iacute" unicode="í" horiz-adv-x="542" d="M399 1229H164l117 307h307zM420 0H123v1024h297V0z"/><glyph glyph-name="icircumflex" unicode="î" horiz-adv-x="542" d="M399 1229l-129 151-127-151H-88l201 307h317l199-307H399zM420 0H123v1024h297V0z"/><glyph glyph-name="idieresis" unicode="ï" horiz-adv-x="542" d="M479 1239q-58 0-99.5 42T338 1382t41.5 101.5T479 1526q61 0 102.5-42.5T623 1382t-41.5-101-102.5-42zm-418 0q-59 0-101 42.5T-82 1382q0 60 42 102t101 42q60 0 102-42t42-102q0-59-42-101t-102-42zM420 0H123v1024h297V0z"/><glyph glyph-name="eth" unicode="ð" horiz-adv-x="1177" d="M569-20q-221 0-364.5 137.5T61 471q0 218 134 355t352 137q147 0 248-91-20 178-101 283l-125-113H317l240 215q-71 29-170 29-55 0-125-12v254q89 14 158 14 199 0 350-92l96 86h250l-215-195q205-227 205-661 0-151-27.5-270.5t-75.5-199-117-132T739 3 569-20zm0 256q98 0 162 65t64 170-64 170.5T569 707q-99 0-162-65.5T344 471t63-170 162-65z"/><glyph glyph-name="ntilde" unicode="ñ" horiz-adv-x="1198" d="M252 1229v98q0 209 180 209 54 0 111-26t104.5-52 77.5-26q59 0 59 69v35h174v-96q0-211-182-211-54 0-111 26t-104 52-76 26q-59 0-59-69v-35H252zm168-664V0H123v1024h293V879q46 79 123.5 122t173.5 43q166 0 269-106t103-305V0H788v565q0 115-47.5 174.5T604 799t-136.5-59.5T420 565z"/><glyph glyph-name="ograve" unicode="ò" horiz-adv-x="1187" d="M487 1229l-190 307h307l119-307H487zM594-20q-231 0-382 149T61 512t151 383 382 149 381.5-149T1126 512 975.5 129 594-20zm0 264q107 0 175.5 74.5T838 512q0 120-68.5 194T594 780q-106 0-175-74t-69-194q0-119 69.5-193.5T594 244z"/><glyph glyph-name="oacute" unicode="ó" horiz-adv-x="1187" d="M723 1229H487l117 307h307zM594-20q-231 0-382 149T61 512t151 383 382 149 381.5-149T1126 512 975.5 129 594-20zm0 264q107 0 175.5 74.5T838 512q0 120-68.5 194T594 780q-106 0-175-74t-69-194q0-119 69.5-193.5T594 244z"/><glyph glyph-name="ocircumflex" unicode="ô" horiz-adv-x="1187" d="M723 1229l-129 151-127-151H236l200 307h318l198-307H723zM594-20q-231 0-382 149T61 512t151 383 382 149 381.5-149T1126 512 975.5 129 594-20zm0 264q107 0 175.5 74.5T838 512q0 120-68.5 194T594 780q-106 0-175-74t-69-194q0-119 69.5-193.5T594 244z"/><glyph glyph-name="otilde" unicode="õ" horiz-adv-x="1187" d="M242 1229v98q0 209 180 209 54 0 111-26t104.5-52 77.5-26q59 0 59 69v35h174v-96q0-211-182-211-54 0-111 26t-104 52-76 26q-59 0-59-69v-35H242zM594-20q-231 0-382 149T61 512t151 383 382 149 381.5-149T1126 512 975.5 129 594-20zm0 264q107 0 175.5 74.5T838 512q0 120-68.5 194T594 780q-106 0-175-74t-69-194q0-119 69.5-193.5T594 244z"/><glyph glyph-name="odieresis" unicode="ö" horiz-adv-x="1187" d="M803 1239q-58 0-99.5 42T662 1382t41.5 101.5T803 1526q61 0 102-42.5t41-101.5-41-101-102-42zm-418 0q-59 0-101 42.5T242 1382q0 60 42 102t101 42q60 0 101.5-42t41.5-102q0-59-41.5-101T385 1239zM594-20q-231 0-382 149T61 512t151 383 382 149 381.5-149T1126 512 975.5 129 594-20zm0 264q107 0 175.5 74.5T838 512q0 120-68.5 194T594 780q-106 0-175-74t-69-194q0-119 69.5-193.5T594 244z"/><glyph glyph-name="divide" unicode="÷" d="M436 948q0 52 38.5 90.5T563 1077q55 0 92-38t37-91q0-54-36.5-89.5T563 823q-51 0-89 36t-38 89zM154 528v185h819V528H154zm282-237q0 52 38.5 90.5T563 420q55 0 92-38t37-91q0-54-36.5-89.5T563 166q-51 0-89 36t-38 89z"/><glyph glyph-name="oslash" unicode="ø" horiz-adv-x="1187" d="M594-20q-146 0-258 59L303 0H61l125 156Q61 303 61 512q0 234 151 383t382 149q141 0 260-61l33 41h239l-125-156q125-147 125-356 0-234-150.5-383T594-20zM340 512q0-67 27-133l319 395q-49 17-92 17-110 0-182-77.5T340 512zm254-279q111 0 182.5 77.5T848 512q0 67-27 133L504 250q46-17 90-17z"/><glyph glyph-name="ugrave" unicode="ù" horiz-adv-x="1187" d="M479 1229l-190 307h307l119-307H479zM774 0v145Q728 66 652 23T481-20Q316-20 214.5 86T113 391v633h297V459q0-114 47-174t133-60 132 59.5T768 459v565h297V0H774z"/><glyph glyph-name="uacute" unicode="ú" horiz-adv-x="1187" d="M715 1229H479l117 307h307zM774 0v145Q728 66 652 23T481-20Q316-20 214.5 86T113 391v633h297V459q0-114 47-174t133-60 132 59.5T768 459v565h297V0H774z"/><glyph glyph-name="ucircumflex" unicode="û" horiz-adv-x="1187" d="M715 1229l-129 151-127-151H227l201 307h317l199-307H715zM774 0v145Q728 66 652 23T481-20Q316-20 214.5 86T113 391v633h297V459q0-114 47-174t133-60 132 59.5T768 459v565h297V0H774z"/><glyph glyph-name="udieresis" unicode="ü" horiz-adv-x="1187" d="M795 1239q-58 0-100 42t-42 101 42 101.5 100 42.5q61 0 102-42.5t41-101.5-41-101-102-42zm-418 0q-59 0-101.5 42.5T233 1382q0 60 42.5 102t101.5 42q60 0 101.5-42t41.5-102q0-59-41.5-101T377 1239zM774 0v145Q728 66 652 23T481-20Q316-20 214.5 86T113 391v633h297V459q0-114 47-174t133-60 132 59.5T768 459v565h297V0H774z"/><glyph glyph-name="yacute" unicode="ý" horiz-adv-x="1026" d="M657 1229H422l117 307h307zM188-532q-95 0-174 22v238q90-21 144-21 145 0 223 127L8 1024h293l209-801 217 801h291L686-45q-34-118-74.5-203t-99-151.5-139-99.5T188-532z"/><glyph glyph-name="thorn" unicode="þ" horiz-adv-x="1259" d="M664 244q105 0 174 74.5T907 512q0 120-68.5 194T664 780t-175-74-69-194q0-119 69.5-193.5T664 244zm59-264q-182 0-303 143v-635H123v2048h297V901q121 143 303 143 209 0 342-147t133-385q0-236-133.5-384T723-20z"/><glyph glyph-name="ydieresis" unicode="ÿ" horiz-adv-x="1026" d="M737 1239q-58 0-99.5 42T596 1382t41.5 101.5T737 1526q61 0 102.5-42.5T881 1382t-41.5-101-102.5-42zm-418 0q-59 0-101 42.5T176 1382q0 60 42 102t101 42q60 0 102-42t42-102q0-59-42-101t-102-42zM188-532q-95 0-174 22v238q90-21 144-21 145 0 223 127L8 1024h293l209-801 217 801h291L686-45q-34-118-74.5-203t-99-151.5-139-99.5T188-532z"/><glyph glyph-name="Amacron" unicode="Ā" horiz-adv-x="1044" d="M821 1884v-188H238v188h583zM643 569l-121 742-121-742h242zM737 0l-51 313H358L307 0H16l279 1536h455L1030 0H737z"/><glyph glyph-name="amacron" unicode="ā" d="M870 1434v-189H287v189h583zM500 199q97 0 163 55t66 154v53q-37-16-90.5-29t-97-22-84-21.5-63.5-35-23-56.5q0-48 36-73t93-25zM735 0v156Q642-20 410-20q-89 0-163 29.5T123.5 107 74 272q0 88 36 150t93.5 92.5T330 564t138.5 28.5 127 20.5 93.5 35.5 36 64.5q0 53-45.5 83.5T563 827q-77 0-121.5-40.5T397 672H104q0 97 39 170.5T249 959t148 64 174 21q92 0 170.5-19t143-58 101-106 36.5-156V0H735z"/><glyph glyph-name="Abreve" unicode="Ă" horiz-adv-x="1044" d="M639 1987h211q0-147-88-229.5T522 1675q-150 0-236.5 82.5T199 1987h209q0-62 32.5-92.5T522 1864q53 0 85 30t32 93zm4-1418l-121 742-121-742h242zM737 0l-51 313H358L307 0H16l279 1536h455L1030 0H737z"/><glyph glyph-name="abreve" unicode="ă" d="M688 1536h211q0-147-88-229t-240-82q-150 0-236.5 82T248 1536h209q0-62 32.5-92.5T571 1413q53 0 85 30t32 93zM500 199q97 0 163 55t66 154v53q-37-16-90.5-29t-97-22-84-21.5-63.5-35-23-56.5q0-48 36-73t93-25zM735 0v156Q642-20 410-20q-89 0-163 29.5T123.5 107 74 272q0 88 36 150t93.5 92.5T330 564t138.5 28.5 127 20.5 93.5 35.5 36 64.5q0 53-45.5 83.5T563 827q-77 0-121.5-40.5T397 672H104q0 97 39 170.5T249 959t148 64 174 21q92 0 170.5-19t143-58 101-106 36.5-156V0H735z"/><glyph glyph-name="Aogonek" unicode="Ą" horiz-adv-x="1044" d="M643 569l-121 742-121-742h242zM764 0h-27l-51 313H358L307 0H16l279 1536h455L1030 0H918q-88-123-122-191t-34-118q0-33 18.5-49.5T829-375q29 0 48 18t24 48h186q0-95-72-153t-190-58q-113 0-180 50t-67 136q0 28 8.5 58t18 52 33 57 36 51.5 46 58.5T764 0z"/><glyph glyph-name="aogonek" unicode="ą" d="M500 199q98 0 163.5 55T729 408v53q-37-16-90.5-29t-97-22-84-21.5-63.5-35-23-56.5q0-48 36-73t93-25zM750 0h-15v156Q642-20 410-20q-89 0-163 29.5T123.5 107 74 272q0 88 36 150t93.5 92.5T330 564t138.5 28.5 127 20.5 93.5 35.5 36 64.5q0 53-45.5 83.5T563 827q-77 0-121.5-40.5T397 672H104q0 97 39 170.5T249 959t148 64 174 21q92 0 170.5-19t143-58 101-106 36.5-156V0H903q-87-124-121-191.5T748-309q0-33 18.5-49.5T815-375t48.5 18 23.5 48h186q0-96-71-153.5T811-520q-113 0-180.5 50T563-334q0 33 9 65t32.5 70 39 60.5 54 71.5T750 0z"/><glyph glyph-name="Cacute" unicode="Ć" horiz-adv-x="1167" d="M713 1679H477l117 308h307zm55-1054h297V508q0-263-126.5-399T584-27 229 109 102 508v522q0 262 126.5 397.5T584 1563q228 0 354.5-135t126.5-398v-98H768v102q0 144-46.5 205T584 1300q-90 0-137.5-61T399 1034V502q0-144 47-205t138-61 137.5 61T768 502v123z"/><glyph glyph-name="cacute" unicode="ć" horiz-adv-x="1171" d="M715 1229H479l117 307h307zm389-596H801q-18 71-76.5 109T588 780q-104 0-170-74t-66-194q0-121 65.5-194.5T588 244q79 0 138 44t79 126h303q-20-196-163.5-315T586-20q-227 0-376 149.5T61 512t149 382.5T586 1044q209 0 349.5-112T1104 633z"/><glyph glyph-name="Ccircumflex" unicode="Ĉ" horiz-adv-x="1167" d="M711 1679l-129 152-127-152H223l201 308h317l199-308H711zm57-1054h297V508q0-263-126.5-399T584-27 229 109 102 508v522q0 262 126.5 397.5T584 1563q228 0 354.5-135t126.5-398v-98H768v102q0 144-46.5 205T584 1300q-90 0-137.5-61T399 1034V502q0-144 47-205t138-61 137.5 61T768 502v123z"/><glyph glyph-name="ccircumflex" unicode="ĉ" horiz-adv-x="1171" d="M715 1229l-129 151-127-151H227l201 307h317l199-307H715zm389-596H801q-18 71-76.5 109T588 780q-104 0-170-74t-66-194q0-121 65.5-194.5T588 244q79 0 138 44t79 126h303q-20-196-163.5-315T586-20q-227 0-376 149.5T61 512t149 382.5T586 1044q209 0 349.5-112T1104 633z"/><glyph glyph-name="Cdotaccent" unicode="Ċ" horiz-adv-x="1167" d="M584 1675q-67 0-112.5 46T426 1833q0 69 45 114.5t113 45.5q69 0 114-45.5t45-114.5q0-67-45.5-112.5T584 1675zM768 625h297V508q0-263-126.5-399T584-27 229 109 102 508v522q0 262 126.5 397.5T584 1563q228 0 354.5-135t126.5-398v-98H768v102q0 144-46.5 205T584 1300q-90 0-137.5-61T399 1034V502q0-144 47-205t138-61 137.5 61T768 502v123z"/><glyph glyph-name="cdotaccent" unicode="ċ" horiz-adv-x="1171" d="M586 1225q-67 0-112.5 45.5T428 1382q0 69 45 114.5t113 45.5q69 0 114-45.5t45-114.5q0-66-45.5-111.5T586 1225zm518-592H801q-18 71-76.5 109T588 780q-104 0-170-74t-66-194q0-121 65.5-194.5T588 244q79 0 138 44t79 126h303q-20-196-163.5-315T586-20q-227 0-376 149.5T61 512t149 382.5T586 1044q209 0 349.5-112T1104 633z"/><glyph glyph-name="Ccaron" unicode="Č" horiz-adv-x="1167" d="M424 1679l-201 308h232l127-152 129 152h229l-199-308H424zM768 625h297V508q0-263-126.5-399T584-27 229 109 102 508v522q0 262 126.5 397.5T584 1563q228 0 354.5-135t126.5-398v-98H768v102q0 144-46.5 205T584 1300q-90 0-137.5-61T399 1034V502q0-144 47-205t138-61 137.5 61T768 502v123z"/><glyph glyph-name="ccaron" unicode="č" horiz-adv-x="1171" d="M428 1229l-201 307h232l127-152 129 152h229l-199-307H428zm676-596H801q-18 71-76.5 109T588 780q-104 0-170-74t-66-194q0-121 65.5-194.5T588 244q79 0 138 44t79 126h303q-20-196-163.5-315T586-20q-227 0-376 149.5T61 512t149 382.5T586 1044q209 0 349.5-112T1104 633z"/><glyph glyph-name="Dcaron" unicode="Ď" horiz-adv-x="1167" d="M408 1679l-201 308h231l127-152 129 152h230l-199-308H408zm176-143q228 0 354.5-131t126.5-385V518q0-255-126.5-386.5T584 0H123v1536h461zm0-1274q91 0 137.5 57.5T768 512v512q0 135-46.5 193.5T584 1276H420V262h164z"/><glyph glyph-name="dcaron" unicode="ď" horiz-adv-x="1259" d="M1278 1536h260l-98-389h-162v389zM596 780q-106 0-174-74t-68-194 68-194 174-74q107 0 175.5 74T840 512t-68.5 194T596 780zM846 0v131Q726-20 539-20q-210 0-344 147.5T61 512q0 238 133.5 385T539 1044q180 0 301-143v635h297V0H846z"/><glyph glyph-name="Dcroat" unicode="Đ" horiz-adv-x="1167" d="M584 0H123v692H0v189h123v655h461q228 0 354.5-131t126.5-385V518q0-255-126.5-386.5T584 0zM420 262h164q91 0 137.5 57.5T768 512v512q0 135-46.5 193.5T584 1276H420V881h176V692H420V262z"/><glyph glyph-name="dcroat" unicode="đ" horiz-adv-x="1259" d="M596 780q-106 0-174-74t-68-194q0-119 68.5-193.5T596 244q107 0 175.5 74.5T840 512q0 120-68.5 194T596 780zM846 0v131Q726-20 539-20q-210 0-344 147.5T61 512q0 238 133.5 385T539 1044q180 0 301-143v309H586v164h254v162h297v-162h123v-164h-123V0H846z"/><glyph glyph-name="Emacron" unicode="Ē" horiz-adv-x="929" d="M797 1884v-188H213v188h584zM123 0v1536h735v-260H418V918h399V655H418V262h440V0H123z"/><glyph glyph-name="emacron" unicode="ē" horiz-adv-x="1159" d="M879 1434v-189H295v189h584zM580 801q-94 0-153.5-50.5T348 604h463q-19 97-78 147t-153 50zm493-477q-47-168-175-256T580-20q-227 0-373 149T61 512t146 383 373 149q226 0 372-149t146-383q0-28-4-82H346q38-207 242-207 141 0 184 101h301z"/><glyph glyph-name="Ebreve" unicode="Ĕ" horiz-adv-x="929" d="M614 1987h211q0-147-87.5-229.5T498 1675q-150 0-237 82.5T174 1987h209q0-62 33-92.5t82-30.5q53 0 84.5 30t31.5 93zM123 0v1536h735v-260H418V918h399V655H418V262h440V0H123z"/><glyph glyph-name="ebreve" unicode="ĕ" horiz-adv-x="1159" d="M696 1536h211q0-147-87.5-229T580 1225q-150 0-237 82t-87 229h209q0-62 33-92.5t82-30.5q53 0 84.5 30t31.5 93zM580 801q-94 0-153.5-50.5T348 604h463q-19 97-78 147t-153 50zm493-477q-47-168-175-256T580-20q-227 0-373 149T61 512t146 383 373 149q226 0 372-149t146-383q0-28-4-82H346q38-207 242-207 141 0 184 101h301z"/><glyph glyph-name="Edotaccent" unicode="Ė" horiz-adv-x="929" d="M498 1675q-67 0-112.5 46T340 1833q0 69 45 114.5t113 45.5q69 0 114-45.5t45-114.5q0-67-45.5-112.5T498 1675zM123 0v1536h735v-260H418V918h399V655H418V262h440V0H123z"/><glyph glyph-name="edotaccent" unicode="ė" horiz-adv-x="1159" d="M580 1225q-67 0-112.5 45.5T422 1382q0 69 45 114.5t113 45.5q69 0 114-45.5t45-114.5q0-66-45.5-111.5T580 1225zm0-424q-94 0-153.5-50.5T348 604h463q-19 97-78 147t-153 50zm493-477q-47-168-175-256T580-20q-227 0-373 149T61 512t146 383 373 149q226 0 372-149t146-383q0-28-4-82H346q38-207 242-207 141 0 184 101h301z"/><glyph glyph-name="Eogonek" unicode="Ę" horiz-adv-x="929" d="M123 0v1536h735v-260H418V918h399V655H418V262h440V0H123zm473-520q-113 0-180.5 50T348-334q0 33 9 65t32.5 70 39 60.5 54 71.5T535 0h153q-88-123-122-191t-34-118q0-33 19-49.5t49-16.5q29 0 48 18t24 48h186q0-96-71-153.5T596-520z"/><glyph glyph-name="eogonek" unicode="ę" horiz-adv-x="1159" d="M580 801q-94 0-153.5-50.5T348 604h463q-19 97-78 147t-153 50zm489-1110q-2-87-68.5-145T829-512q-109 0-174 52t-65 138q0 31 8.5 63.5t17 54T648-147t33.5 49T725-42.5 766 8q-89-28-186-28-227 0-373 149T61 512t146 383 373 149q226 0 372-149t146-383q0-28-4-82H346q38-207 242-207 141 0 184 101h301q-18-78-72.5-175.5T892-23t-97-151.5T752-299q0-76 77-76 29 0 50 18.5t26 47.5h164z"/><glyph glyph-name="Ecaron" unicode="Ě" horiz-adv-x="929" d="M338 1679l-201 308h232l127-152 129 152h229l-199-308H338zM123 0v1536h735v-260H418V918h399V655H418V262h440V0H123z"/><glyph glyph-name="ecaron" unicode="ě" horiz-adv-x="1159" d="M422 1229l-201 307h232l127-152 129 152h229l-199-307H422zm158-428q-94 0-153.5-50.5T348 604h463q-19 97-78 147t-153 50zm493-477q-47-168-175-256T580-20q-227 0-373 149T61 512t146 383 373 149q226 0 372-149t146-383q0-28-4-82H346q38-207 242-207 141 0 184 101h301z"/><glyph glyph-name="Gcircumflex" unicode="Ĝ" horiz-adv-x="1177" d="M711 1679l-129 152-127-152H223l201 308h317l199-308H711zM827 0v160Q736-27 522-27q-199 0-309.5 136T102 508v522q0 262 126.5 397.5T584 1563q228 0 354.5-135t126.5-398v-69H768v73q0 144-46.5 205T584 1300q-90 0-137.5-61T399 1034V502q0-144 47-205t138-61q184 0 184 251v82H559v250h506V0H827z"/><glyph glyph-name="gcircumflex" unicode="ĝ" horiz-adv-x="1105" d="M662 1229l-130 151-126-151H174l201 307h317l199-307H662zM532 518q68 0 112 42.5T688 670q0 69-43.5 111T532 823t-112-42-43-111q0-67 43.5-109.5T532 518zm551-713q0-155-122.5-246T592-532h-72q-236 0-356.5 75.5T43-256q0 65 42 118.5T199-51Q135-17 99 37.5T63 158q0 81 49.5 141.5T252 389Q115 497 115 670q0 162 120.5 268T532 1044q186 0 306-114l41 61q21 30 41.5 41.5T981 1044h104V776H934q16-53 16-106 0-163-121.5-269T532 295q-83 0-165 29-31-8-50.5-31T297 238q0-44 33-69.5t96-25.5h221q436 0 436-338zM547-307h39q233 0 233 114 0 101-203 101H510q-205 0-205-101 0-54 54-84t188-30z"/><glyph glyph-name="Gbreve" unicode="Ğ" horiz-adv-x="1177" d="M700 1987h211q0-147-87.5-229.5T584 1675q-150 0-237 82.5T260 1987h209q0-62 33-92.5t82-30.5q53 0 84.5 30t31.5 93zM827 0v160Q736-27 522-27q-199 0-309.5 136T102 508v522q0 262 126.5 397.5T584 1563q228 0 354.5-135t126.5-398v-69H768v73q0 144-46.5 205T584 1300q-90 0-137.5-61T399 1034V502q0-144 47-205t138-61q184 0 184 251v82H559v250h506V0H827z"/><glyph glyph-name="gbreve" unicode="ğ" horiz-adv-x="1105" d="M649 1536h211q0-147-88-229t-240-82q-150 0-236.5 82T209 1536h209q0-62 32.5-92.5T532 1413q53 0 85 30t32 93zM532 518q68 0 112 42.5T688 670q0 69-43.5 111T532 823t-112-42-43-111q0-67 43.5-109.5T532 518zm551-713q0-155-122.5-246T592-532h-72q-236 0-356.5 75.5T43-256q0 65 42 118.5T199-51Q135-17 99 37.5T63 158q0 81 49.5 141.5T252 389Q115 497 115 670q0 162 120.5 268T532 1044q186 0 306-114l41 61q21 30 41.5 41.5T981 1044h104V776H934q16-53 16-106 0-163-121.5-269T532 295q-83 0-165 29-31-8-50.5-31T297 238q0-44 33-69.5t96-25.5h221q436 0 436-338zM547-307h39q233 0 233 114 0 101-203 101H510q-205 0-205-101 0-54 54-84t188-30z"/><glyph glyph-name="Gdotaccent" unicode="Ġ" horiz-adv-x="1177" d="M584 1675q-67 0-112.5 46T426 1833q0 69 45 114.5t113 45.5q69 0 114-45.5t45-114.5q0-67-45.5-112.5T584 1675zM827 0v160Q736-27 522-27q-199 0-309.5 136T102 508v522q0 262 126.5 397.5T584 1563q228 0 354.5-135t126.5-398v-69H768v73q0 144-46.5 205T584 1300q-90 0-137.5-61T399 1034V502q0-144 47-205t138-61q184 0 184 251v82H559v250h506V0H827z"/><glyph glyph-name="gdotaccent" unicode="ġ" horiz-adv-x="1105" d="M532 1225q-67 0-112 45.5T375 1382q0 69 44.5 114.5T532 1542q69 0 114.5-45.5T692 1382q0-66-45.5-111.5T532 1225zm0-707q68 0 112 42.5T688 670q0 69-43.5 111T532 823t-112-42-43-111q0-67 43.5-109.5T532 518zm551-713q0-155-122.5-246T592-532h-72q-236 0-356.5 75.5T43-256q0 65 42 118.5T199-51Q135-17 99 37.5T63 158q0 81 49.5 141.5T252 389Q115 497 115 670q0 162 120.5 268T532 1044q186 0 306-114l41 61q21 30 41.5 41.5T981 1044h104V776H934q16-53 16-106 0-163-121.5-269T532 295q-83 0-165 29-31-8-50.5-31T297 238q0-44 33-69.5t96-25.5h221q436 0 436-338zM547-307h39q233 0 233 114 0 101-203 101H510q-205 0-205-101 0-54 54-84t188-30z"/><glyph glyph-name="Gcommaaccent" unicode="Ģ" horiz-adv-x="1177" d="M827 0v160Q736-27 522-27q-199 0-309.5 136T102 508v522q0 262 126.5 397.5T584 1563q228 0 354.5-135t126.5-398v-69H768v73q0 144-46.5 205T584 1300q-90 0-137.5-61T399 1034V502q0-144 47-205t138-61q184 0 184 251v82H559v250h506V0H827zM545-430H350l51 307h291z"/><glyph glyph-name="gcommaaccent" unicode="ģ" horiz-adv-x="1105" d="M551 1597h194l-51-307H401zM532 518q68 0 112 42.5T688 670q0 69-43.5 111T532 823t-112-42-43-111q0-67 43.5-109.5T532 518zm551-713q0-155-122.5-246T592-532h-72q-236 0-356.5 75.5T43-256q0 65 42 118.5T199-51Q135-17 99 37.5T63 158q0 81 49.5 141.5T252 389Q115 497 115 670q0 162 120.5 268T532 1044q186 0 306-114l41 61q21 30 41.5 41.5T981 1044h104V776H934q16-53 16-106 0-163-121.5-269T532 295q-83 0-165 29-31-8-50.5-31T297 238q0-44 33-69.5t96-25.5h221q436 0 436-338zM547-307h39q233 0 233 114 0 101-203 101H510q-205 0-205-101 0-54 54-84t188-30z"/><glyph glyph-name="Hcircumflex" unicode="Ĥ" horiz-adv-x="1208" d="M731 1679l-129 152-127-152H244l200 308h318l199-308H731zM788 0v657H420V0H123v1536h297V920h368v616h297V0H788z"/><glyph glyph-name="hcircumflex" unicode="ĥ" horiz-adv-x="1198" d="M731 1679l-129 152-127-152H244l200 308h318l199-308H731zM420 565V0H123v1536h297V887q47 75 123.5 116t169.5 41q166 0 269-106t103-305V0H788v565q0 115-47.5 174.5T604 799t-136.5-59.5T420 565z"/><glyph glyph-name="Hbar" unicode="Ħ" horiz-adv-x="1208" d="M788 920v215H420V920h368zm0-920v657H420V0H123v1135H0v188h123v213h297v-213h368v213h297v-213h123v-188h-123V0H788z"/><glyph glyph-name="hbar" unicode="ħ" horiz-adv-x="1198" d="M420 565V0H123v1210H0v164h123v162h297v-162h254v-164H420V887q47 75 123.5 116t169.5 41q166 0 269-106t103-305V0H788v565q0 115-47.5 174.5T604 799t-136.5-59.5T420 565z"/><glyph glyph-name="Itilde" unicode="Ĩ" horiz-adv-x="542" d="M-82 1679v99q0 209 180 209 43 0 88.5-16.5t77-36 67-36T391 1882q60 0 60 70v35h174v-97q0-211-183-211-54 0-111 26.5T227.5 1758t-75.5 26q-60 0-60-70v-35H-82zM420 0H123v1536h297V0z"/><glyph glyph-name="itilde" unicode="ĩ" horiz-adv-x="542" d="M-82 1229v98q0 209 180 209 54 0 111-26t104.5-52 77.5-26q60 0 60 69v35h174v-96q0-211-183-211-43 0-88.5 16.5T277 1281t-66 35.5-59 16.5q-60 0-60-69v-35H-82zM420 0H123v1024h297V0z"/><glyph glyph-name="Imacron" unicode="Ī" horiz-adv-x="542" d="M569 1884v-188H-14v188h583zM420 0H123v1536h297V0z"/><glyph glyph-name="imacron" unicode="ī" horiz-adv-x="542" d="M569 1434v-189H-14v189h583zM420 0H123v1024h297V0z"/><glyph glyph-name="Ibreve" unicode="Ĭ" horiz-adv-x="542" d="M387 1987h211q0-147-88-229.5T270 1675q-150 0-236.5 82.5T-53 1987h209q0-62 32.5-92.5T270 1864q53 0 85 30t32 93zM420 0H123v1536h297V0z"/><glyph glyph-name="ibreve" unicode="ĭ" horiz-adv-x="542" d="M387 1536h211q0-147-88-229t-240-82q-150 0-236.5 82T-53 1536h209q0-62 32.5-92.5T270 1413q53 0 85 30t32 93zM420 0H123v1024h297V0z"/><glyph glyph-name="Iogonek" unicode="Į" horiz-adv-x="542" d="M203 0h-80v1536h297V0h-64q-88-122-121.5-190T201-309q0-33 18.5-49.5T268-375q29 0 48 18t24 48h186q0-96-71-153.5T264-520q-113 0-180.5 50T16-334q0 33 9 65t32.5 70 39 60.5 54 71.5T203 0z"/><glyph glyph-name="iogonek" unicode="į" horiz-adv-x="542" d="M272 1202q-76 0-127 50t-51 122q0 74 51 123t127 49 126.5-49 50.5-123q0-73-50.5-122.5T272 1202zM203 0h-80v1024h297V0h-64q-88-122-121.5-190T201-309q0-33 18.5-49.5T268-375q29 0 48 18t24 48h186q0-96-71-153.5T264-520q-113 0-180.5 50T16-334q0 33 9 65t32.5 70 39 60.5 54 71.5T203 0z"/><glyph glyph-name="Idotaccent" unicode="İ" horiz-adv-x="542" d="M270 1675q-67 0-112 46t-45 112q0 69 44.5 114.5T270 1993q69 0 114.5-45.5T430 1833q0-67-46-112.5T270 1675zM420 0H123v1536h297V0z"/><glyph glyph-name="dotlessi" unicode="ı" horiz-adv-x="542" d="M420 0H123v1024h297V0z"/><glyph glyph-name="IJ" unicode="Ĳ" horiz-adv-x="1613" d="M420 0H123v1536h297V0zm790 1536h297V426q0-219-122.5-336T1061-27Q861-27 737.5 90.5T614 426v162h297V436q0-109 38.5-154.5T1061 236q74 0 111.5 45t37.5 155v1100z"/><glyph glyph-name="ij" unicode="ĳ" horiz-adv-x="1085" d="M815 1202q-76 0-127 50t-51 122q0 74 51 123t127 49 126-49 50-123q0-73-50-122.5T815 1202zm-543 0q-76 0-127 50t-51 122q0 74 51 123t127 49 126.5-49 50.5-123q0-73-50.5-122.5T272 1202zM420 0H123v1024h297V0zm246-135v1159h297V-145q0-373-377-373-81 0-131 12v246q38-6 77-6 67 0 100.5 29T666-135z"/><glyph glyph-name="Jcircumflex" unicode="Ĵ" horiz-adv-x="1071" d="M942 1679l-129 152-127-152H455l200 308h318l198-308H942zm-274-143h297V426q0-219-123-336T518-27q-130 0-229.5 49.5T130.5 176 72 426v162h297V436q0-110 38-155t111-45q74 0 112 45t38 155v1100z"/><glyph glyph-name="jcircumflex" unicode="ĵ" horiz-adv-x="542" d="M399 1229l-129 151-127-151H-88l201 307h317l199-307H399zM123-135v1159h297V-145q0-373-377-373-81 0-131 12v246q38-6 78-6 67 0 100 29t33 102z"/><glyph glyph-name="Kcommaaccent" unicode="Ķ" horiz-adv-x="1071" d="M733 0L418 741V0H123v1536h295V799l319 737h316L700 811 1071 0H733zM535-430H340l51 307h291z"/><glyph glyph-name="kcommaaccent" unicode="ķ" horiz-adv-x="1157" d="M793 0L420 537V0H123v1536h297V582l338 442h362L725 561 1143 0H793zM578-430H383l51 307h291z"/><glyph glyph-name="Lacute" unicode="Ĺ" horiz-adv-x="888" d="M395 1679H160l116 308h308zM123 0v1536h297V262h448V0H123z"/><glyph glyph-name="lacute" unicode="ĺ" horiz-adv-x="542" d="M389 1679H154l116 308h308zM420 0H123v1536h297V0z"/><glyph glyph-name="Lcommaaccent" unicode="Ļ" horiz-adv-x="888" d="M123 0v1536h297V262h448V0H123zm387-430H315l52 307h290z"/><glyph glyph-name="lcommaaccent" unicode="ļ" horiz-adv-x="542" d="M420 0H123v1536h297V0zM268-430H74l51 307h291z"/><glyph glyph-name="Lcaron" unicode="Ľ" horiz-adv-x="888" d="M522 1536h260l-98-389H522v389zM123 0v1536h297V262h448V0H123z"/><glyph glyph-name="lcaron" unicode="ľ" horiz-adv-x="542" d="M537 1536h260l-99-389H537v389zM420 0H123v1536h297V0z"/><glyph glyph-name="Ldot" unicode="Ŀ" horiz-adv-x="888" d="M717 639q-67 0-112.5 46T559 797q0 69 45 114t113 45q69 0 114.5-45T877 797q0-67-45.5-112.5T717 639zM123 0v1536h297V262h448V0H123z"/><glyph glyph-name="ldot" unicode="ŀ" horiz-adv-x="542" d="M420 0H123v1536h297V0zm221 623q-67 0-112.5 45.5T483 780q0 69 45 114.5T641 940q69 0 114.5-45.5T801 780q0-66-45.5-111.5T641 623z"/><glyph glyph-name="Lslash" unicode="Ł" horiz-adv-x="888" d="M123 0v543L-6 467v225l129 76v768h297V946l194 115V836L420 721V262h448V0H123z"/><glyph glyph-name="lslash" unicode="ł" horiz-adv-x="542" d="M420 0H123v565L-6 489v226l129 76v745h297V969l129 75V819l-129-76V0z"/><glyph glyph-name="Nacute" unicode="Ń" horiz-adv-x="1208" d="M733 1679H498l116 308h308zM631 0L377 1331V0H123v1536h457L831 223v1313h254V0H631z"/><glyph glyph-name="nacute" unicode="ń" horiz-adv-x="1198" d="M733 1229H498l116 307h308zM420 565V0H123v1024h293V879q46 79 123.5 122t173.5 43q166 0 269-106t103-305V0H788v565q0 115-47.5 174.5T604 799t-136.5-59.5T420 565z"/><glyph glyph-name="Ncommaaccent" unicode="Ņ" horiz-adv-x="1208" d="M631 0L377 1331V0H123v1536h457L831 223v1313h254V0H631zm-29-430H408l51 307h291z"/><glyph glyph-name="ncommaaccent" unicode="ņ" horiz-adv-x="1198" d="M420 565V0H123v1024h293V879q46 79 123.5 122t173.5 43q166 0 269-106t103-305V0H788v565q0 115-47.5 174.5T604 799t-136.5-59.5T420 565zm182-995H408l51 307h291z"/><glyph glyph-name="Ncaron" unicode="Ň" horiz-adv-x="1208" d="M444 1679l-200 308h231l127-152 129 152h230l-199-308H444zM631 0L377 1331V0H123v1536h457L831 223v1313h254V0H631z"/><glyph glyph-name="ncaron" unicode="ň" horiz-adv-x="1198" d="M446 1229l-200 307h231l127-152 129 152h230l-199-307H446zm-26-664V0H123v1024h293V879q46 79 123.5 122t173.5 43q166 0 269-106t103-305V0H788v565q0 115-47.5 174.5T604 799t-136.5-59.5T420 565z"/><glyph glyph-name="Eng" unicode="Ŋ" horiz-adv-x="1208" d="M729-518q-81 0-135 12v246q38-6 78-6 76 0 117.5 29.5T831-135V0H631L377 1305V0H123v1536h457L831 250v1286h254V-145q0-373-356-373z"/><glyph glyph-name="eng" unicode="ŋ" horiz-adv-x="1198" d="M709-518q-79 0-129 12v246q38-6 75-6 67 0 100 29t33 102v700q0 115-47.5 174.5T604 799t-136.5-59.5T420 565V0H123v1024h293V879q46 79 123.5 122t173.5 43q166 0 269-106t103-305v-778q0-373-376-373z"/><glyph glyph-name="Omacron" unicode="Ō" horiz-adv-x="1167" d="M883 1884v-188H299v188h584zM584-27q-229 0-355.5 135.5T102 508v522q0 262 126.5 397.5T584 1563q228 0 354.5-135t126.5-398V508q0-264-126-399.5T584-27zm0 263q91 0 137.5 61T768 502v532q0 144-46.5 205T584 1300q-90 0-137.5-61T399 1034V502q0-144 47-205t138-61z"/><glyph glyph-name="omacron" unicode="ō" horiz-adv-x="1187" d="M893 1434v-189H309v189h584zM594-20q-231 0-382 149T61 512t151 383 382 149 381.5-149T1126 512 975.5 129 594-20zm0 264q107 0 175.5 74.5T838 512q0 120-68.5 194T594 780q-106 0-175-74t-69-194q0-119 69.5-193.5T594 244z"/><glyph glyph-name="Obreve" unicode="Ŏ" horiz-adv-x="1167" d="M700 1987h211q0-147-87.5-229.5T584 1675q-150 0-237 82.5T260 1987h209q0-62 33-92.5t82-30.5q53 0 84.5 30t31.5 93zM584-27q-229 0-355.5 135.5T102 508v522q0 262 126.5 397.5T584 1563q228 0 354.5-135t126.5-398V508q0-264-126-399.5T584-27zm0 263q91 0 137.5 61T768 502v532q0 144-46.5 205T584 1300q-90 0-137.5-61T399 1034V502q0-144 47-205t138-61z"/><glyph glyph-name="obreve" unicode="ŏ" horiz-adv-x="1187" d="M711 1536h211q0-147-88-229t-240-82q-150 0-237 82t-87 229h209q0-62 33-92.5t82-30.5q53 0 85 30t32 93zM594-20q-231 0-382 149T61 512t151 383 382 149 381.5-149T1126 512 975.5 129 594-20zm0 264q107 0 175.5 74.5T838 512q0 120-68.5 194T594 780q-106 0-175-74t-69-194q0-119 69.5-193.5T594 244z"/><glyph glyph-name="Ohungarumlaut" unicode="Ő" horiz-adv-x="1167" d="M887 1679H696l52 308h282zm-389 0H307l51 308h283zM584-27q-229 0-355.5 135.5T102 508v522q0 262 126.5 397.5T584 1563q228 0 354.5-135t126.5-398V508q0-264-126-399.5T584-27zm0 263q91 0 137.5 61T768 502v532q0 144-46.5 205T584 1300q-90 0-137.5-61T399 1034V502q0-144 47-205t138-61z"/><glyph glyph-name="ohungarumlaut" unicode="ő" horiz-adv-x="1187" d="M897 1229H707l51 307h282zm-389 0H317l52 307h282zM594-20q-231 0-382 149T61 512t151 383 382 149 381.5-149T1126 512 975.5 129 594-20zm0 264q107 0 175.5 74.5T838 512q0 120-68.5 194T594 780q-106 0-175-74t-69-194q0-119 69.5-193.5T594 244z"/><glyph glyph-name="OE" unicode="Œ" horiz-adv-x="1554" d="M584 0Q370 0 236 139.5T102 532v472q0 253 134 392.5T584 1536h895v-260h-435V918h394V655h-394V262h435V0H584zm0 1276q-185 0-185-283V543q0-281 185-281h164v1014H584z"/><glyph glyph-name="oe" unicode="œ" horiz-adv-x="1937" d="M1354 801q-94 0-153.5-50.5T1122 604h463q-19 97-78 147t-153 50zM594 246q107 0 175.5 73.5T838 512t-68.5 192.5T594 778q-106 0-175-73.5T350 512t69-192.5T594 246zm1257 78q-47-167-175-255.5T1360-20q-119 0-219 47T973 160Q905 74 806 27T590-20q-230 0-380.5 149.5T59 512t150.5 382.5T590 1044q117 0 216-47t167-133q68 86 168 133t219 47q224 0 370-149t146-383q0-28-4-82h-752q38-207 242-207 141 0 184 101h305z"/><glyph glyph-name="Racute" unicode="Ŕ" d="M692 1679H457l116 308h308zm-114-399H418V868h160q180 0 180 203v27q0 182-180 182zM418 756V0H123v1536h487q199 0 321-104.5t122-294.5v-60q0-153-79.5-249.5T756 696L1096 0H758z"/><glyph glyph-name="racute" unicode="ŕ" horiz-adv-x="825" d="M610 1229H375l117 307h307zM420 518V0H123v1024h287V846q51 96 136 147t193 51q40 0 52-4V737q-49 17-107 17-126 0-195-61t-69-175z"/><glyph glyph-name="Rcommaaccent" unicode="Ŗ" d="M578 1280H418V868h160q180 0 180 203v27q0 182-180 182zM418 756V0H123v1536h487q199 0 321-104.5t122-294.5v-60q0-153-79.5-249.5T756 696L1096 0H758zM543-430H348l51 307h291z"/><glyph glyph-name="rcommaaccent" unicode="ŗ" horiz-adv-x="825" d="M420 518V0H123v1024h287V846q51 96 136 147t193 51q40 0 52-4V737q-49 17-107 17-126 0-195-61t-69-175zM268-430H74l51 307h291z"/><glyph glyph-name="Rcaron" unicode="Ř" d="M403 1679l-200 308h231l127-152 129 152h230l-199-308H403zm175-399H418V868h160q180 0 180 203v27q0 182-180 182zM418 756V0H123v1536h487q199 0 321-104.5t122-294.5v-60q0-153-79.5-249.5T756 696L1096 0H758z"/><glyph glyph-name="rcaron" unicode="ř" horiz-adv-x="825" d="M324 1229l-201 307h231l127-152 129 152h230l-199-307H324zm96-711V0H123v1024h287V846q51 96 136 147t193 51q40 0 52-4V737q-49 17-107 17-126 0-195-61t-69-175z"/><glyph glyph-name="Sacute" unicode="Ś" horiz-adv-x="993" d="M629 1679H393l117 308h307zM84 1161q0 104 32.5 183t90 126 131.5 70 162 23q183 0 300.5-106T918 1153v-109H633v103q0 83-35 123.5t-98 40.5q-58 0-93.5-35.5T371 1176q0-70 36.5-117.5T526 950l176-129q111-83 173.5-182.5T938 401q0-205-123.5-316.5T502-27q-122 0-219 47T127 162 68 385v127h286V399q0-81 40.5-127.5T502 225q68 0 107.5 38T649 367q0 76-39 128T485 612L317 737q-112 81-172.5 180.5T84 1161z"/><glyph glyph-name="sacute" unicode="ś" horiz-adv-x="1032" d="M641 1229H406l116 307h307zm326-926q0-149-122-236T532-20q-204 0-334 96T68 338h286q0-72 49-111t127-39q69 0 107.5 25t38.5 74q0 36-25.5 59.5t-67 34.5-94.5 23-108 21-108 31.5-94.5 53.5-67 87T86 729q0 145 117.5 230t298.5 85q190 0 318-99.5T948 698H662q0 59-45.5 98.5T504 836q-60 0-97.5-25.5T369 743q0-36 33-58.5t85.5-34.5T604 627.5t128-31T848.5 544t85.5-93.5T967 303z"/><glyph glyph-name="Scircumflex" unicode="Ŝ" horiz-adv-x="993" d="M627 1679l-129 152-127-152H139l201 308h317l199-308H627zM84 1161q0 104 32.5 183t90 126 131.5 70 162 23q183 0 300.5-106T918 1153v-109H633v103q0 83-35 123.5t-98 40.5q-58 0-93.5-35.5T371 1176q0-70 36.5-117.5T526 950l176-129q111-83 173.5-182.5T938 401q0-205-123.5-316.5T502-27q-122 0-219 47T127 162 68 385v127h286V399q0-81 40.5-127.5T502 225q68 0 107.5 38T649 367q0 76-39 128T485 612L317 737q-112 81-172.5 180.5T84 1161z"/><glyph glyph-name="scircumflex" unicode="ŝ" horiz-adv-x="1032" d="M641 1229l-129 151-127-151H154l200 307h318l198-307H641zm326-926q0-149-122-236T532-20q-204 0-334 96T68 338h286q0-72 49-111t127-39q69 0 107.5 25t38.5 74q0 36-25.5 59.5t-67 34.5-94.5 23-108 21-108 31.5-94.5 53.5-67 87T86 729q0 145 117.5 230t298.5 85q190 0 318-99.5T948 698H662q0 59-45.5 98.5T504 836q-60 0-97.5-25.5T369 743q0-36 33-58.5t85.5-34.5T604 627.5t128-31T848.5 544t85.5-93.5T967 303z"/><glyph glyph-name="Scedilla" unicode="Ş" horiz-adv-x="993" d="M502-512q-105 0-172.5 51T262-336h162q10-47 78-47 35 0 58.5 23t23.5 57q0 35-23.5 58.5T502-221q-26 0-45.5-10.5T432-254H272L420-20Q263 4 165.5 110T68 385v127h286V399q0-81 40.5-127.5T502 225q68 0 107.5 38T649 367q0 76-39 128T485 612L317 737q-112 81-172.5 180.5T84 1161q0 104 32.5 183t90 126 131.5 70 162 23q183 0 300.5-106T918 1153v-109H633v103q0 83-35 123.5t-98 40.5q-58 0-93.5-35.5T371 1176q0-70 36.5-117T526 950l176-129q111-83 173.5-182.5T938 401q0-185-102-294.5T571-23l-47-69q95 0 156-61.5T741-303q0-89-66.5-149T502-512z"/><glyph glyph-name="scedilla" unicode="ş" horiz-adv-x="1032" d="M532-512q-105 0-172 51t-67 125h162q10-47 77-47 35 0 58.5 23t23.5 57q0 35-23.5 58.5T532-221q-26 0-45-10.5T463-254H303L453-16Q280 3 174 96T68 338h286q0-72 49-111t127-39q69 0 107.5 25t38.5 74q0 36-25.5 59.5t-67 34.5-94.5 23-108 21-108 31.5-94.5 53.5-67 87T86 729q0 145 117.5 230t298.5 85q190 0 318-99.5T948 698H662q0 59-45.5 98.5T504 836q-60 0-97.5-25.5T369 743q0-32 25.5-53.5T462 658t96-21.5 110-22T778 581t96-55.5 67.5-89.5T967 303q0-134-100.5-219T604-16l-49-76q95 0 156-61.5T772-303q0-89-67-149t-173-60z"/><glyph glyph-name="Scaron" unicode="Š" horiz-adv-x="993" d="M340 1679l-201 308h232l127-152 129 152h229l-199-308H340zM84 1161q0 104 32.5 183t90 126 131.5 70 162 23q183 0 300.5-106T918 1153v-109H633v103q0 83-35 123.5t-98 40.5q-58 0-93.5-35.5T371 1176q0-70 36.5-117.5T526 950l176-129q111-83 173.5-182.5T938 401q0-205-123.5-316.5T502-27q-122 0-219 47T127 162 68 385v127h286V399q0-81 40.5-127.5T502 225q68 0 107.5 38T649 367q0 76-39 128T485 612L317 737q-112 81-172.5 180.5T84 1161z"/><glyph glyph-name="scaron" unicode="š" horiz-adv-x="1032" d="M354 1229l-200 307h231l127-152 129 152h229l-198-307H354zm613-926q0-149-122-236T532-20q-204 0-334 96T68 338h286q0-72 49-111t127-39q69 0 107.5 25t38.5 74q0 36-25.5 59.5t-67 34.5-94.5 23-108 21-108 31.5-94.5 53.5-67 87T86 729q0 145 117.5 230t298.5 85q190 0 318-99.5T948 698H662q0 59-45.5 98.5T504 836q-60 0-97.5-25.5T369 743q0-36 33-58.5t85.5-34.5T604 627.5t128-31T848.5 544t85.5-93.5T967 303z"/><glyph glyph-name="Tcommaaccent" unicode="Ţ" horiz-adv-x="888" d="M868 1276H594V0H297v1276H20v260h848v-260zM442-430H248l51 307h291z"/><glyph glyph-name="tcommaaccent" unicode="ţ" horiz-adv-x="798" d="M481 367q0-70 34-103t106-33q57 0 112 19V4q-82-24-172-24-86 0-151.5 18t-118 59-80 114.5T184 350v434H37v240h147v303h297v-303h252V784H481V367zm0-797H287l51 307h291z"/><glyph glyph-name="Tcaron" unicode="Ť" horiz-adv-x="888" d="M285 1679L84 1987h231l127-152 129 152h230l-199-308H285zm583-403H594V0H297v1276H20v260h848v-260z"/><glyph glyph-name="tcaron" unicode="ť" horiz-adv-x="798" d="M590 1536h260l-98-389H590v389zM481 367q0-70 34-103t106-33q57 0 112 19V4q-82-24-172-24-86 0-151.5 18t-118 59-80 114.5T184 350v434H37v240h147v303h297v-303h252V784H481V367z"/><glyph glyph-name="Tbar" unicode="Ŧ" horiz-adv-x="888" d="M782 836H594V0H297v836H106v188h191v252H20v260h848v-260H594v-252h188V836z"/><glyph glyph-name="tbar" unicode="ŧ" horiz-adv-x="798" d="M733 4q-78-24-172-24-86 0-151.5 18t-118 59-80 114.5T184 350v129H78v164h106v141H37v240h147v303h297v-303h252V784H481V643h193V479H481V367q0-70 34-103t106-33q57 0 112 19V4z"/><glyph glyph-name="Utilde" unicode="Ũ" horiz-adv-x="1167" d="M231 1679v99q0 209 181 209 43 0 88.5-16.5t77-36 67-36T705 1882q59 0 59 70v35h174v-97q0-211-182-211-54 0-111 26.5T541 1758t-76 26q-59 0-59-70v-35H231zm-118-143h297V477q0-130 44-185.5T584 236t130 55.5T758 477v1059h297V481q0-251-123.5-379.5T584-27 236.5 101.5 113 481v1055z"/><glyph glyph-name="utilde" unicode="ũ" horiz-adv-x="1187" d="M233 1229v98q0 209 181 209 54 0 111-26t104.5-52 77.5-26q59 0 59 69v35h174v-96q0-211-182-211-54 0-111 26t-104 52-76 26q-59 0-59-69v-35H233zM774 0v145Q728 66 652 23T481-20Q316-20 214.5 86T113 391v633h297V459q0-114 47-174t133-60 132 59.5T768 459v565h297V0H774z"/><glyph glyph-name="Umacron" unicode="Ū" horiz-adv-x="1167" d="M883 1884v-188H299v188h584zm-770-348h297V477q0-130 44-185.5T584 236t130 55.5T758 477v1059h297V481q0-251-123.5-379.5T584-27 236.5 101.5 113 481v1055z"/><glyph glyph-name="umacron" unicode="ū" horiz-adv-x="1187" d="M885 1434v-189H301v189h584zM774 0v145Q728 66 652 23T481-20Q316-20 214.5 86T113 391v633h297V459q0-114 47-174t133-60 132 59.5T768 459v565h297V0H774z"/><glyph glyph-name="Ubreve" unicode="Ŭ" horiz-adv-x="1167" d="M700 1987h211q0-147-87.5-229.5T584 1675q-150 0-237 82.5T260 1987h209q0-62 33-92.5t82-30.5q53 0 84.5 30t31.5 93zm-587-451h297V477q0-130 44-185.5T584 236t130 55.5T758 477v1059h297V481q0-251-123.5-379.5T584-27 236.5 101.5 113 481v1055z"/><glyph glyph-name="ubreve" unicode="ŭ" horiz-adv-x="1187" d="M702 1536h211q0-147-87.5-229T586 1225q-150 0-237 82t-87 229h209q0-62 33-92.5t82-30.5q53 0 84.5 30t31.5 93zM774 0v145Q728 66 652 23T481-20Q316-20 214.5 86T113 391v633h297V459q0-114 47-174t133-60 132 59.5T768 459v565h297V0H774z"/><glyph glyph-name="Uring" unicode="Ů" horiz-adv-x="1167" d="M584 1618q-100 0-164 55t-64 139q0 83 64 139t164 56q101 0 165-56t64-139q0-84-63.5-139T584 1618zm0 129q31 0 51 18t20 47-20 48.5-51 19.5q-28 0-48-19.5t-20-48.5 20-47 48-18zm-471-211h297V477q0-130 44-185.5T584 236t130 55.5T758 477v1059h297V481q0-251-123.5-379.5T584-27 236.5 101.5 113 481v1055z"/><glyph glyph-name="uring" unicode="ů" horiz-adv-x="1187" d="M586 1167q-100 0-164 55.5T358 1362q0 83 64 138.5t164 55.5q101 0 165-55.5t64-138.5q0-84-63.5-139.5T586 1167zm0 129q31 0 51 18.5t20 47.5-20 48.5-51 19.5q-28 0-48-19.5t-20-48.5 20-47.5 48-18.5zM774 0v145Q728 66 652 23T481-20Q316-20 214.5 86T113 391v633h297V459q0-114 47-174t133-60 132 59.5T768 459v565h297V0H774z"/><glyph glyph-name="Uhungarumlaut" unicode="Ű" horiz-adv-x="1167" d="M887 1679H696l52 308h282zm-389 0H307l51 308h283zm-385-143h297V477q0-130 44-185.5T584 236t130 55.5T758 477v1059h297V481q0-251-123.5-379.5T584-27 236.5 101.5 113 481v1055z"/><glyph glyph-name="uhungarumlaut" unicode="ű" horiz-adv-x="1187" d="M889 1229H698l52 307h282zm-389 0H309l51 307h283zM774 0v145Q728 66 652 23T481-20Q316-20 214.5 86T113 391v633h297V459q0-114 47-174t133-60 132 59.5T768 459v565h297V0H774z"/><glyph glyph-name="Uogonek" unicode="Ų" horiz-adv-x="1167" d="M575-520q-111 0-178 50t-67 136q0 23 4 45t15 46.5 19.5 42 28.5 46 30 42 36 47T498-20Q313 4 213 130T113 481v1055h297V477q0-130 44-185.5T584 236t130 55.5T758 477v1059h297V481q0-230-105.5-357.5T651-23q-77-112-107-175.5T514-309q0-33 19-49.5t49-16.5q29 0 47.5 18t23.5 48h187q0-95-72.5-153T575-520z"/><glyph glyph-name="uogonek" unicode="ų" horiz-adv-x="1187" d="M791 0h-17v145Q728 66 652 23T481-20Q316-20 214.5 86T113 391v633h297V459q0-114 47-174t133-60 132 59.5T768 459v565h297V0H944q-88-123-122-191t-34-118q0-33 19-49.5t49-16.5q29 0 48 18t24 48h186q0-96-71-153.5T852-520q-113 0-180.5 50T604-334q0 33 9 65t32.5 70 39 60.5 54 71.5T791 0z"/><glyph glyph-name="Wcircumflex" unicode="Ŵ" horiz-adv-x="1536" d="M893 1679l-129 152-127-152H406l200 308h318l198-308H893zM203 0L16 1536h281L424 266l145 1270h394l149-1264 127 1264h283L1333 0H915L768 1282 625 0H203z"/><glyph glyph-name="wcircumflex" unicode="ŵ" horiz-adv-x="1566" d="M907 1229l-129 151-127-151H420l201 307h317l199-307H907zM254 0L25 1024h270l156-799 155 799h355l155-799 156 799h270L1313 0H940L784 803 627 0H254z"/><glyph glyph-name="Ycircumflex" unicode="Ŷ" horiz-adv-x="983" d="M618 1679l-129 152-127-152H131l201 308h317l199-308H618zm23-1120V0H344v559L0 1536h289l203-635 202 635h289z"/><glyph glyph-name="ycircumflex" unicode="ŷ" horiz-adv-x="1026" d="M657 1229l-129 151-127-151H170l201 307h317l199-307H657zM188-532q-95 0-174 22v238q90-21 144-21 145 0 223 127L8 1024h293l209-801 217 801h291L686-45q-34-118-74.5-203t-99-151.5-139-99.5T188-532z"/><glyph glyph-name="Ydieresis" unicode="Ÿ" horiz-adv-x="983" d="M700 1690q-58 0-99.5 42T559 1833t41.5 101 99.5 42q61 0 102.5-42t41.5-101-41.5-101-102.5-42zm-417 0q-59 0-101.5 42.5T139 1833q0 60 42.5 101.5T283 1976q60 0 101.5-41.5T426 1833q0-59-41.5-101T283 1690zM641 559V0H344v559L0 1536h289l203-635 202 635h289z"/><glyph glyph-name="Zacute" unicode="Ź" horiz-adv-x="901" d="M586 1679H350l117 308h307zM870 0H51v324l520 952H61v260h789v-322L332 262h538V0z"/><glyph glyph-name="zacute" unicode="ź" horiz-adv-x="962" d="M604 1229H369l116 307h308zM922 0H61v303l531 481H72v240h809V723L352 242h570V0z"/><glyph glyph-name="Zdotaccent" unicode="Ż" horiz-adv-x="901" d="M457 1675q-67 0-112.5 46T299 1833q0 69 45 114.5t113 45.5q69 0 114-45.5t45-114.5q0-67-45.5-112.5T457 1675zM870 0H51v324l520 952H61v260h789v-322L332 262h538V0z"/><glyph glyph-name="zdotaccent" unicode="ż" horiz-adv-x="962" d="M475 1225q-67 0-112.5 45.5T317 1382q0 69 45 114.5t113 45.5q69 0 114.5-45.5T635 1382q0-66-45.5-111.5T475 1225zM922 0H61v303l531 481H72v240h809V723L352 242h570V0z"/><glyph glyph-name="Zcaron" unicode="Ž" horiz-adv-x="901" d="M297 1679L96 1987h232l127-152 129 152h229l-199-308H297zM870 0H51v324l520 952H61v260h789v-322L332 262h538V0z"/><glyph glyph-name="zcaron" unicode="ž" horiz-adv-x="962" d="M317 1229l-200 307h231l127-152 129 152h230l-199-307H317zM922 0H61v303l531 481H72v240h809V723L352 242h570V0z"/><glyph glyph-name="florin" unicode="ƒ" d="M915 664H610L360-512H63L313 664H152v155h194l74 350q44 209 161.5 298t315.5 89q75 0 133-16v-250q-50 17-131 17-155 0-182-148l-72-340h270V664z"/><glyph glyph-name="Aringacute" unicode="Ǻ" horiz-adv-x="1044" d="M631 2089H395l117 307h307zm-109-471q-100 0-163.5 55T295 1812q0 83 63.5 139t163.5 56q101 0 165.5-56t64.5-139q0-84-64-139t-166-55zm0 129q31 0 51.5 18t20.5 47-20.5 48.5T522 1880q-28 0-47.5-19.5T455 1812t19.5-47 47.5-18zM643 569l-121 742-121-742h242zM737 0l-51 313H358L307 0H16l279 1536h455L1030 0H737z"/><glyph glyph-name="aringacute" unicode="ǻ" d="M696 1679H461l117 308h307zm-125-512q-100 0-163.5 55.5T344 1362q0 83 63.5 138.5T571 1556q101 0 165.5-55.5T801 1362q0-84-64-139.5T571 1167zm0 129q31 0 51.5 18.5T643 1362t-20.5 48.5T571 1430q-28 0-47.5-19.5T504 1362t19.5-47.5T571 1296zM500 199q97 0 163 55t66 154v53q-37-16-90.5-29t-97-22-84-21.5-63.5-35-23-56.5q0-48 36-73t93-25zM735 0v156Q642-20 410-20q-89 0-163 29.5T123.5 107 74 272q0 88 36 150t93.5 92.5T330 564t138.5 28.5 127 20.5 93.5 35.5 36 64.5q0 53-45.5 83.5T563 827q-77 0-121.5-40.5T397 672H104q0 97 39 170.5T249 959t148 64 174 21q92 0 170.5-19t143-58 101-106 36.5-156V0H735z"/><glyph glyph-name="AEacute" unicode="Ǽ" horiz-adv-x="1593" d="M1063 1679H827l117 308h307zM791 584v762L514 584h277zm0-584v328H420L301 0H0l586 1536h936v-260h-437V918h396V655h-396V262h437V0H791z"/><glyph glyph-name="aeacute" unicode="ǽ" horiz-adv-x="1841" d="M1026 1229H791l116 307h307zm236-428q-94 0-153.5-50.5T1030 604h463q-19 97-78 147t-153 50zM500 199q98 0 163.5 55T729 408v53q-37-16-90.5-29t-97-22-84-21.5-63.5-35-23-56.5q0-48 36-73t93-25zm1255 125q-47-168-175-256t-318-88q-132 0-241 55.5T844 190Q746-20 453-20q-73 0-139.5 17.5t-121 52-86.5 92T74 272q0 88 36 150t93.5 92.5T330 564t138.5 28.5 127 20.5 93.5 35.5 36 64.5q0 53-45.5 83.5T563 827q-77 0-121.5-40.5T397 672H104q0 78 25 141.5T196.5 919t101 71 123.5 41.5 136 12.5q242 0 352-135 138 135 353 135 226 0 372-149t146-383q0-28-4-82h-748q38-207 242-207 141 0 184 101h301z"/><glyph glyph-name="Oslashacute" unicode="Ǿ" horiz-adv-x="1167" d="M713 1679H477l117 308h307zM621-27q-190 0-279 86L313 0H102l95 193q-95 109-95 335v502q0 259 122 396t325 137q191 0 276-88l31 61h209l-94-195q94-104 94-331V508q0-259-121-397T621-27zM399 1034V606l316 641q-42 53-131 53-91 0-138-61t-47-205zm185-798q92 0 138 60.5T768 502v428L455 287q43-51 129-51z"/><glyph glyph-name="oslashacute" unicode="ǿ" horiz-adv-x="1187" d="M723 1229H487l117 307h307zM594-20q-146 0-258 59L303 0H61l125 156Q61 303 61 512q0 234 151 383t382 149q141 0 260-61l33 41h239l-125-156q125-147 125-356 0-234-150.5-383T594-20zM340 512q0-67 27-133l319 395q-49 17-92 17-110 0-182-77.5T340 512zm254-279q111 0 182.5 77.5T848 512q0 67-27 133L504 250q46-17 90-17z"/><glyph glyph-name="Scommaaccent" unicode="Ș" horiz-adv-x="993" d="M84 1161q0 104 32.5 183t90 126 131.5 70 162 23q183 0 300.5-106T918 1153v-109H633v103q0 83-35 123.5t-98 40.5q-58 0-93.5-35.5T371 1176q0-70 36.5-117.5T526 950l176-129q111-83 173.5-182.5T938 401q0-205-123.5-316.5T502-27q-122 0-219 47T127 162 68 385v127h286V399q0-81 40.5-127.5T502 225q68 0 107.5 38T649 367q0 76-39 128T485 612L317 737q-112 81-172.5 180.5T84 1161zM500-430H305l51 307h291z"/><glyph glyph-name="scommaaccent" unicode="ș" horiz-adv-x="1032" d="M967 303q0-149-122-236T532-20q-204 0-334 96T68 338h286q0-72 49-111t127-39q69 0 107.5 25t38.5 74q0 36-25.5 59.5t-67 34.5-94.5 23-108 21-108 31.5-94.5 53.5-67 87T86 729q0 145 117.5 230t298.5 85q190 0 318-99.5T948 698H662q0 59-45.5 98.5T504 836q-60 0-97.5-25.5T369 743q0-36 33-58.5t85.5-34.5T604 627.5t128-31T848.5 544t85.5-93.5T967 303zM530-430H336l51 307h291z"/><glyph glyph-name="circumflex" unicode="ˆ" horiz-adv-x="1024" d="M641 1229l-129 151-127-151H154l200 307h318l198-307H641z"/><glyph glyph-name="caron" unicode="ˇ" horiz-adv-x="1024" d="M354 1229l-200 307h231l127-152 129 152h229l-198-307H354z"/><glyph glyph-name="breve" unicode="˘" horiz-adv-x="1024" d="M629 1536h211q0-147-88-229t-240-82q-150 0-237 82t-87 229h209q0-62 33-92.5t82-30.5q53 0 85 30t32 93z"/><glyph glyph-name="dotaccent" unicode="˙" horiz-adv-x="1024" d="M512 1225q-67 0-112.5 45.5T354 1382q0 69 45 114.5t113 45.5q69 0 114.5-45.5T672 1382q0-66-45.5-111.5T512 1225z"/><glyph glyph-name="ring" unicode="˚" horiz-adv-x="1024" d="M512 1167q-100 0-163.5 55.5T285 1362q0 83 63.5 138.5T512 1556q101 0 165-55.5t64-138.5q0-84-63.5-139.5T512 1167zm0 129q31 0 51.5 18.5T584 1362t-20.5 48.5T512 1430q-28 0-48-19.5t-20-48.5 20-47.5 48-18.5z"/><glyph glyph-name="ogonek" unicode="˛" horiz-adv-x="1024" d="M504-520q-111 0-178.5 50T258-334q0 28 8.5 57.5T285-224t32 56.5 36 52.5 45 58 44 57h154q-86-121-120-190t-34-119q0-33 19-49.5t49-16.5q29 0 48 18t24 48h186q0-95-72-153t-192-58z"/><glyph glyph-name="tilde" unicode="˜" horiz-adv-x="1024" d="M160 1229v98q0 209 180 209 54 0 111-26t104.5-52 77.5-26q59 0 59 69v35h174v-96q0-211-182-211-54 0-111 26t-104 52-76 26q-59 0-59-69v-35H160z"/><glyph glyph-name="hungarumlaut" unicode="˝" horiz-adv-x="1024" d="M815 1229H625l51 307h282zm-389 0H236l51 307h282z"/><glyph glyph-name="Delta" unicode="Δ" horiz-adv-x="1044" d="M696 256L522 1311 350 256h346zM16 0l279 1536h455L1030 0H16z"/><glyph glyph-name="Omega" unicode="Ω" horiz-adv-x="1167" d="M543 0H102v254h148Q102 357 102 600v430q0 262 126.5 397.5T584 1563q228 0 354.5-135t126.5-398V600q0-244-147-346h147V0H625v279q81 49 112 116t31 189v450q0 144-46.5 205T584 1300q-90 0-137.5-61T399 1034V584q0-123 31-189.5T543 279V0z"/><glyph glyph-name="mu" unicode="μ" horiz-adv-x="1196" d="M489-20q-36 0-71 6v-498H121v1536h297V459q0-115 46.5-174.5T598 225q86 0 132 59.5T776 459v565h297V0H780v143Q734 65 658.5 22.5T489-20z"/><glyph glyph-name="pi" unicode="π" horiz-adv-x="1320" d="M776 0v784H596L432 0H135l164 784H121v240h1126V784h-174V0H776z"/><glyph glyph-name="Wgrave" unicode="Ẁ" horiz-adv-x="1536" d="M657 1679l-190 308h307l119-308H657zM203 0L16 1536h281L424 266l145 1270h394l149-1264 127 1264h283L1333 0H915L768 1282 625 0H203z"/><glyph glyph-name="wgrave" unicode="ẁ" horiz-adv-x="1566" d="M672 1229l-191 307h307l119-307H672zM254 0L25 1024h270l156-799 155 799h355l155-799 156 799h270L1313 0H940L784 803 627 0H254z"/><glyph glyph-name="Wacute" unicode="Ẃ" horiz-adv-x="1536" d="M895 1679H659l117 308h307zM203 0L16 1536h281L424 266l145 1270h394l149-1264 127 1264h283L1333 0H915L768 1282 625 0H203z"/><glyph glyph-name="wacute" unicode="ẃ" horiz-adv-x="1566" d="M907 1229H672l116 307h308zM254 0L25 1024h270l156-799 155 799h355l155-799 156 799h270L1313 0H940L784 803 627 0H254z"/><glyph glyph-name="Wdieresis" unicode="Ẅ" horiz-adv-x="1536" d="M975 1690q-58 0-99.5 42T834 1833t41.5 101 99.5 42q61 0 102-42t41-101-41-101-102-42zm-418 0q-59 0-101 42t-42 101q0 60 42 101.5t101 41.5q60 0 101.5-41.5T700 1833q0-59-41.5-101T557 1690zM203 0L16 1536h281L424 266l145 1270h394l149-1264 127 1264h283L1333 0H915L768 1282 625 0H203z"/><glyph glyph-name="wdieresis" unicode="ẅ" horiz-adv-x="1566" d="M987 1239q-58 0-99.5 42T846 1382t41.5 101.5T987 1526q61 0 102-42.5t41-101.5-41-101-102-42zm-418 0q-59 0-101 42.5T426 1382q0 60 42 102t101 42q60 0 102-42t42-102q0-59-42-101t-102-42zM254 0L25 1024h270l156-799 155 799h355l155-799 156 799h270L1313 0H940L784 803 627 0H254z"/><glyph glyph-name="Ygrave" unicode="Ỳ" horiz-adv-x="983" d="M383 1679l-190 308h307l118-308H383zM641 559V0H344v559L0 1536h289l203-635 202 635h289z"/><glyph glyph-name="ygrave" unicode="ỳ" horiz-adv-x="1026" d="M422 1229l-191 307h308l118-307H422zM188-532q-95 0-174 22v238q90-21 144-21 145 0 223 127L8 1024h293l209-801 217 801h291L686-45q-34-118-74.5-203t-99-151.5-139-99.5T188-532z"/><glyph glyph-name="endash" unicode="–" horiz-adv-x="1024" d="M932 469H92v188h840V469z"/><glyph glyph-name="emdash" unicode="—" horiz-adv-x="2048" d="M1956 469H92v188h1864V469z"/><glyph glyph-name="quoteleft" unicode="‘" horiz-adv-x="446" d="M225 952q-71 0-119.5 52T57 1137q0 161 170 399h152q-97-144-137-266 60-7 101.5-53t41.5-105q0-66-47-113t-113-47z"/><glyph glyph-name="quoteright" unicode="’" horiz-adv-x="446" d="M219 973H70q97 151 135 266-60 6-101 53t-41 107q0 65 46 111t112 46q71 0 119.5-51.5T389 1374q0-160-170-401z"/><glyph glyph-name="quotesinglbase" unicode="‚" horiz-adv-x="446" d="M219-287H70q97 150 135 267-60 6-101 52.5T63 139q0 65 46 111.5T221 297q71 0 119.5-51.5T389 115q0-164-170-402z"/><glyph glyph-name="quotedblleft" unicode="“" horiz-adv-x="856" d="M635 952q-71 0-119.5 52T467 1137q0 161 170 399h151q-97-144-137-266 60-8 102-54t42-104q0-66-47-113t-113-47zm-410 0q-71 0-119.5 52T57 1137q0 161 170 399h152q-97-144-137-266 60-7 101.5-53t41.5-105q0-66-47-113t-113-47z"/><glyph glyph-name="quotedblright" unicode="”" horiz-adv-x="856" d="M629 973H479q97 151 135 266-60 6-100.5 53T473 1399q0 65 46 111t112 46q71 0 119.5-51.5T799 1374q0-160-170-401zm-410 0H70q97 151 135 266-60 6-101 53t-41 107q0 65 46 111t112 46q71 0 119.5-51.5T389 1374q0-160-170-401z"/><glyph glyph-name="quotedblbase" unicode="„" horiz-adv-x="856" d="M219-287H70q97 150 135 267-60 6-101 52.5T63 139q0 65 46 111.5T221 297q71 0 119.5-51.5T389 115q0-164-170-402zm410 0H479q97 150 135 267-60 6-100.5 52.5T473 139q0 65 46 111.5T631 297q71 0 119.5-51.5T799 115q0-164-170-402z"/><glyph glyph-name="dagger" unicode="†" horiz-adv-x="675" d="M641 1024H451V0H225v1024H37v195h188v317h226v-317h190v-195z"/><glyph glyph-name="daggerdbl" unicode="‡" horiz-adv-x="675" d="M641 317H451V0H225v317H37v195h188v512H37v195h188v317h226v-317h190v-195H451V512h190V317z"/><glyph glyph-name="bullet" unicode="•" horiz-adv-x="692" d="M346 371q-105 0-179.5 74.5T92 623q0 106 74 180t180 74q103 0 178.5-74.5T600 623q0-103-75.5-177.5T346 371z"/><glyph glyph-name="ellipsis" unicode="…" horiz-adv-x="1359" d="M1122-20q-67 0-113 47t-46 112 46 111.5 113 46.5q66 0 112-46.5t46-111.5-46-112-112-47zm-442 0q-66 0-113 47t-47 112 47 111.5T680 297q67 0 113.5-46.5T840 139 793.5 27 680-20zm-440 0q-67 0-113.5 47T80 139t46.5 111.5T240 297q66 0 111.5-46.5T397 139 351 27 240-20z"/><glyph glyph-name="perthousand" unicode="‰" horiz-adv-x="2385" d="M367 727q-146 0-235 103.5T43 1137q0 202 89.5 306.5T367 1548q146 0 233.5-104t87.5-307q0-204-87.5-307T367 727zM211 0l1065 1536h164L375 0H211zm156 918q54 0 80 53t26 166q0 118-26 173.5t-80 55.5q-109 0-109-229 0-219 109-219zM2019-12q-146 0-234.5 102.5T1696 397q0 203 89 307.5T2019 809q146 0 234-104.5t88-307.5q0-204-87.5-306.5T2019-12zm-735 0q-146 0-234.5 102.5T961 397q0 203 89 307.5T1284 809q146 0 234-104.5t88-307.5q0-204-87.5-306.5T1284-12zm735 190q54 0 80.5 53t26.5 166q0 230-107 230-108 0-108-230 0-219 108-219zm-735 0q54 0 80.5 53t26.5 166q0 230-107 230-108 0-108-230 0-219 108-219z"/><glyph glyph-name="guilsinglleft" unicode="‹" horiz-adv-x="634" d="M549 88L88 385v277l461 296V696L254 522l295-174V88z"/><glyph glyph-name="guilsinglright" unicode="›" horiz-adv-x="634" d="M88 88v260l295 174L88 696v262l461-296V385z"/><glyph glyph-name="fraction" unicode="⁄" horiz-adv-x="184" d="M-522 0L543 1536h164L-358 0h-164z"/><glyph glyph-name="zerosuperior" unicode="⁰" horiz-adv-x="733" d="M367 524q-146 0-235 103.5T43 934t89.5 307.5T367 1346q146 0 233.5-104.5T688 934q0-204-87.5-307T367 524zm0 191q54 0 80 53t26 166q0 118-26 173.5t-80 55.5q-109 0-109-229 0-219 109-219z"/><glyph glyph-name="foursuperior" unicode="⁴" horiz-adv-x="706" d="M211 844h160v340zm487-170H580V537H371v137H20v164l238 495h322V844h118V674z"/><glyph glyph-name="fivesuperior" unicode="⁵" horiz-adv-x="698" d="M365 524q-140 0-227 75T51 793h209q0-42 28-68.5t77-26.5q46 0 74 31.5t28 79.5q0 52-29 84.5T356 926q-37 0-62-15.5T264 874H66v459h565v-174H252v-143q57 63 154 63 115 0 192.5-74.5T676 809q0-126-86-205.5T365 524z"/><glyph glyph-name="sixsuperior" unicode="⁶" horiz-adv-x="712" d="M678 786q0-123-84.5-192.5T379 524q-149 0-242.5 101.5T43 936q0 104 27.5 184.5T146 1249t107 72.5 126 24.5q123 0 207-71.5t84-182.5H473q-2 38-26 61t-66 23q-58 0-93.5-55T252 958q58 93 174 93 48 0 91.5-15.5t80-46.5 58.5-83.5T678 786zm-299-98q42 0 70 27t28 71q0 42-28.5 70.5T379 885q-40 0-68-28.5T283 786q0-43 27.5-70.5T379 688z"/><glyph glyph-name="sevensuperior" unicode="⁷" horiz-adv-x="567" d="M356 537H135v45q0 93 19.5 175.5t57 154.5 75 125.5T379 1155H8v178h547v-231q-57-75-85.5-117.5t-59-106-42.5-133T356 586v-49z"/><glyph glyph-name="eightsuperior" unicode="⁸" horiz-adv-x="706" d="M352 524q-145 0-227 66.5T43 772q0 116 111 186-88 62-88 160 0 105 76.5 166.5T352 1346q134 0 211.5-61.5T641 1118q0-98-88-160 113-69 113-186 0-114-84-181t-230-67zm0 504q38 0 60 22t22 56-22.5 55-59.5 21q-36 0-58-21t-22-55 22-56 58-22zm0-340q48 0 76.5 27t28.5 69q0 43-28 70t-77 27q-47 0-74.5-27T250 784q0-42 28-69t74-27z"/><glyph glyph-name="ninesuperior" unicode="⁹" horiz-adv-x="712" d="M334 1180q-42 0-70-27.5t-28-71.5q0-42 28-69t70-27q40 0 68 27t28 69q0 43-28 71t-68 28zm0-656q-122 0-206.5 71.5T43 776h197q2-36 26.5-59t65.5-23q59 0 94 54t35 161q-56-90-174-90-48 0-91.5 15.5t-80 46T57 963t-22 118q0 125 84.5 195t214.5 70q150 0 243-101.5T670 932q0-103-27.5-183.5t-75.5-128-107-72T334 524z"/><glyph glyph-name="parenleftsuperior" unicode="⁽" horiz-adv-x="452" d="M88 915q0 345 201 621h166q-187-259-187-621t187-618H289Q88 570 88 915z"/><glyph glyph-name="parenrightsuperior" unicode="⁾" horiz-adv-x="452" d="M367 915q0-341-201-618H-2q188 258 188 618T-2 1536h168q201-280 201-621z"/><glyph glyph-name="zeroinferior" unicode="₀" horiz-adv-x="733" d="M367-524q-146 0-235 103T43-115t89.5 307.5T367 297q146 0 233.5-104.5T688-115q0-204-87.5-306.5T367-524zm0 190q54 0 80 53t26 166q0 118-26 174t-80 56q-109 0-109-230 0-219 109-219z"/><glyph glyph-name="oneinferior" unicode="₁" horiz-adv-x="450" d="M174 272v13h217v-797H168v496H20v168h39q60 0 87.5 28t27.5 92z"/><glyph glyph-name="twoinferior" unicode="₂" horiz-adv-x="647" d="M614 51q0-54-26.5-104t-68-88-84-70.5-82-65.5-54.5-59h319v-176H35v72q0 61 28 116.5t69.5 94.5 90 78 90 68T382-20.5 410 43q0 35-22.5 56.5T328 121q-88 0-88-94V0H39v43q0 120 81.5 187T328 297q123 0 204.5-64.5T614 51z"/><glyph glyph-name="threeinferior" unicode="₃" horiz-adv-x="706" d="M365-524q-149 0-239.5 72.5T35-254h207q0-46 31.5-73t82.5-27q46 0 74.5 24t28.5 62q0 84-109 84h-78v161h78q41 0 64.5 19.5T438 49q0 35-24.5 53.5T346 121t-67.5-22.5T254 33H49q0 125 79.5 194.5T352 297q136 0 217.5-63T651 68q0-109-96-164 117-62 117-187 0-114-83-177.5T365-524z"/><glyph glyph-name="fourinferior" unicode="₄" horiz-adv-x="706" d="M211-205h160v340zm487-170H580v-137H371v137H20v164l238 496h322v-490h118v-170z"/><glyph glyph-name="fiveinferior" unicode="₅" horiz-adv-x="698" d="M365-524q-140 0-227 74.5T51-256h209q0-42 28-68t77-26q46 0 74 31t28 79q0 52-29 84.5T356-123q-37 0-62-15.5T264-174H66v459h565V111H252V-33q58 64 154 64 115 0 192.5-75T676-240q0-126-86-205t-225-79z"/><glyph glyph-name="sixinferior" unicode="₆" horiz-adv-x="712" d="M678-262q0-123-84.5-192.5T379-524q-149 0-242.5 101T43-113Q43-9 70.5 71.5T146 200t107 72.5T379 297q123 0 207-71.5T670 43H473q-2 38-26 61t-66 23q-58 0-93.5-54.5T252-90Q309 2 426 2q48 0 91.5-15.5t80-46 58.5-83T678-262zm-299-98q42 0 70 27t28 71q0 42-28 70t-70 28q-40 0-68-28t-28-70q0-43 27.5-70.5T379-360z"/><glyph glyph-name="seveninferior" unicode="₇" horiz-adv-x="567" d="M356-512H135v45q0 93 19.5 175.5t57 154.5 75 125.5T379 106H8v179h547V53q-57-75-85.5-117.5t-59-106-42.5-133T356-463v-49z"/><glyph glyph-name="eightinferior" unicode="₈" horiz-adv-x="706" d="M352-524q-145 0-227 66.5T43-276q0 116 111 186Q66-28 66 70q0 105 76.5 166T352 297q134 0 211.5-61T641 70q0-98-88-160 113-69 113-186 0-114-84-181t-230-67zm0 504q38 0 60 21.5T434 57t-22.5 55-59.5 21q-36 0-58-21t-22-55 22-55.5T352-20zm0-340q48 0 76.5 27t28.5 69q0 43-28 69.5T352-168q-47 0-74.5-26.5T250-264q0-42 28-69t74-27z"/><glyph glyph-name="nineinferior" unicode="₉" horiz-adv-x="712" d="M334 131q-42 0-70-27t-28-71q0-42 28-69t70-27q40 0 68 27t28 69q0 43-27.5 70.5T334 131zm0-655q-122 0-206.5 71.5T43-272h197q2-36 26.5-59t65.5-23q59 0 94 54t35 161q-56-90-174-90-48 0-91.5 15.5t-80 46T57-85 35 33q0 125 84.5 194.5T334 297q150 0 243-101.5T670-117q0-103-27.5-183T567-428t-107-72-126-24z"/><glyph glyph-name="parenleftinferior" unicode="₍" horiz-adv-x="452" d="M88-133q0 344 201 620h166Q268 228 268-133q0-363 187-619H289Q88-479 88-133z"/><glyph glyph-name="parenrightinferior" unicode="₎" horiz-adv-x="452" d="M367-133q0-342-201-619H-2q188 258 188 619 0 359-188 620h168q201-280 201-620z"/><glyph glyph-name="Euro" unicode="€" d="M1085 453q0-228-126-354T631-27q-203 0-330 132T174 477v25H31v157h143v224H31v155h143v23q0 239 127 370.5T631 1563q202 0 328-126t126-354v-92H799v82q0 227-168 227-170 0-170-249v-13h246V883H461V659h246V502H461v-15q0-251 170-251 168 0 168 227v88h286v-98z"/><glyph glyph-name="uni2117" unicode="℗" horiz-adv-x="1699" d="M850-20q-165 0-311 63T291 212.5t-160.5 251T72 768q0 162 58.5 307T291 1326t247.5 168 311.5 62 311.5-62 247.5-168 160.5-251 58.5-307q0-160-58.5-304.5t-160.5-251T1161 43 850-20zm0 1460q-184 0-334-91t-232.5-244.5T201 768t82.5-336T516 188.5 850 98q185 0 335 90.5T1418 432t83 336-83 336.5-233.5 244.5-334.5 91zm39-455h-94V776h94q47 0 73.5 27.5T989 885t-25.5 77-74.5 23zm31-399H795V358H569v820h351q133 0 212.5-69.5T1212 885q0-133-83.5-216T920 586z"/><glyph glyph-name="trademark" unicode="™" horiz-adv-x="1896" d="M1202 717l-147 686V717H870v819h351l110-582 105 582h358V717h-205v674l-143-674h-244zm-487 635H502V717H291v635H78v184h637v-184z"/><glyph glyph-name="estimated" unicode="℮" horiz-adv-x="1699" d="M354 725V240q79-86 208.5-138.5T850 49q149 0 282 59.5T1354 260t139 205h76q-86-211-281-348T850-20q-229 0-405.5 97.5T170 354.5 72 768q0 173 60.5 321T298 1339t247.5 159.5T850 1556q168 0 314.5-62.5t247.5-169 158.5-251T1628 768q0-8-1-21.5t-1-21.5H354zm0 70h1006v473q-76 94-210 155.5T850 1485q-149 0-284.5-57T354 1284V795z"/><glyph glyph-name="arrowleft" unicode="←" d="M668 307L537 176 92 623l445 444 131-131-224-223h590V528H449z"/><glyph glyph-name="arrowup" unicode="↑" d="M877 469L653 692V102H469v586L248 469 117 600l446 444 445-444z"/><glyph glyph-name="arrowright" unicode="→" d="M590 176L459 307l219 221H92v185h590L459 936l131 131 444-444z"/><glyph glyph-name="arrowdown" unicode="↓" d="M563-20L117 424l131 131 221-219v586h184V332l224 223 131-131z"/><glyph glyph-name="partialdiff" unicode="∂" horiz-adv-x="1177" d="M569-20q-221 0-364.5 137.5T61 471q0 218 134 355t352 137q147 0 248-91-26 216-128 315t-280 99q-55 0-125-12v254q89 14 158 14 152 0 276.5-54.5t216.5-160 142.5-271T1106 680q0-151-27.5-270.5t-75.5-199-117-132T739 3 569-20zm0 256q98 0 162 65t64 170-64 170.5T569 707q-99 0-162-65.5T344 471t63-170 162-65z"/><glyph glyph-name="product" unicode="∏" horiz-adv-x="1208" d="M788-512v1788H420V-512H123v2048h962V-512H788z"/><glyph glyph-name="summation" unicode="∑" horiz-adv-x="907" d="M858-252v-260H72v322l454 696-454 708v322h788v-260H377l381-594V342L377-252h481z"/><glyph glyph-name="minus" unicode="−" d="M154 528v185h819V528H154z"/><glyph glyph-name="radical" unicode="√" horiz-adv-x="1024" d="M293 0L16 1024h297l199-819 319 1331h297L731 0H293z"/><glyph glyph-name="infinity" unicode="∞" d="M780 362q-74 0-130.5 34T563 489q-30-60-85.5-93.5T348 362q-115 0-190.5 73T82 618t75.5 183T348 874q74 0 129.5-33.5T563 748q30 59 86.5 92.5T780 874q114 0 189-73t75-183-75-183-189-73zm0 154q44 0 72.5 29t28.5 73-28.5 73.5T780 721q-43 0-72.5-29.5T678 618t29.5-73 72.5-29zm-432 0q43 0 72 29t29 73-29 73.5-72 29.5-72.5-29.5T246 618t29.5-73 72.5-29z"/><glyph glyph-name="integral" unicode="∫" horiz-adv-x="634" d="M59-518q-81 0-131 12v246q38-6 78-6 67 0 100 29t33 102v1304q0 187 113 287t297 100q95 0 153-18v-250q-55 19-114 19-72 0-112-38t-40-110V-145q0-373-377-373z"/><glyph glyph-name="approxequal" unicode="≈" d="M412 791q-33 0-55.5-22.5T334 705v-33H143v63q0 121 63 188.5T369 991q56 0 113-20.5t94.5-45 79.5-45 73-20.5q28 0 47 23t19 65v33h188v-63q0-123-60.5-189.5T764 662q-47 0-98.5 20t-88 44.5T495 771t-83 20zm0-410q-33 0-55.5-22.5T334 295v-33H143v64q0 121 63 188.5T369 582q56 0 113-20.5t94.5-45 79.5-45 73-20.5q28 0 47 23t19 65v32h188v-63q0-123-60.5-189.5T764 252q-47 0-98.5 20t-88 44.5T495 361t-83 20z"/><glyph glyph-name="notequal" unicode="≠" d="M973 324H479l-86-127H154l86 127h-86v184h213l153 225H154v185h493l86 126h240l-86-126h86V733H760L606 508h367V324z"/><glyph glyph-name="lessequal" unicode="≤" d="M973 233L154 582v182l819 348V905L410 674l563-234V233zM154 0v184h819V0H154z"/><glyph glyph-name="greaterequal" unicode="≥" d="M154 233v207l565 234-565 231v207l819-348V582zM973 0H154v184h819V0z"/><glyph glyph-name="uni25B4" unicode="▴" horiz-adv-x="1153" d="M119 373l456 743 457-743H119z"/><glyph glyph-name="uni25B5" unicode="▵" horiz-adv-x="1153" d="M119 373l456 743 457-743H119zm258 143h397L575 838z"/><glyph glyph-name="uni25B8" unicode="▸" horiz-adv-x="1153" d="M289 158v913l743-457z"/><glyph glyph-name="uni25B9" unicode="▹" horiz-adv-x="1153" d="M289 158v913l743-457zm153 258l320 198-320 199V416z"/><glyph glyph-name="uni25BE" unicode="▾" horiz-adv-x="1153" d="M119 1096h913L575 352z"/><glyph glyph-name="uni25BF" unicode="▿" horiz-adv-x="1153" d="M119 1096h913L575 352zm258-144l198-319 199 319H377z"/><glyph glyph-name="uni25C2" unicode="◂" horiz-adv-x="1153" d="M864 158L121 614l743 457V158z"/><glyph glyph-name="uni25C3" unicode="◃" horiz-adv-x="1153" d="M864 158L121 614l743 457V158zM711 416v397L391 614z"/><glyph glyph-name="lozenge" unicode="◊" horiz-adv-x="1024" d="M422 0L47 768l375 768h182l375-768L604 0H422zm90 240l254 528-254 530-254-530z"/><glyph glyph-name="heart" unicode="♥" horiz-adv-x="1736" d="M905 0h-74q-26 77-78.5 148.5T638 276 506.5 389 373 504 257 625t-83 145-31 174q0 182 107.5 284.5T516 1331q116 0 210-60.5T868 1083q48 126 142.5 187t210.5 61q158 0 265-102.5T1593 944q0-92-31-174t-83.5-145T1362 504t-133.5-115T1097 276 982.5 148.5 905 0zm23 854H809q-82 295-266 295-84 0-139.5-58.5T348 918q0-69 27.5-128t70-101T546 601t113-85.5T772 418t96-121q38 63 95.5 121t113 97.5T1190 601t101 88 70.5 101 27.5 128q0 113-56.5 171t-140.5 58q-186 0-264-293z"/><glyph glyph-name="uni2780" unicode="➀" horiz-adv-x="1699" d="M850-20q-165 0-311 63T291 212.5t-160.5 251T72 768q0 162 58.5 307T291 1326t247.5 168 311.5 62 311.5-62 247.5-168 160.5-251 58.5-307q0-160-58.5-304.5t-160.5-251T1161 43 850-20zm0 1460q-183 0-333-91t-233-244.5T201 768q0-137 49-260t134.5-213.5T591 151t259-53q185 0 335 90.5T1418 432t83 336-83 336.5-233.5 244.5-334.5 91zm-82-287v12h217V369H762v495H614v168h39q60 0 87.5 28.5T768 1153z"/><glyph glyph-name="uni2781" unicode="➁" horiz-adv-x="1699" d="M850-20q-165 0-311 63T291 212.5t-160.5 251T72 768q0 162 58.5 307T291 1326t247.5 168 311.5 62 311.5-62 247.5-168 160.5-251 58.5-307q0-160-58.5-304.5t-160.5-251T1161 43 850-20zm0 1460q-183 0-333-91t-233-244.5T201 768q0-137 49-260t134.5-213.5T591 151t259-53q185 0 335 90.5T1418 432t83 336-83 336.5-233.5 244.5-334.5 91zm276-508q0-54-26.5-104t-68-88-84-70.5-82-65.5-54.5-59h319V369H547v71q0 61 28 116.5t69.5 95 90 78 90 68 69.5 63 28 63.5q0 35-22.5 56t-59.5 21q-88 0-88-94v-26H551v43q0 120 81.5 187t207.5 67q123 0 204.5-64.5T1126 932z"/><glyph glyph-name="uni2782" unicode="➂" horiz-adv-x="1699" d="M850-20q-165 0-311 63T291 212.5t-160.5 251T72 768q0 162 58.5 307T291 1326t247.5 168 311.5 62 311.5-62 247.5-168 160.5-251 58.5-307q0-160-58.5-304.5t-160.5-251T1161 43 850-20zm0 1460q-183 0-333-91t-233-244.5T201 768q0-137 49-260t134.5-213.5T591 151t259-53q185 0 335 90.5T1418 432t83 336-83 336.5-233.5 244.5-334.5 91zm2-1084q-149 0-239.5 73T522 627h207q0-46 32-73.5t83-27.5q46 0 74 24t28 62q0 84-108 84h-78v162h78q41 0 64.5 19.5T926 930q0 35-24.5 53t-67.5 18-68-22.5-25-65.5H537q0 125 79.5 195t223.5 70q136 0 217.5-63.5T1139 948q0-108-97-164 117-62 117-186 0-114-83-178t-224-64z"/><glyph glyph-name="uni2783" unicode="➃" horiz-adv-x="1699" d="M850-20q-165 0-311 63T291 212.5t-160.5 251T72 768q0 162 58.5 307T291 1326t247.5 168 311.5 62 311.5-62 247.5-168 160.5-251 58.5-307q0-160-58.5-304.5t-160.5-251T1161 43 850-20zm0 1460q-183 0-333-91t-233-244.5T201 768q0-137 49-260t134.5-213.5T591 151t259-53q185 0 335 90.5T1418 432t83 336-83 336.5-233.5 244.5-334.5 91zM662 676h159v340zm487-170h-119V369H821v137H471v164l238 495h321V676h119V506z"/><glyph glyph-name="uni2784" unicode="➄" horiz-adv-x="1699" d="M850-20q-165 0-311 63T291 212.5t-160.5 251T72 768q0 162 58.5 307T291 1326t247.5 168 311.5 62 311.5-62 247.5-168 160.5-251 58.5-307q0-160-58.5-304.5t-160.5-251T1161 43 850-20zm0 1460q-183 0-333-91t-233-244.5T201 768q0-137 49-260t134.5-213.5T591 151t259-53q185 0 335 90.5T1418 432t83 336-83 336.5-233.5 244.5-334.5 91zm-2-1084q-140 0-226.5 75T535 625h208q0-42 28-68.5t77-26.5q46 0 74 31.5t28 79.5q0 53-28.5 85T840 758q-37 0-62-15.5T748 707H549v458h565V991H735V848q57 63 154 63 115 0 192.5-74.5T1159 641q0-126-86-205.5T848 356z"/><glyph glyph-name="uni2785" unicode="➅" horiz-adv-x="1699" d="M850-20q-165 0-311 63T291 212.5t-160.5 251T72 768q0 162 58.5 307T291 1326t247.5 168 311.5 62 311.5-62 247.5-168 160.5-251 58.5-307q0-160-58.5-304.5t-160.5-251T1161 43 850-20zm0 1460q-183 0-333-91t-233-244.5T201 768q0-137 49-260t134.5-213.5T591 151t259-53q185 0 335 90.5T1418 432t83 336-83 336.5-233.5 244.5-334.5 91zm299-822q0-123-84.5-192.5T850 356q-149 0-242.5 101.5T514 768q0 104 27.5 184.5T617 1081t107 72.5 126 24.5q123 0 207-71.5t84-182.5H944q-2 38-26 61t-66 23q-58 0-93.5-54.5T723 791q57 92 174 92 48 0 91.5-15.5t80-46.5 58.5-83.5 22-119.5zm-299-98q42 0 70 27t28 71q0 42-28 70.5T850 717q-40 0-68-28.5T754 618q0-43 27.5-70.5T850 520z"/><glyph glyph-name="uni2786" unicode="➆" horiz-adv-x="1699" d="M850-20q-165 0-311 63T291 212.5t-160.5 251T72 768q0 162 58.5 307T291 1326t247.5 168 311.5 62 311.5-62 247.5-168 160.5-251 58.5-307q0-160-58.5-304.5t-160.5-251T1161 43 850-20zm0 1460q-183 0-333-91t-233-244.5T201 768q0-137 49-260t134.5-213.5T591 151t259-53q185 0 335 90.5T1418 432t83 336-83 336.5-233.5 244.5-334.5 91zm88-1071H717v45q0 93 19.5 175.5t57 154.5 75 125.5T961 987H590v178h547V934q-57-75-85.5-117.5t-59-106-42.5-133T938 418v-49z"/><glyph glyph-name="uni2787" unicode="➇" horiz-adv-x="1699" d="M850-20q-165 0-311 63T291 212.5t-160.5 251T72 768q0 162 58.5 307T291 1326t247.5 168 311.5 62 311.5-62 247.5-168 160.5-251 58.5-307q0-160-58.5-304.5t-160.5-251T1161 43 850-20zm0 1460q-183 0-333-91t-233-244.5T201 768q0-137 49-260t134.5-213.5T591 151t259-53q185 0 335 90.5T1418 432t83 336-83 336.5-233.5 244.5-334.5 91zm0-1084q-145 0-227 66.5T541 604q0 117 110 187-88 62-88 159 0 105 77 166.5t210 61.5q134 0 211.5-61.5T1139 950q0-97-88-159 112-69 112-187 0-114-83.5-181T850 356zm0 504q38 0 60 22t22 56-22.5 55-59.5 21q-36 0-58-21t-22-55 22-56 58-22zm0-340q48 0 76 27t28 69q0 44-27.5 70.5T850 713q-47 0-74.5-27T748 616q0-42 28-69t74-27z"/><glyph glyph-name="uni2788" unicode="➈" horiz-adv-x="1699" d="M850-20q-165 0-311 63T291 212.5t-160.5 251T72 768q0 162 58.5 307T291 1326t247.5 168 311.5 62 311.5-62 247.5-168 160.5-251 58.5-307q0-160-58.5-304.5t-160.5-251T1161 43 850-20zm0 1460q-183 0-333-91t-233-244.5T201 768q0-137 49-260t134.5-213.5T591 151t259-53q185 0 335 90.5T1418 432t83 336-83 336.5-233.5 244.5-334.5 91zm0-428q-42 0-70-27.5T752 913q0-42 28-69t70-27q40 0 68 27t28 69q0 43-28 71t-68 28zm0-656q-122 0-206.5 71.5T559 608h197q2-36 26.5-59t65.5-23q59 0 94 54t35 161q-56-90-174-90-48 0-91.5 15.5t-80 46T573 795t-22 118q0 125 84.5 195t214.5 70q150 0 243-101.5t93-312.5q0-103-27.5-183.5t-75.5-128-107-72T850 356z"/><glyph glyph-name="uni2789" unicode="➉" horiz-adv-x="1699" d="M850-20q-165 0-311 63T291 212.5t-160.5 251T72 768q0 162 58.5 307T291 1326t247.5 168 311.5 62 311.5-62 247.5-168 160.5-251 58.5-307q0-160-58.5-304.5t-160.5-251T1161 43 850-20zm0 1460q-183 0-333-91t-233-244.5T201 768q0-137 49-260t134.5-213.5T591 151t259-53q185 0 335 90.5T1418 432t83 336-83 336.5-233.5 244.5-334.5 91zm231-1082q-147 0-235 103t-88 307q0 203 88.5 307.5T1081 1180q145 0 233.5-104.5T1403 768q0-204-88.5-307T1081 358zm-608 795v12h219V369H467v495H322v168h36q61 0 88 28t27 93zm608-604q54 0 80.5 53t26.5 166q0 229-107 229-110 0-110-229 0-113 27-166t83-53z"/><glyph glyph-name="uni278A" unicode="➊" horiz-adv-x="1699" d="M850-20q-165 0-311 63T291 212.5t-160.5 251T72 768q0 162 58.5 307T291 1326t247.5 168 311.5 62 311.5-62 247.5-168 160.5-251 58.5-307q0-160-58.5-304.5t-160.5-251T1161 43 850-20zm-82 1173q0-64-27.5-92.5T653 1032h-39V864h148V369h223v796H768v-12z"/><glyph glyph-name="uni278B" unicode="➋" horiz-adv-x="1699" d="M850-20q-165 0-311 63T291 212.5t-160.5 251T72 768q0 162 58.5 307T291 1326t247.5 168 311.5 62 311.5-62 247.5-168 160.5-251 58.5-307q0-160-58.5-304.5t-160.5-251T1161 43 850-20zm276 952q0 117-81.5 181.5T840 1178q-126 0-207.5-67T551 924v-43h201v26q0 94 88 94 37 0 59.5-21t22.5-56q0-30-28-63.5t-69.5-63-90-68-90-78-69.5-95T547 440v-71h583v176H811q15 26 54.5 59t82 65.5 84 70.5 68 88 26.5 104z"/><glyph glyph-name="uni278C" unicode="➌" horiz-adv-x="1699" d="M850-20q-165 0-311 63T291 212.5t-160.5 251T72 768q0 162 58.5 307T291 1326t247.5 168 311.5 62 311.5-62 247.5-168 160.5-251 58.5-307q0-160-58.5-304.5t-160.5-251T1161 43 850-20zm2 376q141 0 224 64t83 178q0 124-117 186 97 56 97 164 0 103-81.5 166.5T840 1178q-144 0-223.5-70T537 913h204q0 43 25 65.5t68 22.5 67.5-18 24.5-53q0-33-23.5-52.5T838 858h-78V696h78q108 0 108-84 0-38-28-62t-74-24q-51 0-83 27.5T729 627H522q0-125 90.5-198T852 356z"/><glyph glyph-name="uni278D" unicode="➍" horiz-adv-x="1699" d="M850-20q-165 0-311 63T291 212.5t-160.5 251T72 768q0 162 58.5 307T291 1326t247.5 168 311.5 62 311.5-62 247.5-168 160.5-251 58.5-307q0-160-58.5-304.5t-160.5-251T1161 43 850-20zm299 526v170h-119v489H709L471 670V506h350V369h209v137h119zM662 676l159 340V676H662z"/><glyph glyph-name="uni278E" unicode="➎" horiz-adv-x="1699" d="M850-20q-165 0-311 63T291 212.5t-160.5 251T72 768q0 162 58.5 307T291 1326t247.5 168 311.5 62 311.5-62 247.5-168 160.5-251 58.5-307q0-160-58.5-304.5t-160.5-251T1161 43 850-20zm-2 376q139 0 225 79.5t86 205.5q0 121-77.5 195.5T889 911q-100 0-154-63v143h379v174H549V707h199q5 20 30 35.5t62 15.5q53 0 81.5-32t28.5-85q0-48-28-79.5T848 530q-49 0-77 26.5T743 625H535q0-119 86.5-194T848 356z"/><glyph glyph-name="uni278F" unicode="➏" horiz-adv-x="1699" d="M850-20q-165 0-311 63T291 212.5t-160.5 251T72 768q0 162 58.5 307T291 1326t247.5 168 311.5 62 311.5-62 247.5-168 160.5-251 58.5-307q0-160-58.5-304.5t-160.5-251T1161 43 850-20zm0 376q130 0 214.5 69.5T1149 618q0 67-22 119.5t-58.5 83.5-80 46.5T897 883q-117 0-174-92 0 108 35.5 162.5T852 1008q42 0 66-23t26-61h197q0 111-84 182.5T850 1178q-67 0-126-24.5T617 1081t-75.5-128.5T514 768q0-208 93.5-310T850 356zm0 164q-41 0-68.5 27.5T754 618q0 42 28 70.5t68 28.5q42 0 70-28.5t28-70.5q0-44-28-71t-70-27z"/><glyph glyph-name="uni2790" unicode="➐" horiz-adv-x="1699" d="M850-20q-165 0-311 63T291 212.5t-160.5 251T72 768q0 162 58.5 307T291 1326t247.5 168 311.5 62 311.5-62 247.5-168 160.5-251 58.5-307q0-160-58.5-304.5t-160.5-251T1161 43 850-20zm88 389v49q0 90 12 159.5t42.5 133 59 106T1137 934v231H590V987h371q-54-63-92-116.5t-75.5-125-57-155T717 414v-45h221z"/><glyph glyph-name="uni2791" unicode="➑" horiz-adv-x="1699" d="M850-20q-165 0-311 63T291 212.5t-160.5 251T72 768q0 162 58.5 307T291 1326t247.5 168 311.5 62 311.5-62 247.5-168 160.5-251 58.5-307q0-160-58.5-304.5t-160.5-251T1161 43 850-20zm0 376q146 0 229.5 67t83.5 181q0 118-112 187 88 62 88 159 0 105-77.5 166.5T850 1178q-133 0-210-61.5T563 950q0-97 88-159-110-70-110-187 0-115 82-181.5T850 356zm0 504q-36 0-58 22t-22 56 22 55 58 21q37 0 59.5-21t22.5-55-22-56-60-22zm0-340q-46 0-74 27t-28 69q0 43 27.5 70t74.5 27q49 0 76.5-26.5T954 616q0-42-28-69t-76-27z"/><glyph glyph-name="uni2792" unicode="➒" horiz-adv-x="1699" d="M850-20q-165 0-311 63T291 212.5t-160.5 251T72 768q0 162 58.5 307T291 1326t247.5 168 311.5 62 311.5-62 247.5-168 160.5-251 58.5-307q0-160-58.5-304.5t-160.5-251T1161 43 850-20zm0 1032q40 0 68-28t28-71q0-42-28-69t-68-27q-42 0-70 27t-28 69q0 44 28 71.5t70 27.5zm0-656q67 0 126 24.5t107 72 75.5 128T1186 764q0 211-93 312.5T850 1178q-130 0-214.5-70T551 913q0-66 22-118t58.5-82.5 80-46T803 651q120 0 174 92-3-217-129-217-41 0-65.5 23T756 608H559q0-109 84.5-180.5T850 356z"/><glyph glyph-name="uni2793" unicode="➓" horiz-adv-x="1699" d="M850-20q-165 0-311 63T291 212.5t-160.5 251T72 768q0 162 58.5 307T291 1326t247.5 168 311.5 62 311.5-62 247.5-168 160.5-251 58.5-307q0-160-58.5-304.5t-160.5-251T1161 43 850-20zm231 378q145 0 233.5 103t88.5 307q0 203-88.5 307.5T1081 1180q-146 0-234.5-104.5T758 768q0-204 88-307t235-103zm-608 795q0-65-27-93t-88-28h-36V864h145V369h225v796H473v-12zm608-604q-56 0-83 53t-27 166q0 229 110 229 107 0 107-229 0-113-26.5-166t-80.5-53z"/><glyph glyph-name="uni27F7" unicode="⟷" horiz-adv-x="1781" d="M1237 176l-131 131 219 221H457l219-221-131-131-445 447 445 444 131-131-223-223h876l-223 223 131 131 444-444z"/><glyph glyph-name="dotlessj" unicode="" horiz-adv-x="542" d="M123-135v1159h297V-145q0-373-377-373-81 0-131 12v246q38-6 78-6 67 0 100 29t33 102z"/><glyph glyph-name="commaaccent" unicode="" horiz-adv-x="1024" d="M510-430H315l52 307h290z"/><glyph glyph-name="centinferior" unicode="" horiz-adv-x="733" d="M223-176q0-63 26-104.5t73-55.5v316q-46-15-72.5-57T223-176zm492-66q-19-118-98-192.5T416-522v-156h-94v156q-134 15-220 111T16-176q0 137 86.5 232T322 166v153h94V166q117-12 195-83t102-183H498q-25 62-82 77v-311q64 19 86 92h213z"/><glyph glyph-name="centsuperior" unicode="" horiz-adv-x="733" d="M223 872q0-63 26-104t73-55v315q-46-15-72.5-57T223 872zm492-65q-19-118-98-193t-201-88V371h-94v155q-134 15-220 111T16 872q0 137 86.5 232T322 1214v154h94v-154q117-12 195-83t102-183H498q-26 63-82 78V715q64 19 86 92h213z"/><glyph glyph-name="commainferior" unicode="" horiz-adv-x="311" d="M154-696H45q67 99 92 174-40 6-67 38.5T43-410q0 45 33 78t80 33q51 0 83.5-36.5T272-426q0-109-118-270z"/><glyph glyph-name="commasuperior" unicode="" horiz-adv-x="313" d="M154 352H45q67 99 92 174-40 6-67 39t-27 74q0 45 33 78t80 33q51 0 83.5-36.5T272 623q0-110-118-271z"/><glyph glyph-name="dollarinferior" unicode="" horiz-adv-x="671" d="M244 74q0-43 51-66v131q-51-15-51-65zm196-371q0 44-53 70v-138q53 16 53 68zm-53-381h-92v156q-116 12-188 80.5T35-262h196q0-77 64-100v169q-36 11-57.5 19t-55 23.5-53 33-40.5 43T58.5-14 49 63q0 100 68.5 162T295 295v158h92V293q106-17 174-86t68-162H436q0 59-49 84V-25l39-13 37.5-14 39-17 35-20 33-25 26.5-30.5 22-38 12.5-44.5 5.5-54q0-105-69-168.5T387-522v-156z"/><glyph glyph-name="dollarsuperior" unicode="" horiz-adv-x="671" d="M244 1122q0-42 51-65v131q-51-15-51-66zm196-370q0 43-53 69V684q53 16 53 68zm-53-381h-92v155q-116 12-188 80.5T35 786h196q0-77 64-100v170q-36 11-57.5 19t-55 23.5-53 33-40.5 43-30.5 60.5-9.5 77q0 100 68.5 161.5T295 1343v158h92v-160q107-17 174.5-85.5T629 1094H436q0 59-49 84v-154l39-13 37.5-14 39-17 35-20 33-25 26.5-30.5 22-38 12.5-44.5 5.5-54q0-105-69-169t-181-73V371z"/><glyph glyph-name="periodinferior" unicode="" horiz-adv-x="311" d="M158-524q-51 0-84 33t-33 83q0 48 33.5 81.5T158-293q49 0 82.5-33.5T274-408q0-50-33-83t-83-33z"/><glyph glyph-name="periodsuperior" unicode="" horiz-adv-x="313" d="M158 524q-51 0-84 33.5T41 641q0 48 33.5 81.5T158 756q49 0 82.5-33.5T274 641q0-50-33.5-83.5T158 524z"/><glyph glyph-name="CR" horiz-adv-x="512"/><glyph glyph-name="thinspace" horiz-adv-x="256"/><glyph glyph-name="fi.cap" horiz-adv-x="1431" d="M1309 0h-297v1536h297V0zM793 614H418V0H123v1536h725v-260H418V877h375V614z"/><glyph glyph-name="fl.cap" horiz-adv-x="1777" d="M793 614H418V0H123v1536h725v-260H418V877h375V614zM1012 0v1536h297V262h448V0h-745z"/><glyph glyph-name="germandbls.cap" horiz-adv-x="1986" d="M1077 1161q0 104 32.5 183t90 126 131.5 70 162 23q183 0 300.5-106t117.5-304v-109h-285v103q0 83-35 123.5t-98 40.5q-59 0-94-35.5t-35-99.5q0-70 37-117.5T1520 950l176-129q111-83 173-182.5t62-237.5q0-205-123.5-316.5T1495-27q-122 0-219 47t-156 142-59 223v127h287V399q0-81 40-127.5t107-46.5q68 0 107.5 38t39.5 104q0 77-39 129t-124 116l-168 125q-113 82-173.5 181.5T1077 1161zm-993 0q0 104 32.5 183t90 126 131.5 70 162 23q183 0 300.5-106T918 1153v-109H633v103q0 83-35 123.5t-98 40.5q-58 0-93.5-35.5T371 1176q0-70 36.5-117.5T526 950l176-129q111-83 173.5-182.5T938 401q0-205-123.5-316.5T502-27q-122 0-219 47T127 162 68 385v127h286V399q0-81 40.5-127.5T502 225q68 0 107.5 38T649 367q0 76-39 128T485 612L317 737q-112 81-172.5 180.5T84 1161z"/><glyph glyph-name="Schwa" horiz-adv-x="1167" d="M584-27q-228 0-355 136T102 508v311h666v215q0 144-46.5 205T584 1300q-90 0-137.5-61T399 1034v-90H102v86q0 262 126.5 397.5T584 1563q228 0 354.5-135t126.5-398V508q0-263-126.5-399T584-27zm0 263q91 0 137.5 61T768 502v67H399v-67q0-144 47-205t138-61z"/><glyph glyph-name="a.alt" horiz-adv-x="1259" d="M596 780q-106 0-174-74t-68-194 68-194 174-74q107 0 175.5 74T840 512t-68.5 194T596 780zM846 0v131Q726-20 539-20q-210 0-344 147.5T61 512q0 238 133.5 385T539 1044q187 0 307-151v131h291V0H846z"/><glyph glyph-name="g.alt" horiz-adv-x="1259" d="M596 244q107 0 175.5 74T840 512t-68.5 194T596 780q-106 0-174-74t-68-194 68-194 174-74zm14-776q-214 0-357 122.5T82-82h289q14-93 77-149t156-56q111 0 173.5 74.5T840-14v137Q719-20 539-20q-210 0-344 147.5T61 512q0 238 133.5 385T539 1044q187 0 307-151v131h291V-10q0-153-70.5-273T876-467.5 610-532z"/><glyph glyph-name="agrave.alt" horiz-adv-x="1259" d="M496 1229l-191 307h307l119-307H496zm100-449q-106 0-174-74t-68-194 68-194 174-74q107 0 175.5 74T840 512t-68.5 194T596 780zM846 0v131Q726-20 539-20q-210 0-344 147.5T61 512q0 238 133.5 385T539 1044q187 0 307-151v131h291V0H846z"/><glyph glyph-name="aacute.alt" horiz-adv-x="1259" d="M731 1229H496l116 307h308zM596 780q-106 0-174-74t-68-194 68-194 174-74q107 0 175.5 74T840 512t-68.5 194T596 780zM846 0v131Q726-20 539-20q-210 0-344 147.5T61 512q0 238 133.5 385T539 1044q187 0 307-151v131h291V0H846z"/><glyph glyph-name="acircumflex.alt" horiz-adv-x="1259" d="M731 1229l-129 151-127-151H244l200 307h318l199-307H731zM596 780q-106 0-174-74t-68-194 68-194 174-74q107 0 175.5 74T840 512t-68.5 194T596 780zM846 0v131Q726-20 539-20q-210 0-344 147.5T61 512q0 238 133.5 385T539 1044q187 0 307-151v131h291V0H846z"/><glyph glyph-name="atilde.alt" horiz-adv-x="1259" d="M250 1229v98q0 209 180 209 54 0 111-26t104.5-52 77.5-26q59 0 59 69v35h174v-96q0-211-182-211-54 0-111 26t-104 52-76 26q-59 0-59-69v-35H250zm346-449q-106 0-174-74t-68-194 68-194 174-74q107 0 175.5 74T840 512t-68.5 194T596 780zM846 0v131Q726-20 539-20q-210 0-344 147.5T61 512q0 238 133.5 385T539 1044q187 0 307-151v131h291V0H846z"/><glyph glyph-name="adieresis.alt" horiz-adv-x="1259" d="M811 1239q-58 0-99.5 42T670 1382t41.5 101.5T811 1526q61 0 102-42.5t41-101.5-41-101-102-42zm-418 0q-59 0-101 42.5T250 1382q0 60 42 102t101 42q60 0 102-42t42-102q0-59-42-101t-102-42zm203-459q-106 0-174-74t-68-194 68-194 174-74q107 0 175.5 74T840 512t-68.5 194T596 780zM846 0v131Q726-20 539-20q-210 0-344 147.5T61 512q0 238 133.5 385T539 1044q187 0 307-151v131h291V0H846z"/><glyph glyph-name="amacron.alt" horiz-adv-x="1259" d="M901 1434v-189H317v189h584zM596 780q-106 0-174-74t-68-194 68-194 174-74q107 0 175.5 74T840 512t-68.5 194T596 780zM846 0v131Q726-20 539-20q-210 0-344 147.5T61 512q0 238 133.5 385T539 1044q187 0 307-151v131h291V0H846z"/><glyph glyph-name="abreve.alt" horiz-adv-x="1259" d="M719 1536h211q0-147-88-229t-240-82q-150 0-236.5 82T279 1536h208q0-62 33-92.5t82-30.5q53 0 85 30t32 93zM596 780q-106 0-174-74t-68-194 68-194 174-74q107 0 175.5 74T840 512t-68.5 194T596 780zM846 0v131Q726-20 539-20q-210 0-344 147.5T61 512q0 238 133.5 385T539 1044q187 0 307-151v131h291V0H846z"/><glyph glyph-name="aring.alt" horiz-adv-x="1259" d="M602 1167q-100 0-163.5 55.5T375 1362q0 83 63.5 138.5T602 1556q101 0 165-55.5t64-138.5q0-84-63.5-139.5T602 1167zm0 129q31 0 51.5 18.5T674 1362t-20.5 48.5T602 1430q-28 0-47.5-19.5T535 1362t19.5-47.5T602 1296zm-6-516q-106 0-174-74t-68-194 68-194 174-74q107 0 175.5 74T840 512t-68.5 194T596 780zM846 0v131Q726-20 539-20q-210 0-344 147.5T61 512q0 238 133.5 385T539 1044q187 0 307-151v131h291V0H846z"/><glyph glyph-name="aringacute.alt" horiz-adv-x="1259" d="M715 1679H479l117 308h307zm-113-512q-100 0-163.5 55.5T375 1362q0 83 63.5 138.5T602 1556q101 0 165-55.5t64-138.5q0-84-63.5-139.5T602 1167zm0 129q31 0 51.5 18.5T674 1362t-20.5 48.5T602 1430q-28 0-47.5-19.5T535 1362t19.5-47.5T602 1296zm-6-516q-106 0-174-74t-68-194 68-194 174-74q107 0 175.5 74T840 512t-68.5 194T596 780zM846 0v131Q726-20 539-20q-210 0-344 147.5T61 512q0 238 133.5 385T539 1044q187 0 307-151v131h291V0H846z"/><glyph glyph-name="aogonek.alt" horiz-adv-x="1259" d="M596 780q-106 0-174-74t-68-194q0-119 68.5-193.5T596 244q107 0 175.5 74.5T840 512q0 120-68.5 194T596 780zM862 0h-16v131Q726-20 539-20q-210 0-344 147.5T61 512q0 238 133.5 385T539 1044q187 0 307-151v131h291V0h-121q-88-123-122-191t-34-118q0-33 19-49.5t49-16.5q29 0 47.5 18t23.5 48h187q0-96-71-153.5T924-520q-113 0-180.5 50T676-334q0 33 9 65t32.5 70.5 38 60 54 71.5T862 0z"/><glyph glyph-name="ae.alt" horiz-adv-x="1955" d="M1376 801q-94 0-153-50t-78-147h465q-20 97-80 147t-154 50zm-780-21q-106 0-174-74t-68-194q0-119 68.5-193.5T596 244q107 0 175.5 74.5T840 512q0 120-68.5 194T596 780zm1274-456q-47-168-172.5-256T1386-20q-161 0-272 114V0H844v129Q724-20 539-20q-210 0-344 147.5T61 512q0 238 133.5 385T539 1044q185 0 305-149v129h270v-96q113 116 277 116 220 0 361.5-149T1894 512q0-28-4-82h-747q19-102 80.5-154.5T1386 223q139 0 185 101h299z"/><glyph glyph-name="aeacute.alt" horiz-adv-x="1955" d="M1106 1229H870l117 307h307zm270-428q-94 0-153-50t-78-147h465q-20 97-80 147t-154 50zm-780-21q-106 0-174-74t-68-194q0-119 68.5-193.5T596 244q107 0 175.5 74.5T840 512q0 120-68.5 194T596 780zm1274-456q-47-168-172.5-256T1386-20q-161 0-272 114V0H844v129Q724-20 539-20q-210 0-344 147.5T61 512q0 238 133.5 385T539 1044q185 0 305-149v129h270v-96q113 116 277 116 220 0 361.5-149T1894 512q0-28-4-82h-747q19-102 80.5-154.5T1386 223q139 0 185 101h299z"/><glyph glyph-name="gcircumflex.alt" horiz-adv-x="1259" d="M731 1229l-129 151-127-151H244l200 307h318l199-307H731zM596 244q107 0 175.5 74T840 512t-68.5 194T596 780q-106 0-174-74t-68-194 68-194 174-74zm14-776q-214 0-357 122.5T82-82h289q14-93 77-149t156-56q111 0 173.5 74.5T840-14v137Q719-20 539-20q-210 0-344 147.5T61 512q0 238 133.5 385T539 1044q187 0 307-151v131h291V-10q0-153-70.5-273T876-467.5 610-532z"/><glyph glyph-name="gbreve.alt" horiz-adv-x="1259" d="M719 1536h211q0-147-88-229t-240-82q-150 0-236.5 82T279 1536h208q0-62 33-92.5t82-30.5q53 0 85 30t32 93zM596 244q107 0 175.5 74T840 512t-68.5 194T596 780q-106 0-174-74t-68-194 68-194 174-74zm14-776q-214 0-357 122.5T82-82h289q14-93 77-149t156-56q111 0 173.5 74.5T840-14v137Q719-20 539-20q-210 0-344 147.5T61 512q0 238 133.5 385T539 1044q187 0 307-151v131h291V-10q0-153-70.5-273T876-467.5 610-532z"/><glyph glyph-name="gdotaccent.alt" horiz-adv-x="1259" d="M602 1225q-67 0-112.5 45.5T444 1382q0 69 45 114.5t113 45.5q69 0 114.5-45.5T762 1382q0-66-45.5-111.5T602 1225zm-6-981q107 0 175.5 74T840 512t-68.5 194T596 780q-106 0-174-74t-68-194 68-194 174-74zm14-776q-214 0-357 122.5T82-82h289q14-93 77-149t156-56q111 0 173.5 74.5T840-14v137Q719-20 539-20q-210 0-344 147.5T61 512q0 238 133.5 385T539 1044q187 0 307-151v131h291V-10q0-153-70.5-273T876-467.5 610-532z"/><glyph glyph-name="gcommaaccent.alt" horiz-adv-x="1259" d="M621 1597h194l-51-307H471zM596 244q107 0 175.5 74T840 512t-68.5 194T596 780q-106 0-174-74t-68-194 68-194 174-74zm14-776q-214 0-357 122.5T82-82h289q14-93 77-149t156-56q111 0 173.5 74.5T840-14v137Q719-20 539-20q-210 0-344 147.5T61 512q0 238 133.5 385T539 1044q187 0 307-151v131h291V-10q0-153-70.5-273T876-467.5 610-532z"/><glyph glyph-name="idotaccent" horiz-adv-x="542" d="M270 1225q-67 0-112 45.5T113 1382q0 69 44.5 114.5T270 1542q69 0 114.5-45.5T430 1382q0-66-45.5-111.5T270 1225zM420 0H123v1024h297V0z"/><glyph glyph-name="schwa" horiz-adv-x="1159" d="M580-20q-227 0-373 149T61 512q0 14 5 82h747q-17 102-79 155.5T571 803q-140 0-184-101H86q47 166 175.5 254t318.5 88q226 0 372-149t146-383-146-383T580-20zm0 243q95 0 153.5 50.5T811 420H348q19-96 78.5-146.5T580 223z"/><glyph glyph-name="a.superior" horiz-adv-x="733" d="M332 674q54 0 89.5 32t35.5 89v41q-28-15-83.5-26.5t-86.5-27-31-47.5q0-28 22-44.5t54-16.5zm131-137v108q-58-121-213-121-86 0-149.5 50T37 715q0 65 31 107.5t77 59.5 100 28.5 100 17 77 22 31 45.5q0 32-24.5 50t-63.5 18q-47 0-72-24t-25-68H57q0 64 26.5 113t72.5 77 100.5 42 116.5 14 115-12.5 96-39 67.5-71.5T676 989V537H463z"/><glyph glyph-name="b.superior" horiz-adv-x="819" d="M485 524q-122 0-198 99v-86H70v999h223v-410q75 91 192 91 133 0 216-95t83-252q0-156-83-251t-216-95zm-55 498q-61 0-99-42t-38-110q0-67 38.5-108t98.5-41q62 0 100.5 41T569 870q0 69-38.5 110.5T430 1022z"/><glyph glyph-name="c.superior" horiz-adv-x="761" d="M723 948H500q-12 36-44 55t-75 19q-59 0-95-41.5T250 870t35.5-109 95.5-40q44 0 76.5 22t44.5 64h223q-15-127-109-205t-235-78q-150 0-248 97T35 870q0 153 98 250t248 97q137 0 229.5-73.5T723 948z"/><glyph glyph-name="d.superior" horiz-adv-x="819" d="M391 1022q-62 0-100.5-41.5T252 870q0-67 38.5-108T391 721q60 0 97.5 41T526 870q0 69-37.5 110.5T391 1022zm144-485v88q-75-101-201-101-133 0-216 95T35 870q0 157 83 252t216 95q117 0 192-91v410h226V537H535z"/><glyph glyph-name="e.superior" horiz-adv-x="753" d="M377 1042q-110 0-131-110h262q-20 110-131 110zm330-284q-34-114-118.5-174T377 524q-151 0-246.5 97T35 870q0 154 95.5 250.5T377 1217t246.5-96.5T719 870q0-35-2-53H244q21-119 137-119 85 0 108 60h218z"/><glyph glyph-name="f.superior" horiz-adv-x="505" d="M332 1284v-80h153v-172H332V537H109v495H20v172h89v86q0 131 74.5 194.5T383 1548q71 0 109-12v-176q-33 10-74 10-86 0-86-86z"/><glyph glyph-name="g.superior" horiz-adv-x="819" d="M391 719q60 0 97.5 42T526 870q0 68-37.5 111t-97.5 43q-61 0-100-43t-39-111q0-67 38.5-109T391 719zm8-529q-145 0-239 80T47 483h213q8-55 43-86.5t90-31.5q64 0 98.5 41.5T526 520v94q-74-90-192-90-133 0-216 95T35 870t83 251.5 216 95.5q126 0 201-101v88h217V524q0-149-100.5-241.5T399 190z"/><glyph glyph-name="h.superior" horiz-adv-x="778" d="M293 907V537H70v999h223v-416q65 97 186 97 107 0 173.5-66.5T719 961V537H494v370q0 131-101 131-100 0-100-131z"/><glyph glyph-name="i.superior" horiz-adv-x="358" d="M180 1303q-55 0-92 35.5T51 1425t37 86 92 35 91-35 36-86q0-52-36-87t-91-35zm113-766H70v667h223V537z"/><glyph glyph-name="j.superior" horiz-adv-x="358" d="M180 1303q-56 0-92.5 35T51 1425q0 51 37 86t92 35 91-35 36-86q0-53-36-87.5t-91-34.5zM70 457v747h223V449q0-252-254-252-48 0-98 10v174q16-4 51-4 39 0 58.5 18T70 457z"/><glyph glyph-name="k.superior" horiz-adv-x="751" d="M502 537L293 881V537H70v999h223V920l196 284h256L510 903l252-366H502z"/><glyph glyph-name="l.superior" horiz-adv-x="358" d="M293 537H70v999h223V537z"/><glyph glyph-name="m.superior" horiz-adv-x="1165" d="M293 913V537H70v667h217v-90q61 103 184 103 68 0 121-31t82-90q28 57 81.5 89t121.5 32q102 0 165.5-65t63.5-185V537H881v376q0 125-90 125-93 0-93-125V537H475v376q0 125-92 125-90 0-90-125z"/><glyph glyph-name="n.superior" horiz-adv-x="778" d="M293 907V537H70v667h217v-92q60 105 192 105 107 0 173.5-66.5T719 961V537H494v370q0 131-101 131-100 0-100-131z"/><glyph glyph-name="o.superior" horiz-adv-x="772" d="M387 524q-152 0-252 97T35 870q0 154 100 250.5t252 96.5 251-96.5T737 870q0-153-99-249.5T387 524zm0 197q60 0 98.5 41T524 870q0 68-38 110t-99 42q-62 0-100.5-41.5T248 870q0-67 38.5-108T387 721z"/><glyph glyph-name="p.superior" horiz-adv-x="819" d="M430 721q62 0 100.5 41T569 870q0 69-38.5 110.5T430 1022q-61 0-99-42t-38-110q0-67 38.5-108t98.5-41zm55-197q-118 0-192 90V205H70v999h217v-86q74 99 198 99 133 0 216-95t83-252q0-156-83-251t-216-95z"/><glyph glyph-name="q.superior" horiz-adv-x="819" d="M752 205H526v409q-74-90-192-90-133 0-216 95T35 870q0 157 83 252t216 95q126 0 201-101v88h217V205zM391 721q60 0 97.5 41T526 870q0 69-37.5 110.5T391 1022q-62 0-100.5-41.5T252 870q0-67 38.5-108T391 721z"/><glyph glyph-name="r.superior" horiz-adv-x="509" d="M293 885V537H70v665h211v-104q58 119 176 119 20 0 32-3V995q-33 11-69 11-61 0-94-31t-33-90z"/><glyph glyph-name="s.superior" horiz-adv-x="671" d="M637 739q0-99-81.5-157T346 524q-136 0-223.5 63T35 758h205q0-43 29-65.5t75-22.5q40 0 62 15.5t22 43.5q0 26-28 41t-70.5 20.5-92 18-92 31-70.5 62T47 1010q0 96 78.5 151.5T326 1217q127 0 213-65t86-161H422q0 34-27 57t-65 23q-76 0-76-55 0-23 28.5-36.5t71-18.5 92-18 92-31.5 71-63T637 739z"/><glyph glyph-name="t.superior" horiz-adv-x="520" d="M332 784q0-42 19-60.5t61-18.5q38 0 73 12V541q-57-17-118-17-123 0-190.5 57T109 774v258H20v172h89v187h223v-187h153v-172H332V784z"/><glyph glyph-name="u.superior" horiz-adv-x="772" d="M487 537v94q-61-109-190-109-105 0-170.5 67T61 780v424h224V834q0-65 25.5-98.5T383 702q98 0 98 132v370h226V537H487z"/><glyph glyph-name="v.superior" horiz-adv-x="665" d="M164 537L8 1204h217l109-547 106 547h219L502 537H164z"/><glyph glyph-name="w.superior" horiz-adv-x="1017" d="M145 537L12 1204h199l86-522 84 522h258l86-520 86 520h197L872 537H596l-86 518-84-518H145z"/><glyph glyph-name="x.superior" horiz-adv-x="692" d="M451 537L342 766 242 537H0l195 342-185 325h240l98-219 96 219h240L500 881l192-344H451z"/><glyph glyph-name="y.superior" horiz-adv-x="667" d="M131 193q-49 0-121 14v168q54-15 96-15 79 0 132 50L4 1204h217l115-518 110 518h218L481 547q-45-177-126-265.5T131 193z"/><glyph glyph-name="z.superior" horiz-adv-x="626" d="M604 537H35v213l325 282H41v172h537V993L250 711h354V537z"/><glyph glyph-name="grave.cap" horiz-adv-x="1024" d="M406 1720l-191 308h307l119-308H406z"/><glyph glyph-name="acute.cap" horiz-adv-x="1024" d="M641 1720H406l116 308h307z"/><glyph glyph-name="circumflex.cap" horiz-adv-x="1024" d="M641 1720l-129 152-127-152H154l200 308h318l198-308H641z"/><glyph glyph-name="caron.cap" horiz-adv-x="1024" d="M354 1720l-200 308h231l127-152 129 152h229l-198-308H354z"/><glyph glyph-name="caronSlovak" horiz-adv-x="1024" d="M584 1536h260l-99-389H584v389z"/><glyph glyph-name="tilde.cap" horiz-adv-x="1024" d="M160 1720v99q0 209 180 209 43 0 88.5-16.5t77-36 67-36T633 1923q59 0 59 70v35h174v-97q0-211-182-211-43 0-88.5 16.5t-77 36-66.5 36-59 16.5q-59 0-59-70v-35H160z"/><glyph glyph-name="dieresis.cap" horiz-adv-x="1024" d="M721 1731q-58 0-99.5 42T580 1874t41.5 101 99.5 42q61 0 102-42t41-101-41-101-102-42zm-418 0q-59 0-101 42.5T160 1874q0 60 42 101.5t101 41.5q60 0 101.5-41.5T446 1874q0-59-41.5-101T303 1731z"/><glyph glyph-name="macron.cap" horiz-adv-x="1024" d="M811 1925v-188H227v188h584z"/><glyph glyph-name="breve.cap" horiz-adv-x="1024" d="M629 2028h211q0-147-88-229.5T512 1716q-150 0-237 82.5T188 2028h209q0-62 33-92.5t82-30.5q53 0 85 30t32 93z"/><glyph glyph-name="ring.cap" horiz-adv-x="1024" d="M512 1659q-100 0-163.5 55T285 1853q0 83 63.5 139t163.5 56q101 0 165-56t64-139q0-84-63.5-139T512 1659zm0 129q31 0 51.5 18t20.5 47-20.5 48.5T512 1921q-28 0-48-19.5t-20-48.5 20-47 48-18z"/><glyph glyph-name="hungarumlaut.cap" horiz-adv-x="1024" d="M815 1720H625l51 308h282zm-389 0H236l51 308h282z"/><glyph glyph-name="dotaccent.cap" horiz-adv-x="1024" d="M512 1716q-67 0-112.5 46T354 1874q0 69 45 114.5t113 45.5q69 0 114.5-45.5T672 1874q0-66-46-112t-114-46z"/><glyph glyph-name="commaaccent.alt" horiz-adv-x="1024" d="M530 1536h195l-51-307H381z"/><glyph glyph-name="hyphen.cap" horiz-adv-x="716" d="M625 645H92v252h533V645z"/><glyph glyph-name="exclamdown.cap" horiz-adv-x="552" d="M279 1556q67 0 113-46t46-111-46-112.5-113-47.5q-65 0-111.5 47.5T121 1399t46 111 112 46zm-129-532h260L436 0H123z"/><glyph glyph-name="questiondown.cap" horiz-adv-x="1017" d="M502 1556q65 0 111-46.5t46-110.5q0-66-45.5-113T502 1239q-67 0-113.5 47T342 1399q0 64 46.5 110.5T502 1556zM41 385q0 70 24 131t59.5 102 77.5 84.5 78.5 80.5 61.5 88 27 108l2 45h260v-61q0-83-31-155t-75.5-123-88.5-97.5-75-97T330 389q0-72 44.5-110.5T502 240q82 0 133 51t51 158v65h287v-88q0-109-38-196T831 89.5 681.5 8 502-20Q296-20 168.5 87T41 385z"/><glyph glyph-name="guilsinglleft.cap" horiz-adv-x="634" d="M549 334L88 631v276l461 297V942L254 768l295-174V334z"/><glyph glyph-name="guilsinglright.cap" horiz-adv-x="634" d="M88 334v260l295 174L88 942v262l461-297V631z"/><glyph glyph-name="guillemotleft.cap" horiz-adv-x="1173" d="M1085 334L625 631v276l460 297V942L791 768l294-174V334zm-536 0L88 631v276l461 297V942L254 768l295-174V334z"/><glyph glyph-name="guillemotright.cap" horiz-adv-x="1173" d="M88 334v260l295 174L88 942v262l461-297V631zm537 0v260l295 174-295 174v262l460-297V631z"/><glyph glyph-name="slash.OP" horiz-adv-x="851" d="M174-307H-39l614 1843h213z"/><glyph glyph-name="backslash.OP" horiz-adv-x="851" d="M674-307L59 1536h211L885-307H674z"/><glyph glyph-name="endash.cap" horiz-adv-x="1024" d="M932 674H92v188h840V674z"/><glyph glyph-name="emdash.cap" horiz-adv-x="2048" d="M1956 674H92v188h1864V674z"/><glyph glyph-name="periodcentered.cap" horiz-adv-x="538" d="M270 612q-72 0-120 48t-48 118q0 71 48 118.5T270 944t119-47.5T436 778q0-70-47.5-118T270 612z"/><glyph glyph-name="parenleft.cap" horiz-adv-x="696" d="M160 768q0 529 307 952h229q-286-393-286-952t286-952H467Q160 239 160 768z"/><glyph glyph-name="parenright.cap" horiz-adv-x="696" d="M539 768q0-528-308-952H0q287 394 287 952T0 1720h231q308-424 308-952z"/><glyph glyph-name="bracketleft.cap" horiz-adv-x="696" d="M170-184v1904h522v-209H426V25h266v-209H170z"/><glyph glyph-name="bracketright.cap" horiz-adv-x="696" d="M6-184V25h266v1486H6v209h522V-184H6z"/><glyph glyph-name="braceleft.cap" horiz-adv-x="696" d="M692-184H569q-136 0-220.5 84T264 127v393q0 59-31.5 91T164 643H70v250h94q37 0 68.5 32t31.5 91v393q0 143 84.5 227t220.5 84h123v-209h-59q-52 0-82.5-36.5T520 1368V981q0-64-32-119.5T403 768q53-38 85-93.5T520 555V168q0-70 30.5-106.5T633 25h59v-209z"/><glyph glyph-name="braceright.cap" horiz-adv-x="696" d="M434 127q0-142-85.5-226.5T129-184H6V25h60q51 0 81.5 36.5T178 168v387q0 64 31 119.5t84 93.5q-53 38-84 93.5T178 981v387q0 70-30.5 106.5T66 1511H6v209h123q134 0 219.5-84.5T434 1409v-393q0-59 30.5-91t67.5-32h95V643h-95q-37 0-67.5-32T434 520V127z"/><glyph glyph-name="at.cap" horiz-adv-x="1763" d="M870-20q-164 0-310 61.5T309 208 143 459 82 768q0 164 61 310t166 251 251 166 310 61q168 0 319-61t258.5-164 170.5-246 63-301q0-249-93-373t-251-124q-95 0-168 38t-112 109Q953 287 748 287q-82 0-152.5 28.5t-118 90.5T430 553q0 76 32.5 129.5T547 762t114.5 42 125 25T901 848t84.5 32.5T1018 940q0 48-42.5 77.5T870 1047q-69 0-109-35.5T721 911H459q0 70 23 127.5t62 95.5 93 64 113 37.5 124 11.5q82 0 153.5-18.5t130-57 92.5-104 34-152.5V563q0-143 105-143 75 0 120 93.5t45 270.5q0 180-89.5 330.5t-247 238T870 1440q-185 0-336-88t-237-242-86-342q0-187 86.5-341T535 184.5 870 96q169 0 320 82l49-108q-172-90-369-90zm-53 514q86 0 143.5 48t57.5 132v47q-39-17-103-30t-109-20.5-79.5-30.5-34.5-62q0-42 34.5-63t90.5-21z"/><glyph glyph-name="servicemark" horiz-adv-x="1896" d="M1202 717l-147 686V717H870v819h351l110-582 105 582h358V717h-205v674l-143-674h-244zM754 958q0-121-92-191.5T426 696q-156 0-255 78T72 987h209q0-53 42.5-88T424 864q52 0 86.5 25.5T545 952q0 32-25.5 51.5t-66 29-89 17T267 1072t-89.5 39-66 72T86 1300q0 117 89 186.5t226 69.5q146 0 243-80.5t97-199.5H532q0 43-38.5 75.5T403 1384q-47 0-79.5-22t-32.5-57q0-29 25.5-46.5T383 1232t90-17 98.5-23.5 90.5-41 66.5-74.5T754 958z"/><glyph glyph-name="numero" horiz-adv-x="1984" d="M1597 549q-152 0-252 97t-100 249q0 154 100 250t252 96 251.5-96 99.5-250q0-153-99.5-249.5T1597 549zm0 196q61 0 99.5 41.5T1735 895q0 68-38.5 110t-99.5 42q-62 0-100.5-41.5T1458 895q0-67 38.5-108.5T1597 745zM625 0L377 1040V0H123v1229h463L831 205v1024h254V0H625zm1267 178h-592v195h592V178z"/><glyph glyph-name="zero.slash" d="M563-27q-152 0-256 64L289 0H109l75 162q-75 126-75 325v564q0 252 119 382t335 130q152 0 256-64l19 37h182l-76-162q76-124 76-323V487q0-254-119.5-384T563-27zM399 1055V612l293 619q-40 65-129 65-79 0-121.5-56T399 1055zm164-813q81 0 122.5 55T727 481v441L434 307q40-65 129-65z"/><glyph glyph-name="numbersign.LP" d="M637 586l88 358H487l-88-358h238zM492 0l96 391H350L254 0H39l96 391H0v195h184l88 358H117v195h205l98 397h215l-98-397h237l98 397h215l-98-397h137V944H940l-88-358h160V391H803L707 0H492z"/><glyph glyph-name="Euro.LP" d="M1085 453q0-228-126-354T631-27q-203 0-330 132T174 477v25H31v157h143v224H31v155h143v23q0 239 127 370.5T631 1563q202 0 328-126t126-354v-92H799v82q0 227-168 227-170 0-170-249v-13h246V883H461V659h246V502H461v-15q0-251 170-251 168 0 168 227v88h286v-98z"/><glyph glyph-name="dollar.LP" d="M401 1176q0-53 24-92t73-78v305q-97-30-97-135zm342-809q0 57-25.5 100T641 553V225q102 37 102 142zM641-256H498v233Q326-5 216 103T106 385v127h279V399q0-144 113-176v434l-133 93q-76 52-126.5 106t-83 134.5T123 1169q0 173 104 273.5T498 1559v233h143v-233q162-23 262.5-132t100.5-290v-107H727v100q0 140-86 177V903l139-94q116-81 180-179t64-235q0-182-106-289.5T641-23v-233z"/><glyph glyph-name="cent.LP" d="M311 768q0-106 51.5-177.5T500 498v540q-86-20-137.5-92.5T311 768zm781-98q-19-177-140.5-292.5T643 240V0H500v240q-209 22-341 167T27 768t132 361 341 167v240h143v-240q180-20 299.5-129.5T1087 889H788q-26 114-145 147V500q57 18 97 61t55 109h297z"/><glyph glyph-name="sterling.LP" horiz-adv-x="1077" d="M1004 262V0H106v131q136 160 181 254.5T332 618q0 18-4 46H127v155h127q-70 106-91 151-42 90-42 183 0 196 123 303t315 107q191 0 313.5-117T995 1118v-47H709v31q0 108-38.5 153T557 1300q-70 0-109.5-37.5T408 1147q0-52 21.5-104t63-119.5T551 819h340V664H594q2-10 2-31 0-210-115-371h523z"/><glyph glyph-name="florin.LP" horiz-adv-x="1089" d="M905 664H600L350-512H53L303 664H141v155h195l74 350q44 209 161.5 298t313.5 89q75 0 133-16v-250q-47 17-131 17-152 0-182-148l-72-340h272V664z"/><glyph glyph-name="yen.LP" d="M944 502H713V0H416v502H176v157h240v224H176v155h168L63 1536h285l215-410 215 410h285l-279-498h160V883H713V659h231V502z"/><glyph glyph-name="zero.slashLP" d="M563-27q-152 0-256 64L289 0H109l75 162q-75 126-75 325v564q0 252 119 382t335 130q152 0 256-64l19 37h182l-76-162q76-124 76-323V487q0-254-119.5-384T563-27zM399 1055V612l293 619q-40 65-129 65-79 0-121.5-56T399 1055zm164-813q81 0 122.5 55T727 481v441L434 307q40-65 129-65z"/><glyph glyph-name="zero.LP" d="M563-27q-216 0-335 130T109 487v564q0 252 119 382t335 130q218 0 337.5-130t119.5-382V487q0-254-119.5-384T563-27zm0 269q81 0 122.5 55T727 481v574q0 130-41.5 185.5T563 1296q-79 0-121.5-56T399 1055V481q0-129 41.5-184T563 242z"/><glyph glyph-name="one.LP" horiz-adv-x="692" d="M276 1481v55h293V0H272v1012H37v233h37q107 0 154.5 55t47.5 181z"/><glyph glyph-name="two.LP" horiz-adv-x="1015" d="M934 1124q0-82-25-160t-66-141-92-122.5T646 586 544.5 480 458 372t-55-110h545V0H82v131q0 96 31 186t81 161 110 137.5 120.5 127T535 861t81 124 31 131q0 93-36 138.5t-97 45.5q-68 0-102.5-46T377 1100V987H90v127q0 213 118.5 331T512 1563q183 0 302.5-114.5T934 1124z"/><glyph glyph-name="three.LP" horiz-adv-x="1064" d="M543-27Q448-27 365.5.5T221 80t-97.5 131.5T88 389v113h287v-82q0-184 168-184 170 0 170 186v49q0 182-181 182H420v265h112q146 0 146 169v66q0 147-135 147t-135-145v-68H121v84q0 187 119 289.5T543 1563q182 0 302-100.5T965 1184v-78q0-97-43-172T803 813q92-47 144-128.5T999 492V389q0-194-129.5-305T543-27z"/><glyph glyph-name="four.LP" horiz-adv-x="1064" d="M299 487h262v799zm717-262H852V0H561v225H63v287l345 1024h444V487h164V225z"/><glyph glyph-name="five.LP" horiz-adv-x="1005" d="M512-27Q323-27 201.5 88T80 410v71h280v-35q0-112 39-161t113-49q68 0 106.5 49T657 434v154q0 211-145 211-111 0-141-103H100v840h793v-260H371V952q79 92 207 92 178 0 270-113t92-331V434q0-219-121.5-340T512-27z"/><glyph glyph-name="six.LP" d="M1020 446q0-222-128.5-347.5T563-27q-201 0-327.5 129.5T109 467v604q0 236 126 364t328 128q124 0 222.5-48.5t158.5-149 60-237.5v-53H713v33q0 192-150 192-164 0-164-239V836q86 127 250 127 76 0 142.5-29.5T909 849t81-142.5 30-196.5v-64zm-621 41v-36q0-111 44-163t122-52q168 0 168 215v36q0 215-168 215-166 0-166-215z"/><glyph glyph-name="seven.LP" horiz-adv-x="872" d="M530 113V0H233v70q0 112 10.5 217.5t23.5 186 42 175T357.5 799t63 148.5 65 133.5 72.5 138l30 57H29v260h800v-358l-49.5-99-48.5-97.5-42-89-40-93.5-33-91-31-100.5-22.5-103-18.5-119-9.5-126.5-4.5-146z"/><glyph glyph-name="eight.LP" horiz-adv-x="1085" d="M543-27q-128 0-230 47.5T149.5 165 88 395v92q0 114 52.5 197.5T287 815q-74 46-116 120t-42 171v78q0 178 117.5 278.5T543 1563t297-100.5T958 1184v-78q0-97-42-171T799 815q94-47 147-130.5T999 487v-92q0-198-129.5-310T543-27zM408 1149v-51q0-166 135-166t135 166v51q0 147-135 147t-135-147zm-33-657v-66q0-184 168-184 170 0 170 184v66q0 184-170 184-168 0-168-184z"/><glyph glyph-name="nine.LP" d="M727 1051v34q0 215-166 215t-166-215v-34q0-215 166-215t166 215zM563-27q-91 0-170.5 28.5T252.5 84t-95 137.5T123 408v53h293v-33q0-192 147-192 164 0 164 241v223q-86-127-250-127-157 0-262.5 119T109 1026v66q0 222 127 346.5T563 1563q202 0 329.5-129t127.5-363V467q0-235-127.5-364.5T563-27z"/><glyph glyph-name="numbersign.OT" d="M649 502l66 266H477l-65-266h237zM522 0l78 307H362L285 0H70l77 307H0v195h197l65 266H117v195h194l68 266h215l-68-266h238l67 266h216l-68-266h147V768H930l-66-266h148V307H815L737 0H522z"/><glyph glyph-name="Euro.OT" d="M1114 420q-18-219-143.5-329.5T647-20Q475-20 353.5 80T188 379H20v156h146q-2 27-2 81 0 53 2 78H20v156h168q44 198 165 298.5T647 1249q198 0 323.5-110.5T1114 809H825q-10 96-56 145.5T649 1004q-124 0-170-154h234V694H455q-2-25-2-78 0-56 2-81h258V379H479q45-154 170-154 155 0 176 195h289z"/><glyph glyph-name="dollar.OT" d="M414 905q0-66 86-112v221q-86-23-86-109zm319-577q0 72-90 121V213q90 25 90 115zm-90-584H500v240Q328 5 221.5 107T115 371h280q0-116 105-154v289q-46 17-73.5 28t-70 32-69 40-58 49.5-49 64.5-29.5 80-12 99q0 147 100.5 240T500 1247v238h143v-242q158-25 258-129t100-246H725q0 44-22 80t-60 56V735q46-16 75-27t72.5-31.5 71-40 59.5-50 50-64.5 30.5-80 12.5-100q0-152-103-247.5T643-16v-240z"/><glyph glyph-name="cent.OT" d="M311 512q0-106 50.5-177T498 242v540q-85-22-136-94t-51-176zm781-98q-19-179-140.5-294.5T641-16v-240H498v240Q290 6 158.5 151T27 512t131.5 361T498 1040v240h143v-240q182-20 301.5-128.5T1087 633H788q-13 58-52 95.5T641 780V244q58 18 99 61t55 109h297z"/><glyph glyph-name="sterling.OT" d="M1006 248V0H113v156q58 60 86 92t54.5 73 35 79.5T297 492H127v157h113q-3 4-16 24.5T207 700t-15.5 25.5T176 755t-12 29-11 34-5.5 35-2.5 40q0 113 56.5 195T350 1209.5t209 39.5q190 0 313-103t123-288v-31H715v25q0 72-41.5 110.5T559 1001q-60 0-96.5-30.5T426 879q0-38 14-74t41-82.5 39-73.5h324V492H551q-5-146-74-244h529z"/><glyph glyph-name="florin.OT" d="M881 492H612L463-256H166l147 748H160v157h184l43 213q42 209 161 298t316 89q75 0 133-16V983q-44 16-131 16-152 0-182-147l-41-203h238V492z"/><glyph glyph-name="yen.OT" d="M930 379H715V0H418v379H197v156h221v159H197v156h159l-229 379h279l161-297 160 297h274L774 850h156V694H715V535h215V379z"/><glyph glyph-name="zero.slashOT" d="M563-20q-141 0-248 67L287 0H80l108 174Q80 331 80 614q0 313 133 474t350 161q141 0 248-67l29 47h207l-109-174q109-162 109-441 0-160-36-282.5T909.5 133t-153-114.5T563-20zM358 614q0-68 11-147l303 489q-43 37-109 37-205 0-205-379zm205-372q103 0 154 90.5T768 614q0 76-10 148L457 276q42-34 106-34z"/><glyph glyph-name="zero.OT" d="M563-20q-105 0-192 38.5T218.5 133t-102 198.5T80 614q0 313 133 474t350 161q106 0 193.5-39t153-115.5 101.5-199 36-281.5q0-160-36-282.5T909.5 133t-153-114.5T563-20zm0 262q195 0 195 372 0 379-195 379-194 0-194-379 0-372 194-372z"/><glyph glyph-name="one.OT" d="M487 1163v66h293V0H483v715H217v233h51q117 0 168 50t51 165z"/><glyph glyph-name="two.OT" d="M995 872q0-73-32-142t-81-120-110.5-103-117-91.5T550 331t-69-83h527V0H115v106q0 78 33 151t86 130 117 110 128 100 117 90 86 90 33 91q0 61-42.5 97T559 1001q-158 0-158-163v-41H121v67q0 181 124 283t314 102q122 0 219.5-41.5t157-128.5T995 872z"/><glyph glyph-name="three.OT" d="M618-20q-142 0-253.5 47T188 167t-65 218h285q0-74 56.5-117T608 225q80 0 129 38.5T786 369q0 141-188 141H471v240h127q73 0 115.5 33t42.5 91q0 61-45 94t-121 33q-79 0-123.5-38.5T422 852H139q0 189 121 293t332 104q204 0 328-96.5T1044 895q0-166-147-252 87-46 132.5-120.5T1075 352q0-180-125-276T618-20z"/><glyph glyph-name="four.OT" d="M334 471h276v569zm764-238H893V0H610v233H63v234l379 762h451V471h205V233z"/><glyph glyph-name="five.OT" d="M571-20Q361-20 232.5 93.5T104 391h291q0-73 47.5-118.5T571 227q83 0 133 54t50 139q0 88-50.5 141T559 614q-63 0-105-24.5T399 530H127v699h846V985H389V731q84 107 248 107 168 0 283.5-116.5T1036 420q0-196-128-318T571-20z"/><glyph glyph-name="six.OT" d="M1036 387q0-96-35-174.5T905 84 763.5 7 590-20q-108 0-198.5 37.5T232 130.5t-107.5 199T86 614q0 129 27.5 235.5T189 1029t112.5 123.5 137 73.5 151.5 23q182 0 307-110.5T1022 858H748q-1 67-43 106.5T594 1004q-100 0-157.5-92.5T379 637q42 80 114 119t158 39q76 0 143.5-25T917 696.5t87-128.5 32-181zM590 221q70 0 118 47t48 119-48 119-118 47-118-47-48-119 48-119 118-47z"/><glyph glyph-name="seven.OT" d="M655 0H358v70q0 119 21.5 231.5t55.5 201 86.5 179 102 157.5T739 983H141v246h836V897q-53-68-82.5-106.5t-69.5-97-61-101T718.5 491t-36-116T663 246t-8-154V0z"/><glyph glyph-name="eight.OT" d="M563-20Q351-20 226.5 81.5T102 358q0 91 47.5 166.5T281 651q-140 96-140 250 0 161 114 254.5t308 93.5q195 0 308.5-93.5T985 901q0-155-139-250 84-51 131-126t47-167q0-175-124.5-276.5T563-20zm0 774q65 0 103.5 37t38.5 96q0 58-39 94.5T563 1018t-102.5-36.5T422 887q0-59 38-96t103-37zm0-541q81 0 128.5 44.5T739 375q0 71-47.5 115.5T563 535t-128.5-44.5T387 375q0-73 47.5-117.5T563 213z"/><glyph glyph-name="nine.OT" d="M539 1010q-70 0-118-47.5T373 842q0-72 48-119t118-47 118 47 48 119q0 73-48 120.5T539 1010zm0-1030Q358-20 232 91.5T106 371h275q1-67 43.5-106.5T535 225q100 0 157.5 93.5T750 594q-42-80-114.5-119T477 436q-75 0-142.5 25t-122 73.5-86.5 128T94 842q0 191 126.5 299T539 1249q109 0 198.5-37.5T896 1099t107.5-199 38.5-286q0-129-27.5-235.5t-75-179-112-123T690.5 3 539-20z"/><glyph glyph-name="numbersign.OP" horiz-adv-x="1167" d="M670 502l65 266H498l-66-266h238zM543 0l78 307H383L305 0H90l78 307H20v195h197l66 266H137v195h195l67 266h215l-67-266h237l68 266h215l-68-266h148V768H950l-65-266h147V307H836L758 0H543z"/><glyph glyph-name="Euro.OP" horiz-adv-x="1249" d="M1135 420q-18-219-143.5-329.5T668-20Q496-20 374.5 80T209 379H41v156h145q-2 27-2 81 0 53 2 78H41v156h168q44 198 165 298.5T668 1249q198 0 323.5-110.5T1135 809H846q-10 96-56 145.5T670 1004q-124 0-170-154h233V694H475q-2-25-2-78 0-56 2-81h258V379H500q45-154 170-154 155 0 176 195h289z"/><glyph glyph-name="dollar.OP" horiz-adv-x="1032" d="M367 905q0-66 86-112v221q-86-23-86-109zm319-577q0 72-90 121V213q90 25 90 115zm-90-584H453v240Q281 5 174.5 107T68 371h280q0-116 105-154v289q-46 17-73.5 28t-70 32-69 40-58 49.5-49 64.5-29.5 80-12 99q0 147 100.5 240T453 1247v238h143v-242q158-25 258-129t100-246H678q0 44-22 80t-60 56V735q46-16 75-27t72.5-31.5 71-40 59.5-50 50-64.5 30.5-80T967 342q0-152-103-247.5T596-16v-240z"/><glyph glyph-name="cent.OP" d="M311 512q0-106 50.5-177T498 242v540q-85-22-136-94t-51-176zm781-98q-19-179-140.5-294.5T641-16v-240H498v240Q290 6 158.5 151T27 512t131.5 361T498 1040v240h143v-240q182-20 301.5-128.5T1087 633H788q-13 58-52 95.5T641 780V244q58 18 99 61t55 109h297z"/><glyph glyph-name="sterling.OP" horiz-adv-x="1036" d="M981 248V0H88v156q110 113 147 175.5T272 492H102v157h113q-3 4-14.5 21.5t-15 23.5-13.5 22.5-14 25.5-11.5 25-11 28.5-7.5 29-5.5 33.5-1.5 35q0 113 56.5 195T326 1209.5t209 39.5q190 0 313-103t123-288v-31H690v25q0 72-41 110.5T535 1001q-60 0-97-31t-37-91q0-37 14.5-73t41.5-83 39-74h323V492H526q-5-147-73-244h528z"/><glyph glyph-name="florin.OP" horiz-adv-x="1089" d="M870 492H602L453-256H156l147 748H150v157h184l43 213q43 210 160.5 298.5T854 1249q75 0 133-16V983q-47 16-131 16-155 0-182-147l-41-203h237V492z"/><glyph glyph-name="yen.OP" horiz-adv-x="935" d="M834 379H618V0H322v379H100v156h222v159H100v156h160L31 1229h278l162-297 160 297h274L678 850h156V694H618V535h216V379z"/><glyph glyph-name="zero.slashOP" d="M563-20q-141 0-248 67L287 0H80l108 174Q80 331 80 614q0 313 133 474t350 161q141 0 248-67l29 47h207l-109-174q109-162 109-441 0-160-36-282.5T909.5 133t-153-114.5T563-20zM358 614q0-68 11-147l303 489q-43 37-109 37-205 0-205-379zm205-372q103 0 154 90.5T768 614q0 76-10 148L457 276q42-34 106-34z"/><glyph glyph-name="zero.OP" d="M563-20q-105 0-192 38.5T218.5 133t-102 198.5T80 614q0 313 133 474t350 161q106 0 193.5-39t153-115.5 101.5-199 36-281.5q0-160-36-282.5T909.5 133t-153-114.5T563-20zm0 262q195 0 195 372 0 379-195 379-194 0-194-379 0-372 194-372z"/><glyph glyph-name="one.OP" horiz-adv-x="692" d="M276 1208v21h293V0H272v791H37v233h67q91 0 131.5 43t40.5 141z"/><glyph glyph-name="two.OP" horiz-adv-x="995" d="M940 872q0-73-32-142t-81-120-110.5-103-117-91.5T495 331t-69-83h526V0H59v106q0 78 33 151t86 130 117 110 128 100 117 90 86 90 33 91q0 61-42 97t-113 36q-158 0-158-163v-41H66v67q0 121 58.5 209.5t156.5 132 223 43.5q190 0 313-99t123-278z"/><glyph glyph-name="three.OP" horiz-adv-x="1085" d="M567-20q-142 0-253.5 47T137 167 72 385h284q0-74 56.5-117T557 225q80 0 129 38.5T735 369q0 141-188 141H420v240h127q73 0 115.5 33t42.5 91q0 61-45 94t-121 33q-79 0-123.5-38.5T371 852H88q0 189 121 293t332 104q204 0 328-96.5T993 895q0-166-147-252 87-46 132.5-120.5T1024 352q0-180-125-276T567-20z"/><glyph glyph-name="four.OP" horiz-adv-x="1085" d="M305 471h277v569zm766-238H866V0H582v233H37v234l377 762h452V471h205V233z"/><glyph glyph-name="five.OP" horiz-adv-x="1075" d="M561-20Q351-20 222.5 93.5T94 391h291q0-73 47.5-118.5T561 227q82 0 132 53.5T743 420q0 88-50 141t-144 53q-63 0-105-24.5T389 530H117v699h846V985H379V731q84 107 248 107 168 0 283.5-116.5T1026 420q0-196-128-318T561-20z"/><glyph glyph-name="six.OP" horiz-adv-x="1095" d="M1030 387q0-96-35-174.5T899 84 757.5 7 584-20q-108 0-198.5 37.5T226 130.5t-107.5 199T80 614q0 129 27.5 235.5T183 1029t112.5 123.5 137 73.5 151.5 23q182 0 307-110.5T1016 858H741q-1 67-42.5 106.5T588 1004q-100 0-157.5-92.5T373 637q42 80 114 119t158 39q76 0 143.5-25T911 696.5 998 568t32-181zM584 221q70 0 118 47t48 119-48 119-118 47-118-47-48-119 48-119 118-47z"/><glyph glyph-name="seven.OP" horiz-adv-x="872" d="M528 0H231v70q0 119 21.5 231.5t55.5 201 86.5 179 102 157.5T612 983H14v246h836V897q-53-68-82.5-106.5t-69.5-97-61-101T591.5 491t-36-116T536 246t-8-154V0z"/><glyph glyph-name="eight.OP" horiz-adv-x="1085" d="M543-20Q331-20 206.5 81.5T82 358q0 92 47 167t131 126q-139 95-139 250 0 161 114 254.5t308 93.5q195 0 308.5-93.5T965 901q0-154-140-250 84-51 131.5-126.5T1004 358q0-175-124.5-276.5T543-20zm0 774q65 0 103 37t38 96q0 58-38.5 94.5T543 1018t-103-36.5-39-94.5q0-59 38.5-96T543 754zm0-541q81 0 128.5 44.5T719 375q0 71-47.5 115.5T543 535t-128.5-44.5T367 375q0-73 47.5-117.5T543 213z"/><glyph glyph-name="nine.OP" horiz-adv-x="1095" d="M512 1010q-70 0-118-47.5T346 842q0-72 48-119t118-47 118 47 48 119q0 73-48 120.5T512 1010zm0-1030Q331-20 205.5 91.5T80 371h274q1-67 43.5-106.5T508 225q100 0 157.5 93.5T723 594q-42-80-114-119t-158-39q-75 0-142.5 25t-122 73.5-86.5 128T68 842q0 191 126 299t318 108q109 0 199-37.5T870 1099t107.5-199 38.5-286q0-129-27.5-235.5t-75.5-179-112.5-123T663.5 3 512-20z"/><glyph glyph-name="plussuperior" horiz-adv-x="665" d="M600 854H401V643H264v211H68v131h196v211h137V985h199V854z"/><glyph glyph-name="minussuperior" horiz-adv-x="665" d="M68 854v131h532V854H68z"/><glyph glyph-name="multiplysuperior" horiz-adv-x="665" d="M479 676L334 823 193 682l-95 94 142 142-150 147 96 96 150-147 139 139 94-94-139-139 148-148z"/><glyph glyph-name="dividesuperior" horiz-adv-x="665" d="M248 1135q0 35 25.5 61.5T334 1223q36 0 61-26t25-62q0-37-24.5-60.5T334 1051q-36 0-61 24t-25 60zM68 854v131h532V854H68zm180-152q0 35 25.5 60.5T334 788q36 0 61-25t25-61q0-37-24.5-61.5T334 616q-36 0-61 25t-25 61z"/><glyph glyph-name="equalsuperior" horiz-adv-x="665" d="M68 987v131h532V987H68zm0-266v131h532V721H68z"/><glyph glyph-name="Eurosuperior" horiz-adv-x="813" d="M752 862q0-164-87.5-251T432 524q-118 0-199 66T125 782H27v111h88v88H27v109h98q27 126 108 191t199 65q144 0 232-86t88-246H539q0 85-26.5 123.5T432 1176q-69 0-92-86h133V981H328v-88h145V782H340q23-88 92-88 107 0 107 168h213z"/><glyph glyph-name="zeroslashsuperior" horiz-adv-x="733" d="M367 524q-92 0-160 39l-17-26H43l72 114Q43 757 43 934q0 203 89.5 307.5T367 1346q92 0 157-39l17 24h147l-72-112q72-109 72-285 0-203-87.5-306.5T367 524zM246 934q0-32 4-68l174 281q-22 16-57 16-62 0-91.5-55.5T246 934zm121-219q62 0 91 52.5T487 934q0 32-4 72L311 729q20-14 56-14z"/><glyph glyph-name="plusinferior" horiz-adv-x="665" d="M600-195H401v-211H264v211H68v132h196v210h137V-63h199v-132z"/><glyph glyph-name="minusinferior" horiz-adv-x="665" d="M68-195v132h532v-132H68z"/><glyph glyph-name="multiplyinferior" horiz-adv-x="665" d="M479-373L334-227 193-367l-95 95 142 139L90 16l96 97L336-35l139 139 94-94-139-139 148-147z"/><glyph glyph-name="divideinferior" horiz-adv-x="665" d="M248 86q0 35 25.5 61.5T334 174q36 0 61-26t25-62q0-37-24.5-60.5T334 2q-36 0-61 24t-25 60zM68-195v132h532v-132H68zm180-151q0 35 25.5 60.5T334-260q36 0 61-25t25-61q0-37-24.5-61.5T334-432q-36 0-61 25t-25 61z"/><glyph glyph-name="equalinferior" horiz-adv-x="665" d="M68-61V70h532V-61H68zm0-267v131h532v-131H68z"/><glyph glyph-name="Euroinferior" horiz-adv-x="813" d="M752-186q0-164-87.5-251T432-524q-118 0-199 66T125-266H27v110h88v88H27V41h98q27 126 108 191t199 65q144 0 232-86t88-246H539q0 85-26.5 123.5T432 127q-69 0-92-86h133V-68H328v-88h145v-110H340q23-88 92-88 107 0 107 168h213z"/><glyph glyph-name="zeroslashinferior" horiz-adv-x="733" d="M367-524q-92 0-160 39l-17-27H43l72 115Q43-291 43-115q0 203 89.5 307.5T367 297q92 0 157-39l17 25h147l-72-113q72-109 72-285 0-203-87.5-306T367-524zM246-115q0-31 4-67L424 98q-24 17-57 17-62 0-91.5-56T246-115zm121-219q62 0 91 52.5T487-115q0 32-4 72L311-319q21-15 56-15z"/><glyph glyph-name="comma.numr" horiz-adv-x="307" d="M154 248H45q67 99 92 174-40 6-67 39t-27 74q0 45 33 77.5t80 32.5q51 0 83.5-36.5T272 518q0-109-118-270z"/><glyph glyph-name="period.numr" horiz-adv-x="307" d="M158 420q-51 0-84 33.5T41 537q0 48 33.5 81t83.5 33q49 0 82.5-33t33.5-81q0-50-33.5-83.5T158 420z"/><glyph glyph-name="parenleft.numr" horiz-adv-x="452" d="M88 1118q0 345 201 621h166q-187-259-187-621t187-618H289Q88 773 88 1118z"/><glyph glyph-name="parenright.numr" horiz-adv-x="452" d="M367 1118q0-341-201-618H-2q188 258 188 618T-2 1739h168q201-280 201-621z"/><glyph glyph-name="plus.numr" horiz-adv-x="665" d="M600 1057H401V846H264v211H68v131h196v211h137v-211h199v-131z"/><glyph glyph-name="minus.numr" horiz-adv-x="665" d="M68 1057v131h532v-131H68z"/><glyph glyph-name="multiply.numr" horiz-adv-x="665" d="M479 879l-145 147-141-141-95 94 142 141-150 148 96 96 150-147 139 139 94-94-139-140 148-147z"/><glyph glyph-name="divide.numr" horiz-adv-x="665" d="M248 1337q0 35 25.5 61.5T334 1425q36 0 61-26t25-62q0-37-24.5-60.5T334 1253q-36 0-61 24t-25 60zM68 1057v131h532v-131H68zm180-152q0 35 25.5 60.5T334 991q36 0 61-25t25-61q0-37-24.5-61.5T334 819q-36 0-61 25t-25 61z"/><glyph glyph-name="equal.numr" horiz-adv-x="665" d="M68 1190v131h532v-131H68zm0-266v131h532V924H68z"/><glyph glyph-name="Euro.numr" horiz-adv-x="813" d="M752 1065q0-164-87.5-251T432 727q-118 0-199 66T125 985H27v111h88v88H27v108h98q27 126 108 191t199 65q144 0 232-85.5t88-245.5H539q0 84-26.5 122.5T432 1378q-69 0-92-86h133v-108H328v-88h145V985H340q23-88 92-88 107 0 107 168h213z"/><glyph glyph-name="dollar.numr" horiz-adv-x="671" d="M244 1325q0-42 51-65v131q-51-15-51-66zm196-371q0 44-53 70V887q53 16 53 67zm-53-381h-92v156q-116 12-188 80.5T35 989h196q0-77 64-100v170q-36 11-57.5 19t-55 23.5-53 33-40.5 43-30.5 60.5-9.5 77q0 100 68.5 161.5T295 1546v158h92v-160q106-17 174-86t68-162H436q0 59-49 84v-153l39-13 37.5-14 39-17 35-20 33-25 26.5-30.5 22-38 12.5-44.5 5.5-54q0-105-69-169t-181-73V573z"/><glyph glyph-name="cent.numr" horiz-adv-x="733" d="M223 1075q0-63 26-104.5t73-55.5v316q-46-15-72.5-57t-26.5-99zm492-65q-19-118-98-193t-201-88V573h-94v156q-134 15-220 111t-86 235q0 137 86.5 232T322 1417v154h94v-154q117-12 195-83t102-183H498q-26 63-82 78V918q64 19 86 92h213z"/><glyph glyph-name="zeroslash.numr" horiz-adv-x="733" d="M367 727q-92 0-160 39l-17-27H43l72 115q-72 106-72 283 0 202 89.5 306.5T367 1548q92 0 157-39l17 25h147l-72-113q72-109 72-284 0-203-87.5-306.5T367 727zm-121 410q0-32 4-68l174 281q-22 16-57 16-62 0-91.5-55.5T246 1137zm121-219q62 0 91 52.5t29 166.5q0 31-4 71L311 932q20-14 56-14z"/><glyph glyph-name="zero.numr" horiz-adv-x="733" d="M367 727q-146 0-235 103.5T43 1137q0 202 89.5 306.5T367 1548q146 0 233.5-104t87.5-307q0-204-87.5-307T367 727zm0 191q54 0 80 53t26 166q0 118-26 173.5t-80 55.5q-109 0-109-229 0-219 109-219z"/><glyph glyph-name="one.numr" horiz-adv-x="440" d="M174 1524v12h217V739H168v496H20v168h39q60 0 87.5 28.5T174 1524z"/><glyph glyph-name="two.numr" horiz-adv-x="647" d="M614 1303q0-54-26.5-104t-68-88-84-70.5-82-66T299 915h319V739H35v72q0 61 28 116.5t69.5 94.5 90 78 90 68 69.5 62.5 28 63.5q0 35-22.5 56.5T328 1372q-88 0-88-94v-27H39v43q0 120 81.5 187t207.5 67q123 0 204.5-64t81.5-181z"/><glyph glyph-name="three.numr" horiz-adv-x="706" d="M365 727q-149 0-239.5 72.5T35 997h207q0-46 31.5-73t82.5-27q46 0 74.5 24t28.5 62q0 84-109 84h-78v162h78q41 0 64.5 19.5T438 1300q0 35-24.5 53.5T346 1372t-67.5-22.5T254 1284H49q0 125 79.5 194.5T352 1548q136 0 217.5-63t81.5-166q0-109-96-164 117-62 117-186 0-114-83-178t-224-64z"/><glyph glyph-name="four.numr" horiz-adv-x="706" d="M211 1047h160v339zm487-170H580V739H371v138H20v163l238 496h322v-489h118V877z"/><glyph glyph-name="five.numr" horiz-adv-x="698" d="M365 727q-140 0-227 74.5T51 995h209q0-42 28-68t77-26q46 0 74 31.5t28 79.5q0 52-29 84t-82 32q-37 0-62-15.5t-30-35.5H66v459h565v-174H252v-143q57 63 154 63 115 0 192.5-74.5T676 1012q0-126-86-205.5T365 727z"/><glyph glyph-name="six.numr" horiz-adv-x="712" d="M678 989q0-123-84.5-192.5T379 727q-149 0-242.5 101.5T43 1139q0 104 27.5 184.5T146 1452t107 72 126 24q123 0 207-71.5t84-182.5H473q-2 38-26 61t-66 23q-58 0-93.5-54.5T252 1161q57 92 174 92 48 0 91.5-15.5t80-46 58.5-83T678 989zm-299-98q42 0 70 27t28 71q0 42-28 70t-70 28q-40 0-68-28t-28-70q0-43 27.5-70.5T379 891z"/><glyph glyph-name="seven.numr" horiz-adv-x="567" d="M356 739H135v45q0 93 19.5 176t57 155 75.5 125.5 92 117.5H8v178h547v-231q-57-74-85.5-117.5t-59-107-42.5-133T356 788v-49z"/><glyph glyph-name="eight.numr" horiz-adv-x="706" d="M352 727q-145 0-227 66.5T43 975q0 116 111 186-88 62-88 160 0 105 76.5 166t209.5 61q134 0 211.5-61t77.5-166q0-98-88-160 113-69 113-186 0-114-84-181t-230-67zm0 504q38 0 60 22t22 56-22.5 54.5T352 1384t-58.5-20.5T272 1309t22-56 58-22zm0-340q48 0 76.5 27t28.5 69q0 43-28 69.5t-77 26.5q-47 0-74.5-26.5T250 987q0-42 28-69t74-27z"/><glyph glyph-name="nine.numr" horiz-adv-x="712" d="M334 1382q-42 0-70-27t-28-71q0-42 28-69t70-27q40 0 68 27t28 69q0 43-27.5 70.5T334 1382zm0-655q-122 0-206.5 71.5T43 979h197q2-36 26.5-59t65.5-23q59 0 94 54t35 161q-56-90-174-90-48 0-91.5 15.5t-80 46T57 1166t-22 118q0 125 84.5 194.5T334 1548q150 0 243-101t93-312q0-103-27.5-183.5t-75.5-128-107-72T334 727z"/><glyph glyph-name="comma.dnom" horiz-adv-x="311" d="M154-184H45q67 99 92 174-40 6-67 38.5T43 102q0 45 33 78t80 33q51 0 83.5-36.5T272 86q0-109-118-270z"/><glyph glyph-name="period.dnom" horiz-adv-x="311" d="M158-12q-51 0-84 33t-33 83q0 48 33.5 81.5T158 219q49 0 82.5-33.5T274 104q0-50-33-83t-83-33z"/><glyph glyph-name="parenleft.dnom" horiz-adv-x="452" d="M88 379q0 344 201 620h166Q268 740 268 379q0-363 187-619H289Q88 33 88 379z"/><glyph glyph-name="parenright.dnom" horiz-adv-x="452" d="M367 379q0-342-201-619H-2Q186 18 186 379q0 359-188 620h168q201-280 201-620z"/><glyph glyph-name="plus.dnom" horiz-adv-x="665" d="M600 317H401V106H264v211H68v132h196v210h137V449h199V317z"/><glyph glyph-name="minus.dnom" horiz-adv-x="665" d="M68 317v132h532V317H68z"/><glyph glyph-name="multiply.dnom" horiz-adv-x="665" d="M479 139L334 287 193 145l-95 95 142 141L90 528l96 97 150-148 139 139 94-94-139-139 148-147z"/><glyph glyph-name="divide.dnom" horiz-adv-x="665" d="M248 598q0 35 25.5 61.5T334 686q36 0 61-26t25-62q0-37-24.5-60.5T334 514q-36 0-61 24t-25 60zM68 317v132h532V317H68zm180-151q0 35 25.5 60.5T334 252q36 0 61-25t25-61q0-37-24.5-61.5T334 80q-36 0-61 25t-25 61z"/><glyph glyph-name="equal.dnom" horiz-adv-x="665" d="M68 451v131h532V451H68zm0-267v131h532V184H68z"/><glyph glyph-name="Euro.dnom" horiz-adv-x="813" d="M752 326q0-164-87.5-251T432-12q-118 0-199 66T125 246H27v110h88v88H27v109h98q27 126 108 191t199 65q144 0 232-86t88-246H539q0 85-26.5 123.5T432 639q-69 0-92-86h133V444H328v-88h145V246H340q23-88 92-88 107 0 107 168h213z"/><glyph glyph-name="dollar.dnom" horiz-adv-x="671" d="M244 586q0-43 51-66v131q-51-15-51-65zm196-371q0 44-53 70V147q53 16 53 68zm-53-381h-92v156Q179 2 107 70.5T35 250h196q0-77 64-100v169q-36 11-57.5 19t-55 23.5-53 33-40.5 43T58.5 498 49 575q0 100 68.5 162T295 807v158h92V805q106-17 174-86t68-162H436q0 59-49 84V487l39-13 37.5-14 39-17 35-20 33-25 26.5-30.5 22-38 12.5-44.5 5.5-54q0-105-69-168.5T387-10v-156z"/><glyph glyph-name="cent.dnom" horiz-adv-x="733" d="M223 336q0-63 26-104.5t73-55.5v316q-46-15-72.5-57T223 336zm492-66q-19-118-98-192.5T416-10v-156h-94v156Q188 5 102 101T16 336q0 137 86.5 232T322 678v153h94V678q117-12 195-83t102-183H498q-25 62-82 77V178q64 19 86 92h213z"/><glyph glyph-name="zeroslash.dnom" horiz-adv-x="733" d="M367-12q-92 0-160 39L190 0H43l72 115Q43 221 43 397q0 203 89.5 307.5T367 809q92 0 157-39l17 25h147l-72-113q72-109 72-285 0-203-87.5-306T367-12zM246 397q0-31 4-67l174 280q-24 17-57 17-62 0-91.5-56T246 397zm121-219q62 0 91 52.5T487 397q0 32-4 72L311 193q21-15 56-15z"/><glyph glyph-name="zero.dnom" horiz-adv-x="733" d="M367-12Q221-12 132 91T43 397t89.5 307.5T367 809q146 0 233.5-104.5T688 397q0-204-87.5-306.5T367-12zm0 190q54 0 80 53t26 166q0 118-26 174t-80 56q-109 0-109-230 0-219 109-219z"/><glyph glyph-name="one.dnom" horiz-adv-x="450" d="M174 784v13h217V0H168v496H20v168h39q60 0 87.5 28t27.5 92z"/><glyph glyph-name="two.dnom" horiz-adv-x="647" d="M614 563q0-54-26.5-104t-68-88-84-70.5-82-65.5-54.5-59h319V0H35v72q0 61 28 116.5t69.5 94.5 90 78 90 68 69.5 62.5 28 63.5q0 35-22.5 56.5T328 633q-88 0-88-94v-27H39v43q0 120 81.5 187T328 809q123 0 204.5-64.5T614 563z"/><glyph glyph-name="three.dnom" horiz-adv-x="706" d="M365-12q-149 0-239.5 72.5T35 258h207q0-46 31.5-73t82.5-27q46 0 74.5 24t28.5 62q0 84-109 84h-78v161h78q41 0 64.5 19.5T438 561q0 35-24.5 53.5T346 633t-67.5-22.5T254 545H49q0 125 79.5 194.5T352 809q136 0 217.5-63T651 580q0-109-96-164 117-62 117-187 0-114-83-177.5T365-12z"/><glyph glyph-name="four.dnom" horiz-adv-x="706" d="M211 307h160v340zm487-170H580V0H371v137H20v164l238 496h322V307h118V137z"/><glyph glyph-name="five.dnom" horiz-adv-x="698" d="M365-12q-140 0-227 74.5T51 256h209q0-42 28-68t77-26q46 0 74 31t28 79q0 52-29 84.5T356 389q-37 0-62-15.5T264 338H66v459h565V623H252V479q58 64 154 64 115 0 192.5-75T676 272q0-126-86-205T365-12z"/><glyph glyph-name="six.dnom" horiz-adv-x="712" d="M678 250q0-123-84.5-192.5T379-12Q230-12 136.5 89T43 399q0 104 27.5 184.5T146 712t107 72.5T379 809q123 0 207-71.5T670 555H473q-2 38-26 61t-66 23q-58 0-93.5-54.5T252 422q57 92 174 92 48 0 91.5-15.5t80-46 58.5-83T678 250zm-299-98q42 0 70 27t28 71q0 42-28 70t-70 28q-40 0-68-28t-28-70q0-43 27.5-70.5T379 152z"/><glyph glyph-name="seven.dnom" horiz-adv-x="567" d="M356 0H135v45q0 93 19.5 175.5t57 154.5 75 125.5T379 618H8v179h547V565q-57-75-85.5-117.5t-59-106-42.5-133T356 49V0z"/><glyph glyph-name="eight.dnom" horiz-adv-x="706" d="M352-12q-145 0-227 66.5T43 236q0 116 111 186-88 62-88 160 0 105 76.5 166T352 809q134 0 211.5-61T641 582q0-98-88-160 113-69 113-186 0-114-84-181T352-12zm0 504q38 0 60 21.5t22 55.5-22.5 55-59.5 21q-36 0-58-21t-22-55 22-55.5 58-21.5zm0-340q48 0 76.5 27t28.5 69q0 43-28 69.5T352 344q-47 0-74.5-26.5T250 248q0-42 28-69t74-27z"/><glyph glyph-name="nine.dnom" horiz-adv-x="712" d="M334 643q-42 0-70-27t-28-71q0-42 28-69t70-27q40 0 68 27t28 69q0 43-27.5 70.5T334 643zm0-655q-122 0-206.5 71.5T43 240h197q2-36 26.5-59t65.5-23q59 0 94 54t35 161q-56-90-174-90-48 0-91.5 15.5t-80 46T57 427 35 545q0 125 84.5 194.5T334 809q150 0 243-101.5T670 395q0-103-27.5-183T567 84 460 12 334-12z"/><glyph glyph-name="fraction.OP" horiz-adv-x="348" d="M-330 0l844 1229h164L-166 0h-164z"/><glyph glyph-name="onequarter.OP" horiz-adv-x="1814" d="M403 0l844 1229h164L567 0H403zm-45 1217v12h217V432H352v496H205v168h39q60 0 87 28.5t27 92.5zm873-910h160v340zm487-170h-119V0h-208v137h-351v164l238 496h321V307h119V137z"/><glyph glyph-name="onehalf.OP" horiz-adv-x="1814" d="M403 0l844 1229h164L567 0H403zm-45 1217v12h217V432H352v496H205v168h39q60 0 87 28.5t27 92.5zm1338-654q0-46-19.5-89t-49-75-67.5-64.5-72-56.5-64.5-52-43.5-50h320V0h-584v72q0 61 28 116.5t69.5 94.5 90 78 90 68 69.5 62.5 28 63.5q0 35-22.5 56.5T1409 633q-88 0-88-94v-27h-201v43q0 120 81.5 187t207.5 67q123 0 205-64.5t82-181.5z"/><glyph glyph-name="threequarters.OP" horiz-adv-x="1814" d="M403 0l844 1229h164L567 0H403zm-38 420q-149 0-239.5 72.5T35 690h207q0-46 31.5-73t82.5-27q46 0 74.5 24t28.5 62q0 84-109 84h-78v162h78q41 0 64.5 19t23.5 52q0 35-24.5 53.5T346 1065t-67.5-22.5T254 977H49q0 125 79.5 194.5T352 1241q136 0 217.5-63t81.5-166q0-109-96-164 117-62 117-186 0-114-83-178t-224-64zm866-113h160v340zm487-170h-119V0h-208v137h-351v164l238 496h321V307h119V137z"/><glyph glyph-name="percent.OP" horiz-adv-x="1814" d="M367 420q-146 0-235 103T43 829t89.5 307.5T367 1241q146 0 233.5-104.5T688 829q0-204-87.5-306.5T367 420zM403 0l844 1229h164L567 0H403zm-36 610q54 0 80 53t26 166q0 118-26 174t-80 56q-109 0-109-230 0-219 109-219zM1448-12q-146 0-235 103t-89 306 89.5 307.5T1448 809q146 0 233.5-104.5T1769 397q0-204-87.5-306.5T1448-12zm0 190q54 0 80 53t26 166q0 118-26 174t-80 56q-109 0-109-230 0-219 109-219z"/><glyph glyph-name="perthousand.OP" horiz-adv-x="2549" d="M367 420q-146 0-235 103T43 829t89.5 307.5T367 1241q146 0 233.5-104.5T688 829q0-204-87.5-306.5T367 420zM403 0l844 1229h164L567 0H403zm-36 610q54 0 80 53t26 166q0 118-26 174t-80 56q-109 0-109-230 0-219 109-219zM2183-12q-146 0-234.5 102.5T1860 397q0 203 89 307.5T2183 809q146 0 234-104.5t88-307.5q0-204-87.5-306.5T2183-12zm-733 0q-146 0-235 103t-89 306 89.5 307.5T1450 809q146 0 234-104.5t88-307.5q0-204-87.5-306.5T1450-12zm733 190q54 0 80.5 53t26.5 166q0 230-107 230-108 0-108-230 0-219 108-219zm-733 0q54 0 80 53t26 166q0 118-26 174t-80 56q-109 0-109-230 0-219 109-219z"/><glyph glyph-name="litre" horiz-adv-x="1024" d="M672-20q-163 0-274 98.5T231 352q-60-8-137-8v225q46 0 90 6-10 95-10 183 0 191 22.5 334.5T269 1343t134 161.5 203 54.5q355 0 355-443 0-247-129-429.5T481 416q32-98 84-152.5T686 209q30 0 46 1.5t42 10.5 55 27l23-221q-50-30-88.5-38.5T672-20zM434 758q0-37 4-103 125 74 196 199.5t71 288.5q0 70-23.5 120t-81.5 50q-166 0-166-555z"/><glyph glyph-name="ampersand.alt" horiz-adv-x="1187" d="M557 236q86 0 127 39.5T725 406v276H559q-174 0-174-188v-72q0-102 40.5-144T557 236zM774 0v135Q692-27 483-27 292-27 190 84T88 410v77q0 117 57.5 200.5T305 815q-81 45-127.5 120T131 1112v66q0 183 118 284t306 101q194 0 315-106t121-298v-86H694v76q0 151-139 151-137 0-137-151v-51q0-170 143-170h613V682h-162V0H774z"/><glyph glyph-name="zero.opencirc" horiz-adv-x="1699" d="M850-20q-165 0-311 63T291 212.5t-160.5 251T72 768q0 162 58.5 307T291 1326t247.5 168 311.5 62 311.5-62 247.5-168 160.5-251 58.5-307q0-160-58.5-304.5t-160.5-251T1161 43 850-20zm0 1460q-183 0-333-91t-233-244.5T201 768q0-137 49-260t134.5-213.5T591 151t259-53q185 0 335 90.5T1418 432t83 336-83 336.5-233.5 244.5-334.5 91zm0-1082q-146 0-235 103.5T526 768t89.5 307.5T850 1180q146 0 233.5-104.5T1171 768q0-204-87.5-307T850 358zm0 191q54 0 80 53t26 166q0 118-26 173.5T850 997q-109 0-109-229 0-219 109-219z"/><glyph glyph-name="zero.closecirc" horiz-adv-x="1699" d="M1628 768q0-160-58.5-304.5t-160.5-251T1161 43 850-20 539 43 291 212.5t-160.5 251T72 768q0 162 58.5 307T291 1326t247.5 168 311.5 62 311.5-62 247.5-168 160.5-251 58.5-307zm-1102 0q0-203 89-306.5T850 358t233.5 103 87.5 307q0 203-87.5 307.5T850 1180q-145 0-234.5-104.5T526 768zm430 0q0-113-26-166t-80-53q-109 0-109 219 0 229 109 229 54 0 80-55.5T956 768z"/><glyph glyph-name="T_h" horiz-adv-x="2052" d="M868 1276H594V0H297v1276H20v260h848v-260zm406-711V0H977v1536h297V887q47 75 123.5 116t169.5 41q166 0 269-106t103-305V0h-297v565q0 115-47.5 174.5T1458 799t-136.5-59.5T1274 565z"/><glyph glyph-name="arrowupleft" d="M836 291L424 700V395H238v629h630V844H561l414-416z"/><glyph glyph-name="arrowupright" d="M702 395v305L291 291 152 428l413 416H258v180h631V395H702z"/><glyph glyph-name="arrowdownleft" d="M868 0H238v629h186V324l412 411 139-139-416-416h309V0z"/><glyph glyph-name="arrowdownright" d="M889 0H258v180h309L152 596l139 139 411-409v303h187V0z"/><glyph glyph-name="blacksquare" horiz-adv-x="1153" d="M252 270v648h647V270H252z"/><glyph glyph-name="blackdiamond" horiz-adv-x="1153" d="M575 137L119 594l456 457 457-457z"/><glyph glyph-name="blackcircle" horiz-adv-x="1153" d="M575 250q-146 0-241.5 96T238 588t95.5 242T575 926q145 0 240.5-96T911 588t-95.5-242T575 250z"/><glyph glyph-name="blacktriangle" horiz-adv-x="1153" d="M289 137v914l743-457z"/><glyph glyph-name="whitesquare" horiz-adv-x="1153" d="M252 270v648h647V270H252zm151 152h345v344H403V422z"/><glyph glyph-name="whitediamond" horiz-adv-x="1153" d="M575 137L119 594l456 457 457-457zm0 213l244 244-244 244-243-244z"/><glyph glyph-name="whitecircle" horiz-adv-x="1153" d="M575 250q-146 0-241.5 96T238 588t95.5 242T575 926q145 0 240.5-96T911 588t-95.5-242T575 250zm0 139q82 0 137.5 56.5T768 588t-55.5 142T575 786q-84 0-139-56t-55-142 55.5-142.5T575 389z"/><glyph glyph-name="whitetriangle" horiz-adv-x="1153" d="M289 137v914l743-457zm153 258l320 199-320 199V395z"/><glyph glyph-name="blackleftpointingtriangle" horiz-adv-x="1507" d="M59 651l1223 660V0z"/><glyph glyph-name="blackrightpointingtriangle" horiz-adv-x="1507" d="M225 0v1311l1223-660z"/><glyph glyph-name="blackuppointingtriangle" horiz-adv-x="1507" d="M750 1311L1409 0H98z"/><glyph glyph-name="blackdownpointingtriangle" horiz-adv-x="1507" d="M766-2L98 1311h1311z"/><glyph glyph-name="whiteleftpointingtriangle" horiz-adv-x="1507" d="M59 651l1223 660V0zm349 0l694-350v713z"/><glyph glyph-name="whiterightpointingtriangle" horiz-adv-x="1507" d="M1448 651L225 0v1311zm-346 0l-696 363V301z"/><glyph glyph-name="whiteuppointingtriangle" horiz-adv-x="1507" d="M750 1311L1409 0H98zm0-373L397 182h713z"/><glyph glyph-name="whitedownpointingtriangle" horiz-adv-x="1507" d="M750 0L98 1311h1311zm0 373l360 755H397z"/><glyph glyph-name="chevronleft" horiz-adv-x="1507" d="M182 756l801 760h283L471 756 1266 0H983z"/><glyph glyph-name="chevronright" horiz-adv-x="1507" d="M221 0l795 756-795 760h283l801-760L504 0H221z"/><glyph glyph-name="chevronup" horiz-adv-x="1507" d="M37 225v283l715 801 718-801V225l-718 795z"/><glyph glyph-name="chevrondown" horiz-adv-x="1507" d="M752 225L37 1026v283l715-795 718 795v-283z"/><glyph glyph-name="heartsuitwhite" horiz-adv-x="1736" d="M905 0h-74q-26 77-78.5 148.5T638 276 506.5 389 373 504 257 625t-83 145-31 174q0 182 107.5 284.5T516 1331q116 0 210-60.5T868 1083q48 126 142.5 187t210.5 61q158 0 265-102.5T1593 944q0-92-31-174t-83.5-145T1362 504t-133.5-115T1097 276 982.5 148.5 905 0z"/><glyph glyph-name="Roo_It" horiz-adv-x="2099" d="M336 1446q217 0 252-170 28-135-88-234l209-331-162-84-211 374-27-358-166 12 39 770h4q70 21 150 21zm1118-103q63 45 136.5 55t155-23 152.5-109q32-34 45.5-77t12.5-77-8-84q-31-215-232-276-82-25-166.5-8T1401 819q-75 69-101 176-23 100 18 189.5t136 158.5zM961 784q-72 0-158 29-94 31-127 128t2 235q26 106 164 145 62 16 112 16 114 0 197-71 60-51 72-107 44-191-88-311-70-64-174-64zm-619 379q24 5 51 21t31 43q3 37-14 57-15 21-58 21zm1305-256q57 15 94 50.5t47 86.5q13 70-27.5 123.5T1628 1221q-7 0-18.5-1t-40.5-9-51-22.5-40.5-45.5-19.5-74q-1-79 64.5-128.5T1647 907zm-705 21q36 0 72 20 3 1 11.5 8.5t20.5 24 20.5 36 7.5 47-15 54.5q-37 64-115 64-44 0-70-23-67-67-43-143 8-31 41-59.5t70-28.5zM743 111l-20 538 174 10-6-548H743zm236 436l6 160 569-21-12-168-194 10-37-446-154 6 12 449z"/><glyph glyph-name="Tic_Toc" horiz-adv-x="2062" d="M813 1362l-217-4 18-512-184-2v512l-209-4-6 151 598 21v-162zm252 31l6-564-194-16 14 584zm551-566q-56-18-121-18-17 0-25 2-107 9-188 78-85 76-111 184-28 102 12 199.5t142 175.5q79 61 186 61 4 0 11.5-1t11.5-1q99-9 188-69l13-8-115-136-10 4q-37 19-70 21h-29q-43 0-88-21-88-43-86-141 1-69 50.5-117t109.5-53h10q23 0 33 4 50 14 88 49l8 9 127-136-8-8q-62-56-139-78zM809 594l-215-19L633-4 428-14l-22 571-254-22-9 198 660 29zm274-8q79-26 125-93t54-163q8-99-56-181T1018 49q-106-14-199 64-132 108-82 286 17 68 65.5 119.5T918 590q75 23 165-4zm617-576q-46-3-90 6-149 25-232 144-62 88-65 215 0 115 54.5 195.5T1542 702q82 37 191 19 51-8 112-41l-61-160q-1 0-18 3t-31.5 5.5-38.5 3-44-1.5-44.5-10-43-21.5T1530 462t-25-54q-18-69 21-132 46-68 114-81h25q100 3 154 57l100-143q-37-35-97.5-65T1700 10zM920 236q24-23 53-30t62 7.5 57 54.5l3 6 7 16.5 7.5 24.5 3 28.5-4 31-16.5 30-31 27.5q-37 20-73.5 16t-65-25-35.5-48q-25-85 33-139z"/><glyph glyph-name="Mmmm" horiz-adv-x="2865" d="M2671 1116l51-387-121-10-27 213-88-154-51 2-76 191-43-240-121 25 52 381 141 10 86-203 88 182zm-758 51l143 17 107-520-131-23-56 315-61-120-96-11-80 148-23-371-162 8 37 600 154 9 119-213zm-619 9l193-5 4-481-154 4 4 279-96-180-82-2-98 161-2-313-133 10-8 498 149 14 125-192zm-729 86l217 32 101-780-209-20-45 456-78-241-127-9-113 160-12-381-156-12 31 651 172 25 109-174z"/><glyph glyph-name="Kangaroo" horiz-adv-x="1669" d="M1141 1530l385-41-105-993L1202 2 240 207l-97 452 547 117-121 567 379 80 121-567zM764 545q49-15 74 8 27 27 18 70-4 19-39 36-15 5-20 5-55 0-64-35-8-31 .5-54t30.5-30zm262-33q27-14 53.5-12t36.5 22q24 43 6 72-18 35-65 35-23 0-41-27-8-11-12-29-5-48 22-61z"/><glyph glyph-name="Fresh" horiz-adv-x="2691" d="M553 1202l22-155-253-25 8-143 245 14V729l-241-14 10-260-180-11-21 713zm559-575l-10 514q383 30 391 30v-151l-246-12v-64l219 10 2-120-217-9 2-69 226-6-13-138zm-463 499q7 1 19 1.5t48-1 69.5-6.5 76-19.5T937 1064t61-60.5 38-88.5q10-42 2-79t-20.5-63.5-31-46.5-29-29-13.5-11l158-199-139-98-179 250q-14-218-14-236l-154 11zm142-331l10 2.5 21.5 7.5 27.5 13 22.5 20 12.5 28q6 42-15 64.5T801 952zm1687 391l70-647-187-21-10 266-123-4V502l-178 16 23 653h157V971h117l-6 198zm-647-271q61-52 80-71 60-60 80-117 17-46 9.5-93.5T1964 549q-30-37-79-58.5T1778 469q-25 0-37 2-100 13-182 86l-11 8 115 131 8-8q48-37 78-47 6-2 23-2 16 0 24 4 16 10 16 25 2 19-24 53-7 6-31.5 28t-40.5 35q-7 6-27.5 24t-31.5 28q-92 87-105 170-7 37 7 92 17 57 65 92 48 31 117 37h26q105 0 187-51l12-9-92-147-12 8q-45 27-78 29-24 0-37-13-9-9-10-22.5t6-24.5q5-6 12-12.5t13-12 8-7.5q5-4 24-22.5t31-27.5z"/><glyph glyph-name="Hot" horiz-adv-x="2017" d="M530 967l7 299 182-2-14-772-183 4 6 303-188-8 18-269-168-12-47 672 170 12 17-238zm248-224q-20 83 14.5 158T907 1034q74 58 177.5 43T1282 971q28-27 39.5-63.5T1332 842t-7-72q-28-179-199-231-69-21-139.5-6.5T862 594q-64 61-84 149zm475 498l621-20-10-170-228 12-28-561-185 10 35 561-207 10zm-186-559q88 25 104 104 12 51-18 91.5T1053 918q-5 0-13.5-.5t-30.5-7-39-17-30.5-33.5-13.5-55q-1-59 48-97t93-26z"/><glyph glyph-name="Yeah" horiz-adv-x="2580" d="M1595 1149l189-16 135-695-172-28-39 211h-149l-56-166-178 57zm-989 0l160-94-191-301 13-326-187 2-6 315-252 224 125 141 197-182zm996-371l92-2-35 174zm-328-6l-305 14-6-118 317-13-10-182-496 31 41 706h535l-17-174-352 11-4-91 307-12zm1069 320l94-570-172-16-27 229-102-8V483l-168 15 21 581h149V905l86 2-14 172z"/></font>
</defs>
</svg>
