<svg width="150" height="45" viewBox="0 0 150 45" xmlns="http://www.w3.org/2000/svg"><g fill="none"><path d="M143.69 44.146H5.22c-2.878 0-5.22-2.349-5.22-5.224V5.216A5.224 5.224 0 0 1 5.22 0h138.47c2.877 0 5.302 2.34 5.302 5.216v33.706c0 2.875-2.425 5.224-5.301 5.224z" fill="#A6A6A6"/><path d="M150.004 39.46a4.287 4.287 0 0 1-4.292 4.287H5.28A4.292 4.292 0 0 1 .982 39.46V5.275A4.298 4.298 0 0 1 5.28.982h140.432a4.291 4.291 0 0 1 4.291 4.293l.002 34.185z" fill="#000"/><path d="M33.256 21.834c-.032-3.557 2.913-5.287 3.047-5.368-1.667-2.431-4.252-2.763-5.16-2.79-2.171-.228-4.277 1.3-5.383 1.3-1.128 0-2.83-1.278-4.666-1.24-2.362.036-4.571 1.404-5.783 3.527-2.501 4.33-.636 10.692 1.76 14.192 1.199 1.714 2.6 3.628 4.432 3.56 1.794-.074 2.464-1.143 4.628-1.143 2.144 0 2.773 1.143 4.643 1.1 1.925-.03 3.137-1.721 4.293-3.45 1.385-1.965 1.941-3.9 1.964-4-.045-.015-3.737-1.424-3.775-5.688zm-3.532-10.46c.965-1.206 1.625-2.847 1.442-4.513-1.396.062-3.142.966-4.148 2.146-.89 1.04-1.684 2.743-1.479 4.346 1.569.117 3.179-.791 4.185-1.979zM59.21 34.77h-2.507l-1.373-4.315h-4.772l-1.308 4.314h-2.44l4.728-14.687h2.92l4.751 14.687zm-4.294-6.125l-1.241-3.835c-.132-.392-.378-1.315-.741-2.767h-.044c-.145.625-.378 1.547-.698 2.767l-1.22 3.835h3.944zm16.452.699c0 1.8-.487 3.224-1.46 4.27-.872.93-1.955 1.395-3.247 1.395-1.395 0-2.397-.501-3.007-1.504h-.044v5.58h-2.353v-11.42c0-1.132-.03-2.294-.088-3.486h2.07l.131 1.678h.044c.785-1.265 1.976-1.896 3.574-1.896 1.25 0 2.292.494 3.126 1.481.837.99 1.254 2.29 1.254 3.902zm-2.397.086c0-1.031-.232-1.88-.697-2.55-.51-.697-1.192-1.046-2.049-1.046a2.45 2.45 0 0 0-1.58.577 2.68 2.68 0 0 0-.925 1.516 3.08 3.08 0 0 0-.11.717v1.766c0 .77.237 1.42.71 1.951.472.53 1.085.796 1.84.796.886 0 1.576-.342 2.07-1.024.494-.684.741-1.584.741-2.703zm14.578-.086c0 1.8-.487 3.224-1.461 4.27-.871.93-1.954 1.395-3.246 1.395-1.395 0-2.397-.501-3.006-1.504h-.043v5.58H73.44v-11.42c0-1.132-.03-2.294-.088-3.486h2.07l.131 1.678h.044c.784-1.265 1.975-1.896 3.574-1.896 1.248 0 2.291.494 3.128 1.481.832.99 1.25 2.29 1.25 3.902zm-2.397.086c0-1.031-.233-1.88-.699-2.55-.508-.697-1.19-1.046-2.047-1.046a2.45 2.45 0 0 0-1.58.577c-.473.387-.78.89-.925 1.516-.072.29-.11.53-.11.717v1.766c0 .77.237 1.42.707 1.951.472.53 1.086.796 1.843.796.886 0 1.576-.342 2.07-1.024.494-.684.74-1.584.74-2.703zm16.016 1.22c0 1.25-.434 2.266-1.305 3.05-.956.858-2.288 1.287-4 1.287-1.58 0-2.848-.305-3.807-.915l.546-1.962a6.45 6.45 0 0 0 3.4.939c.887 0 1.577-.201 2.072-.6.494-.4.74-.937.74-1.606 0-.595-.203-1.098-.61-1.505-.405-.407-1.082-.786-2.027-1.136-2.571-.959-3.856-2.364-3.856-4.211 0-1.207.45-2.197 1.352-2.968.899-.771 2.097-1.156 3.596-1.156 1.336 0 2.447.233 3.333.697l-.588 1.918c-.828-.45-1.764-.675-2.811-.675-.828 0-1.475.204-1.938.61a1.744 1.744 0 0 0-.589 1.33c0 .58.224 1.06.675 1.438.391.349 1.103.726 2.136 1.134 1.264.508 2.192 1.103 2.79 1.785.593.68.891 1.531.891 2.546zm7.78-4.706h-2.594v5.142c0 1.308.457 1.961 1.373 1.961.42 0 .77-.036 1.045-.109l.065 1.787c-.463.173-1.074.26-1.83.26-.929 0-1.655-.283-2.18-.85-.521-.567-.784-1.518-.784-2.854v-5.339h-1.545v-1.766h1.545v-1.939l2.311-.697v2.636h2.594v1.768zm11.702 3.443c0 1.628-.466 2.964-1.396 4.01-.974 1.075-2.268 1.612-3.88 1.612-1.554 0-2.791-.516-3.714-1.547-.922-1.03-1.384-2.332-1.384-3.9 0-1.641.475-2.985 1.427-4.03.95-1.047 2.233-1.57 3.845-1.57 1.554 0 2.805.516 3.748 1.548.903 1 1.353 2.293 1.353 3.877zm-2.443.076c0-.977-.208-1.815-.631-2.513-.493-.846-1.199-1.267-2.113-1.267-.945 0-1.664.423-2.157 1.267-.423.7-.631 1.55-.631 2.557 0 .977.208 1.814.63 2.512.51.845 1.22 1.267 2.137 1.267.899 0 1.604-.43 2.113-1.29.435-.711.652-1.558.652-2.533zm10.091-3.215a4.086 4.086 0 0 0-.742-.065c-.828 0-1.468.312-1.918.938-.392.552-.588 1.25-.588 2.091v5.557h-2.352l.022-7.255c0-1.22-.03-2.332-.088-3.334h2.05l.085 2.026h.065c.249-.696.64-1.257 1.177-1.678a2.845 2.845 0 0 1 1.7-.567c.218 0 .414.016.589.043v2.244zm10.522 2.725c0 .421-.027.777-.085 1.067h-7.059c.028 1.046.369 1.846 1.024 2.398.595.494 1.364.74 2.309.74 1.045 0 1.999-.166 2.856-.5l.369 1.633c-1.002.437-2.185.655-3.55.655-1.643 0-2.932-.484-3.87-1.45-.936-.965-1.405-2.262-1.405-3.889 0-1.597.436-2.927 1.309-3.987.914-1.133 2.149-1.699 3.703-1.699 1.526 0 2.682.566 3.466 1.699.622.9.934 2.012.934 3.333zm-2.243-.61c.016-.698-.138-1.3-.457-1.81-.407-.654-1.033-.98-1.875-.98-.769 0-1.395.318-1.873.959-.391.508-.624 1.119-.696 1.83h4.901zM52.34 12.802c0 .615-.214 1.114-.641 1.499-.47.42-1.126.631-1.966.631-.775 0-1.4-.15-1.87-.45l.268-.963a3.17 3.17 0 0 0 1.672.46c.436 0 .774-.098 1.018-.296a.96.96 0 0 0 .363-.788c0-.294-.1-.54-.3-.74-.2-.2-.53-.386-.994-.557-1.264-.471-1.895-1.16-1.895-2.07 0-.593.22-1.079.663-1.457.443-.379 1.032-.568 1.767-.568.657 0 1.203.114 1.638.343l-.289.942a2.84 2.84 0 0 0-1.382-.332c-.406 0-.724.1-.952.3a.86.86 0 0 0-.29.653c0 .285.112.52.333.706.193.17.542.357 1.05.556.62.25 1.077.543 1.37.878.29.336.436.753.436 1.253zm5.48-3.04l-.224.877a2.275 2.275 0 0 0-1.007-.214c-.506 0-.908.17-1.205.509-.296.339-.444.769-.444 1.29 0 .55.156.984.466 1.306.31.32.705.482 1.183.482.357 0 .707-.07 1.049-.214l.16.867c-.378.179-.854.268-1.434.268-.792 0-1.424-.24-1.895-.723-.471-.482-.706-1.125-.706-1.932 0-.806.253-1.469.76-1.985.506-.517 1.187-.776 2.044-.776.486-.001.904.08 1.253.245zm5.48 5.063h-1.038l-.085-.6h-.032c-.356.479-.863.718-1.52.718-.492 0-.89-.158-1.188-.47-.272-.286-.406-.64-.406-1.06 0-.636.264-1.12.797-1.456.531-.336 1.28-.5 2.243-.492v-.097c0-.686-.36-1.028-1.08-1.028-.513 0-.965.13-1.356.385l-.235-.76c.484-.298 1.08-.448 1.785-.448 1.36 0 2.042.717 2.042 2.152v1.916c-.002.52.024.933.074 1.24zm-1.2-1.788v-.802c-1.276-.022-1.914.328-1.914 1.048 0 .272.074.475.223.61a.806.806 0 0 0 .564.204c.255 0 .491-.08.708-.24a.98.98 0 0 0 .42-.82zM68 10.64a1.92 1.92 0 0 0-.363-.032c-.406 0-.72.154-.943.46-.192.272-.289.614-.289 1.028v2.73h-1.157l.011-3.564c0-.6-.014-1.146-.041-1.638h1.005l.043.995h.032c.12-.343.313-.618.577-.824.257-.186.535-.278.836-.278.107 0 .204.006.289.02v1.103zm2.762-2.57a.665.665 0 0 1-.203.503.73.73 0 0 1-.525.193.675.675 0 0 1-.685-.695c0-.2.068-.364.204-.492a.705.705 0 0 1 .503-.193c.2 0 .367.065.503.193a.647.647 0 0 1 .203.49zm-.129 6.755h-1.157V9.623h1.157v5.202zm5.771-5.063l-.224.877a2.28 2.28 0 0 0-1.008-.214c-.506 0-.908.17-1.205.509-.296.339-.443.769-.443 1.29 0 .55.155.984.465 1.306.31.32.706.482 1.183.482.357 0 .707-.07 1.049-.214l.161.867c-.379.179-.856.268-1.435.268-.792 0-1.423-.24-1.895-.723-.471-.482-.706-1.125-.706-1.932 0-.806.253-1.469.76-1.985.506-.517 1.187-.776 2.044-.776.486-.001.904.08 1.254.245zm5.479 5.063h-1.039l-.084-.6h-.032c-.357.479-.864.718-1.52.718-.493 0-.89-.158-1.19-.47a1.485 1.485 0 0 1-.404-1.06c0-.636.265-1.12.798-1.456.53-.336 1.278-.5 2.241-.492v-.097c0-.686-.36-1.028-1.078-1.028-.513 0-.966.13-1.358.385l-.235-.76c.485-.298 1.08-.448 1.785-.448 1.362 0 2.042.717 2.042 2.152v1.916c-.002.52.024.933.074 1.24zm-1.199-1.788v-.802c-1.278-.022-1.916.328-1.916 1.048 0 .272.075.475.224.61a.804.804 0 0 0 .563.204c.256 0 .491-.08.71-.24a.991.991 0 0 0 .419-.82zm9.453.293c0 .484-.177.873-.534 1.165-.356.293-.85.438-1.477.438-.593 0-1.095-.118-1.509-.353l.246-.856a2.41 2.41 0 0 0 1.274.364c.593 0 .888-.217.888-.653a.645.645 0 0 0-.192-.477c-.129-.125-.357-.248-.685-.369-.93-.343-1.393-.842-1.393-1.498 0-.45.172-.825.513-1.125.344-.3.798-.45 1.36-.45.515 0 .952.106 1.317.315l-.246.83c-.337-.2-.69-.299-1.061-.299-.242 0-.432.057-.567.171a.546.546 0 0 0-.203.438c0 .178.07.324.213.437.12.107.355.224.707.352.9.343 1.349.866 1.349 1.57zm6.221 1.495H95.34l-.065-.792h-.022c-.364.607-.914.91-1.649.91-.513 0-.922-.16-1.23-.482-.364-.393-.545-.986-.545-1.777V9.623h1.155v2.87c0 .999.343 1.498 1.029 1.498.515 0 .87-.25 1.071-.75a1.21 1.21 0 0 0 .075-.439v-3.18h1.156v3.704c0 .493.014.993.043 1.5z" fill="#FFF"/></g></svg>