<svg width="150" height="45" viewBox="0 0 150 45" xmlns="http://www.w3.org/2000/svg"><title>apple-store-en</title><g fill="none"><path d="M144.663 44.444H5.254C2.358 44.444 0 42.08 0 39.186V5.25A5.26 5.26 0 0 1 5.254 0h139.41C147.558 0 150 2.356 150 5.251v33.935c0 2.894-2.441 5.258-5.337 5.258z" fill="#A6A6A6"/><path d="M148.924 39.187a4.255 4.255 0 0 1-4.26 4.255H5.254A4.26 4.26 0 0 1 .99 39.187V5.25A4.266 4.266 0 0 1 5.254.989h139.41a4.26 4.26 0 0 1 4.26 4.261v33.937z" fill="#000"/><path d="M33.476 21.982c-.033-3.58 2.932-5.323 3.067-5.404-1.679-2.448-4.28-2.782-5.195-2.81-2.186-.23-4.306 1.309-5.42 1.309-1.135 0-2.85-1.286-4.697-1.248-2.378.037-4.602 1.413-5.822 3.551-2.518 4.359-.64 10.764 1.772 14.288 1.207 1.725 2.617 3.652 4.462 3.584 1.806-.074 2.48-1.15 4.66-1.15 2.158 0 2.791 1.15 4.674 1.107 1.937-.031 3.157-1.733 4.322-3.475 1.394-1.977 1.954-3.925 1.977-4.025-.046-.016-3.764-1.435-3.8-5.727zM29.92 11.451c.971-1.214 1.636-2.867 1.451-4.543-1.405.062-3.163.972-4.175 2.16-.896 1.046-1.696 2.762-1.49 4.375 1.58.118 3.2-.796 4.214-1.992zm29.686 23.553h-2.524L55.7 30.661h-4.804l-1.317 4.343h-2.457l4.76-14.786h2.94l4.784 14.786zm-4.323-6.165l-1.25-3.861c-.132-.395-.38-1.324-.745-2.786h-.045c-.145.63-.38 1.558-.702 2.786l-1.228 3.86h3.97zm16.564.703c0 1.814-.49 3.247-1.47 4.3-.878.936-1.968 1.404-3.27 1.404-1.404 0-2.413-.505-3.027-1.514h-.044v5.617h-2.37V27.852c0-1.14-.03-2.31-.087-3.51h2.083l.132 1.69h.045c.79-1.273 1.989-1.909 3.598-1.909 1.257 0 2.307.497 3.147 1.491.843.996 1.263 2.305 1.263 3.928zm-2.414.087c0-1.038-.233-1.893-.702-2.567-.512-.702-1.2-1.053-2.062-1.053-.585 0-1.116.195-1.59.581a2.695 2.695 0 0 0-.932 1.526c-.074.293-.11.533-.11.722v1.778c0 .775.237 1.43.713 1.964s1.093.801 1.853.801c.893 0 1.587-.344 2.084-1.031.497-.688.746-1.594.746-2.721zm14.677-.087c0 1.814-.49 3.247-1.471 4.3-.877.936-1.967 1.404-3.268 1.404-1.404 0-2.413-.505-3.027-1.514H76.3v5.617h-2.369V27.852c0-1.14-.03-2.31-.088-3.51h2.084l.132 1.69h.044c.79-1.273 1.988-1.909 3.598-1.909 1.257 0 2.307.497 3.149 1.491.839.996 1.26 2.305 1.26 3.928zm-2.413.087c0-1.038-.235-1.893-.704-2.567-.512-.702-1.197-1.053-2.06-1.053-.586 0-1.116.195-1.592.581a2.694 2.694 0 0 0-.931 1.526 3.17 3.17 0 0 0-.11.722v1.778c0 .775.238 1.43.711 1.964.476.533 1.093.801 1.856.801.892 0 1.586-.344 2.083-1.031.498-.688.747-1.594.747-2.721zm16.124 1.229c0 1.258-.437 2.28-1.313 3.07-.964.864-2.305 1.295-4.028 1.295-1.591 0-2.867-.306-3.832-.92l.549-1.975a6.494 6.494 0 0 0 3.424.944c.892 0 1.587-.202 2.086-.604.496-.402.744-.942.744-1.616 0-.6-.204-1.105-.614-1.515-.408-.41-1.09-.791-2.04-1.144-2.59-.965-3.883-2.38-3.883-4.24 0-1.215.454-2.212 1.362-2.987.904-.777 2.11-1.165 3.62-1.165 1.345 0 2.463.235 3.355.702l-.592 1.931c-.833-.453-1.776-.68-2.83-.68-.833 0-1.485.206-1.951.615a1.756 1.756 0 0 0-.592 1.339c0 .584.225 1.068.678 1.448.395.35 1.112.73 2.152 1.14 1.272.513 2.206 1.112 2.807 1.798.6.685.898 1.542.898 2.564zm7.832-4.738h-2.61v5.177c0 1.316.46 1.974 1.381 1.974.424 0 .775-.037 1.053-.11l.065 1.799c-.466.174-1.08.262-1.842.262-.936 0-1.667-.285-2.194-.855-.526-.571-.79-1.53-.79-2.875v-5.374H99.16V24.34h1.556v-1.952l2.326-.702v2.654h2.611v1.78zm11.781 3.466c0 1.638-.468 2.984-1.404 4.036-.981 1.084-2.283 1.624-3.907 1.624-1.564 0-2.81-.52-3.739-1.557-.928-1.038-1.393-2.348-1.393-3.927 0-1.652.478-3.005 1.437-4.058.956-1.053 2.248-1.58 3.87-1.58 1.565 0 2.824.52 3.774 1.558.91 1.008 1.362 2.31 1.362 3.904zm-2.457.076c0-.983-.21-1.826-.636-2.53-.497-.85-1.207-1.275-2.127-1.275-.952 0-1.675.425-2.172 1.275-.425.705-.635 1.561-.635 2.575 0 .983.21 1.826.635 2.529.512.85 1.228 1.275 2.151 1.275.905 0 1.615-.433 2.127-1.298.437-.716.657-1.569.657-2.55zm10.157-3.236a4.113 4.113 0 0 0-.746-.066c-.834 0-1.478.314-1.931.944-.395.556-.593 1.258-.593 2.106v5.594h-2.367l.022-7.304c0-1.229-.03-2.348-.089-3.357h2.063l.087 2.04h.066c.25-.7.644-1.265 1.184-1.689a2.864 2.864 0 0 1 1.712-.57c.22 0 .417.015.592.043v2.259zm10.595 2.743c0 .424-.028.782-.087 1.074h-7.106c.027 1.054.37 1.86 1.03 2.415.6.496 1.374.745 2.325.745 1.052 0 2.012-.167 2.876-.504l.37 1.644c-1.008.44-2.2.66-3.574.66-1.653 0-2.95-.487-3.895-1.46-.942-.972-1.415-2.277-1.415-3.915 0-1.608.44-2.947 1.318-4.015.92-1.14 2.163-1.71 3.728-1.71 1.537 0 2.7.57 3.49 1.71.625.906.94 2.026.94 3.356zm-2.259-.615c.016-.702-.139-1.308-.46-1.82-.41-.66-1.04-.988-1.888-.988-.774 0-1.404.32-1.885.965-.395.512-.63 1.127-.701 1.842h4.934v.001zM54.5 11.121c0 1.308-.392 2.292-1.176 2.953-.725.61-1.756.916-3.092.916-.662 0-1.229-.029-1.703-.087V7.758a12.57 12.57 0 0 1 2.005-.151c1.273 0 2.232.276 2.878.83.725.625 1.088 1.52 1.088 2.684zm-1.228.032c0-.847-.224-1.497-.673-1.95-.449-.453-1.105-.68-1.968-.68-.367 0-.679.025-.938.076v5.432c.144.022.406.032.787.032.891 0 1.579-.247 2.063-.743.485-.496.73-1.218.73-2.167zm7.738 1.11c0 .806-.23 1.466-.69 1.984-.482.532-1.121.797-1.919.797-.769 0-1.381-.254-1.838-.765-.455-.51-.683-1.153-.683-1.929 0-.811.234-1.477.706-1.993.47-.517 1.104-.776 1.902-.776.769 0 1.386.255 1.854.765.445.495.668 1.135.668 1.917zm-1.208.038c0-.483-.104-.898-.312-1.243-.244-.418-.592-.627-1.044-.627-.468 0-.824.209-1.068.627-.21.345-.312.766-.312 1.264 0 .484.104.898.312 1.244.252.417.603.626 1.056.626.445 0 .794-.212 1.045-.638.215-.352.323-.77.323-1.253zm9.937-2.613L68.1 14.926h-1.067l-.679-2.275a17.023 17.023 0 0 1-.42-1.692h-.022a12.389 12.389 0 0 1-.42 1.692l-.722 2.275h-1.079L62.15 9.688h1.197l.592 2.49c.143.589.261 1.15.355 1.68h.022c.086-.437.23-.995.432-1.67l.743-2.5h.949l.712 2.448c.172.596.312 1.17.42 1.724h.032c.08-.539.198-1.113.356-1.724l.636-2.447h1.143v-.001zm6.037 5.238H74.61v-3c0-.925-.351-1.387-1.055-1.387a1.05 1.05 0 0 0-.842.381 1.352 1.352 0 0 0-.323.898v3.106h-1.164v-3.74c0-.46-.015-.958-.043-1.498h1.024l.054.818h.032c.136-.254.338-.464.604-.632a1.968 1.968 0 0 1 1.055-.294c.49 0 .896.158 1.22.474.401.388.603.967.603 1.736v3.138zm3.211 0h-1.164V7.284h1.164zm6.855-2.663c0 .806-.23 1.466-.69 1.984-.482.532-1.122.797-1.919.797-.77 0-1.382-.254-1.837-.765-.456-.51-.684-1.153-.684-1.929 0-.811.235-1.477.706-1.993.47-.517 1.104-.776 1.9-.776.77 0 1.388.255 1.856.765.445.495.668 1.135.668 1.917zm-1.209.038c0-.483-.104-.898-.312-1.243-.243-.418-.592-.627-1.043-.627-.47 0-.825.209-1.068.627-.209.345-.312.766-.312 1.264 0 .484.104.898.312 1.244.252.417.603.626 1.057.626.444 0 .792-.212 1.043-.638.217-.352.323-.77.323-1.253zm6.845 2.625h-1.046l-.086-.604h-.033c-.357.481-.867.722-1.53.722-.494 0-.894-.158-1.195-.474a1.488 1.488 0 0 1-.41-1.067c0-.64.266-1.127.803-1.465.536-.338 1.289-.504 2.259-.496v-.098c0-.69-.362-1.034-1.088-1.034-.516 0-.972.13-1.365.388l-.237-.765c.487-.3 1.088-.452 1.797-.452 1.369 0 2.055.722 2.055 2.167v1.929c0 .523.026.94.076 1.249zm-1.21-1.8v-.808c-1.284-.022-1.926.33-1.926 1.055 0 .274.074.478.224.615.15.136.34.204.568.204.256 0 .495-.08.713-.242a.992.992 0 0 0 .422-.824zm7.826 1.8h-1.033l-.054-.842h-.033c-.33.64-.892.96-1.682.96-.63 0-1.156-.247-1.573-.743-.417-.495-.625-1.139-.625-1.929 0-.848.226-1.534.68-2.059.438-.489.976-.733 1.616-.733.703 0 1.196.237 1.476.711h.022V7.284h1.165v6.23c0 .51.014.98.041 1.412zm-1.206-2.21v-.873a1.326 1.326 0 0 0-.453-1.072 1.145 1.145 0 0 0-.78-.285c-.434 0-.774.172-1.024.517-.248.346-.373.787-.373 1.326 0 .518.119.938.358 1.261.252.344.592.517 1.017.517.383 0 .688-.144.92-.431.225-.266.335-.586.335-.96zm11.165-.453c0 .806-.23 1.466-.69 1.984-.482.532-1.12.797-1.919.797-.767 0-1.38-.254-1.837-.765-.456-.51-.684-1.153-.684-1.929 0-.811.235-1.477.706-1.993.471-.517 1.104-.776 1.903-.776.768 0 1.387.255 1.854.765.444.495.667 1.135.667 1.917zm-1.206.038c0-.483-.105-.898-.313-1.243-.245-.418-.592-.627-1.045-.627-.467 0-.822.209-1.068.627-.209.345-.312.766-.312 1.264 0 .484.104.898.312 1.244.252.417.603.626 1.057.626.444 0 .794-.212 1.045-.638.215-.352.324-.77.324-1.253zm7.467 2.625h-1.163v-3c0-.925-.351-1.387-1.057-1.387a1.05 1.05 0 0 0-.84.381 1.347 1.347 0 0 0-.323.898v3.106h-1.165v-3.74c0-.46-.014-.958-.042-1.498h1.023l.054.818h.032a1.7 1.7 0 0 1 .604-.632 1.972 1.972 0 0 1 1.056-.294c.488 0 .895.158 1.218.474.403.388.603.967.603 1.736v3.138zm7.837-4.366h-1.282v2.544c0 .647.228.97.679.97.209 0 .382-.017.519-.054l.03.883c-.23.087-.533.13-.905.13-.46 0-.818-.14-1.076-.42-.26-.28-.39-.75-.39-1.412V10.56h-.765v-.872h.766v-.96l1.14-.345v1.304h1.283v.873h.001zm6.165 4.366h-1.166v-2.978c0-.94-.351-1.41-1.054-1.41-.54 0-.91.273-1.112.818a1.463 1.463 0 0 0-.054.418v3.15h-1.163v-7.64h1.163v3.157h.022c.367-.574.892-.861 1.574-.861.482 0 .88.158 1.197.474.395.395.593.982.593 1.757v3.115zm6.358-2.867c0 .209-.015.384-.043.528h-3.492c.015.517.182.912.505 1.185.296.245.677.367 1.144.367.516 0 .988-.082 1.412-.248l.182.809c-.496.216-1.08.323-1.758.323-.81 0-1.45-.239-1.912-.716-.464-.478-.694-1.12-.694-1.924 0-.79.214-1.447.646-1.972.452-.56 1.062-.84 1.832-.84.753 0 1.325.28 1.712.84.312.445.466.995.466 1.648zm-1.11-.301a1.568 1.568 0 0 0-.226-.895c-.202-.323-.51-.485-.927-.485-.38 0-.69.158-.927.474a1.763 1.763 0 0 0-.345.906h2.424z" fill="#FFF"/></g></svg>