<?xml version="1.0" encoding="UTF-8"?>
<svg width="150px" height="45px" viewBox="0 0 150 45" version="1.1" xmlns="http://www.w3.org/2000/svg" xmlns:xlink="http://www.w3.org/1999/xlink">
    <!-- Generator: Sketch 52.4 (67378) - http://www.bohemiancoding.com/sketch -->
    <title>apple-store-ar</title>
    <desc>Created with Sketch.</desc>
    <g id="App-Module" stroke="none" stroke-width="1" fill="none" fill-rule="evenodd">
        <g id="Arabic" transform="translate(0.000000, -49.000000)">
            <g id="apple-store-ar" transform="translate(0.000000, 49.000000)">
                <g id="Group">
                    <path d="M11.91835,0.00014625 C11.459975,0.00014625 11.0071,0.00014625 10.5499375,0.00239625 C10.16725,0.00464625 9.7876125,0.0111825 9.4011875,0.01668375 C8.56185049,0.0255762662 7.7244875,0.0920350191 6.896375,0.2154825 C6.06940515,0.341620624 5.26834072,0.579426617 4.520275,0.9208575 C3.77312426,1.26517693 3.09043127,1.71258472 2.4969625,2.24685 C1.90037812,2.77961287 1.40307898,3.39541468 1.0241875,4.07057625 C0.644250302,4.74439401 0.380800623,5.46645183 0.2429375,6.21181125 C0.103763676,6.95622927 0.0288729758,7.70923186 0.0189375,8.46406125 C0.0073375,8.80898625 0.0061125,9.15505875 0,9.50002875 L0,35.5035713 C0.0061125,35.8528838 0.0073375,36.1912837 0.0189375,36.5407088 C0.0288761227,37.2955007 0.103766824,38.0484657 0.2429375,38.7928462 C0.380420132,39.5386414 0.643885379,40.2611137 1.0241875,40.9351837 C1.40290675,41.6081621 1.90027585,42.2214709 2.4969625,42.7512712 C3.08818117,43.2879119 3.77131541,43.7356241 4.520275,44.0773087 C5.26833533,44.4196528 6.06931329,44.6588742 6.896375,44.7869587 C7.72464871,44.9094214 8.5619467,44.9759072 9.40125,44.9858587 C9.7876125,44.9935087 10.16725,44.9978962 10.55,44.9978962 C11.0070875,45.0001463 11.46,45.0001463 11.91835,45.0001463 L137.668463,45.0001463 C138.117713,45.0001463 138.574213,45.0001463 139.023463,44.9978962 C139.404337,44.9978962 139.794962,44.9935087 140.175838,44.9858587 C141.013554,44.9764352 141.849275,44.9099452 142.675838,44.7869587 C143.505568,44.6579742 144.309418,44.4188161 145.061087,44.0773087 C145.809371,43.7354253 146.491874,43.2877254 147.082587,42.7512712 C147.677734,42.2193954 148.176165,41.6065354 148.559587,40.9351837 C148.937034,40.2606227 149.197991,39.5382084 149.333462,38.7928462 C149.472853,38.0483633 149.550402,37.2955659 149.565462,36.5407087 C149.570337,36.1912837 149.570337,35.8528837 149.570337,35.5035712 C149.580087,35.0948587 149.580087,34.6883962 149.580087,34.2730462 L149.580087,10.7282925 C149.580087,10.3163063 149.580087,9.90761625 149.570337,9.50002875 C149.570337,9.15505875 149.570337,8.80898625 149.565462,8.46401625 C149.550407,7.70912153 149.472859,6.95628645 149.333462,6.21176625 C149.197612,5.46683883 148.93667,4.7448387 148.559587,4.07053125 C147.787996,2.71724004 146.564469,1.61567235 145.061087,0.92075625 C144.309415,0.580160487 143.505479,0.342417692 142.675837,0.21538125 C141.849419,0.0913867481 141.01361,0.0249048517 140.175837,0.01652625 C139.794962,0.01103625 139.404337,0.00444375 139.023462,0.00225 C138.574212,2.24307877e-15 138.117712,2.24307877e-15 137.668462,2.24307877e-15" id="Path" fill="#A6A6A6"></path>
                    <path d="M139.017337,0.98452125 L140.158713,0.99880875 C140.937054,1.00713285 141.71359,1.06827751 142.481712,1.1817225 C143.208047,1.2927432 143.911971,1.50046373 144.570337,1.79805375 C145.86761,2.39975617 146.923176,3.35170502 147.589088,4.520475 C147.914748,5.10492061 148.140299,5.73034111 148.258088,6.37551 C148.387824,7.07751159 148.460433,7.78710189 148.475338,8.49862125 C148.478963,8.81722125 148.478963,9.15944625 148.478963,9.50002875 C148.488838,9.92190375 148.488838,10.32345 148.488838,10.7282925 L148.488838,34.2730463 C148.488838,34.6817588 148.488838,35.0805712 148.478963,35.4826462 C148.478963,35.8484962 148.478963,36.1836337 148.474087,36.5285587 C148.459504,37.2273812 148.388104,37.9243057 148.260462,38.6137462 C148.143825,39.26744 147.916163,39.9010985 147.585462,40.4924962 C147.25599,41.0689693 146.82756,41.5950699 146.315962,42.0514087 C145.805314,42.5169162 145.214661,42.9053315 144.566712,43.2017212 C143.91017,43.5009641 143.207282,43.7094791 142.481712,43.8202462 C141.709062,43.9338257 140.928044,43.9951597 140.145212,44.0037337 C139.779087,44.0113837 139.395712,44.0157712 139.023462,44.0157712 L137.668462,44.0180212 L10.5560375,44.0157712 C10.1751875,44.0157712 9.8035375,44.0113837 9.425675,44.0037337 C8.64290221,43.9945547 7.86195894,43.9332246 7.08925,43.8202462 C6.36873797,43.7085651 5.67075545,43.5008185 5.018325,43.2038587 C4.37187713,42.9093592 3.78226471,42.5232032 3.272075,42.0601837 C2.75450007,41.6026187 2.32359553,41.0719209 1.9964375,40.4891212 C1.66567408,39.902534 1.4367661,39.2737833 1.3176875,38.6247712 C1.189093,37.9274005 1.11951802,37.2222486 1.1095625,36.5153962 C1.1016375,36.2781338 1.09125,35.4881587 1.09125,35.4881587 L1.09125,9.50002875 C1.09125,9.50002875 1.1023125,8.7221925 1.109625,8.49367125 C1.11915733,7.78793856 1.18832773,7.08388099 1.3165375,6.3875925 C1.4358359,5.73680259 1.66492109,5.10623873 1.9958625,4.51773 C2.32181279,3.93531315 2.75032525,3.40419983 3.2647875,2.94498 C3.77867058,2.48143407 4.37016881,2.09330875 5.0177125,1.7947575 C5.66864333,1.49875155 6.36530681,1.29247036 7.0843625,1.182825 C7.85960915,1.06871178 8.64326354,1.00701672 9.42875,0.9982575 L10.55665,0.98452125" id="Path" fill="#000000"></path>
                </g>
                <g id="_Group_" transform="translate(115.000000, 9.000000)" fill="#FFFFFF">
                    <g id="_Group_2">
                        <path d="M19.07375,13.8384113 C19.1010712,11.9298815 20.2128037,10.1669806 22.01945,9.16734375 C20.8745408,7.69572311 19.0256401,6.7961344 17.0305,6.73995375 C14.93145,6.54166125 12.8965125,7.8703875 11.826875,7.8703875 C10.7365375,7.8703875 9.0896625,6.75964125 7.31625,6.79248 C4.98290231,6.86032919 2.86032332,8.02536402 1.7251,9.86133375 C-0.6924,13.6283063 1.1108375,19.1644875 3.4266,22.2094237 C4.585225,23.7004425 5.939325,25.3659488 7.7111375,25.3068862 C9.4449625,25.242165 10.0925125,24.3118462 12.1853875,24.3118462 C14.2588375,24.3118462 14.866375,25.3068862 16.6741375,25.2693337 C18.5346125,25.2421537 19.7068,23.7716887 20.824775,22.2665512 C21.6572471,21.204147 22.2978317,20.0299575 22.7228,18.7874775 C20.5131207,17.9463502 19.0763291,15.9976849 19.07375,13.8384113 Z" id="_Path_"></path>
                        <path d="M15.6592375,4.7373975 C16.6736457,3.64141339 17.1734062,2.23271151 17.0523875,0.81045 C15.5025973,0.956948048 14.0710253,1.62357713 13.0429125,2.67751125 C12.0276996,3.71735954 11.5133947,5.07775818 11.613275,6.459075 C13.183846,6.47362886 14.6750701,5.83906862 15.6592375,4.7373975 Z" id="_Path_2"></path>
                    </g>
                </g>
                <g id="Group" transform="translate(11.250000, 19.125000)" fill="#FFFFFF">
                    <path d="M10.247625,11.4072525 L4.330875,11.4072525 L2.91,15.1832475 L0.403875,15.1832475 L6.008125,1.2129975 L8.611875,1.2129975 L14.216125,15.1832475 L11.6672875,15.1832475 L10.247625,11.4072525 Z M4.943675,9.66481875 L9.633675,9.66481875 L7.3216625,3.53664 L7.2569625,3.53664 L4.943675,9.66481875 Z" id="Shape" fill-rule="nonzero"></path>
                    <path d="M26.3194,10.0910925 C26.3194,13.2562575 24.437075,15.2898187 21.5965,15.2898187 C20.1282316,15.3589439 18.745203,14.6668058 18.0357125,13.5078187 L17.9819625,13.5078187 L17.9819625,18.5527462 L15.659,18.5527462 L15.659,4.99782375 L17.9075,4.99782375 L17.9075,6.69191625 L17.950225,6.69191625 C18.6912408,5.54019585 20.075766,4.84835971 21.55375,4.89126375 C24.4260875,4.89126375 26.3194,6.93471375 26.3194,10.0910925 Z M23.9317,10.0910925 C23.9317,8.0289675 22.7476125,6.67324125 20.940975,6.67324125 C19.166075,6.67324125 17.972225,8.05752 17.972225,10.0910925 C17.972225,12.14334 19.166075,13.51773 20.940975,13.51773 C22.747625,13.51773 23.9317125,12.1719037 23.9317125,10.0910925 L23.9317,10.0910925 Z" id="Shape" fill-rule="nonzero"></path>
                    <path d="M38.7754625,10.0910925 C38.7754625,13.2562575 36.8931375,15.2898187 34.0525625,15.2898187 C32.5842941,15.3589439 31.2012655,14.6668058 30.491775,13.5078187 L30.438025,13.5078187 L30.438025,18.5527462 L28.115,18.5527462 L28.115,4.99782375 L30.3635375,4.99782375 L30.3635375,6.69191625 L30.40625,6.69191625 C31.1472604,5.54019516 32.5317803,4.84835494 34.0097625,4.8912525 C36.88215,4.89126375 38.7754625,6.93471375 38.7754625,10.0910925 Z M36.3877625,10.0910925 C36.3877625,8.0289675 35.203675,6.67324125 33.3970375,6.67324125 C31.6221375,6.67324125 30.4282875,8.05752 30.4282875,10.0910925 C30.4282875,12.14334 31.6221375,13.51773 33.3970375,13.51773 C35.203675,13.51773 36.3877625,12.1719037 36.3877625,10.0910925 Z" id="Shape" fill-rule="nonzero"></path>
                    <path d="M47.007875,11.2907925 C47.18,12.6761737 48.675375,13.5857925 50.7188125,13.5857925 C52.676825,13.5857925 54.0855125,12.6761287 54.0855125,11.4269737 C54.0855125,10.34262 53.2359,9.69334875 51.2241875,9.24838875 L49.2125,8.81227125 C46.3621625,8.19264375 45.0389125,6.9929325 45.0389125,5.04615375 C45.0389125,2.63575125 47.3729,0.98011125 50.6871,0.98011125 C53.9671,0.98011125 56.2156625,2.63575125 56.29135,5.04615375 L53.94635,5.04615375 C53.805975,3.65198625 52.52545,2.81044125 50.6541125,2.81044125 C48.782775,2.81044125 47.5022625,3.66188625 47.5022625,4.90114125 C47.5022625,5.8888125 48.3201375,6.4699875 50.3208625,6.91489125 L52.0310625,7.29282375 C55.215875,7.97068125 56.539125,9.12207375 56.539125,11.1655012 C56.539125,13.7791462 54.2258875,15.4161112 50.5466875,15.4161112 C47.1043,15.4161112 44.7800875,13.8175987 44.6299375,11.2907362 L47.007875,11.2907925 Z" id="Path"></path>
                    <path d="M61.5525,2.58742125 L61.5525,4.99782375 L63.7046,4.99782375 L63.7046,6.65346375 L61.5525,6.65346375 L61.5525,12.268575 C61.5525,13.1408887 61.9834125,13.547385 62.92945,13.547385 C63.1849393,13.5433756 63.4400152,13.5272282 63.6936125,13.49901 L63.6936125,15.1447612 C63.268273,15.2162887 62.835951,15.248683 62.403325,15.2414437 C60.112075,15.2414437 59.2185125,14.4669037 59.2185125,12.4915612 L59.2185125,6.65346375 L57.5730625,6.65346375 L57.5730625,4.99782375 L59.218575,4.99782375 L59.218575,2.58742125 L61.5525,2.58742125 Z" id="Path"></path>
                    <path d="M64.9509875,10.0910925 C64.9509875,6.88638375 67.04815,4.87258875 70.318425,4.87258875 C73.599675,4.87258875 75.687075,6.88633875 75.687075,10.0910925 C75.687075,13.3045987 73.6106625,15.3095962 70.318425,15.3095962 C67.0274125,15.3095962 64.9509875,13.3045875 64.9509875,10.0910925 Z M73.320125,10.0910925 C73.320125,7.89273 72.2007375,6.595245 70.3184125,6.595245 C68.4360875,6.595245 67.317925,7.90261875 67.317925,10.0910925 C67.317925,12.2982412 68.4360875,13.5858487 70.3184125,13.5858487 C72.2007375,13.5858487 73.3201375,12.2982412 73.3201375,10.0910925 L73.320125,10.0910925 Z" id="Shape" fill-rule="nonzero"></path>
                    <path d="M77.6023625,4.99782375 L79.8179375,4.99782375 L79.8179375,6.73144875 L79.8716875,6.73144875 C80.1806576,5.61543571 81.3168532,4.84735675 82.59385,4.89124125 C82.8615551,4.89040001 83.1285215,4.91656584 83.38975,4.96924875 L83.38975,6.92481375 C83.0517888,6.83186939 82.6992371,6.78919585 82.346,6.79847625 C81.663059,6.77353724 81.0021222,7.01849275 80.5367344,7.46902386 C80.0713466,7.91955496 79.8480038,8.53064998 79.92535,9.14185125 L79.92535,15.1832362 L77.60235,15.1832362 L77.6023625,4.99782375 Z" id="Path"></path>
                    <path d="M94.1001625,12.19167 C93.7876625,14.0406638 91.786925,15.309585 89.2271125,15.309585 C85.934875,15.309585 83.891425,13.3243538 83.891425,10.1394225 C83.891425,6.9446025 85.9458625,4.8725775 89.1294625,4.8725775 C92.2605625,4.8725775 94.2295625,6.808365 94.2295625,9.896625 L94.2295625,10.612935 L86.2364,10.612935 L86.2364,10.7392725 C86.1617718,11.4975581 86.452702,12.2481556 87.0351874,12.8001374 C87.6176728,13.3521192 88.4355719,13.6522837 89.2808375,13.6242787 C90.4081403,13.7193408 91.4709663,13.1367461 91.8943625,12.1916587 L94.1001625,12.19167 Z M86.2473687,9.1517625 L91.9053375,9.1517625 C91.9454741,8.50312657 91.6976659,7.86670748 91.2164282,7.38251144 C90.7351906,6.8983154 90.0599444,6.60600562 89.3392375,6.5698875 C89.2693792,6.566385 89.1994542,6.5653125 89.1294625,6.56667 C88.3696304,6.56259107 87.6391188,6.83033723 87.0986318,7.31100731 C86.5581449,7.7916774 86.2519566,8.44589739 86.247425,9.12974625 C86.247375,9.13709625 86.2473583,9.144435 86.2473687,9.1517625 Z" id="Shape" fill-rule="nonzero"></path>
                </g>
                <g id="Group" transform="translate(62.500000, 9.000000)" fill="#FFFFFF">
                    <path d="M4.742375,9.09408375 L3.925725,9.09408375 C2.335725,9.09408375 0.6585125,8.8002 0.6585125,6.81991875 C0.765148357,5.92947159 0.991815157,5.05401641 1.3335125,4.21286625 L2.390025,4.46774625 L2.2374375,4.9088475 C2.01143388,5.52924473 1.86180802,6.1701016 1.79125,6.81989625 C1.79125,8.18220375 3.2396125,8.18220375 4.2198375,8.18220375 L4.905875,8.18220375 C5.3959875,8.18220375 6.0710375,8.00587125 6.0710375,7.44721875 L6.0710375,3.57564375 L7.2368125,3.57564375 L7.2368125,6.47713125 C7.48789721,6.57302268 7.75880659,6.61965093 8.0314875,6.61390875 L8.434325,6.61390875 L8.434325,7.51588875 L8.0314875,7.51588875 C7.7622537,7.51420958 7.49466412,7.47795657 7.2368125,7.40822625 L7.2368125,7.54547625 C7.2368875,8.054775 6.8011,9.09408375 4.742375,9.09408375 Z M4.0783125,2.51712 C3.69616283,2.498848 3.40043223,2.20885705 3.412898,1.8646201 C3.42536376,1.52038315 3.74144721,1.24833813 4.12410786,1.25249979 C4.50676851,1.25666145 4.81545542,1.53550121 4.818675,1.87990875 C4.8290755,2.22321822 4.52827979,2.50911517 4.146825,2.51848125 C4.123975,2.51904375 4.1011375,2.51858625 4.0783125,2.51710875 L4.0783125,2.51712 Z" id="Shape" fill-rule="nonzero"></path>
                    <path d="M9.7497,6.61392 C9.61551529,6.18349752 9.55298533,5.73754693 9.56415,5.29061625 C9.49461687,4.69269344 9.71377758,4.0966925 10.1659097,3.65414883 C10.6180419,3.21160515 11.2595897,2.96515073 11.9274375,2.9774475 C13.4740625,2.9774475 14.0734375,4.11453 14.0734375,5.4675 C14.0734375,6.46725375 13.6809375,7.8196725 12.1673125,7.8196725 C11.6681951,7.77630237 11.1775578,7.67418082 10.7079625,7.5159225 L8.2354625,7.5159225 L8.2354625,6.6139425 L9.7497,6.61392 Z M10.92585,6.653475 C11.2958634,6.79436652 11.6899394,6.87722635 12.0910125,6.89846625 C12.7660125,6.89846625 12.9516125,6.12392625 12.9516125,5.43783375 C12.9516125,4.78139625 12.7447,3.84042375 11.8621375,3.84042375 C11.0674625,3.84042375 10.71895,4.50675 10.71895,5.34994875 C10.7041481,5.79192727 10.7741403,6.23289312 10.92585,6.65346375 L10.92585,6.653475 Z" id="Shape" fill-rule="nonzero"></path>
                    <path d="M21.7595875,9.09408375 L20.9429375,9.09408375 C19.3523625,9.09408375 17.6751125,8.8002 17.6751125,6.81991875 C17.7820432,5.92951666 18.0087018,5.05409329 18.3501125,4.21286625 L19.4072375,4.46774625 L19.25465,4.9088475 C19.0284231,5.52921861 18.8785996,6.17007829 18.807875,6.81989625 C18.807875,8.18220375 20.25685,8.18220375 21.237075,8.18220375 L21.9231125,8.18220375 C22.4126125,8.18220375 23.0876625,8.00587125 23.0876625,7.44721875 L23.0876625,0.90927 L24.2534375,0.90927 L24.2534375,6.4771425 C24.5045406,6.5729796 24.7754368,6.61960559 25.0481125,6.61392 L25.45095,6.61392 L25.45095,7.5159 L25.0481125,7.5159 C24.7788853,7.51414457 24.5113077,7.47789318 24.2534375,7.4082375 L24.2534375,7.5454875 C24.2534875,8.054775 23.8177,9.09408375 21.7595875,9.09408375 Z" id="Path"></path>
                    <path d="M29.36945,3.02688 L29.36945,5.78115 C29.36945,6.9473475 28.595525,7.5159 27.059875,7.5159 L25.252025,7.5159 L25.252025,6.61392 L27.0171625,6.61392 C27.94245,6.61392 28.1927,6.25136625 28.1927,5.63394375 L28.1927,3.02688 L29.36945,3.02688 Z M26.4507,9.71150625 C26.0686285,9.6929562 25.773177,9.40284334 25.7858481,9.05866792 C25.7985192,8.7144925 26.1146607,8.44261781 26.4972585,8.44687078 C26.8798563,8.45112375 27.1884404,8.72994291 27.1916625,9.074295 C27.1969973,9.2499681 27.1194942,9.41947092 26.9783209,9.54088293 C26.8371476,9.66229494 26.6454863,9.72427926 26.4507375,9.71150625 L26.4507,9.71150625 Z M28.2805375,9.71150625 C27.8982973,9.69352448 27.6022688,9.40365311 27.6145226,9.05934383 C27.6267764,8.71503455 27.9428098,8.44280745 28.3255451,8.44687807 C28.7082805,8.4509487 29.0170777,8.72982125 29.0202875,9.074295 C29.0306738,9.41760861 28.7298596,9.7034971 28.3484,9.712845 C28.3257917,9.7134 28.3031917,9.71295375 28.2806,9.71150625 L28.2805375,9.71150625 Z" id="Shape" fill-rule="nonzero"></path>
                    <path d="M30.2386,8.98641 C30.4046704,9.00474843 30.5717759,9.01446951 30.7390875,9.015525 C31.6985625,9.015525 32.177075,8.5156425 32.177075,7.506 L32.177075,3.565755 L33.3538375,3.565755 L33.3538375,6.61390875 L34.4317125,6.61390875 L34.4317125,7.51588875 L33.34285,7.51588875 C33.3558233,8.18412641 33.0871597,8.83199796 32.5909,9.32918625 C32.0615663,9.72776855 31.3859142,9.93405638 30.696375,9.90761625 C30.4485517,9.90408862 30.2011575,9.88776429 29.9554125,9.85872375 L30.2386,8.98641 Z M32.710525,2.61489375 C32.3284535,2.5963437 32.033002,2.30623084 32.0456731,1.96205542 C32.0583442,1.61788 32.3744857,1.34600531 32.7570835,1.35025828 C33.1396813,1.35451125 33.4482654,1.63333041 33.4514875,1.9776825 C33.4569415,2.1533936 33.3794702,2.32296651 33.2382606,2.44440361 C33.097051,2.56584071 32.9053098,2.62778457 32.710525,2.61489375 Z" id="Shape" fill-rule="nonzero"></path>
                    <path d="M38.29645,7.51588875 C37.8268644,7.50277977 37.3676328,7.38843118 36.9573375,7.18245 C36.3935105,7.45409163 35.7532023,7.57007417 35.1165125,7.51588875 L34.2340125,7.51588875 L34.2340125,6.61390875 L35.1825,6.61390875 C36.0748375,6.61390875 36.2494,6.48646875 36.2494,5.89870125 L36.2494,3.02688 L37.415175,3.02688 L37.415175,6.4375875 C37.6900084,6.55651444 37.9915921,6.61685257 38.296525,6.61392 L39.026525,6.61392 L39.026525,7.5159 L38.29645,7.51588875 Z M36.7827875,2.0463525 C36.400716,2.02780245 36.1052645,1.73768959 36.1179356,1.39351417 C36.1306067,1.04933875 36.4467482,0.777464061 36.829346,0.781717032 C37.2119438,0.785970002 37.5205279,1.06478916 37.52375,1.40914125 C37.529204,1.58485235 37.4517327,1.75442526 37.3105231,1.87586236 C37.1693135,1.99729946 36.9775723,2.05924332 36.7827875,2.0463525 Z" id="Shape" fill-rule="nonzero"></path>
                    <path d="M41.8133,3.02688 L41.8133,5.78115 C41.8133,6.9473475 41.0406,7.5159 39.50495,7.5159 L38.8287,7.5159 L38.8287,6.61392 L39.4610375,6.61392 C40.386325,6.61392 40.636575,6.25136625 40.636575,5.63394375 L40.636575,3.02688 L41.8133,3.02688 Z M40.081125,2.0463525 C39.6990535,2.02780245 39.403602,1.73768959 39.4162731,1.39351417 C39.4289442,1.04933875 39.7450857,0.777464061 40.1276835,0.781717032 C40.5102813,0.785970002 40.8188654,1.06478916 40.8220875,1.40914125 C40.8275415,1.58485235 40.7500702,1.75442526 40.6088606,1.87586236 C40.467651,1.99729946 40.2759098,2.05924332 40.081125,2.0463525 Z M41.9109625,2.0463525 C41.528891,2.02780245 41.2334395,1.73768959 41.2461106,1.39351417 C41.2587817,1.04933875 41.5749232,0.777464061 41.957521,0.781717032 C42.3401188,0.785970002 42.6487029,1.06478916 42.651925,1.40914125 C42.657379,1.58485235 42.5799077,1.75442526 42.4386981,1.87586236 C42.2974885,1.99729946 42.1057473,2.05924332 41.9109625,2.0463525 Z" id="Shape" fill-rule="nonzero"></path>
                </g>
            </g>
        </g>
    </g>
</svg>