<svg width="150" height="45" viewBox="0 0 150 45" xmlns="http://www.w3.org/2000/svg"><title>apple-store-zh</title><g fill-rule="nonzero" fill="none"><path d="M144.663 44.444H5.254C2.358 44.444 0 42.08 0 39.186V5.25A5.26 5.26 0 0 1 5.254 0h139.41C147.558 0 150 2.356 150 5.251v33.935c0 2.894-2.441 5.258-5.337 5.258z" fill="#A6A6A6"/><path d="M148.924 39.187a4.255 4.255 0 0 1-4.26 4.255H5.254A4.26 4.26 0 0 1 .99 39.187V5.25A4.266 4.266 0 0 1 5.254.989h139.41a4.26 4.26 0 0 1 4.26 4.261v33.937z" fill="#000"/><g fill="#FFF"><path d="M33.476 21.982c-.033-3.58 2.932-5.323 3.067-5.404-1.679-2.448-4.28-2.782-5.195-2.81-2.186-.23-4.306 1.309-5.42 1.309-1.135 0-2.85-1.286-4.697-1.248-2.378.037-4.602 1.413-5.822 3.551-2.518 4.359-.64 10.764 1.772 14.288 1.207 1.725 2.617 3.652 4.462 3.584 1.806-.074 2.48-1.15 4.66-1.15 2.158 0 2.791 1.15 4.674 1.107 1.937-.031 3.157-1.733 4.322-3.475 1.394-1.977 1.954-3.925 1.977-4.025-.046-.016-3.764-1.435-3.8-5.727zM29.92 11.451c.971-1.214 1.636-2.867 1.451-4.543-1.405.062-3.163.972-4.175 2.16-.896 1.046-1.696 2.762-1.49 4.375 1.58.118 3.2-.796 4.214-1.992z"/></g><g fill="#FFF"><path d="M60.007 18.922h-2.23l-1.221-3.839H52.31l-1.163 3.84h-2.173l4.208-13.069h2.598l4.227 13.068zm-3.82-5.448l-1.106-3.412c-.115-.349-.335-1.17-.659-2.462h-.039c-.13.556-.336 1.377-.62 2.462l-1.086 3.412h3.51zM70.824 14.094c0 1.604-.432 2.87-1.297 3.8-.777.828-1.738 1.242-2.891 1.242-1.24 0-2.132-.446-2.674-1.338h-.039v4.963H61.83v-10.16c0-1.009-.026-2.042-.078-3.102h1.842l.117 1.493h.038c.699-1.124 1.758-1.688 3.179-1.688 1.113 0 2.04.44 2.784 1.32.742.88 1.113 2.036 1.113 3.47zm-2.13.078c0-.918-.21-1.673-.622-2.269-.453-.62-1.06-.93-1.823-.93-.517 0-.986.171-1.407.514a2.377 2.377 0 0 0-.824 1.347 2.682 2.682 0 0 0-.096.64v1.572c0 .685.21 1.263.63 1.735.42.472.965.708 1.638.708.788 0 1.402-.303 1.842-.911.44-.61.661-1.41.661-2.406zM81.663 14.094c0 1.604-.433 2.87-1.299 3.8-.775.828-1.737 1.242-2.89 1.242-1.24 0-2.132-.446-2.674-1.338h-.039v4.963h-2.094v-10.16c0-1.009-.026-2.042-.077-3.102h1.841l.116 1.493h.039c.697-1.124 1.757-1.688 3.178-1.688 1.113 0 2.04.44 2.784 1.32.743.88 1.115 2.036 1.115 3.47zm-2.132.078c0-.918-.208-1.673-.621-2.269-.452-.62-1.06-.93-1.823-.93a2.17 2.17 0 0 0-1.406.514 2.371 2.371 0 0 0-.824 1.347 2.692 2.692 0 0 0-.097.64v1.572c0 .685.209 1.263.63 1.735.42.472.966.708 1.638.708.789 0 1.403-.303 1.842-.911.439-.608.661-1.41.661-2.406zM96.399 15.258c0 1.11-.388 2.015-1.161 2.714-.851.764-2.038 1.144-3.56 1.144-1.406 0-2.534-.272-3.386-.815l.485-1.744a5.734 5.734 0 0 0 3.026.833c.79 0 1.404-.178 1.843-.534.44-.356.66-.833.66-1.428 0-.531-.182-.977-.543-1.34-.362-.362-.963-.7-1.803-1.01-2.289-.855-3.432-2.105-3.432-3.75 0-1.074.4-1.954 1.202-2.64.801-.687 1.868-1.03 3.199-1.03 1.189 0 2.178.208 2.967.62l-.524 1.708c-.736-.4-1.57-.602-2.5-.602-.738 0-1.313.182-1.728.544a1.556 1.556 0 0 0-.523 1.182c0 .517.201.943.601 1.28.35.31.982.647 1.9 1.008 1.125.452 1.952.982 2.481 1.59.53.61.796 1.365.796 2.27zM103.32 11.07h-2.308v4.576c0 1.163.408 1.745 1.222 1.745.376 0 .685-.032.932-.097l.058 1.59c-.414.155-.956.233-1.628.233-.828 0-1.474-.253-1.94-.756-.465-.504-.698-1.351-.698-2.54V11.07h-1.376V9.5h1.376V7.774l2.055-.62V9.5h2.308v1.57h-.001zM113.731 14.133c0 1.448-.414 2.637-1.241 3.568-.866.957-2.016 1.435-3.45 1.435-1.383 0-2.486-.46-3.307-1.377-.82-.918-1.23-2.075-1.23-3.471 0-1.46.423-2.657 1.27-3.588.847-.93 1.987-1.396 3.421-1.396 1.384 0 2.495.46 3.336 1.377.8.893 1.201 2.043 1.201 3.452zm-2.172.068c0-.869-.187-1.614-.562-2.235-.44-.753-1.067-1.128-1.88-1.128-.841 0-1.48.375-1.92 1.128-.376.622-.563 1.38-.563 2.274 0 .869.187 1.614.563 2.237.452.752 1.086 1.127 1.9 1.127.802 0 1.427-.382 1.88-1.147.389-.635.582-1.387.582-2.256zM120.536 11.342a3.565 3.565 0 0 0-.66-.058c-.736 0-1.306.278-1.706.834-.348.49-.523 1.112-.523 1.86v4.945h-2.095l.02-6.456c0-1.087-.025-2.075-.078-2.967h1.824l.078 1.803h.057c.22-.62.57-1.117 1.047-1.492.466-.337.97-.504 1.512-.504.195 0 .368.013.524.039v1.996zM129.9 13.766c0 .374-.026.692-.077.95h-6.28c.024.93.328 1.642.91 2.132.53.44 1.215.659 2.055.659.93 0 1.778-.148 2.54-.446l.33 1.455c-.892.387-1.946.58-3.161.58-1.46 0-2.608-.43-3.441-1.29-.835-.858-1.252-2.013-1.252-3.46 0-1.422.39-2.605 1.164-3.548.814-1.008 1.913-1.512 3.296-1.512 1.358 0 2.385.504 3.083 1.512.555.802.833 1.79.833 2.968zm-1.997-.544c.014-.62-.122-1.156-.406-1.609-.363-.58-.918-.872-1.668-.872-.685 0-1.241.285-1.668.853-.348.454-.555.996-.62 1.63h4.362v-.002z"/></g><g fill="#FFF"><path d="M63.141 26.649H56.23v12.1h-1.612v-12.1h-5.703v-1.505h14.227v1.505zm-.311 6.655l-1.173 1.174a82.354 82.354 0 0 0-5.19-4.528l1.12-1.063a95.739 95.739 0 0 1 5.243 4.417zM73.243 31.653H68.57c-.318.563-.58 1.01-.789 1.34h1.339v-.973h1.449v.972h2.328v1.282h-2.328v1.046l2.493-.22-.257 1.283-2.236.203v2.09h-1.45v-1.982l-3.886.404-.164-1.43c1.49-.072 2.842-.152 4.05-.238v-1.156h-1.1c-.891 0-1.588.08-2.09.24l-.402-1.34c.403-.047.684-.19.843-.43.16-.238.379-.602.661-1.09h-1.706V30.37h2.366c.147-.305.274-.624.386-.953l1.374.402-.257.551h4.051v1.282zm6.51 3.796c-.197 1.442-.404 2.339-.625 2.695-.22.354-.554.533-1 .533-.445 0-.921-.227-1.43-.68a7.344 7.344 0 0 1-1.31-1.54c-.746.746-1.705 1.523-2.878 2.33l-1.119-1.1c1.332-.82 2.431-1.698 3.3-2.64-.304-.905-.525-2.02-.66-3.347-.134-1.326-.202-2.117-.202-2.374h-8.635v-1.302h3.704V26.98h-2.805v-1.302h2.805v-1.485h1.466v1.485h2.64v1.302h-2.64v1.044h3.41l-.073-3.85h1.449c0 1.553.023 2.836.072 3.85h4.272v1.302h-4.216v.184c0 .244.042.847.128 1.806.085.958.202 1.75.347 2.374.625-.929 1.143-2.041 1.558-3.338l1.339.515c-.648 1.844-1.4 3.324-2.254 4.435.195.38.473.756.833 1.13.36.372.595.558.707.558.11 0 .204-.174.284-.522.079-.35.137-.81.173-1.385l1.36.366zm-.587-8.618l-1.156.918a24.987 24.987 0 0 0-2.108-2.275l1.082-.898a45.611 45.611 0 0 1 2.182 2.255z"/></g></g></svg>