<svg width="150" height="45" viewBox="0 0 150 45" xmlns="http://www.w3.org/2000/svg"><title>apple-store-nl</title><g fill="none"><path d="M144.663 44.444H5.254C2.358 44.444 0 42.08 0 39.186V5.25A5.26 5.26 0 0 1 5.254 0h139.41C147.558 0 150 2.356 150 5.251v33.935c0 2.894-2.441 5.258-5.337 5.258z" fill="#A6A6A6"/><path d="M148.924 39.187a4.255 4.255 0 0 1-4.26 4.255H5.254A4.26 4.26 0 0 1 .99 39.187V5.25A4.266 4.266 0 0 1 5.254.989h139.41a4.26 4.26 0 0 1 4.26 4.261v33.937z" fill="#000"/><path d="M33.476 21.982c-.033-3.58 2.932-5.323 3.067-5.404-1.679-2.448-4.28-2.782-5.195-2.81-2.186-.23-4.306 1.309-5.42 1.309-1.135 0-2.85-1.286-4.697-1.248-2.378.037-4.602 1.413-5.822 3.551-2.518 4.359-.64 10.764 1.772 14.288 1.207 1.725 2.617 3.652 4.462 3.584 1.806-.074 2.48-1.15 4.66-1.15 2.158 0 2.791 1.15 4.674 1.107 1.937-.031 3.157-1.733 4.322-3.475 1.394-1.977 1.954-3.925 1.977-4.025-.046-.016-3.764-1.435-3.8-5.727zM29.92 11.451c.971-1.214 1.636-2.867 1.451-4.543-1.405.062-3.163.972-4.175 2.16-.896 1.046-1.696 2.762-1.49 4.375 1.58.118 3.2-.796 4.214-1.992zm29.766 23.553h-2.524l-1.382-4.343h-4.804l-1.317 4.343h-2.457l4.76-14.786h2.94l4.784 14.786zm-4.322-6.165l-1.25-3.861c-.132-.395-.38-1.324-.745-2.786h-.045c-.145.63-.38 1.558-.702 2.786l-1.228 3.86h3.97zm16.563.703c0 1.814-.49 3.247-1.47 4.3-.878.936-1.968 1.404-3.27 1.404-1.404 0-2.413-.505-3.027-1.514h-.044v5.617h-2.37V27.852c0-1.14-.03-2.31-.087-3.51h2.083l.132 1.69h.045c.79-1.273 1.989-1.909 3.598-1.909 1.257 0 2.307.497 3.147 1.491.843.996 1.263 2.305 1.263 3.928zm-2.414.087c0-1.038-.233-1.893-.702-2.567-.512-.702-1.2-1.053-2.062-1.053-.585 0-1.116.195-1.59.581a2.695 2.695 0 0 0-.932 1.526c-.074.293-.11.533-.11.722v1.778c0 .775.237 1.43.713 1.964s1.093.801 1.853.801c.893 0 1.587-.344 2.084-1.031.497-.688.746-1.594.746-2.721zm14.677-.087c0 1.814-.49 3.247-1.471 4.3-.877.936-1.967 1.404-3.268 1.404-1.404 0-2.413-.505-3.027-1.514h-.043v5.617h-2.37V27.852c0-1.14-.03-2.31-.088-3.51h2.084l.132 1.69h.044c.79-1.273 1.988-1.909 3.598-1.909 1.257 0 2.307.497 3.149 1.491.84.996 1.26 2.305 1.26 3.928zm-2.412.087c0-1.038-.235-1.893-.704-2.567-.512-.702-1.197-1.053-2.06-1.053-.586 0-1.116.195-1.592.581a2.694 2.694 0 0 0-.93 1.526c-.073.293-.11.533-.11.722v1.778c0 .775.237 1.43.71 1.964.476.533 1.094.801 1.856.801.892 0 1.586-.344 2.083-1.031.497-.688.747-1.594.747-2.721zm16.123 1.229c0 1.258-.437 2.28-1.313 3.07-.964.864-2.305 1.295-4.028 1.295-1.591 0-2.867-.306-3.832-.92l.549-1.975a6.494 6.494 0 0 0 3.424.944c.892 0 1.587-.202 2.086-.604.496-.402.744-.942.744-1.616 0-.6-.204-1.105-.614-1.515-.408-.41-1.09-.791-2.04-1.144-2.59-.965-3.883-2.38-3.883-4.24 0-1.215.454-2.212 1.362-2.987.904-.777 2.11-1.165 3.62-1.165 1.345 0 2.463.235 3.355.702l-.592 1.931c-.833-.453-1.776-.68-2.83-.68-.833 0-1.485.206-1.951.615a1.756 1.756 0 0 0-.592 1.339c0 .584.225 1.068.678 1.448.395.35 1.112.73 2.152 1.14 1.272.513 2.206 1.112 2.807 1.798.6.685.898 1.542.898 2.564zm7.832-4.738h-2.61v5.177c0 1.316.46 1.974 1.381 1.974.424 0 .775-.037 1.053-.11l.065 1.799c-.466.174-1.08.262-1.842.262-.936 0-1.667-.285-2.194-.855-.526-.571-.79-1.53-.79-2.875v-5.374H99.24V24.34h1.556v-1.952l2.326-.702v2.654h2.611v1.78zm11.783 3.466c0 1.638-.47 2.984-1.405 4.036-.981 1.084-2.283 1.624-3.907 1.624-1.564 0-2.81-.52-3.738-1.557-.93-1.038-1.394-2.348-1.394-3.927 0-1.652.478-3.005 1.437-4.058.957-1.053 2.248-1.58 3.871-1.58 1.564 0 2.823.52 3.773 1.558.908 1.008 1.363 2.31 1.363 3.904zm-2.46.076c0-.983-.21-1.826-.635-2.53-.497-.85-1.207-1.275-2.127-1.275-.952 0-1.675.425-2.172 1.275-.425.705-.635 1.561-.635 2.575 0 .983.21 1.826.635 2.529.512.85 1.228 1.275 2.151 1.275.905 0 1.615-.433 2.127-1.298.438-.716.657-1.569.657-2.55zm10.158-3.236a4.113 4.113 0 0 0-.746-.066c-.834 0-1.478.314-1.931.944-.395.556-.593 1.258-.593 2.106v5.594h-2.367l.022-7.304c0-1.229-.03-2.348-.089-3.357h2.063l.087 2.04h.066c.25-.7.644-1.265 1.184-1.689a2.864 2.864 0 0 1 1.712-.57c.22 0 .417.015.592.043v2.259zm10.596 2.743c0 .424-.028.782-.087 1.074h-7.106c.027 1.054.37 1.86 1.03 2.415.6.496 1.374.745 2.325.745 1.052 0 2.012-.167 2.876-.504l.37 1.644c-1.008.44-2.2.66-3.574.66-1.653 0-2.95-.487-3.895-1.46-.942-.972-1.415-2.277-1.415-3.915 0-1.608.44-2.947 1.318-4.015.92-1.14 2.164-1.71 3.728-1.71 1.537 0 2.7.57 3.49 1.71.624.906.94 2.026.94 3.356zm-2.26-.615c.016-.702-.139-1.308-.46-1.82-.41-.66-1.04-.988-1.888-.988-.774 0-1.404.32-1.885.965-.395.512-.63 1.127-.701 1.842h4.934v.001zM54.789 11.003c0 1.348-.403 2.363-1.211 3.045-.75.63-1.811.944-3.19.944-.68 0-1.266-.03-1.755-.089V7.537A12.918 12.918 0 0 1 50.7 7.38c1.311 0 2.3.286 2.967.856.747.644 1.122 1.566 1.122 2.766zm-1.267.034c0-.875-.232-1.545-.694-2.011-.464-.467-1.14-.7-2.028-.7-.378 0-.7.025-.967.077v5.6c.15.023.42.034.811.034.918 0 1.628-.256 2.128-.767.5-.511.75-1.256.75-2.233zm7.978 1.144c0 .83-.238 1.511-.711 2.045-.497.547-1.156.822-1.978.822-.793 0-1.424-.262-1.894-.79-.471-.525-.706-1.188-.706-1.988 0-.837.242-1.522.727-2.056.485-.533 1.139-.8 1.962-.8.792 0 1.429.264 1.911.79.459.51.689 1.17.689 1.977zm-1.244.039c0-.498-.108-.926-.323-1.281-.252-.431-.61-.647-1.077-.647-.483 0-.85.216-1.1.647-.215.357-.323.791-.323 1.303 0 .498.108.926.323 1.281.258.431.622.647 1.088.647.46 0 .818-.219 1.078-.657.222-.364.334-.795.334-1.293zm10.245-2.694l-1.69 5.4h-1.1l-.7-2.345a17.152 17.152 0 0 1-.433-1.744h-.022a12.623 12.623 0 0 1-.434 1.744l-.744 2.345h-1.111l-1.59-5.4h1.233l.611 2.566a26 26 0 0 1 .367 1.734h.023c.089-.452.237-1.026.443-1.723l.767-2.577h.978l.733 2.522c.178.614.322 1.206.434 1.778h.033c.081-.556.204-1.148.367-1.778l.655-2.522h1.18zm6.222 5.4h-1.2v-3.093c0-.953-.364-1.43-1.09-1.43a1.08 1.08 0 0 0-.866.394 1.393 1.393 0 0 0-.334.925v3.204h-1.2V11.07c0-.473-.014-.989-.044-1.544h1.055l.056.844h.033c.141-.262.348-.48.624-.652a2.016 2.016 0 0 1 1.087-.304c.504 0 .923.163 1.256.49.414.4.623.996.623 1.788v3.234zm3.309 0h-1.2V7.048h1.2zm7.067-2.745c0 .83-.237 1.511-.71 2.045-.497.547-1.157.822-1.979.822-.792 0-1.423-.262-1.894-.79-.472-.525-.706-1.188-.706-1.988 0-.837.243-1.522.727-2.056.486-.533 1.139-.8 1.962-.8.792 0 1.43.264 1.912.79.458.51.688 1.17.688 1.977zm-1.243.039c0-.498-.11-.926-.324-1.281-.252-.431-.61-.647-1.076-.647-.483 0-.85.216-1.1.647-.215.357-.324.791-.324 1.303 0 .498.11.926.324 1.281.257.431.62.647 1.088.647.458 0 .818-.219 1.077-.657.223-.364.335-.795.335-1.293zm7.054 2.706h-1.079l-.089-.623h-.032c-.371.497-.897.745-1.578.745-.51 0-.922-.162-1.232-.49a1.535 1.535 0 0 1-.423-1.1c0-.658.275-1.162.829-1.51.55-.348 1.325-.518 2.326-.511v-.1c0-.711-.373-1.067-1.12-1.067-.532 0-1 .133-1.406.4l-.246-.789c.503-.311 1.12-.467 1.853-.467 1.413 0 2.118.745 2.118 2.234v1.989c.001.54.027.97.079 1.289zm-1.243-1.856v-.833c-1.326-.023-1.99.34-1.99 1.089 0 .28.077.492.232.633a.833.833 0 0 0 .585.211c.265 0 .51-.083.734-.25.225-.167.364-.38.414-.639a.835.835 0 0 0 .025-.211zm8.066 1.856h-1.067l-.055-.867h-.034c-.341.659-.918.989-1.733.989-.653 0-1.193-.256-1.623-.767-.43-.511-.644-1.174-.644-1.989 0-.874.234-1.58.7-2.122.452-.504 1.007-.756 1.667-.756.725 0 1.233.245 1.522.734h.022v-3.1h1.2v6.422c0 .527.014 1.011.045 1.456zm-1.245-2.278v-.9c0-.156-.011-.281-.032-.378a1.355 1.355 0 0 0-.437-.728 1.168 1.168 0 0 0-.803-.294c-.445 0-.797.178-1.055.533-.255.356-.384.811-.384 1.367 0 .533.123.966.369 1.3.26.355.61.533 1.047.533.395 0 .71-.148.95-.444.23-.275.345-.604.345-.99zm7.912-4.734a.693.693 0 0 1-.21.523.762.762 0 0 1-.544.2.684.684 0 0 1-.506-.206.69.69 0 0 1-.208-.517.67.67 0 0 1 .21-.51.731.731 0 0 1 .524-.2c.206 0 .382.066.523.2a.681.681 0 0 1 .211.51zm-.134 7.012h-1.2v-5.4h1.2v5.4zm6.822 0h-1.2v-3.093c0-.953-.365-1.43-1.09-1.43-.355 0-.644.131-.867.394a1.392 1.392 0 0 0-.332.925v3.204h-1.2V11.07c0-.473-.016-.989-.046-1.544h1.057l.054.844h.035c.141-.262.347-.48.623-.652a2.02 2.02 0 0 1 1.088-.304c.503 0 .922.163 1.257.49.414.4.623.996.623 1.788v3.234h-.002zm10.154 0h-1.065l-.057-.867h-.032c-.341.659-.92.989-1.735.989-.65 0-1.193-.256-1.62-.767-.43-.511-.645-1.174-.645-1.989 0-.874.232-1.58.699-2.122.45-.504 1.006-.756 1.666-.756.727 0 1.233.245 1.524.734h.022v-3.1h1.2v6.422c0 .527.015 1.011.043 1.456zM122 12.648v-.9c0-.156-.011-.281-.035-.378a1.351 1.351 0 0 0-.434-.728 1.174 1.174 0 0 0-.803-.294c-.447 0-.8.178-1.055.533-.255.356-.384.811-.384 1.367 0 .533.12.966.366 1.3.26.355.61.533 1.048.533.395 0 .712-.148.95-.444.231-.275.347-.604.347-.99zm7.777-.678c0 .214-.016.397-.046.544h-3.598c.014.534.19.942.521 1.223.304.252.697.377 1.18.377.533 0 1.017-.085 1.456-.255l.189.833c-.512.222-1.116.334-1.812.334-.838 0-1.496-.246-1.973-.74-.477-.492-.716-1.153-.716-1.983 0-.814.22-1.492.666-2.033.467-.578 1.096-.867 1.89-.867.777 0 1.366.29 1.767.867.315.46.476 1.027.476 1.7zm-1.144-.311a1.633 1.633 0 0 0-.234-.922c-.209-.334-.526-.5-.955-.5-.393 0-.712.163-.956.489-.2.258-.317.57-.354.933h2.5z" fill="#FFF"/></g></svg>