<svg width="150" height="45" viewBox="0 0 150 45" xmlns="http://www.w3.org/2000/svg"><title>apple-store-fr</title><g fill="none"><path d="M144.699 44.435H5.289C2.392 44.435 0 42.071 0 39.178V5.25C0 2.355 2.392 0 5.289 0h139.409C147.593 0 150 2.355 150 5.25v33.928c0 2.893-2.407 5.257-5.301 5.257z" fill="#A6A6A6"/><path d="M148.924 39.179a4.255 4.255 0 0 1-4.26 4.254H5.254A4.26 4.26 0 0 1 .99 39.18V5.249c0-2.35 1.911-4.26 4.265-4.26h139.41a4.26 4.26 0 0 1 4.26 4.26v33.93z" fill="#000"/><path d="M33.51 21.978c-.032-3.58 2.932-5.323 3.068-5.404-1.68-2.447-4.281-2.781-5.196-2.808-2.185-.23-4.305 1.308-5.419 1.308-1.135 0-2.85-1.286-4.697-1.248-2.378.037-4.603 1.413-5.823 3.55-2.517 4.358-.64 10.763 1.773 14.285 1.206 1.726 2.616 3.652 4.462 3.584 1.805-.074 2.48-1.15 4.659-1.15 2.159 0 2.792 1.15 4.674 1.107 1.938-.031 3.158-1.733 4.322-3.474 1.395-1.977 1.955-3.925 1.977-4.025-.044-.015-3.763-1.434-3.8-5.725zm-3.556-10.529c.972-1.214 1.636-2.866 1.452-4.543-1.406.063-3.165.971-4.176 2.16-.896 1.046-1.696 2.762-1.489 4.375 1.579.117 3.2-.797 4.213-1.992zm20.24 23.548h-2.16V20.82h2.16zm5.64-13.837c-.573 2.013-1.253 3.666-2.04 4.96l-1.34.14a25.192 25.192 0 0 0 1.26-4.9l2.12-.2zm10.58 13.837h-2.3l-1.26-3.958h-4.38l-1.2 3.958h-2.24l4.34-13.477h2.68l4.36 13.477zm-3.94-5.62l-1.14-3.519c-.12-.359-.346-1.206-.68-2.54h-.04c-.133.574-.346 1.42-.64 2.54l-1.12 3.52h3.62zm15.099.64c0 1.653-.446 2.96-1.34 3.92-.8.854-1.794 1.28-2.98 1.28-1.28 0-2.2-.46-2.76-1.38h-.04v5.118h-2.16V28.476c0-1.04-.027-2.106-.08-3.199h1.9l.12 1.54h.04c.72-1.16 1.813-1.739 3.28-1.739 1.146 0 2.103.453 2.87 1.36.767.908 1.15 2.1 1.15 3.58zm-2.2.081c0-.946-.213-1.726-.64-2.338-.466-.64-1.093-.96-1.88-.96-.533 0-1.017.177-1.45.531a2.449 2.449 0 0 0-.85 1.389c-.066.266-.1.486-.1.66V31c0 .707.217 1.303.65 1.789.434.486.997.73 1.69.73.814 0 1.447-.314 1.9-.94.454-.628.68-1.453.68-2.48zm13.381-.081c0 1.653-.446 2.96-1.34 3.92-.8.854-1.793 1.28-2.98 1.28-1.28 0-2.2-.46-2.76-1.38h-.04v5.118h-2.16V28.476c0-1.04-.026-2.106-.078-3.199h1.898l.12 1.54h.04c.72-1.16 1.813-1.739 3.28-1.739 1.147 0 2.103.453 2.87 1.36.766.908 1.15 2.1 1.15 3.58zm-2.2.081c0-.946-.213-1.726-.64-2.338-.467-.64-1.094-.96-1.88-.96-.533 0-1.017.177-1.45.531a2.445 2.445 0 0 0-.85 1.389c-.068.266-.1.486-.1.66V31c0 .707.216 1.303.648 1.789.435.486.998.73 1.69.73.814 0 1.448-.314 1.901-.94.453-.628.68-1.453.68-2.48zm14.698 1.122c0 1.144-.399 2.078-1.195 2.799-.88.786-2.104 1.18-3.673 1.18-1.452 0-2.615-.28-3.494-.84l.499-1.8c.947.574 1.988.86 3.121.86.813 0 1.448-.184 1.901-.551.453-.367.681-.858.681-1.472a1.88 1.88 0 0 0-.56-1.382c-.373-.373-.994-.721-1.86-1.042-2.36-.881-3.542-2.17-3.542-3.865 0-1.109.414-2.016 1.241-2.724.827-.707 1.927-1.062 3.301-1.062 1.227 0 2.246.213 3.06.64l-.54 1.759c-.76-.414-1.62-.62-2.58-.62-.76 0-1.354.186-1.78.56a1.6 1.6 0 0 0-.54 1.22c0 .533.207.972.621 1.32.358.32 1.011.667 1.96 1.04 1.16.467 2.013 1.013 2.56 1.64.546.628.82 1.405.82 2.34zm7.14-4.321h-2.379v4.719c0 1.2.42 1.8 1.26 1.8.386 0 .707-.034.96-.1l.06 1.64c-.426.16-.986.24-1.68.24-.854 0-1.52-.26-2-.78-.482-.52-.72-1.393-.72-2.619V26.9h-1.42v-1.62h1.42V23.5l2.12-.64v2.42h2.38v1.62zm10.74 3.161c0 1.491-.428 2.718-1.28 3.679-.894.986-2.079 1.48-3.559 1.48-1.427 0-2.565-.474-3.41-1.42-.847-.947-1.27-2.14-1.27-3.58 0-1.506.436-2.74 1.31-3.699.873-.96 2.05-1.44 3.53-1.44 1.427 0 2.573.474 3.44 1.419.825.92 1.24 2.106 1.24 3.56zm-2.24.068c0-.896-.193-1.664-.58-2.306-.454-.774-1.099-1.163-1.94-1.163-.866 0-1.526.389-1.98 1.163-.386.642-.579 1.423-.579 2.345 0 .898.194 1.665.58 2.306.466.776 1.12 1.165 1.96 1.165.826 0 1.473-.395 1.94-1.184.397-.655.6-1.43.6-2.326zm9.258-2.949a3.667 3.667 0 0 0-.679-.06c-.76 0-1.348.287-1.76.859-.36.507-.54 1.147-.54 1.92v5.1h-2.159l.02-6.66c0-1.12-.025-2.139-.08-3.059h1.881l.078 1.86h.061c.228-.64.586-1.152 1.081-1.54.48-.346 1-.52 1.56-.52.2 0 .38.014.538.04v2.06h-.001zm9.661 2.499c0 .388-.028.714-.08.98h-6.48c.026.96.341 1.693.94 2.2.547.453 1.255.678 2.12.678.959 0 1.833-.153 2.619-.458l.341 1.5c-.92.4-2.008.6-3.26.6-1.508 0-2.691-.443-3.55-1.33s-1.289-2.077-1.289-3.57c0-1.466.4-2.686 1.198-3.659.842-1.04 1.974-1.559 3.401-1.559 1.4 0 2.461.52 3.181 1.559.574.826.86 1.846.86 3.06zm-2.059-.56c.014-.64-.128-1.191-.42-1.66-.374-.6-.948-.899-1.722-.899-.706 0-1.278.293-1.719.879-.36.467-.573 1.027-.64 1.68h4.501zM53.156 8.64h-2.08v6.283H49.91V8.64h-2.069v-.98h5.314zm5.712 3.416c0 .21-.016.385-.044.528h-3.492c.015.518.182.912.506 1.185.295.245.675.367 1.142.367a3.85 3.85 0 0 0 1.412-.248l.182.809c-.495.216-1.08.323-1.756.323-.811 0-1.45-.239-1.914-.716-.463-.478-.694-1.119-.694-1.923 0-.79.214-1.448.647-1.972.452-.56 1.062-.84 1.83-.84.755 0 1.326.28 1.714.84.311.444.467.994.467 1.647zm-1.111-.3a1.585 1.585 0 0 0-.226-.895c-.202-.323-.51-.485-.927-.485-.38 0-.69.157-.927.474a1.751 1.751 0 0 0-.345.905h2.425zm.475-4.269L56.928 9.05h-.81l.939-1.562h1.175zm3.49 7.436h-1.164v-7.64h1.164zm6.381-2.867c0 .21-.015.385-.043.528h-3.492c.014.518.182.912.505 1.185.296.245.676.367 1.143.367a3.85 3.85 0 0 0 1.412-.248l.182.809c-.496.216-1.081.323-1.757.323-.81 0-1.45-.239-1.913-.716-.463-.478-.694-1.119-.694-1.923 0-.79.214-1.448.646-1.972.452-.56 1.062-.84 1.831-.84.755 0 1.326.28 1.714.84.312.444.466.994.466 1.647zm-1.11-.3a1.585 1.585 0 0 0-.226-.895c-.203-.323-.51-.485-.927-.485-.381 0-.69.157-.928.474a1.751 1.751 0 0 0-.344.905h2.424zm.475-4.269L66.163 9.05h-.807l.937-1.562h1.175zm6.066 2.339l-.225.883a2.291 2.291 0 0 0-1.013-.216c-.51 0-.915.171-1.214.513-.298.34-.446.774-.446 1.298 0 .553.156.991.468 1.314.313.324.71.486 1.192.486.358 0 .71-.071 1.055-.216l.162.873c-.38.18-.86.27-1.444.27-.798 0-1.433-.242-1.908-.727-.474-.486-.711-1.133-.711-1.945 0-.811.254-1.479.764-1.999s1.196-.78 2.06-.78c.488-.002.91.08 1.26.246zm6.143 5.097h-1.164v-2.978c0-.938-.35-1.408-1.056-1.408-.538 0-.91.272-1.11.816a1.424 1.424 0 0 0-.055.419v3.15h-1.164v-7.64h1.164v3.156h.022c.368-.574.89-.861 1.575-.861.482 0 .879.158 1.195.474.395.395.593.981.593 1.757v3.114zm5.972 0h-1.046l-.086-.604h-.033c-.357.481-.867.722-1.53.722-.494 0-.894-.158-1.195-.474a1.487 1.487 0 0 1-.41-1.066c0-.64.267-1.128.803-1.466.536-.337 1.29-.503 2.26-.495v-.098c0-.69-.363-1.034-1.089-1.034-.516 0-.972.13-1.365.388l-.237-.765c.487-.3 1.088-.452 1.797-.452 1.369 0 2.055.722 2.055 2.166v1.929c0 .523.026.94.076 1.249zm-1.209-1.8v-.808c-1.284-.022-1.927.33-1.927 1.056 0 .273.074.477.224.614a.81.81 0 0 0 .569.204c.255 0 .494-.08.712-.242a.992.992 0 0 0 .422-.824zm5.94-2.413a1.933 1.933 0 0 0-.367-.032c-.407 0-.724.154-.949.463-.193.273-.29.618-.29 1.034v2.749H87.61l.011-3.589c0-.603-.015-1.153-.043-1.648h1.013l.044 1.002h.032c.12-.346.314-.622.58-.83.259-.187.539-.28.84-.28.11 0 .208.007.292.021v1.11zm6.078-1.024c-.028.424-.044.92-.044 1.487v2.995c0 1.128-.252 1.919-.753 2.37-.46.417-1.107.625-1.94.625-.727 0-1.313-.136-1.758-.41l.27-.894a2.82 2.82 0 0 0 1.488.399c1.027 0 1.541-.553 1.541-1.66v-.506h-.022c-.323.532-.838.797-1.541.797-.633 0-1.155-.24-1.562-.722-.41-.48-.615-1.092-.615-1.832 0-.84.237-1.52.71-2.036.44-.481.975-.722 1.606-.722.712 0 1.222.277 1.532.83h.02l.043-.722h1.025zm-1.206 2.996v-.927c0-.352-.11-.653-.33-.905-.22-.252-.51-.377-.872-.377-.397 0-.722.165-.979.496-.255.33-.384.772-.384 1.325 0 .503.119.909.357 1.218.244.337.58.506 1.005.506.26 0 .492-.076.699-.23a1.25 1.25 0 0 0 .439-.63c.043-.132.065-.29.065-.476zm7.544-.626c0 .21-.016.385-.044.528H99.26c.016.518.182.912.506 1.185.295.245.676.367 1.143.367.517 0 .988-.082 1.412-.248l.182.809c-.496.216-1.08.323-1.757.323-.812 0-1.45-.239-1.913-.716-.464-.478-.694-1.119-.694-1.923 0-.79.214-1.448.647-1.972.45-.56 1.06-.84 1.83-.84.754 0 1.326.28 1.713.84.312.444.467.994.467 1.647zm-1.112-.3a1.567 1.567 0 0 0-.225-.895c-.202-.323-.51-.485-.927-.485-.38 0-.69.157-.926.474a1.762 1.762 0 0 0-.346.905h2.424zm5.573-1.046a1.933 1.933 0 0 0-.367-.032c-.41 0-.724.154-.949.463-.193.273-.291.618-.291 1.034v2.749h-1.166l.012-3.589a29.7 29.7 0 0 0-.042-1.648h1.012l.043 1.002h.032c.121-.346.317-.622.581-.83.26-.187.54-.28.842-.28.107 0 .205.007.292.021v1.11zm9.291 4.213h-1.036l-.054-.841h-.032c-.33.64-.89.96-1.68.96-.634 0-1.157-.248-1.574-.744-.416-.495-.624-1.138-.624-1.928 0-.848.225-1.534.676-2.059.44-.489.98-.733 1.617-.733.706 0 1.198.237 1.478.711h.022V7.283h1.163v6.229c0 .51.015.98.044 1.41zm-1.207-2.209v-.873a1.316 1.316 0 0 0-.456-1.072 1.14 1.14 0 0 0-.778-.286c-.433 0-.773.173-1.023.518-.25.346-.373.787-.373 1.325 0 .518.119.938.358 1.261.252.345.59.517 1.015.517.383 0 .69-.144.92-.431.224-.266.337-.586.337-.959zm7.155 2.209h-1.046l-.084-.604h-.033c-.36.481-.87.722-1.53.722-.496 0-.896-.158-1.197-.474-.274-.287-.408-.643-.408-1.066 0-.64.266-1.128.803-1.466.533-.337 1.287-.503 2.257-.495v-.098c0-.69-.362-1.034-1.086-1.034-.516 0-.972.13-1.366.388l-.237-.765c.488-.3 1.088-.452 1.797-.452 1.37 0 2.055.722 2.055 2.166v1.929c-.001.523.025.94.075 1.249zm-1.207-1.8v-.808c-1.287-.022-1.929.33-1.929 1.056 0 .273.076.477.226.614.15.137.338.204.566.204.258 0 .495-.08.715-.242a.998.998 0 0 0 .422-.824zm7.717 1.8h-1.166v-3c0-.924-.351-1.386-1.054-1.386-.346 0-.625.126-.843.38a1.352 1.352 0 0 0-.323.898v3.106h-1.163v-3.739c0-.46-.016-.959-.044-1.498h1.025l.054.818h.032c.135-.254.337-.464.604-.632a1.965 1.965 0 0 1 1.054-.294c.49 0 .897.158 1.22.474.401.388.604.967.604 1.735v3.138zm5.25-1.505c0 .487-.18.878-.538 1.172-.36.295-.856.441-1.49.441-.596 0-1.101-.118-1.518-.355l.248-.862c.403.244.83.366 1.282.366.597 0 .894-.218.894-.657a.64.64 0 0 0-.193-.48c-.13-.126-.36-.25-.69-.371-.933-.346-1.4-.848-1.4-1.509 0-.452.171-.83.517-1.132.345-.302.8-.452 1.369-.452.516 0 .959.106 1.325.317l-.25.836a2.046 2.046 0 0 0-1.065-.3c-.246 0-.437.057-.574.171a.556.556 0 0 0-.204.441c0 .18.071.326.214.44.124.108.36.226.713.355.906.343 1.36.87 1.36 1.58z" fill="#FFF"/></g></svg>