<svg width="150" height="45" viewBox="0 0 150 45" xmlns="http://www.w3.org/2000/svg"><g fill="none"><path d="M144.663 44.444H5.254C2.358 44.444 0 42.08 0 39.186V5.25A5.26 5.26 0 0 1 5.254 0h139.41C147.558 0 150 2.356 150 5.251v33.935c0 2.894-2.441 5.258-5.337 5.258z" fill="#A6A6A6"/><path d="M148.924 39.187a4.255 4.255 0 0 1-4.26 4.255H5.254A4.26 4.26 0 0 1 .99 39.187V5.25A4.266 4.266 0 0 1 5.254.989h139.41a4.26 4.26 0 0 1 4.26 4.261v33.937z" fill="#000"/><path d="M33.477 21.981c-.033-3.581 2.932-5.323 3.067-5.404-1.678-2.448-4.28-2.783-5.195-2.81-2.186-.23-4.306 1.309-5.419 1.309-1.136 0-2.85-1.286-4.698-1.248-2.378.036-4.602 1.413-5.822 3.55-2.518 4.36-.64 10.765 1.772 14.289 1.207 1.725 2.617 3.652 4.462 3.583 1.806-.073 2.48-1.15 4.66-1.15 2.158 0 2.792 1.15 4.674 1.107 1.938-.03 3.158-1.733 4.322-3.475 1.394-1.976 1.954-3.925 1.977-4.025-.046-.015-3.764-1.433-3.8-5.726zm-3.556-10.53c.971-1.214 1.636-2.867 1.451-4.543-1.405.062-3.163.972-4.175 2.16-.896 1.046-1.696 2.762-1.49 4.375 1.58.117 3.2-.796 4.214-1.992zm29.725 23.551h-2.524L55.74 30.66h-4.804l-1.317 4.342h-2.457l4.76-14.785h2.94l4.784 14.785zm-4.322-6.164l-1.25-3.861c-.132-.395-.38-1.324-.745-2.787h-.045c-.145.629-.38 1.557-.702 2.787l-1.228 3.86h3.97zm16.563.702c0 1.814-.49 3.247-1.47 4.299-.878.938-1.968 1.404-3.27 1.404-1.404 0-2.413-.503-3.027-1.512h-.044v5.617h-2.37V27.85c0-1.141-.03-2.311-.087-3.511h2.083l.132 1.69h.045c.79-1.273 1.989-1.91 3.598-1.91 1.257 0 2.307.497 3.147 1.492.84.996 1.263 2.305 1.263 3.928zm-2.414.088c0-1.04-.233-1.894-.702-2.567-.512-.703-1.2-1.053-2.062-1.053-.585 0-1.116.194-1.59.58a2.689 2.689 0 0 0-.932 1.525c-.074.294-.11.534-.11.724v1.777c0 .776.237 1.43.713 1.964s1.093.8 1.853.8c.893 0 1.587-.342 2.084-1.03.496-.688.746-1.594.746-2.72zm14.678-.088c0 1.814-.49 3.247-1.471 4.299-.877.938-1.967 1.404-3.268 1.404-1.404 0-2.413-.503-3.028-1.512h-.043v5.617h-2.369V27.85c0-1.141-.03-2.311-.088-3.511h2.084l.132 1.69h.044c.79-1.273 1.99-1.91 3.6-1.91 1.256 0 2.306.497 3.148 1.492.838.996 1.26 2.305 1.26 3.928zm-2.413.088c0-1.04-.235-1.894-.704-2.567-.512-.703-1.197-1.053-2.06-1.053a2.46 2.46 0 0 0-1.592.58 2.685 2.685 0 0 0-.932 1.525c-.072.294-.11.534-.11.724v1.777c0 .776.238 1.43.712 1.964.476.533 1.094.8 1.856.8.892 0 1.586-.342 2.083-1.03.497-.688.747-1.594.747-2.72zm16.124 1.229c0 1.256-.439 2.28-1.313 3.07-.963.864-2.307 1.294-4.028 1.294-1.591 0-2.869-.305-3.832-.92l.549-1.974a6.48 6.48 0 0 0 3.422.944c.894 0 1.589-.202 2.086-.605.496-.402.746-.943.746-1.615 0-.601-.206-1.107-.614-1.517-.41-.41-1.09-.79-2.04-1.142-2.59-.966-3.885-2.38-3.885-4.24 0-1.215.454-2.212 1.361-2.989.908-.776 2.114-1.164 3.62-1.164 1.346 0 2.466.234 3.357.702l-.592 1.931c-.833-.453-1.778-.68-2.83-.68-.833 0-1.485.206-1.953.615a1.755 1.755 0 0 0-.593 1.337c0 .586.228 1.068.681 1.448.395.351 1.112.731 2.15 1.141 1.273.513 2.208 1.111 2.807 1.8.602.685.901 1.54.901 2.564zm7.83-4.739h-2.61v5.178c0 1.315.461 1.974 1.381 1.974.426 0 .775-.037 1.055-.111l.065 1.799c-.469.175-1.083.262-1.842.262-.938 0-1.669-.284-2.194-.856-.528-.57-.79-1.527-.79-2.873v-5.375h-1.558v-1.778h1.558v-1.952l2.324-.703v2.655h2.611v1.78zm11.782 3.465c0 1.64-.468 2.985-1.404 4.037-.979 1.083-2.281 1.623-3.904 1.623-1.567 0-2.813-.519-3.742-1.555-.928-1.04-1.393-2.348-1.393-3.928 0-1.651.48-3.006 1.437-4.058.959-1.052 2.25-1.58 3.873-1.58 1.565 0 2.821.52 3.772 1.558.907 1.009 1.361 2.31 1.361 3.903zm-2.456.078c0-.983-.212-1.828-.636-2.53-.496-.851-1.206-1.275-2.129-1.275-.95 0-1.675.425-2.172 1.275-.423.703-.635 1.561-.635 2.573 0 .984.212 1.828.635 2.53.512.852 1.228 1.276 2.151 1.276.907 0 1.617-.434 2.13-1.298.436-.716.656-1.569.656-2.55zm10.155-3.237a3.99 3.99 0 0 0-.744-.066c-.836 0-1.478.314-1.931.944-.395.556-.592 1.26-.592 2.107v5.593h-2.37l.022-7.304c0-1.228-.028-2.348-.087-3.357h2.061l.09 2.04h.065c.247-.701.642-1.264 1.184-1.689a2.86 2.86 0 0 1 1.71-.57c.219 0 .417.015.592.042v2.26zm10.597 2.743c0 .425-.03.783-.089 1.075h-7.107c.028 1.054.374 1.86 1.032 2.415.598.496 1.375.744 2.326.744 1.052 0 2.01-.167 2.874-.503l.373 1.644c-1.009.44-2.202.658-3.577.658-1.653 0-2.95-.487-3.893-1.458-.945-.972-1.415-2.279-1.415-3.915 0-1.61.44-2.947 1.316-4.015.922-1.14 2.166-1.71 3.73-1.71 1.534 0 2.698.57 3.488 1.71.628.906.942 2.025.942 3.355zm-2.259-.615c.013-.7-.141-1.309-.462-1.82-.408-.659-1.038-.989-1.886-.989-.774 0-1.404.323-1.885.966-.395.512-.63 1.127-.704 1.842h4.937v.001zM52.697 14.924h-4.128V7.66h1.164v6.283h2.964v.981zm5.486 0h-1.045l-.086-.603h-.032c-.359.481-.869.722-1.53.722-.496 0-.896-.159-1.197-.474-.273-.287-.409-.643-.409-1.067 0-.64.267-1.128.804-1.465.534-.338 1.288-.504 2.258-.496v-.097c0-.69-.363-1.034-1.087-1.034-.517 0-.972.13-1.366.388l-.237-.767c.486-.301 1.087-.452 1.796-.452 1.37 0 2.056.722 2.056 2.167v1.928c-.001.524.025.942.075 1.25zm-1.207-1.8v-.807c-1.286-.023-1.928.33-1.928 1.055 0 .274.074.478.224.615.15.136.34.204.568.204.257 0 .494-.081.713-.242a.987.987 0 0 0 .423-.825zm7.824 1.8h-1.034l-.055-.84h-.032c-.33.64-.891.96-1.681.96-.632 0-1.157-.248-1.574-.744-.416-.496-.624-1.139-.624-1.929 0-.848.226-1.534.678-2.059.439-.489.978-.733 1.616-.733.705 0 1.197.237 1.477.711h.022V7.282h1.165v6.23c0 .51.013.98.042 1.412zm-1.207-2.21v-.873a1.321 1.321 0 0 0-.454-1.072 1.143 1.143 0 0 0-.779-.286c-.433 0-.773.173-1.023.518-.25.346-.374.787-.374 1.326 0 .517.12.937.358 1.26.252.345.591.517 1.017.517.382 0 .689-.143.92-.43.223-.266.335-.586.335-.96zm7.546-.656c0 .209-.016.384-.043.528h-3.493c.015.517.183.912.506 1.185.295.245.675.367 1.142.367a3.85 3.85 0 0 0 1.412-.248l.183.809c-.496.215-1.082.323-1.757.323-.811 0-1.45-.239-1.913-.716-.464-.478-.695-1.12-.695-1.924 0-.79.215-1.448.647-1.972.452-.56 1.062-.84 1.83-.84.755 0 1.326.28 1.714.84.311.444.467.993.467 1.648zm-1.111-.302a1.585 1.585 0 0 0-.226-.895c-.202-.323-.51-.485-.926-.485-.382 0-.69.157-.928.474a1.752 1.752 0 0 0-.345.906h2.425zm7.351 3.168h-1.165v-3c0-.924-.35-1.386-1.055-1.386a1.05 1.05 0 0 0-.841.38 1.352 1.352 0 0 0-.324.899v3.106H72.83v-3.74c0-.46-.014-.959-.042-1.499h1.023l.055.82h.032a1.68 1.68 0 0 1 .603-.633 1.968 1.968 0 0 1 1.056-.294c.489 0 .895.157 1.219.474.4.388.603.967.603 1.736v3.137zm6.487-6.801a.666.666 0 0 1-.205.507.734.734 0 0 1-.528.194.664.664 0 0 1-.49-.198.675.675 0 0 1-.2-.502c0-.2.068-.366.205-.495a.713.713 0 0 1 .508-.196c.2 0 .368.066.505.195a.651.651 0 0 1 .205.495zm-.13 6.801h-1.165V9.686h1.166v5.238zm9.572 0h-1.141V11.99c0-.968-.333-1.451-.993-1.451a.919.919 0 0 0-.76.36c-.19.24-.286.52-.286.843v3.182h-1.141v-3.085c0-.395-.083-.71-.244-.947-.162-.237-.4-.354-.716-.354a.942.942 0 0 0-.777.386 1.388 1.388 0 0 0-.301.881v3.118h-1.143v-3.74c0-.46-.014-.959-.042-1.499h1l.055.797h.032c.36-.602.892-.904 1.596-.904.712 0 1.193.326 1.445.98h.022c.165-.274.37-.493.615-.657a1.814 1.814 0 0 1 1.065-.323c.47 0 .854.157 1.155.474.373.394.56.984.56 1.768v3.106h-.001z" fill="#FFF"/></g></svg>