<?xml version="1.0" encoding="UTF-8"?>
<svg width="150px" height="45px" viewBox="0 0 150 45" version="1.1" xmlns="http://www.w3.org/2000/svg" xmlns:xlink="http://www.w3.org/1999/xlink">
    <!-- Generator: Sketch 52.4 (67378) - http://www.bohemiancoding.com/sketch -->
    <title>google-play-ar</title>
    <desc>Created with Sketch.</desc>
    <defs>
        <linearGradient x1="91.488428%" y1="4.9481245%" x2="-38.3517333%" y2="71.9074222%" id="linearGradient-1">
            <stop stop-color="#00A0FF" offset="0%"></stop>
            <stop stop-color="#00A1FF" offset="1%"></stop>
            <stop stop-color="#00BEFF" offset="26%"></stop>
            <stop stop-color="#00D2FF" offset="51%"></stop>
            <stop stop-color="#00DFFF" offset="76%"></stop>
            <stop stop-color="#00E3FF" offset="100%"></stop>
        </linearGradient>
        <linearGradient x1="107.684729%" y1="50%" x2="-130.640394%" y2="50%" id="linearGradient-2">
            <stop stop-color="#FFE000" offset="0%"></stop>
            <stop stop-color="#FFBD00" offset="41%"></stop>
            <stop stop-color="#FFA500" offset="78%"></stop>
            <stop stop-color="#FF9C00" offset="100%"></stop>
        </linearGradient>
        <linearGradient x1="86.219293%" y1="17.8768889%" x2="-50.1497903%" y2="194.702638%" id="linearGradient-3">
            <stop stop-color="#FF3A44" offset="0%"></stop>
            <stop stop-color="#C31162" offset="100%"></stop>
        </linearGradient>
        <linearGradient x1="-18.7537448%" y1="-54.0521474%" x2="42.1210306%" y2="24.9170664%" id="linearGradient-4">
            <stop stop-color="#32A071" offset="0%"></stop>
            <stop stop-color="#2DA771" offset="7%"></stop>
            <stop stop-color="#15CF74" offset="48%"></stop>
            <stop stop-color="#06E775" offset="80%"></stop>
            <stop stop-color="#00F076" offset="100%"></stop>
        </linearGradient>
    </defs>
    <g id="App-Module" stroke="none" stroke-width="1" fill="none" fill-rule="evenodd">
        <g id="Arabic" transform="translate(0.000000, -104.000000)">
            <g id="google-play-ar" transform="translate(0.000000, 104.000000)">
                <rect id="Rectangle" fill="#000000" x="0" y="0" width="150" height="45" rx="7"></rect>
                <path d="M144.444444,0.9 C147.021773,0.9 149.111111,3.01545456 149.111111,5.625 L149.111111,39.375 C149.111111,41.9845454 147.021773,44.1 144.444444,44.1 L5.55555556,44.1 C2.97822672,44.1 0.888888889,41.9845454 0.888888889,39.375 L0.888888889,5.625 C0.888888889,3.01545456 2.97822672,0.9 5.55555556,0.9 L144.444444,0.9 Z M144.444444,0 L5.55555556,0 C2.48730695,1.99840144e-15 0,2.51839828 0,5.625 L0,39.375 C0,42.4816017 2.48730695,45 5.55555556,45 L144.444444,45 C147.512693,45 150,42.4816017 150,39.375 L150,5.625 C150,2.51839828 147.512693,1.99840144e-15 144.444444,0 Z" id="Shape" fill="#A6A6A6" fill-rule="nonzero"></path>
                <path d="M75.7111111,24.46875 C73.1060278,24.4811626 71.002971,26.6272663 71.0111343,29.2649294 C71.0192976,31.9025926 73.1355969,34.0353093 75.7407059,34.0311912 C78.3458149,34.0270732 80.4555267,31.8876761 80.4555556,29.25 C80.4738589,27.9724205 79.9791462,26.7420485 79.0847279,25.8406916 C78.1903096,24.9393348 76.9728182,24.4442201 75.7111111,24.46875 Z M75.7111111,32.1525 C74.5369193,32.2356434 73.4318588,31.5836027 72.9244681,30.5082417 C72.4170774,29.4328808 72.6104843,28.1527682 73.4121843,27.2801678 C74.2138843,26.4075674 75.4609309,26.1198364 76.5568754,26.5545934 C77.6528198,26.9893505 78.3749099,28.0582305 78.3777778,29.25 C78.4139364,29.9955059 78.1511474,30.7241919 77.6490448,31.2706992 C77.1469422,31.8172065 76.4481023,32.1351934 75.7111111,32.1525 Z M65.3666667,24.46875 C62.7601105,24.4749598 60.651475,26.6183402 60.6555614,29.2574824 C60.6596477,31.8966245 62.7749102,34.0333004 65.3814728,34.0312353 C67.9880353,34.0291703 70.0999928,31.8891454 70.1,29.25 C70.1183033,27.9724205 69.6235907,26.7420485 68.7291724,25.8406916 C67.8347541,24.9393348 66.6172626,24.4442201 65.3555556,24.46875 L65.3666667,24.46875 Z M65.3666667,32.1525 C64.1918619,32.2403322 63.0835795,31.5915427 62.572613,30.5168587 C62.0616466,29.4421746 62.2520253,28.1603942 63.0525704,27.2854051 C63.8531156,26.4104159 65.1008417,26.1203598 66.1981709,26.5541542 C67.2955001,26.9879487 68.0190238,28.0572762 68.0222222,29.25 C68.0583809,29.9955059 67.7955919,30.7241919 67.2934893,31.2706992 C66.7913866,31.8172065 66.0925468,32.1351934 65.3555556,32.1525 L65.3666667,32.1525 Z M53.0444444,25.9425 L53.0444444,27.9675 L57.8444444,27.9675 C57.7691816,28.9212793 57.3776051,29.8212688 56.7333333,30.52125 C55.7622476,31.5227527 54.4183814,32.0621153 53.0333333,32.00625 C50.0878147,32.00625 47.7,29.5885876 47.7,26.60625 C47.7,23.6239124 50.0878147,21.20625 53.0333333,21.20625 C54.3864397,21.1839062 55.6930688,21.7058086 56.6666667,22.6575 L58.0777778,21.22875 C56.7499106,19.8673404 54.9341316,19.1084109 53.0444444,19.125 C50.3544008,19.0190014 47.8226595,20.4116308 46.4465045,22.7543142 C45.0703495,25.0969976 45.0703495,28.0142524 46.4465045,30.3569358 C47.8226595,32.6996192 50.3544008,34.0922486 53.0444444,33.98625 C54.9686278,34.0742861 56.8363786,33.3153858 58.1666667,31.905 C59.3307508,30.6100368 59.9522701,28.9077314 59.9,27.1575 C59.9035854,26.7311117 59.8663746,26.3053742 59.7888889,25.88625 L53.0444444,25.9425 Z M103.388889,27.5175 C102.795644,25.7503613 101.186586,24.5374347 99.3444444,24.46875 C98.1159595,24.4663181 96.9412723,24.9788335 96.0993105,25.8846003 C95.2573486,26.790367 94.8232172,28.0085885 94.9,29.25 C94.8727122,30.5204581 95.3568493,31.7475319 96.2411691,32.6492708 C97.1254888,33.5510098 98.3339536,34.0498786 99.5888889,34.03125 C101.167621,34.0398663 102.645159,33.2453762 103.522222,31.91625 L101.911111,30.79125 C101.42194,31.6169349 100.53984,32.1211879 99.5888889,32.11875 C98.6039905,32.1567583 97.6962681,31.5812248 97.3,30.6675 L103.622222,28.02375 L103.388889,27.5175 Z M96.9444444,29.115 C96.8989466,28.4120598 97.1348064,27.7201631 97.5988518,27.19529 C98.0628973,26.6704169 98.7160669,26.3567494 99.4111111,26.325 C100.143744,26.2761205 100.834518,26.6745179 101.166667,27.3375 L96.9444444,29.115 Z M91.8111111,33.75 L93.8888889,33.75 L93.8888889,19.6875 L91.8111111,19.6875 L91.8111111,33.75 Z M88.4111111,25.5375 L88.3333333,25.5375 C87.6999579,24.8205114 86.794508,24.4112399 85.8444444,24.4125 C83.3223854,24.5363306 81.3403746,26.6427896 81.3403746,29.199375 C81.3403746,31.7559604 83.3223854,33.8624194 85.8444444,33.98625 C86.7975877,34.0024767 87.7089066,33.5905524 88.3333333,32.86125 L88.4,32.86125 L88.4,33.5475 C88.4,35.38125 87.4333333,36.36 85.8777778,36.36 C84.8181145,36.3348871 83.8785868,35.6636626 83.5,34.66125 L81.6888889,35.42625 C82.3863129,37.1439123 84.0435898,38.2610906 85.8777778,38.25 C88.3111111,38.25 90.3222222,36.79875 90.3222222,33.26625 L90.3222222,24.75 L88.4111111,24.75 L88.4111111,25.5375 Z M86.0333333,32.1525 C84.5476529,32.0199298 83.4081959,30.7600819 83.4081959,29.25 C83.4081959,27.7399181 84.5476529,26.4800702 86.0333333,26.3475 C86.751244,26.3848022 87.4238733,26.7139914 87.898722,27.2604335 C88.3735707,27.8068757 88.6104144,28.5242815 88.5555556,29.25 C88.6168164,29.9790556 88.3807305,30.701735 87.9021892,31.2500112 C87.4236479,31.7982873 86.7443449,32.1243905 86.0222222,32.1525 L86.0333333,32.1525 Z M113.122222,19.6875 L108.155556,19.6875 L108.155556,33.75 L110.233333,33.75 L110.233333,28.4175 L113.133333,28.4175 C114.747427,28.5349093 116.291082,27.7295726 117.133478,26.3305946 C117.975874,24.9316166 117.975874,23.1733834 117.133478,21.7744054 C116.291082,20.3754274 114.747427,19.5700907 113.133333,19.6875 L113.122222,19.6875 Z M113.122222,26.4375 L110.222222,26.4375 L110.222222,21.645 L113.166667,21.645 C114.482945,21.645 115.55,22.7253929 115.55,24.058125 C115.55,25.3908571 114.482945,26.47125 113.166667,26.47125 L113.122222,26.4375 Z M125.933333,24.4125 C124.387459,24.3189438 122.934096,25.162974 122.233333,26.56125 L124.077778,27.3375 C124.44934,26.6441267 125.190139,26.2382125 125.966667,26.3025 C126.499476,26.2394939 127.034948,26.3958414 127.452809,26.736424 C127.87067,27.0770066 128.135887,27.5732718 128.188889,28.11375 L128.188889,28.26 C127.521547,27.902249 126.777325,27.7167658 126.022222,27.72 C124.033333,27.72 122.022222,28.845 122.022222,30.88125 C122.061875,31.7584224 122.450267,32.5820582 123.099035,33.164772 C123.747803,33.7474859 124.601776,34.0397242 125.466667,33.975 C126.532477,34.0524935 127.555077,33.5348023 128.133333,32.625 L128.2,32.625 L128.2,33.75 L130.2,33.75 L130.2,28.33875 C130.2,25.875 128.355556,24.44625 125.988889,24.44625 L125.933333,24.4125 Z M125.677778,32.11875 C125,32.11875 124.055556,31.77 124.055556,30.92625 C124.055556,29.80125 125.233333,29.43 126.277778,29.43 C126.937824,29.4135097 127.590145,29.5766858 128.166667,29.9025 C128.022996,31.1618419 126.985026,32.1216081 125.733333,32.1525 L125.677778,32.11875 Z M137.488889,24.75 L135.111111,30.8475 L135.044444,30.8475 L132.577778,24.75 L130.355556,24.75 L134.055556,33.2775 L131.944444,38.01375 L134.111111,38.01375 L139.8,24.75 L137.488889,24.75 Z M118.811111,33.75 L120.888889,33.75 L120.888889,19.6875 L118.811111,19.6875 L118.811111,33.75 Z" id="Shape" fill="#FFFFFF" fill-rule="nonzero"></path>
                <path d="M11.6,8.4825 C11.23785,8.92249688 11.0550596,9.48576929 11.0888889,10.0575 L11.0888889,34.9425 C11.0550596,35.5142307 11.23785,36.0775031 11.6,36.5175 L11.6777778,36.59625 L25.4444444,22.66875 L25.4444444,22.3425 L11.6777778,8.40375 L11.6,8.4825 Z" id="Path" fill="url(#linearGradient-1)"></path>
                <path d="M30,27.315 L25.4444444,22.66875 L25.4444444,22.3425 L30,17.685 L30.1,17.74125 L35.5555556,20.88 C37.1111111,21.76875 37.1111111,23.23125 35.5555556,24.13125 L30.1222222,27.25875 L30,27.315 Z" id="Path" fill="url(#linearGradient-2)"></path>
                <path d="M30.1333333,27.2475 L25.4444444,22.5 L11.6,36.5175 C12.2541308,37.0997127 13.2249211,37.1280663 13.9111111,36.585 L30.1444444,27.2475" id="Path" fill="url(#linearGradient-3)"></path>
                <path d="M30.1333333,17.7525 L13.9,8.415 C13.21381,7.87193369 12.2430197,7.9002873 11.5888889,8.4825 L25.4444444,22.5 L30.1333333,17.7525 Z" id="Path" fill="url(#linearGradient-4)"></path>
                <path d="M30,27.14625 L13.9,36.4275 C13.2411539,36.9262535 12.3366238,36.9262535 11.6777778,36.4275 L11.6,36.50625 L11.6777778,36.585 C12.3353842,37.0875142 13.2423936,37.0875142 13.9,36.585 L30.1333333,27.2475 L30,27.14625 Z" id="Path" fill="#000000" opacity="0.2"></path>
                <path d="M11.6,36.36 C11.23785,35.9200031 11.0550596,35.3567307 11.0888889,34.785 L11.0888889,34.95375 C11.0550596,35.5254807 11.23785,36.0887531 11.6,36.52875 L11.6777778,36.45 L11.6,36.36 Z M35.5555556,23.9625 L30,27.14625 L30.1,27.2475 L35.5555556,24.12 C36.1856335,23.8203148 36.6094093,23.2024496 36.6666667,22.5 C36.5400328,23.1354427 36.1296733,23.6755784 35.5555556,23.9625 Z" id="Shape" fill="#000000" fill-rule="nonzero" opacity="0.12"></path>
                <path d="M13.9,8.5725 L35.5555556,21.0375 C36.1296733,21.3244216 36.5400328,21.8645573 36.6666667,22.5 C36.6094093,21.7975504 36.1856335,21.1796852 35.5555556,20.88 L13.9,8.415 C12.3444444,7.52625 11.0777778,8.26875 11.0777778,10.06875 L11.0777778,10.2375 C11.1111111,8.42625 12.3555556,7.68375 13.9,8.5725 Z" id="Path" fill="#FFFFFF" opacity="0.25"></path>
                <path d="M78.2555556,16.32375 C77.672032,16.351382 77.1012291,16.1452643 76.6666667,15.75 C76.251016,15.2790209 76.0389356,14.6591358 76.0777778,14.02875 C76.0618082,13.8040405 76.0618082,13.5784595 76.0777778,13.35375 C76.0777778,13.14 76.1777778,12.83625 76.2666667,12.43125 L76.7111111,12.54375 C76.6321592,12.8297968 76.5873948,13.1244029 76.5777778,13.42125 C76.5469492,13.9297904 76.7055319,14.4315557 77.0222222,14.8275 C77.3429257,15.1739216 77.7983916,15.3592088 78.2666667,15.33375 C78.8965962,15.3274083 79.5165089,15.1733809 80.0777778,14.88375 C80.5934834,14.6593693 81.0172109,14.2621249 81.2777778,13.75875 C80.8837839,13.0215187 80.61344,12.2231593 80.4777778,11.39625 C80.4745198,11.1871322 80.5367543,10.9823417 80.6555556,10.81125 C80.8250557,10.5937595 81.0368306,10.4137981 81.2777778,10.2825 C81.2777778,10.575 81.3703704,11.1075 81.5555556,11.88 C81.8321115,12.017019 82.1365776,12.0863802 82.4444444,12.0825 C82.471939,12.0787351 82.4995929,12.0881847 82.5192114,12.1080484 C82.53883,12.1279122 82.5481629,12.1559118 82.5444444,12.18375 L82.5444444,12.92625 C82.5481629,12.9540882 82.53883,12.9820878 82.5192114,13.0019516 C82.4995929,13.0218153 82.471939,13.0312649 82.4444444,13.0275 C82.1887662,13.033884 81.9347674,12.9839846 81.7,12.88125 L81.7,13.24125 C81.693843,13.7635647 81.5268165,14.2709078 81.2222222,14.6925 C80.8816228,15.1694785 80.431686,15.5555471 79.9111111,15.8175 C79.4073698,16.1182988 78.8395313,16.2919374 78.2555556,16.32375 Z M79.2333333,9.57375 C78.999954,9.90250324 78.7357649,10.2076695 78.4444444,10.485 C78.1317594,10.2422946 77.8382744,9.97523249 77.5666667,9.68625 C77.9814815,9.26625 78.2666667,8.9625 78.4222222,8.775 C78.6742061,9.05237004 78.9412884,9.31527917 79.2222222,9.5625 L79.2333333,9.57375 Z" id="Shape" stroke="#FFFFFF" stroke-width="0.2" fill="#FFFFFF" fill-rule="nonzero"></path>
                <path d="M82.5333333,13.08375 C82.5058388,13.0875149 82.4781849,13.0780653 82.4585664,13.0582016 C82.4389478,13.0383378 82.4296149,13.0103382 82.4333333,12.9825 L82.4333333,12.24 C82.4296149,12.2121618 82.4389478,12.1841622 82.4585664,12.1642984 C82.4781849,12.1444347 82.5058388,12.1349851 82.5333333,12.13875 C82.8131055,12.1494706 83.0891121,12.0707504 83.3222222,11.91375 C83.5615251,11.7313427 83.7524089,11.4916881 83.8777778,11.21625 L84.1222222,10.72125 C84.3398549,10.1914262 84.6525372,9.70700414 85.0444444,9.2925 C85.3085749,9.02959473 85.6629673,8.88042138 86.0333333,8.87625 C86.3236256,8.90632996 86.5849629,9.06757303 86.7444444,9.315 C87.0055075,9.64967156 87.2015596,10.0314076 87.3222222,10.44 C87.4639219,10.8720062 87.5388793,11.323578 87.5444444,11.77875 C87.5481517,12.0144477 87.5027184,12.248287 87.4111111,12.465 C87.2999054,12.6987234 87.1362964,12.9029018 86.9333333,13.06125 C86.4049666,13.0578135 85.8789407,12.9898219 85.3666667,12.85875 C84.8797319,12.7654299 84.4083573,12.6025531 83.9666667,12.375 C83.6524638,12.8620332 83.1072629,13.14446 82.5333333,13.1175 L82.5333333,13.08375 Z M86.6444444,12.13875 C86.6303998,11.6345793 86.5327425,11.1363866 86.3555556,10.665 C86.1777778,10.2 86.0037037,9.9675 85.8333333,9.9675 C85.6787501,9.9672382 85.5276992,10.0142964 85.4,10.1025 C85.2389714,10.2191441 85.0997586,10.3639066 84.9888889,10.53 C84.786604,10.8439305 84.6047372,11.1708731 84.4444444,11.50875 C85.136685,11.8656423 85.8920365,12.0797844 86.6666667,12.13875 L86.6444444,12.13875 Z M94.2,12.6 C93.8907595,12.5799598 93.58287,12.542401 93.2777778,12.4875 C93.0998974,12.4441284 92.9253639,12.38773 92.7555556,12.31875 C92.5641222,12.2425714 92.3784426,12.1523311 92.2,12.04875 C92.0420228,11.9642841 91.8962221,11.8582982 91.7666667,11.73375 C91.6846992,11.662207 91.6329926,11.5615283 91.6222222,11.4525 C91.6463863,11.2568968 91.7027204,11.0667693 91.7888889,10.89 C91.866223,10.6898103 91.9552697,10.4944641 92.0555556,10.305 C92.2674323,9.98395289 92.5438211,9.71177619 92.8666667,9.50625 C93.277101,9.21010089 93.7209817,8.96461437 94.1888889,8.775 L94.1888889,8.4375 C94.4598352,8.18984002 94.7581046,7.97466661 95.0777778,7.79625 L95.1888889,11.8125 C95.5746625,12.0340736 96.0121042,12.1467436 96.4555556,12.13875 C96.4830501,12.1349851 96.510704,12.1444347 96.5303225,12.1642984 C96.5499411,12.1841622 96.559274,12.2121618 96.5555556,12.24 L96.5555556,12.9825 C96.559274,13.0103382 96.5499411,13.0383378 96.5303225,13.0582016 C96.510704,13.0780653 96.4830501,13.0875149 96.4555556,13.08375 C96.0376882,13.1027806 95.6226596,13.0055083 95.2555556,12.8025 C94.968393,12.6307843 94.7725968,12.3375488 94.7222222,12.00375 L94.7222222,11.745 L94.2,12.6 Z M92.2222222,10.87875 C92.5407446,11.1567126 92.9225951,11.3500244 93.3333333,11.44125 C93.7677957,11.5367719 94.2109712,11.5857912 94.6555556,11.5875 L94.3444444,9.59625 C93.5315076,9.81199856 92.7956452,10.2566945 92.2222222,10.87875 Z" id="Shape" stroke="#FFFFFF" stroke-width="0.2" fill="#FFFFFF" fill-rule="nonzero"></path>
                <path d="M99.7444444,10.26 C99.8526296,10.26 99.9578964,10.2955275 100.044444,10.36125 C99.8962963,10.72125 99.7666667,11.02125 99.6555556,11.26125 C99.5979184,11.4006309 99.5311014,11.5359354 99.4555556,11.66625 C99.6922664,11.8264761 99.9504506,11.9514991 100.222222,12.0375 C100.475478,12.1081706 100.737325,12.1422575 101,12.13875 C101.027495,12.1349851 101.055148,12.1444347 101.074767,12.1642984 C101.094386,12.1841622 101.103718,12.2121618 101.1,12.24 L101.1,12.9825 C101.103718,13.0103382 101.094386,13.0383378 101.074767,13.0582016 C101.055148,13.0780653 101.027495,13.0875149 101,13.08375 C100.290461,13.1020541 99.6001608,12.8489938 99.0666667,12.375 L98.8666667,12.645 C98.5950648,12.8071498 98.2916365,12.9069967 97.9777778,12.9375 C97.4843205,13.0411966 96.9817502,13.0939664 96.4777778,13.095 C96.4502832,13.0987649 96.4226294,13.0893153 96.4030108,13.0694516 C96.3833923,13.0495878 96.3740594,13.0215882 96.3777778,12.99375 L96.3777778,12.25125 C96.3740594,12.2234118 96.3833923,12.1954122 96.4030108,12.1755484 C96.4226294,12.1556847 96.4502832,12.1462351 96.4777778,12.15 C96.9122949,12.1507245 97.3464456,12.124425 97.7777778,12.07125 C98.0396821,12.0550347 98.294395,11.9780506 98.5222222,11.84625 C98.7943722,11.5584026 99.0127187,11.2229771 99.1666667,10.85625 L99.3777778,10.4625 C99.4507929,10.3286352 99.5937547,10.2496813 99.7444444,10.26 Z M98.6333333,14.63625 C98.4255635,14.9447812 98.183209,15.2279166 97.9111111,15.48 C97.6202085,15.2523861 97.3488684,15.0002349 97.1,14.72625 C97.3148148,14.52375 97.5777778,14.24625 97.8888889,13.89375 L98.6333333,14.63625 Z M100.477778,14.45625 C100.266622,14.7654573 100.020509,15.0486269 99.7444444,15.3 C99.451911,15.0743523 99.1804064,14.8220483 98.9333333,14.54625 C99.1185185,14.37375 99.3814815,14.09625 99.7222222,13.71375 L100.477778,14.45625 Z" id="Shape" stroke="#FFFFFF" stroke-width="0.2" fill="#FFFFFF" fill-rule="nonzero"></path>
                <path d="M101.188889,13.08375 C101.161394,13.0875149 101.13374,13.0780653 101.114122,13.0582016 C101.094503,13.0383378 101.08517,13.0103382 101.088889,12.9825 L101.088889,12.24 C101.08517,12.2121618 101.094503,12.1841622 101.114122,12.1642984 C101.13374,12.1444347 101.161394,12.1349851 101.188889,12.13875 C101.651373,12.1392125 102.1077,12.0314052 102.522222,11.82375 C102.411111,10.95375 102.281481,9.38625 102.133333,7.12125 L102.011111,5.4675 C102.259851,5.20929876 102.53554,4.97920083 102.833333,4.78125 C102.885185,5.91375 102.925926,7.69125 102.955556,10.11375 L102.955556,11.8125 C103.341329,12.0340736 103.778771,12.1467436 104.222222,12.13875 C104.288889,12.13875 104.333333,12.13875 104.333333,12.24 L104.333333,12.9825 C104.333333,13.05 104.333333,13.08375 104.222222,13.08375 C103.718537,13.1134876 103.221242,12.957639 102.822222,12.645 C102.571151,12.7949487 102.302349,12.9121293 102.022222,12.99375 C101.748836,13.056395 101.469175,13.0865983 101.188889,13.08375 Z" id="Path" stroke="#FFFFFF" stroke-width="0.2" fill="#FFFFFF"></path>
                <path d="M104.333333,13.08375 C104.305839,13.0875149 104.278185,13.0780653 104.258566,13.0582016 C104.238948,13.0383378 104.229615,13.0103382 104.233333,12.9825 L104.233333,12.24 C104.229615,12.2121618 104.238948,12.1841622 104.258566,12.1642984 C104.278185,12.1444347 104.305839,12.1349851 104.333333,12.13875 L105.855556,12.13875 C105.650862,12.0002352 105.476816,11.8201823 105.344444,11.61 C105.201377,11.3976787 105.124014,11.1470219 105.122222,10.89 C105.126358,10.4981276 105.221515,10.1127401 105.4,9.765 C105.572303,9.4020772 105.822915,9.08297352 106.133333,8.83125 C106.394694,8.60682392 106.724074,8.47977748 107.066667,8.47125 C107.350543,8.47187562 107.629621,8.54542034 107.877778,8.685 C108.199784,8.87391914 108.501421,9.09637609 108.777778,9.34875 L108.566667,9.7425 C108.338762,9.64813083 108.104913,9.5692068 107.866667,9.50625 C107.704171,9.48857811 107.540273,9.48857811 107.377778,9.50625 C106.82641,9.51993612 106.28744,9.67474649 105.811111,9.95625 C105.797801,10.6602872 106.181448,11.3106018 106.8,11.6325 C107.144119,11.8144302 107.523319,11.9180942 107.911111,11.93625 C108.211379,11.8737021 108.508104,11.794838 108.8,11.7 C109.081481,11.61 109.477778,11.46375 109.988889,11.26125 C110.103783,11.3766871 110.164438,11.5363612 110.155556,11.7 L110.155556,11.82375 C110.11948,12.0950789 109.911586,12.3101478 109.644444,12.3525 C108.674074,12.6 107.933333,12.76875 107.422222,12.85875 C106.911111,12.94875 106.4,13.02 105.888889,13.0725 C105.407407,13.08 104.888889,13.08375 104.333333,13.08375 Z M119.266667,13.7475 L118.955556,11.745 C118.607407,9.6525 118.381481,8.19375 118.277778,7.36875 C118.193918,6.82834734 118.138285,6.28384006 118.111111,5.7375 C118.096739,5.5078062 118.163711,5.28044819 118.3,5.09625 C118.465807,4.9286386 118.679701,4.81838607 118.911111,4.78125 L118.911111,4.9275 L119.311111,6.255 L119.022222,6.51375 L119.022222,6.705 L119.422222,10.3725 C119.496296,10.905 119.551852,11.41875 119.588889,11.91375 C119.866609,12.0598229 120.175984,12.1332994 120.488889,12.1275 C120.516383,12.1237351 120.544037,12.1331847 120.563656,12.1530484 C120.583274,12.1729122 120.592607,12.2009118 120.588889,12.22875 L120.588889,12.97125 C120.592607,12.9990882 120.583274,13.0270878 120.563656,13.0469516 C120.544037,13.0668153 120.516383,13.0762649 120.488889,13.0725 C120.199261,13.0721821 119.913778,13.0028096 119.655556,12.87 L119.655556,13.275 C119.652737,13.7995706 119.489731,14.3104174 119.188889,14.7375 C118.853413,15.2149358 118.40692,15.6013241 117.888889,15.8625 C117.366458,16.1480158 116.782561,16.2987128 116.188889,16.30125 C115.585521,16.3319614 114.995808,16.1126245 114.555556,15.69375 C114.138808,15.2234245 113.926563,14.6030593 113.966667,13.9725 C113.95062,13.7477933 113.95062,13.5222067 113.966667,13.2975 C113.966667,13.08375 114.055556,12.78 114.155556,12.375 L114.6,12.4875 C114.521564,12.7736594 114.47681,13.0682027 114.466667,13.365 C114.435838,13.8735404 114.594421,14.3753057 114.911111,14.77125 C115.231815,15.1176716 115.687281,15.3029588 116.155556,15.2775 C116.567254,15.2747768 116.975962,15.2064401 117.366667,15.075 C117.764854,14.9501016 118.14018,14.7600926 118.477778,14.5125 C118.803422,14.3333039 119.075798,14.0691759 119.266667,13.7475 Z" id="Shape" stroke="#FFFFFF" stroke-width="0.2" fill="#FFFFFF" fill-rule="nonzero"></path>
                <path d="M130.211111,13.08375 C129.856168,13.0816765 129.505081,13.0090525 129.177778,12.87 C128.861187,12.7483292 128.573459,12.5605017 128.333333,12.31875 C127.922156,12.5786098 127.471765,12.7686186 127,12.88125 C126.488347,13.0156147 125.961916,13.0836588 125.433333,13.08375 C124.8248,13.0820816 124.217999,13.0180045 123.622222,12.8925 C123.107703,12.7983201 122.60974,12.6277302 122.144444,12.38625 L121.933333,12.6225 C121.571584,12.9563943 121.087263,13.1198526 120.6,13.0725 C120.572505,13.0762649 120.544852,13.0668153 120.525233,13.0469516 C120.505614,13.0270878 120.496282,12.9990882 120.5,12.97125 L120.5,12.22875 C120.496282,12.2009118 120.505614,12.1729122 120.525233,12.1530484 C120.544852,12.1331847 120.572505,12.1237351 120.6,12.1275 C120.901776,12.1418867 121.201634,12.0718237 121.466667,11.925 C121.744401,11.7195324 121.969245,11.4494344 122.122222,11.1375 L122.311111,10.78875 C122.390532,10.6489221 122.540924,10.5662605 122.7,10.575 C122.807522,10.5704128 122.912115,10.6111435 122.988889,10.6875 C122.818519,11.1075 122.696296,11.3925 122.622222,11.5425 C122.819918,11.6363418 123.024175,11.7153056 123.233333,11.77875 C124.788889,9.68625 126.118519,8.64 127.222222,8.64 C127.525787,8.66173601 127.819499,8.75828924 128.077778,8.92125 C128.419507,9.1120411 128.727431,9.35917852 128.988889,9.6525 C129.211936,9.85735139 129.354053,10.1371441 129.388889,10.44 C129.395025,10.9281575 129.229629,11.4026377 128.922222,11.77875 C129.316641,12.0101919 129.766476,12.126976 130.222222,12.11625 C130.288889,12.11625 130.333333,12.11625 130.333333,12.2175 L130.333333,12.96 C130.311111,13.05 130.277778,13.08375 130.211111,13.08375 Z M125.555556,12.13875 C126.721504,12.1073159 127.854534,11.7405265 128.822222,11.08125 C128.60405,10.6809695 128.300367,10.3350559 127.933333,10.06875 C127.638821,9.84073891 127.281615,9.71100922 126.911111,9.6975 C126.405437,9.74461261 125.925418,9.94450775 125.533333,10.27125 C124.889256,10.7594872 124.307087,11.3262624 123.8,11.95875 C124.378505,12.0730647 124.966161,12.133318 125.555556,12.13875 Z" id="Shape" stroke="#FFFFFF" stroke-width="0.2" fill="#FFFFFF" fill-rule="nonzero"></path>
                <path d="M130.266667,13.08375 C130.239172,13.0875149 130.211518,13.0780653 130.1919,13.0582016 C130.172281,13.0383378 130.162948,13.0103382 130.166667,12.9825 L130.166667,12.24 C130.162948,12.2121618 130.172281,12.1841622 130.1919,12.1642984 C130.211518,12.1444347 130.239172,12.1349851 130.266667,12.13875 C131.217329,12.1679274 132.167332,12.0618936 133.088889,11.82375 L133.766667,11.5875 C134.16672,11.4370502 134.579561,11.3240768 135,11.25 C134.664605,11.0778908 134.348045,10.8704971 134.055556,10.63125 C133.807161,10.4216865 133.539235,10.2370682 133.255556,10.08 C133.059633,9.97775266 132.842635,9.92378865 132.622222,9.9225 C132.248522,9.91642958 131.881354,10.0220871 131.566667,10.22625 L131.277778,10.40625 C131.15537,10.2765937 131.091073,10.1016361 131.1,9.9225 C131.095273,9.61519896 131.251716,9.32836899 131.511111,9.16875 C131.842622,8.95799739 132.231759,8.85949704 132.622222,8.8875 C132.864012,8.88139974 133.104906,8.91950992 133.333333,9 C133.660044,9.14842774 133.969368,9.33332294 134.255556,9.55125 C134.607801,9.81878366 134.979194,10.0594462 135.366667,10.27125 C135.654158,10.4243593 135.960576,10.5378648 136.277778,10.60875 C136.717748,10.6876551 137.164439,10.7215757 137.611111,10.71 L137.144444,11.62125 L136.455556,11.55375 L136.166667,11.55375 C135.891519,11.5510946 135.617713,11.5928688 135.355556,11.6775 C134.943143,11.8321849 134.542129,12.0164006 134.155556,12.22875 C133.633861,12.5150756 133.077235,12.7306749 132.5,12.87 C131.764065,13.0137191 131.016164,13.0852999 130.266667,13.08375 Z M139.166667,9 L139.166667,9.77625 C139.166667,10.57125 139.137037,11.65125 139.077778,13.01625 L138.522222,13.1175 C138.47037,10.2225 138.359259,7.8225 138.188889,5.9175 L138.188889,5.76 C138.174216,5.53374479 138.241356,5.30981399 138.377778,5.13 C138.54013,4.95762965 138.75571,4.84650749 138.988889,4.815 L138.988889,4.96125 L139.388889,6.28875 L139.055556,6.57 L139.055556,6.62625 C139.12963,7.45875 139.166667,8.25 139.166667,9 Z" id="Shape" stroke="#FFFFFF" stroke-width="0.2" fill="#FFFFFF" fill-rule="nonzero"></path>
            </g>
        </g>
    </g>
</svg>