<svg width="150" height="45" viewBox="0 0 150 45" xmlns="http://www.w3.org/2000/svg"><title>google-play-fr</title><defs><linearGradient x1="91.488%" y1="4.948%" x2="-38.352%" y2="71.907%" id="a"><stop stop-color="#00A0FF" offset="0%"/><stop stop-color="#00A1FF" offset="1%"/><stop stop-color="#00BEFF" offset="26%"/><stop stop-color="#00D2FF" offset="51%"/><stop stop-color="#00DFFF" offset="76%"/><stop stop-color="#00E3FF" offset="100%"/></linearGradient><linearGradient x1="107.685%" y1="50%" x2="-130.64%" y2="50%" id="b"><stop stop-color="#FFE000" offset="0%"/><stop stop-color="#FFBD00" offset="41%"/><stop stop-color="#FFA500" offset="78%"/><stop stop-color="#FF9C00" offset="100%"/></linearGradient><linearGradient x1="86.219%" y1="17.877%" x2="-50.15%" y2="194.703%" id="c"><stop stop-color="#FF3A44" offset="0%"/><stop stop-color="#C31162" offset="100%"/></linearGradient><linearGradient x1="-18.754%" y1="-54.052%" x2="42.121%" y2="24.917%" id="d"><stop stop-color="#32A071" offset="0%"/><stop stop-color="#2DA771" offset="7%"/><stop stop-color="#15CF74" offset="48%"/><stop stop-color="#06E775" offset="80%"/><stop stop-color="#00F076" offset="100%"/></linearGradient></defs><g fill="none"><rect fill="#000" x=".007" width="149.987" height="44.435" rx="7"/><path d="M144.438.889a4.666 4.666 0 0 1 4.667 4.665v33.327a4.666 4.666 0 0 1-4.667 4.666H5.562A4.666 4.666 0 0 1 .895 38.88V5.554A4.666 4.666 0 0 1 5.562.89h138.876zm0-.889H5.562A5.555 5.555 0 0 0 .007 5.554v33.327a5.555 5.555 0 0 0 5.555 5.554h138.876a5.555 5.555 0 0 0 5.555-5.554V5.554A5.555 5.555 0 0 0 144.438 0z" fill="#A6A6A6"/><path d="M75.711 24.162a4.722 4.722 0 1 0 4.744 4.721 4.654 4.654 0 0 0-4.744-4.721zm0 7.587a2.866 2.866 0 1 1 2.666-2.866 2.733 2.733 0 0 1-2.666 2.866zm-10.343-7.587a4.722 4.722 0 1 0 4.732 4.721 4.654 4.654 0 0 0-4.744-4.721h.012zm0 7.587a2.866 2.866 0 1 1 2.655-2.866 2.733 2.733 0 0 1-2.667 2.866h.012zm-12.322-6.132v2h4.8a4.188 4.188 0 0 1-1.111 2.521 4.911 4.911 0 0 1-3.7 1.467 5.333 5.333 0 1 1 0-10.665 5.111 5.111 0 0 1 3.633 1.433l1.411-1.41a6.989 6.989 0 0 0-5.033-2.078 7.344 7.344 0 1 0 0 14.675 6.666 6.666 0 0 0 5.122-2.055 6.665 6.665 0 0 0 1.733-4.688 6.52 6.52 0 0 0-.11-1.256l-6.745.056zm50.34 1.555a4.444 4.444 0 0 0-4.044-3.01 4.444 4.444 0 0 0-4.444 4.721 4.621 4.621 0 0 0 4.689 4.721 4.7 4.7 0 0 0 3.933-2.088l-1.611-1.111a2.7 2.7 0 0 1-2.322 1.31 2.4 2.4 0 0 1-2.289-1.432l6.322-2.61-.234-.5zm-6.443 1.578a2.588 2.588 0 0 1 2.466-2.755 1.833 1.833 0 0 1 1.755 1l-4.221 1.755zm-5.133 4.577h2.077V19.44H91.81v13.887zm-3.4-8.11h-.078a3.333 3.333 0 0 0-2.488-1.11 4.733 4.733 0 0 0 0 9.453 3.222 3.222 0 0 0 2.488-1.111h.067v.678c0 1.81-.967 2.777-2.522 2.777a2.61 2.61 0 0 1-2.378-1.678l-1.81.756a4.5 4.5 0 0 0 4.188 2.788c2.433 0 4.444-1.433 4.444-4.921v-8.41H88.41v.778zm-2.378 6.532a2.877 2.877 0 0 1 0-5.732 2.667 2.667 0 0 1 2.522 2.866 2.644 2.644 0 0 1-2.533 2.866h.011zM113.12 19.44h-4.966v13.887h2.077V28.06h2.9a4.322 4.322 0 1 0 0-8.62h-.011zm0 6.666h-2.9v-4.733h2.944a2.383 2.383 0 1 1 0 4.766l-.044-.033zm12.81-2a3.889 3.889 0 0 0-3.7 2.122l1.845.766a1.967 1.967 0 0 1 1.888-1.022 2 2 0 0 1 2.222 1.789v.144a4.589 4.589 0 0 0-2.166-.533c-1.989 0-4 1.111-4 3.122a3.21 3.21 0 0 0 3.444 3.055 2.922 2.922 0 0 0 2.667-1.333h.066v1.11h2v-5.343c0-2.433-1.844-3.843-4.21-3.843l-.056-.034zm-.256 7.61c-.677 0-1.622-.345-1.622-1.178 0-1.11 1.178-1.477 2.222-1.477a3.689 3.689 0 0 1 1.889.466 2.51 2.51 0 0 1-2.433 2.222l-.056-.033zm11.81-7.277l-2.377 6.021h-.067l-2.466-6.02h-2.222l3.7 8.42-2.111 4.677h2.166l5.688-13.098h-2.31zm-18.676 8.888h2.078V19.44h-2.078v13.887z" fill="#FFF"/><path d="M11.606 8.376c-.363.435-.545.99-.512 1.555v24.573c-.033.565.15 1.12.512 1.555l.077.078L25.45 22.384v-.322L11.683 8.298l-.077.078z" fill="url(#a)"/><path d="M30.004 26.972l-4.555-4.588v-.322l4.555-4.599.1.056 5.455 3.099c1.555.878 1.555 2.322 0 3.21l-5.433 3.089-.122.055z" fill="url(#b)"/><path d="M30.137 26.906l-4.688-4.688-13.843 13.841a1.811 1.811 0 0 0 2.31.067l16.232-9.22" fill="url(#c)"/><path d="M30.137 17.53L13.905 8.31a1.811 1.811 0 0 0-2.31.066l13.854 13.842 4.688-4.688z" fill="url(#d)"/><path d="M30.004 26.806L13.905 35.97a1.856 1.856 0 0 1-2.222 0l-.077.078.077.078a1.844 1.844 0 0 0 2.222 0l16.232-9.22-.133-.1z" fill="#000" opacity=".2"/><path d="M11.606 35.904a2.222 2.222 0 0 1-.512-1.555v.166c-.033.565.15 1.12.512 1.555l.077-.077-.077-.09zm23.953-12.242l-5.555 3.144.1.1 5.455-3.089a1.944 1.944 0 0 0 1.111-1.6 2.066 2.066 0 0 1-1.111 1.445z" fill="#000" opacity=".12"/><path d="M13.905 8.465L35.56 20.774c.574.283.984.816 1.111 1.444a1.944 1.944 0 0 0-1.111-1.6L13.905 8.309c-1.555-.877-2.822-.144-2.822 1.633v.167c.034-1.788 1.278-2.522 2.822-1.644z" fill="#FFF" opacity=".25"/><path d="M45.87 14.441V7.776h2.043a3.333 3.333 0 0 1 2.456.922c.625.643.959 1.515.922 2.41a3.266 3.266 0 0 1-.922 2.411 3.333 3.333 0 0 1-2.456.922H45.87zm.855-.822h1.177a2.5 2.5 0 0 0 1.834-.666c.47-.495.715-1.162.677-1.844a2.322 2.322 0 0 0-2.5-2.51H46.67l.056 5.02zm5.765.822V7.776h.845v6.665zm4.256.145a2.489 2.489 0 0 1-1.422-.478 2.222 2.222 0 0 1-.911-1.333l.778-.31c.089.358.287.68.566.921.267.244.616.379.978.378.341.011.677-.09.955-.289a.933.933 0 0 0 .4-.8 1.022 1.022 0 0 0-.4-.855 4.1 4.1 0 0 0-1.255-.567 3.333 3.333 0 0 1-1.344-.722 1.51 1.51 0 0 1-.456-1.11c0-.478.207-.931.567-1.245a2.08 2.08 0 0 1 1.466-.544c.494-.023.981.127 1.378.422.317.231.557.552.689.922l-.778.322a1.11 1.11 0 0 0-.411-.589 1.456 1.456 0 0 0-1.7 0 .833.833 0 0 0-.344.69.777.777 0 0 0 .322.632c.286.205.606.359.944.456.28.088.554.192.822.31.236.11.46.245.667.4.22.157.396.368.511.612.122.268.183.56.178.855.005.3-.063.599-.2.867a1.622 1.622 0 0 1-.533.6c-.219.15-.458.265-.711.344-.246.073-.5.11-.756.11zm4.366-.145h-.855V7.776h2.222a2.111 2.111 0 0 1 1.466.567 1.933 1.933 0 0 1 0 2.844 2.1 2.1 0 0 1-1.466.566h-1.367v2.688zm0-3.521h1.434a1.11 1.11 0 0 0 .866-.367 1.11 1.11 0 0 0 0-1.6 1.111 1.111 0 0 0-.866-.366h-1.434v2.333zm9.999 2.655a3.467 3.467 0 0 1-4.888 0 3.599 3.599 0 0 1 0-4.943 3.444 3.444 0 0 1 4.888 0 3.588 3.588 0 0 1 0 4.943zm-4.255-.555a2.567 2.567 0 0 0 3.622 0 2.844 2.844 0 0 0 0-3.822 2.567 2.567 0 0 0-3.622 0 2.844 2.844 0 0 0 0 3.822zm6.422 1.421V7.776h1.044l3.244 5.188V7.776h.856v6.665h-.889L74.145 9.01v5.431zm6.666 0V7.776h.855v6.665zm2.378 0V7.776h2.41c.501-.01.986.174 1.356.511.376.326.587.802.578 1.3.005.296-.08.587-.245.833-.163.24-.39.428-.655.544.322.107.605.308.81.578.214.272.328.61.323.955a1.744 1.744 0 0 1-.6 1.356 2.056 2.056 0 0 1-1.422.544l-2.555.044zm.855-3.81h1.555a1 1 0 0 0 .778-.322.989.989 0 0 0 .045-1.422.956.956 0 0 0-.745-.322h-1.633v2.066zm0 2.988H84.9c.305.01.598-.116.8-.344a1.11 1.11 0 0 0 .311-.755 1.11 1.11 0 0 0-1.11-1.111h-1.723v2.21zm4.866.822V7.776h.845v5.843h2.888v.822zm8.711-5.843H93.72v2.11h2.733v.8H93.72v2.111h3.033v.822h-3.889V7.776h3.889zm5.177 5.988a2.489 2.489 0 0 1-1.422-.478 2.222 2.222 0 0 1-.911-1.333l.778-.31c.089.358.287.68.566.921.267.244.616.379.978.378.341.011.677-.09.955-.289a.933.933 0 0 0 .4-.8 1.022 1.022 0 0 0-.4-.855 4.1 4.1 0 0 0-1.255-.567 3.333 3.333 0 0 1-1.344-.722 1.51 1.51 0 0 1-.456-1.11c0-.478.207-.931.567-1.245a2.078 2.078 0 0 1 1.477-.533c.495-.023.981.127 1.378.422.317.231.557.553.689.922l-.778.322a1.11 1.11 0 0 0-.411-.589 1.456 1.456 0 0 0-1.7 0 .833.833 0 0 0-.344.69.775.775 0 0 0 .322.632c.286.205.606.359.944.456.28.088.554.192.822.31.236.11.46.245.667.4.22.157.396.368.511.612.122.268.183.56.178.855.005.301-.063.599-.2.867a1.622 1.622 0 0 1-.533.6c-.219.15-.458.266-.711.344a2.69 2.69 0 0 1-.767.1zm5.777 0a2.344 2.344 0 0 1-1.788-.722 2.655 2.655 0 0 1-.69-1.9V7.776h.856v4.222a1.91 1.91 0 0 0 .411 1.277c.65.663 1.71.688 2.389.056a1.91 1.91 0 0 0 .411-1.278V7.776h.856v4.188a2.7 2.7 0 0 1-.667 1.9 2.333 2.333 0 0 1-1.778.722zm3.844-.145V7.776h2.222a2.111 2.111 0 0 1 1.467.567c.758.697.832 1.868.167 2.655a1.978 1.978 0 0 1-1.111.677l1.866 2.766h-1.01l-1.823-2.699h-.955v2.7h-.823zm.856-3.499h1.378c.324.007.639-.113.877-.333a1.11 1.11 0 0 0 .367-.844 1.177 1.177 0 0 0-.322-.8 1.111 1.111 0 0 0-.867-.367h-1.433v2.344z" stroke="#FFF" stroke-width=".2" fill="#FFF"/></g></svg>