<svg width="150" height="45" viewBox="0 0 150 45" xmlns="http://www.w3.org/2000/svg"><title>google-play-es</title><defs><linearGradient x1="91.488%" y1="4.948%" x2="-38.352%" y2="71.907%" id="a"><stop stop-color="#00A0FF" offset="0%"/><stop stop-color="#00A1FF" offset="1%"/><stop stop-color="#00BEFF" offset="26%"/><stop stop-color="#00D2FF" offset="51%"/><stop stop-color="#00DFFF" offset="76%"/><stop stop-color="#00E3FF" offset="100%"/></linearGradient><linearGradient x1="107.685%" y1="50%" x2="-130.64%" y2="50%" id="b"><stop stop-color="#FFE000" offset="0%"/><stop stop-color="#FFBD00" offset="41%"/><stop stop-color="#FFA500" offset="78%"/><stop stop-color="#FF9C00" offset="100%"/></linearGradient><linearGradient x1="86.219%" y1="17.877%" x2="-50.15%" y2="194.703%" id="c"><stop stop-color="#FF3A44" offset="0%"/><stop stop-color="#C31162" offset="100%"/></linearGradient><linearGradient x1="-18.754%" y1="-54.052%" x2="42.121%" y2="24.917%" id="d"><stop stop-color="#32A071" offset="0%"/><stop stop-color="#2DA771" offset="7%"/><stop stop-color="#15CF74" offset="48%"/><stop stop-color="#06E775" offset="80%"/><stop stop-color="#00F076" offset="100%"/></linearGradient></defs><g fill="none"><rect fill="#000" width="149.985" height="44.44" rx="7"/><path d="M144.43.889a4.666 4.666 0 0 1 4.666 4.666v33.33a4.666 4.666 0 0 1-4.666 4.666H5.555a4.666 4.666 0 0 1-4.666-4.666V5.555A4.666 4.666 0 0 1 5.555.889H144.43zm0-.889H5.555A5.555 5.555 0 0 0 0 5.555v33.33a5.555 5.555 0 0 0 5.555 5.555H144.43a5.555 5.555 0 0 0 5.555-5.555V5.555A5.555 5.555 0 0 0 144.43 0z" fill="#A6A6A6"/><path d="M75.704 24.164a4.722 4.722 0 1 0 4.744 4.722 4.655 4.655 0 0 0-4.744-4.722zm0 7.588a2.866 2.866 0 1 1 2.666-2.866 2.733 2.733 0 0 1-2.666 2.866zM65.36 24.164a4.722 4.722 0 1 0 4.733 4.722 4.655 4.655 0 0 0-4.744-4.722h.011zm0 7.588a2.866 2.866 0 1 1 2.655-2.866 2.733 2.733 0 0 1-2.666 2.866h.011zM53.04 25.62v2h4.799a4.188 4.188 0 0 1-1.111 2.521 4.91 4.91 0 0 1-3.7 1.467 5.333 5.333 0 1 1 0-10.666 5.11 5.11 0 0 1 3.633 1.434l1.411-1.411a6.988 6.988 0 0 0-5.033-2.078 7.344 7.344 0 1 0 0 14.676 6.666 6.666 0 0 0 5.122-2.055 6.666 6.666 0 0 0 1.733-4.688 6.522 6.522 0 0 0-.111-1.256l-6.744.056zm50.339 1.555a4.444 4.444 0 0 0-4.044-3.01 4.444 4.444 0 0 0-4.444 4.721 4.622 4.622 0 0 0 4.688 4.722 4.7 4.7 0 0 0 3.933-2.089l-1.611-1.11a2.7 2.7 0 0 1-2.322 1.31 2.4 2.4 0 0 1-2.289-1.433l6.322-2.611-.233-.5zm-6.444 1.578a2.589 2.589 0 0 1 2.466-2.756 1.833 1.833 0 0 1 1.756 1l-4.222 1.756zm-5.133 4.577h2.077V19.442h-2.077V33.33zm-3.4-8.11h-.078a3.333 3.333 0 0 0-2.488-1.111 4.733 4.733 0 0 0 0 9.454 3.222 3.222 0 0 0 2.488-1.11h.067v.677c0 1.81-.966 2.778-2.522 2.778a2.61 2.61 0 0 1-2.377-1.678l-1.811.755a4.5 4.5 0 0 0 4.188 2.789c2.433 0 4.444-1.433 4.444-4.922v-8.41h-1.91v.778zm-2.377 6.532a2.877 2.877 0 0 1 0-5.732 2.666 2.666 0 0 1 2.522 2.866 2.644 2.644 0 0 1-2.533 2.866h.01zm27.086-12.31h-4.966V33.33h2.077v-5.266h2.9a4.322 4.322 0 1 0 0-8.622h-.011zm0 6.666h-2.9v-4.732h2.944a2.383 2.383 0 0 1 0 4.766l-.044-.034zm12.81-2a3.888 3.888 0 0 0-3.7 2.123l1.844.766a1.966 1.966 0 0 1 1.89-1.022 2 2 0 0 1 2.221 1.789v.144a4.588 4.588 0 0 0-2.166-.533c-1.99 0-4 1.111-4 3.122a3.21 3.21 0 0 0 3.444 3.055 2.922 2.922 0 0 0 2.667-1.333h.066v1.111h2v-5.344c0-2.433-1.844-3.844-4.21-3.844l-.056-.033zm-.256 7.611c-.678 0-1.622-.344-1.622-1.178 0-1.11 1.178-1.477 2.222-1.477a3.689 3.689 0 0 1 1.889.466 2.51 2.51 0 0 1-2.433 2.222l-.056-.033zm11.81-7.277l-2.377 6.022h-.067l-2.466-6.022h-2.222l3.7 8.421-2.112 4.678h2.167l5.688-13.099h-2.31zM118.8 33.33h2.078V19.442H118.8V33.33z" fill="#FFF"/><path d="M11.599 8.377a2.22 2.22 0 0 0-.511 1.555v24.576c-.034.564.149 1.12.51 1.555l.079.078 13.765-13.754v-.323L11.677 8.3l-.078.078z" fill="url(#a)"/><path d="M29.997 26.975l-4.555-4.588v-.323l4.555-4.6.1.056 5.455 3.1c1.555.878 1.555 2.322 0 3.21l-5.433 3.09-.122.055z" fill="url(#b)"/><path d="M30.13 26.908l-4.688-4.688-13.843 13.843a1.81 1.81 0 0 0 2.31.067l16.232-9.222" fill="url(#c)"/><path d="M30.13 17.532L13.9 8.31a1.81 1.81 0 0 0-2.311.067L25.442 22.22l4.688-4.688z" fill="url(#d)"/><path d="M29.997 26.808l-16.098 9.166a1.855 1.855 0 0 1-2.222 0l-.078.078.078.078a1.844 1.844 0 0 0 2.222 0l16.231-9.222-.133-.1z" fill="#000" opacity=".2"/><path d="M11.599 35.908a2.222 2.222 0 0 1-.511-1.556v.167c-.034.564.149 1.12.51 1.555l.079-.078-.078-.088zm23.953-12.244l-5.555 3.144.1.1 5.455-3.088a1.944 1.944 0 0 0 1.111-1.6 2.066 2.066 0 0 1-1.111 1.444z" fill="#000" opacity=".12"/><path d="M13.899 8.466l21.653 12.31c.574.283.984.816 1.111 1.444a1.944 1.944 0 0 0-1.111-1.6L13.899 8.31c-1.556-.877-2.822-.144-2.822 1.633v.167c.033-1.789 1.277-2.522 2.822-1.644z" fill="#FFF" opacity=".25"/><path d="M45.862 14.443V7.777h2.033a3.333 3.333 0 0 1 2.456.922 3.27 3.27 0 0 1 .933 2.411 3.266 3.266 0 0 1-.922 2.41 3.333 3.333 0 0 1-2.456.923h-2.044zm.856-.822h1.177a2.5 2.5 0 0 0 1.833-.667c.47-.495.716-1.162.678-1.844a2.322 2.322 0 0 0-2.5-2.51h-1.188v5.02zm5.766.822V7.777h.844v6.666zm4.266.144a2.489 2.489 0 0 1-1.422-.477 2.222 2.222 0 0 1-.911-1.334l.777-.31c.09.358.288.68.567.922.267.243.616.378.978.377.341.012.677-.09.955-.289a.933.933 0 0 0 .4-.8 1.022 1.022 0 0 0-.4-.855 4.088 4.088 0 0 0-1.255-.567 3.333 3.333 0 0 1-1.345-.722 1.511 1.511 0 0 1-.455-1.11c0-.478.207-.931.567-1.245a2.078 2.078 0 0 1 1.455-.544 2.14 2.14 0 0 1 1.378.422c.317.231.557.552.688.922l-.777.322a1.111 1.111 0 0 0-.411-.589 1.455 1.455 0 0 0-1.7 0 .833.833 0 0 0-.345.69c0 .25.12.486.323.632.286.205.606.359.944.456.28.088.554.192.822.31.236.11.459.245.667.4.22.157.396.368.51.612.123.268.183.56.179.855a1.85 1.85 0 0 1-.2.867 1.622 1.622 0 0 1-.534.6 2.62 2.62 0 0 1-.71.344c-.242.072-.493.11-.745.111zm4.355-.144h-.855V7.777h2.222a2.11 2.11 0 0 1 1.466.567 1.933 1.933 0 0 1 0 2.844 2.1 2.1 0 0 1-1.466.566h-1.367v2.689zm0-3.522h1.433c.33.012.646-.122.867-.367a1.111 1.111 0 0 0 0-1.6 1.111 1.111 0 0 0-.867-.366h-1.433v2.333zm9.999 2.655a3.466 3.466 0 0 1-4.888 0 3.6 3.6 0 0 1 0-4.944 3.444 3.444 0 0 1 4.888 0 3.589 3.589 0 0 1 0 4.944zm-4.255-.555a2.566 2.566 0 0 0 3.622 0 2.844 2.844 0 0 0 0-3.822 2.566 2.566 0 0 0-3.622 0 2.844 2.844 0 0 0 0 3.822zm6.477 1.422V7.777h1.044l3.244 5.188V7.777h.856v6.666h-.889L74.193 9.01v5.433zm6.666 0V7.777h.855v6.666zm2.333 0V7.777h2.411c.5-.01.986.173 1.355.511.372.328.58.804.567 1.3.005.296-.08.587-.244.833-.164.24-.39.428-.656.545.322.106.605.308.811.577.214.272.327.61.322.956a1.744 1.744 0 0 1-.6 1.355 2.055 2.055 0 0 1-1.422.545l-2.544.044zm.856-3.81h1.555a1 1 0 0 0 .778-.323.989.989 0 0 0 .033-1.422.955.955 0 0 0-.744-.322H83.18v2.066zm0 2.988h1.722c.304.01.598-.116.8-.345.195-.203.307-.473.31-.755a1.11 1.11 0 0 0-1.11-1.111H83.18v2.21zm4.855.822V7.777h.844v5.844h2.889v.822zM96.757 8.6h-3.044v2.11h2.733v.8h-2.733v2.11h3.033v.823h-3.889V7.777h3.889zm7.466 0h-3.033v2.11h2.733v.8h-2.733v2.11h3.033v.823h-3.889V7.777h3.889zm1.322 5.843V7.777h1.111l3.244 5.188V7.777h.856v6.666h-.89l-3.388-5.433v5.433z" stroke="#FFF" stroke-width=".2" fill="#FFF"/></g></svg>