<svg width="150" height="45" viewBox="0 0 150 45" xmlns="http://www.w3.org/2000/svg"><title>google-play-zh</title><defs><linearGradient x1="91.488%" y1="4.948%" x2="-38.352%" y2="71.907%" id="a"><stop stop-color="#00A0FF" offset="0%"/><stop stop-color="#00A1FF" offset="1%"/><stop stop-color="#00BEFF" offset="26%"/><stop stop-color="#00D2FF" offset="51%"/><stop stop-color="#00DFFF" offset="76%"/><stop stop-color="#00E3FF" offset="100%"/></linearGradient><linearGradient x1="107.685%" y1="50%" x2="-130.64%" y2="50%" id="b"><stop stop-color="#FFE000" offset="0%"/><stop stop-color="#FFBD00" offset="41%"/><stop stop-color="#FFA500" offset="78%"/><stop stop-color="#FF9C00" offset="100%"/></linearGradient><linearGradient x1="86.219%" y1="17.877%" x2="-50.15%" y2="194.703%" id="c"><stop stop-color="#FF3A44" offset="0%"/><stop stop-color="#C31162" offset="100%"/></linearGradient><linearGradient x1="-18.754%" y1="-54.052%" x2="42.121%" y2="24.917%" id="d"><stop stop-color="#32A071" offset="0%"/><stop stop-color="#2DA771" offset="7%"/><stop stop-color="#15CF74" offset="48%"/><stop stop-color="#06E775" offset="80%"/><stop stop-color="#00F076" offset="100%"/></linearGradient></defs><g fill-rule="nonzero" fill="none"><rect fill="#000" width="149.985" height="44.44" rx="7"/><path d="M144.43.889a4.666 4.666 0 0 1 4.666 4.666v33.33a4.666 4.666 0 0 1-4.666 4.666H5.555a4.666 4.666 0 0 1-4.666-4.666V5.555A4.666 4.666 0 0 1 5.555.889H144.43zm0-.889H5.555A5.555 5.555 0 0 0 0 5.555v33.33a5.555 5.555 0 0 0 5.555 5.555H144.43a5.555 5.555 0 0 0 5.555-5.555V5.555A5.555 5.555 0 0 0 144.43 0z" fill="#A6A6A6"/><path d="M75.704 24.164a4.722 4.722 0 1 0 4.744 4.722 4.655 4.655 0 0 0-4.744-4.722zm0 7.588a2.866 2.866 0 1 1 2.666-2.866 2.733 2.733 0 0 1-2.666 2.866zM65.36 24.164a4.722 4.722 0 1 0 4.733 4.722 4.655 4.655 0 0 0-4.744-4.722h.011zm0 7.588a2.866 2.866 0 1 1 2.655-2.866 2.733 2.733 0 0 1-2.666 2.866h.011zM53.04 25.62v2h4.799a4.188 4.188 0 0 1-1.111 2.521 4.91 4.91 0 0 1-3.7 1.467 5.333 5.333 0 1 1 0-10.666 5.11 5.11 0 0 1 3.633 1.434l1.411-1.411a6.988 6.988 0 0 0-5.033-2.078 7.344 7.344 0 1 0 0 14.676 6.666 6.666 0 0 0 5.122-2.055 6.666 6.666 0 0 0 1.733-4.688 6.522 6.522 0 0 0-.111-1.256l-6.744.056zm50.339 1.555a4.444 4.444 0 0 0-4.044-3.01 4.444 4.444 0 0 0-4.444 4.721 4.622 4.622 0 0 0 4.688 4.722 4.7 4.7 0 0 0 3.933-2.089l-1.611-1.11a2.7 2.7 0 0 1-2.322 1.31 2.4 2.4 0 0 1-2.289-1.433l6.322-2.611-.233-.5zm-6.444 1.578a2.589 2.589 0 0 1 2.466-2.756 1.833 1.833 0 0 1 1.756 1l-4.222 1.756zm-5.133 4.577h2.077V19.442h-2.077V33.33zm-3.4-8.11h-.078a3.333 3.333 0 0 0-2.488-1.111 4.733 4.733 0 0 0 0 9.454 3.222 3.222 0 0 0 2.488-1.11h.067v.677c0 1.81-.966 2.778-2.522 2.778a2.61 2.61 0 0 1-2.377-1.678l-1.811.755a4.5 4.5 0 0 0 4.188 2.789c2.433 0 4.444-1.433 4.444-4.922v-8.41h-1.91v.778zm-2.377 6.532a2.877 2.877 0 0 1 0-5.732 2.666 2.666 0 0 1 2.522 2.866 2.644 2.644 0 0 1-2.533 2.866h.01zm27.086-12.31h-4.966V33.33h2.077v-5.266h2.9a4.322 4.322 0 1 0 0-8.622h-.011zm0 6.666h-2.9v-4.732h2.944a2.383 2.383 0 0 1 0 4.766l-.044-.034zm12.81-2a3.888 3.888 0 0 0-3.7 2.123l1.844.766a1.966 1.966 0 0 1 1.89-1.022 2 2 0 0 1 2.221 1.789v.144a4.588 4.588 0 0 0-2.166-.533c-1.99 0-4 1.111-4 3.122a3.21 3.21 0 0 0 3.444 3.055 2.922 2.922 0 0 0 2.667-1.333h.066v1.111h2v-5.344c0-2.433-1.844-3.844-4.21-3.844l-.056-.033zm-.256 7.611c-.678 0-1.622-.344-1.622-1.178 0-1.11 1.178-1.477 2.222-1.477a3.689 3.689 0 0 1 1.889.466 2.51 2.51 0 0 1-2.433 2.222l-.056-.033zm11.81-7.277l-2.377 6.022h-.067l-2.466-6.022h-2.222l3.7 8.421-2.112 4.678h2.167l5.688-13.099h-2.31zM118.8 33.33h2.078V19.442h-2.078V33.33z" fill="#FFF"/><path d="M11.599 8.377c-.362.434-.545.99-.511 1.555v24.576c-.034.564.149 1.12.51 1.555l.079.078 13.765-13.754v-.323L11.677 8.3l-.078.078z" fill="url(#a)"/><path d="M29.997 26.975l-4.555-4.588v-.323l4.555-4.6.1.056 5.455 3.1c1.555.878 1.555 2.322 0 3.21l-5.433 3.09-.122.055z" fill="url(#b)"/><path d="M30.13 26.908l-4.688-4.688-13.843 13.843a1.81 1.81 0 0 0 2.31.067l16.232-9.222" fill="url(#c)"/><path d="M30.13 17.532L13.9 8.31a1.81 1.81 0 0 0-2.311.067L25.442 22.22l4.688-4.688z" fill="url(#d)"/><path d="M29.997 26.808l-16.098 9.166a1.855 1.855 0 0 1-2.222 0l-.078.078.078.078a1.844 1.844 0 0 0 2.222 0l16.231-9.222-.133-.1z" fill="#000" opacity=".2"/><path d="M11.599 35.908a2.222 2.222 0 0 1-.511-1.556v.167c-.034.564.149 1.12.51 1.555l.079-.078-.078-.088zm23.953-12.244l-5.555 3.144.1.1 5.455-3.088a1.944 1.944 0 0 0 1.111-1.6 2.066 2.066 0 0 1-1.111 1.444z" fill="#000" opacity=".12"/><path d="M13.899 8.466l21.653 12.31c.574.283.984.816 1.111 1.444a1.944 1.944 0 0 0-1.111-1.6L13.899 8.31c-1.556-.877-2.822-.144-2.822 1.633v.167c.033-1.789 1.277-2.522 2.822-1.644z" fill="#FFF" opacity=".25"/><path d="M49.65 8.4v1.443l.1-.122a19.998 19.998 0 0 1 2.878 1.678l-.422.544a18.531 18.531 0 0 0-2.555-1.61v4.266h-.645v-6.2h-3.088v-.622h7.154v.6l-3.421.022zm11.21 1.688a10.61 10.61 0 0 1-1.222 2.777c.223.7.523 1.111.878 1.111.356 0 .289-.344.333-1.3.132.137.29.243.467.312-.1 1.21-.289 1.566-.855 1.566-.567 0-.923-.4-1.222-1.11-.34.44-.732.84-1.167 1.188a2.31 2.31 0 0 0-.422-.411c.53-.388.99-.865 1.355-1.411a16.043 16.043 0 0 1-.466-3.333h-4.533v-.489h1.955v-.689H54.44V7.81h1.544v-.644h.578v.644h1.422v.49H56.54v.688h1.988v-1.81h.59v1.81h2.1v.489h-2.1c.04.873.145 1.742.31 2.6a9.788 9.788 0 0 0 .89-2.222l.544.233zm-2.577 3.244l-1.455.156v1.11h-.567v-1.044l-2.1.222-.066-.555 2.166-.178v-.822h-1.055c-.221-.02-.444.018-.645.111a3.61 3.61 0 0 0-.189-.555c.123 0 .245-.19.378-.4.133-.211.167-.311.311-.59h-.91V10.3h1.11a6.51 6.51 0 0 0 .3-.789l.589.167a6.163 6.163 0 0 1-.267.622h2.378v.489H55.65a9.861 9.861 0 0 1-.522.91h1.11v-.588h.567v.655h1.278v.456h-1.266v.755l1.455-.133.011.489zm2.222-4.644a5.81 5.81 0 0 0-.978-1.111l.434-.278a4.9 4.9 0 0 1 1 1.022l-.456.367zm2.966.122v1.633a9.588 9.588 0 0 1-.766 4.222 2.122 2.122 0 0 0-.511-.333 8.688 8.688 0 0 0 .677-3.889V8.221h3.222a8.821 8.821 0 0 0-.433-.944l.589-.144c.201.357.376.728.522 1.11h2.71v.578l-6.01-.01zm6.11 4.833v.578h-5.998v-.578h3.188a14.82 14.82 0 0 0 1.711-4.277l.633.222a18.32 18.32 0 0 1-1.722 4.055h2.189zm-4.699-.867A21.109 21.109 0 0 0 64.005 10l.522-.211c.368.892.672 1.81.91 2.744l-.555.244zm1.545-.455a22.442 22.442 0 0 0-.678-2.766l.544-.145c.292.899.526 1.816.7 2.744l-.566.167zm11.02 1.467c0 .388-.1.566-.366.677a5.288 5.288 0 0 1-1.533.09 2.355 2.355 0 0 0-.2-.59h1.267c.155 0 .222-.055.222-.21v-1.623h-2.222v2.389h-.6v-2.389h-1.967a4.655 4.655 0 0 1-1.01 2.511 1.989 1.989 0 0 0-.467-.4 5.255 5.255 0 0 0 .977-3.555V7.777h5.9v6.01zm-3.332-2.222V10.21h-1.978v1.344l1.978.012zm-1.933-3.211v1.3h1.933V8.344l-1.933.01zm4.721 0h-2.222v1.3h2.222v-1.3zm0 3.21V10.21h-2.222v1.344l2.222.012zm2.256 2.878c.55-.153.953-.622 1.022-1.189h-.189a.555.555 0 0 1-.611-.577.567.567 0 0 1 .611-.59c.444 0 .689.367.689.934a1.933 1.933 0 0 1-1.4 1.844l-.122-.422zm7.499-1.878c.051.175.122.342.211.5-.59.412-1.143.873-1.655 1.378a2.41 2.41 0 0 0-.311-.511.811.811 0 0 0 .377-.689V10.31h-1.21v-.578h1.788v3.456l.8-.623zm-.889-3.577a9.999 9.999 0 0 0-1.166-1.211l.388-.356c.44.362.85.76 1.223 1.19l-.445.377zm5.644.822v.467H86.57V9.81h2.111v-.566h-1.666V8.81h1.666V8.3h-1.866v-.467h1.866v-.634h.589v.634h1.944v.466H89.27v.511h1.7v.434h-1.7v.566h2.144zm-.633 4.11c0 .312-.067.467-.278.556a3.566 3.566 0 0 1-1.166.09 2.322 2.322 0 0 0-.178-.523h.9c.1 0 .155 0 .155-.133v-.578h-2.5v1.244h-.566v-3.833h3.666l-.033 3.178zm-3.1-2.71v.622h2.533v-.622H87.68zm2.533 1.7v-.689h-2.5v.655l2.5.034zm6.444.31v.545l-4.155.59-.1-.6 1.866-.223V12.11h-1.51v-.556h1.544v-.966h.589v.966h1.522v.556H94.89v1.344l1.766-.233zm-1.111-4.532c.496.551.925 1.159 1.278 1.81l-.467.279c-.078-.145-.167-.311-.278-.5-1.277.089-2.577.155-3.5.21V9.91h.734c.234-.524.434-1.062.6-1.61h-1.389v-.523h4.133v.533h-2.144c-.2.511-.434 1.111-.667 1.589l1.867-.078c-.2-.289-.434-.577-.645-.833l.478-.3zm2.055 3.933h-.577V8.177h.577v4.444zm1.911-5.2v6.367c0 .41-.1.6-.366.7a5.01 5.01 0 0 1-1.4.1 3.544 3.544 0 0 0-.2-.623h1.189c.155 0 .2 0 .2-.2V7.421h.577z" stroke="#FFF" stroke-width=".2" fill="#FFF"/></g></svg>