<svg width="150" height="45" viewBox="0 0 150 45" xmlns="http://www.w3.org/2000/svg"><title>google-play-nl</title><defs><linearGradient x1="91.488%" y1="4.948%" x2="-38.352%" y2="71.907%" id="a"><stop stop-color="#00A0FF" offset="0%"/><stop stop-color="#00A1FF" offset="1%"/><stop stop-color="#00BEFF" offset="26%"/><stop stop-color="#00D2FF" offset="51%"/><stop stop-color="#00DFFF" offset="76%"/><stop stop-color="#00E3FF" offset="100%"/></linearGradient><linearGradient x1="107.685%" y1="50%" x2="-130.64%" y2="50%" id="b"><stop stop-color="#FFE000" offset="0%"/><stop stop-color="#FFBD00" offset="41%"/><stop stop-color="#FFA500" offset="78%"/><stop stop-color="#FF9C00" offset="100%"/></linearGradient><linearGradient x1="86.219%" y1="17.877%" x2="-50.15%" y2="194.703%" id="c"><stop stop-color="#FF3A44" offset="0%"/><stop stop-color="#C31162" offset="100%"/></linearGradient><linearGradient x1="-18.754%" y1="-54.052%" x2="42.121%" y2="24.917%" id="d"><stop stop-color="#32A071" offset="0%"/><stop stop-color="#2DA771" offset="7%"/><stop stop-color="#15CF74" offset="48%"/><stop stop-color="#06E775" offset="80%"/><stop stop-color="#00F076" offset="100%"/></linearGradient></defs><g fill="none"><rect fill="#000" width="150" height="44.444" rx="7"/><path d="M144.444.889a4.667 4.667 0 0 1 4.667 4.667v33.333a4.667 4.667 0 0 1-4.667 4.667H5.556a4.667 4.667 0 0 1-4.667-4.667V5.556A4.667 4.667 0 0 1 5.556.889h138.888zm0-.889H5.556A5.556 5.556 0 0 0 0 5.556v33.333a5.556 5.556 0 0 0 5.556 5.555h138.888A5.556 5.556 0 0 0 150 38.89V5.556A5.556 5.556 0 0 0 144.444 0z" fill="#A6A6A6"/><path d="M75.711 24.167a4.722 4.722 0 1 0 4.745 4.722 4.656 4.656 0 0 0-4.745-4.722zm0 7.589a2.867 2.867 0 1 1 2.667-2.867 2.733 2.733 0 0 1-2.667 2.867zm-10.344-7.59A4.722 4.722 0 1 0 70.1 28.89a4.656 4.656 0 0 0-4.744-4.722h.01zm0 7.59a2.867 2.867 0 1 1 2.655-2.867 2.733 2.733 0 0 1-2.666 2.867h.01zm-12.323-6.134v2h4.8a4.189 4.189 0 0 1-1.11 2.522 4.911 4.911 0 0 1-3.7 1.467 5.333 5.333 0 0 1 0-10.667 5.111 5.111 0 0 1 3.633 1.434l1.41-1.411a6.989 6.989 0 0 0-5.033-2.078 7.344 7.344 0 1 0 0 14.678 6.667 6.667 0 0 0 5.123-2.056 6.667 6.667 0 0 0 1.733-4.689 6.522 6.522 0 0 0-.111-1.255l-6.745.055zm50.345 1.556a4.444 4.444 0 0 0-4.045-3.011 4.444 4.444 0 0 0-4.444 4.722 4.622 4.622 0 0 0 4.689 4.722 4.7 4.7 0 0 0 3.933-2.089l-1.61-1.11a2.7 2.7 0 0 1-2.323 1.31A2.4 2.4 0 0 1 97.3 30.29l6.322-2.611-.233-.5zm-6.445 1.578A2.589 2.589 0 0 1 99.411 26a1.833 1.833 0 0 1 1.756 1l-4.223 1.756zm-5.133 4.577h2.078V19.444H91.81v13.89zm-3.4-8.11h-.078a3.333 3.333 0 0 0-2.489-1.112 4.733 4.733 0 0 0 0 9.456 3.222 3.222 0 0 0 2.49-1.111h.066v.677c0 1.811-.967 2.778-2.522 2.778-1.06-.025-2-.688-2.378-1.678l-1.811.756a4.5 4.5 0 0 0 4.189 2.789c2.433 0 4.444-1.434 4.444-4.922v-8.412h-1.91v.778zm-2.378 6.533a2.878 2.878 0 0 1 0-5.734 2.667 2.667 0 0 1 2.523 2.867 2.644 2.644 0 0 1-2.534 2.867h.011zm27.09-12.312h-4.967v13.89h2.077v-5.267h2.9a4.322 4.322 0 1 0 0-8.623h-.01zm0 6.667h-2.9v-4.733h2.944a2.383 2.383 0 0 1 0 4.766l-.045-.033zm12.81-2a3.889 3.889 0 0 0-3.7 2.122l1.845.767a1.967 1.967 0 0 1 1.889-1.022 2 2 0 0 1 2.222 1.789v.144a4.589 4.589 0 0 0-2.167-.533c-1.989 0-4 1.11-4 3.122a3.211 3.211 0 0 0 3.445 3.056 2.922 2.922 0 0 0 2.666-1.334h.067v1.111h2V27.99c0-2.433-1.844-3.845-4.211-3.845l-.056-.033zm-.255 7.611c-.678 0-1.622-.344-1.622-1.178 0-1.11 1.177-1.477 2.222-1.477a3.689 3.689 0 0 1 1.889.466 2.511 2.511 0 0 1-2.434 2.223l-.055-.034zm11.81-7.278l-2.377 6.023h-.067l-2.466-6.023h-2.222l3.7 8.423-2.112 4.677h2.167l5.689-13.1h-2.311zm-18.677 8.89h2.078v-13.89h-2.078v13.89z" fill="#FFF"/><path d="M11.6 8.378a2.22 2.22 0 0 0-.511 1.555v24.578a2.222 2.222 0 0 0 .511 1.556l.078.077L25.444 22.39v-.322L11.678 8.3l-.078.078z" fill="url(#a)"/><path d="M30 26.978l-4.556-4.59v-.321l4.556-4.6.1.055 5.456 3.1c1.555.878 1.555 2.322 0 3.211l-5.434 3.09-.122.055z" fill="url(#b)"/><path d="M30.133 26.911l-4.689-4.689L11.6 36.067a1.811 1.811 0 0 0 2.311.066l16.233-9.222" fill="url(#c)"/><path d="M30.133 17.533L13.9 8.311a1.811 1.811 0 0 0-2.311.067l13.855 13.844 4.69-4.689z" fill="url(#d)"/><path d="M30 26.811l-16.1 9.167a1.856 1.856 0 0 1-2.222 0l-.078.078.078.077a1.844 1.844 0 0 0 2.222 0l16.233-9.222-.133-.1z" fill="#000" opacity=".2"/><path d="M11.6 35.911a2.222 2.222 0 0 1-.511-1.555v.166a2.222 2.222 0 0 0 .511 1.556l.078-.078-.078-.089zm23.956-12.244L30 26.81l.1.1 5.456-3.089a1.944 1.944 0 0 0 1.11-1.6 2.067 2.067 0 0 1-1.11 1.445z" fill="#000" opacity=".12"/><path d="M13.9 8.467l21.656 12.31c.574.284.984.818 1.11 1.445a1.944 1.944 0 0 0-1.11-1.6L13.9 8.312c-1.556-.879-2.822-.145-2.822 1.632v.167c.033-1.789 1.278-2.522 2.822-1.644z" fill="#FFF" opacity=".25"/><path d="M51.356 13.578a3.467 3.467 0 0 1-4.89 0 3.6 3.6 0 0 1 0-4.945 3.456 3.456 0 0 1 4.89 0 3.589 3.589 0 0 1 0 4.945zm-4.256-.556a2.567 2.567 0 0 0 3.622 0 2.844 2.844 0 0 0 0-3.822 2.567 2.567 0 0 0-3.622 0 2.844 2.844 0 0 0 0 3.822zm6.433 1.422V7.778h1.045l3.2 5.189v-5.19h.855v6.667h-.855l-3.334-5.433v5.433zm8.945 0h-.856V8.6h-1.866v-.822h4.577V8.6h-1.855zm2.944 0V7.778h2.034a3.333 3.333 0 0 1 2.455.922c.626.643.959 1.515.922 2.411a3.267 3.267 0 0 1-.922 2.411 3.333 3.333 0 0 1-2.455.922h-2.034zm.856-.822h1.178a2.5 2.5 0 0 0 1.833-.666c.483-.49.74-1.158.711-1.845A2.322 2.322 0 0 0 67.5 8.6h-1.222v5.022zM75.933 8.6H72.89v2.111h2.733v.8H72.89v2.111h3.033v.822h-3.889V7.778h3.89zm6.289-.822l-2.478 2.855 2.634 3.811h-1.056l-2.222-3.11-1.022 1.177v1.933h-.856V7.778h.856v3.433l3.033-3.433zm3.256 6.666V7.778h.855v2.855h3.334V7.778h.855v6.666h-.855v-3.01h-3.334v3.01zM95.944 8.6h-3.033v2.111h2.733v.8h-2.733v2.111h3.033v.822h-3.888V7.778h3.888zm3.623 5.844h-.856V8.6h-1.867v-.822h4.578V8.6h-1.855zm10.533-.866a3.467 3.467 0 0 1-4.889 0 3.6 3.6 0 0 1 0-4.945 3.444 3.444 0 0 1 4.889 0 3.589 3.589 0 0 1 0 4.945zm-4.256-.556a2.567 2.567 0 0 0 3.623 0 2.844 2.844 0 0 0 0-3.822 2.567 2.567 0 0 0-3.623 0 2.844 2.844 0 0 0 0 3.822zm7.289 1.422h-.855V7.778h2.222a2.111 2.111 0 0 1 1.467.566 1.933 1.933 0 0 1 0 2.845 2.1 2.1 0 0 1-1.467.567h-1.411l.044 2.688zm0-3.522h1.434c.329.012.646-.122.866-.366a1.111 1.111 0 0 0 0-1.6 1.111 1.111 0 0 0-.866-.367h-1.434v2.333z" stroke="#FFF" stroke-width=".2" fill="#FFF"/></g></svg>