<svg width="31" height="33" viewBox="0 0 31 33" xmlns="http://www.w3.org/2000/svg"><path class="filter__icon" d="M0 17.808l.264 4.753 29.598-.567L29.85 17zm22.786-4.946l-6.04-2.111-3.597 2.834-5.12-2.236-3.597 2.284-3.666-1.014L0 16.214l4.599.553 4.278-1.915 4.641 1.738L17.614 14l5.59 2.484 6.766-4.754L27.815 9zM19.744 6.47a1.067 1.067 0 1 1 0-2.135c.59 0 1.281.477 1.281 1.067s-.691 1.068-1.281 1.068zm-5.926-1.08c-.787 0-1.17-.561-1.17-1.144 0-.583.587-.966 1.17-.966s1.056.145 1.056 1.055c0 .583-.473 1.056-1.056 1.056zM9.072 7.33c-.475.457-1.077.383-1.406-.1-.299-.443-.377-.99 0-1.367s1.047-.498 1.424-.12c.377.377.366 1.217-.018 1.588zM23.046 0l6.471 7.117S.559 11.363.687 11.342l3.377-8.686L23.046 0zM0 24.383s30.368-1.005 30.24-.999l-4.91 7.957-19.837.695L0 24.383z" fill-rule="evenodd"/></svg>
