<svg width="45" height="39" viewBox="0 0 45 39" xmlns="http://www.w3.org/2000/svg"><path d="M19.662 10.444l-7.308 3.009-6.018 6.445-1.117-2.065 5.997-6.026 6.88-2.864-4.369-1.187-7.694 3.123-5.185 6.96 2.25 6.068h9.813l6.751-8.197v-5.266zm6.116 13.268l-1.296 5.813 1.466 3.816-2.434-.132-1.488-3.542 1.297-6.819 5.209-6.156-.008-.015-7.584 2.082-2.825 9.665 1.933 7.584 5.427 2.974L31.2 34.52l.892-11.375-2.442-4.427-3.872 4.993zm6.508-19.293l-4.804 1.104-.238 2.083 5.112-.946 7.529 1.296 4.751 2.475-.191 2.48-4.321 1.816-9.113-.105-7.109-4.533.838-5.82L35.337.816l9.672 4.832-.206 2.648-4.463-2.79-8.054-1.086z"/></svg>
