<svg width="31px" height="40px" viewBox="0 0 31 40"  xmlns="http://www.w3.org/2000/svg"><path d="M6.903 17.938l.044.123 2.934 8.111 20.317-.555-3.872 22.824L6.18 43.288 6.16 19.242 3.35 23.453l-2.428-1.04 5.234-6.362V16l.04.002.001-.002.001.002 23.23 1.011-1.67 5.713-16.54 1.134-4.23-7.41h-.624l.538 1.488zm24.796-.763l5.169 5.213-1.598 1.332-4.19-4.297.619-2.248z"/><path d="M20.005 23.024l-1.286.085L12.256 5.52l1.998-.56 5.75 18.064zm3.76-.249l-1.182.079-.905-21.92 2.243.145-.156 21.696z"/></svg>
