<svg width="33" height="41" viewBox="0 0 33 41" xmlns="http://www.w3.org/2000/svg"><defs><path id="a" d="M21.814.924H.513v14.61h21.3V.924z"/></defs><path d="M20.752.924L.512 14.644l.529.89L21.814 2.712z"/><path d="M32.419 7.926L8.416 15.198l.184 1.056 24.24-6.12zm-.973 15.028L.185 22.751l3.213 12.825 5.08 2.096-.361 2.892 13.939.422.095-3.119 6.482-3.09zm-8.216-6.819l-2.72 2.75 4.933 2.647s1.981-4.285 1.624-4.146c-.358.14-3.837-1.25-3.837-1.25m-5.161-.581l-5.209 1.53.811 3.8s4.46.505 4.521.239c.062-.267-.123-5.57-.123-5.57m-11.428 1.04l-2.199 3.76 3.584.72 1.128-1.449z"/></svg>
