<svg width="43" height="31" viewBox="0 0 43 31" xmlns="http://www.w3.org/2000/svg"><path d="M13.09 16.282l1.68-.573.081 1.832-1.231.293-.53-1.552zm4.26-1.32l1.484-.863.537 1.573-1.157.534-.864-1.244zm-5.03 7.342l-1.15-1.278.839-1.023 1.328 1.093-1.017 1.208zm14.986-.582l-1.501.84-.812-1.043 1.357-1.055.956 1.258zm-11.144-.758l.246-1.702 1.323-.009.01 1.72-1.58-.009zm5.288-2.503l1.419.97-.747 1.092-1.55-.75.878-1.312zm.94-2.6l1.122-1.302 1.002.864-.917 1.456-1.208-1.019zm-11.864 9.803l1.852 2.615 3.551 1.365 3.528 1.11 3.316-.76 4.196-3.166 1.52-2.42.272-4.278-2.442-5.125-3.557-2.66-5.793-.262-4.3 1.888-3.435 5.755 1.292 5.938z"/><path d="M39.237 11.736l-1.714-.137.342-1.542 1.674.392-.302 1.287zM36.5 16.133l-.811-1.043 1.356-1.056.956 1.257-1.5.842zM34.227 7.51l1.122-1.302 1.001.864-.915 1.456-1.208-1.018zm-2.868 4.575l.247-1.703 1.323-.008.009 1.72-1.58-.01zm-1.4-6.094l1.484-.864.536 1.572-1.156.536-.864-1.244zm-3.225 3.754l-.529-1.554 1.679-.572.082 1.831-1.232.295zM39.85 6.347l-3.557-2.66-5.794-.263-4.3 1.888-2.967 4.97 4.19 3.25.365.272.195.41 1.982 4.203.206.432-.031.477.069 1.894 2.78.875 3.317-.76 4.194-3.166 1.52-2.421.272-4.278-2.441-5.123zM8.82 5.402l.962.908-1.18 1.249-1.138-1.097 1.356-1.06zm.292-3.91l1.461.904-.696 1.125-1.581-.678.816-1.351zm3.014 7.789l-.612 1.608-1.384-.76.844-1.498 1.152.65zm3.178-5.026l.878 1.476-1.36.668-.752-1.03 1.234-1.114zM4.22 9.048l-1.398-.732.813-1.515 1.165.627-.58 1.62zm7.482 3.594l4.527-2.244.394-.173.428.02 3.234-.167-1.57-6.295-4.41-2.976L8.785.37 4 3.08.884 7.825.572 12.1l1.177 2.605 3.726 3.707 2.291.195 3.936-5.965z"/></svg>
