<svg width="29" height="28" viewBox="0 0 29 28" xmlns="http://www.w3.org/2000/svg"><path d="M4.327 20.065L.8 18.882 3.626 7.747 13.571 0h10.602l.453 2.931-11.055 1.74-6.301 6.344-2.943 9.05zm17.27 2.171c-.469.813-1.697.92-2.905.33-.814-.4-.81-1.416-.722-2.035.05-.338.184-.656.396-.924.29-.369.776-.85 1.337-.864.912-.024 1.697.385 2.14 1.125.445.74.223 1.554-.246 2.368zM18.753 8.593c.233-.895 1.326-1.028 1.873-1.037.208-.003.412.038.6.123.387.176 1.042.55 1.176 1.121.19.821.006 1.512-.582 2.05-.588.538-1.366.489-2.189.214-.823-.273-1.189-1.269-.878-2.471zm-5.607 8.036c-.585.494-1.22.63-1.899.378-.678-.254-.96-.903-1.077-1.681-.12-.78.534-1.488 1.636-1.733.818-.182 1.378.648 1.612 1.086.089.167.14.348.15.537.016.385-.016 1.07-.422 1.413zm1.373-10.406l-5.832 5.952-2.674 8.315L28.4 28.005 24.779 4.52 14.52 6.223z"/></svg>
