<svg width="43" height="36" viewBox="0 0 43 36" xmlns="http://www.w3.org/2000/svg"><path d="M14.393 11.694l-.575-3.024 1.199-2.26 2.852 2.269-.576 5.09-2.9-2.075zm26.058 7.383l.134 2.725-4.009 3.197-6.964-1.646-3.976-2.902.525-6.6 6.688 5.93 7.602-.704zm2.224-7.383v4.384l-6.423 2.266-2.62-.417-5.869-5.515 8.755-5.061 6.157 4.343zm-23.16-4.25l-5.242-2.971.004-1.726 5.186-2.34 2.781.04 5.894 3.137-8.623 3.86zm9.092 2.433l-4.251 1.95-.716 7.328-4.446-3.89.292-5.066 4.32-2.868 7.84-3.1 3.626 2.278-6.665 3.368zM11.768 27.938l7.852-3.054-1.503 8.702L5.846 35.05l-4.308-3.007-.934-7.158 4.145 2.24 7.02.814zm-1.006-8.209l2.439 1.3-2.912 1.871-3.833-2.295 4.306-.876zm5.12 5.155l3.38-2.83-.94-3.137-4.146-1.506-5.933-.526-6.34 1.053-.974 4.31 6.907 3.82 8.046-1.184z"/></svg>
