<svg width="31" height="39" viewBox="0 0 31 39" xmlns="http://www.w3.org/2000/svg"><path d="M21.533 20.378l3.62-1.398-1.044-3.427 1.226-3.534-2.287-3.216.716-3.28-3.989-.288-.858 3.822 2.195 3.258-1.196 3.482 1.617 4.581zm-3.742-2.063l.151-5.776-2.475-3.041.861-5.238L11.66.904 9.437 4.362l2.742 1.643-.985 4.712 2.233 2.52.294 4.917 4.07.162zm-8.357 2.887l1.218-5.327L8.6 11.343l.412-4.185-4.2-.513-.763 4.957 2.036 4.59-1.066 4.017 4.416.995zm21.221.984l-.938 7.398-5.09 8.005-12.74.815-6.07-2.75-4.007-5.596-1.007-5.994 29.852-1.878z"/></svg>
