<svg xmlns="http://www.w3.org/2000/svg" viewBox="0 0 419.53 126"><g fill="#FFF"><path d="M40.27 86.076c0-.302 0-.644-.04-.993-.302-1.462-1.462-2.71-3.099-2.71-2.589 0-3.749 2.321-3.749 5.124 0 3.233 1.596 4.95 3.749 4.95 1.549 0 2.757-1.113 3.011-2.535.087-.436.127-.952.127-1.422v-2.414zm7.753-18.518v23.857c0 2.629.087 5.299.174 6.72h-6.895l-.295-2.884h-.087c-1.422 2.408-3.964 3.354-6.419 3.354-4.91 0-9.001-4.259-9.001-10.932-.047-7.109 4.48-11.201 9.477-11.201 2.321 0 4.259.684 5.211 2.026h.08v-10.94h7.755zM54.136 84.094c0-3.36-.087-5.386-.168-7.15h6.627l.262 3.836h.174c1.113-3.233 3.83-4.306 5.641-4.306.684 0 .986 0 1.549.127v7.277a8.603 8.603 0 0 0-1.985-.215c-2.28 0-3.83.946-4.219 2.669a6.063 6.063 0 0 0-.127 1.335V98.13h-7.753V84.094zM86.48 84.135c0-2.797-.087-5.252-.174-7.19h6.68l.342 2.716h.168c.778-1.12 2.804-3.193 6.338-3.193 4.95 0 7.619 3.36 7.619 9.175v12.488H99.7V86.59c0-2.455-.858-3.877-2.71-3.877-1.509 0-2.2 1.04-2.542 1.858-.174.382-.215.986-.215 1.543v12.019H86.48V84.135zM121.107 85.557h.087c.476-.946.905-1.804 1.382-2.582l3.481-6.03h9.262l-7.317 8.531 8.397 12.656h-9.557l-4.185-8.095-1.549 2.066v6.03h-7.747V67.556h7.747v18.001zM151.038 88.445c-3.146 0-4.95.905-4.95 2.757 0 1.335.905 2.019 2.193 2.019 1.12 0 2.327-.771 2.669-1.932.087-.349.087-.738.087-1.12v-1.724zm7.538 4.521c0 2.106.087 4.091.342 5.171h-6.975l-.429-1.858h-.134c-1.502 1.683-3.615 2.327-5.895 2.327-4.306 0-6.975-3.146-6.975-6.673 0-5.688 5.077-8.183 12.267-8.223v-.174c0-.858-.644-1.811-3.441-1.811-2.24 0-4.608.778-5.989 1.596l-1.375-4.95c1.375-.691 4.393-1.898 8.786-1.898 7.277 0 9.819 4.044 9.819 9.343v7.15zM169.861 76.943l1.247 7.8c.342 2.106.691 4.521 1.033 7.016h.087c.389-2.495.986-4.956 1.422-6.975l1.677-7.84h6.07l1.596 7.539c.516 2.368 1.033 4.782 1.422 7.277h.087c.262-2.495.644-4.956 1.033-7.364l1.294-7.451h7.579l-6.331 21.187h-7.324l-1.462-6.284c-.429-1.979-.731-3.749-1.167-6.466h-.08c-.302 2.716-.651 4.567-1.12 6.378l-1.549 6.372h-7.324l-6.077-21.187h7.887zM209.393 88.445c-3.146 0-4.95.905-4.95 2.757 0 1.335.899 2.019 2.2 2.019 1.113 0 2.321-.771 2.663-1.932.087-.349.087-.738.087-1.12v-1.724zm7.538 4.521c0 2.106.087 4.091.342 5.171h-6.975l-.429-1.858h-.134c-1.509 1.683-3.615 2.327-5.895 2.327-4.306 0-6.982-3.146-6.982-6.673 0-5.688 5.084-8.183 12.281-8.223v-.174c0-.858-.651-1.811-3.447-1.811-2.24 0-4.608.778-5.989 1.596l-1.375-4.95c1.375-.691 4.393-1.898 8.786-1.898 7.277 0 9.819 4.044 9.819 9.343v7.15zM222.94 84.094c0-3.36-.087-5.386-.174-7.15h6.633l.262 3.836h.168c1.12-3.233 3.836-4.306 5.641-4.306.691 0 .993 0 1.556.127v7.277a8.558 8.558 0 0 0-1.985-.215c-2.28 0-3.83.946-4.219 2.669a6.063 6.063 0 0 0-.127 1.335V98.13h-7.753V84.094zM253.775 84.996c0-1.207-.557-3.441-3.011-3.441-2.287 0-3.186 2.106-3.32 3.441h6.331zm-6.244 5.259c.262 1.677 2.71 2.629 5.426 2.629 2.026 0 3.924-.221 5.815-.825l.986 5.171c-2.535 1.033-5.292 1.375-7.921 1.375-7.451 0-11.67-4.132-11.67-10.852 0-4.95 3.186-11.281 10.986-11.281 6.841 0 9.772 5.037 9.772 10.852 0 1.294-.174 2.415-.302 2.931h-13.092zM269.371 98.606c-2.582 0-4.393-1.891-4.393-4.521 0-2.669 1.851-4.521 4.44-4.521 2.582 0 4.386 1.804 4.433 4.521 0 2.629-1.811 4.521-4.433 4.521h-.047zM294.789 97.702c-1.288.563-3.488.905-5.855.905-7.022 0-11.456-4.132-11.456-10.892 0-6.036 4.132-11.241 12.401-11.241 1.549 0 3.4.215 4.91.731l-1.12 5.728c-.731-.302-1.764-.563-3.313-.563-2.931 0-4.956 1.979-4.956 5.084 0 3.441 2.415 5.084 5.124 5.084 1.335 0 2.461-.134 3.407-.523l.858 5.687zM305.723 87.538c0 3.146 1.033 5.594 3.447 5.594 2.066 0 3.233-2.193 3.233-5.594 0-2.931-.952-5.6-3.273-5.6-2.548 0-3.407 2.804-3.407 5.6m14.689-.214c0 7.713-5.513 11.281-11.456 11.281-6.331 0-11.241-4.044-11.241-10.939 0-6.714 4.433-11.194 11.67-11.194 6.633 0 11.027 4.48 11.027 10.852M328.058 98.606c-2.589 0-4.393-1.891-4.393-4.521 0-2.669 1.851-4.521 4.433-4.521 2.589 0 4.393 1.804 4.433 4.521 0 2.629-1.804 4.521-4.433 4.521h-.04zM358.138 90.897c0 3.018.087 5.426.174 7.237h-6.68l-.342-2.797h-.174c-.771 1.16-2.629 3.266-6.419 3.266-4.735 0-7.492-3.052-7.492-9.168V76.946h7.753v11.241c0 2.71.905 4.178 2.716 4.178 1.462 0 2.193-.993 2.495-1.811.174-.302.215-.691.215-1.12V76.946h7.753v13.951zM372.048 85.557h.08c.476-.946.905-1.804 1.382-2.582l3.488-6.03h9.262l-7.324 8.531 8.397 12.656h-9.557l-4.178-8.095-1.549 2.066v6.03h-7.753V67.556h7.753v18.001z"/></g><path fill="#FFF" d="M72.613 76.942h7.68v21.194h-7.68zM76.402 73.836c-2.555 0-4.346-1.891-4.346-4.521 0-2.669 1.838-4.521 4.393-4.521 2.555 0 4.346 1.804 4.393 4.521 0 2.629-1.797 4.521-4.393 4.521h-.047z"/><g fill="#FFF"><path d="M223.063 58.124V46.971h-1.891v-3.32h1.891v-.557c0-1.751.537-3.669 1.838-4.856 1.12-1.066 2.69-1.449 3.991-1.449 1.006 0 1.777.114 2.401.295l-.181 3.461a4.99 4.99 0 0 0-1.449-.208c-1.482 0-2.099 1.154-2.099 2.575v.738h2.897v3.32h-2.871v11.154h-4.527zM237.061 50.873c0 2.488 1.033 4.353 2.958 4.353 1.751 0 2.871-1.751 2.871-4.353 0-2.16-.825-4.346-2.871-4.346-2.16 0-2.958 2.214-2.958 4.346m10.476-.147c0 5.299-3.756 7.726-7.633 7.726-4.232 0-7.492-2.783-7.492-7.458s3.079-7.666 7.726-7.666c4.442 0 7.399 3.052 7.399 7.398M251.059 48.419c0-2.133-.06-3.521-.121-4.769h3.877l.148 2.669h.121c.738-2.106 2.515-2.991 3.903-2.991.416 0 .624 0 .952.06v4.259a4.616 4.616 0 0 0-1.214-.148c-1.657 0-2.783.885-3.079 2.28-.06.295-.087.651-.087 1.006v7.337h-4.5v-9.703zM275.088 39.718v3.937h3.226v3.313h-3.226v5.238c0 1.744.416 2.542 1.777 2.542.617 0 .885-.027 1.328-.114l.034 3.4c-.597.235-1.657.416-2.931.416-1.449 0-2.663-.53-3.374-1.274-.832-.858-1.241-2.247-1.241-4.292v-5.916h-1.925v-3.313h1.925v-2.723l4.407-1.214zM281.865 37.113h4.5v8.256h.06a4.992 4.992 0 0 1 1.771-1.482 5.154 5.154 0 0 1 2.341-.557c2.871 0 5.057 1.979 5.057 6.331v8.464H291.1v-7.961c0-1.898-.651-3.199-2.341-3.199-1.18 0-1.925.771-2.247 1.569-.121.295-.148.684-.148 1.006v8.585h-4.5V37.113zM308.707 49.246c0-1.093-.476-2.931-2.549-2.931-1.891 0-2.663 1.717-2.777 2.931h5.326zm-5.298 3.078c.148 1.865 1.985 2.75 4.085 2.75 1.536 0 2.783-.208 3.997-.59l.59 3.052c-1.482.59-3.286.912-5.238.912-4.916 0-7.726-2.864-7.726-7.398 0-3.669 2.28-7.72 7.311-7.72 4.675 0 6.452 3.635 6.452 7.217 0 .771-.087 1.449-.148 1.777h-9.323zM323.858 58.124V46.971h-1.891v-3.32h1.891v-.557c0-1.751.53-3.669 1.831-4.856 1.127-1.066 2.696-1.449 3.997-1.449 1.006 0 1.777.114 2.401.295l-.181 3.461a4.99 4.99 0 0 0-1.449-.208c-1.482 0-2.099 1.154-2.099 2.575v.738h2.897v3.32h-2.871v11.154h-4.526zM342.088 51.29c-2.368-.034-4.205.53-4.205 2.28 0 1.154.771 1.717 1.777 1.717 1.127 0 2.046-.744 2.341-1.663.06-.235.087-.503.087-.765V51.29zm4.38 3.313c0 1.388.06 2.723.208 3.521h-4.058l-.262-1.449h-.094c-.946 1.154-2.421 1.777-4.138 1.777-2.931 0-4.675-2.133-4.675-4.44 0-3.763 3.374-5.567 8.491-5.533v-.208c0-.771-.416-1.865-2.636-1.865-1.476 0-3.045.503-3.997 1.093l-.825-2.904c1.006-.557 2.991-1.268 5.62-1.268 4.829 0 6.365 2.837 6.365 6.244v5.032zM361.62 57.769c-.798.355-2.307.684-4.024.684-4.675 0-7.666-2.871-7.666-7.431 0-4.232 2.904-7.693 8.29-7.693 1.18 0 2.482.208 3.427.563l-.711 3.34c-.53-.235-1.328-.443-2.515-.443-2.368 0-3.903 1.69-3.877 4.058 0 2.663 1.777 4.051 3.971 4.051 1.06 0 1.891-.174 2.576-.476l.529 3.347zM370.497 39.718v3.937h3.226v3.313h-3.226v5.238c0 1.744.416 2.542 1.777 2.542.617 0 .885-.027 1.328-.114l.034 3.4c-.597.235-1.657.416-2.931.416-1.449 0-2.663-.53-3.374-1.274-.832-.858-1.241-2.247-1.241-4.292v-5.916h-1.925v-3.313h1.925v-2.723l4.407-1.214zM377.186 54.189c.832.503 2.542 1.093 3.877 1.093 1.362 0 1.925-.469 1.925-1.214 0-.738-.443-1.093-2.133-1.657-2.991-1.006-4.145-2.636-4.111-4.319 0-2.723 2.307-4.762 5.889-4.762 1.683 0 3.193.382 4.085.825l-.798 3.105c-.657-.355-1.898-.825-3.139-.825-1.093 0-1.717.443-1.717 1.18 0 .684.563 1.04 2.341 1.657 2.75.952 3.904 2.341 3.93 4.474 0 2.69-2.126 4.702-6.271 4.702-1.891 0-3.582-.443-4.675-1.033l.797-3.226z"/></g></svg>