<svg width="782" height="304" viewBox="0 0 782 304" xmlns="http://www.w3.org/2000/svg"><title>Shape</title><defs><radialGradient fx="50%" fy="50%" r="37.912%" id="a"><stop stop-color="#FFF" offset="0%"/><stop stop-color="#F4E49C" offset="41.7%"/><stop stop-color="#D4B26C" offset="59.5%"/><stop stop-color="#BB8A48" offset="77.4%"/><stop stop-color="#AC7335" offset="91.5%"/><stop stop-color="#A76B2F" offset="100%"/></radialGradient></defs><path d="M181.101 120.703v63.045h56.432v-17.001h-4.381c-14.136 0-17.387-7.963-17.552-46.071h-34.526l.027.027zm30.751 172.658l6.227 7.798h22.65v-7.936h-28.822l-.055.138zM80.94 166.747l-.083.138h-5.511c-14.136 0-17.111-8.266-17.277-46.044H19.492v63.045h61.447v-17.139h.001zm-34.168 52.051l-.165.138a48.388 48.388 0 0 0-27.555 8.266h21.685a28.437 28.437 0 0 1 17.745 5.704 13.5 13.5 0 0 1 4.739 7.908h7.522c0-3.527-.248-6.31-.248-8.266 0-2.563 0-4.987.358-9.947a92.612 92.612 0 0 0-24.081-3.803zM181.101 67.22v49.158h34.471V22.25h-40.505c4.767 5.897 6.034 18.848 6.034 44.97zm-161.663 0l-.027.11v4.657h38.577V20.873a76.12 76.12 0 0 1 19.288-1.929c28.519 0 38.411 5.511 40.037 22.044h17.001V.84H.508v17.112h1.378c14.824 0 17.552 8.404 17.552 49.268zm196.107-49.268V.951h-54.779v17.001h54.779zM16.297 249.411a21.19 21.19 0 0 1 13.777-20.225H16.462A42.434 42.434 0 0 0 .563 262.665c.005 2.721.281 5.435.827 8.101h20.28a55.759 55.759 0 0 1-5.373-21.355zm166.044 23.201l-.248-.055h-16.836v28.436h24.303v-7.77c-6.365-1.295-7.191-3.306-7.219-20.611zm-49.846 20.583l2.755 7.826h21.741v-7.826h-24.496zm91.371-11.545l-18.351-22.347c10.691-3.775 16.891-11.022 16.891-19.812 0-11.545-11.022-20.17-25.626-20.17h-39.789v7.798h30.31l.083.11c9.799-.201 17.928 7.535 18.214 17.332 0 7.054-5.235 11.656-13.226 11.656h-10.03v-27.031h-20.363c2.755 2.204 3.224 7.495 3.224 20.363v21.217h17.139v-7.578h3.279a13.5 13.5 0 0 0 1.929 0l22.76 28.106h23.311a41.333 41.333 0 0 1-9.755-9.644zM48.26 294.353v.11a23.36 23.36 0 0 1-17.607-8.873 62.586 62.586 0 0 1-8.266-12.896H1.693c4.998 18.442 21.985 31.054 41.084 30.503a72.302 72.302 0 0 0 28.795-6.283c1.179-5.864 2.8-11.63 4.85-17.249h-7.908c-3.749 9.342-11.161 14.688-20.254 14.688zm46.127-7.412l-.055.138a44.966 44.966 0 0 1 3.472-14.218h-8.266l-10.774 28.436h22.374v-7.798c-4.767-.496-6.751-2.343-6.751-6.558zm51.582-8.294l-8.818-25.378h-18.434l1.295 3.858.854 2.59 1.212 3.692H101.22l11.738-31.495a152.755 152.755 0 0 0 5.125 19.288h18.379l-11.022-32.046h-15.513l-19.481 51.362h34.168l7.274 20.611h20.253c-2.011-1.736-3.582-5.236-6.172-12.482zM125.854 116.46V76.285H19.438v40.092h38.577V92.735h22.788c22.319 0 27.004 4.409 28.354 23.614l-.028.11h16.725v.001zm530.152.027V22.25h-14.108l.083.11c4.602 5.842 5.511 18.682 5.511 44.969v49.158h8.514zm.083 4.271h-8.349l-.165.138v63.045h8.515v-63.183h-.001zM601.09 239.684l-.028.027c0-11.793-10.801-20.776-24.799-20.776a79.908 79.908 0 0 0-27.334 5.511v15.679h7.522c1.571-8.735 6.2-13.254 13.612-13.254s13.777 7.275 13.777 16.533a25.848 25.848 0 0 1-1.212 7.743h15.541a26.838 26.838 0 0 0 2.921-11.463zM656.089.978h-27.141v16.974h27.141V.978zm30.172-.027H660.47v17.002h25.791V.951zm0 21.41H660.47v94.127h25.791V22.361zM307.522 166.747h-6.806c-14.136 0-17.387-8.266-17.552-46.044h-19.288v63.045h43.647v-17.001h-.001zM459.073 17.952V.951h-43.674v17.001h43.674zm119.312 241.902l-.027.028a39.312 39.312 0 0 1-5.704 6.806c-.606.496-2.425 2.177-5.511 5.098l-13.777 12.345h11.766l18.186-15.375a75.592 75.592 0 0 0 11.297-11.408 38.545 38.545 0 0 0 2.755-4.023h-15.21a32.29 32.29 0 0 1-3.775 6.529zm-308.117-32.79a31.965 31.965 0 0 1 17.966 7.495 46.234 46.234 0 0 1 12.207 16.726h19.454c-3.389-18.599-20.17-32.046-41.608-32.046h-38.273v7.798h30.31l-.056.027zm12.455-183.018l22.044 27.968h49.598L297.795.978H263.93v115.537h19.288l-.495-72.469zm273.122 72.441l16.175 45.989h44.942c-4.547-4.271-8.073-12.262-13.584-28.326l-19.867-57.865h-41.112c.799 2.452 2.48 7.412 3.389 10.168l1.929 5.759 2.755 8.266H504.18l26.039-69.879a300.967 300.967 0 0 0 10.802 41.332h41.057L557.665.895h-34.443l-43.426 115.537h76.023l.026.055zm71.807 50.26h-54.117l5.842 17.167h48.276v-17.167h-.001zm84.703 105.838l-.11.028h-16.533v28.436h25.378v-7.826h-1.102c-6.393 0-7.605-2.976-7.633-20.638zm-67.646-6.173a6.861 6.861 0 1 0 0-13.722 6.861 6.861 0 0 0 0 13.722zm1.763 26.811a10.662 10.662 0 0 1-8.266-5.125 42.55 42.55 0 0 1-4.629-11.793 141.067 141.067 0 0 1-3.885-29.869c0-7.054.606-10.443 2.755-14.576a11.614 11.614 0 0 1 2.177-2.755h-13.777l-.028-.028a49.407 49.407 0 0 0-9.093 30.31c0 24.799 13.97 42.517 33.644 42.517a31.05 31.05 0 0 0 21.134-8.68h-17.773c.001-.001-1.735-.001-2.259-.001zm-2.452-74.811a31.053 31.053 0 0 0-21.135 8.68h20.033a10.662 10.662 0 0 1 8.266 5.125 42.55 42.55 0 0 1 4.629 11.793 141.132 141.132 0 0 1 3.885 29.869c0 7.054-.606 10.443-2.755 14.576a11.634 11.634 0 0 1-2.177 2.755h13.777l.028.028a49.407 49.407 0 0 0 9.093-30.31c0-24.798-13.97-42.516-33.644-42.516zm-129.976 44.391l8.9 8.9 9.534-9.534-8.9-8.9-9.534 9.534zm66.325 23.228h-29.346v.028l-4.905 4.409v10.526h51.748a136.054 136.054 0 0 1 5.704-23.036h-7.164c-3.169 6.448-5.512 7.825-16.037 8.073zm131.876-67.977v.027a35.39 35.39 0 0 1-14.218 4.85 86.894 86.894 0 0 1-14.935.964v7.412h29.153v-13.253zm52.106-89.195l-.028-.11a81.039 81.039 0 0 1-9.589 20.583c-7.137 11.022-21.658 17.277-40.037 17.277-23.587 0-28.244-7.412-28.244-44.088v-1.598h-25.791v63.045h120.965v-55.109h-17.276zm-37.309 115.372h7.522c.854-6.448 4.133-8.68 14.935-8.928h27.498l3.805-8.211.716-7.908h-54.476v25.047zm-238.293-91.702c0-6.586 2.204-16.726 7.688-31.55v-.22h-18.351l-23.504 63.045h49.599v-17.056c-11.023-.772-15.432-4.878-15.432-14.219zm288.305 82.774h-.057l-.026.055.083-.055zm-22.43 53.236l-.11.028a49.307 49.307 0 0 1 5.043-15.954h-9.341l-14.025 28.436h25.378v-7.826c-5.126-.358-6.945-1.295-6.945-4.684zm-3.444-17.883h9.258l15.568-33.286h-8.266l-16.56 33.286zm-55.468-.055v.028h16.533v-37.364h-19.288c2.177 2.508 2.755 8.129 2.755 19.894v17.442zm-394.075-17.305a47.681 47.681 0 0 1 3.929 17.608c0 12.51-11.656 22.347-26.48 22.347-5.346 0-9.121-1.571-11.022-4.491-1.901-2.921-2.287-6.282-2.315-16.175H248.61v28.436h24.11c10.801 0 15.679-.854 22.595-3.995a42.656 42.656 0 0 0 25.378-38.742 39.064 39.064 0 0 0-.358-4.987h-18.698v-.001zm34.707 17.332l-.028.055h15.541v-41.608h-18.269c2.149 2.755 2.755 8.266 2.755 20.115v21.438h.001zm15.817-51.362h-24.799v7.826h24.799v-7.826zm-.193 53.346l-.11.028h-15.541v28.436h25.433v-7.853h-1.984c-6.255 0-7.715-3.527-7.798-20.611zm-50.535-19.316h.204l-.012-.027-.192.027zm76.271 47.725h27.692v-7.798h-2.48c-6.558 0-7.798-3.803-7.798-22.044v-10.471h10.278c10.002 0 12.124 1.268 12.73 9.92h7.55v-17.359h-47.973v47.752h.001zm-129.287-30.338h17.139v-41.635h-19.288c1.819 2.755 2.287 9.286 2.287 20.363v21.217l-.138.055zm129.204-17.414h.083-.083zm58.719-26.232l.028.055h.606c6.668 0 7.908 3.692 7.908 22.044v2.122h17.442V228.25a34.255 34.255 0 0 1 8.652-.854c12.868 0 17.304 2.48 18.048 9.892h7.66V219.24h-60.345v7.797h.001zm8.57 73.984h27.693v-7.798h-2.48c-6.558 0-7.798-3.803-7.798-22.044v-10.471h10.278c10.002 0 12.124 1.268 12.73 9.92h7.55v-17.359H444.91v47.752zm-.083-47.752h.083-.083zM415.454 22.25l.138 94.127h19.068V67.22c0-26.149 1.267-39.073 6.034-44.969h-25.24v-.001zm-46.292 204.787v.055h.606c6.668 0 7.908 3.692 7.908 22.044v2.122h17.442V228.25a34.255 34.255 0 0 1 8.652-.854c12.868 0 17.304 2.48 18.048 9.892h7.66V219.24h-60.317v7.797h.001zm46.485-78.614L358.14 76.285h-49.598l85.612 107.463h40.478v-62.99h-19.04l.055 27.665z" fill="url(#a)" fill-rule="evenodd"/></svg>