<svg width="633" height="329" viewBox="0 0 633 329" xmlns="http://www.w3.org/2000/svg"><g fill="none" fill-rule="evenodd"><g fill="#FFF"><path d="M617.496 214.973c-8.128-.017-14.72 6.552-14.72 14.689 0 8.111 6.592 14.68 14.72 14.68 8.097 0 14.68-6.568 14.68-14.68 0-8.138-6.583-14.706-14.68-14.689zm0 26.412c-6.49 0-11.757-5.259-11.757-11.724 0-6.49 5.267-11.724 11.757-11.724 6.458 0 11.69 5.233 11.69 11.724.001 6.465-5.232 11.724-11.69 11.724z"/><path d="M621.438 229.632c1.193-.447 2.369-1.912 2.369-4.031 0-3.369-3.049-4.409-4.816-4.409h-7.568v15.825h3.624v-6.177h1.359c1.827 0 2.89.488 3.401 2.184.376 1.169.553 2.306 1.296 3.993 1.518 0 2.177.008 3.944.008-.427-.91-1.2-2.145-1.455-3.864-.257-1.696-.841-2.673-2.154-3.529zm-3.455-1.912h-2.903v-3.639h2.552c1.111 0 2.439.456 2.439 1.728 0 1.086-.847 1.911-2.088 1.911z"/><g><path d="M162.727 302.126c-4.157 4.168-9.572 8.318-14.893 10.006-5.02 1.615-19.331 2.869-23.542-8.953-.91-2.557-.168-3.346 2.145-4.031 3.454-1.025 12.347-3.641 21.736-7.161 8.52-3.175 16.119-7.079 18.496-8.673 4.264-2.799 4.896-6.735 3.023-10.969-5.983-13.44-19.507-27.513-41.997-23.232-17.872 3.408-30.672 19.497-30.672 37.899 0 22.792 13.731 36.12 31.208 40.249 16.156 3.848 35.157-3.987 43.283-17.155 3.226-5.074-5.847-11.092-8.787-7.98zm-40.474-17.94c-1.751-4.832-.354-19.62 7.798-22.416 8.571-2.936 13.835 1.479 16.396 10.12.952 3.198.743 6.583-.305 7.854-1.519 1.842-4.232 2.946-6.668 3.762l-6.419 2.127c-6.31 2.146-9.322 2.577-10.802-1.447zM372.06 302.126c-4.158 4.168-9.572 8.318-14.893 10.006-5.021 1.615-19.331 2.869-23.541-8.953-.91-2.557-.17-3.346 2.145-4.031 3.453-1.025 12.348-3.641 21.736-7.161 8.52-3.175 16.12-7.079 18.496-8.673 4.265-2.799 4.896-6.735 3.024-10.969-5.985-13.44-19.509-27.513-41.997-23.232-17.873 3.408-30.673 19.497-30.673 37.899 0 22.792 13.733 36.12 31.21 40.249 16.154 3.848 35.154-3.987 43.28-17.155 3.226-5.074-5.848-11.092-8.787-7.98zm-40.473-17.94c-1.049-2.891-.971-9.34 1.005-14.656 1.329-3.572 3.314-6.361 6.792-7.76 3.919-1.572 7.272-1.141 9.89.368 3.001 1.728 5.138 5.14 6.505 9.752.951 3.198.744 6.583-.304 7.854-1.52 1.842-3.891 2.767-6.668 3.762a178.07 178.07 0 0 1-6.42 2.16c-6.353 1.989-9.322 2.544-10.8-1.48zM531.638 302.126c-4.156 4.168-9.572 8.318-14.892 10.006-5.021 1.615-19.331 2.869-23.54-8.953-.91-2.557-.172-3.346 2.143-4.031 3.456-1.025 12.349-3.641 21.736-7.161 8.521-3.175 16.12-7.079 18.496-8.673 4.264-2.799 4.896-6.735 3.024-10.969-5.984-13.44-19.508-27.513-41.998-23.232-17.871 3.408-30.672 19.497-30.672 37.899 0 22.792 13.732 36.12 31.209 40.249 16.156 3.848 35.156-3.987 43.283-17.155 3.224-5.074-5.85-11.092-8.789-7.98zm-40.473-17.94c-1.047-2.891-.967-9.34 1.008-14.656 1.328-3.572 3.312-6.361 6.791-7.76 3.92-1.572 7.27-1.141 9.891.368 3 1.728 5.138 5.14 6.504 9.752.951 3.198.744 6.583-.305 7.854-1.521 1.842-3.891 2.767-6.668 3.762a175.939 175.939 0 0 1-6.421 2.16c-6.349 1.989-9.319 2.544-10.8-1.48zM60.898 306.45c0 3.053-.961 6.404-3.316 7.455l-5.096 2.304c-.913.419-1.17 1.089-1.17 2.1 0 .252.019.417.069.758l.601 5.786c.268 1.574 1.342 1.831 3.428 1.831h36.917c2.084 0 3.16-.257 3.427-1.831l.599-5.786a4.64 4.64 0 0 0 .072-.758c0-1.012-.258-1.682-1.171-2.1l-5.097-2.304c-2.355-1.051-3.316-4.402-3.316-7.455v-63.956c0-3.054.961-6.404 3.316-7.455l5.097-2.306c.913-.417 1.171-1.09 1.171-2.101a4.61 4.61 0 0 0-.072-.757l-.599-4.345c-.267-1.574-1.343-1.832-3.427-1.832H57.138c-2.084 0-3.159.258-3.425 1.832l-.6 4.345c-.05.341-.07.503-.07.757 0 1.011.257 1.684 1.171 2.101l4.153 2.306c2.374 1.356 2.533 4.401 2.533 7.455v17.837a2.247 2.247 0 0 1-2.247 2.245H38.652a2.246 2.246 0 0 1-2.246-2.245v-17.837c0-3.054.157-6.099 2.53-7.455l4.156-2.306c.913-.417 1.171-1.09 1.171-2.101 0-.254-.023-.416-.072-.757l-.599-4.345c-.268-1.574-1.343-1.832-3.428-1.832H4.974c-2.085 0-3.16.258-3.428 1.832l-.6 4.345a4.61 4.61 0 0 0-.072.757c0 1.011.258 1.684 1.172 2.101l5.095 2.306c2.355 1.051 3.316 4.401 3.316 7.455v63.956c0 3.053-.961 6.404-3.316 7.455l-5.095 2.304c-.914.419-1.172 1.089-1.172 2.1 0 .252.022.417.072.758l.6 5.786c.268 1.574 1.342 1.831 3.428 1.831h36.915c2.085 0 3.16-.257 3.428-1.831l.601-5.786c.05-.341.07-.506.07-.758 0-1.012-.258-1.682-1.171-2.1l-5.095-2.304c-2.355-1.051-3.316-4.402-3.316-7.455v-26.002a2.246 2.246 0 0 1 2.246-2.246h20.001a2.247 2.247 0 0 1 2.247 2.246v26.002h-.002z"/><g transform="translate(174 221)"><ellipse cx="19.091" cy="13.473" rx="13.324" ry="12.859"/><path d="M4.516 105.684c-2.001 0-3.032-.246-3.289-1.757L.651 98.16c-.048-.326-.04-.482-.04-.729 0-.97.265-1.565 1.095-2.014l3.967-2.211c2.202-1.064 3.182-4.223 3.182-7.153V49.534c0-3.055-.523-6.961-3.206-8.299l-2.54-1.463c-.913-.418-1.17-1.09-1.17-2.1 0-.253.02-.416.069-.757l.601-4.345c.268-1.577 1.343-1.832 3.428-1.832h24.938a2.247 2.247 0 0 1 2.247 2.248v53.065c0 2.931.978 6.089 3.181 7.153l3.965 2.211c.83.449 1.097 1.044 1.097 2.014 0 .246.007.402-.041.729l-.575 5.767c-.257 1.511-1.289 1.757-3.289 1.757H4.516v.002z"/></g><path d="M253.994 255.63s1.402-.684 3.929-1.909c4.993-2.345 14.772-6.545 22.85-3.969 7.001 2.234 13.049 7.321 13.049 20.657v40.412c0 1.725.076 2.435.875 2.874 1.073.589 2.945-1.171 4.732-2.093 1.806-.93 2.805.163 3.911 1.385.968 1.068 2.128 2.58 1.185 4.56-2.984 6.254-9.673 9.849-17.496 9.849-7.393 0-16.809-4.24-16.809-15.32v-38.905c0-5.946-4.313-8.009-7.665-7.593-5.057.625-8.736 4.857-8.736 12.4l-.003 29.077c0 2.931.982 6.089 3.182 7.153l3.967 2.211c.83.449 1.095 1.044 1.095 2.014 0 .246.008.402-.04.729l-.576 5.767c-.255 1.511-1.287 1.757-3.287 1.757h-33.046c-1.999 0-3.03-.246-3.289-1.757l-.574-5.767c-.048-.326-.04-.482-.04-.729 0-.97.265-1.565 1.095-2.014l3.966-2.211c2.202-1.064 3.181-4.223 3.181-7.153v-36.519c0-3.055-.522-6.961-3.204-8.299l-2.539-1.463c-.913-.418-1.172-1.09-1.172-2.1 0-.253.02-.416.072-.757l.6-4.345c.268-1.577 1.342-1.832 3.426-1.832h23.495c1.85 0 2.566 1.055 3.095 2.248l.771 1.642zM576.441 255.63s1.401-.684 3.93-1.909c4.993-2.345 14.77-6.545 22.849-3.969 7.002 2.234 13.049 7.321 13.049 20.657v40.412c0 1.725.075 2.435.875 2.874 1.074.589 2.946-1.171 4.732-2.093 1.808-.93 2.807.163 3.912 1.385.969 1.068 2.127 2.58 1.184 4.56-2.984 6.254-9.672 9.849-17.496 9.849-7.393 0-16.809-4.24-16.809-15.32v-38.905c0-5.946-4.311-8.009-7.664-7.593-5.057.625-8.735 4.857-8.735 12.4l-.003 29.077c0 2.931.98 6.089 3.182 7.153l3.967 2.211c.83.449 1.096 1.044 1.096 2.014 0 .246.008.402-.04.729l-.576 5.767c-.255 1.511-1.287 1.757-3.288 1.757h-33.044c-2.003 0-3.033-.246-3.29-1.757l-.574-5.767c-.049-.326-.041-.482-.041-.729 0-.97.265-1.565 1.095-2.014l3.967-2.211c2.201-1.064 3.183-4.223 3.183-7.153v-36.519c0-3.055-.523-6.961-3.205-8.299l-2.539-1.463c-.915-.418-1.174-1.09-1.174-2.1 0-.253.022-.416.072-.757l.602-4.345c.268-1.577 1.34-1.832 3.428-1.832h23.491c1.852 0 2.566 1.055 3.097 2.248l.767 1.642zM456.79 308.063c1.755 2.815 3.894 5.08 6.098 6.145l3.965 2.211c.83.449 1.097 1.044 1.097 2.014 0 .246.005.402-.043.729l-.573 5.767c-.258 1.511-1.289 1.757-3.289 1.757h-19.947c-3.41 0-3.667-.988-5.207-3.77l-16.726-30.456-6.282 6.025-.002 8.571c0 2.931 1.381 6.005 3.66 7.153l3.965 2.211c.83.449 1.098 1.044 1.098 2.014 0 .246.008.402-.042.729l-.575 5.767c-.256 1.511-1.288 1.757-3.288 1.757h-33.045c-2 0-3.032-.246-3.29-1.757l-.572-5.767c-.051-.326-.043-.482-.043-.729 0-.97.268-1.565 1.096-2.014l3.967-2.211c2.203-1.064 3.182-4.223 3.182-7.153v-65.38c0-2.929-.91-5.987-3.182-7.149l-3.967-2.213c-.828-.45-1.096-1.046-1.096-2.017 0-.241-.008-.399.043-.725l.572-4.115c.258-1.511 1.29-1.757 3.29-1.757h23.948a4.264 4.264 0 0 1 4.263 4.267v49.627l10.646-9.611c1.516-1.309 4.006-3.486 4.976-4.453.97-.966 1.169-2.406-.213-2.979l-3.761-1.702c-.832-.379-1.068-.991-1.068-1.914 0-.23.02-.378.065-.689l.546-5.273c.244-1.435 1.225-1.667 3.124-1.667h28.677c1.9 0 2.881.232 3.124 1.667l.547 5.273c.042.311.054.461.063.689.059 1.145-1.286 1.693-2.119 2.072 0 0-2.039.591-3.889 1.647-1.852 1.057-3.826 2.637-6.324 4.872L439.2 276.138l17.59 31.925z"/></g></g><g fill="#BDBCBC"><path d="M431.608 167.861l.029-.49h-3.275c-.127 2.935 1.658 4.902 4.627 4.902 3.236 0 5.195-1.968 5.195-5.209 0-1.87-.744-3.669-2.701-4.143v-.063c1.711-.684 2.16-2.468 2.16-4.127 0-2.803-1.629-4.592-4.461-4.592-3.213 0-4.225 2.347-4.121 5.186h3.043v-.365c0-.77.16-1.824 1.168-1.824 1.016 0 1.203 1.015 1.203 1.791 0 1.954-.793 2.324-2.689 2.324v3.043c1.982-.068 2.643.48 2.643 2.451 0 1.037-.09 2.483-1.51 2.483-.934 0-1.311-.792-1.311-1.367M426.021 154.401h-9.495v3.02h4.725l-5.482 14.568h3.636zM409.177 162.516v-.046c1.629-.545 2.41-2.045 2.41-3.72 0-2.577-1.736-4.61-4.387-4.61-2.695 0-4.406 2.033-4.406 4.61 0 1.675.832 3.175 2.389 3.71v.056c-2.168.731-3.055 2.384-3.055 4.651 0 2.895 2.131 5.106 5.072 5.106 2.945 0 5.021-2.212 5.021-5.106.001-2.213-.833-3.955-3.044-4.651m-2.051-5.658c.945 0 1.07 1.217 1.07 1.873 0 .627 0 1.973-1.07 1.973-.873 0-.977-1.346-.977-1.994 0-.65.143-1.852.977-1.852m.039 12.37c-1.209 0-1.459-1.594-1.459-2.483 0-.912.25-2.553 1.436-2.553 1.129 0 1.545 1.674 1.545 2.553 0 .856-.336 2.483-1.522 2.483M397.349 154.401h-5.045v3.02h1.687v14.568h3.358z"/></g><g fill="#BDBCBC"><path d="M200.652 154.401h-7.692v17.588h7.729v-3.273h-3.93v-3.966h3.418v-3.259h-3.418v-3.83h3.893zM234.685 167.845c-1.254 0-2.235.982-2.235 2.194 0 1.23.981 2.234 2.235 2.234 1.225 0 2.171-1.004 2.171-2.234 0-1.212-.946-2.194-2.171-2.194M229.864 154.401h-9.82v3.26h2.985v14.328h3.836v-14.328h2.999zM214.725 158.367v-3.396c-1.082-.537-2.165-.832-3.411-.832-3.279 0-5.032 2.359-5.032 5.162 0 2.541 1.339 3.859 3.549 5.203 1.058.735 2.261 1.226 2.261 2.56 0 1.179-.958 1.925-2.224 1.925-1.102 0-1.997-.357-2.879-.945v3.34c.882.57 2.204.89 3.287.89 3.568 0 5.553-2.371 5.553-5.495 0-4.763-5.811-4.936-5.811-7.818 0-1.06.764-1.732 1.911-1.732 1.075-.002 1.995.522 2.796 1.138"/></g><path d="M379.331 185.688c.449 1.63-.348 3.213-1.127 3.889-.643.557-1.272.99-1.272.99s-.607.464-1.334.902c-.885.533-2.637.803-4.047-.129 0 0-2.242-1.391-5.881-3.852-11.545-7.801-37.312-25.278-51.397-35.297-14.086 10.019-39.853 27.496-51.396 35.299-3.639 2.459-5.883 3.85-5.883 3.85-1.411.932-3.162.662-4.046.128-.728-.436-1.336-.901-1.336-.901s-.628-.434-1.271-.99c-.78-.676-1.577-2.259-1.127-3.889 0 0 .113-.459.333-1.3.228.443.511.811.794 1.056.642.557 1.271.99 1.271.99s.608.465 1.336.902c.884.534 2.635.803 4.046-.129 0 0 2.244-1.391 5.883-3.85 11.543-7.803 37.31-25.279 51.396-35.299 14.084 10.02 39.852 27.496 51.397 35.298 3.639 2.46 5.881 3.851 5.881 3.851 1.41.932 3.162.663 4.047.13.727-.439 1.334-.903 1.334-.903s.629-.434 1.272-.99c.283-.245.566-.612.795-1.056.219.841.332 1.3.332 1.3zM268.75 114.984c-13.881-10.301-38.466-29.406-49.454-37.972-3.463-2.702-5.479-4.406-5.479-4.406a3.661 3.661 0 0 1-.949-1.164c-.061.182-.264.795-.424 1.488-.235 1.007.05 2.754 1.373 3.808 0 0 2.016 1.705 5.479 4.406 10.718 8.356 34.371 26.737 48.409 37.195.361-1.168.711-2.289 1.045-3.355zm146.931-43.539a3.713 3.713 0 0 1-.949 1.164s-2.018 1.703-5.481 4.405c-10.986 8.566-35.572 27.673-49.453 37.972a582.79 582.79 0 0 1 1.045 3.355c14.039-10.457 37.689-28.839 48.408-37.195 3.463-2.702 5.481-4.405 5.481-4.405 1.322-1.054 1.607-2.802 1.373-3.808a16.794 16.794 0 0 0-.424-1.488z" fill="#BDBCBC"/><path d="M277.274 112.216l-22.221 68.285a.285.285 0 0 0 .104.322s.164.144.34.272c.177.129.363.238.363.238.103.077.24.072.339 0l58.078-42.234 58.076 42.234a.29.29 0 0 0 .34.001s.188-.112.363-.24c.178-.128.338-.272.338-.272a.277.277 0 0 0 .105-.321l-22.221-68.286 58.115-42.183c.1-.071.145-.2.107-.322 0 0-.049-.213-.117-.421-.066-.208-.154-.406-.154-.406a.284.284 0 0 0-.273-.199l-71.812.031L314.984.41a.286.286 0 0 0-.273-.201s-.217-.02-.435-.02c-.217 0-.435.02-.435.02a.287.287 0 0 0-.273.201l-22.161 68.305-71.81-.031a.288.288 0 0 0-.275.198s-.086.2-.153.407c-.068.208-.115.419-.115.419a.285.285 0 0 0 .105.322l58.115 42.186z" fill="#E30613"/></g></svg>
