<svg width="290" height="282" viewBox="0 0 290 282" xmlns="http://www.w3.org/2000/svg"><title>Group</title><g fill="#FFF" fill-rule="evenodd"><path d="M144.913 74.27c14.44 3.987 25.208 5.866 25.208 5.866-6.193-6.198-11.736-12.57-16.535-18.596 8.381-11.853 14.988-20.054 14.988-20.054-8.895 1.961-17.304 4.377-24.826 6.846-7.15-10.27-11.073-17.501-11.073-17.501-2.09 7.71-3.101 15.436-3.438 22.685-11.947 4.624-19.416 8.41-19.416 8.41 6.463 2.91 13.168 5.453 19.663 7.637 1.052 13.949 3.871 23.631 3.871 23.631 3.622-6.471 7.601-12.903 11.558-18.924m65.919-3.656c-1.966 3.075-4.969 5.27-8.482 6.808-.482-9.863-1.99-18.589-1.99-18.589-3 8.104-6.186 15.294-9.264 21.501-10.582 1.363-20.975-.198-20.975-.198 5.701 6.836 10.126 10.888 13.711 13.627-5.361 9.034-9.25 13.861-9.25 13.861 7.5-1.717 13.454-4.561 18.191-7.936 1.941 1.333 3.609 2.816 5.257 5.335 0 0 3.057-4.338 4.105-14.377 7.576-9.906 8.697-20.032 8.697-20.032m-3.459-27.34c-3.374-7.59-8.236-13.313-13.539-17.632-4.525-9.495-9.725-13.882-9.725-13.882.439 2.188.105 4.662-.703 7.215-11.262-5.585-21.532-6.358-21.532-6.358 6.541 4.288 12.349 9.6 17.333 15.08-4.594 7.478-10.633 13.787-10.633 13.787 8.008-1.805 14.453-2.565 19.609-2.704 7.908 10.898 12.176 20.052 12.176 20.052.15-7.367-.586-13.792-1.811-19.341 6.694 1.282 8.825 3.783 8.825 3.783m-45.499-30.656c-5.462-2.747-10.686-4.662-15.552-5.977 6.191-5.232 11.945-6.559 11.945-6.559-9.936-.396-18.486 1.4-25.634 4.154-10.682-.854-17.485.997-17.485.997 1.601 1.203 2.949 3.359 4.332 5.939-9.025 6.174-13.611 12.615-13.611 12.615 5.442-2.697 11.212-4.749 16.907-6.308a53.42 53.42 0 0 0 1.989 3.391c3.766 5.866 7.909 9.961 7.909 9.961 1.473-7.034 4.013-12.51 6.942-16.759 12.699-1.765 22.258-1.454 22.258-1.454M93.305 34.284c3.402-3.293 7.542-6.836 12.564-10.497 0 0-4.623 0-9.522 1.246 3.237-7.837 6.828-12.184 6.828-12.184S82.563 27.511 78.65 53.853c0 0 1.732-4.76 7.601-11.951 2.335 5.225 5.014 8.515 5.014 8.515a68.175 68.175 0 0 1 2.04-16.133"/><path d="M109.821 61.925c-7.155.229-12.762.849-17.132 1.649-1.231-7.653-1.424-13.158-1.424-13.158-3.531 5.392-5.817 10.59-7.231 15.433-4.987 1.848-6.238 3.637-6.238 3.637.773 2.654 2.327 5.234 4.29 7.653-.614 11.471 3.098 19.046 3.098 19.046.834-4.018 2.498-7.928 4.588-11.587 6.101 4.89 12.146 8.082 12.146 8.082-2.846-5.106-4.943-10.82-6.482-16.355 6.843-8.59 14.385-14.4 14.385-14.4"/><path d="M145.214 120.51s-6.001-2.394-14.592-7.236c.301-5.167 1.104-11.74 2.733-20.08 0 0-6.827 6.753-15.671 11.991-5.129-3.541-10.527-7.711-15.767-12.505 0 0 2.552 7.881 7.466 16.556-4.667 1.745-9.473 2.554-13.868 1.479 0 0 5.191 6.482 21.207 9.236 4.444 5.264 9.85 9.62 16.168 11.136 0 0-1.901-2.092-2.327-9.926 4.371.063 9.238-.128 14.651-.651zm29.03-.661c1.373-6.336.338-12.226.338-12.226-4.047 5.827-8.029 10.261-11.715 13.642-9.916.511-17.653-.755-17.653-.755s4.427 4.423 9.529 6.974c-6.739 4.168-11.254 4.536-11.254 4.536 29.497.626 47.198-18.629 47.198-18.629-4.968 3.28-10.724 5.279-16.443 6.458zm-61.631 78.466c7.457-8.54 18.424-13.934 30.653-13.934 12.568 0 23.818 5.707 31.282 14.668l1.975-1.848c-7.953-9.458-19.873-15.468-33.198-15.468-12.982 0-24.628 5.701-32.576 14.739l1.864 1.843zm27.176-21.568l-11.911 2.472-2.997-14.424 11.748-2.44.554 2.646-7.723 1.605.626 3.025 7.366-1.532.55 2.647-7.363 1.527.717 3.468 7.89-1.638.543 2.644zm22.727-9.308l-7.102-1.499-.678 3.213 7.104 1.495-.553 2.639-7.107-1.493-1.248 5.915-4.026-.85 3.045-14.408 11.117 2.344-.552 2.644zm17.166 24.652l-3.529-3.338.557-3.162-6.063-4.217-2.674 1.691-4.016-2.239 14.306-8.543 3.915 2.727-2.496 17.081zm-1.211-15.763l-5.413 3.424 4.297 2.985 1.116-6.409zm-64.23 9.855c-2.643 2.093-7.116 3.804-10.396-.041l-4.728-6.071 3.164-2.484 4.64 5.959c1.671 1.97 3.778 1.588 5.45.27 1.679-1.315 2.533-3.275 1.011-5.367l-4.645-5.953 3.162-2.491 4.723 6.064c2.824 3.878 1.081 7.366-2.381 10.114z"/><path d="M194.179 177.701c-12.689-13.344-30.614-21.662-50.487-21.662-20.105 0-38.227 8.514-50.944 22.142l-2.144-2.183c13.352-13.98 32.183-22.694 53.04-22.694 20.695 0 39.384 8.569 52.72 22.356l-2.185 2.041zm14.245 58.568c-8.812 0-14.172-7.397-14.172-15.498 0-8.413 6.245-14.521 14.392-14.521 9.038 0 14.485 7.172 14.485 15.055 0 9.34-6.775 14.966-14.705 14.964zm-.492-25.771c-5.486 0-7.126 5.23-7.126 8.768 0 5.181 2.303 12.752 8.636 12.752 4.516 0 7.136-4.028 7.136-8.858-.001-5.135-1.995-12.662-8.646-12.662zm-53.483 21.563c0 1.596.311 2.173 2.881 2.66v1.108c-2.793-.137-4.518-.267-6.157-.267-1.642 0-3.364.13-5.315.267v-1.108c1.73-.314 2.036-1.065 2.036-3.148v-21.649c0-1.243-.531-1.818-2.036-1.862v-1.23h13.109c8.195 0 11.164 3.9 11.164 9.03-.005 5.493-4.17 8.855-9.879 8.855-2.168 0-5.358-1.104-5.358-2.031 0-.398.262-.398.664-.398.398 0 .973.132 1.549.132 4.645 0 6.465-2.613 6.465-6.289 0-3.983-2.482-5.398-6.377-5.398l-2.746.284v21.044zm24.236-22.403c0-1.243-.533-1.818-2.043-1.862v-1.157c1.955.135 3.68.267 5.322.267 1.637 0 3.365-.132 5.309-.267v1.157c-1.503.044-2.037.619-2.037 1.862v23.201c0 1.238.531 1.815 2.037 1.862v1.108c-1.949-.132-3.676-.264-5.309-.267-1.642 0-3.367.135-5.322.267v-1.108c1.51-.047 2.043-.624 2.043-1.862v-23.201zm53.317-.026c0-1.243-.531-1.811-2.034-1.862v-1.158c1.946.138 3.673.265 5.314.274 1.195 0 2.525 0 3.898-.274l12.219 19.803h.09v-16.166c0-2.295-1.457-2.476-2.658-2.476v-1.152c1.459.13 2.879.267 4.252.267 1.465 0 2.926-.137 4.344-.267v1.152c-1.508.049-2.041.617-2.041 1.86v26.198h-4.697l-14.697-22.88h-.094v19.269c0 2.3 1.469 2.478 2.658 2.478v1.108c-1.461-.132-2.877-.265-4.252-.265-1.459 0-2.92.133-4.335.265v-1.108c1.503-.042 2.034-.619 2.034-1.862v-23.204h-.001zm34.48 16.126c.904 4.973 4.17 7.29 9.051 7.29 2.686 0 6.561-.771 6.561-4.19 0-2.731-2.828-3.465-4.924-4.103l-3.236-.954c-4.648-1.366-9.299-3.328-9.299-8.707 0-7.067 6.834-9.206 13.629-9.206 2.873 0 5.84.499 8.482 1.456 0 3.286.176 6.066.363 8.43h-1.141c-.959-4.189-4.377-6.146-8.477-6.146-2.277 0-6.113.724-6.113 3.871 0 2.508 2.189 3.235 4.059 3.78l4.785 1.371c4.613 1.321 8.895 3.012 8.895 8.934 0 6.016-6.066 9.209-13.496 9.209-3.33 0-6.836-.551-9.898-1.642 0-3.602-.137-6.75-.354-9.393h1.113zM36.221 209.653c0-1.24-.531-1.818-2.034-1.864v-1.153c1.948.133 3.673.265 5.31.265 1.642 0 3.372-.132 5.315-.265v1.153c-1.5.046-2.034.624-2.034 1.864v8.771h10.719v-8.771c0-1.24-.534-1.818-2.043-1.864v-1.153c1.948.133 3.683.265 5.315.265 1.637 0 3.367-.132 5.315-.265v1.16c-1.503.039-2.036.617-2.036 1.857l-.007 23.206c0 1.238.541 1.815 2.043 1.862v1.128c-1.948-.132-3.678-.264-5.315-.264-1.632 0-3.367.132-5.315.264v-1.128c1.51-.047 2.043-.624 2.043-1.862v-10.185H42.778v10.185c0 1.238.526 1.815 2.034 1.862v1.128c-1.953-.132-3.673-.264-5.315-.264-1.637 0-3.37.132-5.315.264v-1.128c1.507-.047 2.039-.624 2.039-1.862v-23.206zm42.255 13.506c1.153-3.145 2.57-6.639 3.583-10.185h.093c.883 4.473 1.632 7.307 2.564 10.185h-6.24zM67.755 235.83c1.551-.137 3.057-.267 4.605-.267 1.505 0 3.059.13 4.564.267v-1.108c-1.461-.091-2.085-.624-2.085-1.422 0-.44.135-.925.355-1.547l1.95-5.222h8.638l1.415 4.292c.225.575.443 1.593.443 2.215 0 1.016-.575 1.37-2.217 1.684v1.108c1.906-.137 3.812-.267 5.712-.267 1.865 0 3.768.13 5.626.267v-1.108c-1.326-.359-1.987-.933-2.658-2.88l-8.149-25.206c-1.37.133-2.79.265-4.158.265-1.373 0-2.75-.132-4.163-.265v1.16c1.194 0 1.684.71 1.684 1.147 0 .443-.308 1.065-.577 1.729l-8.678 22.007c-.445 1.154-1.023 1.864-2.308 2.043v1.108h.001zm37.943-22.014c.044-1.238.137-2.481.137-4.246 0-1.38-.311-1.549-1.992-1.774v-1.16c1.324.133 2.917.265 4.517.265 1.593 0 3.189-.132 4.777-.265l7.758 20.534 6.945-20.534c1.554.138 3.064.265 4.605.265 1.554 0 3.105-.127 4.613-.265v1.16c-1.554.133-1.771.619-1.771 1.816 0 1.233.171 3.229.308 4.737l1.412 18.908c.098 1.15 1.378 1.329 2.264 1.464v1.108c-1.904-.137-3.854-.267-5.761-.267-1.95 0-3.847.13-5.67.267v-1.108c2.168-.272 2.75-.668 2.75-2.704 0-1.062-.137-3.057-.264-4.515l-1.023-13.197h-.085l-7.393 21.767h-3.727l-8.452-22.033h-.093l-.35 12.975c-.047 2.3-.132 3.496-.132 4.693 0 2.215.223 2.701 2.878 3.015v1.108c-1.772-.137-3.417-.267-5.095-.267-1.635 0-3.279.13-4.652.267v-1.108c1.728-.135 2.438-.536 2.525-2.396l.971-18.51zm-78.181 20.392c-3.042 2.322-7.385 3.257-10.222 3.257-10.555 0-16.523-8.193-16.523-16.586 0-8.59 5.968-16.886 17.401-16.886 4.014 0 6.886.764 8.012 1.209 0 3.358.186 6.593.428 9.803h-1.277c-.786-4.099-3.642-6.272-7.75-6.272-5.572 0-9.872 4.393-9.872 11.803 0 5.574 4.598 11.893 11.044 11.893 2.738 0 6.685-1.498 9.316-3.72l-.557 5.499zm47.937 17.629c0-.954-.411-1.397-1.571-1.434v-.933c1.503.098 2.836.2 4.104.2 1.441 0 3.517-.103 4.51-.2v.933c-1.743.07-1.985.92-1.985 1.882v16.743h6.323c2.256 0 3.182-1.028 3.764-3.629h1.102c-.411 2.227-.783 4.417-.817 6.634h-17v-.93c1.16-.034 1.571-.477 1.571-1.439v-17.827h-.001zm21.757.117c0-.956-.409-1.397-1.571-1.432v-.944h17.274c.039 1.89.1 3.411.277 5.264h-.94c-.34-1.887-.817-2.532-2.665-2.532h-7.307v6.604h4.537c1.542 0 1.777-.514 1.982-1.745h.935c-.102.856-.206 2.33-.206 3.253 0 .922.103 2.425.206 3.247h-.935c-.205-1.233-.44-1.742-1.982-1.742h-4.537v7.102h7.684c1.848 0 2.423-.614 3.008-3.492h1.14a64.904 64.904 0 0 0-.409 6.497H95.64v-.93c1.162-.034 1.571-.477 1.571-1.439v-17.711zm20.996 19.154c.991-.138 1.437-.683 1.784-1.566l6.698-16.949c.208-.509.44-.986.44-1.331 0-.338-.369-.883-1.294-.883v-.931c1.091.104 2.154.201 3.216.201 1.057 0 2.156-.098 3.213-.201l6.294 19.442c.509 1.498 1.023 1.941 2.048 2.218v.93c-1.432-.103-2.905-.206-4.339-.206-1.471 0-2.944.103-4.415.206v-.93c1.27-.24 1.711-.515 1.711-1.292 0-.48-.171-1.263-.342-1.708l-1.094-3.307h-6.668l-1.505 4.021c-.171.478-.272.856-.272 1.194 0 .612.475 1.021 1.608 1.092v.93c-1.158-.103-2.362-.206-3.526-.206-1.192 0-2.359.103-3.556.206v-.93h-.001zm13.1-8.898c-.717-2.217-1.302-4.402-1.985-7.848h-.068c-.788 2.733-1.882 5.426-2.768 7.848h4.821zm27.593 1.836c0-1.37-.619-1.441-2.156-1.469v-1.147c1.4.11 2.803.213 4.244.213 1.537 0 3.039-.103 4.578-.213v1.074c-1.196.034-1.812.343-1.812 1.885v7.649h-1.988l-.777-2.291c-2.158 2.021-4.414 2.736-6.744 2.736-6.429 0-10.533-5.301-10.533-11.455 0-7.422 4.96-11.915 12.345-11.915 2.361 0 4.904.445 6.742 1.593 0 1.682.071 3.604.208 5.969h-.981c-.445-3.044-3.33-4.544-6.174-4.544-4.75 0-7.077 3.629-7.077 8.043 0 4.239 2.398 9.03 6.362 9.03 2.43 0 3.764-1.131 3.764-2.701v-2.457h-.001zm13.535-12.209c0-.954-.406-1.397-1.566-1.434v-.933c1.094.098 2.492.2 3.928.2 1.777 0 3.18-.103 4.553-.2v.933c-1.471.07-1.848.345-1.848 1.676v12.774c0 3.866 1.605 4.622 4.377 4.622 2.773 0 4.379-.824 4.379-4.622v-12.774c0-1.331-.377-1.605-1.848-1.676v-.933c1.367.098 2.767.2 4.551.2 1.43 0 2.834-.103 3.928-.2v.933c-1.162.036-1.573.48-1.573 1.434v12.307c0 6.323-3.282 8.34-9.437 8.34-6.159 0-9.443-2.017-9.443-7.865v-12.782h-.001zm27.692.117c0-.956-.41-1.397-1.57-1.432v-.944h17.275c.026 1.89.103 3.411.274 5.264h-.936c-.35-1.887-.816-2.532-2.672-2.532h-7.312v6.504h4.549c1.53 0 1.777-.511 1.982-1.744h.933a33.65 33.65 0 0 0-.2 3.244c0 .928.1 2.431.2 3.253h-.933c-.205-1.229-.452-1.743-1.982-1.743h-4.549v7.205h7.693c1.844 0 2.428-.614 3.006-3.492h1.141a65.038 65.038 0 0 0-.412 6.497h-18.057v-.93c1.16-.034 1.57-.477 1.57-1.439v-17.711zM222.333 281.254c2.229 0 4.128-1.73 4.128-4.092 0-2.349-1.898-4.077-4.128-4.077-2.244 0-4.146 1.729-4.146 4.077.001 2.361 1.902 4.092 4.146 4.092zm-3.325-4.092c0-1.94 1.455-3.397 3.325-3.397 1.848 0 3.306 1.456 3.306 3.397 0 1.963-1.458 3.414-3.306 3.414-1.87 0-3.325-1.451-3.325-3.414zm2.459.323h.83l1.238 2.038h.795l-1.336-2.072c.688-.088 1.223-.455 1.223-1.297 0-.933-.555-1.341-1.664-1.341h-1.799v4.71h.713v-2.038zm0-.609v-1.458h.983c.489 0 1.02.104 1.02.692 0 .724-.538.766-1.143.766h-.86z"/></g></svg>